<!-- Generated by IcoMoon.io -->
<svg version="1.1" xmlns="http://www.w3.org/2000/svg" width="32" height="32" viewBox="0 0 32 32">
<title>facebook_logo_icon</title>
<path fill="#3b579d" d="M28.715 1.467h-25.43c-1.002 0.003-1.814 0.815-1.817 1.817v25.43c0.003 1.002 0.815 1.814 1.817 1.817h13.677v-11.239h-3.791v-4.401h3.791v-3.266c0-2.573 0.594-4.045 1.879-4.994 1.101-0.813 2.535-0.864 3.411-0.838 0.938 0.029 3.758 0.188 3.758 0.188v3.986l-2.616-0.025s-1.091-0.038-1.5 0.584c-0.349 0.534-0.356 1.447-0.356 1.447v2.894h4.291l-0.483 4.426h-3.831v11.237h7.201c1.002-0.003 1.814-0.815 1.817-1.817v-25.43c-0.003-1.002-0.815-1.814-1.817-1.817h-0z"></path>
</svg>
