<!-- Generated by IcoMoon.io -->
<svg version="1.1" xmlns="http://www.w3.org/2000/svg" width="32" height="32" viewBox="0 0 32 32">
<title>iphone</title>
<path fill="#000" d="M21.44 28.365h-10.707c-0.531 0-0.96-0.435-0.96-0.96v-22.81c0-0.531 0.435-0.96 0.96-0.96h10.707c0.531 0 0.96 0.435 0.96 0.96v22.81c0 0.531-0.429 0.96-0.96 0.96z"></path>
<path fill="#fff" d="M10.682 6.163h10.797v18.816h-10.797v-18.816z"></path>
<path fill="#fff" stroke="#fff" stroke-linejoin="miter" stroke-linecap="round" stroke-miterlimit="10" stroke-width="0.384" d="M14.016 5.248h4.096"></path>
<path fill="#fff" d="M17.107 26.675c0 0.583-0.473 1.056-1.056 1.056s-1.056-0.473-1.056-1.056c0-0.583 0.473-1.056 1.056-1.056s1.056 0.473 1.056 1.056z"></path>
</svg>
