<!-- Generated by IcoMoon.io -->
<svg version="1.1" xmlns="http://www.w3.org/2000/svg" width="32" height="32" viewBox="0 0 32 32">
<title>smart-home</title>
<path fill="#fff" d="M20.425 13.508l-7.149-7.149-7.149 7.149h-4.675v14.574h24.198v-14.574h-5.224z"></path>
<path fill="#b3d8f4" d="M9.959 18.286h7.184v9.796h-7.184v-9.796z"></path>
<path fill="#3d9ae2" d="M0.49 3.884v9.624h5.637l7.149-7.149 7.149 7.149h6.187v-9.624z"></path>
<path fill="#fff" d="M6.099 6.602h0.98v0.98h-0.98v-0.98z"></path>
<path fill="#fff" d="M5.989 5.427l-3.3 2.997v-6.465h3.3z"></path>
<path fill="#3d9ae2" d="M28.853 19.308c0 0.519-0.421 0.939-0.939 0.939s-0.939-0.421-0.939-0.939c0-0.519 0.421-0.939 0.939-0.939s0.939 0.421 0.939 0.939z"></path>
<path fill="#3d9ae2" d="M26.549 22.721c0 0.519-0.421 0.939-0.939 0.939s-0.939-0.421-0.939-0.939c0-0.519 0.421-0.939 0.939-0.939s0.939 0.421 0.939 0.939z"></path>
<path fill="#3d9ae2" d="M31.51 15.895c0 0.519-0.421 0.94-0.939 0.94s-0.939-0.421-0.939-0.94c0-0.519 0.421-0.94 0.939-0.94s0.939 0.421 0.939 0.94z"></path>
<path fill="#3d9ae2" d="M21.7 19.339c0 0.519-0.421 0.939-0.939 0.939s-0.939-0.421-0.939-0.939c0-0.519 0.421-0.939 0.939-0.939s0.939 0.421 0.939 0.939z"></path>
<path fill="#000" d="M17.633 17.796h-8.163v9.796h-7.527v-13.594h4.387l6.947-6.946 6.946 6.946h4.937v4.371h0.98v-4.371h0.963v-10.604h-20.623v-1.925h-4.279v1.925h-2.2v10.604h0.963v14.573h21.019v-0.98h-4.349v-9.796zM26.122 13.018h-5.494l-2.228-2.228h1.719v-0.98h-2.699l-2.228-2.228h10.93v5.436zM3.179 2.449h2.32v2.762l-2.32 2.107v-4.869zM0.98 4.374h1.22v5.157l4.279-3.887v-1.27h19.643v2.229h-11.91l-0.936-0.936-0.936 0.936h-3.955v0.98h2.976l-2.228 2.228h-8.152v-5.436zM0.98 10.79h7.173l-2.228 2.228h-4.944v-2.228zM16.653 27.592h-6.204v-8.816h6.204v8.816z"></path>
<path fill="#000" d="M25.609 21.292c-0.788 0-1.429 0.641-1.429 1.429 0 0.616 0.392 1.142 0.939 1.343v6.466h0.98v-6.466c0.548-0.2 0.939-0.727 0.939-1.343 0-0.788-0.641-1.429-1.429-1.429zM25.609 23.171c-0.248 0-0.45-0.202-0.45-0.45s0.202-0.45 0.45-0.45c0.248 0 0.45 0.202 0.45 0.45s-0.202 0.45-0.45 0.45z"></path>
<path fill="#000" d="M30.571 14.465c-0.788 0-1.429 0.641-1.429 1.429 0 0.616 0.392 1.143 0.94 1.343l-0 7.572-1.678 1.678v-5.836c0.548-0.2 0.939-0.727 0.939-1.343 0-0.788-0.641-1.429-1.429-1.429s-1.429 0.641-1.429 1.429c0 0.616 0.392 1.142 0.939 1.343v9.88h0.98v-2.658l2.657-2.657 0-7.978c0.547-0.2 0.939-0.727 0.939-1.343 0-0.788-0.641-1.429-1.429-1.429zM27.913 19.758c-0.248 0-0.45-0.202-0.45-0.45s0.202-0.45 0.45-0.45c0.248 0 0.45 0.202 0.45 0.45s-0.202 0.45-0.45 0.45zM30.571 16.344c-0.248 0-0.45-0.202-0.45-0.45s0.202-0.45 0.45-0.45 0.45 0.202 0.45 0.45c0 0.248-0.202 0.45-0.45 0.45z"></path>
<path fill="#000" d="M21.25 20.682c0.548-0.2 0.94-0.727 0.94-1.343 0-0.788-0.641-1.429-1.429-1.429s-1.429 0.641-1.429 1.429c0 0.616 0.392 1.142 0.939 1.343l0 4.533 2.657 2.657v2.658h0.98v-3.064l-2.657-2.657-0-4.127zM20.76 19.789c-0.248 0-0.45-0.202-0.45-0.45s0.202-0.45 0.45-0.45c0.248 0 0.45 0.202 0.45 0.45s-0.202 0.45-0.45 0.45z"></path>
<path fill="#fff" d="M23.711 9.81h0.98v0.98h-0.98v-0.98z"></path>
<path fill="#fff" d="M21.425 9.81h0.98v0.98h-0.98v-0.98z"></path>
</svg>
