<!-- Generated by IcoMoon.io -->
<svg version="1.1" xmlns="http://www.w3.org/2000/svg" width="32" height="32" viewBox="0 0 32 32">
<title>telegram</title>
<path fill="#47b0d3" d="M32 16c0 8.837-7.163 16-16 16s-16-7.163-16-16c0-8.837 7.163-16 16-16s16 7.163 16 16z"></path>
<path fill="#3298ba" d="M2.133 16c0-8.478 6.594-15.415 14.933-15.964-0.353-0.023-0.708-0.036-1.067-0.036-8.837 0-16 7.163-16 16s7.163 16 16 16c0.359 0 0.714-0.013 1.067-0.036-8.339-0.549-14.933-7.486-14.933-15.964z"></path>
<path fill="#e5e5e5" d="M23.766 6.816c-0.155-0.106-0.355-0.122-0.525-0.042l-17.193 8.004c-0.302 0.141-0.493 0.448-0.485 0.781 0.007 0.327 0.205 0.62 0.504 0.751l15.851 6.904c0.529 0.241 1.152-0.138 1.186-0.716l0.895-15.209c0.011-0.187-0.077-0.367-0.233-0.472z"></path>
<path fill="#ccc" d="M10.727 18.339l1.071 7.161 11.9-18.723z"></path>
<path fill="#fff" d="M23.242 6.773l-17.193 8.004c-0.296 0.138-0.489 0.445-0.486 0.772s0.205 0.63 0.504 0.761l4.66 2.029 12.971-11.562c-0.143-0.069-0.31-0.072-0.456-0.004z"></path>
<path fill="#e5e5e5" d="M13.214 19.422l-1.415 6.078 11.9-18.723z"></path>
<path fill="#fff" d="M23.766 6.816c-0.022-0.015-0.045-0.028-0.068-0.039l-10.484 12.645 8.704 3.791c0.529 0.241 1.152-0.138 1.186-0.716l0.895-15.209c0.011-0.187-0.077-0.367-0.233-0.472z"></path>
</svg>
