<!-- Generated by IcoMoon.io -->
<svg version="1.1" xmlns="http://www.w3.org/2000/svg" width="32" height="32" viewBox="0 0 32 32">
<title>viber</title>
<path fill="#665cac" d="M19.2 0h-6.401c-6.177 0-11.201 5.025-11.201 11.201v4.801c0 4.336 2.501 8.271 6.401 10.123v5.346c0 0.464 0.581 0.707 0.911 0.377l4.644-4.644h5.646c6.177 0 11.201-5.025 11.201-11.201v-4.801c0-6.177-5.025-11.201-11.201-11.201z"></path>
<path fill="#523494" d="M9.599 26.125c-3.9-1.851-6.401-5.786-6.401-10.123v-4.801c0-6.176 5.025-11.201 11.201-11.201h-1.6c-6.177 0-11.201 5.025-11.201 11.201v4.801c0 4.336 2.501 8.271 6.401 10.123v5.346c0 0.464 0.581 0.707 0.911 0.377l0.69-0.69v-5.034z"></path>
<path fill="#fff" d="M24.053 19.881l-0.48-2.598c-0.040-0.215-0.206-0.383-0.42-0.426l-3.772-0.754c-0.175-0.035-0.356 0.020-0.482 0.146l-1.532 1.532c-2.582-1.157-4.015-2.593-5.275-5.285l1.527-1.527c0.126-0.126 0.181-0.307 0.146-0.482l-0.754-3.772c-0.043-0.214-0.212-0.38-0.426-0.42l-2.598-0.479c-0.071-0.013-0.144-0.012-0.215 0.004-0.686 0.156-1.312 0.501-1.81 1-0.863 0.863-1.192 2.121-0.953 3.64 0.401 2.55 1.651 6.1 3.956 8.414l0.031 0.031c2.313 2.304 5.862 3.553 8.413 3.955 0.321 0.051 0.631 0.076 0.927 0.076 1.106 0 2.032-0.349 2.713-1.029 0.498-0.498 0.844-1.124 1-1.81 0.016-0.071 0.017-0.144 0.004-0.215z"></path>
<path fill="#e5e5e5" d="M13.098 11.49l0.522-0.522-0.522 0.522z"></path>
<path fill="#e5e5e5" d="M18.373 16.775v0z"></path>
<path fill="#e5e5e5" d="M21.342 21.929c-0.297 0-0.606-0.025-0.927-0.076-2.55-0.401-6.1-1.651-8.413-3.955l-0.031-0.031c-2.305-2.315-3.555-5.864-3.956-8.414-0.193-1.227-0.015-2.284 0.516-3.1-0.203 0.136-0.394 0.291-0.569 0.466-0.863 0.863-1.192 2.121-0.953 3.64 0.401 2.55 1.651 6.1 3.956 8.414l0.031 0.031c2.313 2.304 5.862 3.553 8.413 3.955 0.321 0.051 0.631 0.076 0.927 0.076 1.106 0 2.032-0.349 2.713-1.029 0.175-0.175 0.33-0.365 0.466-0.569-0.602 0.392-1.336 0.592-2.173 0.592z"></path>
<path fill="#fff" d="M17.067 9.068c-0.295 0-0.533 0.239-0.533 0.533s0.239 0.533 0.533 0.533c1.177 0 2.134 0.957 2.134 2.134 0 0.291 0.243 0.533 0.533 0.533s0.533-0.243 0.533-0.533c0-1.765-1.436-3.2-3.2-3.2z"></path>
<path fill="#fff" d="M17.067 6.934c-0.197 0-0.396 0.011-0.592 0.032-0.293 0.032-0.504 0.296-0.472 0.589s0.296 0.504 0.589 0.472c0.157-0.017 0.317-0.026 0.475-0.026 2.353 0 4.267 1.914 4.267 4.267 0 0.158-0.009 0.318-0.026 0.475-0.032 0.289 0.183 0.557 0.472 0.589s0.557-0.183 0.589-0.472c0.022-0.195 0.032-0.395 0.032-0.592 0-2.941-2.393-5.334-5.334-5.334z"></path>
<path fill="#fff" d="M17.067 4.801c-0.191 0-0.384 0.007-0.574 0.022-0.294 0.022-0.514 0.279-0.492 0.572s0.279 0.514 0.572 0.492c0.163-0.012 0.329-0.019 0.493-0.019 3.529 0 6.401 2.871 6.401 6.401 0 0.499-0.058 0.996-0.171 1.477-0.065 0.276 0.105 0.562 0.378 0.637 0.288 0.079 0.592-0.102 0.66-0.392 0.133-0.561 0.2-1.141 0.2-1.723 0-4.118-3.35-7.468-7.468-7.468z"></path>
</svg>
