<!-- Generated by IcoMoon.io -->
<svg version="1.1" xmlns="http://www.w3.org/2000/svg" width="32" height="32" viewBox="0 0 32 32">
<title>whatsapp</title>
<path fill="#7fd371" d="M16.005 0h-0.010c-8.82 0-15.995 7.176-15.995 15.999 0 3.499 1.129 6.744 3.047 9.378l-1.993 5.945 6.149-1.966c2.529 1.674 5.548 2.643 8.802 2.643 8.821 0 15.995-7.177 15.995-16 0-8.824-7.174-16-15.995-16zM25.314 22.594c-0.385 1.091-1.918 1.994-3.14 2.258-0.837 0.178-1.928 0.319-5.604-1.205-4.702-1.947-7.731-6.725-7.965-7.036-0.226-0.31-1.9-2.53-1.9-4.825s1.166-3.415 1.637-3.895c0.386-0.395 1.025-0.572 1.636-0.572 0.198 0 0.376 0.009 0.536 0.018 0.47 0.020 0.705 0.049 1.015 0.791 0.386 0.931 1.326 3.226 1.439 3.461s0.226 0.555 0.066 0.865c-0.151 0.32-0.282 0.462-0.517 0.734-0.236 0.272-0.462 0.48-0.696 0.771-0.216 0.254-0.461 0.527-0.188 0.997 0.273 0.462 1.213 1.994 2.595 3.226 1.786 1.59 3.235 2.098 3.752 2.314 0.385 0.161 0.846 0.122 1.129-0.179 0.357-0.386 0.799-1.025 1.251-1.655 0.319-0.453 0.724-0.508 1.147-0.349 0.433 0.15 2.719 1.279 3.189 1.515 0.469 0.235 0.78 0.348 0.892 0.546 0.113 0.199 0.113 1.129-0.274 2.22z"></path>
<path fill="#6dbc61" d="M0 15.999c0 3.499 1.129 6.744 3.047 9.378l-1.993 5.945 6.149-1.966c2.529 1.674 5.548 2.643 8.802 2.643 8.821 0 15.995-7.177 15.995-16 0-8.824-7.174-16-15.995-16h-0.010zM25.314 22.594c-0.385 1.091-1.918 1.994-3.14 2.258-0.837 0.178-1.928 0.319-5.604-1.205-4.702-1.947-7.731-6.725-7.965-7.036-0.226-0.31-1.9-2.53-1.9-4.825s1.166-3.415 1.637-3.895c0.386-0.395 1.025-0.572 1.636-0.572 0.198 0 0.376 0.009 0.536 0.018 0.47 0.020 0.705 0.049 1.015 0.791 0.386 0.931 1.326 3.226 1.439 3.461s0.226 0.555 0.066 0.865c-0.151 0.32-0.282 0.462-0.517 0.734-0.236 0.272-0.462 0.48-0.696 0.771-0.216 0.254-0.461 0.527-0.188 0.997 0.273 0.462 1.213 1.994 2.595 3.226 1.786 1.59 3.235 2.098 3.752 2.314 0.385 0.161 0.846 0.122 1.129-0.179 0.357-0.386 0.799-1.025 1.251-1.655 0.319-0.453 0.724-0.508 1.147-0.349 0.433 0.15 2.719 1.279 3.189 1.515 0.469 0.235 0.78 0.348 0.892 0.546 0.113 0.199 0.113 1.129-0.274 2.22z"></path>
<path fill="#549b45" d="M21.121 0.844c4.079 3.487 6.742 8.818 6.742 13.331 0 2.486-0.81 4.811-2.216 6.809-0.019 0.412-0.11 0.982-0.333 1.609-0.385 1.091-1.918 1.994-3.14 2.258-0.226 0.048-0.473 0.092-0.782 0.102-2.678 1.67-5.996 2.658-9.591 2.658-3.237 0-6.249-0.804-8.772-2.183l-1.974 5.894 6.149-1.966c2.529 1.674 5.548 2.643 8.802 2.643 8.821 0 15.995-7.177 15.995-16 0-7.034-4.562-13.017-10.879-15.156z"></path>
<path fill="#549b45" d="M21.506 18.313c0.107 0.037 0.326 0.134 0.603 0.262l-10.692-10.692c0.037 0.071 0.075 0.152 0.113 0.244 0.386 0.931 1.326 3.226 1.439 3.461s0.226 0.555 0.066 0.865c-0.151 0.32-0.282 0.462-0.517 0.734-0.236 0.272-0.462 0.48-0.696 0.771-0.216 0.254-0.461 0.527-0.188 0.997 0.273 0.462 1.213 1.994 2.595 3.226 1.786 1.59 3.235 2.098 3.752 2.314 0.385 0.161 0.846 0.122 1.129-0.179 0.357-0.386 0.799-1.025 1.251-1.655 0.319-0.453 0.724-0.508 1.146-0.349z"></path>
<path fill="#5caa4f" d="M6.706 11.8l-0.105 0.106 0.115 0.115c-0.004-0.073-0.010-0.147-0.010-0.22z"></path>
</svg>
