<!-- Generated by IcoMoon.io -->
<svg version="1.1" xmlns="http://www.w3.org/2000/svg" width="32" height="32" viewBox="0 0 32 32">
<title>youtube</title>
<path fill="#cf2200" d="M4 0h24c2.209 0 4 1.791 4 4v24c0 2.209-1.791 4-4 4h-24c-2.209 0-4-1.791-4-4v-24c0-2.209 1.791-4 4-4z"></path>
<path fill="#fff" d="M23.206 21.787h-1.372l0.006-0.797c0-0.354 0.291-0.644 0.646-0.644h0.087c0.356 0 0.648 0.29 0.648 0.644l-0.016 0.797zM18.059 20.079c-0.348 0-0.633 0.234-0.633 0.52v3.876c0 0.286 0.285 0.519 0.633 0.519 0.349 0 0.634-0.233 0.634-0.519v-3.876c0-0.287-0.285-0.52-0.634-0.52zM26.417 17.911v7.373c0 1.769-1.534 3.216-3.408 3.216h-14.016c-1.875 0-3.409-1.447-3.409-3.216v-7.373c0-1.769 1.533-3.216 3.409-3.216h14.016c1.874 0 3.408 1.447 3.408 3.216zM9.927 26.085v-7.767l1.738 0.001v-1.151l-4.632-0.007v1.131l1.446 0.004v7.789h1.449zM15.135 19.475h-1.449v4.148c0 0.6 0.036 0.9-0.003 1.006-0.118 0.322-0.647 0.663-0.854 0.035-0.035-0.11-0.004-0.442-0.005-1.012l-0.006-4.176h-1.441l0.004 4.11c0 0.63-0.014 1.1 0.005 1.314 0.035 0.377 0.023 0.817 0.373 1.067 0.652 0.47 1.901-0.070 2.213-0.741l-0.003 0.856 1.163 0.001v-6.608zM19.769 24.224l-0.003-3.452c0-1.316-0.985-2.104-2.321-1.039l0.006-2.566-1.447 0.002-0.007 8.858 1.19-0.017 0.108-0.552c1.521 1.395 2.477 0.439 2.475-1.234zM24.303 23.767l-1.086 0.006c0 0.043-0.003 0.093-0.003 0.147v0.606c0 0.324-0.268 0.588-0.594 0.588h-0.213c-0.326 0-0.594-0.264-0.594-0.588v-1.594h2.487v-0.936c0-0.684-0.017-1.368-0.074-1.759-0.178-1.237-1.914-1.434-2.792-0.8-0.276 0.198-0.486 0.462-0.608 0.818-0.124 0.356-0.185 0.842-0.185 1.459v2.058c0 3.422 4.156 2.938 3.661-0.005zM18.731 12.592c0.075 0.182 0.191 0.329 0.348 0.44 0.156 0.109 0.355 0.164 0.593 0.164 0.209 0 0.394-0.056 0.555-0.173s0.296-0.289 0.406-0.52l-0.027 0.568h1.615v-6.867h-1.271v5.344c0 0.289-0.238 0.526-0.53 0.526-0.29 0-0.529-0.237-0.529-0.526v-5.344h-1.327v4.632c0 0.59 0.011 0.983 0.028 1.183 0.019 0.198 0.064 0.388 0.139 0.572zM13.838 8.714c0-0.659 0.055-1.174 0.164-1.545 0.11-0.37 0.307-0.667 0.594-0.891 0.285-0.225 0.651-0.338 1.095-0.338 0.374 0 0.694 0.073 0.961 0.217 0.269 0.144 0.476 0.332 0.619 0.563 0.146 0.232 0.246 0.471 0.299 0.715 0.054 0.247 0.081 0.621 0.081 1.124v1.737c0 0.637-0.026 1.106-0.075 1.403s-0.155 0.575-0.318 0.834c-0.161 0.257-0.369 0.449-0.622 0.571-0.255 0.124-0.547 0.184-0.876 0.184-0.368 0-0.678-0.051-0.934-0.157s-0.454-0.265-0.596-0.476c-0.143-0.212-0.243-0.469-0.303-0.77s-0.090-0.752-0.090-1.354v-1.818zM15.103 11.442c0 0.389 0.289 0.706 0.642 0.706s0.641-0.318 0.641-0.706v-3.656c0-0.388-0.288-0.706-0.641-0.706s-0.642 0.317-0.642 0.706v3.656zM10.634 13.287h1.523l0.003-5.267 1.8-4.512h-1.666l-0.957 3.351-0.971-3.36h-1.649l1.915 4.523 0.003 5.264z"></path>
</svg>
