<?xml version="1.0" encoding="iso-8859-1"?>
<!-- Generator: Adobe Illustrator 19.0.0, SVG Export Plug-In . SVG Version: 6.00 Build 0)  -->
<svg version="1.1" id="Layer_1" xmlns="http://www.w3.org/2000/svg" xmlns:xlink="http://www.w3.org/1999/xlink" x="0px" y="0px"
	 viewBox="0 0 510.132 510.132" style="enable-background:new 0 0 510.132 510.132;" xml:space="preserve">
<g>
	<path d="M123.522,279.231h-55c-4.142,0-7.5,3.358-7.5,7.5v152c0,4.142,3.358,7.5,7.5,7.5h55c4.142,0,7.5-3.358,7.5-7.5v-152
		C131.022,282.589,127.665,279.231,123.522,279.231z M116.022,431.231h-40v-137h40V431.231z"/>
	<path d="M378.022,286.731v152c0,4.142,3.358,7.5,7.5,7.5h55c4.142,0,7.5-3.358,7.5-7.5v-152c0-4.142-3.358-7.5-7.5-7.5h-55
		C381.38,279.231,378.022,282.589,378.022,286.731z M393.022,294.231h40v137h-40V294.231z"/>
	<path d="M93.478,337.526c2.041,0,4.075-0.828,5.555-2.458l12.504-13.77c2.785-3.066,2.556-7.81-0.51-10.594
		c-3.066-2.785-7.81-2.556-10.594,0.51l-12.504,13.77C83.521,329.836,87.053,337.526,93.478,337.526z"/>
	<path d="M100.432,383.605l-7.562,8.327c-4.407,4.853-0.875,12.542,5.55,12.542c5.298,0,6.789-4.624,13.117-10.785
		c2.785-3.066,2.556-7.81-0.51-10.594C107.96,380.309,103.216,380.538,100.432,383.605z"/>
	<path d="M92.78,366.19l12.504-13.771c2.785-3.066,2.556-7.81-0.51-10.594c-3.067-2.785-7.81-2.556-10.594,0.51l-12.504,13.771
		c-2.785,3.066-2.556,7.81,0.51,10.594C85.244,369.476,89.987,369.265,92.78,366.19z"/>
	<path d="M416.848,311.214l-12.504,13.77c-4.407,4.853-0.875,12.542,5.55,12.542c2.041,0,4.075-0.828,5.555-2.458l12.504-13.77
		c2.785-3.066,2.556-7.81-0.51-10.594C424.376,307.918,419.632,308.147,416.848,311.214z"/>
	<path d="M416.848,383.605l-7.562,8.327c-4.407,4.853-0.875,12.542,5.55,12.542c5.299,0,6.79-4.625,13.116-10.785
		c2.785-3.066,2.556-7.81-0.51-10.594C424.376,380.309,419.632,380.538,416.848,383.605z"/>
	<path d="M421.701,352.419c2.785-3.066,2.556-7.81-0.51-10.594c-3.067-2.785-7.81-2.556-10.594,0.51l-12.504,13.771
		c-4.407,4.853-0.875,12.542,5.55,12.542c2.041,0,4.075-0.828,5.555-2.458L421.701,352.419z"/>
	<path d="M237.522,385.31c-4.142,0-7.5,3.358-7.5,7.5v17.921c0,4.142,3.358,7.5,7.5,7.5s7.5-3.358,7.5-7.5V392.81
		C245.022,388.668,241.665,385.31,237.522,385.31z"/>
	<path d="M475.336,104.926c3.657-1.945,5.044-6.487,3.099-10.144c-32.591-61.265-119.779-62.403-154.285-2.613
		c-2.07,3.588-0.84,8.174,2.747,10.245c3.587,2.068,8.174,0.839,10.245-2.747c28.659-49.66,101.014-48.663,128.05,2.16
		C467.137,105.483,471.678,106.871,475.336,104.926z"/>
	<path d="M457.546,120.368c3.707-1.849,5.212-6.352,3.364-10.059c-24.538-49.197-93.967-49.99-119.891-1.93
		c-1.966,3.646-0.605,8.195,3.041,10.162c3.645,1.967,8.195,0.605,10.162-3.041c20.196-37.441,74.18-36.76,93.266,1.504
		C449.335,120.711,453.838,122.217,457.546,120.368z"/>
	<path d="M439.256,136.224c3.759-1.739,5.398-6.196,3.66-9.956c-16.386-35.435-66.894-36.653-84.486-1.11
		c-1.837,3.712-0.318,8.211,3.395,10.049c3.711,1.837,8.211,0.317,10.049-3.395c11.97-24.182,46.284-23.347,57.427,0.752
		C431.045,136.336,435.506,137.957,439.256,136.224z"/>
	<path d="M400.409,124.36c-12.619,0-22.886,10.267-22.886,22.886s10.267,22.886,22.886,22.886c12.62,0,22.886-10.267,22.886-22.886
		S413.028,124.36,400.409,124.36z M400.409,155.132c-4.348,0-7.886-3.538-7.886-7.886s3.538-7.886,7.886-7.886
		c4.349,0,7.886,3.538,7.886,7.886S404.757,155.132,400.409,155.132z"/>
	<path d="M497.082,472.225h-24.321V263.232h23.28c7.972,0,12.741-8.928,8.29-15.54l-35.69-53.17
		c47.177-37.308,55.451-105.658,17.97-152.96c-2.57-3.25-7.29-3.79-10.54-1.22s-3.79,7.29-1.22,10.53
		c48.299,60.975,5.013,152.08-73.62,152.08c-51.974,0-93.89-42.331-93.89-93.88c0-75.823,85.55-120.046,147.33-77.16
		c3.4,2.37,8.07,1.53,10.43-1.88c2.37-3.4,1.53-8.07-1.88-10.43c-71.623-49.787-170.88,1.543-170.88,89.47
		c0,13.59,2.5,26.6,7.07,38.6h-17.29l-13.58-13.58c-7.73-7.73-20.31-7.73-28.04,0l-13.58,13.58H76.581c-3.35,0-6.46,1.67-8.31,4.45
		l-63.6,95.6c-4.406,6.63,0.348,15.51,8.31,15.51h23.3v208.992H11.939C5.356,472.225,0,477.581,0,484.164v13.909
		c0,6.583,5.356,11.939,11.939,11.939h485.143c6.583,0,11.939-5.356,11.939-11.939v-13.909
		C509.021,477.581,503.666,472.225,497.082,472.225z M456.261,202.992l7.99,11.91h-37.4
		C437.321,212.372,447.211,208.322,456.261,202.992z M474.321,229.902l12.31,18.33c-14.816,0-89.536,0-104.15,0
		c-1.171-1.502-0.749-0.88-18.14-18.33H474.321z M457.761,263.232v208.99h-89.28v-188.35c6.522-2.099,9.107-6.428,12.49-9.42
		c3.07-3.07,5.01-6.98,5.6-11.22H457.761z M334.971,195.412c11.86,9.13,25.65,15.87,40.64,19.49h-26.27l-19.48-19.49H334.971z
		 M306.481,162.672c3.59,6.34,7.81,12.28,12.56,17.74h-4.18l-17.74-17.74H306.481z M251.111,144.702c1.85-1.85,4.97-1.85,6.83,0
		c120.513,120.512,113.82,113.113,113.82,115.79c0,1.325-0.583,2.542-1.39,3.35c-0.107,0.107-4.884,4.884-4.6,4.6
		c-1.85,1.85-4.86,1.85-6.71,0c-27.151-27.151-59.467-59.467-88.03-88.03h0l-11.21-11.21c-2.931-2.931-7.665-2.935-10.6,0
		c-10.53,10.53-82.982,82.982-99.24,99.24c-1.85,1.85-4.86,1.85-6.7,0c-0.263-0.259-4.829-4.769-5.11-5.21
		c-1.304-1.807-1.177-4.404,0.5-6.1C192.557,203.24,227.328,168.48,251.111,144.702z M296.903,392.308c-4.142,0-7.5,3.358-7.5,7.5
		v71.364h-69.762V334.017h69.762v35.791c0,4.142,3.358,7.5,7.5,7.5s7.5-3.358,7.5-7.5v-37.493c0-7.332-5.965-13.297-13.297-13.297
		h-73.167c-7.332,0-13.297,5.965-13.297,13.297v139.908h-49.08v-189.54c4.975-2.487,98.824-97.432,98.96-97.57
		c102.701,102.701,94.967,95.563,98.96,97.57v189.54h-49.077v-72.415C304.403,395.666,301.045,392.308,296.903,392.308z
		 M140.561,283.862v188.36h-89.28v-208.99h71.2c1.253,9.036,7.569,12.63,10.19,15.82
		C134.961,281.332,137.671,282.942,140.561,283.862z M57.491,195.412h54.03c4.14,0,7.5-3.36,7.5-7.5s-3.36-7.5-7.5-7.5h-44.05
		l11.8-17.74h132.65l-17.74,17.74h-52.66c-4.14,0-7.5,3.36-7.5,7.5s3.36,7.5,7.5,7.5h37.66l-19.48,19.49H44.521L57.491,195.412z
		 M22.351,248.232l12.19-18.33h110.16c-17.384,17.443-16.969,16.828-18.14,18.33C115.695,248.232,33.572,248.232,22.351,248.232z
		 M494.021,495.012H15v-7.788h479.021V495.012z"/>
</g>
<g>
</g>
<g>
</g>
<g>
</g>
<g>
</g>
<g>
</g>
<g>
</g>
<g>
</g>
<g>
</g>
<g>
</g>
<g>
</g>
<g>
</g>
<g>
</g>
<g>
</g>
<g>
</g>
<g>
</g>
</svg>
