<?xml version="1.0" encoding="iso-8859-1"?>
<!-- Generator: Adobe Illustrator 19.0.0, SVG Export Plug-In . SVG Version: 6.00 Build 0)  -->
<svg version="1.1" id="Layer_1" xmlns="http://www.w3.org/2000/svg" xmlns:xlink="http://www.w3.org/1999/xlink" x="0px" y="0px"
	 viewBox="0 0 508.055 508.055" style="enable-background:new 0 0 508.055 508.055;" xml:space="preserve">
<g>
	<path d="M496.116,468.975h-4.445c0.688-13.613-7.823-25.468-19.891-29.862v-179.13h23.29c7.972,0,12.741-8.928,8.29-15.54
		l-64.17-95.6c-1.86-2.77-4.95-4.42-8.29-4.42H326.17l-13.58-13.58c-7.73-7.73-20.31-7.73-28.04,0l-13.58,13.58h-71.36V29.702
		c0-15.66-12.74-28.41-28.41-28.41H28.42C12.75,1.293,0,14.043,0,29.702v316.58c0,15.66,12.75,28.41,28.42,28.41h96.94v64.42
		c-12.122,4.372-20.56,16.338-19.892,29.862h-4.439c-6.583,0-11.939,5.356-11.939,11.939v13.909c0,6.583,5.356,11.939,11.939,11.939
		h65.086c4.142,0,7.5-3.358,7.5-7.5s-3.358-7.5-7.5-7.5H104.09v-7.788c23.404,0,373.058,0,388.965,0v7.788H196.116
		c-4.142,0-7.5,3.358-7.5,7.5s3.358,7.5,7.5,7.5h300c6.583,0,11.939-5.356,11.939-11.939v-13.909
		C508.055,474.331,502.699,468.975,496.116,468.975z M485.66,244.982c-6.461,0-51.595,0-59.12,0
		c-1.172-1.503-0.753-0.884-18.14-18.33h64.96L485.66,244.982z M412.53,280.623c6.532-2.102,9.1-6.423,12.5-9.43
		c3.14-3.14,5.01-7.1,5.58-11.21h26.17v177.74c-2.08,0.33-4.11,0.88-6.07,1.64c-1.94-5.91-5.25-11.29-9.72-15.77
		c-12.762-12.745-28.052-11.639-28.46-11.72C412.53,411.753,412.531,291.114,412.53,280.623z M428.23,159.422l11.91,17.74h-16.23
		c-4.15,0-7.5,3.36-7.5,7.5c0,4.14,3.35,7.5,7.5,7.5h26.3l13.08,19.49H393.4l-19.49-19.49h20c4.14,0,7.5-3.36,7.5-7.5
		c0-4.14-3.36-7.5-7.5-7.5h-35l-17.74-17.74H428.23z M199.61,159.422h56.36l-17.74,17.74h-38.62V159.422z M199.61,192.163h23.62
		l-19.48,19.49h-4.14V192.163z M199.61,237.002c8.014-8.014,83.815-83.815,95.55-95.55c1.85-1.85,4.98-1.85,6.83,0
		c36.266,36.266,80.184,80.184,112.43,112.43c1.66,1.66,1.83,4.25,0.51,6.1c-0.278,0.437-0.257,0.337-5.11,5.21
		c-1.85,1.85-4.86,1.85-6.71,0c-106.657-106.657-100.057-100.448-102.45-101.14c-2.595-0.775-5.457-0.033-7.39,1.9
		c-17.068,17.068-74.306,74.306-93.66,93.66V237.002z M386.754,303.512v-9.64h10.776v9.64H386.754z M397.53,318.512v9.64h-27.841
		v-9.64C379.281,318.512,387.837,318.512,397.53,318.512z M155.443,16.293l-6.958,30.122H51.128l-6.958-30.122H155.443z
		 M28.42,359.692c-7.4,0-13.42-6.02-13.42-13.41V29.702c0-7.39,6.02-13.41,13.42-13.41h0.356l7.993,34.604
		c1.43,6.193,6.868,10.519,13.225,10.519h99.627c6.356,0,11.795-4.325,13.225-10.518l7.993-34.604h0.362
		c7.39,0,13.41,6.02,13.41,13.41c0,19.696,0,297.057,0,316.58c0,7.39-6.02,13.41-13.41,13.41
		C119.095,359.692,76.136,359.692,28.42,359.692z M184.61,371.32v44.992c-14.155-7.331-31.65-5.564-44.25,5.15v-46.77
		C167.631,373.864,174.454,376.782,184.61,371.32z M230.22,468.972c-23.977,0-85.067,0-109.72,0
		c-0.805-8.048,4.944-15.381,12.96-16.49c4.252-0.596,7.618-3.593,8.8-7.58c5.425-18.705,29.41-24.194,42.35-10.02
		c8.773,9.413,3.711,16.662,12.49,20.54c3.125,1.389,6.901,1.205,10.02-0.76C217.613,448.013,231.455,456.348,230.22,468.972z
		 M351.89,468.972h-3.436v-72.416c0-4.142-3.357-7.5-7.5-7.5s-7.5,3.358-7.5,7.5v71.365h-69.763V330.767h69.763v35.79
		c0,4.142,3.357,7.5,7.5,7.5s7.5-3.358,7.5-7.5v-37.492c0-7.332-5.966-13.297-13.298-13.297h-73.167
		c-7.333,0-13.298,5.965-13.298,13.297v139.908h-3.441c1.227-21.247-20.403-37.597-40.97-29.61c-1.12-3.4-2.68-6.63-4.67-9.61V421.7
		h18.28c4.142,0,7.5-3.358,7.5-7.5v-17.14h9.565c4.142,0,7.5-3.358,7.5-7.5v-24.64c0-4.142-3.358-7.5-7.5-7.5H199.61
		c0-16.769,0-61.721,0-77.988c3.447-1.724-4.921,6.312,98.96-97.57c102.681,102.681,94.775,95.176,97.944,97.01h-17.26
		c-4.143,0-7.5,3.358-7.5,7.5v17.14h-9.565c-4.143,0-7.5,3.358-7.5,7.5v24.64c0,4.142,3.357,7.5,7.5,7.5h35.341v71.74
		c-10.21,4.22-18.49,12.58-22.4,23.23C360.863,441.443,351.039,454.808,351.89,468.972z M210.39,397.06v9.64h-10.779v-9.64H210.39z
		 M199.611,382.06v-9.64h27.844v9.64C217.862,382.06,209.306,382.06,199.611,382.06z M476.64,468.972c-24.819,0-85.65,0-109.71,0
		c-0.826-8.25,5.126-15.415,12.96-16.49c4.17-0.58,7.62-3.55,8.79-7.58c5.156-17.776,27.953-24.418,41.7-10.7
		c9.604,9.604,4.216,17.278,13.14,21.22c6.171,2.726,9.887-1.166,13.26-2.3C466.987,449.648,477.724,457.898,476.64,468.972z"/>
	<path d="M281.573,382.06c-4.143,0-7.5,3.358-7.5,7.5v17.921c0,4.142,3.357,7.5,7.5,7.5s7.5-3.358,7.5-7.5V389.56
		C289.073,385.418,285.715,382.06,281.573,382.06z"/>
	<path d="M63.233,38.407h46.415c4.142,0,7.5-3.358,7.5-7.5s-3.358-7.5-7.5-7.5H63.233c-4.142,0-7.5,3.358-7.5,7.5
		S59.091,38.407,63.233,38.407z"/>
	<circle cx="129.487" cy="30.907" r="6.894"/>
	<path d="M176.846,337.585V80.32c0-4.667-3.796-8.463-8.463-8.463H31.232c-4.667,0-8.463,3.796-8.463,8.463v257.266
		c0,4.667,3.797,8.463,8.463,8.463h137.151C173.049,346.049,176.846,342.252,176.846,337.585z M161.846,331.049H37.768V86.857
		h124.078V331.049z"/>
	<path d="M41.713,193.315c3.587,2.069,8.173,0.84,10.245-2.747c21.391-37.065,75.393-36.321,95.573,1.611
		c1.945,3.657,6.486,5.044,10.144,3.099c3.657-1.946,5.044-6.487,3.099-10.144c-25.731-48.368-94.565-49.267-121.807-2.064
		C36.896,186.658,38.126,191.244,41.713,193.315z"/>
	<path d="M51.93,199.597c-1.966,3.646-0.605,8.195,3.041,10.162c3.645,1.966,8.194,0.605,10.162-3.041
		c14.888-27.599,54.676-27.1,68.746,1.109c1.852,3.713,6.359,5.209,10.059,3.364c3.707-1.849,5.212-6.353,3.364-10.059
		C127.783,162,72.552,161.368,51.93,199.597z"/>
	<path d="M65.308,216.573c-1.837,3.712-0.317,8.211,3.395,10.048s8.211,0.317,10.048-3.395c8.568-17.31,33.127-16.713,41.102,0.538
		c1.268,2.741,3.979,4.354,6.813,4.354c5.414,0,9.116-5.645,6.803-10.649C120.252,188.884,79.499,187.898,65.308,216.573z"/>
	<path d="M99.175,218.999c-10.667,0-19.346,8.679-19.346,19.347c0,10.667,8.679,19.346,19.346,19.346
		c10.668,0,19.347-8.679,19.347-19.346C118.522,227.677,109.843,218.999,99.175,218.999z M99.175,242.692
		c-2.396,0-4.346-1.95-4.346-4.346c0-2.397,1.95-4.347,4.346-4.347c2.397,0,4.347,1.95,4.347,4.347
		C103.522,240.742,101.572,242.692,99.175,242.692z"/>
</g>
<g>
</g>
<g>
</g>
<g>
</g>
<g>
</g>
<g>
</g>
<g>
</g>
<g>
</g>
<g>
</g>
<g>
</g>
<g>
</g>
<g>
</g>
<g>
</g>
<g>
</g>
<g>
</g>
<g>
</g>
</svg>
