<?xml version="1.0" encoding="iso-8859-1"?>
<!-- Generator: Adobe Illustrator 19.0.0, SVG Export Plug-In . SVG Version: 6.00 Build 0)  -->
<svg version="1.1" id="Layer_1" xmlns="http://www.w3.org/2000/svg" xmlns:xlink="http://www.w3.org/1999/xlink" x="0px" y="0px"
	 viewBox="0 0 509.151 509.151" style="enable-background:new 0 0 509.151 509.151;" xml:space="preserve">
<g>
	<path d="M339.502,150.665v78.65c-12.689,7.315-20.188,21.086-19.432,35.795c0.21,4.136,3.709,7.332,7.87,7.111
		c4.137-0.209,7.32-3.733,7.11-7.87c-0.513-10.36,5.489-19.598,14.817-23.456c2.805-1.16,4.634-3.896,4.634-6.931v-83.3
		c0-2.458,2.077-4.536,4.536-4.536s4.536,2.077,4.536,4.536v83.3c0,3.035,1.829,5.771,4.634,6.931
		c9.021,3.73,14.849,12.447,14.849,22.206c0,19.354-21.781,30.64-37.562,19.839c-3.417-2.339-8.086-1.464-10.426,1.953
		c-2.339,3.418-1.465,8.085,1.953,10.425c25.594,17.519,61.034-0.717,61.034-32.217c0-14.111-7.5-26.879-19.482-33.787v-78.65
		c0-10.772-8.764-19.536-19.536-19.536S339.502,139.893,339.502,150.665z"/>
	<path d="M494.588,352.282H478.14c0.576-1.865,0.229-2.231,0.332-14.501c0-8.031-6.533-14.564-14.563-14.564h-9.103V184.056
		l17.97,18c6.88,6.88,18.08,6.88,24.96,0l3.82-3.81c6.88-6.88,6.88-18.08,0-24.96l-129.82-130.05
		c-6.923-6.923-18.176-6.894-25.06-0.01l-130.15,130.06c-6.88,6.88-6.88,18.08,0,24.96c2.318,1.767,6.543,8.97,16.29,8.97
		c4.52,0,9.04-1.72,12.48-5.16l17.97-17.95v139.111h-9.1c-8.031,0-14.564,6.534-14.564,14.564v14.501h-16.114
		c-8.031,0-14.564,6.534-14.564,14.564v14.925c0,8.031,6.533,14.564,14.564,14.564h190c4.143,0,7.5-3.358,7.5-7.5
		s-3.357-7.5-7.5-7.5H223.924v-14.053c136.675-0.01,187.372,0,270.228,0v14.053h-51.663c-4.143,0-7.5,3.358-7.5,7.5
		s3.357,7.5,7.5,7.5h52.1c8.03,0,14.563-6.533,14.563-14.564v-14.925C509.151,358.816,502.618,352.282,494.588,352.282z
		 M232.817,192.226c-1.951,0-2.626-1.926-5.69-4.59c-1.03-1.03-1.03-2.71,0-3.74c83.636-83.578,30.063-30.047,28.354-28.34
		c0.956-0.955,21.95-21.933,101.796-101.72c1.04-1.04,2.809-1.041,3.85,0c67.934,68.057,90.143,90.304,129.81,130.05h0.01
		c1.029,1.044,1.025,2.725,0,3.75l-3.82,3.82c-1.03,1.03-2.71,1.03-3.74,0c0.101,0.101-93.025-93.204-118.88-119.11
		c-2.904-2.924-7.662-2.937-10.61-0.01C226.489,199.682,234.526,192.226,232.817,192.226z M439.807,169.026v154.19h-161.54v-154.1
		l80.93-80.86L439.807,169.026z M254.603,352.27v-14.053h208.87c0.102,11.852-0.239,12.198,0.328,14.053H254.603z"/>
	<path d="M171.195,97.699c-15.239,0-127.685,0-142.783,0C12.746,97.699,0,110.445,0,126.112v316.574
		c0,15.667,12.746,28.413,28.412,28.413h142.783c15.666,0,28.412-12.746,28.412-28.413V126.112
		C199.607,110.445,186.861,97.699,171.195,97.699z M155.439,112.699l-6.957,30.123H51.125l-6.957-30.123H155.439z M184.607,442.686
		c0,7.396-6.017,13.413-13.412,13.413H28.412c-7.396,0-13.412-6.017-13.412-13.413V126.112c0-7.396,6.017-13.413,13.412-13.413
		h0.361l7.992,34.605c1.432,6.192,6.87,10.518,13.226,10.518h99.627c6.355,0,11.794-4.325,13.226-10.519l7.992-34.604h0.361
		c7.396,0,13.412,6.017,13.412,13.413V442.686z"/>
	<path d="M63.229,134.813h46.416c4.143,0,7.5-3.358,7.5-7.5s-3.357-7.5-7.5-7.5H63.229c-4.143,0-7.5,3.358-7.5,7.5
		S59.087,134.813,63.229,134.813z"/>
	<circle cx="129.484" cy="127.313" r="6.894"/>
	<path d="M168.38,168.263H31.228c-4.666,0-8.463,3.797-8.463,8.463v257.265c0,4.667,3.797,8.463,8.463,8.463H168.38
		c4.666,0,8.463-3.797,8.463-8.463V176.726C176.843,172.06,173.046,168.263,168.38,168.263z M161.843,427.455H37.765V183.263
		h124.078V427.455z"/>
	<path d="M99.804,298.501c27.662,0,50.167-22.504,50.167-50.167c0-38.554-41.848-62.561-75.045-43.573
		c-3.596,2.057-4.843,6.638-2.787,10.234c2.058,3.596,6.64,4.843,10.234,2.787c23.246-13.296,52.598,3.514,52.598,30.552
		c0,19.391-15.775,35.167-35.167,35.167c-24.653,0-41.786-24.909-32.765-47.973c1.509-3.857-0.395-8.208-4.252-9.717
		c-3.854-1.509-8.207,0.394-9.717,4.252C40.206,262.942,64.611,298.501,99.804,298.501z"/>
	<path d="M99.804,221.035c-4.143,0-7.5,3.358-7.5,7.5v12.3h-12.3c-4.143,0-7.5,3.358-7.5,7.5s3.357,7.5,7.5,7.5h12.3v12.299
		c0,4.142,3.357,7.5,7.5,7.5s7.5-3.358,7.5-7.5v-12.299h12.3c4.143,0,7.5-3.358,7.5-7.5s-3.357-7.5-7.5-7.5h-12.3v-12.3
		C107.304,224.393,103.946,221.035,99.804,221.035z"/>
	<path d="M99.804,312.217c-27.662,0-50.167,22.504-50.167,50.167s22.505,50.167,50.167,50.167s50.167-22.505,50.167-50.167
		S127.466,312.217,99.804,312.217z M99.804,397.55c-19.392,0-35.167-15.776-35.167-35.167c0-19.391,15.775-35.167,35.167-35.167
		s35.167,15.776,35.167,35.167C134.971,381.774,119.195,397.55,99.804,397.55z"/>
	<path d="M80.004,354.883c-4.143,0-7.5,3.358-7.5,7.5s3.357,7.5,7.5,7.5h39.6c4.143,0,7.5-3.358,7.5-7.5s-3.357-7.5-7.5-7.5H80.004z
		"/>
</g>
<g>
</g>
<g>
</g>
<g>
</g>
<g>
</g>
<g>
</g>
<g>
</g>
<g>
</g>
<g>
</g>
<g>
</g>
<g>
</g>
<g>
</g>
<g>
</g>
<g>
</g>
<g>
</g>
<g>
</g>
</svg>
