<?xml version="1.0" encoding="iso-8859-1"?>
<!-- Generator: Adobe Illustrator 19.0.0, SVG Export Plug-In . SVG Version: 6.00 Build 0)  -->
<svg version="1.1" id="Layer_1" xmlns="http://www.w3.org/2000/svg" xmlns:xlink="http://www.w3.org/1999/xlink" x="0px" y="0px"
	 viewBox="0 0 508.6 508.6" style="enable-background:new 0 0 508.6 508.6;" xml:space="preserve">
<g>
	<path d="M360.915,0c-18.731,0-193.692,0-213.24,0c-18.428,0-33.42,14.992-33.42,33.42v308.233c0,4.142,3.358,7.5,7.5,7.5
		s7.5-3.358,7.5-7.5V33.42c0-10.157,8.263-18.42,18.42-18.42h28.449l6.357,32.537c1.249,6.353,6.85,10.963,13.319,10.963h117.89
		c6.626,0,12.25-4.74,13.371-11.266L332.618,15h28.297c10.162,0,18.43,8.263,18.43,18.42v441.76c0,10.157-8.268,18.42-18.43,18.42
		h-213.24c-10.157,0-18.42-8.263-18.42-18.42V371.653c0-4.142-3.358-7.5-7.5-7.5s-7.5,3.358-7.5,7.5V475.18
		c0,18.428,14.992,33.42,33.42,33.42h213.24c18.433,0,33.43-14.992,33.43-33.42V33.42C394.345,14.992,379.348,0,360.915,0z
		 M312.484,43.5H196.976L191.407,15c17.533,0,113.548,0,125.989,0L312.484,43.5z"/>
	<path d="M293.716,68.8H161.677c-11.236,0-20.377,9.141-20.377,20.377v372.245c0,11.236,9.141,20.377,20.377,20.377h185.245
		c11.236,0,20.377-9.141,20.377-20.377V89.178c0-11.236-9.141-20.377-20.377-20.377h-26.207c-4.142,0-7.5,3.358-7.5,7.5
		s3.358,7.5,7.5,7.5h26.207c2.965,0,5.377,2.412,5.377,5.377v372.245c0,2.965-2.412,5.377-5.377,5.377H161.677
		c-2.965,0-5.377-2.412-5.377-5.377V89.178c0-2.965,2.412-5.377,5.377-5.377h132.038c4.142,0,7.5-3.358,7.5-7.5
		S297.858,68.8,293.716,68.8z"/>
	<circle cx="293.963" cy="29.55" r="7.5"/>
	<path d="M212.262,36.41h49.784c4.142,0,7.5-3.358,7.5-7.5s-3.358-7.5-7.5-7.5h-49.784c-4.142,0-7.5,3.358-7.5,7.5
		S208.12,36.41,212.262,36.41z"/>
	<path d="M252.083,181.844c-65.583,1.55-98.294,80.998-52.678,128.28c14.156,14.672,13.159,33.194,13.213,33.477
		c0,8.038,5.113,14.885,12.25,17.513v22.769c0,16.014,13.028,29.042,29.042,29.042s29.042-13.028,29.042-29.042v-23.039
		c7.172-2.905,12.25-9.933,12.25-18.135c0.115-1.237-0.277-7.879,3.099-16.616c1.493-3.863-0.429-8.206-4.293-9.699
		c-3.86-1.494-8.206,0.428-9.699,4.292c-2.306,5.967-3.64,12.152-3.999,18.412c-3.761-3.204-4.419-1.161-47.943-1.792
		c-1.874,0-3.583,0.692-4.897,1.827c-0.952-14.894-6.995-28.774-17.271-39.425c-36.568-37.904-10.357-101.627,42.233-102.869
		c52.395-1.202,81.177,59.938,48.154,99.563c-2.652,3.182-2.222,7.911,0.959,10.563c3.183,2.653,7.912,2.223,10.563-0.959
		C353.371,256.498,317.248,180.342,252.083,181.844z M240.671,388.519h26.479C262.762,401.012,245.072,401.046,240.671,388.519z
		 M239.868,362.277h28.085v11.242h-28.085V362.277z"/>
	<path d="M261.411,166.729v-13.286c0-4.142-3.358-7.5-7.5-7.5c-4.142,0-7.5,3.358-7.5,7.5v13.286c0,4.142,3.358,7.5,7.5,7.5
		C258.053,174.229,261.411,170.871,261.411,166.729z"/>
	<path d="M222.657,179.057c3.893-1.417,5.899-5.721,4.483-9.613l-4.544-12.484c-1.417-3.893-5.722-5.901-9.613-4.483
		c-3.893,1.417-5.899,5.721-4.483,9.613l4.544,12.484C214.46,178.461,218.76,180.475,222.657,179.057z"/>
	<path d="M194.94,194.282c3.173-2.662,3.587-7.393,0.924-10.566l-8.54-10.178c-2.663-3.173-7.394-3.587-10.566-0.924
		c-3.173,2.662-3.587,7.393-0.924,10.566l8.54,10.178C187.028,196.521,191.759,196.953,194.94,194.282z"/>
	<path d="M295.555,174.574l4.544-12.484c1.417-3.892-0.59-8.196-4.483-9.613c-3.89-1.417-8.196,0.591-9.613,4.483l-4.544,12.484
		c-1.417,3.892,0.59,8.196,4.483,9.613C289.843,180.476,294.142,178.457,295.555,174.574z"/>
	<path d="M331.842,172.614c-3.173-2.663-7.904-2.25-10.566,0.924l-8.54,10.178c-2.663,3.173-2.249,7.904,0.924,10.566
		c3.193,2.679,7.921,2.229,10.566-0.924l8.54-10.178C335.428,180.007,335.015,175.276,331.842,172.614z"/>
	<path d="M336.8,456.8c4.142,0,7.5-3.358,7.5-7.5v-23c0-4.142-3.358-7.5-7.5-7.5s-7.5,3.358-7.5,7.5v4h-150v-4
		c0-4.142-3.358-7.5-7.5-7.5s-7.5,3.358-7.5,7.5v23c0,4.142,3.358,7.5,7.5,7.5s7.5-3.358,7.5-7.5v-4h150v4
		C329.3,453.442,332.658,456.8,336.8,456.8z"/>
	<path d="M60.676,333.002c-60.994-35.199-59.77-124.07,2.654-157.278c3.657-1.945,5.044-6.487,3.099-10.144
		c-1.945-3.656-6.487-5.043-10.144-3.099c-72.872,38.766-74.225,142.47-3.107,183.513c3.582,2.065,8.169,0.848,10.245-2.747
		C65.493,339.659,64.263,335.073,60.676,333.002z"/>
	<path d="M79.826,312.41c-46.295-24.975-45.457-91.733,1.86-115.333c3.707-1.849,5.212-6.353,3.364-10.059
		s-6.352-5.212-10.059-3.364c-27.369,13.651-44.37,41.075-44.37,71.571c0,29.413,16.125,56.383,42.083,70.387
		c3.668,1.979,8.208,0.582,10.162-3.04C84.833,318.926,83.472,314.376,79.826,312.41z"/>
	<path d="M100.509,219.009c3.76-1.738,5.398-6.196,3.66-9.955c-1.739-3.76-6.197-5.4-9.955-3.66
		C52.612,224.629,51.19,283.92,92.91,304.57c3.696,1.828,8.203,0.334,10.049-3.395c1.837-3.712,0.317-8.211-3.395-10.049
		C69.198,276.097,70.249,233,100.509,219.009z"/>
	<path d="M455.423,162.606c-3.589-2.07-8.175-0.84-10.245,2.747c-2.07,3.588-0.84,8.174,2.747,10.245
		c60.994,35.199,59.77,124.07-2.654,157.278c-3.657,1.945-5.044,6.487-3.099,10.144c1.946,3.656,6.486,5.044,10.144,3.099
		C525.187,307.354,526.54,203.649,455.423,162.606z"/>
	<path d="M435.896,182.99c-3.647-1.969-8.196-0.605-10.162,3.04c-1.967,3.646-0.606,8.195,3.04,10.162
		c46.295,24.975,45.457,91.733-1.86,115.333c-3.707,1.849-5.212,6.353-3.364,10.059c1.851,3.713,6.359,5.21,10.059,3.364
		C491.806,295.92,492.871,213.726,435.896,182.99z"/>
	<path d="M415.69,204.031c-3.712-1.838-8.211-0.317-10.049,3.395c-1.837,3.712-0.317,8.211,3.395,10.049
		c30.366,15.029,29.315,58.127-0.944,72.118c-3.76,1.738-5.398,6.196-3.66,9.955c1.733,3.748,6.185,5.404,9.955,3.66
		C455.988,283.971,457.41,224.681,415.69,204.031z"/>
</g>
<g>
</g>
<g>
</g>
<g>
</g>
<g>
</g>
<g>
</g>
<g>
</g>
<g>
</g>
<g>
</g>
<g>
</g>
<g>
</g>
<g>
</g>
<g>
</g>
<g>
</g>
<g>
</g>
<g>
</g>
</svg>
