<?xml version="1.0" encoding="iso-8859-1"?>
<!-- Generator: Adobe Illustrator 19.0.0, SVG Export Plug-In . SVG Version: 6.00 Build 0)  -->
<svg version="1.1" id="Layer_1" xmlns="http://www.w3.org/2000/svg" xmlns:xlink="http://www.w3.org/1999/xlink" x="0px" y="0px"
	 viewBox="0 0 509.148 509.148" style="enable-background:new 0 0 509.148 509.148;" xml:space="preserve">
<g>
	<path d="M316.334,127.303c4.142,0,7.5-3.358,7.5-7.5V98.888c0-15.416-12.542-27.958-27.958-27.958H78.098
		c-15.416,0-27.958,12.542-27.958,27.958v177.085c0,15.416,12.542,27.958,27.958,27.958h217.779
		c15.416,0,27.958-12.542,27.958-27.958v-129.17c0-4.142-3.358-7.5-7.5-7.5s-7.5,3.358-7.5,7.5v129.17
		c0,7.145-5.813,12.958-12.958,12.958H194.488v-203h101.389c7.145,0,12.958,5.813,12.958,12.958v20.915
		C308.834,123.945,312.192,127.303,316.334,127.303z M179.488,288.93H78.098c-7.145,0-12.958-5.813-12.958-12.958V98.888
		c0-7.145,5.813-12.958,12.958-12.958h101.39V288.93z"/>
	<path d="M485.62,332.309c-2.57-3.25-7.29-3.79-10.54-1.22c-3.25,2.57-3.79,7.29-1.22,10.53
		c48.248,60.911,5.075,152.08-73.62,152.08c-68.988,0-114.384-72.294-84.75-134.28c24.856-51.916,90.438-69.907,138.19-36.76
		c3.4,2.37,8.07,1.52,10.43-1.88c2.37-3.4,1.53-8.07-1.88-10.43c-26.853-18.666-59.264-23.45-88.26-16.21V22.729
		c0-12.29-9.99-22.28-22.28-22.28H74.02c-4.14,0-7.5,3.36-7.5,7.5c0,4.14,3.36,7.5,7.5,7.5h277.67c4.02,0,7.28,3.26,7.28,7.28
		v276.33c-27.19,11.17-48.9,33.05-59.85,60.36H22.29c-4.02,0-7.29-3.27-7.29-7.29v-329.4c0-4.02,3.27-7.28,7.29-7.28h24.73
		c4.14,0,7.5-3.36,7.5-7.5c0-4.14-3.36-7.5-7.5-7.5H22.29C10,0.449,0,10.439,0,22.729v329.4c0,12.29,10,22.29,22.29,22.29h272.06
		c-16.469,68.479,35.771,134.28,105.89,134.28C491.461,508.699,541.629,402.994,485.62,332.309z"/>
	<path d="M474.35,395.669c3.65-1.94,5.04-6.48,3.09-10.14c-32.709-61.516-119.965-62.009-154.28-2.61
		c-2.07,3.58-0.84,8.17,2.75,10.24c3.58,2.07,8.17,0.84,10.24-2.75c28.787-49.731,101.086-48.519,128.05,2.17
		C466.148,396.23,470.689,397.613,474.35,395.669z"/>
	<path d="M456.555,411.115c3.707-1.849,5.212-6.352,3.364-10.059c-24.537-49.197-93.967-49.989-119.891-1.93
		c-1.966,3.646-0.605,8.195,3.041,10.162c3.645,1.967,8.195,0.605,10.162-3.041c20.196-37.44,74.18-36.761,93.266,1.504
		C448.345,411.458,452.848,412.964,456.555,411.115z"/>
	<path d="M438.265,426.971c3.759-1.739,5.398-6.196,3.66-9.956c-16.386-35.435-66.894-36.653-84.486-1.11
		c-1.837,3.712-0.317,8.211,3.395,10.049c3.714,1.837,8.211,0.318,10.049-3.395c11.969-24.183,46.285-23.347,57.427,0.752
		C430.054,427.083,434.515,428.705,438.265,426.971z"/>
	<path d="M399.42,415.109c-12.62,0-22.89,10.26-22.89,22.88c0,12.62,10.27,22.89,22.89,22.89s22.88-10.27,22.88-22.89
		C422.3,425.369,412.04,415.109,399.42,415.109z M399.42,445.879c-4.35,0-7.89-3.54-7.89-7.89c0-4.34,3.54-7.88,7.89-7.88
		c4.35,0,7.88,3.54,7.88,7.88C407.3,442.339,403.77,445.879,399.42,445.879z"/>
</g>
<g>
</g>
<g>
</g>
<g>
</g>
<g>
</g>
<g>
</g>
<g>
</g>
<g>
</g>
<g>
</g>
<g>
</g>
<g>
</g>
<g>
</g>
<g>
</g>
<g>
</g>
<g>
</g>
<g>
</g>
</svg>
