<?xml version="1.0" encoding="iso-8859-1"?>
<!-- Generator: Adobe Illustrator 19.0.0, SVG Export Plug-In . SVG Version: 6.00 Build 0)  -->
<svg version="1.1" id="Layer_1" xmlns="http://www.w3.org/2000/svg" xmlns:xlink="http://www.w3.org/1999/xlink" x="0px" y="0px"
	 viewBox="0 0 507.666 507.666" style="enable-background:new 0 0 507.666 507.666;" xml:space="preserve">
<g>
	<path d="M504.843,32.284C498.333,12.974,480.298,0,459.966,0H119.491c-4.142,0-7.5,3.358-7.5,7.5s3.358,7.5,7.5,7.5h340.475
		c13.889,0,26.211,8.872,30.668,22.09c3.073,9.058,1.025,10.531,1.672,95.07c0,14.799-9.995,27.299-23.587,31.126v-36.722
		c0-6.467-5.262-11.729-11.729-11.729H338.912c-4.143,0-7.5,3.358-7.5,7.5s3.357,7.5,7.5,7.5h114.808v9.7H53.874v-9.7h258.038
		c4.143,0,7.5-3.358,7.5-7.5s-3.357-7.5-7.5-7.5H50.603c-6.467,0-11.729,5.261-11.729,11.729v36.781
		c-0.338-0.129-0.708-0.264-1.155-0.41c-13.417-4.349-22.433-16.716-22.433-30.775V47.33c0-17.827,14.508-32.33,32.34-32.33h44.865
		c4.142,0,7.5-3.358,7.5-7.5S96.633,0,92.491,0H47.627C21.523,0,0.287,21.232,0.287,47.33v84.83
		c0,25.333,19.989,45.861,43.777,46.954c1.704,0.551,81.053,0.16,417.643,0.341c25.299-0.92,45.6-21.777,45.6-47.353
		C506.645,45.484,508.981,44.478,504.843,32.284z M453.719,164.487c-0.14,0-387.266,0.086-399.845-0.114v-9.837h399.845V164.487z"/>
	<circle cx="418.358" cy="42.692" r="9.934"/>
	<circle cx="451.285" cy="42.692" r="9.934"/>
	<path d="M314.574,187.736c-24.066,0-97.256,0-121.48,0c-13.947,0-25.293,11.346-25.293,25.292v269.344
		c0,13.947,11.346,25.293,25.293,25.293h121.48c13.946,0,25.293-11.346,25.293-25.293V213.029
		C339.867,199.083,328.52,187.736,314.574,187.736z M299.762,202.736l-5.402,23.39h-81.053l-5.402-23.39H299.762z M324.867,482.373
		c0,5.676-4.617,10.293-10.293,10.293h-121.48c-5.676,0-10.293-4.617-10.293-10.293V213.029c0-5.481,4.309-9.962,9.716-10.263
		l6.593,28.546c1.335,5.779,6.411,9.815,12.342,9.815h84.764c5.933,0,11.008-4.037,12.342-9.816l6.593-28.545
		c5.407,0.302,9.716,4.783,9.716,10.263V482.373z"/>
	<path d="M222.716,221.551h39.49c4.143,0,7.5-3.358,7.5-7.5s-3.357-7.5-7.5-7.5h-39.49c-4.142,0-7.5,3.358-7.5,7.5
		S218.574,221.551,222.716,221.551z"/>
	<circle cx="279.086" cy="214.051" r="5.865"/>
	<path d="M312.179,247.772H195.488c-4.587,0-8.319,3.732-8.319,8.32v218.883c0,4.587,3.732,8.32,8.319,8.32h116.691
		c4.587,0,8.318-3.732,8.318-8.32V256.092C320.498,251.505,316.766,247.772,312.179,247.772z M305.498,468.295H202.169V262.772
		h103.329V468.295z"/>
	<path d="M253.834,360.818c20.428,0,38.422-14.465,42.786-34.395c0.887-4.046-1.676-8.045-5.722-8.931
		c-4.051-0.89-8.045,1.676-8.931,5.722c-2.868,13.097-14.7,22.604-28.134,22.604c-15.881,0-28.801-12.92-28.801-28.801
		c0-28.519,37.208-39.579,52.869-15.827c2.28,3.459,6.933,4.413,10.39,2.134c3.458-2.28,4.414-6.932,2.134-10.39
		c-8.14-12.347-21.818-19.719-36.591-19.719c-24.152,0-43.801,19.649-43.801,43.801S229.682,360.818,253.834,360.818z"/>
	<path d="M253.834,341.363c4.143,0,7.5-3.358,7.5-7.5v-9.346h9.346c4.143,0,7.5-3.358,7.5-7.5s-3.357-7.5-7.5-7.5h-9.346v-9.346
		c0-4.142-3.357-7.5-7.5-7.5c-4.142,0-7.5,3.358-7.5,7.5v9.346h-9.346c-4.142,0-7.5,3.358-7.5,7.5s3.358,7.5,7.5,7.5h9.346v9.346
		C246.334,338.005,249.691,341.363,253.834,341.363z"/>
	<path d="M253.834,457.852c24.151,0,43.801-19.649,43.801-43.801s-19.649-43.801-43.801-43.801
		c-24.152,0-43.801,19.649-43.801,43.801S229.681,457.852,253.834,457.852z M253.834,385.25c15.881,0,28.801,12.92,28.801,28.801
		s-12.92,28.801-28.801,28.801s-28.801-12.92-28.801-28.801S237.953,385.25,253.834,385.25z"/>
	<path d="M270.679,421.551c4.143,0,7.5-3.358,7.5-7.5s-3.357-7.5-7.5-7.5h-33.691c-4.142,0-7.5,3.358-7.5,7.5s3.358,7.5,7.5,7.5
		H270.679z"/>
	<path d="M110.35,416.802c-60.994-35.199-59.77-124.071,2.654-157.277c3.657-1.945,5.044-6.487,3.099-10.144
		c-1.945-3.657-6.486-5.042-10.144-3.099c-72.872,38.766-74.223,142.47-3.107,183.513c3.582,2.065,8.169,0.848,10.245-2.747
		C115.168,423.459,113.938,418.873,110.35,416.802z"/>
	<path d="M129.501,396.209c-46.297-24.976-45.456-91.733,1.86-115.333c3.707-1.849,5.212-6.353,3.364-10.059
		c-1.848-3.707-6.353-5.212-10.059-3.364c-58.252,29.055-59.196,111.259-2.287,141.958c3.669,1.98,8.208,0.582,10.162-3.04
		C134.507,402.726,133.147,398.176,129.501,396.209z"/>
	<path d="M150.184,302.809c3.759-1.739,5.398-6.196,3.66-9.956c-1.739-3.759-6.195-5.399-9.956-3.66
		c-41.597,19.235-43.027,78.524-1.303,99.176c1.07,0.529,2.204,0.78,3.321,0.78c7.921,0,10.399-10.725,3.333-14.223
		C118.873,359.897,119.923,316.801,150.184,302.809z"/>
	<path d="M404.815,246.407c-3.59-2.069-8.175-0.841-10.245,2.748c-2.07,3.587-0.84,8.174,2.747,10.245
		c60.993,35.198,59.769,124.072-2.654,157.277c-3.657,1.945-5.044,6.487-3.099,10.144c1.944,3.657,6.486,5.044,10.144,3.099
		C474.579,391.156,475.931,287.448,404.815,246.407z"/>
	<path d="M385.288,266.79c-3.644-1.967-8.194-0.605-10.161,3.04c-1.967,3.646-0.605,8.195,3.04,10.162
		c46.294,24.974,45.455,91.734-1.86,115.333c-3.706,1.849-5.213,6.352-3.364,10.059c1.853,3.713,6.359,5.209,10.06,3.364
		C441.255,379.693,442.194,297.488,385.288,266.79z"/>
	<path d="M365.083,287.831c-3.712-1.837-8.212-0.317-10.049,3.395c-1.838,3.712-0.317,8.211,3.395,10.049
		c30.366,15.03,29.316,58.126-0.944,72.118c-3.76,1.739-5.398,6.196-3.66,9.956c1.73,3.74,6.179,5.406,9.955,3.66
		C405.375,367.772,406.81,308.485,365.083,287.831z"/>
</g>
<g>
</g>
<g>
</g>
<g>
</g>
<g>
</g>
<g>
</g>
<g>
</g>
<g>
</g>
<g>
</g>
<g>
</g>
<g>
</g>
<g>
</g>
<g>
</g>
<g>
</g>
<g>
</g>
<g>
</g>
</svg>
