<?xml version="1.0" encoding="iso-8859-1"?>
<!-- Generator: Adobe Illustrator 19.0.0, SVG Export Plug-In . SVG Version: 6.00 Build 0)  -->
<svg version="1.1" id="Layer_1" xmlns="http://www.w3.org/2000/svg" xmlns:xlink="http://www.w3.org/1999/xlink" x="0px" y="0px"
	 viewBox="0 0 507.728 507.728" style="enable-background:new 0 0 507.728 507.728;" xml:space="preserve">
<g>
	<path d="M448.423,451.027h-26.617c0.409-2.684,0.137-2.086,0.222-24.08c0-9.727-7.913-17.64-17.64-17.64h-16.325V198.405
		l31.36,31.42c4.17,4.17,9.71,6.47,15.61,6.47c12.335,0,17.619-9.219,21.08-11.94c8.612-8.612,8.629-22.581,0-31.21L269.774,6.475
		c-8.587-8.587-22.648-8.681-31.35,0l-186.81,186.67c-4.17,4.17-6.46,9.71-6.46,15.6c0,12.399,9.231,17.635,11.94,21.08
		c8.613,8.613,22.553,8.646,31.21,0.01l31.36-31.34v210.812h-16.325c-9.727,0-17.64,7.913-17.64,17.64v21.422
		c0,0.906,0.09,1.789,0.222,2.658H59.304c-9.727,0-17.64,7.913-17.64,17.64v21.422c0,9.726,7.913,17.639,17.64,17.639h310
		c4.143,0,7.5-3.358,7.5-7.5s-3.357-7.5-7.5-7.5h-310c-1.455,0-2.64-1.184-2.64-2.639v-21.422c0-1.456,1.185-2.64,2.64-2.64
		c103.043-0.01,253.633,0,389.119,0c1.455,0,2.64,1.184,2.64,2.64v21.422c0,1.455-1.185,2.639-2.64,2.639h-50.119
		c-4.143,0-7.5,3.358-7.5,7.5s3.357,7.5,7.5,7.5h50.119c9.727,0,17.64-7.913,17.64-17.639v-21.422
		C466.063,458.94,458.15,451.027,448.423,451.027z M72.694,221.295c-4.517,0-5.986-3.604-10.47-7.55
		c-2.745-2.725-2.778-7.233,0-9.99c6.083-6.079,10.682-10.665,186.81-186.67c2.8-2.799,7.372-2.747,10.13-0.01
		c201.321,201.697,188.41,187.869,188.41,191.67c0,1.89-0.73,3.67-2.07,5c-4.455,3.92-5.955,7.55-10.47,7.55
		c-1.89,0-3.67-0.74-5-2.07C247.633,36.472,258.976,46.065,254.104,46.065c-5.891,0-2.54,0.542-81.19,78.01
		c-2.93,2.93-2.93,7.68,0,10.61c2.93,2.93,7.68,2.93,10.61,0l70.57-70.51l118.97,119.2v225.93h-238.4v-225.8l28.34-28.32
		c2.93-2.93,2.93-7.68,0.01-10.61c-2.93-2.93-7.68-2.93-10.61,0C72.037,224.878,77.221,221.295,72.694,221.295z M407.029,448.369
		c0,1.456-1.185,2.64-2.64,2.64H103.338c-1.455,0-2.64-1.184-2.64-2.64v-21.422c0-1.456,1.185-2.64,2.64-2.64
		c21.981,0,290.081,0,301.051,0c1.455,0,2.64,1.184,2.64,2.64V448.369z"/>
	<path d="M165.399,390.374c-4.115,0.473-7.067,4.192-6.595,8.307c1.667,14.512,36.668,6.265,41.222-33.099
		c8.755-2.276,17.153-4.926,25.018-7.912c3.872-1.47,5.819-5.801,4.35-9.674c-1.471-3.873-5.802-5.82-9.674-4.35
		c-6.1,2.316-12.564,4.41-19.279,6.281c1.166-35.877,13.972-68.274,46.336-84.083c41.037-20.045,55.862-47.943,56.473-49.121
		c1.907-3.677,0.474-8.204-3.203-10.111c-3.676-1.905-8.205-0.473-10.111,3.204c-0.127,0.245-13.106,24.656-49.742,42.55
		c-32.801,16.023-49.048,46.323-53.557,81.955c-20.82-53.158,27.271-97.151,76.725-125.219
		c11.072-6.285,34.494-14.295,47.404-38.078c10.397,67.257-6.822,126.746-65.049,160.383c-3.586,2.072-4.814,6.659-2.742,10.246
		c2.072,3.587,6.659,4.813,10.246,2.743c69.094-39.915,86.552-115.207,69.113-192.887c-2.464-10.936-18.18-10.773-20.37,0.269
		c-4.395,22.159-25.244,34.047-34.005,38.13c-27.518,12.827-63.552,38.104-82.679,65.075c-26.372,37.187-23.088,77.83-0.02,107.19
		C184.664,369.296,181.56,388.517,165.399,390.374z"/>
</g>
<g>
</g>
<g>
</g>
<g>
</g>
<g>
</g>
<g>
</g>
<g>
</g>
<g>
</g>
<g>
</g>
<g>
</g>
<g>
</g>
<g>
</g>
<g>
</g>
<g>
</g>
<g>
</g>
<g>
</g>
</svg>
