<?xml version="1.0" encoding="iso-8859-1"?>
<!-- Generator: Adobe Illustrator 19.0.0, SVG Export Plug-In . SVG Version: 6.00 Build 0)  -->
<svg version="1.1" id="Layer_1" xmlns="http://www.w3.org/2000/svg" xmlns:xlink="http://www.w3.org/1999/xlink" x="0px" y="0px"
	 viewBox="0 0 507.725 507.725" style="enable-background:new 0 0 507.725 507.725;" xml:space="preserve">
<g>
	<path d="M448.423,451.025h-26.617c0.408-2.684,0.137-2.089,0.222-24.078c0-9.727-7.913-17.64-17.639-17.64h-16.326V198.405
		l31.36,31.42c8.62,8.62,22.563,8.646,31.21,0c2.664-3.387,11.94-8.674,11.94-21.08c0-5.89-2.29-11.43-6.46-15.6L269.773,6.475
		c-8.621-8.621-22.703-8.646-31.35,0l-186.81,186.67c-4.17,4.17-6.46,9.71-6.46,15.6c0,12.4,9.231,17.635,11.94,21.08
		c8.613,8.613,22.553,8.646,31.21,0.01l31.36-31.34v210.812h-16.326c-9.726,0-17.639,7.913-17.639,17.64
		c0.086,22.061-0.185,21.398,0.222,24.078H59.303c-9.73,0-17.64,7.91-17.64,17.64v21.42c0,9.73,7.91,17.64,17.64,17.64h310
		c4.14,0,7.5-3.36,7.5-7.5s-3.36-7.5-7.5-7.5h-310c-1.46,0-2.64-1.18-2.64-2.64v-21.42c0-1.45,1.18-2.64,2.64-2.64
		c131.168-0.012,295.016,0,389.12,0c1.46,0,2.64,1.19,2.64,2.64v21.42c0,1.46-1.18,2.64-2.64,2.64h-50.12c-4.14,0-7.5,3.36-7.5,7.5
		s3.36,7.5,7.5,7.5h50.12c9.73,0,17.64-7.91,17.64-17.64v-21.42C466.063,458.935,458.153,451.025,448.423,451.025z M77.693,219.225
		c-2.752,2.752-7.21,2.769-10,0c-3.99-4.546-7.54-5.977-7.54-10.48c0-1.88,0.73-3.66,2.07-4.99
		c6.083-6.079,10.682-10.665,186.81-186.67c2.799-2.799,7.372-2.747,10.13-0.01c232.178,232.61,118.7,118.917,186.34,186.68
		c2.778,2.758,2.745,7.265,0,9.99c-4.43,3.894-5.95,7.55-10.47,7.55c-1.89,0-3.67-0.74-5-2.07
		c-2.792-2.798,1.677,1.682-170.63-170.96c-2.903-2.924-7.662-2.937-10.61-0.01l-75.88,75.82c-2.93,2.93-2.93,7.68,0,10.61
		c2.93,2.93,7.68,2.93,10.61,0l70.57-70.51l118.97,119.2v225.93h-238.4v-225.8l28.34-28.32c2.93-2.93,2.93-7.68,0.01-10.61
		c-2.93-2.93-7.68-2.93-10.61,0C149.267,147.708,149.965,147.016,77.693,219.225z M407.028,448.369c0,1.456-1.184,2.64-2.639,2.64
		H103.337c-1.455,0-2.639-1.184-2.639-2.64v-21.422c0-1.456,1.184-2.64,2.639-2.64c16.969,0,286.614,0,301.052,0
		c1.455,0,2.639,1.184,2.639,2.64V448.369z"/>
	<path d="M260.089,384.453C260.203,384.453,260.286,384.453,260.089,384.453L260.089,384.453z"/>
	<path d="M324.021,282.443c-0.087,0-0.172-0.001-0.202-0.001C323.843,282.443,323.905,282.443,324.021,282.443z"/>
	<path d="M188.201,233.126c-2.237,3.84-4.137,7.878-5.664,12.042c-25.912,0.931-31.641-2.539-37.931,3.721
		c-2.467,2.454-3.83,5.722-3.838,9.201l-0.048,19.526c-0.017,7.198,5.794,13.039,12.993,13.057l26.711,0.066
		c1.134,4.289,2.65,8.487,4.522,12.518l-20.355,20.255c-5.103,5.078-5.124,13.316-0.045,18.42l13.773,13.841
		c5.076,5.102,13.32,5.121,18.42,0.046l18.941-18.849c3.839,2.237,7.878,4.137,12.042,5.664l-0.07,28.712
		c-0.018,7.199,5.793,13.04,12.993,13.058c8.581,0.021,18.658,0.048,19.558,0.048c7.167,0,13.008-5.822,13.025-12.993l0.066-26.712
		c4.288-1.133,8.486-2.65,12.518-4.522l20.254,20.355c5.193,5.218,13.447,4.996,18.42,0.045l13.841-13.772
		c5.103-5.078,5.124-13.317,0.045-18.42l-18.848-18.941c2.237-3.839,4.137-7.878,5.664-12.042
		c25.926-0.932,31.624,2.556,37.932-3.722c2.467-2.454,3.83-5.722,3.838-9.201L367.005,265c0.017-7.198-5.794-13.039-12.993-13.057
		l-26.711-0.066c-1.133-4.288-2.65-8.485-4.522-12.518l20.355-20.254c5.102-5.077,5.124-13.317,0.045-18.42l-13.773-13.842
		c-5.066-5.091-13.33-5.11-18.419-0.045l-18.941,18.848c-3.841-2.237-7.879-4.137-12.042-5.664l0.07-28.774
		c0.018-7.21-5.811-13.057-13.024-13.057h-19.527c-7.165,0-13.007,5.828-13.024,12.992l-0.066,26.727
		c-4.288,1.133-8.486,2.65-12.517,4.522l-20.255-20.355c-5.072-5.097-13.317-5.125-18.42-0.046l-13.841,13.773
		c-5.103,5.078-5.124,13.316-0.045,18.42L188.201,233.126z M192.42,194.018l19.85,19.948c3.932,3.951,9.914,4.973,14.886,2.544
		c3.941-1.926,8.095-3.423,12.346-4.45c5.829-1.409,9.911-6.598,9.926-12.619l0.065-26.289h15.576L265,201.318
		c-0.014,5.584,3.494,10.549,8.73,12.354c4.127,1.422,8.115,3.302,11.854,5.585c5.122,3.131,11.685,2.352,15.955-1.897
		l18.628-18.536l10.987,11.041l-19.948,19.85c-3.952,3.933-4.974,9.915-2.544,14.885c1.926,3.942,3.423,8.096,4.45,12.346
		c1.408,5.831,6.598,9.913,12.619,9.927L352,266.939l-0.039,15.576c-21.57-0.053-26.91-0.068-27.94-0.072
		c0.224,0.001,0.46,0.002-0.202,0.002c-5.571,0-10.521,3.505-12.32,8.73c-1.423,4.128-3.303,8.116-5.587,11.854
		c-3.131,5.125-2.351,11.685,1.897,15.954l18.537,18.628L315.305,348.6l-19.85-19.949c-3.932-3.951-9.914-4.974-14.885-2.544
		c-3.942,1.926-8.096,3.423-12.346,4.451c-5.829,1.409-9.911,6.598-9.926,12.619l-0.065,26.27l-15.576-0.039l0.069-28.109
		c0.014-5.585-3.495-10.55-8.73-12.354c-4.127-1.423-8.116-3.303-11.854-5.586c-5.124-3.132-11.686-2.353-15.955,1.897
		l-18.628,18.537l-10.987-11.041l19.948-19.851c3.951-3.932,4.973-9.915,2.544-14.885c-1.926-3.941-3.423-8.095-4.45-12.345
		c-1.408-5.83-6.597-9.913-12.619-9.928l-26.271-0.065l0.039-15.576c21.57,0.053,26.91,0.068,27.94,0.072
		c-0.224-0.001-0.46-0.002,0.202-0.002c5.571,0,10.52-3.505,12.32-8.73c1.423-4.128,3.303-8.116,5.587-11.854
		c3.131-5.125,2.351-11.686-1.897-15.955l-18.536-18.628L192.42,194.018z"/>
	<path d="M183.704,260.174c0.087,0,0.172,0.001,0.202,0.001C183.882,260.175,183.82,260.175,183.704,260.174z"/>
	<path d="M275.797,321.856c25.826-11.206,38.824-39.889,30.851-66.375c-1.194-3.967-5.379-6.212-9.344-5.02
		c-3.966,1.194-6.213,5.377-5.02,9.344c5.796,19.251-3.658,40.133-22.458,48.291c-20.408,8.857-43.967-0.581-52.75-20.824
		c-16.347-37.67,28.253-72.765,61.053-47.9c3.301,2.503,8.005,1.855,10.507-1.446c2.502-3.301,1.855-8.005-1.446-10.507
		c-35.99-27.285-88.441-1.816-88.441,43.914C198.749,310.807,239.369,337.664,275.797,321.856z"/>
	<path d="M231.806,289.636c5.466,6.578,13.509,10.35,22.068,10.35c24.379,0,37.42-28.501,22.044-47.003
		c-10.18-12.253-28.273-13.792-40.382-3.73l0,0C223.282,259.433,221.744,277.526,231.806,289.636z M245.122,260.79
		C245.122,260.79,245.122,260.79,245.122,260.79c8.973-7.456,22.418-0.918,22.418,10.507c0,7.562-6.115,13.688-13.666,13.688
		C241.108,284.986,235.303,268.947,245.122,260.79z"/>
</g>
<g>
</g>
<g>
</g>
<g>
</g>
<g>
</g>
<g>
</g>
<g>
</g>
<g>
</g>
<g>
</g>
<g>
</g>
<g>
</g>
<g>
</g>
<g>
</g>
<g>
</g>
<g>
</g>
<g>
</g>
</svg>
