<?xml version="1.0" encoding="iso-8859-1"?>
<!-- Generator: Adobe Illustrator 19.0.0, SVG Export Plug-In . SVG Version: 6.00 Build 0)  -->
<svg version="1.1" id="Layer_1" xmlns="http://www.w3.org/2000/svg" xmlns:xlink="http://www.w3.org/1999/xlink" x="0px" y="0px"
	 viewBox="0 0 507.728 507.728" style="enable-background:new 0 0 507.728 507.728;" xml:space="preserve">
<g>
	<path d="M448.39,451.027h-26.617c0.409-2.684,0.137-2.086,0.222-24.08c0-9.727-7.913-17.64-17.639-17.64H388.03v-89.502
		c0-4.14-3.36-7.5-7.5-7.5s-7.5,3.36-7.5,7.5v89.5h-238.4v-225.8l28.34-28.32c2.93-2.93,2.93-7.68,0.01-10.61
		c-2.93-2.93-7.68-2.93-10.61,0c-11.171,11.163-70.392,70.311-74.71,74.65c-2.753,2.753-7.21,2.769-10,0
		c-3.99-4.546-7.54-5.977-7.54-10.48c0-1.88,0.73-3.66,2.07-4.99C263.72,2.376,249.428,15.005,254.06,15.005
		c4.827,0-7.496-10.507,191.41,188.75c1.34,1.33,2.07,3.11,2.07,4.99c0,4.501-3.549,5.933-7.54,10.48c-2.785,2.764-7.243,2.757-10,0
		c-62.948-63.069-105.667-105.871-170.63-170.96c-2.903-2.924-7.662-2.937-10.61-0.01l-75.88,75.82c-2.93,2.93-2.93,7.68,0,10.61
		s7.68,2.93,10.61,0l70.57-70.51l118.97,119.2v106.43c0,4.14,3.36,7.5,7.5,7.5s7.5-3.36,7.5-7.5v-91.4l31.36,31.42
		c8.62,8.62,22.563,8.646,31.21,0l5.48-5.47c8.612-8.612,8.629-22.581,0-31.21L269.74,6.475c-8.621-8.621-22.704-8.647-31.35,0
		L51.58,193.145c-8.61,8.61-8.629,22.581,0,31.21c3.496,2.748,8.75,11.94,21.08,11.94c5.9,0,11.44-2.3,15.61-6.46l31.36-31.34
		v210.812h-16.326c-9.726,0-17.639,7.913-17.639,17.64c0.086,22.041-0.186,21.399,0.222,24.08H59.27
		c-9.726,0-17.639,7.913-17.639,17.64v21.422c0,9.726,7.913,17.639,17.639,17.639h310c4.142,0,7.5-3.358,7.5-7.5s-3.358-7.5-7.5-7.5
		h-310c-1.455,0-2.639-1.184-2.639-2.639v-21.422c0-1.456,1.184-2.64,2.639-2.64c313.744-0.001,194.221-0.016,177.701-0.018
		c9.468,0.001,59.583,0.006,211.419,0.018c1.455,0,2.639,1.184,2.639,2.64v21.422c0,1.455-1.184,2.639-2.639,2.639h-50.12
		c-4.142,0-7.5,3.358-7.5,7.5s3.358,7.5,7.5,7.5h50.12c9.726,0,17.639-7.913,17.639-17.639v-21.422
		C466.029,458.94,458.116,451.027,448.39,451.027z M406.995,448.369c0,1.456-1.184,2.64-2.639,2.64H103.304
		c-1.455,0-2.639-1.184-2.639-2.64v-21.422c0-1.456,1.184-2.64,2.639-2.64h301.052c1.455,0,2.639,1.184,2.639,2.64V448.369z"/>
	<path d="M346.833,261.178c3.657-1.945,5.044-6.487,3.099-10.144c-40.51-76.152-148.923-78.031-192.079-3.251
		c-2.07,3.587-0.84,8.174,2.747,10.245c3.588,2.069,8.174,0.84,10.245-2.748c37.214-64.484,130.847-62.99,165.843,2.799
		C338.634,261.736,343.175,263.123,346.833,261.178z"/>
	<path d="M324.327,280.731c3.707-1.849,5.212-6.353,3.364-10.059c-29.948-60.043-115.86-62.757-148.425-2.39
		c-1.967,3.646-0.606,8.195,3.04,10.161c3.646,1.969,8.195,0.606,10.161-3.04c26.54-49.195,96.965-47.828,121.801,1.964
		C316.12,281.08,320.627,282.577,324.327,280.731z"/>
	<path d="M291.238,297.147c1.268,2.74,3.979,4.354,6.813,4.354c5.418,0,9.115-5.649,6.803-10.65
		c-20.202-43.688-82.065-44.629-103.482-1.359c-1.837,3.712-0.317,8.211,3.395,10.049c3.714,1.839,8.211,0.317,10.049-3.395
		C230.559,264.338,276.195,264.614,291.238,297.147z"/>
	<path d="M225.784,316.601c0,14.891,12.115,27.005,27.005,27.005s27.005-12.115,27.005-27.005s-12.115-27.005-27.005-27.005
		S225.784,301.71,225.784,316.601z M264.795,316.601c0,6.62-5.386,12.005-12.005,12.005s-12.005-5.386-12.005-12.005
		s5.386-12.005,12.005-12.005S264.795,309.981,264.795,316.601z"/>
	<path d="M64.275,421.053c2.07-3.588,0.84-8.174-2.747-10.245c-57.225-33.024-56.077-116.406,2.49-147.561
		c3.657-1.945,5.044-6.487,3.099-10.144c-1.945-3.656-6.486-5.043-10.144-3.099C-12.04,286.717-13.32,384.931,54.03,423.8
		C57.612,425.865,62.199,424.648,64.275,421.053z"/>
	<path d="M74.622,269.963c-55.242,27.555-56.134,105.51-2.168,134.622c3.669,1.98,8.208,0.582,10.162-3.04
		c1.967-3.646,0.606-8.195-3.04-10.162c-43.351-23.386-42.567-85.897,1.741-107.998c3.707-1.849,5.212-6.353,3.364-10.059
		C82.833,269.621,78.329,268.115,74.622,269.963z"/>
	<path d="M99.056,304.074c3.759-1.739,5.398-6.196,3.66-9.956c-1.739-3.759-6.196-5.4-9.956-3.66
		c-39.548,18.288-40.908,74.657-1.239,94.292c1.07,0.529,2.204,0.78,3.321,0.78c7.921,0,10.399-10.725,3.333-14.223
		C69.865,357.296,70.844,317.119,99.056,304.074z"/>
	<path d="M453.63,250.129c-3.589-2.07-8.175-0.84-10.245,2.747c-2.07,3.588-0.84,8.174,2.747,10.245
		c57.225,33.024,56.077,116.406-2.49,147.561c-6.863,3.651-4.271,14.123,3.529,14.123c8.51,0,56.204-31.139,56.204-88.586
		C503.375,300.825,484.313,267.837,453.63,250.129z"/>
	<path d="M433.037,403.966c55.242-27.555,56.134-105.51,2.168-134.622c-3.646-1.968-8.195-0.605-10.162,3.04
		c-1.967,3.646-0.606,8.195,3.04,10.162c43.351,23.386,42.567,85.897-1.741,107.998c-3.707,1.849-5.212,6.353-3.364,10.059
		C424.83,404.315,429.337,405.812,433.037,403.966z"/>
	<path d="M408.604,369.855c-7.264,3.36-4.865,14.31,3.153,14.31c6.983,0,33.519-17.182,33.519-48.135
		c0-20.004-11.165-37.957-29.136-46.852c-3.714-1.837-8.211-0.317-10.049,3.395c-1.837,3.712-0.317,8.211,3.395,10.049
		C437.795,316.633,436.816,356.81,408.604,369.855z"/>
</g>
<g>
</g>
<g>
</g>
<g>
</g>
<g>
</g>
<g>
</g>
<g>
</g>
<g>
</g>
<g>
</g>
<g>
</g>
<g>
</g>
<g>
</g>
<g>
</g>
<g>
</g>
<g>
</g>
<g>
</g>
</svg>
