<?xml version="1.0" encoding="iso-8859-1"?>
<!-- Generator: Adobe Illustrator 19.0.0, SVG Export Plug-In . SVG Version: 6.00 Build 0)  -->
<svg version="1.1" id="Layer_1" xmlns="http://www.w3.org/2000/svg" xmlns:xlink="http://www.w3.org/1999/xlink" x="0px" y="0px"
	 viewBox="0 0 508.362 508.362" style="enable-background:new 0 0 508.362 508.362;" xml:space="preserve">
<g>
	<path d="M361.894,0H192.085c-4.142,0-7.5,3.358-7.5,7.5s3.358,7.5,7.5,7.5h169.809c8.213,0,14.895,6.682,14.895,14.895v194.727
		H131.573V29.895c0-8.213,6.682-14.895,14.895-14.895h15.618c4.142,0,7.5-3.358,7.5-7.5s-3.358-7.5-7.5-7.5h-15.618
		c-16.484,0-29.895,13.411-29.895,29.895v448.573c0,16.484,13.411,29.895,29.895,29.895h215.426
		c16.483,0,29.895-13.411,29.895-29.895V29.895C391.789,13.411,378.377,0,361.894,0z M376.789,478.468
		c0,8.213-6.682,14.895-14.895,14.895H146.468c-8.213,0-14.895-6.682-14.895-14.895V239.622h245.215V478.468z"/>
	<path d="M303.181,115.136c0-27.019-21.981-49-49-49s-49,21.981-49,49s21.981,49,49,49S303.181,142.154,303.181,115.136z
		 M220.181,115.136c0-18.748,15.252-34,34-34c18.748,0,34,15.252,34,34s-15.252,34-34,34
		C235.433,149.136,220.181,133.883,220.181,115.136z"/>
	<circle cx="265.681" cy="107.569" r="11.5"/>
	<path d="M254.181,464.552c53.21,0,96.5-43.29,96.5-96.5c0-33.132-16.74-63.578-44.78-81.442c-3.494-2.226-8.13-1.199-10.355,2.295
		c-2.226,3.493-1.198,8.129,2.295,10.355c23.695,15.096,37.841,40.813,37.841,68.792c0,44.939-36.561,81.5-81.5,81.5
		s-81.5-36.561-81.5-81.5c0-52.183,48.757-91.306,99.974-79.389c4.031,0.934,8.065-1.571,9.004-5.606s-1.571-8.066-5.605-9.004
		c-60.67-14.111-118.372,32.234-118.372,94C157.681,421.262,200.971,464.552,254.181,464.552z"/>
	<path d="M254.181,316.999c22.806,0,43.027,15.343,49.176,37.312c1.116,3.989,5.255,6.316,9.244,5.201
		c3.989-1.117,6.317-5.255,5.201-9.244c-7.954-28.42-34.116-48.269-63.621-48.269c-36.421,0-66.053,29.631-66.053,66.053
		s29.631,66.052,66.053,66.052c30.537,0,56.926-20.715,64.173-50.375c0.982-4.024-1.482-8.083-5.506-9.066
		c-4.031-0.984-8.083,1.482-9.066,5.505c-5.601,22.924-25.997,38.935-49.601,38.935c-28.15,0-51.053-22.902-51.053-51.052
		S226.031,316.999,254.181,316.999z"/>
	<path d="M61.879,411.124C4.655,378.1,5.802,294.718,64.369,263.563c3.657-1.945,5.044-6.487,3.099-10.144
		c-1.945-3.656-6.487-5.043-10.144-3.099c-69.013,36.713-70.293,134.927-2.943,173.796c3.582,2.065,8.169,0.848,10.245-2.747
		C66.697,417.781,65.467,413.194,61.879,411.124z"/>
	<path d="M79.928,391.7c-43.351-23.386-42.567-85.897,1.741-107.998c3.707-1.849,5.212-6.353,3.364-10.059
		s-6.353-5.212-10.059-3.364c-55.242,27.555-56.134,105.51-2.168,134.622c3.669,1.98,8.208,0.582,10.162-3.04
		C84.934,398.216,83.573,393.666,79.928,391.7z"/>
	<path d="M99.407,304.39c3.759-1.739,5.398-6.196,3.66-9.956c-1.739-3.759-6.195-5.4-9.956-3.66
		c-39.548,18.288-40.908,74.657-1.239,94.292c1.07,0.529,2.204,0.78,3.321,0.78c7.921,0,10.399-10.725,3.333-14.223
		C70.216,357.612,71.195,317.435,99.407,304.39z"/>
	<path d="M453.981,250.445c-3.586-2.07-8.175-0.841-10.245,2.747s-0.84,8.174,2.747,10.245
		c57.225,33.024,56.077,116.406-2.49,147.561c-3.657,1.945-5.044,6.487-3.099,10.144c1.944,3.657,6.486,5.044,10.144,3.099
		C520.051,387.528,521.331,289.314,453.981,250.445z"/>
	<path d="M435.556,269.66c-3.643-1.967-8.194-0.605-10.161,3.04c-1.967,3.646-0.605,8.195,3.04,10.162
		c43.35,23.387,42.566,85.898-1.742,107.998c-3.707,1.849-5.213,6.353-3.364,10.059c1.853,3.713,6.358,5.209,10.06,3.364
		C488.63,376.728,489.523,298.773,435.556,269.66z"/>
	<path d="M416.49,289.494c-3.712-1.837-8.212-0.317-10.049,3.395c-1.838,3.712-0.317,8.211,3.395,10.048
		c28.313,14.013,27.33,54.189-0.88,67.234c-3.76,1.739-5.398,6.196-3.66,9.956c1.73,3.74,6.179,5.407,9.955,3.66
		C454.798,365.5,456.161,309.13,416.49,289.494z"/>
</g>
<g>
</g>
<g>
</g>
<g>
</g>
<g>
</g>
<g>
</g>
<g>
</g>
<g>
</g>
<g>
</g>
<g>
</g>
<g>
</g>
<g>
</g>
<g>
</g>
<g>
</g>
<g>
</g>
<g>
</g>
</svg>
