<?xml version="1.0" encoding="iso-8859-1"?>
<!-- Generator: Adobe Illustrator 19.0.0, SVG Export Plug-In . SVG Version: 6.00 Build 0)  -->
<svg version="1.1" id="Layer_1" xmlns="http://www.w3.org/2000/svg" xmlns:xlink="http://www.w3.org/1999/xlink" x="0px" y="0px"
	 viewBox="0 0 509.99 509.99" style="enable-background:new 0 0 509.99 509.99;" xml:space="preserve">
<g>
	<path d="M272.877,83.131c32.909,3.487,63.954,16.347,89.78,37.191c1.387,1.12,3.052,1.664,4.705,1.664
		c7.041,0,10.217-8.897,4.715-13.337c-28.076-22.661-61.833-36.643-97.62-40.434c-4.128-0.441-7.813,2.549-8.248,6.668
		C265.772,79.002,268.757,82.695,272.877,83.131z"/>
	<path d="M83.16,272.847c-0.436-4.119-4.122-7.105-8.248-6.668c-4.119,0.437-7.104,4.129-6.668,8.249
		c3.791,35.787,17.773,69.544,40.435,97.621c1.481,1.836,3.651,2.79,5.841,2.79c6.196,0,9.835-7.25,5.831-12.211
		C99.507,336.803,86.647,305.757,83.16,272.847z"/>
	<path d="M236.113,425.801c-32.909-3.487-63.954-16.347-89.78-37.191c-3.224-2.603-7.946-2.097-10.546,1.126
		c-2.602,3.223-2.098,7.945,1.126,10.547c28.076,22.661,61.833,36.643,97.62,40.434c0.269,0.029,0.535,0.042,0.799,0.042
		c3.787,0,7.042-2.86,7.449-6.71C243.217,429.93,240.232,426.237,236.113,425.801z"/>
	<path d="M389.765,135.758c-3.224,2.602-3.728,7.324-1.126,10.547c20.844,25.825,33.703,56.871,37.19,89.78
		c0.407,3.851,3.661,6.71,7.449,6.71c4.479,0,7.935-3.874,7.467-8.291c-3.791-35.787-17.773-69.544-40.435-97.621
		C397.712,133.661,392.989,133.155,389.765,135.758z"/>
	<path d="M146.333,120.322c25.826-20.844,56.871-33.704,89.78-37.191c4.119-0.436,7.104-4.129,6.668-8.248
		c-0.436-4.119-4.119-7.107-8.248-6.668c-35.787,3.792-69.544,17.773-97.62,40.434c-3.224,2.602-3.728,7.324-1.126,10.547
		C138.388,122.42,143.111,122.923,146.333,120.322z"/>
	<path d="M75.711,242.795c3.787,0,7.042-2.86,7.449-6.71c3.487-32.909,16.347-63.955,37.19-89.78
		c2.602-3.223,2.098-7.945-1.126-10.547c-3.224-2.603-7.946-2.097-10.546,1.126c-22.661,28.077-36.644,61.834-40.435,97.621
		C67.776,238.923,71.234,242.795,75.711,242.795z"/>
	<path d="M341.856,138.534c-19.647-14.847-42.868-24.488-67.151-27.881c-4.105-0.577-7.892,2.288-8.466,6.39
		c-0.573,4.103,2.287,7.893,6.39,8.466c21.759,3.041,42.57,11.683,60.185,24.994c1.354,1.022,2.94,1.517,4.516,1.517
		C344.492,152.018,347.594,142.871,341.856,138.534z"/>
	<path d="M110.681,274.675c3.393,24.282,13.034,47.503,27.882,67.152c2.485,3.289,7.184,3.971,10.505,1.462
		c3.305-2.498,3.96-7.201,1.462-10.505c-13.311-17.616-21.953-38.427-24.993-60.185c-0.573-4.103-4.36-6.966-8.466-6.39
		C112.969,266.783,110.108,270.573,110.681,274.675z"/>
	<path d="M167.133,370.398c19.647,14.847,42.868,24.488,67.151,27.881c0.353,0.049,0.702,0.073,1.048,0.073
		c3.682,0,6.894-2.713,7.418-6.463c0.573-4.103-2.287-7.893-6.39-8.466c-21.759-3.041-42.57-11.683-60.185-24.994
		c-3.305-2.497-8.008-1.843-10.505,1.462C163.174,363.198,163.829,367.901,167.133,370.398z"/>
	<path d="M370.426,167.105c-2.496-3.304-7.198-3.96-10.505-1.462c-3.305,2.498-3.96,7.201-1.462,10.505
		c13.311,17.616,21.953,38.427,24.993,60.185c0.523,3.75,3.736,6.463,7.418,6.463c4.574,0,8.066-4.038,7.438-8.539
		C394.916,209.975,385.274,186.754,370.426,167.105z"/>
	<path d="M242.751,117.042c-0.574-4.103-4.372-6.968-8.466-6.39c-24.283,3.393-47.504,13.035-67.151,27.881
		c-3.305,2.498-3.959,7.201-1.462,10.505c2.485,3.289,7.184,3.971,10.505,1.462c17.614-13.311,38.426-21.953,60.185-24.994
		C240.464,124.935,243.324,121.145,242.751,117.042z"/>
	<path d="M149.068,165.642c-3.305-2.497-8.008-1.843-10.505,1.462c-14.848,19.649-24.489,42.87-27.882,67.152
		c-0.573,4.102,2.288,7.892,6.39,8.465c4.121,0.576,7.896-2.306,8.466-6.39c3.04-21.757,11.683-42.569,24.993-60.185
		C153.028,172.843,152.373,168.14,149.068,165.642z"/>
	<path d="M319.482,172.801c2.348-3.412,1.485-8.082-1.927-10.43c-12.882-8.866-27.186-14.812-42.513-17.672
		c-4.065-0.762-7.988,1.924-8.749,5.996c-0.76,4.072,1.925,7.989,5.997,8.749c13.251,2.474,25.619,7.616,36.761,15.284
		C312.456,177.071,317.128,176.219,319.482,172.801z"/>
	<path d="M172.83,319.453c3.412-2.348,4.274-7.018,1.927-10.43c-7.669-11.142-12.811-23.511-15.283-36.761
		c-0.761-4.073-4.684-6.755-8.749-5.997c-4.072,0.76-6.757,4.677-5.997,8.749c2.861,15.327,8.807,29.631,17.672,42.513
		C164.747,320.938,169.416,321.801,172.83,319.453z"/>
	<path d="M236.699,349.489c-13.251-2.474-25.619-7.616-36.761-15.284c-3.413-2.349-8.081-1.486-10.431,1.926
		c-2.348,3.412-1.485,8.082,1.927,10.43c12.882,8.866,27.186,14.812,42.513,17.672c4.089,0.765,7.992-1.943,8.749-5.996
		C243.456,354.166,240.771,350.248,236.699,349.489z"/>
	<path d="M346.59,191.406c-2.349-3.413-7.018-4.275-10.431-1.926c-3.412,2.348-4.274,7.018-1.927,10.43
		c7.669,11.142,12.811,23.511,15.283,36.761c0.674,3.607,3.824,6.125,7.364,6.125c4.702,0,8.243-4.264,7.382-8.877
		C361.401,218.592,355.456,204.288,346.59,191.406z"/>
	<path d="M242.696,150.695c-0.761-4.072-4.686-6.757-8.749-5.996c-15.327,2.861-29.631,8.807-42.513,17.672
		c-3.412,2.348-4.274,7.018-1.927,10.43c2.348,3.411,7.017,4.275,10.431,1.926c11.142-7.668,23.51-12.81,36.761-15.284
		C240.771,158.684,243.456,154.766,242.696,150.695z"/>
	<path d="M162.399,191.406c-8.865,12.882-14.811,27.186-17.672,42.513c-0.76,4.072,1.925,7.989,5.997,8.749
		c4.089,0.765,7.992-1.944,8.749-5.997c2.473-13.25,7.614-25.619,15.283-36.761c2.348-3.412,1.485-8.082-1.927-10.43
		C169.417,187.13,164.748,187.994,162.399,191.406z"/>
	<path d="M288.987,200.36c7.715,0,10.375-10.277,3.682-14.04c-5.348-3.005-11.055-5.375-16.963-7.045
		c-3.986-1.126-8.131,1.193-9.257,5.179c-1.126,3.986,1.192,8.13,5.179,9.257C283.096,196.951,284.935,200.36,288.987,200.36z"/>
	<path d="M324.507,266.42c-3.985-1.125-8.131,1.193-9.257,5.179c-1.347,4.768-3.26,9.375-5.686,13.692
		c-2.839,5.052,0.895,11.176,6.531,11.176c2.622,0,5.169-1.378,6.545-3.827c3.006-5.35,5.376-11.057,7.045-16.963
		C330.811,271.69,328.492,267.546,324.507,266.42z"/>
	<path d="M199.425,285.291c-2.426-4.317-4.339-8.924-5.686-13.692c-1.126-3.986-5.269-6.303-9.257-5.179
		c-3.985,1.126-6.305,5.271-5.179,9.256c1.669,5.907,4.039,11.614,7.045,16.963c1.376,2.449,3.922,3.827,6.545,3.827
		C198.531,296.467,202.264,290.342,199.425,285.291z"/>
	<path d="M285.319,309.535c-4.315,2.426-8.922,4.338-13.691,5.686c-3.986,1.126-6.305,5.271-5.179,9.257
		c1.121,3.967,5.251,6.309,9.257,5.179c5.908-1.669,11.615-4.04,16.963-7.045c3.61-2.029,4.893-6.602,2.863-10.213
		C293.504,308.788,288.929,307.508,285.319,309.535z"/>
	<path d="M235.327,329.941c8.67,0,10.373-12.364,2.035-14.72c-4.77-1.347-9.376-3.26-13.691-5.686
		c-3.612-2.03-8.184-0.747-10.213,2.863c-2.029,3.611-0.747,8.184,2.863,10.213C220.558,324.993,231.427,329.941,235.327,329.941z"
		/>
	<path d="M322.64,216.293c-2.029-3.611-6.603-4.895-10.212-2.864c-3.611,2.029-4.894,6.602-2.864,10.213
		c2.426,4.317,4.339,8.924,5.686,13.692c1.121,3.967,5.251,6.31,9.257,5.179c3.985-1.126,6.305-5.271,5.179-9.256
		C328.016,227.349,325.646,221.642,322.64,216.293z"/>
	<path d="M233.284,179.276c-5.908,1.669-11.615,4.04-16.963,7.045c-6.683,3.756-4.049,14.04,3.682,14.04
		c4.083,0,5.724-3.362,17.359-6.649c3.986-1.126,6.305-5.271,5.179-9.257C241.415,180.469,237.272,178.15,233.284,179.276z"/>
	<path d="M186.526,242.797c3.272,0,6.28-2.159,7.214-5.463c1.347-4.768,3.26-9.375,5.686-13.692
		c2.029-3.611,0.747-8.184-2.864-10.213c-3.608-2.029-8.183-0.747-10.212,2.864c-3.006,5.35-5.376,11.057-7.045,16.963
		C177.953,238.04,181.554,242.797,186.526,242.797z"/>
	<path d="M290.845,243.97c-4.129,0.332-7.207,3.948-6.875,8.077c1.396,17.331-12.319,31.992-29.476,31.992
		c-16.307,0-29.572-13.266-29.572-29.572c0-25.01,29.09-38.45,48.172-22.993c3.218,2.608,7.941,2.112,10.548-1.106
		c2.607-3.219,2.112-7.941-1.106-10.549c-28.8-23.333-72.613-2.996-72.613,34.648c0,24.577,19.995,44.572,44.572,44.572
		c25.86,0,46.531-22.109,44.427-48.194C298.59,246.716,294.965,243.638,290.845,243.97z"/>
	<path d="M425.803,312.948c-2.597-1.502-5.645-1.699-8.363-0.541c-9.969,4.243-6.962,18.058-20.241,47.544
		c-0.568-5.819-1.655-11.531-3.258-16.899c-3.052-10.211-16.107-9.993-18.721,0.624c-0.337,1.371-0.705,2.718-1.104,4.037
		l-9.439-26.731c-3.248-9.201-14.806-9.269-18.146-0.124c-17.424,47.703-18.695,67.128-17.348,97.279
		c1.612,36.069,31.174,64.324,67.3,64.324c33.687,0,62.404-25.203,66.801-58.624c2.01-15.272,2.445-29.001,1.196-37.666
		c-0.736-5.106-4.079-8.798-8.516-9.406c-4.189-0.579-8.094,1.782-9.955,6.001v0c-1.081,2.45-2.229,4.805-3.436,7.054
		C444.619,357.251,435.333,318.403,425.803,312.948z M449.904,406.573c-0.285,4.756-0.785,9.938-1.491,15.306
		c-3.419,25.985-25.743,45.58-51.93,45.58c-28.082,0-51.062-21.96-52.315-49.994c-1.141-25.521-0.35-42.048,11.427-77.159
		l10.58,29.958c2.068,5.859,9.984,6.791,13.363,1.583c1.073-1.654,2.094-3.406,3.058-5.245c0.277,7.977-0.562,16.02-2.529,23.103
		c-2.207,7.944,8.242,13.097,13.208,6.531c12.177-16.101,21.925-36.84,28.365-60.278c5.004,16.502,10.085,48.106,1.752,78.888
		c-1.895,7.001,6.33,12.366,11.972,7.779C440.622,418.349,445.517,412.93,449.904,406.573z"/>
	<path d="M494.295,339.826c31.433-88.535,12.692-192.648-59.91-265.25c-99.437-99.437-260.347-99.433-359.78,0
		c-48.05,48.05-74.52,111.94-74.52,179.89c0,175.018,173.497,298.756,339.6,239.86c43.274,25.589,99.945,19.88,137.25-17.53
		c2.93-2.93,2.92-7.68-0.01-10.6c-2.94-2.93-7.68-2.92-10.61,0.01c-68.52,68.668-186.054,5.633-164.96-90.26
		c4.967-22.465,17.684-42.202,35.46-56.09c44.424-34.698,108.766-24.761,140.81,21.72c21.404,31.01,22.625,70.786,5.33,102.39
		c-1.98,3.64-0.65,8.19,2.98,10.18c3.64,1.99,8.2,0.65,10.18-2.98C514.851,416.913,514.734,374.456,494.295,339.826z
		 M455.245,300.356c-5.45-3.29-11.19-6.14-17.19-8.48c1.17-5.75,2.07-11.57,2.69-17.45c0.44-4.12-2.55-7.81-6.67-8.25
		c-4.12-0.43-7.81,2.55-8.25,6.67c-0.52,4.87-1.24,9.7-2.16,14.48c-14.048-3.43-24.17-3.021-27.01-3.19
		c0.66-3.13,1.21-6.29,1.65-9.46c0.58-4.1-2.28-7.89-6.39-8.47c-4.1-0.57-7.89,2.29-8.46,6.39c-0.6,4.27-1.41,8.5-2.43,12.67
		c-7.16,1.01-14.09,2.7-20.75,5c1.69-4.96,3.02-10.04,3.99-15.25c0.76-4.07-1.93-7.99-6-8.75s-7.99,1.92-8.75,6
		c-1.8,9.64-5,18.8-9.57,27.37c-16.64,9.77-30.55,23.68-40.35,40.31c-8.55,4.55-17.69,7.75-27.3,9.54c-4.08,0.76-6.76,4.68-6,8.75
		c0.71,3.825,4.336,6.751,8.75,6c5.18-0.97,10.24-2.28,15.17-3.96c-2.3,6.66-3.99,13.6-5.01,20.75c-4.14,1-8.34,1.81-12.58,2.4
		c-4.1,0.57-6.96,4.36-6.39,8.46c0.575,4.067,4.332,6.981,8.47,6.39c3.14-0.44,6.26-0.98,9.36-1.63
		c0.051,0.862-0.357,12.461,3.17,27.01c-4.74,0.92-9.53,1.63-14.36,2.14c-4.12,0.44-7.1,4.13-6.67,8.25
		c0.446,4.188,4.237,7.116,8.25,6.67c5.83-0.62,11.6-1.5,17.31-2.66c2.35,5.99,5.19,11.74,8.48,17.19
		c-129.585,29.34-251.61-69.26-251.61-200.78c0-54.99,21.42-106.68,60.3-145.56c80.467-80.466,210.663-80.457,291.12,0
		C451.459,160.311,470.616,232.689,455.245,300.356z M483.515,324.596c-4.54-5.43-9.6-10.43-15.08-14.91
		c18.844-73.478-0.53-154.15-57.77-211.39c-86.323-86.323-226.027-86.313-312.34,0c-41.71,41.71-64.69,97.18-64.69,156.17
		c0,144.657,136.463,249.61,275.92,213.98c4.49,5.49,9.48,10.54,14.91,15.09c-155.111,47.199-309.38-69.411-309.38-229.07
		c0-63.95,24.91-124.07,70.12-169.29c93.594-93.573,245.004-93.556,338.58,0C488.966,150.372,508.376,243.071,483.515,324.596z"/>
</g>
<g>
</g>
<g>
</g>
<g>
</g>
<g>
</g>
<g>
</g>
<g>
</g>
<g>
</g>
<g>
</g>
<g>
</g>
<g>
</g>
<g>
</g>
<g>
</g>
<g>
</g>
<g>
</g>
<g>
</g>
</svg>
