<?xml version="1.0" encoding="iso-8859-1"?>
<!-- Generator: Adobe Illustrator 19.0.0, SVG Export Plug-In . SVG Version: 6.00 Build 0)  -->
<svg version="1.1" id="Layer_1" xmlns="http://www.w3.org/2000/svg" xmlns:xlink="http://www.w3.org/1999/xlink" x="0px" y="0px"
	 viewBox="0 0 508.108 508.108" style="enable-background:new 0 0 508.108 508.108;" xml:space="preserve">
<g>
	<path d="M312.121,163.855c0-60.203-48.979-109.182-109.183-109.182c-87.821,0-139.002,98.576-90.498,170.29
		c2.321,3.431,6.982,4.332,10.415,2.011c3.431-2.321,4.331-6.983,2.011-10.414c-41.644-61.565,2.041-146.886,78.072-146.886
		c51.933,0,94.183,42.25,94.183,94.182c0,79.623-92.742,122.557-153.551,73.125c-3.216-2.614-7.939-2.125-10.55,1.089
		c-2.613,3.214-2.126,7.938,1.089,10.551C204.611,305.933,312.121,256.158,312.121,163.855z"/>
	<path d="M269.79,163.854c0-12.77-10.39-23.16-23.16-23.16c-12.77,0-23.16,10.39-23.16,23.16c0,12.77,10.39,23.16,23.16,23.16
		C259.4,187.014,269.79,176.624,269.79,163.854z M238.47,163.854c0-4.5,3.66-8.16,8.16-8.16s8.16,3.66,8.16,8.16
		s-3.66,8.16-8.16,8.16S238.47,168.354,238.47,163.854z"/>
	<path d="M159.24,187.014c12.77,0,23.16-10.39,23.16-23.16c0-12.77-10.39-23.16-23.16-23.16s-23.16,10.39-23.16,23.16
		C136.08,176.624,146.47,187.014,159.24,187.014z M159.24,155.694c4.5,0,8.16,3.66,8.16,8.16s-3.66,8.16-8.16,8.16
		s-8.16-3.66-8.16-8.16S154.74,155.694,159.24,155.694z"/>
	<path d="M174.65,303.114c-7.77,0-14.09,6.32-14.09,14.09v20.06c0,7.77,6.32,14.08,14.09,14.08h56.57c7.78,0,14.1-6.31,14.1-14.08
		v-20.06c0-7.77-6.32-14.09-14.1-14.09H174.65z M230.32,336.344h-54.76v-18.23h54.76V336.344z"/>
	<path d="M71.95,303.114c-7.77,0-14.09,6.32-14.09,14.09v20.06c0,7.77,6.32,14.08,14.09,14.08h56.58c7.77,0,14.09-6.31,14.09-14.08
		v-20.06c0-7.77-6.32-14.09-14.09-14.09H71.95z M127.62,336.344H72.86v-18.23h54.76V336.344z"/>
	<path d="M484.58,331.644c-2.57-3.25-7.29-3.79-10.54-1.22c-3.24,2.57-3.79,7.29-1.22,10.53
		c48.248,60.911,5.075,152.08-73.62,152.08c-49.48,0-90.15-38.47-93.65-87.08c-5.615-78.884,82.935-128.507,147.08-83.96
		c3.4,2.37,8.08,1.52,10.44-1.88c2.37-3.4,1.53-8.07-1.88-10.43c-16.44-11.43-35.44-18.01-55.31-19.21V48.244
		c0-26.56-21.61-48.17-48.18-48.17H254.6c-4.15,0-7.5,3.35-7.5,7.5c0,4.14,3.35,7.5,7.5,7.5h103.1c18.29,0,33.18,14.88,33.18,33.17
		v242.34c-17.56,1.33-33.97,6.84-48.24,15.56c-2.4-1.9-5.43-3.03-8.72-3.03h-56.57c-7.77,0-14.1,6.32-14.1,14.09v20.06
		c0,7.77,6.33,14.08,14.1,14.08h24.03c-5.95,12.12-9.71,25.49-10.76,39.61H48.18c-18.3,0-33.18-14.89-33.18-33.18V48.244
		c0-18.29,14.88-33.17,33.18-33.17H224.6c4.14,0,7.5-3.36,7.5-7.5c0-4.15-3.36-7.5-7.5-7.5H48.18C21.61,0.074,0,21.684,0,48.244
		v309.53c0,26.56,21.61,48.18,48.18,48.18h242.35c3.51,56.89,50.91,102.08,108.67,102.08
		C490.42,508.034,540.591,402.332,484.58,331.644z M278.25,336.344v-18.23h48.3c-6.07,5.44-11.52,11.56-16.25,18.23H278.25z"/>
	<path d="M473.305,395.008c3.657-1.945,5.044-6.487,3.099-10.144c-32.591-61.265-119.778-62.403-154.285-2.613
		c-2.07,3.587-0.841,8.174,2.747,10.245c3.585,2.069,8.173,0.841,10.245-2.747c13.05-22.612,37.355-36.658,63.433-36.658
		c27.12,0,51.881,14.875,64.618,38.818C465.107,395.566,469.647,396.953,473.305,395.008z"/>
	<path d="M455.515,410.451c3.706-1.849,5.213-6.352,3.364-10.059c-24.537-49.195-93.965-49.991-119.892-1.931
		c-1.967,3.646-0.605,8.195,3.04,10.162c3.645,1.969,8.195,0.606,10.161-3.04c9.205-17.063,26.925-27.663,46.244-27.663
		c20.031,0,38.05,11.176,47.022,29.167C447.309,410.801,451.814,412.296,455.515,410.451z"/>
	<path d="M437.224,426.307c3.76-1.738,5.398-6.195,3.66-9.955c-16.386-35.438-66.896-36.65-84.485-1.11
		c-1.838,3.712-0.317,8.211,3.395,10.048c3.714,1.838,8.212,0.318,10.049-3.395c11.97-24.183,46.285-23.346,57.427,0.752
		C429.003,426.395,433.454,428.051,437.224,426.307z"/>
	<path d="M398.378,414.442c-12.62,0-22.887,10.267-22.887,22.886s10.267,22.886,22.887,22.886c12.619,0,22.886-10.267,22.886-22.886
		S410.998,414.442,398.378,414.442z M398.378,445.214c-4.349,0-7.887-3.538-7.887-7.886s3.538-7.886,7.887-7.886
		s7.886,3.538,7.886,7.886S402.727,445.214,398.378,445.214z"/>
</g>
<g>
</g>
<g>
</g>
<g>
</g>
<g>
</g>
<g>
</g>
<g>
</g>
<g>
</g>
<g>
</g>
<g>
</g>
<g>
</g>
<g>
</g>
<g>
</g>
<g>
</g>
<g>
</g>
<g>
</g>
</svg>
