<?xml version="1.0" encoding="iso-8859-1"?>
<!-- Generator: Adobe Illustrator 19.0.0, SVG Export Plug-In . SVG Version: 6.00 Build 0)  -->
<svg version="1.1" id="Layer_1" xmlns="http://www.w3.org/2000/svg" xmlns:xlink="http://www.w3.org/1999/xlink" x="0px" y="0px"
	 viewBox="0 0 508.6 508.6" style="enable-background:new 0 0 508.6 508.6;" xml:space="preserve">
<g>
	<circle cx="293.463" cy="29.55" r="7.5"/>
	<path d="M211.762,36.41h49.784c4.142,0,7.5-3.358,7.5-7.5s-3.358-7.5-7.5-7.5h-49.784c-4.142,0-7.5,3.358-7.5,7.5
		S207.62,36.41,211.762,36.41z"/>
	<path d="M248.717,169.863c-66.17,61.097-47.671,44.016-74.38,68.677c-3.043,2.81-3.232,7.555-0.422,10.598
		c2.81,3.042,7.554,3.232,10.598,0.422l6.727-6.211v99.891c0,4.14,3.35,7.5,7.5,7.5h110.12c4.15,0,7.5-3.36,7.5-7.5V299.1
		c0-4.14-3.35-7.5-7.5-7.5c-4.14,0-7.5,3.36-7.5,7.5v36.64h-95.12V229.499l47.556-43.91l47.564,43.991V269.1
		c0,4.14,3.36,7.5,7.5,7.5c4.15,0,7.5-3.36,7.5-7.5v-25.646c5.444,4.467,7.062,8.096,11.688,8.096c6.766,0,10.12-8.358,5.094-13.006
		c-85.417-79.001-70.153-64.747-74.825-69.153C253.342,165.628,248.817,169.823,248.717,169.863z"/>
	<path d="M482.3,71.8c-11.72,0-21.58,8.1-24.27,19H435.3c-6.07,0-11,4.93-11,11v40h-30.455V33.42c0-18.428-14.997-33.42-33.43-33.42
		c-18.731,0-193.692,0-213.24,0c-18.428,0-33.42,14.992-33.42,33.42V199.8H55.61v-47.64c10.13-3.19,17.5-12.68,17.5-23.85
		c0-13.79-11.21-25-25-25c-13.78,0-25,11.21-25,25c0,11.17,7.37,20.65,17.5,23.84v55.15c0,4.14,3.36,7.5,7.5,7.5h65.645v126.853
		c0,4.142,3.358,7.5,7.5,7.5s7.5-3.358,7.5-7.5V214.8H140.8v185.5h-12.045v-28.647c0-4.142-3.358-7.5-7.5-7.5s-7.5,3.358-7.5,7.5
		V400.3H80.3c-6.07,0-11,4.93-11,11v40H49.62c-3.62-9.36-12.71-16-23.32-16c-13.79,0-25,11.21-25,25s11.21,25,25,25
		c11.71,0,21.58-8.1,24.27-19H73.3c6.06,0,11-4.93,11-11v-40h29.455v59.88c0,18.428,14.992,33.42,33.42,33.42h213.24
		c18.433,0,33.43-14.992,33.43-33.42v-86.37h46.205v47.63c-10.13,3.2-17.5,12.68-17.5,23.86c0,13.79,11.21,25,25,25s25-11.21,25-25
		c0-11.18-7.37-20.66-17.5-23.86v-55.13c0-4.15-3.36-7.5-7.5-7.5h-53.705V156.8H428.3c6.06,0,11-4.93,11-11v-40h19.68
		c3.62,9.36,12.7,16,23.32,16c13.79,0,25-11.21,25-25S496.09,71.8,482.3,71.8z M43.17,137c-8.914-5.077-5.264-18.69,4.94-18.69
		c5.52,0,10,4.48,10,10C58.11,135.92,49.87,140.809,43.17,137z M34.31,466.27c-5.776,7.744-18.01,3.552-18.01-5.97
		c0-8.036,8.981-12.665,15.48-8.36C36.65,455.145,37.73,461.729,34.31,466.27z M316.896,15l-4.913,28.5H196.476L190.907,15
		C208.441,15,304.456,15,316.896,15z M378.845,475.18c0,10.157-8.268,18.42-18.43,18.42h-213.24c-10.157,0-18.42-8.263-18.42-18.42
		V415.3H140.8v46.123c0,11.236,9.141,20.377,20.377,20.377h185.245c11.236,0,20.377-9.141,20.377-20.377V388.81h12.045V475.18z
		 M378.845,373.81H366.8V156.8h12.045V373.81z M378.845,141.8H366.8V89.178c0-11.236-9.141-20.377-20.377-20.377h-26.207
		c-4.142,0-7.5,3.358-7.5,7.5s3.358,7.5,7.5,7.5h26.207c2.965,0,5.377,2.412,5.377,5.377V141.8h-35c-4.14,0-7.5,3.36-7.5,7.5
		s3.36,7.5,7.5,7.5h35v217.01h-26.94c-4.14,0-7.5,3.35-7.5,7.5c0,4.14,3.36,7.5,7.5,7.5h26.94v72.613
		c0,2.965-2.412,5.377-5.377,5.377H161.177c-2.965,0-5.377-2.412-5.377-5.377V415.3h36c4.14,0,7.5-3.36,7.5-7.5s-3.36-7.5-7.5-7.5
		h-36V214.8h15c4.14,0,7.5-3.36,7.5-7.5s-3.36-7.5-7.5-7.5h-15V89.178c0-2.965,2.412-5.377,5.377-5.377h132.038
		c4.142,0,7.5-3.358,7.5-7.5s-3.358-7.5-7.5-7.5H161.177c-11.236,0-20.377,9.141-20.377,20.377V199.8h-12.045V33.42
		c0-10.157,8.263-18.42,18.42-18.42h28.449l6.357,32.537c1.249,6.353,6.85,10.963,13.319,10.963h117.89
		c6.626,0,12.25-4.74,13.371-11.266L332.118,15h28.297c10.162,0,18.43,8.263,18.43,18.42V141.8z M442.62,451.61
		c6.584-3.788,14.93,1.015,14.93,8.69c0,5.51-4.49,10-10,10C437.34,470.3,433.703,456.672,442.62,451.61z M482.3,106.8
		c-5.544,0-10-4.518-10-10c0-5.473,4.462-10,10-10c5.51,0,10,4.49,10,10S487.81,106.8,482.3,106.8z"/>
</g>
<g>
</g>
<g>
</g>
<g>
</g>
<g>
</g>
<g>
</g>
<g>
</g>
<g>
</g>
<g>
</g>
<g>
</g>
<g>
</g>
<g>
</g>
<g>
</g>
<g>
</g>
<g>
</g>
<g>
</g>
</svg>
