<?xml version="1.0" encoding="iso-8859-1"?>
<!-- Generator: Adobe Illustrator 19.0.0, SVG Export Plug-In . SVG Version: 6.00 Build 0)  -->
<svg version="1.1" id="Layer_1" xmlns="http://www.w3.org/2000/svg" xmlns:xlink="http://www.w3.org/1999/xlink" x="0px" y="0px"
	 viewBox="0 0 508.6 508.6" style="enable-background:new 0 0 508.6 508.6;" xml:space="preserve">
<g>
	<path d="M276.434,105.459c-44.552-15.143-90.98,18.14-90.98,65.21v40.84h-2.05c-10.38,0-18.83,8.45-18.83,18.83v157.61
		c0,10.39,8.45,18.84,18.83,18.84h141.8c10.38,0,18.83-8.45,18.83-18.84v-157.61c0-10.38-8.45-18.83-18.83-18.83h-2.05v-40.84
		C323.154,141.189,304.384,114.979,276.434,105.459z M200.454,170.669c0-36.725,36.221-62.883,71.15-51.01
		c21.87,7.45,36.55,27.95,36.55,51.01v40.84h-12.15v-40.84c0-23-18.71-41.71-41.7-41.71h-0.51c-22.71,0.28-41.19,18.99-41.19,41.71
		v40.84h-12.15V170.669z M281.004,170.669v40.84h-53.4v-40.84c0-14.55,11.83-26.53,26.28-26.71h0.42
		C269.024,143.959,281.004,155.939,281.004,170.669z M325.204,226.509c2.11,0,3.83,1.72,3.83,3.83v157.61
		c0,2.12-1.72,3.84-3.83,3.84h-141.8c-2.11,0-3.83-1.72-3.83-3.84v-157.61c0-2.11,1.72-3.83,3.83-3.83
		C230.805,226.509,278.35,226.509,325.204,226.509z"/>
	<path d="M235.074,317.289v20.81c0,17.344,19.98,25.621,32.13,14.6c4.02-3.64,6.33-8.83,6.33-14.23v-21.18
		c24.611-18.902,9.9-58.586-21.24-56.62C223.501,262.463,211.791,299.485,235.074,317.289z M237.774,290.639
		c1.115-12.294,15.058-19.119,25.5-12.39c9.884,6.328,10.161,20.576,0.83,27.37c-8.094,5.681-4.867,13.258-5.57,32.85
		c0,1.61-0.88,2.64-1.41,3.12c-2.841,2.568-7.05,0.386-7.05-3.49v-21.6c0-4.26-2.06-8.33-5.54-10.87
		C239.764,302.149,237.233,296.549,237.774,290.639z"/>
	<path d="M182.304,455.089c-90.825-67.925-128.247-187.487-125.72-298.16c0.08-3.81,3.03-6.94,6.86-7.29
		c15.51-1.41,30.97-4.83,45.95-10.17c3.9-1.4,5.94-5.69,4.54-9.59c-1.39-3.9-5.68-5.93-9.58-4.54c-13.79,4.92-28.01,8.07-42.26,9.36
		c-11.45,1.04-20.27,10.47-20.51,21.92c-1.005,45.694,5.807,99.433,20.7,146.98c21.85,69.73,59.21,124.74,111.04,163.5
		c1.35,1.01,2.92,1.49,4.49,1.49C185.029,468.589,188.058,459.387,182.304,455.089z"/>
	<path d="M467.024,156.619c-0.24-11.45-9.06-20.88-20.51-21.92c-90.93-8.26-151.42-89.62-173.21-124.21
		c-8.831-14.014-29.227-13.956-38,0c-16.67,26.47-52.43,75.06-104.61,103.1c-3.65,1.97-5.02,6.51-3.06,10.16
		c1.96,3.65,6.51,5.02,10.16,3.06c55.21-29.68,92.74-80.61,110.2-108.33c2.878-4.565,9.627-4.724,12.62,0
		c41.645,66.145,105.77,123.997,184.55,131.16c3.83,0.35,6.78,3.48,6.86,7.29c0.302,12.964-0.149,29.325-1.53,45.92
		c-0.372,4.375,3.094,8.12,7.48,8.12c3.86,0,7.14-2.96,7.46-6.88C466.878,186.819,467.326,170.049,467.024,156.619z"/>
	<path d="M455.634,225.889c-4.09-0.6-7.91,2.23-8.51,6.33c-13.27,90.6-57,209.41-190.05,260.86c-1.77,0.69-3.76,0.69-5.54,0
		c-15.84-6.12-30.97-13.45-44.98-21.79c-3.56-2.12-8.16-0.95-10.28,2.61c-2.12,3.56-0.95,8.16,2.61,10.28
		c14.73,8.77,30.62,16.47,47.24,22.89c5.107,1.988,10.983,2.093,16.36,0c63.55-24.57,113.49-66.3,148.44-124.02
		c25.62-42.33,42.8-92.35,51.04-148.66C462.564,230.289,459.723,226.489,455.634,225.889z"/>
</g>
<g>
</g>
<g>
</g>
<g>
</g>
<g>
</g>
<g>
</g>
<g>
</g>
<g>
</g>
<g>
</g>
<g>
</g>
<g>
</g>
<g>
</g>
<g>
</g>
<g>
</g>
<g>
</g>
<g>
</g>
</svg>
