<?xml version="1.0" encoding="iso-8859-1"?>
<!-- Generator: Adobe Illustrator 19.0.0, SVG Export Plug-In . SVG Version: 6.00 Build 0)  -->
<svg version="1.1" id="Layer_1" xmlns="http://www.w3.org/2000/svg" xmlns:xlink="http://www.w3.org/1999/xlink" x="0px" y="0px"
	 viewBox="0 0 508.475 508.475" style="enable-background:new 0 0 508.475 508.475;" xml:space="preserve">
<g>
	<path d="M79.351,125.436v213.667c0,11.597,9.435,21.031,21.032,21.031h307.709c11.598,0,21.032-9.435,21.032-21.031V125.436
		c0-11.597-9.435-21.032-21.032-21.032H100.383C88.785,104.404,79.351,113.839,79.351,125.436z M414.124,125.436v213.667
		c0,3.326-2.706,6.031-6.032,6.031H100.383c-3.326,0-6.032-2.706-6.032-6.031V125.436c0-3.326,2.706-6.032,6.032-6.032h307.709
		C411.418,119.404,414.124,122.11,414.124,125.436z"/>
	<path d="M477.358,373.055h-15.607V96.746c0-12.991-10.568-23.56-23.56-23.56H151.21c-4.143,0-7.5,3.358-7.5,7.5s3.357,7.5,7.5,7.5
		h286.981c4.72,0,8.56,3.84,8.56,8.56v276.309c-17.614,0-368.406,0-385.027,0V96.746c0-4.72,3.84-8.56,8.56-8.56h50.927
		c4.143,0,7.5-3.358,7.5-7.5s-3.357-7.5-7.5-7.5H70.283c-12.991,0-23.56,10.569-23.56,23.56v276.309H31.116
		C13.959,373.055,0,387.014,0,404.171c0,17.158,13.959,31.117,31.116,31.117h36.242c4.143,0,7.5-3.358,7.5-7.5s-3.357-7.5-7.5-7.5
		H31.116c-8.887,0-16.116-7.23-16.116-16.117c0-8.887,7.229-16.117,16.116-16.117c17.808,0,415.876,0,446.242,0
		c8.887,0,16.116,7.23,16.116,16.117c0,8.887-7.229,16.117-16.116,16.117h-380c-4.143,0-7.5,3.358-7.5,7.5s3.357,7.5,7.5,7.5h380
		c17.157,0,31.116-13.959,31.116-31.117C508.475,387.014,494.516,373.055,477.358,373.055z"/>
	<path d="M140.201,298.67c12.647,0,23.286-8.742,26.204-20.5h20.803v38.031c0,4.142,3.357,7.5,7.5,7.5h110.128
		c4.143,0,7.5-3.358,7.5-7.5v-13.464h29.78c3.571,10.734,13.703,18.5,25.621,18.5c14.888,0,27-12.112,27-27s-12.112-27-27-27
		c-12.647,0-23.286,8.742-26.204,20.5h-29.197v-15.675c0-4.142-3.357-7.5-7.5-7.5s-7.5,3.358-7.5,7.5v36.639h-95.128V202.353
		l47.563-43.818l47.564,43.818v39.71c0,4.142,3.357,7.5,7.5,7.5s7.5-3.358,7.5-7.5v-26.125l8.663,7.951
		c3.044,2.793,7.789,2.606,10.597-0.454c2.801-3.052,2.598-7.796-0.454-10.597l-14.555-13.358h51.15c4.143,0,7.5-3.358,7.5-7.5
		v-15.485c11.249-3.259,19.5-13.647,19.5-25.932c0-14.888-12.112-27-27-27s-27,12.112-27,27c0,12.285,8.251,22.673,19.5,25.932
		v7.985h-59.994c-0.212-0.195-0.365-0.335-0.477-0.438c-0.006-0.006-0.018-0.017-0.036-0.033c0.008,0.007,0.015,0.014,0.021,0.02
		c-0.01-0.01-0.021-0.019-0.03-0.028c-0.032-0.029-0.081-0.074-0.153-0.14c-0.004-0.004-0.008-0.007-0.011-0.01
		c-0.004-0.003-0.008-0.008-0.012-0.011c0.001,0.001,0.002,0.002,0.003,0.003c-0.048-0.044-0.045-0.041-0.016-0.015
		c-1.296-1.189-8.817-8.092-44.686-41.011c-0.153-0.087-2.604-2.559-6.437-1.854c-3.99,0.734-0.308-0.75-79.915,71.879
		c-3.05,2.803-3.25,7.547-0.447,10.597c2.803,3.049,7.548,3.25,10.598,0.448l8.563-7.869v47.154h-21.385
		c-3.571-10.734-13.703-18.5-25.621-18.5c-14.888,0-27,12.112-27,27S125.313,298.67,140.201,298.67z M367.737,282.237
		c6.617,0,12,5.383,12,12s-5.383,12-12,12s-12-5.383-12-12S361.12,282.237,367.737,282.237z M355.737,150.562
		c0-6.617,5.383-12,12-12s12,5.383,12,12s-5.383,12-12,12S355.737,157.178,355.737,150.562z M140.201,259.67c6.617,0,12,5.383,12,12
		s-5.383,12-12,12s-12-5.383-12-12S133.584,259.67,140.201,259.67z"/>
</g>
<g>
</g>
<g>
</g>
<g>
</g>
<g>
</g>
<g>
</g>
<g>
</g>
<g>
</g>
<g>
</g>
<g>
</g>
<g>
</g>
<g>
</g>
<g>
</g>
<g>
</g>
<g>
</g>
<g>
</g>
</svg>
