<?xml version="1.0" encoding="iso-8859-1"?>
<!-- Generator: Adobe Illustrator 19.0.0, SVG Export Plug-In . SVG Version: 6.00 Build 0)  -->
<svg version="1.1" id="Layer_1" xmlns="http://www.w3.org/2000/svg" xmlns:xlink="http://www.w3.org/1999/xlink" x="0px" y="0px"
	 viewBox="0 0 507.803 507.803" style="enable-background:new 0 0 507.803 507.803;" xml:space="preserve">
<g>
	<path d="M460.637,57.22h-243.47V28.41c0-15.67-12.74-28.41-28.41-28.41C160.925,0,73.812,0,45.977,0
		c-15.67,0-28.42,12.74-28.42,28.41v316.57c0,15.67,12.75,28.42,28.42,28.42h7.27v126.9c0,4.14,3.36,7.5,7.5,7.5
		c85.207,0,85.827,0.007,422,0c4.14,0,7.5-3.36,7.5-7.5V86.83C490.247,70.5,476.967,57.22,460.637,57.22z M173,15l-6.957,30.12
		H68.685L61.728,15H173z M45.977,358.4c-7.4,0-13.42-6.02-13.42-13.42V28.41c0-7.4,6.02-13.41,13.42-13.41h0.357l7.992,34.602
		c1.43,6.193,6.868,10.519,13.225,10.519h99.627c6.356,0,11.795-4.325,13.225-10.518L188.395,15h0.362
		c7.39,0,13.41,6.01,13.41,13.41c0,39.554,0,276.487,0,316.57c0,7.4-6.02,13.42-13.41,13.42
		C171.543,358.4,61.828,358.4,45.977,358.4z M96.257,492.8h-28.01V373.4h28.01V492.8z M111.257,492.8v-96.06h14.62v25.29
		c-21.609,11.497-13.115,44.1,11,44.1h30.35c0.321,2.717-1.828,14.79,6.81,26.67H111.257z M167.037,416.31h28.45
		c8.57,0,15.54-6.97,15.54-15.54v-4.03h121.44v4.03c0,8.57,6.97,15.54,15.54,15.54h28.45c8.57,0,15.54-6.97,15.54-15.54v-4.03h10.62
		v22.55h-261.74v-22.55h10.62v4.03C151.497,409.34,158.467,416.31,167.037,416.31z M195.487,401.31
		c-28.64-0.257-28.99,0.528-28.99-0.54v-4.03h29.53C195.851,399.834,196.43,401.31,195.487,401.31z M376.457,401.31
		c-28.644-0.257-28.99,0.528-28.99-0.54v-4.03h29.53C376.821,399.834,377.4,401.31,376.457,401.31z M406.617,434.29
		c7.489,0,11.229,9.091,5.95,14.37c-1.59,1.6-3.7,2.47-5.95,2.47c-55.021,0-214.967,0-269.74,0c-4.64,0-8.42-3.78-8.42-8.42
		c0-4.639,3.739-8.296,8.16-8.42C234.249,434.29,326.14,434.29,406.617,434.29z M218.587,486.53c-7.4,7.4-16.83,7.22-23.2,4.59
		c-16.168-6.711-12.725-23.56-13.16-24.99h42.6C224.433,469.036,226.727,478.39,218.587,486.53z M232.907,492.8
		c8.776-12.04,6.598-23.949,6.92-26.67h63.84c0.321,2.717-1.828,14.79,6.81,26.67H232.907z M355.027,486.53
		c-7.4,7.4-16.84,7.22-23.2,4.59c-16.168-6.711-12.725-23.56-13.16-24.99h42.6C360.873,469.036,363.167,478.39,355.027,486.53z
		 M432.237,492.8h-62.89c8.776-12.04,6.598-23.949,6.92-26.67h30.35c6.25,0,12.14-2.43,16.56-6.86
		c11.084-11.084,8.385-29.795-5.56-37.23v-25.3h14.62V492.8z M432.237,381.74c-66.004,0-255.09,0-320.98,0v-8.34h77.5
		c15.561,0,28.41-12.656,28.41-28.42v-3.84h215.07V381.74z M432.237,270.53h-118.48c-4.14,0-7.5,3.36-7.5,7.5
		c0,4.15,3.36,7.5,7.5,7.5h118.48v40.61h-215.07v-40.61h66.59c4.14,0,7.5-3.35,7.5-7.5c0-4.14-3.36-7.5-7.5-7.5h-66.59v-40.6h215.07
		V270.53z M432.237,159.33h-48.48c-4.14,0-7.5,3.36-7.5,7.5s3.36,7.5,7.5,7.5h48.48v40.6h-215.07v-40.6h136.59
		c4.14,0,7.5-3.36,7.5-7.5s-3.36-7.5-7.5-7.5h-136.59v-37.11h215.07V159.33z M475.247,492.8h-28.01V114.72c0-4.14-3.36-7.5-7.5-7.5
		h-222.57v-35h243.47c8.05,0,14.61,6.56,14.61,14.61V492.8z"/>
	<path d="M80.79,37.113h46.415c4.142,0,7.5-3.358,7.5-7.5s-3.358-7.5-7.5-7.5H80.79c-4.142,0-7.5,3.358-7.5,7.5
		S76.648,37.113,80.79,37.113z"/>
	<circle cx="147.044" cy="29.613" r="6.894"/>
	<path d="M194.402,336.291V79.025c0-4.667-3.796-8.463-8.463-8.463H48.788c-4.667,0-8.463,3.796-8.463,8.463v257.266
		c0,4.667,3.797,8.463,8.463,8.463h137.151C190.606,344.754,194.402,340.958,194.402,336.291z M179.402,329.754H55.325V85.563
		h124.078V329.754z"/>
	<path d="M67.614,287.861h99.5c4.142,0,7.5-3.358,7.5-7.5s-3.358-7.5-7.5-7.5h-99.5c-4.142,0-7.5,3.358-7.5,7.5
		S63.472,287.861,67.614,287.861z"/>
	<path d="M89.066,168.862v85c0,4.142,3.358,7.5,7.5,7.5h41.557c4.142,0,7.5-3.358,7.5-7.5v-17.588c0-4.142-3.358-7.5-7.5-7.5
		s-7.5,3.358-7.5,7.5v10.088h-26.557v-88.976l13.279-12.233l13.278,12.233v48.887c0,4.142,3.358,7.5,7.5,7.5s7.5-3.358,7.5-7.5
		v-37.416c7.067,0.481,10.785-8.229,5.584-13.002c-26.655-24.464-28.936-26.534-29.01-26.606c-2.938-2.501-7.187-2.334-9.928,0.184
		l-28.755,26.424C78.313,160.639,82.04,169.305,89.066,168.862z"/>
</g>
<g>
</g>
<g>
</g>
<g>
</g>
<g>
</g>
<g>
</g>
<g>
</g>
<g>
</g>
<g>
</g>
<g>
</g>
<g>
</g>
<g>
</g>
<g>
</g>
<g>
</g>
<g>
</g>
<g>
</g>
</svg>
