<?xml version="1.0" encoding="iso-8859-1"?>
<!-- Generator: Adobe Illustrator 19.0.0, SVG Export Plug-In . SVG Version: 6.00 Build 0)  -->
<svg version="1.1" id="Layer_1" xmlns="http://www.w3.org/2000/svg" xmlns:xlink="http://www.w3.org/1999/xlink" x="0px" y="0px"
	 viewBox="0 0 505.5 505.5" style="enable-background:new 0 0 505.5 505.5;" xml:space="preserve">
<g>
	<path d="M182.175,19.721H473.13c6.971,0,13.244,4.142,15.983,10.553c1.217,2.848,3.987,4.555,6.9,4.555
		c5.339,0,9.016-5.481,6.893-10.449c-5.103-11.942-16.79-19.659-29.776-19.659H182.175c-4.143,0-7.5,3.358-7.5,7.5
		S178.032,19.721,182.175,19.721z"/>
	<path d="M498,49.555c-4.143,0-7.5,3.358-7.5,7.5v11.309c0,9.578-7.792,17.37-17.37,17.37c-63.046,0.047-365.586,0.195-440.76,0
		c-9.578,0-17.37-7.792-17.37-17.37V37.092c0-9.578,7.792-17.37,17.37-17.37h119.805c4.143,0,7.5-3.358,7.5-7.5s-3.357-7.5-7.5-7.5
		H32.37C14.521,4.721,0,19.242,0,37.092v31.272c0,17.849,14.521,32.37,32.37,32.37h9.734c0.442,5.77,1.433,11.471,2.983,17.018
		c0.926,3.315,3.938,5.484,7.22,5.484c4.963,0,8.562-4.741,7.228-9.52c-1.124-4.023-1.9-8.145-2.323-12.32h46.935v61.244
		c-12.797-4.854-24.092-13.279-32.639-24.667c-2.487-3.313-7.188-3.983-10.501-1.497c-3.313,2.486-3.983,7.188-1.497,10.5
		c16.899,22.517,42.718,35.431,70.837,35.431h244.809c46.505,0,84.749-36.052,88.251-81.675h9.725
		c17.849,0,32.37-14.521,32.37-32.37V57.055C505.5,52.913,502.143,49.555,498,49.555z M160.587,167.409h-30.241
		c-3.792,0-7.532-0.288-11.2-0.841v-65.171h41.441V167.409z M217.029,167.409h-41.442v-66.012h41.442V167.409z M273.471,167.409
		h-41.441v-66.012h41.441V167.409z M329.913,167.409h-41.442v-66.012h41.442V167.409z M386.354,166.544
		c-9.273,1.424-13.342,0.639-41.441,0.865v-66.012h41.441V166.544z M401.354,162.571v-61.174h46.933
		C445.434,129.434,426.754,152.848,401.354,162.571z"/>
	<path d="M252.75,189.729c-4.143,0-7.5,3.358-7.5,7.5v20c0,4.142,3.357,7.5,7.5,7.5s7.5-3.358,7.5-7.5v-20
		C260.25,193.087,256.893,189.729,252.75,189.729z"/>
	<path d="M252.75,339.729c-4.143,0-7.5,3.358-7.5,7.5v20c0,4.142,3.357,7.5,7.5,7.5s7.5-3.358,7.5-7.5v-20
		C260.25,343.087,256.893,339.729,252.75,339.729z"/>
	<path d="M252.75,389.729c-4.143,0-7.5,3.358-7.5,7.5v20c0,4.142,3.357,7.5,7.5,7.5s7.5-3.358,7.5-7.5v-20
		C260.25,393.087,256.893,389.729,252.75,389.729z"/>
	<path d="M252.75,239.729c-4.143,0-7.5,3.358-7.5,7.5v20c0,4.142,3.357,7.5,7.5,7.5s7.5-3.358,7.5-7.5v-20
		C260.25,243.087,256.893,239.729,252.75,239.729z"/>
	<path d="M252.75,289.729c-4.143,0-7.5,3.358-7.5,7.5v20c0,4.142,3.357,7.5,7.5,7.5s7.5-3.358,7.5-7.5v-20
		C260.25,293.087,256.893,289.729,252.75,289.729z"/>
	<path d="M153.287,384.057c-4.021-0.998-8.088,1.452-9.087,5.472l-4.819,19.41c-0.998,4.02,1.452,8.088,5.472,9.086
		c4.021,0.999,8.089-1.452,9.087-5.472l4.819-19.41C159.757,389.123,157.307,385.055,153.287,384.057z"/>
	<path d="M194.861,224.142c3.365,0,6.426-2.282,7.273-5.695l4.819-19.411c0.998-4.02-1.452-8.088-5.472-9.086
		c-4.023-0.998-8.089,1.452-9.087,5.472l-4.819,19.411C186.402,219.56,189.984,224.142,194.861,224.142z"/>
	<path d="M180.347,243.948l-4.819,19.411c-1.174,4.728,2.408,9.309,7.285,9.309c3.365,0,6.426-2.282,7.273-5.695l4.819-19.411
		c0.998-4.02-1.452-8.088-5.472-9.086C185.412,237.479,181.346,239.928,180.347,243.948z"/>
	<path d="M182.856,296.09c0.998-4.02-1.452-8.088-5.472-9.086c-4.022-0.998-8.088,1.452-9.087,5.472l-4.819,19.411
		c-1.174,4.728,2.408,9.309,7.285,9.309c3.365,0,6.426-2.282,7.273-5.695L182.856,296.09z"/>
	<path d="M165.336,335.53c-4.023-0.998-8.089,1.452-9.087,5.472l-4.819,19.411c-1.174,4.728,2.408,9.309,7.285,9.309
		c3.365,0,6.426-2.282,7.273-5.695l4.819-19.411C171.806,340.596,169.355,336.528,165.336,335.53z"/>
	<path d="M39.794,359.294c-3.489-2.236-8.125-1.221-10.362,2.267l-10.793,16.837c-2.235,3.487-1.22,8.126,2.267,10.361
		c3.501,2.244,8.135,1.207,10.362-2.267l10.793-16.837C44.296,366.168,43.28,361.529,39.794,359.294z"/>
	<path d="M51.929,347.852c2.47,0,4.889-1.22,6.321-3.454l10.793-16.838c2.235-3.487,1.22-8.126-2.268-10.361
		c-3.486-2.236-8.125-1.22-10.361,2.267l-10.793,16.838C42.4,341.329,46.077,347.852,51.929,347.852z"/>
	<path d="M120.74,233.01c-3.485-2.236-8.125-1.221-10.361,2.267l-10.793,16.838c-2.235,3.487-1.22,8.126,2.268,10.361
		c3.493,2.241,8.13,1.213,10.361-2.267l10.793-16.838C125.243,239.884,124.228,235.245,120.74,233.01z"/>
	<path d="M93.758,275.104c-3.486-2.236-8.125-1.22-10.361,2.267l-10.793,16.838c-3.221,5.025,0.456,11.548,6.308,11.548
		c2.47,0,4.889-1.22,6.321-3.454l10.793-16.838C98.261,281.978,97.245,277.339,93.758,275.104z"/>
	<path d="M149.99,201.277c2.235-3.487,1.22-8.126-2.268-10.361c-3.486-2.236-8.125-1.22-10.361,2.267l-10.793,16.838
		c-3.221,5.025,0.456,11.548,6.308,11.548c2.47,0,4.889-1.22,6.321-3.454L149.99,201.277z"/>
	<path d="M342.021,311.886l-4.819-19.411c-0.998-4.021-5.064-6.469-9.087-5.472c-4.02,0.998-6.47,5.066-5.472,9.086l4.819,19.411
		c0.848,3.414,3.908,5.695,7.273,5.695C339.607,321.195,343.197,316.619,342.021,311.886z"/>
	<path d="M361.3,389.529c-0.998-4.021-5.065-6.469-9.087-5.472c-4.02,0.998-6.47,5.066-5.472,9.086l4.819,19.41
		c0.998,4.02,5.066,6.47,9.087,5.472c4.02-0.998,6.47-5.066,5.472-9.086L361.3,389.529z"/>
	<path d="M354.07,360.412l-4.819-19.411c-0.998-4.021-5.063-6.469-9.087-5.472c-4.02,0.998-6.47,5.066-5.472,9.086l4.819,19.411
		c0.848,3.414,3.908,5.695,7.273,5.695C351.656,369.721,355.245,365.145,354.07,360.412z"/>
	<path d="M310.595,247.563l4.819,19.411c0.998,4.02,5.066,6.47,9.087,5.472c4.02-0.998,6.47-5.066,5.472-9.086l-4.819-19.411
		c-0.998-4.021-5.065-6.469-9.087-5.472C312.047,239.475,309.597,243.543,310.595,247.563z"/>
	<path d="M313.104,195.422c-0.998-4.021-5.063-6.469-9.087-5.472c-4.02,0.998-6.47,5.066-5.472,9.086l4.819,19.411
		c0.848,3.414,3.908,5.695,7.273,5.695c4.871,0,8.46-4.576,7.285-9.309L313.104,195.422z"/>
	<path d="M430.629,304.57c3.487-2.235,4.503-6.874,2.268-10.361l-10.793-16.838c-2.237-3.488-6.876-4.501-10.361-2.267
		c-3.487,2.235-4.503,6.874-2.268,10.361l10.793,16.838C422.5,305.785,427.136,306.809,430.629,304.57z"/>
	<path d="M457.611,346.665c3.487-2.235,4.503-6.874,2.268-10.361l-10.793-16.838c-2.236-3.488-6.875-4.501-10.361-2.267
		c-3.487,2.235-4.503,6.874-2.268,10.361l10.793,16.838C449.482,347.879,454.118,348.904,457.611,346.665z"/>
	<path d="M395.121,235.277c-2.236-3.488-6.875-4.501-10.361-2.267c-3.487,2.235-4.503,6.874-2.268,10.361l10.793,16.838
		c2.232,3.481,6.868,4.506,10.361,2.267c3.487-2.235,4.503-6.874,2.268-10.361L395.121,235.277z"/>
	<path d="M476.068,361.56c-2.236-3.488-6.876-4.501-10.362-2.267c-3.486,2.235-4.502,6.874-2.267,10.361l10.793,16.837
		c2.225,3.47,6.856,4.512,10.362,2.267c3.486-2.235,4.502-6.874,2.267-10.361L476.068,361.56z"/>
	<path d="M368.139,193.182c-2.236-3.489-6.875-4.501-10.361-2.267c-3.487,2.235-4.503,6.874-2.268,10.361l10.793,16.838
		c1.433,2.234,3.852,3.454,6.321,3.454c5.851,0,9.529-6.523,6.308-11.548L368.139,193.182z"/>
	<path d="M198.438,440.741c-5.582-1.961-8.153-8.395-5.403-13.673l13.741-26.374c1.914-3.673,0.487-8.203-3.186-10.117
		c-3.673-1.913-8.203-0.488-10.117,3.186l-13.741,26.374c-6.956,13.351-0.456,29.772,13.733,34.756
		c5.466,1.922,8.085,8.174,5.521,13.439l-10.529,21.612c-2.449,5.027,1.271,10.786,6.736,10.786c2.779,0,5.449-1.551,6.748-4.217
		l10.529-21.612C218.934,461.64,212.402,445.649,198.438,440.741z"/>
	<path d="M75.462,398.979l-21.78,20.249c-11.028,10.252-10.398,27.898,1.3,37.348c4.496,3.63,4.892,10.401,0.702,14.513
		l-17.159,16.837c-4.787,4.697-1.424,12.853,5.253,12.853c5.273,0,5.985-3.784,22.412-18.984
		c10.512-10.315,9.754-27.57-1.782-36.888c-4.568-3.689-4.897-10.617-0.513-14.693l21.78-20.249c3.034-2.82,3.207-7.566,0.387-10.6
		C83.241,396.332,78.495,396.157,75.462,398.979z"/>
	<path d="M312.026,393.764c-1.913-3.675-6.444-5.099-10.117-3.186c-3.673,1.914-5.1,6.443-3.186,10.117l13.741,26.374
		c2.739,5.259,0.2,11.704-5.403,13.674c-13.918,4.891-20.517,20.855-14.033,34.16l10.529,21.612
		c1.822,3.74,6.321,5.264,10.027,3.458c3.724-1.814,5.271-6.303,3.457-10.027l-10.529-21.612
		c-2.537-5.209-0.004-11.497,5.521-13.439c14.204-4.99,20.682-21.419,13.733-34.756L312.026,393.764z"/>
	<path d="M449.816,471.088c-4.125-4.048-3.865-10.825,0.702-14.513c11.713-9.462,12.313-27.109,1.3-37.348l-21.78-20.249
		c-3.034-2.821-7.779-2.647-10.6,0.386c-2.82,3.034-2.647,7.779,0.387,10.6l21.78,20.249c4.303,4.001,4.142,10.934-0.513,14.693
		c-5.482,4.428-8.821,11.005-9.162,18.044c-0.34,7.039,2.35,13.907,7.38,18.843c16.457,15.229,17.146,18.984,22.412,18.984
		c6.681,0,10.035-8.16,5.253-12.853L449.816,471.088z"/>
</g>
<g>
</g>
<g>
</g>
<g>
</g>
<g>
</g>
<g>
</g>
<g>
</g>
<g>
</g>
<g>
</g>
<g>
</g>
<g>
</g>
<g>
</g>
<g>
</g>
<g>
</g>
<g>
</g>
<g>
</g>
</svg>
