<?xml version="1.0" encoding="iso-8859-1"?>
<!-- Generator: Adobe Illustrator 19.0.0, SVG Export Plug-In . SVG Version: 6.00 Build 0)  -->
<svg version="1.1" id="Layer_1" xmlns="http://www.w3.org/2000/svg" xmlns:xlink="http://www.w3.org/1999/xlink" x="0px" y="0px"
	 viewBox="0 0 506.02 506.02" style="enable-background:new 0 0 506.02 506.02;" xml:space="preserve">
<g>
	<path d="M505.76,28.41C505.76,12.74,493.01,0,477.35,0C449.549,0,362.62,0,334.56,0c-15.66,0-28.41,12.74-28.41,28.41v7.68H131.741
		V18.053c0-4.143-3.358-7.5-7.5-7.5c-4.142,0-7.5,3.357-7.5,7.5V36.09H85.122V18.053c0-4.143-3.358-7.5-7.5-7.5s-7.5,3.357-7.5,7.5
		V36.09H38.503V18.053c0-4.143-3.358-7.5-7.5-7.5s-7.5,3.357-7.5,7.5V36.09H9.35c-4.14,0-7.5,3.35-7.5,7.5c0,4.14,3.36,7.5,7.5,7.5
		h14.153v23.08H7.69c-4.14,0-7.5,3.36-7.5,7.5v416.85c0,4.14,3.36,7.5,7.5,7.5c61.163,0,429.397,0,490.64,0c4.14,0,7.5-3.36,7.5-7.5
		C505.829,489.956,505.764,54.508,505.76,28.41z M461.592,15l-6.957,30.12h-97.357L350.321,15H461.592z M131.741,51.09H306.15v23.08
		H131.741V51.09z M85.122,51.09h31.619v23.08H85.122V51.09z M38.503,51.09h31.619v23.08H38.503V51.09z M46.813,491.019H15.194
		V89.171h31.619V491.019z M93.432,491.019H61.813V89.171h31.619C93.432,108.974,93.432,473.951,93.432,491.019z M444.06,491.02
		h-31.62c0-13.078,0-104.501,0-117.62h31.62V491.02z M490.68,491.02h-31.62V373.4h18.29c4.81,0,9.35-1.21,13.33-3.33V491.02z
		 M490.76,344.98c0,7.373-5.998,13.42-13.41,13.42c-43.953,0-98.828,0-142.79,0c-7.39,0-13.41-6.02-13.41-13.42V143.49
		c0-4.14-3.36-7.5-7.5-7.5s-7.5,3.36-7.5,7.5v201.49c0,15.67,12.75,28.42,28.41,28.42h16.26v61.74c0,4.14,3.36,7.5,7.5,7.5
		s7.5-3.36,7.5-7.5V373.4h31.62c0,16.878,0,102.95,0,117.62h-31.62v-25.88c0-4.14-3.36-7.5-7.5-7.5s-7.5,3.36-7.5,7.5v25.88H155.051
		V295.052c0-4.143-3.358-7.5-7.5-7.5s-7.5,3.357-7.5,7.5v195.967c-0.303,0-0.409,0-0.415,0c-1.54,0-8.004,0-31.204,0.001
		c0-25.419,0-383.11,0-401.849h31.619v175.881c0,4.143,3.358,7.5,7.5,7.5s7.5-3.357,7.5-7.5V89.17H306.15v24.32
		c0,4.15,3.36,7.5,7.5,7.5s7.5-3.35,7.5-7.5c0-44.774,0-40.403,0-85.08c0-7.4,6.02-13.41,13.41-13.41h0.366l7.992,34.602
		c1.43,6.193,6.869,10.519,13.225,10.519h99.627c6.356,0,11.794-4.325,13.225-10.519L476.987,15h0.364
		c7.39,0,13.41,6.01,13.41,13.41C490.76,33.867,490.76,339.738,490.76,344.98z"/>
	<path d="M369.382,37.113h46.416c4.142,0,7.5-3.357,7.5-7.5s-3.358-7.5-7.5-7.5h-46.416c-4.142,0-7.5,3.357-7.5,7.5
		S365.24,37.113,369.382,37.113z"/>
	<circle cx="435.636" cy="29.613" r="6.894"/>
	<path d="M474.532,70.563H337.38c-4.667,0-8.463,3.797-8.463,8.463v257.266c0,4.666,3.797,8.463,8.463,8.463h137.151
		c4.667,0,8.463-3.797,8.463-8.463V79.026C482.995,74.36,479.198,70.563,474.532,70.563z M467.995,329.754H343.917V85.563h124.078
		V329.754z"/>
	<path d="M353.189,222.668h15.709c-0.481,7.069,8.231,10.783,13.004,5.585l24.206-26.375l24.241,26.379
		c4.735,5.152,13.451,1.529,13.004-5.552h15.705c4.142,0,7.5-3.357,7.5-7.5v-41.558c0-4.143-3.358-7.5-7.5-7.5h-15.709
		c0.479-7.058-8.222-10.792-13.004-5.584l-24.206,26.375l-24.241-26.379c-4.781-5.204-13.448-1.474-13.004,5.552h-15.705
		c-4.142,0-7.5,3.357-7.5,7.5v41.557C345.689,219.311,349.047,222.668,353.189,222.668z M431.877,181.148h19.681v26.558h-19.681
		l-12.233-13.278L431.877,181.148z M360.689,181.112h19.681l12.232,13.278l-12.232,13.278h-19.681V181.112z"/>
	<path d="M197.006,162.048c2.197,0,4.374-0.961,5.855-2.808l28.797-35.904c2.592-3.231,2.073-7.951-1.158-10.543
		c-3.231-2.592-7.951-2.072-10.543,1.158l-28.797,35.904C187.197,154.797,190.796,162.048,197.006,162.048z"/>
	<path d="M222.334,170.792c-3.128-2.716-7.866-2.381-10.58,0.748l-39.408,45.406c-2.715,3.128-2.38,7.865,0.748,10.58
		c3.12,2.709,7.86,2.387,10.58-0.748l39.408-45.406C225.797,178.245,225.462,173.507,222.334,170.792z"/>
	<path d="M273.646,180.108c-3.231-2.592-7.951-2.072-10.543,1.158l-28.797,35.904c-2.592,3.231-2.073,7.951,1.158,10.543
		c3.252,2.608,7.968,2.052,10.543-1.158l28.797-35.904C277.396,187.419,276.878,182.7,273.646,180.108z"/>
	<path d="M204.675,391.476l28.797-35.904c2.592-3.231,2.073-7.951-1.158-10.543s-7.951-2.072-10.543,1.158l-28.797,35.904
		c-3.963,4.941-0.365,12.192,5.846,12.192C201.016,394.284,203.193,393.323,204.675,391.476z"/>
	<path d="M273.646,338.406c-3.231-2.592-7.951-2.072-10.543,1.158l-14.398,17.952c-3.963,4.941-0.365,12.192,5.846,12.192
		c2.197,0,4.374-0.961,5.855-2.808l14.398-17.952C277.396,345.717,276.878,340.998,273.646,338.406z"/>
	<path d="M236.509,415.234c-3.23-2.593-7.951-2.073-10.543,1.158l-28.797,35.904c-2.592,3.231-2.073,7.951,1.158,10.543
		c3.252,2.608,7.968,2.052,10.543-1.158l28.797-35.904C240.259,422.545,239.74,417.826,236.509,415.234z"/>
</g>
<g>
</g>
<g>
</g>
<g>
</g>
<g>
</g>
<g>
</g>
<g>
</g>
<g>
</g>
<g>
</g>
<g>
</g>
<g>
</g>
<g>
</g>
<g>
</g>
<g>
</g>
<g>
</g>
<g>
</g>
</svg>
