<?xml version="1.0" encoding="iso-8859-1"?>
<!-- Generator: Adobe Illustrator 19.0.0, SVG Export Plug-In . SVG Version: 6.00 Build 0)  -->
<svg version="1.1" id="Layer_1" xmlns="http://www.w3.org/2000/svg" xmlns:xlink="http://www.w3.org/1999/xlink" x="0px" y="0px"
	 viewBox="0 0 509.046 509.046" style="enable-background:new 0 0 509.046 509.046;" xml:space="preserve">
<g>
	<path d="M391.122,167.398h23.934c10.295,0,18.67-8.376,18.67-18.671V69.926h8.462c7.946,0,14.41-6.465,14.41-14.41V14.41
		c0-7.945-6.464-14.41-14.41-14.41H66.859c-7.946,0-14.41,6.465-14.41,14.41v41.105c0,7.945,6.464,14.41,14.41,14.41h8.462v27.42
		c0,4.143,3.357,7.5,7.5,7.5s7.5-3.357,7.5-7.5v-27.42c13.764,0,311.732,0,328.404,0v78.802c0,2.024-1.646,3.671-3.67,3.671
		c-16.169,0-306.229,0-321.064,0c-2.023,0-3.67-1.646-3.67-3.671v-21.382c0-4.143-3.357-7.5-7.5-7.5s-7.5,3.357-7.5,7.5v21.382
		c0,10.295,8.375,18.671,18.67,18.671h23.934c0.963,139.616-3.953,168.168,10.454,168.168c4.798,0,8.352-4.432,7.335-9.1
		c-4.821-22.119-1.985-30.002-2.789-159.068c27.997,0,214.558,0,243.197,0v133.045c0,67.05-54.549,121.599-121.599,121.599
		c-46.443,0.001-89.477-27.055-109.632-68.928c-1.797-3.732-6.278-5.301-10.011-3.505c-3.732,1.797-5.302,6.278-3.505,10.011
		c22.338,46.407,69.553,77.424,123.147,77.422c75.32,0,136.599-61.278,136.599-136.599V167.398z M67.449,54.926V15h374.148v39.926
		C430.198,54.926,122.488,54.926,67.449,54.926z"/>
	<path d="M254.523,457.046c-4.143,0-7.5,3.357-7.5,7.5v37c0,4.143,3.357,7.5,7.5,7.5s7.5-3.357,7.5-7.5v-37
		C262.023,460.403,258.666,457.046,254.523,457.046z"/>
	<path d="M321.708,451.024c-1.416-3.892-5.718-5.9-9.613-4.482c-3.892,1.417-5.899,5.721-4.482,9.613l12.654,34.769
		c1.108,3.046,3.984,4.937,7.049,4.937c5.187,0,8.83-5.17,7.047-10.067L321.708,451.024z"/>
	<path d="M373.167,417.904c-2.662-3.173-7.394-3.588-10.566-0.924c-3.173,2.662-3.587,7.393-0.924,10.566l23.783,28.344
		c2.649,3.157,7.38,3.599,10.566,0.924c3.173-2.662,3.587-7.393,0.924-10.566L373.167,417.904z"/>
	<path d="M442.24,387.683l-32.043-18.5c-3.59-2.07-8.175-0.844-10.245,2.745c-2.071,3.587-0.842,8.174,2.745,10.245l32.043,18.5
		c3.583,2.067,8.172,0.847,10.245-2.745C447.056,394.341,445.827,389.754,442.24,387.683z"/>
	<path d="M464.767,317.159l-36.438-6.425c-4.081-0.722-7.969,2.005-8.688,6.083c-0.72,4.08,2.004,7.97,6.083,8.688l36.438,6.425
		c4.063,0.719,7.967-1.992,8.688-6.083C471.57,321.768,468.846,317.878,464.767,317.159z"/>
	<path d="M419.293,258.297c0.723,4.099,4.634,6.802,8.688,6.083l36.438-6.425c4.079-0.719,6.803-4.608,6.083-8.688
		c-0.72-4.079-4.615-6.806-8.688-6.083l-36.438,6.425C421.297,250.327,418.574,254.217,419.293,258.297z"/>
	<path d="M196.952,446.542c-3.895-1.414-8.197,0.591-9.613,4.482l-12.654,34.769c-1.781,4.894,1.856,10.067,7.047,10.067
		c3.064,0,5.94-1.892,7.049-4.937l12.654-34.769C202.851,452.263,200.843,447.959,196.952,446.542z"/>
	<path d="M146.445,416.98c-3.174-2.664-7.904-2.249-10.566,0.924l-23.783,28.344c-2.663,3.174-2.249,7.904,0.924,10.566
		c3.192,2.68,7.922,2.228,10.566-0.924l23.783-28.344C150.032,424.373,149.618,419.643,146.445,416.98z"/>
	<path d="M98.849,369.183l-32.043,18.5c-6.628,3.827-3.893,13.996,3.757,13.996c1.272,0,2.563-0.324,3.743-1.006l32.043-18.5
		c3.587-2.071,4.816-6.658,2.745-10.245C107.024,368.34,102.435,367.113,98.849,369.183z"/>
	<path d="M89.405,316.817c-0.719-4.079-4.612-6.805-8.688-6.083l-36.438,6.425c-4.079,0.719-6.803,4.608-6.083,8.688
		c0.723,4.099,4.634,6.802,8.688,6.083l36.438-6.425C87.401,324.787,90.125,320.897,89.405,316.817z"/>
	<path d="M44.626,257.955c38.55,6.756,36.503,6.54,37.749,6.54c3.571,0,6.735-2.561,7.377-6.198c0.72-4.08-2.004-7.97-6.083-8.688
		l-36.438-6.425c-4.082-0.722-7.969,2.005-8.688,6.083C37.824,253.347,40.547,257.236,44.626,257.955z"/>
	<path d="M277.606,240.054c-0.399,4.123,2.62,7.789,6.742,8.188c4.14,0.409,7.789-2.62,8.188-6.742
		c2.709-28.494,2.792-27.726,2.792-30.369c0-17.145-13.966-31.093-31.132-31.093H244.85c-18.27,0-32.788,15.753-30.979,34.185
		l9.766,99.036c1.578,16.005,14.896,28.074,30.979,28.074c16.112,0,29.433-12.094,30.984-28.132l4.048-41.84
		c0.399-4.123-2.62-7.789-6.742-8.188c-4.129-0.406-7.789,2.619-8.188,6.742l-4.048,41.84c-0.805,8.311-7.706,14.577-16.055,14.577
		c-8.333,0-15.233-6.254-16.051-14.547c-10.335-105.091-9.846-99.129-9.846-100.655c0-8.874,7.236-16.093,16.132-16.093h19.346
		c9.373,0,16.977,8.038,16.055,17.683L277.606,240.054z"/>
	<path d="M254.523,350.146c-16.329,0-29.614,13.285-29.614,29.614s13.285,29.614,29.614,29.614s29.614-13.285,29.614-29.614
		S270.852,350.146,254.523,350.146z M254.523,394.375c-8.059,0-14.614-6.556-14.614-14.614s6.556-14.614,14.614-14.614
		s14.614,6.556,14.614,14.614S262.582,394.375,254.523,394.375z"/>
</g>
<g>
</g>
<g>
</g>
<g>
</g>
<g>
</g>
<g>
</g>
<g>
</g>
<g>
</g>
<g>
</g>
<g>
</g>
<g>
</g>
<g>
</g>
<g>
</g>
<g>
</g>
<g>
</g>
<g>
</g>
</svg>
