<?xml version="1.0" encoding="iso-8859-1"?>
<!-- Generator: Adobe Illustrator 19.0.0, SVG Export Plug-In . SVG Version: 6.00 Build 0)  -->
<svg version="1.1" id="Layer_1" xmlns="http://www.w3.org/2000/svg" xmlns:xlink="http://www.w3.org/1999/xlink" x="0px" y="0px"
	 viewBox="0 0 509.19 509.19" style="enable-background:new 0 0 509.19 509.19;" xml:space="preserve">
<g>
	<path d="M216.522,301.95c4.08,0.72,7.98-1.99,8.7-6.07c10.407-58.511-34.549-111.94-93.73-111.94
		c-85.27,0-126.669,103.171-67.32,162.52c44.109,44.14,118.636,34.729,150.02-20.1c2.05-3.6,0.8-8.18-2.79-10.23
		c-3.6-2.06-8.18-0.81-10.23,2.79c-26.324,45.938-89.028,54.312-126.4,16.94c-49.994-49.994-15.105-136.92,56.72-136.92
		c50.14,0,87.697,45.371,78.96,94.32C209.732,297.34,212.452,301.23,216.522,301.95z"/>
	<path d="M119.722,250.48c0,16.97,13.81,30.78,30.78,30.78c16.97,0,30.78-13.81,30.78-30.78s-13.81-30.78-30.78-30.78
		C133.532,219.7,119.722,233.51,119.722,250.48z M166.282,250.48c0,8.7-7.08,15.78-15.78,15.78s-15.78-7.08-15.78-15.78
		s7.08-15.78,15.78-15.78S166.282,241.78,166.282,250.48z"/>
	<path d="M475.422,0h-213.24c-18.42,0-33.42,14.99-33.42,33.42v157.85c-48.147-53.239-128.857-57.472-182.25-12.02
		c-3.15,2.69-3.53,7.42-0.85,10.57c2.69,3.16,7.42,3.54,10.57,0.85c52.7-44.855,133.746-34.246,172.53,25.08
		c55.341,84.585-17.433,195.123-116.91,177.87c-84.535-14.445-124.567-113.038-74.67-182.28c2.42-3.36,1.65-8.04-1.71-10.47
		c-3.36-2.42-8.04-1.65-10.47,1.71c-56.87,78.976-10.196,191.608,86.85,206.25v56.53h-4.26c-12.08,0-21.91,9.83-21.91,21.91
		c0,12.09,9.83,21.92,21.91,21.92h47.79c12.09,0,21.92-9.83,21.92-21.92c0-12.08-9.83-21.91-21.92-21.91h-4.25v-56.53
		c49.016-7.396,89.221-42.02,104.679-87.924v140.516c0,11.236,9.141,20.378,20.377,20.378h185.245
		c11.236,0,20.377-9.142,20.377-20.378V89.178c0-11.236-9.141-20.378-20.377-20.378h-26.207c-4.142,0-7.5,3.357-7.5,7.5
		s3.358,7.5,7.5,7.5h26.207c2.965,0,5.377,2.412,5.377,5.378v372.244c0,2.966-2.412,5.378-5.377,5.378H276.188
		c-2.965,0-5.377-2.412-5.377-5.378V89.178c0-2.966,2.412-5.378,5.377-5.378h132.038c4.142,0,7.5-3.357,7.5-7.5s-3.358-7.5-7.5-7.5
		H276.188c-11.236,0-20.377,9.142-20.377,20.378v148.246c-3.08-9.154-7.128-17.866-12.049-25.994V33.42
		c0-10.16,8.27-18.42,18.42-18.42h28.452l6.357,32.536c1.248,6.353,6.85,10.964,13.319,10.964h117.89
		c6.626,0,12.25-4.74,13.371-11.266L447.129,15h28.293c10.17,0,18.43,8.26,18.43,18.42v441.76c0,10.16-8.26,18.42-18.43,18.42
		h-213.24c-10.15,0-18.42-8.26-18.42-18.42V371.65c0-4.14-3.35-7.5-7.5-7.5c-4.14,0-7.5,3.36-7.5,7.5v103.53
		c0,18.43,15,33.42,33.42,33.42h213.24c18.44,0,33.43-14.99,33.43-33.42V33.42C508.852,14.99,493.862,0,475.422,0z M126.852,410.21
		c3.248,0.105,5.97,0.107,9.28,0v55.15h-9.28V410.21z M155.382,480.36c3.81,0,6.92,3.1,6.92,6.91c0,3.82-3.11,6.92-6.92,6.92
		c-5.508,0-39.661,0-47.79,0c-3.81,0-6.91-3.1-6.91-6.92c0-3.81,3.1-6.91,6.91-6.91C124.902,480.36,140.036,480.36,155.382,480.36z
		 M426.994,43.5H311.486L305.918,15c19.205,0,112.502,0,125.989,0L426.994,43.5z"/>
	<circle cx="408.474" cy="29.55" r="7.5"/>
	<path d="M326.773,36.409h49.784c4.142,0,7.5-3.357,7.5-7.5s-3.358-7.5-7.5-7.5h-49.784c-4.142,0-7.5,3.357-7.5,7.5
		S322.631,36.409,326.773,36.409z"/>
	<path d="M315.434,134.289h-23.656c-4.142,0-7.5,3.357-7.5,7.5v23.046c0,4.143,3.358,7.5,7.5,7.5s7.5-3.357,7.5-7.5v-15.546h16.156
		c4.142,0,7.5-3.357,7.5-7.5S319.576,134.289,315.434,134.289z"/>
	<path d="M453.343,141.789c0-4.143-3.358-7.5-7.5-7.5h-23.656c-4.142,0-7.5,3.357-7.5,7.5s3.358,7.5,7.5,7.5h16.156v15.546
		c0,4.143,3.358,7.5,7.5,7.5s7.5-3.357,7.5-7.5V141.789z"/>
	<path d="M445.843,378.265c-4.142,0-7.5,3.357-7.5,7.5v15.546h-16.156c-4.142,0-7.5,3.357-7.5,7.5s3.358,7.5,7.5,7.5h23.656
		c4.142,0,7.5-3.357,7.5-7.5v-23.046C453.343,381.622,449.986,378.265,445.843,378.265z"/>
	<path d="M291.778,378.265c-4.142,0-7.5,3.357-7.5,7.5v23.046c0,4.143,3.358,7.5,7.5,7.5h23.656c4.142,0,7.5-3.357,7.5-7.5
		s-3.358-7.5-7.5-7.5h-16.156v-15.546C299.278,381.622,295.92,378.265,291.778,378.265z"/>
</g>
<g>
</g>
<g>
</g>
<g>
</g>
<g>
</g>
<g>
</g>
<g>
</g>
<g>
</g>
<g>
</g>
<g>
</g>
<g>
</g>
<g>
</g>
<g>
</g>
<g>
</g>
<g>
</g>
<g>
</g>
</svg>
