<?xml version="1.0" encoding="iso-8859-1"?>
<!-- Generator: Adobe Illustrator 19.0.0, SVG Export Plug-In . SVG Version: 6.00 Build 0)  -->
<svg version="1.1" id="Layer_1" xmlns="http://www.w3.org/2000/svg" xmlns:xlink="http://www.w3.org/1999/xlink" x="0px" y="0px"
	 viewBox="0 0 499.555 499.555" style="enable-background:new 0 0 499.555 499.555;" xml:space="preserve">
<g>
	<path d="M435.229,0H142.43c-4.142,0-7.5,3.357-7.5,7.5s3.358,7.5,7.5,7.5h292.798c26.473,0,48.009,21.537,48.009,48.009v373.537
		c0,26.472-21.537,48.009-48.009,48.009H64.326c-26.473,0-48.009-21.537-48.009-48.009V63.009C16.317,36.537,37.854,15,64.326,15
		h51.104c4.142,0,7.5-3.357,7.5-7.5s-3.358-7.5-7.5-7.5H64.326C29.583,0,1.317,28.266,1.317,63.009v373.537
		c0,34.743,28.266,63.009,63.009,63.009h370.902c34.744,0,63.009-28.266,63.009-63.009V63.009C498.238,28.266,469.972,0,435.229,0z"
		/>
	<path d="M340.638,30H64.326c-18.201,0-33.009,14.808-33.009,33.009v373.537c0,18.201,14.808,33.009,33.009,33.009h135.181
		c4.142,0,7.5-3.357,7.5-7.5s-3.358-7.5-7.5-7.5H64.326c-9.93,0-18.009-8.079-18.009-18.009V63.009
		c0-9.93,8.079-18.009,18.009-18.009h276.312c4.142,0,7.5-3.357,7.5-7.5S344.78,30,340.638,30z"/>
	<path d="M226.507,469.555h208.721c18.201,0,33.009-14.808,33.009-33.009V63.009C468.238,44.808,453.43,30,435.229,30h-67.591
		c-4.142,0-7.5,3.357-7.5,7.5s3.358,7.5,7.5,7.5h67.591c9.93,0,18.009,8.079,18.009,18.009v373.537
		c0,9.93-8.079,18.009-18.009,18.009H226.507c-4.142,0-7.5,3.357-7.5,7.5S222.365,469.555,226.507,469.555z"/>
	<path d="M121.051,186.582v70.699c0,35.578,20.754,48.805,47.437,48.805c26.683,0,47.437-13.227,47.437-48.805v-70.699
		c0-35.35-20.754-48.577-47.437-48.577C141.805,138.005,121.051,151.232,121.051,186.582z M200.872,186.582v70.699
		c0,23.947-12.087,34.894-32.385,34.894c-20.297,0-32.385-10.947-32.385-34.894v-70.699c0-23.718,12.088-34.665,32.385-34.665
		C188.785,151.917,200.872,162.864,200.872,186.582z"/>
	<path d="M283.63,186.582v70.699c0,35.578,21.438,48.805,47.208,48.805c30.104,0,47.665-17.788,47.665-38.542
		c0-7.526-2.281-9.351-7.526-9.351c-4.789,0-7.07,2.28-7.526,5.929c-1.368,10.947-3.877,28.052-31.016,28.052
		c-22.122,0-33.753-10.947-33.753-34.894v-70.699c0-23.718,11.631-34.665,32.841-34.665c27.139,0,31.472,17.788,31.929,27.595
		c0.228,3.193,2.281,5.702,7.526,5.702c5.246,0,7.526-1.596,7.526-9.123c0-20.525-17.104-38.086-46.981-38.086
		C305.524,138.005,283.63,151.232,283.63,186.582z"/>
	<path d="M232.932,124.334c16.559,0,30.031-13.473,30.031-30.032s-13.472-30.031-30.031-30.031
		c-16.56,0-30.032,13.472-30.032,30.031S216.372,124.334,232.932,124.334z M232.932,79.271c8.288,0,15.031,6.743,15.031,15.031
		c0,8.289-6.743,15.032-15.031,15.032c-8.289,0-15.032-6.743-15.032-15.032C217.9,86.014,224.643,79.271,232.932,79.271z"/>
	<path d="M131.202,435.284h74.572c10.449,0,16.953-11.351,11.753-20.357l-37.285-64.579c-5.221-9.047-18.278-9.059-23.508-0.002
		l-37.284,64.578C114.239,423.938,120.76,435.284,131.202,435.284z M168.487,359.988l34.812,60.296h-69.624L168.487,359.988z"/>
	<path d="M342.821,428.498c38.313-67.583,39.113-64.979,39.113-71.357c0-7.488-6.092-13.581-13.581-13.581h-74.572
		c-7.488,0-13.581,6.093-13.581,13.581c0,6.375,0.743,3.673,39.112,71.355C324.534,437.544,337.591,437.555,342.821,428.498z
		 M296.255,358.56h69.624l-34.812,60.296L296.255,358.56z"/>
</g>
<g>
</g>
<g>
</g>
<g>
</g>
<g>
</g>
<g>
</g>
<g>
</g>
<g>
</g>
<g>
</g>
<g>
</g>
<g>
</g>
<g>
</g>
<g>
</g>
<g>
</g>
<g>
</g>
<g>
</g>
</svg>
