<?xml version="1.0" encoding="iso-8859-1"?>
<!-- Generator: Adobe Illustrator 19.0.0, SVG Export Plug-In . SVG Version: 6.00 Build 0)  -->
<svg version="1.1" id="Layer_1" xmlns="http://www.w3.org/2000/svg" xmlns:xlink="http://www.w3.org/1999/xlink" x="0px" y="0px"
	 viewBox="0 0 499.555 499.555" style="enable-background:new 0 0 499.555 499.555;" xml:space="preserve">
<g>
	<path d="M435.228,0H64.326C29.582,0,1.317,28.266,1.317,63.009v373.537c0,34.743,28.266,63.009,63.009,63.009h370.902
		c34.744,0,63.01-28.266,63.01-63.009V63.009C498.238,28.266,469.972,0,435.228,0z M483.238,436.546
		c0,26.472-21.537,48.009-48.01,48.009H64.326c-26.473,0-48.009-21.537-48.009-48.009V63.009C16.317,36.537,37.853,15,64.326,15
		h370.902c26.473,0,48.01,21.537,48.01,48.009V436.546z"/>
	<path d="M435.228,30H64.326c-18.201,0-33.009,14.808-33.009,33.009v373.537c0,18.201,14.808,33.009,33.009,33.009
		c46.766,0,317.244,0,370.902,0c18.201,0,33.01-14.808,33.01-33.009V63.009C468.238,44.808,453.429,30,435.228,30z M97.59,454.555
		H64.326c-9.93,0-18.009-8.079-18.009-18.009V313.585H97.59V454.555z M144.407,454.555H112.59v-140.97h31.817V454.555z
		 M191.224,454.555h-31.817v-140.97h31.817V454.555z M242.277,454.555h-36.053v-140.97h36.053V454.555z M293.33,454.555h-36.053
		v-140.97h36.053V454.555z M293.33,298.585h-36.053v-16.53c0-4.143-3.357-7.5-7.5-7.5c-4.142,0-7.5,3.357-7.5,7.5v16.53h-36.053
		v-71.121c0-24.015,19.538-43.552,43.553-43.552c24.015,0,43.553,19.537,43.553,43.552V298.585z M386.965,454.555h-31.817v-55.2
		c0-4.143-3.357-7.5-7.5-7.5s-7.5,3.357-7.5,7.5v55.2H308.33v-140.97h31.817v58.77c0,4.143,3.357,7.5,7.5,7.5s7.5-3.357,7.5-7.5
		v-58.77h31.817V454.555z M453.238,436.546c0,9.93-8.079,18.009-18.01,18.009h-33.264v-140.97h51.273V436.546z M453.238,298.585
		h-51.273c-0.003-66.051,0.006-71.602-0.011-72.905c-0.052-4.308-3.701-7.534-7.59-7.408c-4.142,0.05-7.459,3.448-7.408,7.59
		c0.014,1.27,0.006,8.62,0.009,72.724h-31.817v-71.121c0-71.542-70.342-122.694-138.546-100.019
		c-3.931,1.307-6.058,5.553-4.751,9.483c1.307,3.931,5.554,6.056,9.483,4.751c58.438-19.43,118.814,24.386,118.814,85.784v71.121
		H308.33v-71.121c0-32.285-26.267-58.552-58.553-58.552s-58.553,26.267-58.553,58.552v71.121h-31.817v-71.121
		c0-29.917,14.829-57.868,39.668-74.77c3.424-2.33,4.312-6.995,1.981-10.419c-2.33-3.426-6.994-4.311-10.42-1.982
		c-28.947,19.697-46.229,52.284-46.229,87.171v71.121H112.59v-71.121c0-75.645,61.542-137.187,137.187-137.187
		c65.199,0,121.776,46.328,134.527,110.157c0.812,4.063,4.765,6.702,8.823,5.886c4.063-0.812,6.697-4.762,5.886-8.823
		c-14.146-70.819-76.909-122.22-149.236-122.22c-83.916,0-152.187,68.271-152.187,152.187v71.121H46.317V63.009
		c0-9.93,8.079-18.009,18.009-18.009h370.902c9.931,0,18.01,8.079,18.01,18.009V298.585z"/>
	<path d="M249.777,227.226c-4.142,0-7.5,3.357-7.5,7.5v20.329c0,4.143,3.358,7.5,7.5,7.5c4.143,0,7.5-3.357,7.5-7.5v-20.329
		C257.277,230.583,253.92,227.226,249.777,227.226z"/>
</g>
<g>
</g>
<g>
</g>
<g>
</g>
<g>
</g>
<g>
</g>
<g>
</g>
<g>
</g>
<g>
</g>
<g>
</g>
<g>
</g>
<g>
</g>
<g>
</g>
<g>
</g>
<g>
</g>
<g>
</g>
</svg>
