<?xml version="1.0" encoding="iso-8859-1"?>
<!-- Generator: Adobe Illustrator 19.0.0, SVG Export Plug-In . SVG Version: 6.00 Build 0)  -->
<svg version="1.1" id="Layer_1" xmlns="http://www.w3.org/2000/svg" xmlns:xlink="http://www.w3.org/1999/xlink" x="0px" y="0px"
	 viewBox="0 0 506.54 506.54" style="enable-background:new 0 0 506.54 506.54;" xml:space="preserve">
<g>
	<path d="M415.77,0h-325C76.29,0,64.51,11.78,64.51,26.26v417.91c0,14.48,11.78,26.26,26.26,26.26h21.05v28.61
		c0,4.14,3.36,7.5,7.5,7.5h63.9c4.14,0,7.5-3.36,7.5-7.5v-28.61h125.1v28.61c0,4.14,3.36,7.5,7.5,7.5h63.9c4.14,0,7.5-3.36,7.5-7.5
		v-28.61h21.05c14.48,0,26.26-11.78,26.26-26.26V26.26C442.03,11.78,430.25,0,415.77,0z M175.72,491.54h-48.9v-21.11h48.9V491.54z
		 M379.72,491.54h-48.9v-21.11h48.9V491.54z M427.03,444.17c0,6.21-5.05,11.26-11.26,11.26c-58.625,0-258.169,0-325,0
		c-6.21,0-11.26-5.05-11.26-11.26V90.26h347.52V444.17z M427.03,75.26H79.51v-49c0-6.21,5.05-11.26,11.26-11.26h325
		c6.21,0,11.26,5.05,11.26,11.26V75.26z"/>
	<path d="M279.681,389.734c4.068-0.78,6.733-4.71,5.954-8.778c-0.78-4.068-4.721-6.728-8.778-5.954
		c-77.183,14.796-148.06-44.616-148.06-122.241c0-68.635,55.838-124.473,124.473-124.473s124.473,55.838,124.473,124.473
		c0,50.396-30.053,95.506-76.563,114.921c-3.822,1.596-5.627,5.987-4.031,9.811c1.596,3.822,5.987,5.629,9.811,4.031
		c52.111-21.753,85.783-72.296,85.783-128.763c0-76.905-62.567-139.473-139.473-139.473S113.797,175.855,113.797,252.76
		C113.797,339.755,193.234,406.303,279.681,389.734z"/>
	<path d="M299.358,178.892c3.511,2.196,8.138,1.135,10.338-2.375c2.198-3.511,1.135-8.139-2.375-10.338
		c-67.057-41.996-156.142,5.955-156.142,86.581c0,56.293,45.798,102.091,102.091,102.091c87.847,0,134.424-104.628,76.223-169.942
		c-2.754-3.092-7.495-3.366-10.589-0.61c-3.093,2.756-3.366,7.496-0.61,10.589c12.13,13.613,19.594,30.559,21.539,48.486
		c-8.967,3.918-19.683,12.921-38.321,12.921c-26.901,0-31.603-17.188-63.208-17.188c-21.236,0-31.229,8.242-71.607,23.125
		C158.833,189.867,238.201,140.586,299.358,178.892z M238.303,254.107c27.11,0,31.469,17.188,63.208,17.188
		c21.427,0,34.939-9.677,38.532-11.138c-3.767,44.573-41.242,79.695-86.773,79.695c-39.544,0-73.012-26.493-83.598-62.661
		C214.908,260.257,221.269,254.107,238.303,254.107z"/>
	<path d="M229.616,24.01h-11.691c-4.143,0-7.5,3.357-7.5,7.5s3.357,7.5,7.5,7.5h11.691c3.584,0,6.5,2.916,6.5,6.5
		s-2.916,6.5-6.5,6.5H112.27c-3.584,0-6.5-2.916-6.5-6.5s2.916-6.5,6.5-6.5h78.654c4.143,0,7.5-3.357,7.5-7.5s-3.357-7.5-7.5-7.5
		H112.27c-11.855,0-21.5,9.645-21.5,21.5s9.645,21.5,21.5,21.5h117.346c11.855,0,21.5-9.645,21.5-21.5S241.471,24.01,229.616,24.01z
		"/>
	<path d="M283.95,22.344c-12.774,0-23.167,10.393-23.167,23.166c0,12.774,10.393,23.167,23.167,23.167
		c12.773,0,23.166-10.393,23.166-23.167C307.116,32.737,296.723,22.344,283.95,22.344z M283.95,53.677
		c-4.503,0-8.167-3.664-8.167-8.167s3.664-8.166,8.167-8.166s8.166,3.663,8.166,8.166S288.453,53.677,283.95,53.677z"/>
	<path d="M339.747,22.344c-12.774,0-23.167,10.393-23.167,23.166c0,12.774,10.393,23.167,23.167,23.167s23.167-10.393,23.167-23.167
		C362.914,32.737,352.521,22.344,339.747,22.344z M339.747,53.677c-4.503,0-8.167-3.664-8.167-8.167s3.664-8.166,8.167-8.166
		s8.167,3.663,8.167,8.166S344.25,53.677,339.747,53.677z"/>
	<path d="M395.543,22.344c-12.773,0-23.166,10.393-23.166,23.166c0,12.774,10.393,23.167,23.166,23.167
		c12.774,0,23.167-10.393,23.167-23.167C418.71,32.737,408.318,22.344,395.543,22.344z M395.543,53.677
		c-4.503,0-8.166-3.664-8.166-8.167s3.663-8.166,8.166-8.166s8.167,3.663,8.167,8.166S400.046,53.677,395.543,53.677z"/>
	<path d="M332.247,411.26v20c0,8.822,7.178,16,16,16h47.523c8.822,0,16-7.178,16-16v-20c0-8.822-7.178-16-16-16h-47.523
		C339.424,395.26,332.247,402.438,332.247,411.26z M396.77,411.26v20c0,0.552-0.448,1-1,1h-47.523c-0.552,0-1-0.448-1-1v-20
		c0-0.552,0.448-1,1-1h47.523C396.322,410.26,396.77,410.708,396.77,411.26z"/>
</g>
<g>
</g>
<g>
</g>
<g>
</g>
<g>
</g>
<g>
</g>
<g>
</g>
<g>
</g>
<g>
</g>
<g>
</g>
<g>
</g>
<g>
</g>
<g>
</g>
<g>
</g>
<g>
</g>
<g>
</g>
</svg>
