<?xml version="1.0" encoding="iso-8859-1"?>
<!-- Generator: Adobe Illustrator 19.0.0, SVG Export Plug-In . SVG Version: 6.00 Build 0)  -->
<svg version="1.1" id="Layer_1" xmlns="http://www.w3.org/2000/svg" xmlns:xlink="http://www.w3.org/1999/xlink" x="0px" y="0px"
	 viewBox="0 0 508.6 508.6" style="enable-background:new 0 0 508.6 508.6;" xml:space="preserve">
<g>
	<path d="M213.959,68.8H81.921c-11.236,0-20.378,9.142-20.378,20.378v372.244c0,11.236,9.142,20.378,20.378,20.378h185.245
		c11.236,0,20.377-9.142,20.377-20.378V89.178c0-11.236-9.141-20.378-20.377-20.378h-26.207c-4.142,0-7.5,3.357-7.5,7.5
		s3.358,7.5,7.5,7.5h26.207c2.965,0,5.377,2.412,5.377,5.378v372.244c0,2.966-2.412,5.378-5.377,5.378H81.921
		c-2.965,0-5.378-2.412-5.378-5.378V89.178c0-2.966,2.413-5.378,5.378-5.378h132.038c4.142,0,7.5-3.357,7.5-7.5
		S218.101,68.8,213.959,68.8z"/>
	<circle cx="214.206" cy="29.55" r="7.5"/>
	<path d="M132.505,36.409h49.785c4.142,0,7.5-3.357,7.5-7.5s-3.358-7.5-7.5-7.5h-49.785c-4.142,0-7.5,3.357-7.5,7.5
		S128.363,36.409,132.505,36.409z"/>
	<path d="M194.647,129.807H154.44c-12.038,0-21.832,9.794-21.832,21.832v12.912c-12.411,1.71-22.002,12.38-22.002,25.253v205.49
		c0,14.061,11.439,25.499,25.499,25.499h76.876c14.06,0,25.499-11.438,25.499-25.499v-205.49c0-12.874-9.592-23.543-22.002-25.253
		v-12.912C216.478,139.601,206.685,129.807,194.647,129.807z M147.609,151.639c0-3.768,3.064-6.832,6.832-6.832h40.207
		c3.767,0,6.832,3.064,6.832,6.832v12.666h-53.87V151.639z M223.481,189.804v205.49c0,5.789-4.71,10.499-10.499,10.499h-76.876
		c-5.789,0-10.499-4.71-10.499-10.499v-205.49c0-5.789,4.71-10.499,10.499-10.499c16.874,0,60.021,0,76.876,0
		C218.771,179.305,223.481,184.015,223.481,189.804z"/>
	<path d="M466.63,121.86V88.75c0-5.76-4.68-10.45-10.44-10.45h-56.21c-5.76,0-10.45,4.69-10.45,10.45v33.11
		c-4.33,1.39-7.46,5.46-7.46,10.25v89.43c0,5.95,4.83,10.79,10.78,10.79h12.81v194.34h-91.07V33.42c0-18.43-15-33.42-33.43-33.42
		H67.92C49.49,0,34.5,14.99,34.5,33.42v308.23c0,4.15,3.36,7.5,7.5,7.5s7.5-3.35,7.5-7.5V33.42C49.5,23.26,57.76,15,67.92,15h28.447
		l6.357,32.536c1.248,6.353,6.85,10.964,13.319,10.964h117.89c6.626,0,12.25-4.74,13.371-11.266L252.861,15h28.299
		c10.16,0,18.43,8.26,18.43,18.42c0,17.463,0,421.036,0,441.76c0,10.16-8.27,18.42-18.43,18.42H67.92
		c-10.16,0-18.42-8.26-18.42-18.42V371.65c0-4.14-3.36-7.5-7.5-7.5s-7.5,3.36-7.5,7.5v103.53c0,18.43,14.99,33.42,33.42,33.42
		h213.24c18.43,0,33.43-14.99,33.43-33.42v-3.87c113.526-0.386,109.442,0.947,112.78-1.05c6.84,1.657,22.94-8.343,22.94-25.72
		V232.33h13.01c5.94,0,10.78-4.84,10.78-10.79v-89.43C474.1,127.32,470.96,123.25,466.63,121.86z M232.727,43.5H117.219L111.651,15
		c19.205,0,112.502,0,125.989,0L232.727,43.5z M404.53,93.3h47.1v28.03h-47.1V93.3z M435.31,444.54c0,5.13-3.43,9.76-8.34,11.26
		c-0.59,0.18-1.14,0.43-1.64,0.73c-1.734-0.419,5.105-0.136-110.74-0.22v-14.64h98.57c4.14,0,7.5-3.36,7.5-7.5V232.33h14.65V444.54z
		 M459.1,217.33c-22.358,0-39.395,0-62.03,0c0-15.786,0-65.858,0-81c7.645,0,52.805,0,62.03,0
		C459.1,151.427,459.1,201.462,459.1,217.33z"/>
	<path d="M185.722,274.184c18.948-48.038,19.293-46.273,19.293-50.624c0-7.175-5.841-13.012-13.02-13.012h-19.556
		c-5.169,0-9.849,3.061-11.942,7.842c-34.134,80.288-33.318,75.482-33.318,80.169c0,7.175,5.841,13.013,13.021,13.013h24.819
		l-9.993,42.529c-0.243,1.032-0.367,2.08-0.367,3.115c0,7.117,5.896,12.908,13.143,12.908c4.578,0,8.729-2.404,11.104-6.432
		c42.66-73.591,43.002-70.233,43.002-76.485c0-7.182-5.842-13.023-13.023-13.023H185.722z M172.614,344.826l7.582-32.267
		c0.23-0.981,0.347-1.986,0.347-2.986c0-7.169-5.839-13.002-13.017-13.002h-24.311l30.532-71.023h15.313l-18.3,45.648
		c-3.559,8.603,2.812,17.987,12.026,17.987h22.625L172.614,344.826z"/>
</g>
<g>
</g>
<g>
</g>
<g>
</g>
<g>
</g>
<g>
</g>
<g>
</g>
<g>
</g>
<g>
</g>
<g>
</g>
<g>
</g>
<g>
</g>
<g>
</g>
<g>
</g>
<g>
</g>
<g>
</g>
</svg>
