<?xml version="1.0" encoding="iso-8859-1"?>
<!-- Generator: Adobe Illustrator 19.0.0, SVG Export Plug-In . SVG Version: 6.00 Build 0)  -->
<svg version="1.1" id="Layer_1" xmlns="http://www.w3.org/2000/svg" xmlns:xlink="http://www.w3.org/1999/xlink" x="0px" y="0px"
	 viewBox="0 0 507.728 507.728" style="enable-background:new 0 0 507.728 507.728;" xml:space="preserve">
<g>
	<path d="M448.424,451.026h-26.617c0.409-2.685,0.137-2.088,0.222-24.08c0-9.726-7.913-17.639-17.639-17.639h-16.326V198.405
		l31.36,31.42c8.6,8.6,22.546,8.664,31.21,0c2.664-3.387,11.94-8.674,11.94-21.08c0-5.89-2.29-11.43-6.46-15.6L269.774,6.475
		c-8.621-8.621-22.704-8.647-31.35,0l-186.81,186.67c-8.61,8.61-8.629,22.581,0,31.21c3.496,2.748,8.75,11.94,21.08,11.94
		c5.9,0,11.44-2.3,15.61-6.46l31.36-31.34v210.812h-16.326c-9.726,0-17.639,7.913-17.639,17.639v21.423
		c0,0.905,0.09,1.788,0.222,2.657H59.304c-9.726,0-17.639,7.913-17.639,17.64v21.422c0,9.727,7.913,17.64,17.639,17.64h310
		c4.142,0,7.5-3.357,7.5-7.5s-3.358-7.5-7.5-7.5h-310c-1.455,0-2.639-1.185-2.639-2.64v-21.422c0-1.455,1.184-2.64,2.639-2.64
		c173.729,0,215.387-0.014,389.12,0c1.455,0,2.639,1.185,2.639,2.64v21.422c0,1.455-1.184,2.64-2.639,2.64h-50.12
		c-4.142,0-7.5,3.357-7.5,7.5s3.358,7.5,7.5,7.5h50.12c9.726,0,17.639-7.913,17.639-17.64v-21.422
		C466.063,458.939,458.15,451.026,448.424,451.026z M77.694,219.225c-1.33,1.33-3.11,2.07-5,2.07c-4.49,0-5.941-3.564-10.47-7.55
		c-2.746-2.725-2.778-7.233,0-9.99c6.083-6.079,10.682-10.665,186.81-186.67c2.826-2.825,7.419-2.721,10.13-0.01
		c232.178,232.61,118.7,118.917,186.34,186.68c1.34,1.33,2.07,3.11,2.07,4.99c0,4.501-3.549,5.933-7.54,10.48
		c-2.808,2.787-7.265,2.735-10,0C247.633,36.472,258.976,46.065,254.104,46.065c-5.868,0-3.154,1.146-81.19,78.01
		c-2.93,2.93-2.93,7.68,0,10.61c2.93,2.93,7.68,2.93,10.61,0l70.57-70.51l118.97,119.2v225.93h-238.4v-225.8l28.34-28.32
		c2.93-2.93,2.93-7.68,0.01-10.61c-2.93-2.93-7.68-2.93-10.61,0C79.883,217.029,145.198,151.775,77.694,219.225z M407.029,448.369
		c0,1.455-1.184,2.639-2.639,2.639H103.338c-1.455,0-2.639-1.184-2.639-2.639v-21.423c0-1.455,1.184-2.639,2.639-2.639
		c18.139,0,282.994,0,301.052,0c1.455,0,2.639,1.184,2.639,2.639V448.369z"/>
	<path d="M215.426,400.346h76.876c14.061,0,25.499-11.438,25.499-25.499v-29.586c0-4.143-3.358-7.5-7.5-7.5
		c-4.142,0-7.5,3.357-7.5,7.5v29.586c0,5.789-4.71,10.499-10.499,10.499h-76.876c-5.79,0-10.5-4.71-10.5-10.499v-205.49
		c0-5.789,4.71-10.499,10.5-10.499c21.373,0,55.418,0,76.876,0c5.79,0,10.499,4.71,10.499,10.499v145.904c0,4.143,3.358,7.5,7.5,7.5
		c4.142,0,7.5-3.357,7.5-7.5V169.356c0-12.874-9.591-23.543-22.002-25.253v-12.912c0-12.038-9.793-21.832-21.832-21.832H233.76
		c-12.038,0-21.832,9.794-21.832,21.832v12.912c-12.411,1.71-22.002,12.379-22.002,25.253v205.49
		C189.926,388.907,201.365,400.346,215.426,400.346z M226.929,131.191c0-3.768,3.064-6.832,6.832-6.832h40.207
		c3.767,0,6.832,3.064,6.832,6.832v12.666h-53.87V131.191z"/>
	<path d="M258.226,343.245c42.696-73.648,43.001-70.237,43.001-76.484c0-7.182-5.842-13.024-13.022-13.024h-23.163
		c18.947-48.038,19.293-46.271,19.293-50.625c0-7.174-5.841-13.011-13.02-13.011h-19.556c-5.169,0-9.849,3.061-11.941,7.842
		c-34.134,80.288-33.318,75.483-33.318,80.17c0,7.175,5.841,13.012,13.021,13.012h24.82l-9.996,42.54
		C230.925,348.264,250.733,355.958,258.226,343.245z M222.536,276.124l30.532-71.023h15.312
		c-18.947,48.038-19.293,46.271-19.293,50.625c0,7.174,5.841,13.011,13.02,13.011h22.624l-32.796,55.642
		c7.858-33.943,7.929-32.599,7.929-35.252c0-7.169-5.839-13.002-13.017-13.002H222.536z"/>
</g>
<g>
</g>
<g>
</g>
<g>
</g>
<g>
</g>
<g>
</g>
<g>
</g>
<g>
</g>
<g>
</g>
<g>
</g>
<g>
</g>
<g>
</g>
<g>
</g>
<g>
</g>
<g>
</g>
<g>
</g>
</svg>
