<?xml version="1.0" encoding="iso-8859-1"?>
<!-- Generator: Adobe Illustrator 19.0.0, SVG Export Plug-In . SVG Version: 6.00 Build 0)  -->
<svg version="1.1" id="Layer_1" xmlns="http://www.w3.org/2000/svg" xmlns:xlink="http://www.w3.org/1999/xlink" x="0px" y="0px"
	 viewBox="0 0 508.88 508.88" style="enable-background:new 0 0 508.88 508.88;" xml:space="preserve">
<g>
	<path d="M280.796,376.157c-4.143,0-7.5,3.357-7.5,7.5s3.357,7.5,7.5,7.5h113.644c7.039,0,12.767-5.727,12.767-12.767V187.629
		c0-7.04-5.728-12.768-12.767-12.768H114.439c-7.04,0-12.767,5.728-12.767,12.768V378.39c0,7.04,5.727,12.767,12.767,12.767h136.357
		c4.142,0,7.5-3.357,7.5-7.5s-3.358-7.5-7.5-7.5H116.672V189.861h275.536v186.296H280.796z"/>
	<path d="M48.96,126.44c15.49,0,28.09-12.6,28.09-28.08c0-15.49-12.6-28.09-28.09-28.09c-15.48,0-28.08,12.6-28.08,28.09
		C20.88,113.84,33.48,126.44,48.96,126.44z M48.96,85.27c7.22,0,13.09,5.87,13.09,13.09c0,7.21-5.87,13.08-13.09,13.08
		c-7.21,0-13.08-5.87-13.08-13.08C35.88,91.14,41.75,85.27,48.96,85.27z"/>
	<path d="M459.92,44.7c-27,0-48.97,21.97-48.97,48.97v55.96c-5.617-1.358-6.007-0.53-54-0.77c-4.14,0-7.5,3.36-7.5,7.5
		c0,4.14,3.36,7.5,7.5,7.5h47.43c7.682,0,13.83,6.265,13.83,13.83c0,7.267,0,199.937,0,210.64c0,7.62-6.21,13.83-13.83,13.83
		c-59.054,0-230.143,0-299.88,0c-7.62,0-13.83-6.21-13.83-13.83c0-10.677,0-203.342,0-210.64c0-5.24,2.94-9.82,7.26-12.17
		c5.808-3.157-4.217-1.044,229.02-1.66c4.15,0,7.5-3.36,7.5-7.5c0-4.14-3.35-7.5-7.5-7.5c-234.911,0.269-223.182-0.641-229.02,0.77
		V93.67c0-27-21.97-48.97-48.97-48.97C26.33,44.7,6.77,60.04,1.39,82c-0.98,4.03,1.49,8.09,5.51,9.07c4.02,0.98,8.08-1.48,9.07-5.5
		C19.69,70.34,33.26,59.7,48.96,59.7c18.73,0,33.97,15.24,33.97,33.97v64.92c-3.097,3.487-5.357,7.725-6.474,12.402
		c-2.655-12.744-13.973-22.349-27.493-22.349c-15.486,0-28.084,12.599-28.084,28.084s12.599,28.084,28.084,28.084
		c12.459,0,23.044-8.158,26.707-19.411v61.026c-3.664-11.253-14.248-19.411-26.707-19.411c-15.486,0-28.084,12.599-28.084,28.084
		c0,15.486,12.599,28.085,28.084,28.085c12.459,0,23.044-8.158,26.707-19.412v61.026c-3.664-11.253-14.248-19.411-26.707-19.411
		c-15.486,0-28.084,12.599-28.084,28.084c0,15.486,12.599,28.085,28.084,28.085c12.459,0,23.044-8.158,26.707-19.412v16.985
		C55.685,384.504,15,370.187,15,338.16V113.69c0-4.15-3.36-7.5-7.5-7.5c-4.15,0-7.5,3.35-7.5,7.5v224.47
		c0,24.451,18.01,44.776,41.463,48.396v62.148H22.615c-4.142,0-7.5,3.357-7.5,7.5s3.358,7.5,7.5,7.5h52.696
		c4.142,0,7.5-3.357,7.5-7.5s-3.358-7.5-7.5-7.5H56.463v-62.151c7-1.08,13.516-3.643,19.207-7.363v9.14
		c0,15.89,12.94,28.83,28.83,28.83h45.54v35.68c0,6.25,5.08,11.34,11.33,11.34h21c6.25,0,11.33-5.09,11.33-11.34v-35.68h121.48
		v35.68c0,6.25,5.08,11.34,11.33,11.34h21c6.25,0,11.33-5.09,11.33-11.34v-35.68h45.54c15.89,0,28.83-12.94,28.83-28.83v-9.14
		c5.691,3.72,12.207,6.283,19.208,7.363v62.151h-18.849c-4.143,0-7.5,3.357-7.5,7.5s3.357,7.5,7.5,7.5h52.696
		c4.143,0,7.5-3.357,7.5-7.5s-3.357-7.5-7.5-7.5h-18.848v-62.148c23.453-3.62,41.462-23.945,41.462-48.396V93.67
		C508.88,66.67,486.92,44.7,459.92,44.7z M48.963,189.811c-7.215,0-13.084-5.869-13.084-13.084s5.87-13.084,13.084-13.084
		c7.214,0,13.084,5.869,13.084,13.084S56.177,189.811,48.963,189.811z M48.963,268.184c-7.215,0-13.084-5.87-13.084-13.085
		s5.87-13.084,13.084-13.084c7.214,0,13.084,5.869,13.084,13.084S56.177,268.184,48.963,268.184z M48.963,346.556
		c-7.215,0-13.084-5.87-13.084-13.085s5.87-13.084,13.084-13.084c7.214,0,13.084,5.869,13.084,13.084S56.177,346.556,48.963,346.556
		z M178.7,449.18h-13.66v-32.02h13.66V449.18z M343.84,449.18h-13.66v-32.02h13.66V449.18z M493.88,338.16
		c0,32.042-40.692,46.336-60.67,20.97v-16.984c3.664,11.253,14.248,19.41,26.708,19.41c15.485,0,28.084-12.599,28.084-28.085
		c0-15.485-12.599-28.084-28.084-28.084c-12.459,0-23.043,8.157-26.708,19.41v-61.023c3.664,11.253,14.248,19.41,26.708,19.41
		c15.485,0,28.084-12.599,28.084-28.085c0-15.485-12.599-28.084-28.084-28.084c-12.459,0-23.043,8.157-26.708,19.41v-61.023
		c3.664,11.252,14.248,19.41,26.708,19.41c15.485,0,28.084-12.599,28.084-28.084s-12.599-28.084-28.084-28.084
		c-13.521,0-24.839,9.604-27.494,22.348c-1.117-4.677-3.377-8.915-6.473-12.401V93.67c0-18.73,15.24-33.97,33.97-33.97
		s33.96,15.24,33.96,33.97V338.16z M446.833,333.471c0-7.215,5.87-13.084,13.085-13.084s13.084,5.869,13.084,13.084
		s-5.869,13.085-13.084,13.085S446.833,340.686,446.833,333.471z M446.833,255.099c0-7.215,5.87-13.084,13.085-13.084
		s13.084,5.869,13.084,13.084s-5.869,13.085-13.084,13.085S446.833,262.314,446.833,255.099z M446.833,176.727
		c0-7.215,5.87-13.084,13.085-13.084s13.084,5.869,13.084,13.084s-5.869,13.084-13.084,13.084S446.833,183.942,446.833,176.727z"/>
	<path d="M459.917,70.271c-15.486,0-28.085,12.599-28.085,28.084s12.599,28.084,28.085,28.084c15.485,0,28.084-12.599,28.084-28.084
		S475.403,70.271,459.917,70.271z M459.917,111.439c-7.215,0-13.085-5.869-13.085-13.084s5.87-13.084,13.085-13.084
		s13.084,5.869,13.084,13.084S467.132,111.439,459.917,111.439z"/>
</g>
<g>
</g>
<g>
</g>
<g>
</g>
<g>
</g>
<g>
</g>
<g>
</g>
<g>
</g>
<g>
</g>
<g>
</g>
<g>
</g>
<g>
</g>
<g>
</g>
<g>
</g>
<g>
</g>
<g>
</g>
</svg>
