<?xml version="1.0" encoding="iso-8859-1"?>
<!-- Generator: Adobe Illustrator 19.0.0, SVG Export Plug-In . SVG Version: 6.00 Build 0)  -->
<svg version="1.1" id="Layer_1" xmlns="http://www.w3.org/2000/svg" xmlns:xlink="http://www.w3.org/1999/xlink" x="0px" y="0px"
	 viewBox="0 0 508.935 508.935" style="enable-background:new 0 0 508.935 508.935;" xml:space="preserve">
<g>
	<path d="M434.344,74.571C334.92-24.85,173.997-24.865,74.556,74.572C-55.48,204.614-8.021,423.612,159.87,490.781
		c3.844,1.535,8.21-0.333,9.75-4.178c1.538-3.846-0.332-8.211-4.178-9.75C7.657,413.735-37.372,207.719,85.163,85.178
		c93.562-93.557,244.998-93.576,338.574,0c45.219,45.219,70.121,105.339,70.121,169.286c0,156.959-148.545,271.627-300.825,231.503
		c-4.005-1.047-8.108,1.338-9.164,5.342c-1.055,4.006,1.337,8.108,5.342,9.164c85.315,22.473,178.92,0.096,245.135-66.116
		C533.765,334.933,533.779,174.009,434.344,74.571z"/>
	<path d="M371.763,67.248C226.425-24.204,33.593,80.012,33.593,254.464c0,58.993,22.974,114.455,64.688,156.17
		c86.313,86.311,226.017,86.321,312.34,0c91.046-91.048,85.705-240.909-13.828-325.062c-3.163-2.674-7.896-2.277-10.569,0.886
		s-2.277,7.895,0.886,10.569c92.762,78.417,97.793,218.112,12.904,302.999c-80.447,80.449-210.666,80.46-291.125,0
		c-38.882-38.881-60.295-90.576-60.295-145.563c0-162.86,180.024-259.565,315.182-174.521c3.503,2.206,8.136,1.153,10.342-2.354
		C376.323,74.084,375.269,69.454,371.763,67.248z"/>
	<path d="M354.196,254.464c0-80.049-90.148-126.994-155.626-82.634c-3.429,2.323-4.325,6.986-2.002,10.416
		c2.323,3.428,6.988,4.326,10.415,2.002c55.613-37.673,132.213,2.203,132.213,70.216c0,46.729-38.017,84.745-84.745,84.745
		c-70.398,0-109.49-80.965-67.414-136.106c2.514-3.293,1.881-7.999-1.412-10.512c-3.293-2.515-8.001-1.881-10.512,1.412
		c-49.517,64.886-3.545,160.206,79.338,160.206C309.451,354.21,354.196,309.464,354.196,254.464z"/>
	<path d="M312.196,254.464c0-31.841-25.904-57.745-57.745-57.745s-57.745,25.904-57.745,57.745s25.904,57.745,57.745,57.745
		S312.196,286.305,312.196,254.464z M211.706,254.464c0-23.569,19.176-42.745,42.745-42.745s42.745,19.176,42.745,42.745
		s-19.176,42.745-42.745,42.745S211.706,278.034,211.706,254.464z"/>
	<path d="M273.95,125.502V81.49c0-10.752-8.747-19.499-19.499-19.499c-10.752,0-19.499,8.747-19.499,19.499v44.012
		c0,10.752,8.747,19.499,19.499,19.499C265.203,145.001,273.95,136.253,273.95,125.502z M249.952,125.502V81.49
		c0-2.48,2.019-4.499,4.499-4.499c2.48,0,4.499,2.019,4.499,4.499v44.012c0,2.48-2.019,4.499-4.499,4.499
		C251.97,130.001,249.952,127.982,249.952,125.502z"/>
	<path d="M94.901,184.864l38.115,22.006c4.518,2.608,9.772,3.295,14.796,1.948c16.63-4.454,19.791-27.01,4.703-35.722L114.4,151.09
		c-15.158-8.749-33.026,5.362-28.584,21.934C87.164,178.055,90.39,182.259,94.901,184.864z M106.9,164.081
		c39.52,23.352,39.349,21.521,40.212,24.738c1.042,3.883-3.156,7.047-6.596,5.061c-39.52-23.352-39.349-21.521-40.212-24.738
		C99.994,167.981,103.452,162.087,106.9,164.081z"/>
	<path d="M99.603,359.786c11.584,3.11,15.212-3.068,52.912-23.953c4.511-2.604,7.737-6.809,9.085-11.84
		c4.458-16.629-13.495-30.643-28.584-21.934l-38.115,22.006c-4.511,2.604-7.737,6.809-9.085,11.84
		C83.027,346.309,89.191,356.996,99.603,359.786z M100.304,339.788c0.864-3.219,0.672-1.374,40.212-24.738
		c2.148-1.24,4.901-0.511,6.146,1.646c1.248,2.162,0.498,4.909-1.647,6.146L106.9,344.848
		C103.429,346.854,99.275,343.631,100.304,339.788z"/>
	<path d="M234.952,383.427v44.012c0,10.752,8.747,19.499,19.499,19.499c10.752,0,19.499-8.747,19.499-19.499v-44.012
		c0-10.752-8.747-19.499-19.499-19.499C243.699,363.928,234.952,372.675,234.952,383.427z M258.95,383.427v44.012
		c0,2.48-2.019,4.499-4.499,4.499c-2.48,0-4.499-2.019-4.499-4.499v-44.012c0-2.48,2.019-4.499,4.499-4.499
		C256.931,378.928,258.95,380.947,258.95,383.427z"/>
	<path d="M356.386,335.833l38.115,22.006c14.947,8.627,33.088-5.131,28.584-21.934c-1.348-5.031-4.574-9.235-9.085-11.84
		l-38.115-22.006c-4.511-2.604-9.765-3.296-14.796-1.948C344.459,304.565,341.298,327.121,356.386,335.833z M364.97,314.6
		c1.145-0.309,2.365-0.157,3.415,0.449c39.52,23.352,39.349,21.521,40.212,24.738c1.025,3.83-3.108,7.075-6.596,5.061
		c-39.52-23.352-39.349-21.521-40.212-24.738C361.478,318.949,362.562,315.245,364.97,314.6z"/>
	<path d="M394.501,151.09l-38.115,22.006c-17.152,9.904-10.209,36.395,9.78,36.395c8.873,0,11.539-4.521,47.834-24.627
		c4.511-2.604,7.737-6.809,9.085-11.84C427.541,156.401,409.594,142.377,394.501,151.09z M406.5,171.874
		c-40.029,22.579-38.329,23.321-41.53,22.455c-3.85-1.031-4.549-6.243-1.084-8.242c39.697-22.667,38.092-22.607,40.356-22.607
		C408.846,163.479,410.471,169.583,406.5,171.874z"/>
</g>
<g>
</g>
<g>
</g>
<g>
</g>
<g>
</g>
<g>
</g>
<g>
</g>
<g>
</g>
<g>
</g>
<g>
</g>
<g>
</g>
<g>
</g>
<g>
</g>
<g>
</g>
<g>
</g>
<g>
</g>
</svg>
