<?xml version="1.0" encoding="iso-8859-1"?>
<!-- Generator: Adobe Illustrator 19.0.0, SVG Export Plug-In . SVG Version: 6.00 Build 0)  -->
<svg version="1.1" id="Layer_1" xmlns="http://www.w3.org/2000/svg" xmlns:xlink="http://www.w3.org/1999/xlink" x="0px" y="0px"
	 viewBox="0 0 509.32 509.32" style="enable-background:new 0 0 509.32 509.32;" xml:space="preserve">
<g>
	<path d="M346.423,376.333c-3.231-2.592-7.952-2.072-10.543,1.158l-28.797,35.905c-3.963,4.941-0.364,12.192,5.846,12.192
		c2.197,0,4.375-0.961,5.855-2.808l28.797-35.905C350.173,383.644,349.655,378.925,346.423,376.333z"/>
	<path d="M388.316,358.381c-3.231-2.592-7.951-2.072-10.543,1.158l-28.797,35.905c-3.963,4.941-0.364,12.192,5.846,12.192
		c2.197,0,4.374-0.961,5.855-2.808l28.797-35.905C392.066,365.692,391.548,360.972,388.316,358.381z"/>
	<path d="M111.166,421.363c2.098,0,4.185-0.875,5.667-2.584l39.408-45.406c2.715-3.128,2.38-7.865-0.748-10.58
		c-3.128-2.716-7.866-2.381-10.58,0.748l-39.408,45.406C101.271,413.825,104.81,421.363,111.166,421.363z"/>
	<path d="M195.59,376.333c-3.231-2.592-7.952-2.072-10.543,1.158l-14.398,17.953c-2.592,3.231-2.073,7.952,1.158,10.543
		c3.252,2.608,7.969,2.052,10.543-1.158l14.398-17.953C199.34,383.644,198.821,378.924,195.59,376.333z"/>
	<path d="M435.699,394.286c-3.231-2.592-7.951-2.072-10.543,1.158l-14.398,17.952c-2.592,3.231-2.073,7.951,1.158,10.543
		c3.252,2.608,7.968,2.052,10.543-1.158l14.398-17.952C439.449,401.597,438.93,396.878,435.699,394.286z"/>
	<path d="M115.862,362.606c-3.231-2.592-7.951-2.072-10.543,1.158L90.92,381.717c-2.592,3.231-2.073,7.951,1.158,10.543
		c3.252,2.608,7.968,2.052,10.543-1.158l14.398-17.952C119.612,369.918,119.093,365.198,115.862,362.606z"/>
	<path d="M501.82,1.52c-17.164,0-464.152,0-494.32,0C3.36,1.52,0,4.87,0,9.02C0,173.052,0,336.853,0,500.3c0,4.15,3.36,7.5,7.5,7.5
		h420c4.14,0,7.5-3.35,7.5-7.5c0-4.14-3.36-7.5-7.5-7.5H15V349.67h14.29v90.48c0,4.14,3.36,7.5,7.5,7.5h125.74
		c4.14,0,7.5-3.36,7.5-7.5s-3.36-7.5-7.5-7.5H44.29v-82.98h14.464v25.981c0,4.143,3.358,7.5,7.5,7.5s7.5-3.357,7.5-7.5V349.67
		c15.751,0,137.16,0,152.906,0v82.98h-34.13c-4.14,0-7.5,3.36-7.5,7.5s3.36,7.5,7.5,7.5h280c4.14,0,7.5-3.36,7.5-7.5v-90.48h14.29
		V492.8H457.5c-4.14,0-7.5,3.36-7.5,7.5c0,4.15,3.36,7.5,7.5,7.5h44.32c4.14,0,7.5-3.35,7.5-7.5c0-53.578,0-435.203,0-491.28
		C509.32,4.87,505.96,1.52,501.82,1.52z M58.754,334.67c-13.644,0-29.903,0-43.754,0c0-9.502,0-16.174,0-26.64h43.754V334.67z
		 M58.754,293.03H15v-26.65h43.754V293.03z M58.754,251.38H15v-26.64h43.754V251.38z M58.754,209.74H15v-26.65h43.754V209.74z
		 M58.754,168.09H15v-26.64c10.025,0,34.094,0,43.754,0V168.09z M58.754,126.45c-9.653,0-33.742,0-43.754,0V99.8h43.754V126.45z
		 M58.754,84.8H15V58.16h43.75h0.004V84.8z M58.754,43.16H58.75H15V16.52h43.754V43.16z M73.754,16.52c14.876,0,346.825,0,361.812,0
		v26.64H73.754V16.52z M73.754,99.8c8.212,0,271.19,0,287.786,0c4.14,0,7.5-3.35,7.5-7.5c0-4.14-3.36-7.5-7.5-7.5
		c-1.227,0-281.462,0-287.786,0V58.16h361.812V84.8H391.54c-4.14,0-7.5,3.36-7.5,7.5c0,4.15,3.36,7.5,7.5,7.5h44.026v26.65
		c-11.564,0-352.637,0-361.812,0V99.8z M73.754,141.45c9.071,0,350.345,0,361.812,0v26.64H73.754V141.45z M73.754,183.09h361.812
		v26.65H73.754V183.09z M73.754,224.74h361.812v26.64H73.754V224.74z M73.754,266.38h361.812v26.65H73.754V266.38z M73.754,334.67
		v-26.64h361.812v26.64C400.135,334.67,110.325,334.67,73.754,334.67z M465.03,432.65H282.66v-40.455c0-4.143-3.358-7.5-7.5-7.5
		s-7.5,3.357-7.5,7.5v40.453h-26v-82.977h26v12.523c0,4.143,3.358,7.5,7.5,7.5s7.5-3.357,7.5-7.5V349.67
		c15.186,0,127.463,0,152.906,0v25.981c0,4.143,3.358,7.5,7.5,7.5s7.5-3.357,7.5-7.5V349.67h14.464V432.65z M494.32,334.67
		c-13.718,0-29.709,0-43.754,0v-26.64h43.754V334.67z M494.32,293.03h-43.754v-26.65h43.754V293.03z M494.32,251.38h-43.754v-26.64
		h43.754V251.38z M494.32,209.74h-43.754v-26.65h43.754V209.74z M494.32,168.09h-43.754v-26.64h43.754V168.09z M494.32,126.45
		h-43.754V99.8h43.754C494.32,107.894,494.32,114.231,494.32,126.45z M494.32,84.8h-43.754V58.16h43.754V84.8z M494.32,43.16
		h-43.754V16.52h43.754V43.16z"/>
</g>
<g>
</g>
<g>
</g>
<g>
</g>
<g>
</g>
<g>
</g>
<g>
</g>
<g>
</g>
<g>
</g>
<g>
</g>
<g>
</g>
<g>
</g>
<g>
</g>
<g>
</g>
<g>
</g>
<g>
</g>
</svg>
