<?xml version="1.0" encoding="iso-8859-1"?>
<!-- Generator: Adobe Illustrator 19.0.0, SVG Export Plug-In . SVG Version: 6.00 Build 0)  -->
<svg version="1.1" id="Layer_1" xmlns="http://www.w3.org/2000/svg" xmlns:xlink="http://www.w3.org/1999/xlink" x="0px" y="0px"
	 viewBox="0 0 508.6 508.6" style="enable-background:new 0 0 508.6 508.6;" xml:space="preserve">
<g>
	<circle cx="244.29" cy="29.55" r="7.5"/>
	<path d="M162.589,36.409h49.784c4.143,0,7.5-3.357,7.5-7.5s-3.357-7.5-7.5-7.5h-49.784c-4.142,0-7.5,3.357-7.5,7.5
		S158.447,36.409,162.589,36.409z"/>
	<path d="M441.587,454.89l-28.76-49.83c-2.08-3.59-6.66-4.81-10.25-2.74c-3.58,2.07-4.81,6.66-2.74,10.24
		c30.215,52.599,29.17,49.887,29.17,51.28c0,1.2-0.94,2.96-2.95,2.96c-55.316,0-123.674,0-177.83,0c-2.01,0-2.95-1.76-2.95-2.96
		c0-1.08,72.292-125.96,72.35-126.06c18.303-31.699,17.108-30.86,19.52-30.86c2.625,0-0.981-4.629,47.69,79.66
		c2.07,3.59,6.66,4.82,10.24,2.75c3.59-2.07,4.82-6.66,2.75-10.25c-47.073-79.324-44.141-81.421-53.16-85.52V33.42
		c0-18.43-14.99-33.42-33.42-33.42H98.007c-18.43,0-33.42,14.99-33.42,33.42v308.23c0,4.15,3.35,7.5,7.5,7.5
		c4.14,0,7.5-3.35,7.5-7.5V33.42c0-10.16,8.26-18.42,18.42-18.42h28.443l6.357,32.536c1.248,6.353,6.85,10.964,13.319,10.964h117.89
		c6.626,0,12.25-4.74,13.371-11.266L282.945,15h28.302c10.16,0,18.42,8.26,18.42,18.42v260.12c-7.365,3.295-8.896,9.637-12.04,14.24
		V89.18c0-11.24-9.14-20.38-20.38-20.38h-26.2c-4.15,0-7.5,3.36-7.5,7.5s3.35,7.5,7.5,7.5h26.2c2.97,0,5.38,2.41,5.38,5.38v244.59
		l-69.93,121.12c-2.196,3.784-2.844,8.105-2.17,11.91h-118.52c-2.97,0-5.38-2.41-5.38-5.38V89.18c0-2.97,2.41-5.38,5.38-5.38h132.04
		c4.14,0,7.5-3.36,7.5-7.5s-3.36-7.5-7.5-7.5h-132.04c-11.24,0-20.38,9.14-20.38,20.38v372.24c0,11.24,9.14,20.38,20.38,20.38
		c67.107,0,149.232,0,216.42,0c-2.65,6.9-9.35,11.8-17.18,11.8H98.007c-10.16,0-18.42-8.26-18.42-18.42V371.65
		c0-4.14-3.36-7.5-7.5-7.5c-4.15,0-7.5,3.36-7.5,7.5v103.53c0,18.43,14.99,33.42,33.42,33.42h213.24c16.16,0,29.68-11.53,32.76-26.8
		h82.05C439.876,481.8,448.476,466.762,441.587,454.89z M262.811,43.5H147.303L141.735,15c19.205,0,112.503,0,125.989,0
		L262.811,43.5z"/>
	<path d="M337.147,422.36c4.14,0,7.5-3.36,7.5-7.5v-70c0-4.14-3.36-7.5-7.5-7.5c-4.187,0-7.5,3.412-7.5,7.5
		c0,73.369-0.011,70.188,0.02,70.39C329.857,419.21,333.127,422.36,337.147,422.36z"/>
	<path d="M329.667,449.62c4.089,4.351,10.968,4.305,15-0.05c6.062-6.564,1.373-17.21-7.52-17.21
		C328.122,432.36,323.603,443.13,329.667,449.62z"/>
	<path d="M259.692,276.602c4.143,0,7.5-3.357,7.5-7.5v-25.644c5.438,4.462,7.058,8.092,11.684,8.092
		c6.776,0,10.11-8.367,5.095-13.006c-2.909-2.692-73.187-67.909-74.812-69.144c-2.822-2.147-6.892-2.05-9.618,0.466
		c-0.755,0.696-62.714,57.736-74.375,68.673c-3.043,2.811-3.232,7.556-0.422,10.599s7.554,3.23,10.598,0.423l6.723-6.208v99.888
		c0,4.143,3.358,7.5,7.5,7.5h110.128c4.143,0,7.5-3.357,7.5-7.5v-44.14c0-4.143-3.357-7.5-7.5-7.5c-4.143,0-7.5,3.357-7.5,7.5v36.64
		h-95.128V229.503l47.56-43.914l47.569,43.996v39.517C252.192,273.244,255.549,276.602,259.692,276.602z"/>
</g>
<g>
</g>
<g>
</g>
<g>
</g>
<g>
</g>
<g>
</g>
<g>
</g>
<g>
</g>
<g>
</g>
<g>
</g>
<g>
</g>
<g>
</g>
<g>
</g>
<g>
</g>
<g>
</g>
<g>
</g>
</svg>
