<?xml version="1.0" encoding="iso-8859-1"?>
<!-- Generator: Adobe Illustrator 19.0.0, SVG Export Plug-In . SVG Version: 6.00 Build 0)  -->
<svg version="1.1" id="Layer_1" xmlns="http://www.w3.org/2000/svg" xmlns:xlink="http://www.w3.org/1999/xlink" x="0px" y="0px"
	 viewBox="0 0 508.908 508.908" style="enable-background:new 0 0 508.908 508.908;" xml:space="preserve">
<g>
	<path d="M501.408,335.078c-4.143,0-7.5,3.357-7.5,7.5v70.163c0,7.396-6.017,13.412-13.413,13.412H337.713
		c-7.396,0-13.413-6.017-13.413-13.412c0-26.145,0-223.099,0-251.492c0-4.143-3.357-7.5-7.5-7.5s-7.5,3.357-7.5,7.5v89.192h-24.582
		v-91.045c0-5.492-4.469-9.961-9.961-9.961h-31.56c-5.492,0-9.961,4.469-9.961,9.961v91.045h-26.264v-91.045
		c0-5.492-4.469-9.961-9.961-9.961h-31.56c-5.492,0-9.961,4.469-9.961,9.961v91.045h-26.264v-91.045
		c0-5.492-4.469-9.961-9.962-9.961H87.707c-5.492,0-9.961,4.469-9.961,9.961v91.045H51.482v-91.045c0-5.492-4.469-9.961-9.962-9.961
		H9.962c-5.493,0-9.962,4.469-9.962,9.961v241.09c0,5.493,4.469,9.962,9.962,9.962h31.559c5.493,0,9.962-4.469,9.962-9.962v-91.045
		h26.264v91.045c0,5.493,4.469,9.962,9.961,9.962h31.559c5.493,0,9.962-4.469,9.962-9.962v-91.045h26.264v91.045
		c0,5.493,4.469,9.962,9.961,9.962h31.56c5.492,0,9.961-4.469,9.961-9.962v-91.045h26.264v91.045c0,5.493,4.469,9.962,9.961,9.962
		h31.56c5.492,0,9.961-4.469,9.961-9.962v-91.045H309.3v103.3c0,15.667,12.746,28.412,28.413,28.412h142.782
		c15.667,0,28.413-12.745,28.413-28.412v-70.163C508.908,338.436,505.551,335.078,501.408,335.078z M36.482,395.448H15V164.436
		h21.482C36.482,172.499,36.482,384.326,36.482,395.448z M77.746,294.441H51.482v-29h26.264V294.441z M114.228,395.448H92.746
		c0-11.201,0-222.629,0-231.013h21.481C114.228,175.713,114.228,386.83,114.228,395.448z M155.491,294.441h-26.264v-29h26.264
		V294.441z M191.973,395.448h-21.481c0-8.063,0-219.824,0-231.013h21.481C191.973,175.713,191.973,386.83,191.973,395.448z
		 M233.236,294.441h-26.264v-29h26.264V294.441z M269.718,395.448h-21.481c0-8.063,0-219.824,0-231.013h21.481
		C269.718,175.713,269.718,386.83,269.718,395.448z M309.3,294.441h-24.582v-29H309.3V294.441z"/>
	<path d="M480.495,67.755c-15.098,0-127.558,0-142.782,0c-15.667,0-28.413,12.745-28.413,28.412v35.082c0,4.143,3.357,7.5,7.5,7.5
		s7.5-3.357,7.5-7.5V96.167c0-7.396,6.017-13.412,13.413-13.412h0.36l7.992,34.603c1.429,6.193,6.867,10.52,13.225,10.52h99.628
		c6.355,0,11.793-4.325,13.225-10.519l7.992-34.604h0.36c7.396,0,13.413,6.017,13.413,13.412v216.411c0,4.143,3.357,7.5,7.5,7.5
		s7.5-3.357,7.5-7.5V96.167C508.908,80.5,496.162,67.755,480.495,67.755z M457.783,112.877h-97.358l-6.957-30.122H464.74
		L457.783,112.877z"/>
	<path d="M372.53,104.869h46.415c4.143,0,7.5-3.357,7.5-7.5s-3.357-7.5-7.5-7.5H372.53c-4.143,0-7.5,3.357-7.5,7.5
		S368.388,104.869,372.53,104.869z"/>
	<circle cx="438.784" cy="97.369" r="6.894"/>
	<path d="M477.68,412.511c4.666,0,8.463-3.797,8.463-8.464V146.781c0-4.666-3.797-8.463-8.463-8.463H340.528
		c-4.667,0-8.464,3.797-8.464,8.463v257.266c0,4.667,3.797,8.464,8.464,8.464H477.68z M347.064,153.318h124.078v244.192H347.064
		V153.318z"/>
	<path d="M422.01,223.712c-2.804-3.05-7.549-3.25-10.598-0.447c-3.05,2.803-3.25,7.547-0.447,10.598l0.322,0.351h-52.388
		c-4.143,0-7.5,3.357-7.5,7.5v67.344c0,4.143,3.357,7.5,7.5,7.5h52.442l-0.38,0.414c-2.801,3.052-2.598,7.796,0.454,10.597
		c3.042,2.793,7.788,2.606,10.597-0.454c44.818-48.834,42.971-46.8,43.28-47.208c0.196-0.259,2.003-6.913-0.462-9.595
		L422.01,223.712z M425,301.557h-58.601v-52.344H425l24.11,26.172L425,301.557z"/>
</g>
<g>
</g>
<g>
</g>
<g>
</g>
<g>
</g>
<g>
</g>
<g>
</g>
<g>
</g>
<g>
</g>
<g>
</g>
<g>
</g>
<g>
</g>
<g>
</g>
<g>
</g>
<g>
</g>
<g>
</g>
</svg>
