<?xml version="1.0" encoding="iso-8859-1"?>
<!-- Generator: Adobe Illustrator 19.0.0, SVG Export Plug-In . SVG Version: 6.00 Build 0)  -->
<svg version="1.1" id="Layer_1" xmlns="http://www.w3.org/2000/svg" xmlns:xlink="http://www.w3.org/1999/xlink" x="0px" y="0px"
	 viewBox="0 0 508.049 508.049" style="enable-background:new 0 0 508.049 508.049;" xml:space="preserve">
<g>
	<path d="M317.287,321.905l-49-72.98c-1.74-2.61-4.66-4.17-7.8-4.17h-79.23l-9.85-9.85c-6.6-6.59-17.33-6.59-23.92,0l-9.85,9.85
		h-79.67c-3.15,0-6.07,1.57-7.82,4.19l-48.56,73c-4.153,6.229,0.329,14.59,7.82,14.59h16.01v163.53c0,4.14,3.36,7.5,7.5,7.5
		c11.725,0,249.122,0,253.06,0c4.14,0,7.5-3.36,7.5-7.5v-163.53h16.01C316.968,336.535,321.48,328.184,317.287,321.905z
		 M274.277,284.755l7.61,11.33h-49.3l-11.33-11.33H274.277z M257.497,259.755l6.71,10h-57.95l-10-10H257.497z M60.977,259.755h61.66
		l-10,10h-58.31L60.977,259.755z M44.347,284.755h53.29l-11.33,11.33h-49.5L44.347,284.755z M70.657,492.565h-30.24v-156.03h16.73
		c1.527,6.496,5.894,9.084,8.01,11.56c1.62,1.63,3.49,2.85,5.5,3.67V492.565z M60.907,321.535h-41.04
		c0.001-0.002,0.005-0.008,0.009-0.013c0.001-0.001,0.002-0.002,0.003-0.004c0,0-0.001,0.001-0.001,0.002
		c3.944-5.921,3.009-4.517,6.95-10.436h44.48C61.07,321.332,61.389,320.969,60.907,321.535z M184.306,491.763h-49.72V390.586h49.72
		V491.763z M233.237,492.565h-33.931V387.513c0-6.576-5.35-11.927-11.927-11.927h-55.866c-6.577,0-11.927,5.351-11.927,11.927
		v105.052H85.657v-141.89c3.279-1.945,71.122-70.36,73.79-73.05c78.294,78.503,71.928,71.955,73.79,73.05V492.565z M246.647,333.975
		c-3.165,2.868-3.445,4.05-4.82,4.05c-2.898,0-75.735-77.771-81.515-78.454c-2.185-0.254-4.497,0.476-6.165,2.144
		c-89.208,89.193-66.269,66.26-75.78,75.77c-0.72,0.72-1.89,0.72-2.61,0l-3.51-3.51c-0.72-0.72-0.72-1.89,0-2.61
		c9.757-9.758,76.284-76.284,85.85-85.85c0.73-0.73,1.97-0.73,2.7,0c33.809,33.809-7.439-7.439,85.85,85.85
		C247.367,332.085,247.367,333.255,246.647,333.975z M278.477,492.565h-30.24v-140.79c4.48-1.854,6.278-4.699,9.02-7.19
		c2.29-2.29,3.79-5.1,4.47-8.05h16.75V492.565z M257.987,321.535c-0.763-0.859-0.366-0.396-10.4-10.45h44.37
		c6.335,9.444,7.051,10.512,7.01,10.45H257.987z"/>
	<path d="M146.466,454.887c4.142,0,7.5-3.357,7.5-7.5v-13.683c0-4.143-3.358-7.5-7.5-7.5s-7.5,3.357-7.5,7.5v13.683
		C138.966,451.529,142.324,454.887,146.466,454.887z"/>
	<path d="M481.514,0.484c-25.717,0-104.185,0-129.963,0c-14.631,0-26.535,11.903-26.535,26.534v288.15
		c0,14.632,11.903,26.535,26.535,26.535h129.963c14.631,0,26.535-11.903,26.535-26.535V27.018
		C508.049,12.388,496.145,0.484,481.514,0.484z M466.327,15.484l-6.022,26.07H372.76l-6.021-26.07H466.327z M493.049,315.169
		c0,6.36-5.175,11.535-11.535,11.535H351.551c-6.36,0-11.535-5.175-11.535-11.535V27.018c0-6.291,5.065-11.413,11.33-11.524
		l7.152,30.965c1.373,5.943,6.593,10.095,12.694,10.095h90.682c6.101,0,11.32-4.151,12.693-10.096l7.152-30.964
		c6.265,0.111,11.33,5.233,11.33,11.524V315.169z"/>
	<path d="M383.243,35.612h42.248c4.142,0,7.5-3.357,7.5-7.5s-3.358-7.5-7.5-7.5h-42.248c-4.142,0-7.5,3.357-7.5,7.5
		S379.1,35.612,383.243,35.612z"/>
	<circle cx="443.548" cy="28.113" r="6.275"/>
	<path d="M478.951,64.712h-82.759c-4.142,0-7.5,3.357-7.5,7.5s3.358,7.5,7.5,7.5h76.136v158.24c0,4.143,3.358,7.5,7.5,7.5
		s7.5-3.357,7.5-7.5V73.089C487.327,68.47,483.57,64.712,478.951,64.712z"/>
	<path d="M479.827,260.452c-4.142,0-7.5,3.357-7.5,7.5v32.681h-111.59V79.712h5.455c4.142,0,7.5-3.357,7.5-7.5s-3.358-7.5-7.5-7.5
		h-12.078c-4.619,0-8.377,3.758-8.377,8.377v234.167c0,4.619,3.758,8.377,8.377,8.377h124.837c4.619,0,8.376-3.758,8.376-8.377
		v-39.304C487.327,263.81,483.97,260.452,479.827,260.452z"/>
	<path d="M433.844,348.532c-2.988-3.515-8.429-3.526-11.427,0l-26.727,31.431c-4.159,4.89-0.615,12.358,5.71,12.358
		c2.124,0,4.233-0.896,5.717-2.642l13.514-15.891v75.525c0,7.855-6.392,14.247-14.248,14.247h-78.438l15.892-13.514
		c3.156-2.684,3.539-7.417,0.855-10.572c-2.684-3.156-7.417-3.537-10.572-0.855c-32.903,28.145-34.728,27.837-34.004,33.407
		c0.65,5.044,2.769,4.068,34.004,31.475c1.411,1.199,3.137,1.786,4.855,1.786c6.922,0,10.198-8.676,4.862-13.214l-15.892-13.513
		h78.438c16.127,0,29.248-13.12,29.248-29.247v-75.525l13.513,15.891c2.683,3.156,7.417,3.537,10.572,0.855
		c3.156-2.684,3.539-7.417,0.855-10.572L433.844,348.532z"/>
	<path d="M176.457,218.735c2.988,3.515,8.429,3.526,11.427,0l26.727-31.431c2.684-3.155,2.301-7.889-0.855-10.572
		c-3.155-2.682-7.888-2.301-10.572,0.855l-13.514,15.892v-75.526c0-7.855,6.391-14.247,14.247-14.247h78.438l-15.891,13.513
		c-3.156,2.684-3.539,7.417-0.855,10.572c2.683,3.156,7.417,3.538,10.572,0.855c34.059-28.975,32.128-27.073,33.063-28.694
		c1.833-3.167,1.091-7.144-1.633-9.46l-31.431-26.727c-3.155-2.682-7.889-2.301-10.572,0.855c-2.684,3.155-2.301,7.889,0.855,10.572
		l15.891,13.513h-78.438c-16.127,0-29.247,13.12-29.247,29.247v75.526l-13.514-15.892c-2.683-3.156-7.417-3.537-10.572-0.855
		c-3.156,2.684-3.539,7.417-0.855,10.572L176.457,218.735z"/>
	<path d="M470.304,172.305c-22.69-42.653-83.396-43.447-107.417-1.82c-2.07,3.588-0.84,8.175,2.748,10.245
		c3.586,2.07,8.174,0.839,10.245-2.747c18.168-31.485,64.043-30.853,81.182,1.367c1.349,2.535,3.944,3.979,6.628,3.979
		C469.277,183.324,472.98,177.335,470.304,172.305z"/>
	<path d="M458.627,187.504c-17.295-34.673-66.235-35.231-84.507-1.359c-1.966,3.646-0.605,8.195,3.041,10.161
		c3.645,1.968,8.194,0.605,10.162-3.04c12.536-23.241,46.035-22.818,57.882,0.934c1.313,2.632,3.963,4.154,6.717,4.154
		C457.435,198.353,461.128,192.518,458.627,187.504z"/>
	<path d="M439.836,213.65c5.414,0,9.116-5.645,6.803-10.649c-11.814-25.552-48.243-26.432-60.928-0.802
		c-1.837,3.713-0.317,8.212,3.395,10.049c3.714,1.839,8.211,0.317,10.048-3.395c7.046-14.239,27.284-13.799,33.869,0.442
		C434.29,212.037,437.002,213.65,439.836,213.65z"/>
	<path d="M415.984,205.049c-9.803,0-17.778,7.976-17.778,17.778s7.975,17.777,17.778,17.777s17.778-7.975,17.778-17.777
		S425.787,205.049,415.984,205.049z M413.206,222.827c0-3.677,5.556-3.673,5.556,0C418.762,226.503,413.206,226.498,413.206,222.827
		z"/>
</g>
<g>
</g>
<g>
</g>
<g>
</g>
<g>
</g>
<g>
</g>
<g>
</g>
<g>
</g>
<g>
</g>
<g>
</g>
<g>
</g>
<g>
</g>
<g>
</g>
<g>
</g>
<g>
</g>
<g>
</g>
</svg>
