<?xml version="1.0" encoding="iso-8859-1"?>
<!-- Generator: Adobe Illustrator 19.0.0, SVG Export Plug-In . SVG Version: 6.00 Build 0)  -->
<svg version="1.1" id="Layer_1" xmlns="http://www.w3.org/2000/svg" xmlns:xlink="http://www.w3.org/1999/xlink" x="0px" y="0px"
	 viewBox="0 0 509.021 509.021" style="enable-background:new 0 0 509.021 509.021;" xml:space="preserve">
<path d="M411.161,335.051c-22.052-269.267-22.18-271.24-22.23-271.34c-0.36-18.06-15.1-34.52-41.6-46.39
	c-81.974-36.744-226.525-12.148-227.27,46.64l-5.82,71.18c-0.34,4.13,2.73,7.75,6.86,8.09c4.13,0.34,7.75-2.73,8.09-6.86l3.6-43.95
	c46.596,47.804,195.726,48.928,243.44-0.02c6.003,74.262,10.273,126.16,13.311,162.849H119.5c1.896-22.982,4.269-52.02,7.241-88.979
	c0.33-4.13-2.74-7.75-6.87-8.09c-4.12-0.35-7.75,2.74-8.08,6.86c-14.112,175.701-14.8,172.571-14.8,191.37
	c0,47.72,13.05,94.52,37.74,135.35c6.44,10.65,18.17,17.26,30.61,17.26h178.34c12.44,0,24.17-6.61,30.61-17.26
	c9.59-15.86,17.51-32.79,23.53-50.31c1.35-3.92-0.73-8.19-4.65-9.53c-3.92-1.35-8.18,0.73-9.53,4.65
	c-2.01,5.847-4.256,11.619-6.705,17.306H132.074c-13.203-30.678-20.083-63.832-20.083-97.466c0-13.166,0.273-13.847,6.269-86.161
	h272.526c5.321,64.115,10.419,93.272,0.676,138.301c-0.88,4.04,1.69,8.04,5.74,8.91c3.92,0.872,8.023-1.599,8.92-5.74
	C411.55,386.594,413.261,360.688,411.161,335.051z M167.8,97.781c-76.492-34.3-7.975-82.78,86.7-82.78c32.87,0,63.66,5.68,86.69,16
	c13.939,6.249,32.75,18.119,32.75,33.39C373.94,104.55,247.921,133.658,167.8,97.781z M369.862,468.877
	c-2.633,5.137-5.428,10.19-8.411,15.124c-3.74,6.18-10.55,10.02-17.77,10.02h-178.34c-7.22,0-14.03-3.84-17.77-10.02
	c-2.995-4.951-5.804-9.997-8.432-15.124H369.862z"/>
<g>
</g>
<g>
</g>
<g>
</g>
<g>
</g>
<g>
</g>
<g>
</g>
<g>
</g>
<g>
</g>
<g>
</g>
<g>
</g>
<g>
</g>
<g>
</g>
<g>
</g>
<g>
</g>
<g>
</g>
</svg>
