<?xml version="1.0" encoding="iso-8859-1"?>
<!-- Generator: Adobe Illustrator 19.0.0, SVG Export Plug-In . SVG Version: 6.00 Build 0)  -->
<svg version="1.1" id="Layer_1" xmlns="http://www.w3.org/2000/svg" xmlns:xlink="http://www.w3.org/1999/xlink" x="0px" y="0px"
	 viewBox="0 0 509.875 509.875" style="enable-background:new 0 0 509.875 509.875;" xml:space="preserve">
<g>
	<path d="M485.609,136.896h-42.349c-4.143,0-7.5,3.357-7.5,7.5s3.357,7.5,7.5,7.5h42.349c5.109,0,9.266,4.156,9.266,9.265v226.971
		c0,5.108-4.156,9.265-9.266,9.265H24.266c-5.109,0-9.266-4.156-9.266-9.265v-62.311c0-4.143-3.357-7.5-7.5-7.5s-7.5,3.357-7.5,7.5
		v62.311c0,13.38,10.886,24.265,24.266,24.265h461.344c13.38,0,24.266-10.885,24.266-24.265V161.161
		C509.875,147.781,498.989,136.896,485.609,136.896z"/>
	<path d="M7.5,303.321c4.143,0,7.5-3.357,7.5-7.5v-134.66c0-5.108,4.156-9.265,9.266-9.265c10.595,0,378.636,0,388.995,0
		c4.143,0,7.5-3.357,7.5-7.5s-3.357-7.5-7.5-7.5h-78.223v-26.917c0-6.893-5.607-12.5-12.5-12.5H186.462
		c-6.893,0-12.5,5.607-12.5,12.5v26.917H24.266C10.886,136.896,0,147.781,0,161.161v134.66C0,299.963,3.357,303.321,7.5,303.321z
		 M188.962,112.479h131.076v24.417H188.962V112.479z"/>
	<path d="M474.325,256.621c4.143,0,7.5-3.357,7.5-7.5v-76.725c0-4.143-3.357-7.5-7.5-7.5H35.55c-4.143,0-7.5,3.357-7.5,7.5v204.5
		c0,4.143,3.357,7.5,7.5,7.5h438.775c4.143,0,7.5-3.357,7.5-7.5v-97.775c0-4.143-3.357-7.5-7.5-7.5s-7.5,3.357-7.5,7.5v90.275H43.05
		v-189.5h423.775v69.225C466.825,253.263,470.183,256.621,474.325,256.621z"/>
	<path d="M104.02,338.867V210.693c0-3.624-3.624-5.723-7.058-5.723c-2.288,0-3.624,1.145-4.959,2.479
		c-18.998,22.799-20.98,23.627-20.98,27.466c0,5.464,5.883,9.189,9.918,4.578l7.058-10.49v109.863
		C87.998,346.496,104.02,346.495,104.02,338.867z"/>
	<path d="M122.707,320.365v18.502c0,3.433,4.196,5.722,7.248,5.722h67.901c3.052,0,5.531-3.624,5.531-7.248
		c0-4.005-2.479-7.248-5.531-7.248h-58.556v-9.728c0-23.842,62.942-37.002,62.942-78.01c0-21.554-17.166-37.193-39.291-37.193
		c-20.409,0-37.193,13.351-37.193,32.615c0,7.058,2.67,9.346,7.248,9.346c5.341,0,8.393-3.052,8.393-6.294
		c0-14.114,9.346-20.79,21.553-20.79c16.021,0,23.27,12.017,23.27,22.888C186.222,274.398,122.707,289.084,122.707,320.365z"/>
	<path d="M228.943,234.058c-5.723,0-9.918,4.578-9.918,10.109c0,5.149,4.195,9.918,9.918,9.918c5.341,0,9.728-4.769,9.728-9.918
		C238.671,238.636,234.284,234.058,228.943,234.058z"/>
	<path d="M228.943,295.665c-5.723,0-9.918,4.578-9.918,10.109c0,5.149,4.195,9.918,9.918,9.918c5.341,0,9.728-4.769,9.728-9.918
		C238.671,300.243,234.284,295.665,228.943,295.665z"/>
	<path d="M259.269,246.742v57.411c0,30.326,17.93,41.58,41.008,41.58c23.079,0,41.199-11.254,41.199-41.58v-57.411
		c0-30.327-18.12-41.58-41.199-41.58C277.198,205.162,259.269,216.415,259.269,246.742z M325.454,246.742v57.411
		c0,18.501-9.537,27.084-25.178,27.084c-15.64,0-24.986-8.583-24.986-27.084v-57.411c0-18.502,9.347-27.085,24.986-27.085
		C315.917,219.657,325.454,228.24,325.454,246.742z"/>
	<path d="M422.532,338.867v-26.322h10.108c3.242,0,5.723-3.814,5.723-7.629s-1.908-7.629-5.723-7.629h-10.108v-32.044
		c0-7.4-16.022-7.401-16.022,0v32.044h-32.997c44.754-89.308,42.534-83.83,42.534-85.831c0-5.448-10.66-10.042-15.068-1.717
		c-50.518,100.236-48.064,93.201-48.064,96.512c0,3.814,2.288,6.294,5.912,6.294h47.684v26.322
		C406.51,346.495,422.532,346.496,422.532,338.867z"/>
</g>
<g>
</g>
<g>
</g>
<g>
</g>
<g>
</g>
<g>
</g>
<g>
</g>
<g>
</g>
<g>
</g>
<g>
</g>
<g>
</g>
<g>
</g>
<g>
</g>
<g>
</g>
<g>
</g>
<g>
</g>
</svg>
