<?xml version="1.0" encoding="iso-8859-1"?>
<!-- Generator: Adobe Illustrator 19.0.0, SVG Export Plug-In . SVG Version: 6.00 Build 0)  -->
<svg version="1.1" id="Layer_1" xmlns="http://www.w3.org/2000/svg" xmlns:xlink="http://www.w3.org/1999/xlink" x="0px" y="0px"
	 viewBox="0 0 510.456 510.456" style="enable-background:new 0 0 510.456 510.456;" xml:space="preserve">
<g>
	<path d="M316.648,363.431c-4.143,0-7.5,3.357-7.5,7.5v92.748c0,17.521-14.255,31.776-31.777,31.776H124.007
		c-17.521,0-31.776-14.255-31.776-31.776V201.762c0-4.143-3.357-7.5-7.5-7.5s-7.5,3.357-7.5,7.5v261.917
		c0,25.793,20.983,46.776,46.776,46.776h153.363c25.793,0,46.777-20.983,46.777-46.776v-92.748
		C324.148,366.789,320.791,363.431,316.648,363.431z"/>
	<path d="M277.371,109.472H124.007c-25.793,0-46.776,20.983-46.776,46.776v15.514c0,4.143,3.357,7.5,7.5,7.5s7.5-3.357,7.5-7.5
		v-15.514c0-17.521,14.255-31.776,31.776-31.776h153.363c17.522,0,31.777,14.255,31.777,31.776v184.683c0,4.143,3.357,7.5,7.5,7.5
		s7.5-3.357,7.5-7.5V156.248C324.148,130.456,303.164,109.472,277.371,109.472z"/>
	<path d="M120.093,354.328c0,20.1,16.352,36.451,36.451,36.451s36.451-16.352,36.451-36.451s-16.352-36.451-36.451-36.451
		S120.093,334.228,120.093,354.328z M156.544,332.876c11.828,0,21.451,9.623,21.451,21.451s-9.623,21.451-21.451,21.451
		s-21.451-9.623-21.451-21.451S144.716,332.876,156.544,332.876z"/>
	<path d="M208.382,354.328c0,20.1,16.353,36.451,36.452,36.451s36.451-16.352,36.451-36.451s-16.352-36.451-36.451-36.451
		S208.382,334.228,208.382,354.328z M266.286,354.328c0,11.828-9.623,21.451-21.451,21.451c-11.829,0-21.452-9.623-21.452-21.451
		s9.623-21.451,21.452-21.451C256.663,332.876,266.286,342.499,266.286,354.328z"/>
	<path d="M143.458,458.172c-3.277-2.529-7.989-1.926-10.52,1.355c-2.53,3.279-1.924,7.989,1.355,10.52
		c23.737,18.318,58.702,1.456,58.702-28.873c0-20.1-16.352-36.451-36.451-36.451c-18.423,0-33.979,13.776-36.187,32.044
		c-0.496,4.112,2.435,7.849,6.547,8.346c4.109,0.49,7.849-2.435,8.346-6.547c1.297-10.742,10.451-18.843,21.294-18.843
		c11.828,0,21.451,9.623,21.451,21.451C177.996,459.056,157.384,468.917,143.458,458.172z"/>
	<path d="M244.835,404.723c-20.1,0-36.452,16.352-36.452,36.451s16.353,36.451,36.452,36.451s36.451-16.352,36.451-36.451
		S264.934,404.723,244.835,404.723z M244.835,462.625c-11.829,0-21.452-9.623-21.452-21.451s9.623-21.451,21.452-21.451
		c11.828,0,21.451,9.623,21.451,21.451S256.663,462.625,244.835,462.625z"/>
	<path d="M148.712,226.833c0,28.66,23.316,51.977,51.977,51.977s51.977-23.316,51.977-51.977c0-28.659-23.316-51.976-51.977-51.976
		S148.712,198.174,148.712,226.833z M200.689,189.858c20.389,0,36.977,16.587,36.977,36.976s-16.588,36.977-36.977,36.977
		s-36.977-16.588-36.977-36.977S180.3,189.858,200.689,189.858z"/>
	<path d="M188.62,171.069l12.062-11.085c10.933,9.311,12.271,13.063,17.15,13.063c6.792,0,10.115-8.398,5.073-13.025l-17.155-15.745
		c-2.87-2.634-7.278-2.633-10.146,0.003l-17.134,15.745c-3.05,2.803-3.25,7.547-0.447,10.598
		C180.825,173.67,185.57,173.87,188.62,171.069z"/>
	<path d="M223.356,283.046c-2.804-3.051-7.549-3.25-10.598-0.447l-12.062,11.085l-12.081-11.088
		c-3.052-2.802-7.797-2.598-10.597,0.454c-2.801,3.052-2.598,7.796,0.454,10.597l17.155,15.745
		c2.871,2.635,7.279,2.632,10.146-0.003l17.134-15.745C225.959,290.841,226.159,286.097,223.356,283.046z"/>
	<path d="M256.906,249.503c3.048,2.798,7.793,2.601,10.597-0.454l15.744-17.155c2.634-2.87,2.633-7.278-0.003-10.146L267.5,204.615
		c-2.804-3.05-7.549-3.25-10.598-0.447c-3.05,2.803-3.25,7.547-0.447,10.598l11.084,12.061l-11.087,12.081
		C253.651,241.958,253.854,246.703,256.906,249.503z"/>
	<path d="M144.473,204.165c-3.052-2.803-7.797-2.599-10.597,0.454l-15.745,17.155c-2.634,2.87-2.633,7.278,0.003,10.146
		l15.745,17.133c2.81,3.057,7.554,3.243,10.598,0.447c3.05-2.803,3.25-7.548,0.447-10.598l-11.085-12.061l11.088-12.081
		C147.728,211.709,147.525,206.965,144.473,204.165z"/>
	<path d="M274.687,4.42c-4.001,1.073-6.375,5.186-5.302,9.187c1.073,4.002,5.192,6.379,9.187,5.302
		c83.763-22.462,160.106,55.994,134.66,139.284c-1.21,3.961,1.021,8.154,4.981,9.364c3.972,1.21,8.156-1.027,9.364-4.981
		C456.469,68.009,369.793-21.082,274.687,4.42z"/>
	<path d="M275.466,38.662c-3.969,1.188-6.223,5.367-5.036,9.335c1.187,3.969,5.366,6.217,9.335,5.036
		C342.198,34.355,399.9,93.58,379.137,155.662c-1.313,3.929,0.807,8.178,4.734,9.492c3.94,1.317,8.182-0.818,9.492-4.734
		C418.041,86.625,349.301,16.575,275.466,38.662z"/>
	<path d="M276.237,74.046c-3.924,1.325-6.031,5.582-4.705,9.506c1.325,3.925,5.58,6.029,9.506,4.705
		c40.237-13.595,77.531,25.539,63.105,64.78c-1.43,3.888,0.563,8.198,4.451,9.627c3.881,1.43,8.197-0.561,9.627-4.451
		C376.954,107.26,328.499,56.393,276.237,74.046z"/>
</g>
<g>
</g>
<g>
</g>
<g>
</g>
<g>
</g>
<g>
</g>
<g>
</g>
<g>
</g>
<g>
</g>
<g>
</g>
<g>
</g>
<g>
</g>
<g>
</g>
<g>
</g>
<g>
</g>
<g>
</g>
</svg>
