<?xml version="1.0" encoding="iso-8859-1"?>
<!-- Generator: Adobe Illustrator 19.0.0, SVG Export Plug-In . SVG Version: 6.00 Build 0)  -->
<svg version="1.1" id="Layer_1" xmlns="http://www.w3.org/2000/svg" xmlns:xlink="http://www.w3.org/1999/xlink" x="0px" y="0px"
	 viewBox="0 0 495.111 495.111" style="enable-background:new 0 0 495.111 495.111;" xml:space="preserve">
<g>
	<rect x="36.283" y="228.906" style="fill:#A6E0EC;" width="421.479" height="253.283"/>
	<path style="fill:#2CB3CD;" d="M488.541,248.19H5.481c-1.98,0-3.16-2.21-2.07-3.86l14.62-21.97c0-0.01,34.66-52.1,48.98-73.62
		c0.46-0.69,1.24-1.11,2.07-1.11h355.29c0.83,0,1.6,0.41,2.06,1.1c26.64,39.69,34,50.66,45.73,68.13
		c4.84,7.22,10.43,15.54,18.44,27.47C491.711,245.97,490.531,248.19,488.541,248.19z"/>
	<path style="fill:#44BFD7;" d="M472.161,216.86H63.511c-1.98,0-3.16-2.21-2.07-3.86l14.62-21.97c0-0.01,14.67-22.06,28.87-43.4
		h319.44c0.83,0,1.6,0.41,2.06,1.1C453.071,188.42,460.431,199.39,472.161,216.86z"/>
	<g>
		<path style="fill:#269AB1;" d="M134.022,187.873c13.375,0,301.873-0.003,318.678-0.003l-10.07-15
			c-16.323,0-307.915,0.003-308.608,0.003c-4.142,0-7.5,3.358-7.5,7.5S129.88,187.873,134.022,187.873z"/>
		<path style="fill:#269AB1;" d="M111.521,180.37c0-4.14-3.36-7.5-7.5-7.5h-53.06l-9.98,15h63.04
			C108.161,187.87,111.521,184.51,111.521,180.37z"/>
		<polygon style="fill:#269AB1;" points="465.781,207.36 28.011,207.36 18.031,222.36 475.851,222.36 		"/>
	</g>
	<path style="fill:#DEF4F8;" d="M110.584,431.189H66.46c-3.003,0-5.438-2.435-5.438-5.438V284.627c0-3.003,2.435-5.438,5.438-5.438
		h44.124c3.003,0,5.438,2.435,5.438,5.438v141.124C116.022,428.754,113.588,431.189,110.584,431.189z"/>
	<path style="fill:#DEF4F8;" d="M427.584,431.189H383.46c-3.003,0-5.438-2.435-5.438-5.438V284.627c0-3.003,2.435-5.438,5.438-5.438
		h44.124c3.003,0,5.438,2.435,5.438,5.438v141.124C433.022,428.754,430.588,431.189,427.584,431.189z"/>
	<g>
		<path style="fill:#269AB1;" d="M92.932,303.672l-12.504,13.77c-2.785,3.066-2.556,7.81,0.51,10.594
			c1.437,1.305,3.241,1.948,5.04,1.948c2.041,0,4.075-0.828,5.555-2.458l12.504-13.77c2.785-3.066,2.556-7.81-0.51-10.594
			C100.46,300.376,95.716,300.605,92.932,303.672z"/>
		<path style="fill:#269AB1;" d="M92.932,376.063l-7.562,8.327c-2.785,3.066-2.556,7.81,0.51,10.594
			c1.437,1.305,3.241,1.948,5.04,1.948c2.041,0,4.075-0.828,5.555-2.458l7.562-8.327c2.785-3.066,2.556-7.81-0.51-10.594
			C100.46,372.767,95.716,372.996,92.932,376.063z"/>
		<path style="fill:#269AB1;" d="M97.784,344.877c2.785-3.066,2.556-7.81-0.51-10.594c-3.067-2.785-7.81-2.556-10.594,0.51
			l-12.504,13.771c-2.785,3.066-2.556,7.81,0.51,10.594c1.437,1.305,3.241,1.948,5.04,1.948c2.041,0,4.075-0.828,5.555-2.458
			L97.784,344.877z"/>
		<path style="fill:#269AB1;" d="M402.394,329.984c2.041,0,4.075-0.828,5.555-2.458l12.504-13.77
			c2.785-3.066,2.556-7.81-0.51-10.594c-3.066-2.785-7.81-2.556-10.594,0.51l-12.504,13.77c-2.785,3.066-2.556,7.81,0.51,10.594
			C398.791,329.341,400.595,329.984,402.394,329.984z"/>
		<path style="fill:#269AB1;" d="M409.348,376.063l-7.562,8.327c-2.785,3.066-2.556,7.81,0.51,10.594
			c1.437,1.305,3.241,1.948,5.04,1.948c2.041,0,4.075-0.828,5.555-2.458l7.562-8.327c2.785-3.066,2.556-7.81-0.51-10.594
			C416.876,372.767,412.132,372.996,409.348,376.063z"/>
		<path style="fill:#269AB1;" d="M414.201,344.877c2.785-3.066,2.556-7.81-0.51-10.594c-3.067-2.785-7.81-2.556-10.594,0.51
			l-12.504,13.771c-2.785,3.066-2.556,7.81,0.51,10.594c1.437,1.305,3.241,1.948,5.04,1.948c2.041,0,4.075-0.828,5.555-2.458
			L414.201,344.877z"/>
	</g>
	<path style="fill:#1AB975;" d="M495.111,101.53c0,51.03-37.9,93.38-87.04,100.36c-4.68,0.68-9.47,1.02-14.34,1.02
		c-55.91,0-101.39-45.48-101.39-101.38c0-55.91,45.48-101.39,101.39-101.39c4.87,0,9.66,0.34,14.34,1.02
		C457.211,8.14,495.111,50.49,495.111,101.53z"/>
	<path style="fill:#1ED688;" d="M495.111,101.53c0,51.03-37.9,93.38-87.04,100.36c-49.14-6.97-87.06-49.32-87.06-100.36
		c0-51.04,37.92-93.4,87.06-100.37C457.211,8.14,495.111,50.49,495.111,101.53z"/>
	<g>
		<path style="fill:#106E46;" d="M470.935,87.24c-15.348-28.851-45.182-46.773-77.861-46.773c-31.42,0-60.704,16.921-76.424,44.161
			c-2.07,3.588-0.84,8.174,2.747,10.245c3.587,2.068,8.174,0.839,10.245-2.747c13.049-22.612,37.355-36.659,63.432-36.659
			c27.121,0,51.88,14.875,64.618,38.818c1.349,2.535,3.944,3.979,6.628,3.979c1.188,0,2.394-0.283,3.516-0.88
			C471.493,95.439,472.88,90.897,470.935,87.24z"/>
		<path style="fill:#106E46;" d="M392.964,65.296c-24.841,0-47.62,13.619-59.445,35.542c-1.966,3.646-0.605,8.195,3.041,10.162
			c3.645,1.967,8.195,0.605,10.162-3.041c9.204-17.063,26.923-27.663,46.243-27.663c20.031,0,38.049,11.176,47.023,29.167
			c1.313,2.632,3.963,4.154,6.717,4.154c1.125,0,2.267-0.254,3.342-0.79c3.707-1.849,5.212-6.352,3.364-10.059
			C441.881,79.654,418.72,65.296,392.964,65.296z"/>
		<path style="fill:#106E46;" d="M392.909,91.511c-17.923,0-34.009,10.003-41.979,26.105c-1.837,3.712-0.318,8.211,3.395,10.049
			c3.711,1.837,8.211,0.317,10.049-3.395c5.422-10.955,16.356-17.76,28.536-17.76c12.351,0,23.692,7.266,28.892,18.512
			c1.268,2.74,3.979,4.354,6.813,4.354c1.053,0,2.124-0.223,3.143-0.694c3.759-1.739,5.398-6.196,3.66-9.956
			C427.771,102.194,411.086,91.511,392.909,91.511z"/>
	</g>
	<path style="fill:#106E46;" d="M392.909,155.09c-8.484,0-15.386-6.902-15.386-15.386s6.902-15.386,15.386-15.386
		c8.484,0,15.386,6.902,15.386,15.386S401.393,155.09,392.909,155.09z"/>
	<polygon style="fill:#C2EAF2;" points="353.481,245.71 353.481,482.19 140.561,482.19 140.561,245.71 247.021,147.63 
		262.281,161.69 	"/>
	<path style="fill:#DEF4F8;" d="M353.481,245.71v236.48h-173.27V261.438c0-10.083,3.944-19.765,10.99-26.978l71.08-72.769
		L353.481,245.71z"/>
	<path style="fill:#A6E0EC;" d="M289.404,481.136h-84.763V324.773c0-3.202,2.596-5.798,5.798-5.798h73.167
		c3.202,0,5.798,2.596,5.798,5.798V481.136z"/>
	<path style="fill:#269AB1;" d="M230.022,377.768c-4.142,0-7.5,3.358-7.5,7.5v17.921c0,4.142,3.358,7.5,7.5,7.5s7.5-3.358,7.5-7.5
		v-17.921C237.522,381.126,234.165,377.768,230.022,377.768z"/>
	<path style="fill:#7CD2E3;" d="M368.173,244.29L255.739,131.856c-4.783-4.783-12.632-4.802-17.434,0L125.872,244.289
		c-4.781,4.781-4.781,12.531,0,17.312l4.6,4.6c4.781,4.781,12.532,4.781,17.312,0l99.238-99.238l99.238,99.238
		c4.781,4.781,12.532,4.781,17.312,0l4.6-4.6C372.953,256.821,372.953,249.07,368.173,244.29z"/>
	<path style="fill:#44BFD7;" d="M489.582,494.97H4.439c-2.452,0-4.439-1.988-4.439-4.439v-13.909c0-2.452,1.988-4.439,4.439-4.439
		h485.143c2.452,0,4.439,1.988,4.439,4.439v13.909C494.022,492.983,492.034,494.97,489.582,494.97z"/>
</g>
<g>
</g>
<g>
</g>
<g>
</g>
<g>
</g>
<g>
</g>
<g>
</g>
<g>
</g>
<g>
</g>
<g>
</g>
<g>
</g>
<g>
</g>
<g>
</g>
<g>
</g>
<g>
</g>
<g>
</g>
</svg>
