<?xml version="1.0" encoding="iso-8859-1"?>
<!-- Generator: Adobe Illustrator 19.0.0, SVG Export Plug-In . SVG Version: 6.00 Build 0)  -->
<svg version="1.1" id="Layer_1" xmlns="http://www.w3.org/2000/svg" xmlns:xlink="http://www.w3.org/1999/xlink" x="0px" y="0px"
	 viewBox="0 0 494.963 494.963" style="enable-background:new 0 0 494.963 494.963;" xml:space="preserve">
<g>
	<rect x="36.509" y="228.899" style="fill:#FFC14F;" width="421.479" height="253.283"/>
	<path style="fill:#954C35;" d="M488.767,248.183H5.707c-1.98,0-3.16-2.21-2.07-3.86l14.62-21.97c0-0.01,34.66-52.1,48.98-73.62
		c0.46-0.69,1.24-1.11,2.07-1.11h355.29c0.83,0,1.6,0.41,2.06,1.1c26.64,39.69,34,50.66,45.73,68.13
		c4.84,7.22,10.43,15.54,18.44,27.47C491.937,245.963,490.757,248.183,488.767,248.183z"/>
	<path style="fill:#AE583E;" d="M472.387,216.853H63.737c-1.98,0-3.16-2.21-2.07-3.86l14.62-21.97c0-0.01,14.67-22.06,28.87-43.4
		h319.44c0.83,0,1.6,0.41,2.06,1.1C453.297,188.413,460.657,199.383,472.387,216.853z"/>
	<g>
		<path style="fill:#7C3F2C;" d="M134.249,187.866h140c4.142,0,7.5-3.358,7.5-7.5s-3.358-7.5-7.5-7.5h-140
			c-4.142,0-7.5,3.358-7.5,7.5S130.107,187.866,134.249,187.866z"/>
		<path style="fill:#7C3F2C;" d="M452.927,187.863h-148.68c-4.14,0-7.5-3.36-7.5-7.5s3.36-7.5,7.5-7.5h138.61L452.927,187.863z"/>
		<path style="fill:#7C3F2C;" d="M111.747,180.363c0,4.14-3.36,7.5-7.5,7.5h-63.04l9.98-15h53.06
			C108.387,172.863,111.747,176.223,111.747,180.363z"/>
		<polygon style="fill:#7C3F2C;" points="476.077,222.353 18.257,222.353 28.237,207.353 466.007,207.353 		"/>
	</g>
	<path style="fill:#FFE7C0;" d="M110.811,431.182H66.687c-3.003,0-5.438-2.435-5.438-5.438V284.62c0-3.003,2.435-5.438,5.438-5.438
		h44.124c3.003,0,5.438,2.435,5.438,5.438v141.124C116.249,428.747,113.814,431.182,110.811,431.182z"/>
	<path style="fill:#FFE7C0;" d="M427.811,431.182h-44.124c-3.003,0-5.438-2.435-5.438-5.438V284.62c0-3.003,2.435-5.438,5.438-5.438
		h44.124c3.003,0,5.438,2.435,5.438,5.438v141.124C433.249,428.747,430.814,431.182,427.811,431.182z"/>
	<g>
		<path style="fill:#FFC14F;" d="M93.159,303.665l-12.504,13.77c-2.785,3.066-2.556,7.81,0.51,10.594
			c1.437,1.305,3.241,1.948,5.04,1.948c2.041,0,4.075-0.828,5.555-2.458l12.504-13.77c2.785-3.066,2.556-7.81-0.51-10.594
			C100.686,300.369,95.943,300.598,93.159,303.665z"/>
		<path style="fill:#FFC14F;" d="M93.159,376.056l-7.562,8.327c-2.785,3.066-2.556,7.81,0.51,10.594
			c1.437,1.305,3.241,1.948,5.04,1.948c2.041,0,4.075-0.828,5.555-2.458l7.562-8.327c2.785-3.066,2.556-7.81-0.51-10.594
			C100.686,372.76,95.943,372.989,93.159,376.056z"/>
		<path style="fill:#FFC14F;" d="M98.011,344.87c2.785-3.066,2.556-7.81-0.51-10.594c-3.067-2.785-7.81-2.556-10.594,0.51
			l-12.504,13.771c-2.785,3.066-2.556,7.81,0.51,10.594c1.437,1.305,3.241,1.948,5.04,1.948c2.041,0,4.075-0.828,5.555-2.458
			L98.011,344.87z"/>
		<path style="fill:#FFC14F;" d="M402.62,329.977c2.041,0,4.075-0.828,5.555-2.458l12.504-13.77c2.785-3.066,2.556-7.81-0.51-10.594
			c-3.066-2.785-7.81-2.556-10.594,0.51l-12.504,13.77c-2.785,3.066-2.556,7.81,0.51,10.594
			C399.017,329.334,400.821,329.977,402.62,329.977z"/>
		<path style="fill:#FFC14F;" d="M409.575,376.056l-7.562,8.327c-2.785,3.066-2.556,7.81,0.51,10.594
			c1.437,1.305,3.241,1.948,5.04,1.948c2.041,0,4.075-0.828,5.555-2.458l7.562-8.327c2.785-3.066,2.556-7.81-0.51-10.594
			C417.102,372.76,412.359,372.989,409.575,376.056z"/>
		<path style="fill:#FFC14F;" d="M414.427,344.87c2.785-3.066,2.556-7.81-0.51-10.594c-3.067-2.785-7.81-2.556-10.594,0.51
			l-12.504,13.771c-2.785,3.066-2.556,7.81,0.51,10.594c1.437,1.305,3.241,1.948,5.04,1.948c2.041,0,4.075-0.828,5.555-2.458
			L414.427,344.87z"/>
	</g>
	<polygon style="fill:#FFD993;" points="353.707,245.703 353.707,482.183 140.787,482.183 140.787,245.703 247.247,147.623 
		262.507,161.683 	"/>
	<path style="fill:#FFE7C0;" d="M353.707,245.703v236.48h-173.27V261.431c0-10.083,3.944-19.765,10.99-26.978l71.08-72.769
		L353.707,245.703z"/>
	<path style="fill:#AE583E;" d="M289.63,481.129h-84.763V324.766c0-3.202,2.596-5.798,5.798-5.798h73.167
		c3.202,0,5.798,2.596,5.798,5.798V481.129z"/>
	<path style="fill:#7C3F2C;" d="M230.249,377.761c-4.142,0-7.5,3.358-7.5,7.5v17.921c0,4.142,3.358,7.5,7.5,7.5s7.5-3.358,7.5-7.5
		v-17.921C237.749,381.119,234.391,377.761,230.249,377.761z"/>
	<path style="fill:#C0694E;" d="M368.399,244.283L255.965,131.849c-4.783-4.783-12.632-4.802-17.434,0L126.098,244.282
		c-4.781,4.781-4.781,12.531,0,17.312l4.6,4.6c4.781,4.781,12.532,4.781,17.312,0l99.238-99.238l99.238,99.238
		c4.781,4.781,12.532,4.781,17.312,0l4.6-4.6C373.18,256.814,373.18,249.063,368.399,244.283z"/>
	<path style="fill:#A6E0EC;" d="M473.859,61.358v83.684c0,7.49-6.085,13.575-13.575,13.575c-7.48,0-13.575-6.085-13.575-13.575
		V61.358c0-18.864-15.344-34.208-34.208-34.208h-0.412c-18.668,0.225-33.787,15.484-33.787,34.208v97.259
		c0,7.49-6.095,13.575-13.575,13.575c-7.49,0-13.575-6.085-13.575-13.575V61.358C351.152,27.524,378.676,0,412.501,0
		c6.9,0,13.528,1.142,19.726,3.249C456.408,11.487,473.859,34.424,473.859,61.358z"/>
	<path style="fill:#44BFD7;" d="M494.737,121.034v157.61c0,6.26-5.07,11.33-11.33,11.33h-141.8c-6.26,0-11.33-5.07-11.33-11.33
		v-157.61c0-6.26,5.07-11.34,11.33-11.34h141.8C489.667,109.693,494.737,114.774,494.737,121.034z"/>
	<path style="fill:#60C8DD;" d="M483.407,109.693h-109.88c-6.26,0-11.34,5.08-11.34,11.34v116.79c0,28.8,23.35,52.15,52.16,52.15
		h69.06c6.26,0,11.33-5.07,11.33-11.33v-157.61C494.737,114.774,489.667,109.693,483.407,109.693z"/>
	<path style="fill:#7C3F2C;" d="M489.809,494.963H4.666c-2.452,0-4.439-1.988-4.439-4.439v-13.909c0-2.452,1.988-4.439,4.439-4.439
		h485.143c2.452,0,4.439,1.988,4.439,4.439v13.909C494.248,492.976,492.26,494.963,489.809,494.963z"/>
	<path style="fill:#269AB1;" d="M436.608,182.896c0,8.033-3.932,15.147-9.97,19.529c-0.449,0.318-0.833,0.702-1.151,1.124
		c-0.815,1.03-1.255,2.312-1.255,3.642v21.963c0,6.834-5.926,12.348-12.891,11.665c-6.066-0.59-10.56-5.936-10.56-12.03v-21.598
		c0-1.9-0.927-3.689-2.462-4.812c-6.572-4.784-10.626-12.807-9.811-21.729c1.058-11.702,10.71-21.074,22.45-21.804
		c5.374-0.337,10.401,1.086,14.558,3.773C432.189,166.888,436.608,174.377,436.608,182.896z"/>
</g>
<g>
</g>
<g>
</g>
<g>
</g>
<g>
</g>
<g>
</g>
<g>
</g>
<g>
</g>
<g>
</g>
<g>
</g>
<g>
</g>
<g>
</g>
<g>
</g>
<g>
</g>
<g>
</g>
<g>
</g>
</svg>
