<?xml version="1.0" encoding="iso-8859-1"?>
<!-- Generator: Adobe Illustrator 19.0.0, SVG Export Plug-In . SVG Version: 6.00 Build 0)  -->
<svg version="1.1" id="Layer_1" xmlns="http://www.w3.org/2000/svg" xmlns:xlink="http://www.w3.org/1999/xlink" x="0px" y="0px"
	 viewBox="0 0 493.052 493.052" style="enable-background:new 0 0 493.052 493.052;" xml:space="preserve">
<g>
	<rect x="125.358" y="225.696" style="fill:#A2ABB8;" width="331.422" height="253.283"/>
	<path style="fill:#FFC14F;" d="M487.567,244.981h-393c-1.98,0-3.16-2.21-2.06-3.86c-0.067,0.1,42-63.139,63.59-95.59
		c0.46-0.69,1.24-1.11,2.07-1.11h265.23c0.83,0,1.6,0.41,2.06,1.1c70.314,104.764,45.168,67.292,64.17,95.6
		C490.737,242.761,489.557,244.981,487.567,244.981z"/>
	<g>
		<path style="fill:#FFA90B;" d="M393.907,177.161c0,4.14-3.36,7.5-7.5,7.5h-256.34l9.98-15h246.36
			C390.547,169.661,393.907,173.021,393.907,177.161z"/>
		<path style="fill:#FFA90B;" d="M451.727,184.661h-35.32c-4.15,0-7.5-3.36-7.5-7.5s3.35-7.5,7.5-7.5h25.25L451.727,184.661z"/>
		<polygon style="fill:#FFA90B;" points="474.877,219.151 107.127,219.151 117.097,204.151 464.807,204.151 		"/>
	</g>
	<polygon style="fill:#C8D2DC;" points="397.527,242.501 397.527,478.981 184.607,478.981 184.607,242.501 291.067,144.421 
		307.287,159.361 	"/>
	<path style="fill:#DCE6EB;" d="M397.527,242.501v236.48h-178.77v-220.72c0-5.31,2.08-10.41,5.79-14.21l82.74-84.69L397.527,242.501
		z"/>
	<path style="fill:#AE583E;" d="M333.451,477.927h-84.763V321.563c0-3.202,2.596-5.798,5.798-5.798h73.167
		c3.202,0,5.798,2.596,5.798,5.798V477.927z"/>
	<path style="fill:#127D4F;" d="M488.613,491.761H93.526c-2.452,0-4.439-1.988-4.439-4.439v-13.909c0-2.452,1.988-4.439,4.439-4.439
		h395.086c2.452,0,4.439,1.988,4.439,4.439v13.909C493.052,489.773,491.064,491.761,488.613,491.761z"/>
	<path style="fill:#7C3F2C;" d="M274.07,374.559c-4.143,0-7.5,3.358-7.5,7.5v17.921c0,4.142,3.357,7.5,7.5,7.5s7.5-3.358,7.5-7.5
		v-17.921C281.57,377.917,278.212,374.559,274.07,374.559z"/>
	<path style="fill:#1AB975;" d="M228.417,468.971h-121.11c-1.21-2.76-1.88-5.81-1.88-9.02c0-11.44,8.49-20.89,19.51-22.4
		c1.24-0.17,2.27-1.04,2.62-2.24c3.92-13.54,16.41-23.44,31.22-23.44c4.94,0,9.63,1.11,13.83,3.09c3.42,1.61,6.51,3.8,9.15,6.44
		c4.61,4.61,7.84,10.59,9.02,17.29c0.4,2.24,2.9,3.35,4.83,2.13c3.91-2.48,8.65-3.79,13.7-3.43c11.02,0.78,20.01,9.66,20.9,20.67
		C230.527,461.961,229.857,465.671,228.417,468.971z"/>
	<path style="fill:#1AB975;" d="M474.837,468.971h-121.11c-1.21-2.76-1.88-5.81-1.88-9.02c0-11.44,8.49-20.89,19.52-22.4
		c1.24-0.17,2.26-1.04,2.61-2.24c3.93-13.54,16.41-23.44,31.22-23.44c4.94,0,9.63,1.11,13.83,3.09c3.42,1.61,6.51,3.8,9.15,6.44
		c4.61,4.61,7.85,10.59,9.03,17.29c0.4,2.24,2.89,3.35,4.82,2.13c3.92-2.48,8.65-3.79,13.71-3.43c11.01,0.78,20,9.66,20.9,20.67
		C476.957,461.961,476.277,465.671,474.837,468.971z"/>
	<path style="fill:#1ED688;" d="M228.417,468.971h-93.45c-1.21-2.76-1.88-5.81-1.88-9.02c0-11.44,8.49-20.89,19.51-22.4
		c1.24-0.17,2.27-1.04,2.62-2.24c2.61-9.02,9.02-16.42,17.39-20.35c3.42,1.61,6.51,3.8,9.15,6.44c4.61,4.61,7.84,10.59,9.02,17.29
		c0.4,2.24,2.9,3.35,4.83,2.13c3.91-2.48,8.65-3.79,13.7-3.43c11.02,0.78,20.01,9.66,20.9,20.67
		C230.527,461.961,229.857,465.671,228.417,468.971z"/>
	<path style="fill:#1ED688;" d="M474.837,468.971h-93.45c-1.21-2.76-1.88-5.81-1.88-9.02c0-11.44,8.49-20.89,19.52-22.4
		c1.24-0.17,2.26-1.04,2.61-2.24c2.62-9.02,9.03-16.42,17.39-20.35c3.42,1.61,6.51,3.8,9.15,6.44c4.61,4.61,7.85,10.59,9.03,17.29
		c0.4,2.24,2.89,3.35,4.82,2.13c3.92-2.48,8.65-3.79,13.71-3.43c11.01,0.78,20,9.66,20.9,20.67
		C476.957,461.961,476.277,465.671,474.837,468.971z"/>
	<path style="fill:#5F6C75;" d="M397.531,303.511h-20.779c-2.761,0-5-2.239-5-5v-14.64c0-2.761,2.239-5,5-5h20.779V303.511z"/>
	<path style="fill:#7E8B96;" d="M397.531,328.151h-37.845c-2.761,0-5-2.239-5-5v-14.64c0-2.761,2.239-5,5-5h37.845V328.151z"/>
	<path style="fill:#7E8B96;" d="M184.608,382.059h25.779v19.64c0,2.761-2.239,5-5,5h-20.779V382.059z"/>
	<path style="fill:#5F6C75;" d="M184.608,357.418h37.845c2.761,0,5,2.239,5,5v13.65c0,3.308-2.682,5.99-5.99,5.99h-36.854V357.418z"
		/>
	<path style="fill:#F29500;" d="M412.22,241.08L299.786,128.647c-4.783-4.783-12.632-4.802-17.434,0L169.919,241.08
		c-4.781,4.781-4.781,12.531,0,17.312l4.6,4.6c4.781,4.781,12.532,4.781,17.312,0l99.238-99.238l99.238,99.238
		c4.781,4.781,12.532,4.781,17.312,0l4.6-4.6C417,253.612,417,245.861,412.22,241.08z"/>
	<path style="fill:#60C8DD;" d="M184.608,338.778c0,11.55-9.363,20.913-20.913,20.913H20.913C9.363,359.69,0,350.328,0,338.778
		V22.204C0,10.654,9.363,1.291,20.913,1.291h142.783c11.55,0,20.913,9.363,20.913,20.913V338.778z"/>
	<path style="fill:#2CB3CD;" d="M86.041,1.291H62.165H27.238l9.335,40.416c0.636,2.755,3.09,4.706,5.917,4.706h99.627
		c2.828,0,5.281-1.951,5.917-4.706l9.335-40.416H86.041z"/>
	<path style="fill:#C2EAF2;" d="M161.847,76.851v249.2c0,2.76-2.24,5-5,5H27.767c-2.76,0-5-2.24-5-5v-249.2c0-2.76,2.24-5,5-5
		h129.08C159.607,71.851,161.847,74.091,161.847,76.851z"/>
	<path style="fill:#DEF4F8;" d="M161.847,76.851v249.2c0,2.76-2.24,5-5,5h-106.3c-2.76,0-5-2.24-5-5v-249.2c0-2.76,2.24-5,5-5h106.3
		C159.607,71.851,161.847,74.091,161.847,76.851z"/>
	<g>
		<path style="fill:#269AB1;" d="M153.27,177.632c-25.731-48.368-94.565-49.267-121.807-2.063c-2.07,3.587-0.84,8.174,2.748,10.245
			c3.586,2.069,8.173,0.84,10.245-2.748c21.39-37.066,75.393-36.321,95.573,1.611c1.945,3.657,6.486,5.044,10.144,3.099
			C153.828,185.83,155.216,181.288,153.27,177.632z"/>
		<path style="fill:#269AB1;" d="M44.427,192.095c-1.966,3.646-0.605,8.195,3.041,10.162c3.645,1.966,8.195,0.606,10.162-3.041
			c14.888-27.599,54.676-27.1,68.746,1.109c1.852,3.713,6.359,5.21,10.059,3.364c3.707-1.849,5.212-6.353,3.364-10.059
			C120.28,154.498,65.049,153.865,44.427,192.095z"/>
		<path style="fill:#269AB1;" d="M57.805,209.07c-1.837,3.712-0.317,8.211,3.395,10.048c3.712,1.837,8.211,0.317,10.048-3.395
			c8.569-17.312,33.126-16.712,41.102,0.538c1.748,3.778,6.213,5.39,9.956,3.66c3.759-1.739,5.398-6.196,3.66-9.956
			C112.746,181.378,71.994,180.4,57.805,209.07z"/>
		<path style="fill:#269AB1;" d="M91.672,211.497c-10.667,0-19.346,8.679-19.346,19.347c0,10.667,8.679,19.346,19.346,19.346
			c10.668,0,19.347-8.679,19.347-19.346C111.018,220.176,102.34,211.497,91.672,211.497z M91.672,235.19
			c-2.396,0-4.346-1.95-4.346-4.346c0-2.397,1.95-4.347,4.346-4.347c2.397,0,4.347,1.95,4.347,4.347
			C96.018,233.24,94.069,235.19,91.672,235.19z"/>
	</g>
	<g>
		<path style="fill:#269AB1;" d="M102.145,15.905H55.73c-4.142,0-7.5,3.358-7.5,7.5s3.358,7.5,7.5,7.5h46.415
			c4.142,0,7.5-3.358,7.5-7.5S106.287,15.905,102.145,15.905z"/>
		<circle style="fill:#269AB1;" cx="121.984" cy="23.405" r="6.894"/>
	</g>
</g>
<g>
</g>
<g>
</g>
<g>
</g>
<g>
</g>
<g>
</g>
<g>
</g>
<g>
</g>
<g>
</g>
<g>
</g>
<g>
</g>
<g>
</g>
<g>
</g>
<g>
</g>
<g>
</g>
<g>
</g>
</svg>
