<?xml version="1.0" encoding="iso-8859-1"?>
<!-- Generator: Adobe Illustrator 19.0.0, SVG Export Plug-In . SVG Version: 6.00 Build 0)  -->
<svg version="1.1" id="Layer_1" xmlns="http://www.w3.org/2000/svg" xmlns:xlink="http://www.w3.org/1999/xlink" x="0px" y="0px"
	 viewBox="0 0 494.33 494.33" style="enable-background:new 0 0 494.33 494.33;" xml:space="preserve">
<g>
	<rect x="36.556" y="228.266" style="fill:#A2ABB8;" width="331.422" height="253.283"/>
	<path style="fill:#FFC14F;" d="M398.764,247.55h-393c-1.98,0-3.16-2.21-2.06-3.86c46.586-70.023,9.108-13.69,63.59-95.59
		c0.46-0.69,1.24-1.11,2.07-1.11h265.23c0.83,0,1.6,0.41,2.06,1.1c41.3,61.534,34.365,51.204,64.17,95.6
		C401.934,245.33,400.754,247.55,398.764,247.55z"/>
	<g>
		<path style="fill:#FFA90B;" d="M305.104,179.73c0,4.14-3.36,7.5-7.5,7.5H41.264l9.98-15h246.36
			C301.744,172.23,305.104,175.59,305.104,179.73z"/>
		<path style="fill:#FFA90B;" d="M362.924,187.23h-35.32c-4.15,0-7.5-3.36-7.5-7.5s3.35-7.5,7.5-7.5h25.25L362.924,187.23z"/>
		<polygon style="fill:#FFA90B;" points="386.074,221.72 18.324,221.72 28.294,206.72 376.004,206.72 		"/>
	</g>
	<polygon style="fill:#C8D2DC;" points="308.724,245.07 308.724,481.55 95.804,481.55 95.804,245.07 202.264,146.99 218.484,161.93 
			"/>
	<path style="fill:#DCE6EB;" d="M308.724,245.07v236.48h-178.77V260.83c0-5.31,2.08-10.41,5.79-14.21l82.74-84.69L308.724,245.07z"
		/>
	<path style="fill:#AE583E;" d="M244.648,480.496h-84.763V324.132c0-3.202,2.596-5.798,5.798-5.798h73.167
		c3.202,0,5.798,2.596,5.798,5.798V480.496z"/>
	<path style="fill:#127D4F;" d="M399.81,494.33H4.724c-2.452,0-4.439-1.988-4.439-4.439v-13.909c0-2.452,1.988-4.439,4.439-4.439
		H399.81c2.452,0,4.439,1.988,4.439,4.439v13.909C404.249,492.343,402.262,494.33,399.81,494.33z"/>
	<path style="fill:#7C3F2C;" d="M185.267,377.128c-4.143,0-7.5,3.358-7.5,7.5v17.921c0,4.142,3.357,7.5,7.5,7.5s7.5-3.358,7.5-7.5
		v-17.921C192.767,380.486,189.41,377.128,185.267,377.128z"/>
	<path style="fill:#1AB975;" d="M139.614,471.54H18.504c-1.21-2.76-1.88-5.81-1.88-9.02c0-11.44,8.49-20.89,19.51-22.4
		c1.24-0.17,2.27-1.04,2.62-2.24c3.92-13.54,16.41-23.44,31.22-23.44c4.94,0,9.63,1.11,13.83,3.09c3.42,1.61,6.51,3.8,9.15,6.44
		c4.61,4.61,7.84,10.59,9.02,17.29c0.4,2.24,2.9,3.35,4.83,2.13c3.91-2.48,8.65-3.79,13.7-3.43c11.02,0.78,20.01,9.66,20.9,20.67
		C141.724,464.53,141.054,468.24,139.614,471.54z"/>
	<path style="fill:#1AB975;" d="M386.034,471.54h-121.11c-1.21-2.76-1.88-5.81-1.88-9.02c0-11.44,8.49-20.89,19.52-22.4
		c1.24-0.17,2.26-1.04,2.61-2.24c3.93-13.54,16.41-23.44,31.22-23.44c4.94,0,9.63,1.11,13.83,3.09c3.42,1.61,6.51,3.8,9.15,6.44
		c4.61,4.61,7.85,10.59,9.03,17.29c0.4,2.24,2.89,3.35,4.82,2.13c3.92-2.48,8.65-3.79,13.71-3.43c11.01,0.78,20,9.66,20.9,20.67
		C388.154,464.53,387.474,468.24,386.034,471.54z"/>
	<path style="fill:#1ED688;" d="M139.614,471.54h-93.45c-1.21-2.76-1.88-5.81-1.88-9.02c0-11.44,8.49-20.89,19.51-22.4
		c1.24-0.17,2.27-1.04,2.62-2.24c2.61-9.02,9.02-16.42,17.39-20.35c3.42,1.61,6.51,3.8,9.15,6.44c4.61,4.61,7.84,10.59,9.02,17.29
		c0.4,2.24,2.9,3.35,4.83,2.13c3.91-2.48,8.65-3.79,13.7-3.43c11.02,0.78,20.01,9.66,20.9,20.67
		C141.724,464.53,141.054,468.24,139.614,471.54z"/>
	<path style="fill:#1ED688;" d="M386.034,471.54h-93.45c-1.21-2.76-1.88-5.81-1.88-9.02c0-11.44,8.49-20.89,19.52-22.4
		c1.24-0.17,2.26-1.04,2.61-2.24c2.62-9.02,9.03-16.42,17.39-20.35c3.42,1.61,6.51,3.8,9.15,6.44c4.61,4.61,7.85,10.59,9.03,17.29
		c0.4,2.24,2.89,3.35,4.82,2.13c3.92-2.48,8.65-3.79,13.71-3.43c11.01,0.78,20,9.66,20.9,20.67
		C388.154,464.53,387.474,468.24,386.034,471.54z"/>
	<path style="fill:#5F6C75;" d="M308.728,306.08h-20.779c-2.761,0-5-2.239-5-5v-14.64c0-2.761,2.239-5,5-5h20.779V306.08z"/>
	<path style="fill:#7E8B96;" d="M308.728,330.72h-37.845c-2.761,0-5-2.239-5-5v-14.64c0-2.761,2.239-5,5-5h37.845V330.72z"/>
	<path style="fill:#7E8B96;" d="M95.805,384.628h25.779v19.64c0,2.761-2.239,5-5,5H95.805V384.628z"/>
	<path style="fill:#5F6C75;" d="M95.805,359.988h37.845c2.761,0,5,2.239,5,5v19.64H95.805V359.988z"/>
	<path style="fill:#F29500;" d="M323.417,243.649L210.984,131.216c-4.783-4.783-12.632-4.802-17.434,0L81.116,243.649
		c-4.781,4.781-4.781,12.531,0,17.312l4.6,4.6c4.781,4.781,12.532,4.781,17.312,0l99.238-99.238l99.238,99.238
		c4.781,4.781,12.532,4.781,17.312,0l4.6-4.6C328.198,256.181,328.198,248.43,323.417,243.649z"/>
	<path style="fill:#60C8DD;" d="M494.046,106.09l-0.05,20.85c-0.01,3.26-2.66,5.9-5.92,5.89l-32.13-0.08
		c-2.5-0.01-4.78,1.55-5.6,3.92c-1.72,5.02-3.98,9.78-6.7,14.23c-1.41,2.31-1.04,5.29,0.87,7.21l21.28,21.39
		c2.3,2.31,2.29,6.05-0.02,8.35l-8.23,8.19l-6.55,6.52c-2.31,2.3-6.05,2.29-8.34-0.02l-22.69-22.8c-1.76-1.77-4.46-2.27-6.71-1.17
		c-4.68,2.29-9.64,4.09-14.82,5.34c-2.62,0.63-4.46,3.01-4.47,5.71l-0.07,30.17c-0.01,3.26-2.66,5.89-5.92,5.88l-20.85-0.05
		c-3.26-0.01-5.9-2.66-5.89-5.91l0.08-32.13c0.01-2.51-1.55-4.79-3.92-5.61c-5.02-1.72-9.78-3.98-14.23-6.7
		c-2.31-1.41-5.29-1.04-7.21,0.87l-21.39,21.28c-2.31,2.3-6.05,2.29-8.35-0.02l-14.71-14.78c-2.3-2.31-2.29-6.04,0.02-8.34
		l22.8-22.69c1.77-1.76,2.27-4.46,1.17-6.7c-2.29-4.69-4.09-9.65-5.34-14.83c-0.63-2.62-3.01-4.46-5.71-4.47l-30.17-0.07
		c-3.26-0.01-5.89-2.66-5.88-5.92l0.05-20.85c0.01-3.26,2.66-5.9,5.91-5.89l32.13,0.08c2.51,0.01,4.79-1.55,5.61-3.92
		c1.72-5.01,3.98-9.78,6.7-14.23c1.41-2.31,1.04-5.29-0.87-7.21l-21.28-21.39c-2.3-2.31-2.29-6.05,0.02-8.35l14.78-14.71
		c2.31-2.3,6.04-2.29,8.34,0.02l22.69,22.8c1.76,1.77,4.46,2.27,6.7,1.17c4.69-2.28,9.65-4.09,14.83-5.34
		c2.62-0.63,4.46-3.01,4.47-5.71l0.07-30.18c0.01-3.25,2.65-5.89,5.9-5.89h20.86c3.26,0,5.91,2.65,5.9,5.92l-0.08,32.2
		c-0.01,2.5,1.55,4.78,3.92,5.6c5.01,1.72,9.78,3.98,14.23,6.7c2.31,1.41,5.29,1.04,7.21-0.87l21.39-21.28
		c2.31-2.3,6.05-2.29,8.35,0.02l14.71,14.78c2.3,2.31,2.29,6.05-0.02,8.34l-22.8,22.69c-1.77,1.76-2.27,4.46-1.17,6.71
		c2.28,4.68,4.09,9.64,5.34,14.82c0.63,2.63,3.01,4.46,5.71,4.47l30.17,0.07C491.416,100.18,494.056,102.83,494.046,106.09z"/>
	<path style="fill:#7CD2E3;" d="M494.046,106.09l-0.05,20.85c-0.01,3.26-2.66,5.9-5.92,5.89l-32.13-0.08
		c-2.5-0.01-4.78,1.55-5.6,3.92c-1.72,5.02-3.98,9.78-6.7,14.23c-1.41,2.31-1.04,5.29,0.87,7.21l21.28,21.39
		c2.3,2.31,2.29,6.05-0.02,8.35l-8.23,8.19c-50.77-21.09-86.47-71.16-86.47-129.56c0-24.05,6.06-46.7,16.74-66.48h7.49
		c3.26,0,5.91,2.65,5.9,5.92l-0.08,32.2c-0.01,2.5,1.55,4.78,3.92,5.6c5.01,1.72,9.78,3.98,14.23,6.7c2.31,1.41,5.29,1.04,7.21-0.87
		l21.39-21.28c2.31-2.3,6.05-2.29,8.35,0.02l14.71,14.78c2.3,2.31,2.29,6.05-0.02,8.34l-22.8,22.69c-1.77,1.76-2.27,4.46-1.17,6.71
		c2.28,4.68,4.09,9.64,5.34,14.82c0.63,2.63,3.01,4.46,5.71,4.47l30.17,0.07C491.416,100.18,494.056,102.83,494.046,106.09z"/>
	<circle style="fill:#2CB3CD;" cx="381.22" cy="112.846" r="50.839"/>
	<path style="fill:#269AB1;" d="M404.906,157.82c-25.782,13.814-58.483,2.557-70.32-24.74c-12.891-29.691,4.941-63.675,36.54-70.07
		C370.011,95.041,381.046,130.054,404.906,157.82z"/>
	<circle style="fill:#60C8DD;" cx="381.22" cy="112.846" r="22.617"/>
	<path style="fill:#44BFD7;" d="M388.526,134.25c-8.62,2.95-18.53,0.47-24.7-6.95c-10.019-12.065-4.968-30.307,9.51-35.65
		C376.086,106.84,381.286,121.19,388.526,134.25z"/>
</g>
<g>
</g>
<g>
</g>
<g>
</g>
<g>
</g>
<g>
</g>
<g>
</g>
<g>
</g>
<g>
</g>
<g>
</g>
<g>
</g>
<g>
</g>
<g>
</g>
<g>
</g>
<g>
</g>
<g>
</g>
</svg>
