<?xml version="1.0" encoding="iso-8859-1"?>
<!-- Generator: Adobe Illustrator 19.0.0, SVG Export Plug-In . SVG Version: 6.00 Build 0)  -->
<svg version="1.1" id="Layer_1" xmlns="http://www.w3.org/2000/svg" xmlns:xlink="http://www.w3.org/1999/xlink" x="0px" y="0px"
	 viewBox="0 0 494.152 494.152" style="enable-background:new 0 0 494.152 494.152;" xml:space="preserve">
<g>
	<path style="fill:#DEF4F8;" d="M487.088,352.282c-5.903-0.003,15.543,0.007-30.678-0.013c3.901,0,7.064-3.163,7.064-7.064V330.28
		c0-3.901-3.163-7.064-7.064-7.064h-16.602V158.421l30.772,30.833c3.964,3.964,10.391,3.964,14.354,0l3.814-3.814
		c3.964-3.964,3.964-10.391,0-14.354L358.93,41.034c-3.966-3.966-10.474-3.982-14.455,0L214.328,171.085
		c-3.964,3.964-3.964,10.39,0,14.354l3.814,3.814c3.964,3.964,10.391,3.964,14.354,0l30.77-30.746v164.708h-16.6
		c-3.901,0-7.064,3.163-7.064,7.064v14.925c0,3.901,3.163,7.064,7.064,7.064c-46.221,0.02-24.775,0.01-30.678,0.013
		c-3.901,0-7.064,3.163-7.064,7.064v14.925c0,3.901,3.163,7.064,7.064,7.064c6.274,0,236.4,0,271.099,0
		c3.901,0,7.064-3.163,7.064-7.064v-14.925C494.152,355.444,490.989,352.282,487.088,352.282z"/>
	<polygon style="fill:#C2EAF2;" points="439.807,135.435 439.807,381.335 263.267,381.335 263.267,135.435 351.537,54.115 
		366.097,67.525 	"/>
	<path style="fill:#DEF4F8;" d="M439.807,135.435v245.9h-152.88v-216.6c0-10.83,4.26-21.22,11.86-28.93l67.31-68.28L439.807,135.435
		z"/>
	<path style="fill:#60C8DD;" d="M184.608,435.186c0,11.55-9.363,20.913-20.913,20.913H20.913C9.363,456.099,0,446.736,0,435.186
		V118.612C0,107.063,9.363,97.7,20.913,97.7h142.783c11.55,0,20.913,9.363,20.913,20.913V435.186z"/>
	<path style="fill:#2CB3CD;" d="M86.041,97.7H62.165H27.238l9.335,40.416c0.636,2.755,3.09,4.706,5.917,4.706h99.627
		c2.828,0,5.281-1.951,5.917-4.706L157.37,97.7H86.041z"/>
	<path style="fill:#C2EAF2;" d="M161.847,173.259v249.2c0,2.76-2.24,5-5,5H27.767c-2.76,0-5-2.24-5-5v-249.2c0-2.76,2.24-5,5-5
		h129.08C159.607,168.259,161.847,170.499,161.847,173.259z"/>
	<path style="fill:#DEF4F8;" d="M161.847,173.259v249.2c0,2.76-2.24,5-5,5h-106.3c-2.76,0-5-2.24-5-5v-249.2c0-2.76,2.24-5,5-5
		h106.3C159.607,168.259,161.847,170.499,161.847,173.259z"/>
	<g>
		<path style="fill:#269AB1;" d="M102.145,112.314H55.73c-4.142,0-7.5,3.358-7.5,7.5s3.358,7.5,7.5,7.5h46.415
			c4.142,0,7.5-3.358,7.5-7.5S106.287,112.314,102.145,112.314z"/>
		<circle style="fill:#269AB1;" cx="121.984" cy="119.814" r="6.894"/>
	</g>
	<path style="fill:#2CB3CD;" d="M339.502,226.464v-83.3c0-6.62,5.416-12.036,12.036-12.036h0c6.62,0,12.036,5.416,12.036,12.036
		v83.3c11.436,4.729,19.483,15.992,19.483,29.137c0,17.407-14.111,31.519-31.519,31.519c-17.407,0-31.519-14.111-31.519-31.519
		C320.019,242.456,328.066,231.193,339.502,226.464z"/>
	<path style="fill:#269AB1;" d="M488.748,171.085L358.93,41.034c-3.966-3.966-10.474-3.982-14.455,0L214.328,171.085
		c-3.964,3.964-3.964,10.39,0,14.354l3.814,3.814c3.964,3.964,10.391,3.964,14.354,0l119.206-119.11l118.877,119.11
		c3.964,3.964,10.391,3.964,14.354,0l3.814-3.814C492.712,181.475,492.712,175.048,488.748,171.085z"/>
	<path style="fill:#44BFD7;" d="M456.409,352.269H246.667c-3.901,0-7.064-3.163-7.064-7.064V330.28c0-3.901,3.163-7.064,7.064-7.064
		h209.742c3.901,0,7.064,3.163,7.064,7.064v14.925C463.473,349.106,460.311,352.269,456.409,352.269z"/>
	<path style="fill:#2CB3CD;" d="M215.988,381.335h271.099c3.901,0,7.064-3.163,7.064-7.064v-14.925c0-3.901-3.163-7.064-7.064-7.064
		H215.988c-3.901,0-7.064,3.163-7.064,7.064v14.925C208.924,378.172,212.087,381.335,215.988,381.335z"/>
	<circle style="fill:#1ED688;" cx="92.304" cy="240.833" r="42.667"/>
	<circle style="fill:#FB5858;" cx="92.304" cy="354.882" r="42.667"/>
	<path style="fill:#127D4F;" d="M72.504,248.334h12.3v12.299c0,4.142,3.357,7.5,7.5,7.5s7.5-3.358,7.5-7.5v-12.299h12.3
		c4.143,0,7.5-3.358,7.5-7.5s-3.357-7.5-7.5-7.5h-12.3v-12.3c0-4.142-3.357-7.5-7.5-7.5s-7.5,3.358-7.5,7.5v12.3h-12.3
		c-4.143,0-7.5,3.358-7.5,7.5S68.362,248.334,72.504,248.334z"/>
	<path style="fill:#C42D2D;" d="M112.104,347.382h-39.6c-4.143,0-7.5,3.358-7.5,7.5s3.357,7.5,7.5,7.5h39.6
		c4.143,0,7.5-3.358,7.5-7.5S116.246,347.382,112.104,347.382z"/>
</g>
<g>
</g>
<g>
</g>
<g>
</g>
<g>
</g>
<g>
</g>
<g>
</g>
<g>
</g>
<g>
</g>
<g>
</g>
<g>
</g>
<g>
</g>
<g>
</g>
<g>
</g>
<g>
</g>
<g>
</g>
</svg>
