<?xml version="1.0" encoding="iso-8859-1"?>
<!-- Generator: Adobe Illustrator 19.0.0, SVG Export Plug-In . SVG Version: 6.00 Build 0)  -->
<svg version="1.1" id="Layer_1" xmlns="http://www.w3.org/2000/svg" xmlns:xlink="http://www.w3.org/1999/xlink" x="0px" y="0px"
	 viewBox="0 0 507.299 507.299" style="enable-background:new 0 0 507.299 507.299;" xml:space="preserve">
<g>
	<path style="fill:#60C8DD;" d="M386.194,32.77v441.76c0,14.32-11.61,25.92-25.93,25.92h-213.24c-14.32,0-25.92-11.6-25.92-25.92
		V32.77c0-14.32,11.6-25.92,25.92-25.92h213.24C374.584,6.849,386.194,18.449,386.194,32.77z"/>
	<path style="fill:#2CB3CD;" d="M325.649,6.849l-6.63,38.46c-0.5,2.91-3.03,5.04-5.98,5.04h-117.89c-2.91,0-5.4-2.06-5.96-4.91
		l-7.54-38.59H325.649z"/>
	<path style="fill:#C2EAF2;" d="M359.149,88.529v372.24c0,7.11-5.77,12.88-12.88,12.88h-185.24c-7.11,0-12.88-5.77-12.88-12.88
		V88.529c0-7.11,5.77-12.88,12.88-12.88h185.24C353.379,75.649,359.149,81.419,359.149,88.529z"/>
	<path style="fill:#DEF4F8;" d="M359.149,88.529v372.24c0,7.11-5.77,12.88-12.88,12.88h-153.08c-7.11,0-12.88-5.77-12.88-12.88
		V88.529c0-7.11,5.77-12.88,12.88-12.88h153.08C353.379,75.649,359.149,81.419,359.149,88.529z"/>
	<g>
		<circle style="fill:#269AB1;" cx="293.312" cy="28.899" r="7.5"/>
		<path style="fill:#269AB1;" d="M261.396,20.759h-49.784c-4.142,0-7.5,3.358-7.5,7.5s3.358,7.5,7.5,7.5h49.784
			c4.142,0,7.5-3.358,7.5-7.5S265.538,20.759,261.396,20.759z"/>
	</g>
	<path style="fill:#A2ABB8;" d="M274.799,344.159v39.07c0,11.9-9.64,21.54-21.54,21.54c-11.9,0-21.54-9.64-21.54-21.54v-39.07
		H274.799z"/>
	<path style="fill:#5F6C75;" d="M274.799,380.369v2.86c0,11.9-9.64,21.54-21.54,21.54c-11.9,0-21.54-9.64-21.54-21.54v-2.86H274.799
		z"/>
	<path style="fill:#FFA90B;" d="M321.489,256.899c0,18.28-7.19,34.89-18.9,47.13c-9.75,10.2-15.51,23.64-15.54,37.75v0.28
		c0,6.66-5.4,12.07-12.06,12.07h-44.35c-3.09,0-5.88-1.25-7.9-3.28c-2.02-2.02-3.27-4.82-3.27-7.9v-0.54
		c-0.06-14.18-5.47-27.94-15.32-38.14c-11.63-12.06-18.87-28.4-19.11-46.42c-0.51-37.19,29.38-68.28,66.57-69.16
		c6.13-0.15,12.08,0.52,17.75,1.9C299.279,197.819,321.489,224.769,321.489,256.899z"/>
	<path style="fill:#FFC14F;" d="M321.489,256.899c0,18.28-7.19,34.89-18.9,47.13c-9.75,10.2-15.51,23.64-15.54,37.75v0.28
		c0,6.66-5.4,12.07-12.06,12.07h-12.21c-3.09,0-5.88-1.25-7.9-3.28c-2.02-2.02-3.27-4.82-3.27-7.9v-0.54
		c-0.06-14.18-5.47-27.94-15.32-38.14c-11.63-12.06-18.87-28.4-19.11-46.42c-0.44-32.25,21.97-59.91,52.18-67.26
		C299.279,197.819,321.489,224.769,321.489,256.899z"/>
	<g>
		<path style="fill:#FFA90B;" d="M253.26,145.292c-4.142,0-7.5,3.358-7.5,7.5v13.286c0,4.142,3.358,7.5,7.5,7.5s7.5-3.358,7.5-7.5
			v-13.286C260.76,148.65,257.402,145.292,253.26,145.292z"/>
		<path style="fill:#FFA90B;" d="M221.946,156.309c-1.417-3.893-5.722-5.901-9.613-4.483c-3.893,1.417-5.899,5.721-4.483,9.613
			l4.544,12.484c1.109,3.046,3.985,4.937,7.048,4.937c0.852,0,1.718-0.146,2.564-0.454c3.893-1.417,5.899-5.721,4.483-9.613
			L221.946,156.309z"/>
		<path style="fill:#FFA90B;" d="M186.674,172.888c-2.663-3.173-7.394-3.587-10.566-0.924c-3.173,2.662-3.587,7.393-0.924,10.566
			l8.54,10.178c1.483,1.768,3.608,2.679,5.749,2.679c1.701,0,3.412-0.576,4.817-1.755c3.173-2.662,3.587-7.393,0.924-10.566
			L186.674,172.888z"/>
		<path style="fill:#FFA90B;" d="M294.966,151.826c-3.89-1.417-8.196,0.591-9.613,4.483l-4.544,12.484
			c-1.417,3.892,0.59,8.196,4.483,9.613c0.847,0.308,1.712,0.454,2.564,0.454c3.063,0,5.94-1.892,7.048-4.937l4.544-12.484
			C300.865,157.546,298.858,153.243,294.966,151.826z"/>
		<path style="fill:#FFA90B;" d="M331.191,171.963c-3.173-2.663-7.904-2.25-10.566,0.924l-8.54,10.178
			c-2.663,3.173-2.249,7.904,0.924,10.566c1.405,1.179,3.116,1.755,4.817,1.755c2.14,0,4.266-0.911,5.749-2.679l8.54-10.178
			C334.778,179.356,334.364,174.625,331.191,171.963z"/>
	</g>
	<path style="fill:#269AB1;" d="M336.149,418.149c-4.142,0-7.5,3.358-7.5,7.5v4h-150v-4c0-4.142-3.358-7.5-7.5-7.5
		s-7.5,3.358-7.5,7.5v23c0,4.142,3.358,7.5,7.5,7.5s7.5-3.358,7.5-7.5v-4h150v4c0,4.142,3.358,7.5,7.5,7.5s7.5-3.358,7.5-7.5v-23
		C343.649,421.507,340.292,418.149,336.149,418.149z"/>
	<g>
		<path style="fill:#269AB1;" d="M60.025,332.351C32.252,316.324,15,286.47,15,254.44c0-33.311,18.27-63.722,47.679-79.367
			c3.657-1.945,5.044-6.487,3.099-10.144c-1.945-3.656-6.487-5.043-10.144-3.099C21.318,180.085,0,215.572,0,254.44
			c0,37.373,20.127,72.205,52.527,90.903c1.181,0.681,2.47,1.005,3.742,1.005c2.592,0,5.114-1.346,6.503-3.752
			C64.842,339.008,63.612,334.422,60.025,332.351z"/>
		<path style="fill:#269AB1;" d="M79.176,311.759c-21.099-11.382-34.206-33.294-34.206-57.186c0-24.771,13.819-47.052,36.065-58.148
			c3.707-1.849,5.212-6.353,3.364-10.059s-6.352-5.212-10.059-3.364c-27.369,13.651-44.37,41.075-44.37,71.571
			c0,29.413,16.125,56.383,42.083,70.387c1.133,0.611,2.352,0.901,3.554,0.901c2.668,0,5.252-1.428,6.607-3.94
			C84.182,318.275,82.821,313.725,79.176,311.759z"/>
		<path style="fill:#269AB1;" d="M99.858,218.358c3.76-1.738,5.398-6.196,3.66-9.955c-1.739-3.76-6.197-5.4-9.955-3.66
			c-19.409,8.974-31.95,28.56-31.95,49.897c0,21.04,11.743,39.922,30.646,49.279c1.07,0.529,2.204,0.78,3.321,0.78
			c2.762,0,5.419-1.532,6.728-4.174c1.837-3.712,0.317-8.211-3.395-10.049c-13.755-6.808-22.3-20.54-22.3-35.835
			C76.613,239.128,85.737,224.887,99.858,218.358z"/>
		<path style="fill:#269AB1;" d="M454.772,161.956c-3.589-2.07-8.175-0.84-10.245,2.747c-2.07,3.588-0.84,8.174,2.747,10.245
			c27.772,16.027,45.025,45.881,45.025,77.911c0,33.311-18.27,63.722-47.679,79.367c-3.657,1.945-5.044,6.487-3.099,10.144
			c1.349,2.535,3.944,3.979,6.628,3.979c1.188,0,2.394-0.283,3.516-0.88c34.316-18.255,55.634-53.742,55.634-92.61
			C507.299,215.486,487.171,180.654,454.772,161.956z"/>
		<path style="fill:#269AB1;" d="M477.329,252.726c0-29.413-16.125-56.383-42.083-70.387c-3.647-1.969-8.196-0.605-10.162,3.04
			c-1.967,3.646-0.606,8.195,3.04,10.162c21.099,11.382,34.206,33.294,34.206,57.186c0,24.771-13.819,47.052-36.065,58.148
			c-3.707,1.849-5.212,6.353-3.364,10.059c1.313,2.632,3.963,4.154,6.717,4.154c1.125,0,2.267-0.254,3.342-0.79
			C460.327,310.646,477.329,283.221,477.329,252.726z"/>
		<path style="fill:#269AB1;" d="M445.686,252.659c0-21.04-11.743-39.922-30.646-49.279c-3.712-1.838-8.211-0.317-10.049,3.395
			c-1.837,3.712-0.317,8.211,3.395,10.049c13.755,6.808,22.3,20.54,22.3,35.835c0,15.512-9.124,29.753-23.245,36.282
			c-3.76,1.738-5.398,6.196-3.66,9.955c1.268,2.741,3.979,4.354,6.813,4.354c1.053,0,2.124-0.223,3.143-0.694
			C433.145,293.582,445.686,273.996,445.686,252.659z"/>
	</g>
</g>
<g>
</g>
<g>
</g>
<g>
</g>
<g>
</g>
<g>
</g>
<g>
</g>
<g>
</g>
<g>
</g>
<g>
</g>
<g>
</g>
<g>
</g>
<g>
</g>
<g>
</g>
<g>
</g>
<g>
</g>
</svg>
