<?xml version="1.0" encoding="iso-8859-1"?>
<!-- Generator: Adobe Illustrator 19.0.0, SVG Export Plug-In . SVG Version: 6.00 Build 0)  -->
<svg version="1.1" id="Layer_1" xmlns="http://www.w3.org/2000/svg" xmlns:xlink="http://www.w3.org/1999/xlink" x="0px" y="0px"
	 viewBox="0 0 492.664 492.664" style="enable-background:new 0 0 492.664 492.664;" xml:space="preserve">
<g>
	<path style="fill:#60C8DD;" d="M492.304,124.66c0,22.04-18.06,39.84-39.84,39.84c-334.02-0.01-400.86,0.49-417.16-0.45
		c-5.36-0.31-5.26-0.78-7.4-1.48c-15.98-5.18-27.62-20.25-27.62-37.91V39.83C0.284,17.92,18.214,0,40.124,0h412.34
		c11.9,0,22.62,5.28,29.93,13.61c3.45,3.92,6.14,8.52,7.84,13.57C493.854,37.84,491.644,38.7,492.304,124.66z"/>
	<path style="fill:#7CD2E3;" d="M492.304,124.66c0,22.04-18.06,39.84-39.84,39.84c-334.02-0.01-400.86,0.49-417.16-0.45
		c-6.08-6.99-9.77-16.12-9.77-26.06V53.16c0-21.91,17.93-39.83,39.85-39.83h412.33c1.58,0,3.14,0.09,4.68,0.28
		c3.45,3.92,6.14,8.52,7.84,13.57C493.854,37.84,491.644,38.7,492.304,124.66z"/>
	<path style="fill:#5F6C75;" d="M453.724,119.06v45.42c-1.19,0.03-413.56,0.03-414.85,0v-45.42c0-2.33,1.89-4.23,4.23-4.23h406.39
		C451.824,114.83,453.724,116.73,453.724,119.06z"/>
	<circle style="fill:#269AB1;" cx="410.859" cy="35.189" r="9.934"/>
	<circle style="fill:#F44545;" cx="443.786" cy="35.189" r="9.934"/>
	<g>
		<rect x="38.874" y="132.03" style="fill:#7E8B96;" width="414.85" height="15"/>
	</g>
	<g>
		<path style="fill:#7CD2E3;" d="M102.851,409.299c-60.994-35.199-59.77-124.07,2.654-157.277c3.657-1.945,5.044-6.487,3.099-10.144
			c-1.945-3.657-6.486-5.042-10.144-3.099c-34.316,18.255-55.634,53.741-55.634,92.61c0,37.373,20.127,72.205,52.527,90.903
			c3.582,2.066,8.169,0.848,10.245-2.747C107.668,415.956,106.438,411.37,102.851,409.299z"/>
		<path style="fill:#7CD2E3;" d="M122.002,388.707c-46.297-24.976-45.456-91.733,1.86-115.333c3.707-1.849,5.212-6.353,3.364-10.059
			c-1.848-3.707-6.353-5.212-10.059-3.364c-58.252,29.055-59.196,111.259-2.287,141.958c3.669,1.98,8.208,0.582,10.162-3.04
			C127.008,395.223,125.647,390.673,122.002,388.707z"/>
		<path style="fill:#7CD2E3;" d="M142.684,295.306c3.759-1.739,5.398-6.196,3.66-9.956c-1.739-3.759-6.195-5.399-9.956-3.66
			c-19.408,8.975-31.949,28.561-31.949,49.897c0,31.873,26.731,50.059,33.967,50.059c2.762,0,5.419-1.532,6.728-4.174
			c1.837-3.712,0.317-8.211-3.395-10.049C111.374,352.394,112.423,309.298,142.684,295.306z"/>
		<path style="fill:#7CD2E3;" d="M397.316,238.904c-3.59-2.069-8.175-0.841-10.245,2.748c-2.07,3.587-0.84,8.174,2.747,10.245
			c60.993,35.198,59.769,124.072-2.654,157.277c-3.657,1.945-5.044,6.487-3.099,10.144c1.944,3.657,6.486,5.044,10.144,3.099
			C467.079,383.653,468.432,279.945,397.316,238.904z"/>
		<path style="fill:#7CD2E3;" d="M377.788,259.287c-3.644-1.967-8.194-0.605-10.161,3.04c-1.967,3.646-0.605,8.195,3.04,10.162
			c46.295,24.974,45.455,91.734-1.86,115.333c-3.706,1.849-5.213,6.352-3.364,10.059c1.853,3.713,6.358,5.209,10.06,3.364
			C433.756,372.19,434.695,289.985,377.788,259.287z"/>
		<path style="fill:#7CD2E3;" d="M357.583,280.328c-3.712-1.837-8.212-0.317-10.049,3.395c-1.838,3.712-0.317,8.211,3.395,10.049
			c30.366,15.03,29.316,58.126-0.944,72.118c-3.76,1.739-5.398,6.196-3.66,9.956c1.73,3.74,6.179,5.407,9.955,3.66
			C397.876,360.27,399.311,300.982,357.583,280.328z"/>
	</g>
	<path style="fill:#60C8DD;" d="M324.868,474.871c0,9.827-7.966,17.793-17.793,17.793H185.594c-9.827,0-17.793-7.966-17.793-17.793
		V205.526c0-9.827,7.966-17.793,17.793-17.793h121.481c9.827,0,17.793,7.966,17.793,17.793V474.871z"/>
	<path style="fill:#2CB3CD;" d="M241.006,187.733h-20.314h-29.716l7.942,34.386c0.541,2.344,2.629,4.004,5.035,4.004h84.764
		c2.406,0,4.493-1.66,5.035-4.004l7.942-34.386H241.006z"/>
	<path style="fill:#C2EAF2;" d="M305.502,252.021v212.023c0,2.348-1.906,4.254-4.254,4.254H191.425
		c-2.348,0-4.254-1.906-4.254-4.254V252.021c0-2.348,1.906-4.254,4.254-4.254h109.823
		C303.596,247.767,305.502,249.673,305.502,252.021z"/>
	<path style="fill:#DEF4F8;" d="M305.502,252.021v212.023c0,2.348-1.906,4.254-4.254,4.254h-90.441
		c-2.348,0-4.254-1.906-4.254-4.254V252.021c0-2.348,1.906-4.254,4.254-4.254h90.441
		C303.596,247.767,305.502,249.673,305.502,252.021z"/>
	<g>
		<path style="fill:#269AB1;" d="M254.707,200.167h-39.491c-3.524,0-6.381,2.857-6.381,6.381c0,3.524,2.857,6.381,6.381,6.381
			h39.491c3.524,0,6.381-2.857,6.381-6.381C261.089,203.024,258.232,200.167,254.707,200.167z"/>
		<circle style="fill:#269AB1;" cx="271.586" cy="206.548" r="5.865"/>
	</g>
	<circle style="fill:#1ED688;" cx="246.334" cy="309.514" r="36.301"/>
	<circle style="fill:#FB5858;" cx="246.334" cy="406.548" r="36.301"/>
	<path style="fill:#127D4F;" d="M229.488,315.895h10.465v10.464c0,3.524,2.857,6.381,6.381,6.381c3.525,0,6.381-2.857,6.381-6.381
		v-10.464h10.465c3.525,0,6.381-2.857,6.381-6.381c0-3.524-2.857-6.381-6.381-6.381h-10.465v-10.465
		c0-3.524-2.857-6.381-6.381-6.381c-3.525,0-6.381,2.857-6.381,6.381v10.465h-10.465c-3.525,0-6.381,2.857-6.381,6.381
		C223.107,313.038,225.964,315.895,229.488,315.895z"/>
	<path style="fill:#C42D2D;" d="M263.18,400.167h-33.692c-3.525,0-6.381,2.857-6.381,6.381c0,3.524,2.857,6.381,6.381,6.381h33.692
		c3.525,0,6.381-2.857,6.381-6.381C269.561,403.023,266.705,400.167,263.18,400.167z"/>
</g>
<g>
</g>
<g>
</g>
<g>
</g>
<g>
</g>
<g>
</g>
<g>
</g>
<g>
</g>
<g>
</g>
<g>
</g>
<g>
</g>
<g>
</g>
<g>
</g>
<g>
</g>
<g>
</g>
<g>
</g>
</svg>
