<?xml version="1.0" encoding="iso-8859-1"?>
<!-- Generator: Adobe Illustrator 19.0.0, SVG Export Plug-In . SVG Version: 6.00 Build 0)  -->
<svg version="1.1" id="Layer_1" xmlns="http://www.w3.org/2000/svg" xmlns:xlink="http://www.w3.org/1999/xlink" x="0px" y="0px"
	 viewBox="0 0 492.725 492.725" style="enable-background:new 0 0 492.725 492.725;" xml:space="preserve">
<g>
	<path style="fill:#C0694E;" d="M440.922,451.024c-0.017,0-0.031,0-0.047,0c-0.005,0-0.013,0-0.018,0c-0.098,0-0.194,0-0.281,0
		c0.067,0,0.129,0,0.18,0c-0.077,0-0.183,0-0.324,0c0.042,0,0.082,0,0.121,0c-0.283,0-0.505,0-0.684,0c-0.011,0-0.022,0-0.034,0
		c-0.011,0-0.022,0-0.032,0c-0.059,0-0.114,0-0.179,0c-0.065,0-0.14,0-0.211,0c0.024,0,0.052,0,0.082,0c-0.053,0-0.099,0-0.13,0
		c0.003,0,0.005,0,0.008,0c-3.518-0.001-14.125-0.006-42.483-0.018c5.6,0,10.14-4.54,10.14-10.14v-21.422
		c0-5.6-4.54-10.14-10.14-10.14h-23.826V172.772l44.165,44.252c5.689,5.689,14.914,5.689,20.603,0l5.475-5.475
		c5.689-5.69,5.689-14.914,0-20.604L256.973,4.278c-5.692-5.692-15.034-5.715-20.748,0L49.419,190.945
		c-5.69,5.689-5.69,14.914,0,20.604l5.475,5.475c5.69,5.69,14.914,5.69,20.603,0l44.165-44.13v236.411H95.837
		c-5.6,0-10.14,4.54-10.14,10.14v21.422c0,5.6,4.54,10.14,10.14,10.14c-28.358,0.012-38.965,0.016-42.483,0.018
		c0.003,0,0.005,0,0.008,0c-0.031,0-0.077,0-0.13,0c0.03,0,0.057,0,0.082,0c-0.071,0-0.146,0-0.211,0c-0.065,0-0.12,0-0.179,0
		c-0.012,0-0.02,0-0.032,0c-0.011,0-0.023,0-0.034,0c-0.179,0-0.401,0-0.684,0c0.039,0,0.079,0,0.121,0c-0.141,0-0.247,0-0.325,0
		c0.051,0,0.113,0,0.18,0c-0.088,0-0.183,0-0.282,0c-0.006,0-0.013,0-0.018,0c-0.017,0-0.031,0-0.048,0
		c-5.6,0-10.139,4.54-10.139,10.139v21.422c0,5.6,4.54,10.139,10.139,10.139h389.12c5.6,0,10.139-4.54,10.139-10.139v-21.422
		C451.062,455.564,446.522,451.024,440.922,451.024z"/>
	<polygon style="fill:#AE583E;" points="373.063,139.772 373.063,492.571 119.663,492.571 119.663,139.772 246.363,23.052 
		266.383,41.493 	"/>
	<path style="fill:#C0694E;" d="M373.063,139.772v352.799h-216.81V179.233c0-14.56,5.62-28.57,15.69-39.09l94.44-98.65
		L373.063,139.772z"/>
	<path style="fill:#954C35;" d="M443.306,190.945L256.973,4.278c-5.692-5.692-15.034-5.715-20.748-0.001L49.419,190.945
		c-5.689,5.689-5.689,14.914,0,20.604l5.475,5.475c5.689,5.689,14.914,5.689,20.603,0L246.599,46.06l170.629,170.964
		c5.689,5.689,14.914,5.689,20.603,0l5.475-5.475C448.995,205.859,448.995,196.634,443.306,190.945z"/>
	<path style="fill:#954C35;" d="M396.888,451.005H95.837c-5.6,0-10.139-4.54-10.139-10.139v-21.422c0-5.6,4.54-10.139,10.139-10.139
		h301.051c5.6,0,10.139,4.54,10.139,10.139v21.422C407.028,446.466,402.488,451.005,396.888,451.005z"/>
	<path style="fill:#7C3F2C;" d="M51.803,492.725h389.12c5.6,0,10.139-4.54,10.139-10.139v-21.422c0-5.6-4.54-10.139-10.139-10.139
		H51.803c-5.6,0-10.139,4.54-10.139,10.139v21.422C41.663,488.185,46.203,492.725,51.803,492.725z"/>
	<path style="fill:#1AB975;" d="M188.993,351.253c-1.18,0.3-2.38,0.59-3.59,0.88c0,0-72.04-78.28,66.75-157.06
		c3.74-2.12,7.58-4.05,11.47-5.87c9.26-4.31,33.09-17.74,38.2-43.47c0.61-3.09,5-3.16,5.69-0.08c2.04,9.08,4.1,20.63,5.2,33.66
		C317.552,236.542,303.933,322.193,188.993,351.253z"/>
	<path style="fill:#1ED688;" d="M188.993,351.253c-5.58-29.39,4.7-71.93,72.67-120.84c3.49-2.51,7.09-4.84,10.77-7.07
		c8.74-5.28,31-21.18,33.31-47.31c0.28-3.14,4.64-3.68,5.66-0.69c0.43,1.27,0.87,2.59,1.31,3.97
		C317.552,236.542,303.933,322.193,188.993,351.253z"/>
	<path style="fill:#106E46;" d="M292.545,199.11c-3.676-1.905-8.205-0.473-10.111,3.204c-0.127,0.245-13.106,24.656-49.742,42.55
		c-40.811,19.936-55.846,62.17-54.792,107.303c-0.041,2.148-0.937,28.514-20.002,30.704c-4.115,0.473-7.067,4.192-6.595,8.307
		c0.472,4.109,4.182,7.066,8.308,6.595c26.129-3.003,33.201-31.138,33.29-45.596c0-0.075,0-0.151-0.002-0.227
		c-0.95-39.421,11.228-76.44,46.377-93.609c41.037-20.045,55.862-47.943,56.473-49.121
		C297.656,205.544,296.222,201.017,292.545,199.11z"/>
</g>
<g>
</g>
<g>
</g>
<g>
</g>
<g>
</g>
<g>
</g>
<g>
</g>
<g>
</g>
<g>
</g>
<g>
</g>
<g>
</g>
<g>
</g>
<g>
</g>
<g>
</g>
<g>
</g>
<g>
</g>
</svg>
