<?xml version="1.0" encoding="iso-8859-1"?>
<!-- Generator: Adobe Illustrator 19.0.0, SVG Export Plug-In . SVG Version: 6.00 Build 0)  -->
<svg version="1.1" id="Layer_1" xmlns="http://www.w3.org/2000/svg" xmlns:xlink="http://www.w3.org/1999/xlink" x="0px" y="0px"
	 viewBox="0 0 492.795 492.795" style="enable-background:new 0 0 492.795 492.795;" xml:space="preserve">
<g>
	<path style="fill:#A6E0EC;" d="M432.66,492.606H60.136C26.924,492.606,0,465.683,0,432.471V60.325
		C0,27.113,26.924,0.189,60.136,0.189H432.66c33.212,0,60.136,26.924,60.136,60.136v372.146
		C492.795,465.683,465.872,492.606,432.66,492.606z"/>
	<path style="fill:#44BFD7;" d="M60.136,467.606C40.762,467.606,25,451.844,25,432.47V60.325c0-19.374,15.762-35.136,35.136-35.136
		h372.523c19.374,0,35.136,15.762,35.136,35.136V432.47c0,19.374-15.762,35.136-35.136,35.136H60.136z"/>
	<path style="fill:#DCE6EB;" d="M440.524,246.398c0,107.041-87.085,194.126-194.126,194.126S52.271,353.439,52.271,246.398
		S139.356,52.271,246.398,52.271S440.524,139.356,440.524,246.398z"/>
	<path style="fill:#A2ABB8;" d="M409.648,246.398c0,82.69-61.79,151.21-141.62,161.82c-7.08,0.94-14.3,1.43-21.63,1.43
		c-90.02,0-163.25-73.23-163.25-163.25s73.23-163.25,163.25-163.25c7.33,0,14.55,0.49,21.63,1.43
		C347.858,95.188,409.648,163.708,409.648,246.398z"/>
	<path style="fill:#B9C3CD;" d="M409.648,246.398c0,82.69-61.79,151.21-141.62,161.82c-79.84-10.61-141.64-79.13-141.64-161.82
		s61.8-151.21,141.64-161.82C347.858,95.188,409.648,163.708,409.648,246.398z"/>
	<path style="fill:#2CB3CD;" d="M288.978,171.318l-17.26,75.08h-51.91l-16.08-75.57c-0.91-4.27-0.74-8.7,0.49-12.89l8.19-27.86
		c4.39-14.93,18.09-25.18,33.65-25.18c5.17,0,10.14,1.13,14.63,3.2c2.15,0.98,4.18,2.18,6.08,3.57
		c5.87,4.29,10.41,10.41,12.72,17.69l8.93,28.12C289.838,161.958,290.028,166.738,288.978,171.318z"/>
	<path style="fill:#2CB3CD;" d="M259.688,269.428l-57.4,51.71c-3.24,2.92-7.16,4.99-11.4,6.02l-20.88,5.06l-7.35,1.78
		c-15.12,3.66-30.85-3.08-38.63-16.55c-3.16-5.47-4.7-11.52-4.7-17.54c0-8.55,3.12-17.02,9.17-23.64l19.88-21.8
		c3.17-3.47,7.22-6.03,11.71-7.41l73.65-22.59l4.4,7.62L259.688,269.428z"/>
	<path style="fill:#2CB3CD;" d="M369.108,316.848c-6.36,11.02-18.04,17.55-30.37,17.55c-2.5,0-5.01-0.27-7.52-0.82l-28.82-6.33
		c-4.59-1.01-8.83-3.23-12.27-6.44l-56.39-52.48l14.69-25.45l11.26-19.51l73.49,23.86c4.15,1.35,7.9,3.71,10.92,6.87l20.03,21.02
		c5.71,6,8.96,13.61,9.57,21.46C374.238,303.468,372.748,310.548,369.108,316.848z"/>
	<path style="fill:#60C8DD;" d="M373.698,296.578c-6.44,5.89-14.89,9.2-23.68,9.2c-2.49,0-5.01-0.27-7.52-0.82l-28.81-6.33
		c-4.59-1.01-8.83-3.23-12.27-6.44l-52.99-49.31l11.26-19.51l73.49,23.86c4.15,1.35,7.9,3.71,10.92,6.87l20.03,21.02
		C369.838,281.118,373.088,288.728,373.698,296.578z"/>
	<g>
		<path style="fill:#DCE6EB;" d="M309.119,135.139c-3.603-2.038-8.182-0.769-10.22,2.837c-2.039,3.605-0.769,8.181,2.837,10.22
			c34.903,19.736,57.457,57.339,57.457,95.798c0,1.023-0.018,2.044-0.052,3.061c-0.14,4.14,3.104,7.609,7.243,7.748
			c0.087,0.003,0.172,0.004,0.258,0.004c4.024,0,7.354-3.194,7.491-7.248c0.04-1.185,0.06-2.374,0.06-3.566
			C374.194,200.219,348.651,157.491,309.119,135.139z"/>
		<path style="fill:#DCE6EB;" d="M190.768,148.366c3.6-2.049,4.857-6.628,2.809-10.228c-2.05-3.601-6.631-4.858-10.229-2.808
			c-19.918,11.337-36.57,28.015-48.157,48.23c-10.722,18.706-16.627,39.914-16.627,59.716c0,1.59,0.038,3.185,0.112,4.74
			c0.191,4.016,3.508,7.142,7.485,7.142c0.12,0,0.242-0.003,0.364-0.009c4.137-0.198,7.331-3.712,7.133-7.85
			c-0.063-1.318-0.095-2.671-0.095-4.023C133.564,212.241,151.252,170.858,190.768,148.366z"/>
		<path style="fill:#DCE6EB;" d="M192.369,196.252c0.031-0.036,0.061-0.072,0.091-0.109c0.116-0.143,0.225-0.291,0.33-0.442
			c0.035-0.05,0.07-0.1,0.104-0.151c0.091-0.138,0.175-0.279,0.256-0.422c0.041-0.072,0.082-0.142,0.121-0.215
			c0.066-0.126,0.126-0.254,0.185-0.384c0.043-0.094,0.087-0.187,0.126-0.283c0.047-0.115,0.087-0.232,0.128-0.349
			c0.039-0.111,0.079-0.222,0.113-0.336c0.034-0.113,0.06-0.228,0.088-0.342c0.029-0.119,0.061-0.236,0.085-0.357
			c0.026-0.131,0.042-0.264,0.061-0.396c0.015-0.106,0.034-0.21,0.045-0.317c0.024-0.242,0.037-0.486,0.037-0.731
			c0-4.142-3.357-7.5-7.5-7.5c-0.56,0-1.103,0.066-1.627,0.182c-0.002,0-0.004,0.001-0.006,0.001
			c-0.254,0.057-0.502,0.126-0.745,0.208c-0.025,0.008-0.05,0.019-0.075,0.027c-0.22,0.076-0.435,0.161-0.645,0.256
			c-0.034,0.016-0.067,0.033-0.101,0.049c-0.199,0.094-0.393,0.196-0.582,0.306c-0.036,0.021-0.072,0.043-0.107,0.065
			c-0.184,0.112-0.362,0.231-0.535,0.357c-0.034,0.025-0.068,0.051-0.103,0.077c-0.171,0.13-0.335,0.266-0.494,0.41
			c-0.031,0.028-0.062,0.055-0.092,0.084c-0.159,0.148-0.31,0.304-0.456,0.465c-0.016,0.018-0.034,0.033-0.05,0.051
			c-8.861,9.641-15.577,21.309-19.426,33.753c-1.224,3.958,0.992,8.158,4.949,9.381c0.738,0.229,1.484,0.337,2.218,0.337
			c3.202,0,6.168-2.067,7.163-5.286c3.208-10.373,8.819-20.1,16.228-28.131C192.228,196.429,192.296,196.339,192.369,196.252z"/>
		<path style="fill:#DCE6EB;" d="M226.98,333.007c6.35,1.421,12.886,2.142,19.427,2.142c6.642,0,13.277-0.743,19.724-2.207
			c4.039-0.917,6.569-4.936,5.651-8.975c-0.917-4.039-4.929-6.57-8.976-5.652c-10.63,2.416-21.915,2.435-32.551,0.055
			c-4.04-0.906-8.053,1.638-8.957,5.681C220.394,328.092,222.938,332.102,226.98,333.007z"/>
		<path style="fill:#DCE6EB;" d="M311.454,186.106c-2.817-3.037-7.563-3.214-10.599-0.396c-3.036,2.818-3.214,7.563-0.396,10.599
			c7.444,8.022,13.092,17.732,16.33,28.079c1.004,3.208,3.963,5.262,7.155,5.262c0.742,0,1.497-0.111,2.242-0.344
			c3.953-1.237,6.154-5.445,4.917-9.398C327.204,207.443,320.409,195.755,311.454,186.106z"/>
		<path style="fill:#DCE6EB;" d="M313.901,353.877c0.047-0.074,0.092-0.148,0.136-0.224c0.124-0.212,0.237-0.43,0.34-0.654
			c0.023-0.051,0.051-0.1,0.073-0.151c0.118-0.274,0.218-0.556,0.303-0.845c0.022-0.073,0.038-0.149,0.057-0.223
			c0.06-0.229,0.109-0.461,0.147-0.697c0.014-0.087,0.029-0.174,0.04-0.262c0.039-0.309,0.065-0.622,0.065-0.942
			c0-4.142-3.362-7.5-7.505-7.5c-0.312,0-0.617,0.025-0.918,0.062c-0.077,0.01-0.153,0.023-0.23,0.035
			c-0.242,0.037-0.48,0.086-0.714,0.146c-0.066,0.017-0.132,0.032-0.197,0.051c-0.597,0.17-1.162,0.412-1.687,0.716
			c-0.028,0.016-0.058,0.027-0.086,0.043c-17.297,10.284-37.096,15.719-57.256,15.719c-20.13,0-39.886-5.375-57.132-15.543
			c-3.567-2.104-8.166-0.917-10.271,2.651c-2.104,3.568-0.916,8.166,2.651,10.27c19.554,11.528,41.944,17.622,64.751,17.622
			c22.758,0,45.11-6.11,64.666-17.674c0.001-0.001,0.003-0.002,0.004-0.003c0.26-0.141,0.508-0.303,0.749-0.473
			c0.07-0.05,0.138-0.102,0.206-0.154c0.181-0.137,0.354-0.283,0.522-0.436c0.057-0.052,0.115-0.102,0.171-0.155
			c0.21-0.205,0.41-0.419,0.595-0.647c0.033-0.041,0.062-0.085,0.094-0.126C313.628,354.288,313.769,354.086,313.901,353.877z"/>
	</g>
	<path style="fill:#60C8DD;" d="M288.978,171.318l-17.26,75.08h-22.66l-16.08-75.57c-0.91-4.27-0.74-8.7,0.49-12.89l8.19-27.86
		c2.93-9.97,10.01-17.85,19.03-21.98c2.15,0.98,4.18,2.18,6.08,3.57c5.87,4.29,10.41,10.41,12.72,17.69l8.93,28.12
		C289.838,161.958,290.028,166.738,288.978,171.318z"/>
	<path style="fill:#60C8DD;" d="M259.688,269.428l-57.4,51.71c-3.24,2.92-7.16,4.99-11.4,6.02l-20.88,5.06
		c-6.87-2.9-12.81-7.98-16.73-14.77c-3.16-5.47-4.7-11.52-4.7-17.54c0-8.55,3.12-17.02,9.17-23.64l19.88-21.8
		c3.17-3.47,7.22-6.03,11.71-7.41l48.8-14.97L259.688,269.428z"/>
	<path style="fill:#A6E0EC;" d="M285.578,246.398c0,16.47-10.16,30.56-24.55,36.36c-4.52,1.82-9.46,2.82-14.63,2.82
		c-21.64,0-39.18-17.54-39.18-39.18s17.54-39.18,39.18-39.18c5.17,0,10.11,1,14.63,2.82
		C275.418,215.838,285.578,229.928,285.578,246.398z"/>
	<path style="fill:#DEF4F8;" d="M285.578,246.398c0,16.47-10.16,30.56-24.55,36.36c-14.4-5.79-24.56-19.89-24.56-36.36
		s10.16-30.57,24.56-36.36C275.418,215.838,285.578,229.928,285.578,246.398z"/>
</g>
<g>
</g>
<g>
</g>
<g>
</g>
<g>
</g>
<g>
</g>
<g>
</g>
<g>
</g>
<g>
</g>
<g>
</g>
<g>
</g>
<g>
</g>
<g>
</g>
<g>
</g>
<g>
</g>
<g>
</g>
</svg>
