<?xml version="1.0" encoding="iso-8859-1"?>
<!-- Generator: Adobe Illustrator 19.0.0, SVG Export Plug-In . SVG Version: 6.00 Build 0)  -->
<svg version="1.1" id="Layer_1" xmlns="http://www.w3.org/2000/svg" xmlns:xlink="http://www.w3.org/1999/xlink" x="0px" y="0px"
	 viewBox="0 0 492.725 492.725" style="enable-background:new 0 0 492.725 492.725;" xml:space="preserve">
<g>
	<path style="fill:#DEF4F8;" d="M440.922,451.024c-0.017,0-0.031,0-0.047,0c-0.005,0-0.013,0-0.018,0c-0.098,0-0.194,0-0.281,0
		c0.067,0,0.129,0,0.18,0c-0.077,0-0.183,0-0.324,0c0.042,0,0.082,0,0.121,0c-0.283,0-0.505,0-0.684,0c-0.011,0-0.022,0-0.034,0
		c-0.011,0-0.022,0-0.032,0c-0.059,0-0.114,0-0.179,0c-0.065,0-0.14,0-0.211,0c0.024,0,0.052,0,0.082,0c-0.053,0-0.099,0-0.13,0
		c0.003,0,0.005,0,0.008,0c-3.518-0.001-14.125-0.006-42.483-0.018c5.6,0,10.14-4.54,10.14-10.14v-21.422
		c0-5.6-4.54-10.14-10.14-10.14h-23.826V172.772l44.165,44.252c5.689,5.689,14.914,5.689,20.603,0l5.475-5.475
		c5.689-5.69,5.689-14.914,0-20.604L256.973,4.278c-5.692-5.692-15.034-5.715-20.748,0L49.419,190.945
		c-5.69,5.689-5.69,14.914,0,20.604l5.475,5.475c5.69,5.69,14.914,5.69,20.603,0l44.165-44.13v236.411H95.837
		c-5.6,0-10.14,4.54-10.14,10.14v21.422c0,5.6,4.54,10.14,10.14,10.14c-28.358,0.012-38.965,0.016-42.483,0.018
		c0.003,0,0.005,0,0.008,0c-0.031,0-0.077,0-0.13,0c0.03,0,0.057,0,0.082,0c-0.071,0-0.146,0-0.211,0c-0.065,0-0.12,0-0.179,0
		c-0.012,0-0.02,0-0.032,0c-0.011,0-0.023,0-0.034,0c-0.179,0-0.401,0-0.684,0c0.039,0,0.079,0,0.121,0c-0.141,0-0.247,0-0.325,0
		c0.051,0,0.113,0,0.18,0c-0.088,0-0.183,0-0.282,0c-0.006,0-0.013,0-0.018,0c-0.017,0-0.031,0-0.048,0
		c-5.6,0-10.139,4.54-10.139,10.139v21.422c0,5.6,4.54,10.139,10.139,10.139h389.12c5.6,0,10.139-4.54,10.139-10.139v-21.422
		C451.062,455.564,446.522,451.024,440.922,451.024z"/>
	<polygon style="fill:#C2EAF2;" points="373.063,139.772 373.063,492.571 119.663,492.571 119.663,139.772 246.363,23.052 
		266.383,41.493 	"/>
	<path style="fill:#DEF4F8;" d="M373.063,139.772v352.799h-216.81V179.233c0-14.56,5.62-28.57,15.69-39.09l94.44-98.65
		L373.063,139.772z"/>
	<path style="fill:#60C8DD;" d="M443.306,190.945L256.973,4.278c-5.692-5.692-15.034-5.715-20.748-0.001L49.419,190.945
		c-5.689,5.689-5.689,14.914,0,20.604l5.475,5.475c5.689,5.689,14.914,5.689,20.603,0L246.599,46.06l170.629,170.964
		c5.689,5.689,14.914,5.689,20.603,0l5.475-5.475C448.995,205.859,448.995,196.634,443.306,190.945z"/>
	<path style="fill:#44BFD7;" d="M396.888,451.005H95.837c-5.6,0-10.139-4.54-10.139-10.139v-21.422c0-5.6,4.54-10.139,10.139-10.139
		h301.051c5.6,0,10.139,4.54,10.139,10.139v21.422C407.028,446.466,402.488,451.005,396.888,451.005z"/>
	<path style="fill:#2CB3CD;" d="M51.803,492.725h389.12c5.6,0,10.139-4.54,10.139-10.139v-21.422c0-5.6-4.54-10.139-10.139-10.139
		H51.803c-5.6,0-10.139,4.54-10.139,10.139v21.422C41.663,488.185,46.203,492.725,51.803,492.725z"/>
	<path style="fill:#2CB3CD;" d="M352.003,257.483l-0.05,19.52c0,3.05-2.48,5.52-5.53,5.51l-30.09-0.07
		c-2.35-0.01-4.48,1.45-5.24,3.67c-1.615,4.668-3.775,9.247-6.28,13.33c-1.32,2.16-0.98,4.95,0.81,6.75l19.93,20.03
		c2.16,2.16,2.15,5.66-0.02,7.81l-13.84,13.77c-2.16,2.16-5.66,2.15-7.81-0.02l-21.24-21.34c-1.65-1.66-4.18-2.13-6.28-1.1
		c-4.38,2.14-9.03,3.83-13.88,5c-2.46,0.6-4.18,2.82-4.19,5.35l-0.07,28.24c0,3.06-2.48,5.52-5.53,5.52l-19.53-0.05
		c-3.05-0.01-5.52-2.49-5.51-5.54l0.07-30.08c0.01-2.35-1.45-4.48-3.67-5.25c-4.69-1.62-9.15-3.73-13.32-6.28
		c-2.17-1.32-4.96-0.97-6.76,0.82l-20.02,19.93c-2.17,2.15-5.66,2.14-7.82-0.02l-13.77-13.84c-2.15-2.17-2.14-5.66,0.02-7.82
		l21.35-21.24c1.65-1.65,2.12-4.18,1.09-6.28c-2.14-4.38-3.83-9.03-5-13.87c-0.59-2.46-2.81-4.19-5.35-4.19l-28.24-0.07
		c-3.05-0.01-5.52-2.49-5.51-5.54l0.05-19.53c0-3.05,2.48-5.52,5.53-5.51l30.09,0.08c2.35,0,4.48-1.46,5.24-3.68
		c1.62-4.69,3.73-9.15,6.28-13.32c1.32-2.16,0.98-4.95-0.81-6.75l-19.93-20.03c-2.16-2.16-2.15-5.66,0.02-7.81l13.84-13.78
		c2.16-2.15,5.66-2.14,7.81,0.02l21.24,21.35c1.65,1.66,4.18,2.12,6.28,1.1c4.176-2.055,8.919-3.806,13.88-5.01
		c2.46-0.59,4.18-2.81,4.19-5.34l0.07-28.26c0-3.05,2.47-5.51,5.52-5.51h19.53c3.05,0,5.53,2.48,5.52,5.54l-0.07,30.14
		c-0.01,2.35,1.45,4.48,3.67,5.25c4.69,1.61,9.15,3.73,13.32,6.27c2.17,1.33,4.96,0.98,6.76-0.81l20.02-19.93
		c2.17-2.15,5.66-2.14,7.82,0.02l13.77,13.84c2.15,2.16,2.14,5.66-0.02,7.81l-21.35,21.25c-1.65,1.65-2.12,4.17-1.09,6.27
		c2.14,4.39,3.83,9.03,5,13.88c0.59,2.46,2.81,4.18,5.35,4.19l28.24,0.07C349.543,251.953,352.013,254.433,352.003,257.483z"/>
	<path style="fill:#44BFD7;" d="M352.003,257.483l-0.05,19.52c0,3.05-2.48,5.52-5.53,5.51l-30.09-0.07
		c-2.35-0.01-4.48,1.45-5.24,3.67c-0.82,2.37-1.76,4.67-2.82,6.91c-46.07-7.55-81.61-46.39-84.1-93.98
		c1.98-0.69,4.01-1.28,6.07-1.78c2.46-0.59,4.18-2.81,4.19-5.34l0.07-28.26c0-3.05,2.47-5.51,5.52-5.51h19.53
		c3.05,0,5.53,2.48,5.52,5.54l-0.07,30.14c-0.01,2.35,1.45,4.48,3.67,5.25c4.69,1.61,9.15,3.73,13.32,6.27
		c2.17,1.33,4.96,0.98,6.76-0.81l20.02-19.93c2.17-2.15,5.66-2.14,7.82,0.02l13.77,13.84c2.15,2.16,2.14,5.66-0.02,7.81
		l-21.35,21.25c-1.65,1.65-2.12,4.17-1.09,6.27c2.14,4.39,3.83,9.03,5,13.88c0.59,2.46,2.81,4.18,5.35,4.19l28.24,0.07
		C349.543,251.953,352.013,254.433,352.003,257.483z"/>
	<circle style="fill:#77D0E2;" cx="246.363" cy="263.806" r="47.601"/>
	<path style="fill:#44BFD7;" d="M287.733,287.353c-4.91,8.66-12.58,15.85-22.42,20.12c-24.12,10.47-52.15-0.6-62.62-24.72
		c-10.46-24.11,0.6-52.15,24.72-62.61c0.04-0.02,0.08-0.03,0.12-0.05C235.873,250.863,258.433,275.793,287.733,287.353z"/>
	<circle style="fill:#2CB3CD;" cx="246.363" cy="263.806" r="21.176"/>
	<path style="fill:#269AB1;" d="M237.753,244.463c-1.74,0.77-3.39,1.79-4.92,3.06c-9,7.47-10.23,20.82-2.76,29.82
		c7.48,8.99,20.83,10.23,29.82,2.75c1.95-1.62,3.54-3.53,4.75-5.6C253.783,266.413,244.613,256.193,237.753,244.463z"/>
</g>
<g>
</g>
<g>
</g>
<g>
</g>
<g>
</g>
<g>
</g>
<g>
</g>
<g>
</g>
<g>
</g>
<g>
</g>
<g>
</g>
<g>
</g>
<g>
</g>
<g>
</g>
<g>
</g>
<g>
</g>
</svg>
