<?xml version="1.0" encoding="iso-8859-1"?>
<!-- Generator: Adobe Illustrator 19.0.0, SVG Export Plug-In . SVG Version: 6.00 Build 0)  -->
<svg version="1.1" id="Layer_1" xmlns="http://www.w3.org/2000/svg" xmlns:xlink="http://www.w3.org/1999/xlink" x="0px" y="0px"
	 viewBox="0 0 499.09 499.09" style="enable-background:new 0 0 499.09 499.09;" xml:space="preserve">
<g>
	<path style="fill:#DEF4F8;" d="M444.105,454.207c-0.017,0-0.031,0-0.047,0c-0.005,0-0.013,0-0.018,0c-0.098,0-0.194,0-0.281,0
		c0.067,0,0.129,0,0.18,0c-0.077,0-0.183,0-0.324,0c0.042,0,0.082,0,0.121,0c-0.283,0-0.505,0-0.684,0c-0.011,0-0.022,0-0.034,0
		c-0.011,0-0.022,0-0.032,0c-0.059,0-0.114,0-0.179,0c-0.065,0-0.14,0-0.211,0c0.024,0,0.052,0,0.082,0c-0.053,0-0.099,0-0.13,0
		c0.003,0,0.005,0,0.008,0c-3.518-0.001-14.125-0.006-42.483-0.018c5.6,0,10.14-4.54,10.14-10.14v-21.422
		c0-5.6-4.54-10.14-10.14-10.14h-23.826V175.954l44.165,44.252c5.689,5.689,14.914,5.689,20.603,0l5.475-5.475
		c5.689-5.69,5.689-14.914,0-20.604L260.155,7.46c-5.692-5.692-15.034-5.715-20.748,0L52.602,194.127
		c-5.69,5.689-5.69,14.914,0,20.604l5.475,5.475c5.69,5.69,14.914,5.69,20.603,0l44.165-44.13v236.411H99.019
		c-5.6,0-10.14,4.54-10.14,10.14v21.422c0,5.6,4.54,10.14,10.14,10.14c-28.358,0.012-38.965,0.016-42.483,0.018
		c0.003,0,0.005,0,0.008,0c-0.031,0-0.077,0-0.13,0c0.03,0,0.057,0,0.082,0c-0.071,0-0.146,0-0.211,0c-0.065,0-0.12,0-0.179,0
		c-0.012,0-0.02,0-0.032,0c-0.011,0-0.023,0-0.034,0c-0.179,0-0.401,0-0.684,0c0.039,0,0.079,0,0.121,0c-0.141,0-0.247,0-0.325,0
		c0.051,0,0.113,0,0.18,0c-0.088,0-0.183,0-0.282,0c-0.006,0-0.013,0-0.018,0c-0.017,0-0.031,0-0.048,0
		c-5.6,0-10.139,4.54-10.139,10.139v21.422c0,5.6,4.54,10.139,10.139,10.139h389.12c5.6,0,10.139-4.54,10.139-10.139v-21.422
		C454.244,458.746,449.705,454.207,444.105,454.207z"/>
	<polygon style="fill:#C2EAF2;" points="376.245,142.955 376.245,495.753 122.845,495.753 122.845,142.955 249.545,26.235 
		269.565,44.675 	"/>
	<path style="fill:#DEF4F8;" d="M376.245,142.955v352.799h-216.81V182.415c0-14.56,5.62-28.57,15.69-39.09l94.44-98.65
		L376.245,142.955z"/>
	<path style="fill:#60C8DD;" d="M446.488,194.127L260.155,7.46c-5.692-5.692-15.034-5.715-20.748-0.001L52.602,194.127
		c-5.689,5.689-5.689,14.914,0,20.604l5.475,5.475c5.689,5.689,14.914,5.689,20.603,0L249.781,49.242L420.41,220.206
		c5.689,5.689,14.914,5.689,20.603,0l5.475-5.475C452.178,209.041,452.178,199.817,446.488,194.127z"/>
	<path style="fill:#44BFD7;" d="M400.071,454.188H99.019c-5.6,0-10.139-4.54-10.139-10.139v-21.422c0-5.6,4.54-10.139,10.139-10.139
		h301.051c5.6,0,10.139,4.54,10.139,10.139v21.422C410.21,449.648,405.67,454.188,400.071,454.188z"/>
	<path style="fill:#2CB3CD;" d="M54.985,495.907h389.12c5.6,0,10.139-4.54,10.139-10.139v-21.422c0-5.6-4.54-10.139-10.139-10.139
		H54.985c-5.6,0-10.139,4.54-10.139,10.139v21.422C44.846,491.368,49.385,495.907,54.985,495.907z"/>
	<path style="fill:#1AB975;" d="M248.504,331.786c-10.755,0-19.505-8.75-19.505-19.505c0-10.755,8.75-19.505,19.505-19.505
		c10.755,0,19.505,8.75,19.505,19.505C268.01,323.036,259.26,331.786,248.504,331.786z"/>
	<g>
		<path style="fill:#1ED688;" d="M250.632,188.548c-40.539-0.717-76.816,19.829-97.064,54.914c-2.07,3.587-0.84,8.174,2.747,10.245
			c3.588,2.069,8.174,0.84,10.245-2.748c17.482-30.292,48.827-48.005,83.813-47.414c34.96,0.604,65.626,19.375,82.031,50.213
			c1.349,2.535,3.944,3.979,6.628,3.979c1.188,0,2.394-0.283,3.516-0.88c3.657-1.945,5.044-6.487,3.099-10.144
			C326.644,210.992,291.125,189.248,250.632,188.548z"/>
		<path style="fill:#1ED688;" d="M249.815,219.997c-31.699-0.496-59.708,15.927-74.833,43.965c-1.967,3.646-0.606,8.195,3.04,10.161
			c3.646,1.969,8.195,0.606,10.161-3.04c12.416-23.014,35.391-36.49,61.392-36.088c26.15,0.419,48.733,14.644,60.409,38.052
			c1.313,2.632,3.963,4.154,6.717,4.154c1.125,0,2.267-0.254,3.342-0.79c3.707-1.849,5.212-6.353,3.364-10.059
			C309.396,238.261,281.197,220.499,249.815,219.997z"/>
		<path style="fill:#1ED688;" d="M249.26,253.238c-22.331-0.287-42.278,11.941-52.173,31.933c-1.837,3.712-0.317,8.211,3.395,10.049
			c3.714,1.839,8.211,0.317,10.049-3.395c7.42-14.991,21.84-23.789,38.531-23.588c16.709,0.221,30.875,9.414,37.892,24.589
			c1.268,2.74,3.979,4.354,6.813,4.354c1.053,0,2.124-0.223,3.143-0.694c3.759-1.739,5.398-6.196,3.66-9.956
			C291.209,266.29,271.549,253.533,249.26,253.238z"/>
		<path style="fill:#1ED688;" d="M57.243,406.487C31.187,391.45,15,363.441,15,333.39c0-31.252,17.141-59.786,44.733-74.463
			c3.657-1.945,5.044-6.487,3.099-10.144c-1.945-3.656-6.486-5.043-10.144-3.099C20.189,262.972,0,296.58,0,333.39
			c0,35.394,19.062,68.381,49.745,86.089c1.181,0.681,2.47,1.005,3.742,1.005c2.592,0,5.114-1.346,6.503-3.752
			C62.061,413.145,60.831,408.558,57.243,406.487z"/>
		<path style="fill:#1ED688;" d="M75.292,387.063c-19.757-10.658-32.031-31.177-32.031-53.548c0-23.195,12.94-44.059,33.772-54.45
			c3.707-1.849,5.212-6.353,3.364-10.059c-1.848-3.707-6.353-5.212-10.059-3.364c-25.954,12.946-42.077,38.953-42.077,67.873
			c0,27.893,15.292,53.47,39.909,66.749c1.133,0.611,2.352,0.901,3.555,0.901c2.668,0,5.251-1.428,6.607-3.94
			C80.298,393.58,78.937,389.03,75.292,387.063z"/>
		<path style="fill:#1ED688;" d="M94.771,299.753c3.759-1.739,5.398-6.196,3.66-9.956c-1.739-3.759-6.196-5.4-9.956-3.66
			c-18.452,8.533-30.375,27.154-30.375,47.44c0,20.003,11.165,37.956,29.136,46.852c1.07,0.529,2.204,0.78,3.321,0.78
			c2.762,0,5.419-1.532,6.728-4.174c1.837-3.712,0.317-8.211-3.395-10.049C81.066,360.64,73.1,347.838,73.1,333.579
			C73.1,319.118,81.606,305.841,94.771,299.753z"/>
		<path style="fill:#1ED688;" d="M449.345,245.809c-3.589-2.07-8.175-0.84-10.245,2.747c-2.07,3.588-0.84,8.174,2.747,10.245
			c26.057,15.037,42.243,43.046,42.243,73.097c0,31.252-17.141,59.786-44.733,74.463c-3.657,1.945-5.044,6.487-3.099,10.144
			c1.349,2.535,3.944,3.979,6.628,3.979c1.188,0,2.394-0.283,3.516-0.88c32.499-17.289,52.688-50.896,52.688-87.707
			C499.09,296.504,480.028,263.517,449.345,245.809z"/>
		<path style="fill:#1ED688;" d="M470.829,331.773c0-27.893-15.292-53.47-39.909-66.749c-3.646-1.968-8.195-0.605-10.162,3.04
			c-1.967,3.646-0.606,8.195,3.04,10.162c19.757,10.658,32.031,31.177,32.031,53.548c0,23.195-12.94,44.059-33.772,54.45
			c-3.707,1.849-5.212,6.353-3.364,10.059c1.313,2.632,3.963,4.154,6.717,4.154c1.125,0,2.267-0.254,3.342-0.79
			C454.706,386.7,470.829,360.693,470.829,331.773z"/>
		<path style="fill:#1ED688;" d="M440.99,331.71c0-20.004-11.165-37.957-29.136-46.852c-3.714-1.837-8.211-0.317-10.049,3.395
			c-1.837,3.712-0.317,8.211,3.395,10.049c12.824,6.347,20.791,19.149,20.791,33.409c0,14.46-8.506,27.738-21.671,33.825
			c-3.759,1.739-5.398,6.196-3.66,9.956c1.268,2.74,3.979,4.354,6.813,4.354c1.053,0,2.124-0.223,3.143-0.694
			C429.067,370.618,440.99,351.996,440.99,331.71z"/>
	</g>
</g>
<g>
</g>
<g>
</g>
<g>
</g>
<g>
</g>
<g>
</g>
<g>
</g>
<g>
</g>
<g>
</g>
<g>
</g>
<g>
</g>
<g>
</g>
<g>
</g>
<g>
</g>
<g>
</g>
<g>
</g>
</svg>
