<?xml version="1.0" encoding="iso-8859-1"?>
<!-- Generator: Adobe Illustrator 19.0.0, SVG Export Plug-In . SVG Version: 6.00 Build 0)  -->
<svg version="1.1" id="Layer_1" xmlns="http://www.w3.org/2000/svg" xmlns:xlink="http://www.w3.org/1999/xlink" x="0px" y="0px"
	 viewBox="0 0 499.09 499.09" style="enable-background:new 0 0 499.09 499.09;" xml:space="preserve">
<g>
	<path style="fill:#B9C3CD;" d="M379.655,25.255v448.58c0,12.36-10.03,22.39-22.4,22.39h-215.42c-12.37,0-22.4-10.03-22.4-22.39
		V25.255c0-12.36,10.03-22.39,22.4-22.39h215.42C369.625,2.865,379.655,12.895,379.655,25.255z"/>
	<path style="fill:#DCE6EB;" d="M379.655,25.255v448.58c0,12.36-10.03,22.39-22.4,22.39h-179.12c-12.37,0-22.4-10.03-22.4-22.39
		V25.255c0-12.36,10.03-22.39,22.4-22.39h179.12C369.625,2.865,379.655,12.895,379.655,25.255z"/>
	<path style="fill:#44BFD7;" d="M379.655,227.485v246.35c0,12.36-10.03,22.39-22.4,22.39h-215.42c-12.37,0-22.4-10.03-22.4-22.39
		v-246.35H379.655z"/>
	<path style="fill:#4E5A61;" d="M291.045,110.495c0,17.82-11.23,33.02-27,38.89c-4.51,1.69-9.4,2.61-14.5,2.61
		c-22.92,0-41.5-18.58-41.5-41.5c0-22.91,18.58-41.5,41.5-41.5c5.1,0,9.99,0.92,14.5,2.61
		C279.815,77.485,291.045,92.685,291.045,110.495z"/>
	<path style="fill:#5F6C75;" d="M291.045,110.495c0,17.82-11.23,33.02-27,38.89c-15.77-5.87-27-21.07-27-38.89
		c0-17.81,11.23-33.01,27-38.89C279.815,77.485,291.045,92.685,291.045,110.495z"/>
	<circle style="fill:#7E8B96;" cx="261.045" cy="102.933" r="11.5"/>
	<path style="fill:#269AB1;" d="M249.545,452.415c-49.075,0-89-39.925-89-89s39.925-89,89-89c49.074,0,89,39.925,89,89
		S298.619,452.415,249.545,452.415z"/>
	<path style="fill:#2CB3CD;" d="M308.095,363.415c0,27.02-18.39,49.83-43.33,56.54c-4.85,1.31-9.96,2.01-15.22,2.01
		c-32.29,0-58.55-26.26-58.55-58.55s26.26-58.55,58.55-58.55c5.26,0,10.37,0.7,15.22,2.01
		C289.705,313.585,308.095,336.395,308.095,363.415z"/>
	<path style="fill:#60C8DD;" d="M308.095,363.415c0,27.02-18.39,49.83-43.33,56.54c-24.93-6.71-43.33-29.52-43.33-56.54
		s18.4-49.83,43.33-56.54C289.705,313.585,308.095,336.395,308.095,363.415z"/>
	<g>
		<path style="fill:#60C8DD;" d="M57.243,406.487C31.187,391.45,15,363.441,15,333.39c0-31.252,17.141-59.786,44.733-74.463
			c3.657-1.945,5.044-6.487,3.099-10.144c-1.945-3.656-6.487-5.043-10.144-3.099C20.189,262.972,0,296.58,0,333.39
			c0,35.394,19.062,68.381,49.745,86.089c1.181,0.681,2.47,1.005,3.742,1.005c2.592,0,5.114-1.346,6.503-3.752
			C62.061,413.145,60.831,408.558,57.243,406.487z"/>
		<path style="fill:#60C8DD;" d="M75.292,387.063c-19.757-10.658-32.031-31.177-32.031-53.548c0-23.195,12.94-44.059,33.772-54.45
			c3.707-1.849,5.212-6.353,3.364-10.059s-6.353-5.212-10.059-3.364c-25.954,12.946-42.077,38.953-42.077,67.873
			c0,27.893,15.292,53.47,39.909,66.749c1.133,0.611,2.352,0.901,3.555,0.901c2.668,0,5.251-1.428,6.607-3.94
			C80.298,393.58,78.937,389.03,75.292,387.063z"/>
		<path style="fill:#60C8DD;" d="M94.771,299.753c3.759-1.739,5.398-6.196,3.66-9.956c-1.739-3.759-6.195-5.4-9.956-3.66
			c-18.452,8.533-30.375,27.154-30.375,47.44c0,20.003,11.165,37.956,29.136,46.852c1.07,0.529,2.204,0.78,3.321,0.78
			c2.762,0,5.419-1.532,6.728-4.174c1.837-3.712,0.317-8.211-3.395-10.049C81.066,360.64,73.1,347.838,73.1,333.579
			C73.1,319.118,81.606,305.841,94.771,299.753z"/>
		<path style="fill:#60C8DD;" d="M449.345,245.809c-3.586-2.07-8.175-0.841-10.245,2.747s-0.84,8.174,2.747,10.245
			c26.057,15.037,42.243,43.046,42.243,73.097c0,31.253-17.141,59.786-44.733,74.463c-3.657,1.945-5.044,6.487-3.099,10.144
			c1.348,2.535,3.943,3.979,6.628,3.979c1.188,0,2.394-0.283,3.516-0.88c32.499-17.289,52.688-50.896,52.688-87.707
			C499.09,296.504,480.028,263.517,449.345,245.809z"/>
		<path style="fill:#60C8DD;" d="M470.829,331.773c0-27.893-15.292-53.469-39.909-66.749c-3.643-1.967-8.194-0.605-10.161,3.04
			c-1.967,3.646-0.605,8.195,3.04,10.162c19.757,10.659,32.03,31.177,32.03,53.548c0,23.195-12.94,44.059-33.772,54.45
			c-3.707,1.849-5.213,6.353-3.364,10.059c1.313,2.632,3.964,4.154,6.718,4.154c1.125,0,2.267-0.254,3.342-0.79
			C454.706,386.7,470.829,360.693,470.829,331.773z"/>
		<path style="fill:#60C8DD;" d="M440.99,331.71c0-20.004-11.165-37.957-29.137-46.852c-3.712-1.837-8.212-0.317-10.049,3.395
			c-1.838,3.712-0.317,8.211,3.395,10.048c12.824,6.347,20.791,19.149,20.791,33.409c0,14.461-8.507,27.738-21.671,33.825
			c-3.76,1.739-5.398,6.196-3.66,9.956c1.268,2.74,3.979,4.354,6.813,4.354c1.054,0,2.124-0.223,3.143-0.694
			C429.067,370.618,440.99,351.997,440.99,331.71z"/>
	</g>
	<path style="fill:#269AB1;" d="M178.135,496.225h-36.3c-12.37,0-22.4-10.03-22.4-22.39v-246.35h36.3v246.35
		C155.735,486.195,165.765,496.225,178.135,496.225z"/>
</g>
<g>
</g>
<g>
</g>
<g>
</g>
<g>
</g>
<g>
</g>
<g>
</g>
<g>
</g>
<g>
</g>
<g>
</g>
<g>
</g>
<g>
</g>
<g>
</g>
<g>
</g>
<g>
</g>
<g>
</g>
</svg>
