<?xml version="1.0" encoding="iso-8859-1"?>
<!-- Generator: Adobe Illustrator 19.0.0, SVG Export Plug-In . SVG Version: 6.00 Build 0)  -->
<svg version="1.1" id="Layer_1" xmlns="http://www.w3.org/2000/svg" xmlns:xlink="http://www.w3.org/1999/xlink" x="0px" y="0px"
	 viewBox="0 0 494.917 494.917" style="enable-background:new 0 0 494.917 494.917;" xml:space="preserve">
<g>
	<path style="fill:#7CD2E3;" d="M246.957,493.814c-65.951,0-127.955-25.683-174.589-72.317
		C25.733,374.862,0.05,312.858,0.05,246.907S25.733,118.952,72.367,72.318C119.003,25.683,181.007,0,246.957,0
		s127.955,25.683,174.59,72.317c46.635,46.635,72.318,108.639,72.318,174.59s-25.683,127.955-72.317,174.589
		C374.912,468.131,312.908,493.814,246.957,493.814z"/>
	<path style="fill:#269AB1;" d="M460.317,246.907c0,56.99-22.2,110.57-62.49,150.87c-35.89,35.88-82.32,57.42-132.3,61.7h-0.06
		c-6.12,0.53-12.3,0.79-18.51,0.79c-56.99,0-110.57-22.2-150.87-62.49c-40.29-40.3-62.49-93.88-62.49-150.87
		s22.2-110.57,62.49-150.87c40.3-40.29,93.88-62.49,150.87-62.49c6.21,0,12.39,0.26,18.51,0.79h0.06
		c49.98,4.28,96.41,25.82,132.3,61.7C438.117,136.337,460.317,189.917,460.317,246.907z"/>
	<path style="fill:#2CB3CD;" d="M460.317,246.907c0,56.99-22.2,110.57-62.49,150.87c-35.89,35.88-82.32,57.42-132.3,61.7h-0.06
		c-49.99-4.28-96.42-25.82-132.3-61.7c-40.3-40.3-62.5-93.88-62.5-150.87s22.2-110.57,62.5-150.87
		c35.88-35.88,82.31-57.42,132.3-61.7h0.06c49.98,4.28,96.41,25.82,132.3,61.7C438.117,136.337,460.317,189.917,460.317,246.907z"/>
	<g>
		<path style="fill:#DCE6EB;" d="M265.339,75.572c32.909,3.487,63.954,16.347,89.78,37.191c1.387,1.12,3.052,1.664,4.705,1.664
			c2.189,0,4.359-0.954,5.841-2.79c2.602-3.223,2.098-7.945-1.126-10.547c-28.076-22.661-61.833-36.643-97.62-40.434
			c-4.128-0.441-7.813,2.549-8.248,6.668C258.235,71.443,261.22,75.136,265.339,75.572z"/>
		<path style="fill:#DCE6EB;" d="M426.54,258.62c-4.126-0.434-7.813,2.55-8.248,6.668c-3.487,32.909-16.347,63.955-37.19,89.78
			c-2.602,3.223-2.098,7.945,1.126,10.547c3.223,2.602,7.945,2.097,10.546-1.126c22.661-28.077,36.644-61.834,40.435-97.621
			C433.645,262.749,430.659,259.056,426.54,258.62z"/>
		<path style="fill:#DCE6EB;" d="M75.622,265.288c-0.436-4.119-4.122-7.105-8.248-6.668c-4.119,0.437-7.104,4.129-6.668,8.249
			c3.791,35.787,17.773,69.544,40.435,97.621c1.481,1.836,3.651,2.79,5.841,2.79c6.195,0,9.836-7.25,5.831-12.211
			C91.969,329.243,79.11,298.198,75.622,265.288z"/>
		<path style="fill:#DCE6EB;" d="M355.119,381.051c-25.826,20.844-56.871,33.704-89.78,37.191c-4.119,0.436-7.104,4.129-6.668,8.248
			c0.407,3.851,3.661,6.71,7.449,6.71c0.264,0,0.53-0.014,0.799-0.042c35.787-3.792,69.544-17.773,97.62-40.434
			c3.224-2.602,3.728-7.324,1.126-10.547C363.066,378.955,358.343,378.449,355.119,381.051z"/>
		<path style="fill:#DCE6EB;" d="M228.575,418.242c-32.909-3.487-63.954-16.347-89.78-37.191c-3.224-2.603-7.946-2.097-10.546,1.126
			c-2.602,3.223-2.098,7.945,1.126,10.547c28.076,22.661,61.833,36.643,97.62,40.434c4.104,0.44,7.811-2.54,8.248-6.668
			C235.68,422.371,232.695,418.678,228.575,418.242z"/>
		<path style="fill:#DCE6EB;" d="M418.292,228.526c0.407,3.851,3.661,6.71,7.449,6.71c0.264,0,0.53-0.014,0.799-0.042
			c4.119-0.437,7.104-4.129,6.668-8.249c-3.791-35.787-17.773-69.544-40.435-97.621c-2.6-3.222-7.322-3.729-10.546-1.126
			c-3.224,2.602-3.728,7.324-1.126,10.547C401.946,164.571,414.805,195.616,418.292,228.526z"/>
		<path style="fill:#DCE6EB;" d="M138.795,112.763c25.826-20.844,56.871-33.704,89.78-37.191c4.119-0.436,7.104-4.129,6.668-8.248
			c-0.436-4.119-4.119-7.107-8.248-6.668c-35.787,3.792-69.544,17.773-97.62,40.434c-3.224,2.602-3.728,7.324-1.126,10.547
			C130.851,114.861,135.573,115.364,138.795,112.763z"/>
		<path style="fill:#DCE6EB;" d="M68.173,235.236c3.787,0,7.042-2.86,7.449-6.71c3.487-32.909,16.347-63.955,37.19-89.78
			c2.602-3.223,2.098-7.945-1.126-10.547c-3.224-2.603-7.946-2.097-10.546,1.126c-22.661,28.077-36.644,61.834-40.435,97.621
			C60.238,231.364,63.696,235.236,68.173,235.236z"/>
		<path style="fill:#DCE6EB;" d="M334.319,130.975c-19.647-14.847-42.868-24.488-67.151-27.881c-4.105-0.577-7.892,2.288-8.466,6.39
			c-0.573,4.103,2.287,7.893,6.39,8.466c21.759,3.041,42.57,11.683,60.185,24.994c3.333,2.517,8.029,1.815,10.505-1.462
			C338.278,138.176,337.623,133.472,334.319,130.975z"/>
		<path style="fill:#DCE6EB;" d="M356.9,337.247c2.271,0,4.515-1.028,5.989-2.979c14.848-19.649,24.489-42.87,27.882-67.152
			c0.573-4.102-2.288-7.892-6.39-8.465c-4.105-0.575-7.893,2.288-8.466,6.39c-3.04,21.757-11.683,42.569-24.993,60.185
			C347.164,330.197,350.788,337.247,356.9,337.247z"/>
		<path style="fill:#DCE6EB;" d="M103.144,267.116c3.393,24.282,13.034,47.503,27.882,67.152c1.475,1.952,3.718,2.979,5.989,2.979
			c6.116,0,9.734-7.052,5.978-12.022c-13.311-17.616-21.953-38.427-24.993-60.185c-0.573-4.103-4.36-6.966-8.466-6.39
			C105.432,259.224,102.571,263.014,103.144,267.116z"/>
		<path style="fill:#DCE6EB;" d="M258.701,384.331c0.524,3.75,3.736,6.463,7.418,6.463c0.346,0,0.696-0.024,1.048-0.073
			c24.283-3.393,47.504-13.035,67.151-27.881c3.305-2.498,3.959-7.201,1.462-10.505c-2.496-3.304-7.198-3.96-10.505-1.462
			c-17.614,13.311-38.426,21.953-60.185,24.994C260.989,376.438,258.128,380.228,258.701,384.331z"/>
		<path style="fill:#DCE6EB;" d="M159.596,362.839c19.647,14.847,42.868,24.488,67.151,27.881c0.353,0.049,0.702,0.073,1.048,0.073
			c3.682,0,6.894-2.713,7.418-6.463c0.573-4.103-2.287-7.893-6.39-8.466c-21.759-3.041-42.57-11.683-60.185-24.994
			c-3.305-2.497-8.008-1.843-10.505,1.462C155.637,355.638,156.291,360.342,159.596,362.839z"/>
		<path style="fill:#DCE6EB;" d="M390.771,226.698c-3.393-24.282-13.034-47.503-27.882-67.152c-2.496-3.304-7.198-3.96-10.505-1.462
			c-3.305,2.498-3.96,7.201-1.462,10.505c13.311,17.616,21.953,38.427,24.993,60.185c0.571,4.09,4.351,6.966,8.466,6.39
			C388.483,234.59,391.344,230.8,390.771,226.698z"/>
		<path style="fill:#DCE6EB;" d="M164.123,144.459c1.574,0,3.162-0.494,4.516-1.517c17.614-13.311,38.426-21.953,60.185-24.994
			c4.103-0.573,6.963-4.363,6.39-8.466c-0.574-4.103-4.372-6.968-8.466-6.39c-24.283,3.393-47.504,13.035-67.151,27.881
			c-3.305,2.498-3.959,7.201-1.462,10.505C159.609,143.432,161.852,144.459,164.123,144.459z"/>
		<path style="fill:#DCE6EB;" d="M141.531,158.083c-3.305-2.497-8.008-1.843-10.505,1.462
			c-14.848,19.649-24.489,42.87-27.882,67.152c-0.573,4.102,2.288,7.892,6.39,8.465c4.121,0.576,7.896-2.306,8.466-6.39
			c3.04-21.757,11.683-42.569,24.993-60.185C145.49,165.284,144.835,160.581,141.531,158.083z"/>
		<path style="fill:#DCE6EB;" d="M264.753,151.885c13.251,2.474,25.619,7.616,36.761,15.284c1.299,0.894,2.779,1.322,4.245,1.322
			c7.347,0,10.312-9.513,4.259-13.679c-12.882-8.866-27.186-14.812-42.513-17.672c-4.065-0.762-7.988,1.924-8.749,5.996
			C257.996,147.207,260.681,151.125,264.753,151.885z"/>
		<path style="fill:#DCE6EB;" d="M339.053,309.968c8.865-12.882,14.811-27.186,17.672-42.513c0.76-4.072-1.925-7.989-5.997-8.749
			c-4.066-0.759-7.988,1.924-8.749,5.997c-2.473,13.25-7.614,25.619-15.283,36.761c-3.459,5.028,0.239,11.752,6.172,11.752
			C335.253,313.216,337.598,312.081,339.053,309.968z"/>
		<path style="fill:#DCE6EB;" d="M161.047,313.216c1.466,0,2.946-0.429,4.245-1.322c3.412-2.348,4.274-7.018,1.927-10.43
			c-7.669-11.142-12.811-23.511-15.283-36.761c-0.761-4.073-4.684-6.755-8.749-5.997c-4.072,0.76-6.757,4.677-5.997,8.749
			c2.861,15.327,8.807,29.631,17.672,42.513C156.317,312.081,158.661,313.216,161.047,313.216z"/>
		<path style="fill:#DCE6EB;" d="M267.505,356.675c15.327-2.861,29.631-8.807,42.513-17.672c3.412-2.348,4.274-7.018,1.927-10.43
			c-2.35-3.412-7.018-4.274-10.431-1.926c-11.142,7.668-23.51,12.81-36.761,15.284c-4.072,0.76-6.757,4.677-5.997,8.749
			C259.514,354.737,263.422,357.438,267.505,356.675z"/>
		<path style="fill:#DCE6EB;" d="M229.161,341.929c-13.251-2.474-25.619-7.616-36.761-15.284c-3.413-2.349-8.081-1.486-10.431,1.926
			c-2.348,3.412-1.485,8.082,1.927,10.43c12.882,8.866,27.186,14.812,42.513,17.672c0.465,0.087,0.928,0.129,1.385,0.129
			c3.54,0,6.69-2.519,7.364-6.125C235.918,346.607,233.234,342.689,229.161,341.929z"/>
		<path style="fill:#DCE6EB;" d="M328.622,181.92c-3.412,2.348-4.274,7.018-1.927,10.43c7.669,11.142,12.811,23.511,15.283,36.761
			c0.674,3.607,3.824,6.125,7.364,6.125c0.457,0,0.92-0.042,1.385-0.129c4.072-0.76,6.757-4.677,5.997-8.749
			c-2.861-15.327-8.807-29.631-17.672-42.513C336.704,180.434,332.035,179.572,328.622,181.92z"/>
		<path style="fill:#DCE6EB;" d="M235.158,143.136c-0.761-4.072-4.686-6.757-8.749-5.996c-15.327,2.861-29.631,8.807-42.513,17.672
			c-3.412,2.348-4.274,7.018-1.927,10.43c1.455,2.114,3.8,3.249,6.186,3.249c1.466,0,2.946-0.429,4.245-1.322
			c11.142-7.668,23.51-12.81,36.761-15.284C233.234,151.125,235.918,147.207,235.158,143.136z"/>
		<path style="fill:#DCE6EB;" d="M154.862,183.846c-8.865,12.882-14.811,27.186-17.672,42.513c-0.862,4.621,2.688,8.877,7.382,8.877
			c3.54,0,6.69-2.519,7.364-6.125c2.473-13.25,7.614-25.619,15.283-36.761c2.348-3.412,1.485-8.082-1.927-10.43
			C161.879,179.571,157.21,180.435,154.862,183.846z"/>
		<path style="fill:#DCE6EB;" d="M285.131,178.761c-5.348-3.005-11.055-5.375-16.963-7.045c-3.986-1.126-8.131,1.193-9.257,5.179
			c-1.126,3.986,1.192,8.13,5.179,9.257c4.77,1.347,9.376,3.26,13.691,5.686c1.162,0.653,2.424,0.963,3.668,0.963
			c2.622,0,5.169-1.378,6.545-3.827C290.024,185.364,288.741,180.791,285.131,178.761z"/>
		<path style="fill:#DCE6EB;" d="M308.558,288.908c2.622,0,5.169-1.378,6.545-3.827c3.006-5.35,5.376-11.057,7.045-16.963
			c1.126-3.986-1.193-8.13-5.179-9.256c-3.985-1.125-8.131,1.193-9.257,5.179c-1.347,4.768-3.26,9.375-5.686,13.692
			C299.188,282.783,302.921,288.908,308.558,288.908z"/>
		<path style="fill:#DCE6EB;" d="M189.024,287.945c3.611-2.029,4.894-6.602,2.864-10.213c-2.426-4.317-4.339-8.924-5.686-13.692
			c-1.126-3.986-5.269-6.303-9.257-5.179c-3.985,1.126-6.305,5.271-5.179,9.256c1.669,5.907,4.039,11.614,7.045,16.963
			c1.376,2.449,3.922,3.827,6.545,3.827C186.601,288.908,187.863,288.597,189.024,287.945z"/>
		<path style="fill:#DCE6EB;" d="M277.781,301.976c-4.315,2.426-8.922,4.338-13.691,5.686c-3.986,1.126-6.305,5.271-5.179,9.257
			c1.121,3.967,5.251,6.309,9.257,5.179c5.908-1.669,11.615-4.04,16.963-7.045c3.61-2.029,4.893-6.602,2.863-10.213
			C285.966,301.229,281.392,299.949,277.781,301.976z"/>
		<path style="fill:#DCE6EB;" d="M208.783,315.053c5.348,3.005,11.055,5.375,16.963,7.045c4.013,1.132,8.138-1.218,9.257-5.179
			c1.126-3.986-1.192-8.13-5.179-9.257c-4.77-1.347-9.376-3.26-13.691-5.686c-3.612-2.03-8.184-0.747-10.213,2.863
			C203.891,308.45,205.173,313.023,208.783,315.053z"/>
		<path style="fill:#DCE6EB;" d="M304.891,205.869c-3.611,2.029-4.894,6.602-2.864,10.213c2.426,4.317,4.339,8.924,5.686,13.692
			c0.934,3.305,3.941,5.463,7.214,5.463c4.971,0,8.573-4.756,7.222-9.541c-1.669-5.907-4.039-11.614-7.045-16.963
			C313.073,205.122,308.5,203.839,304.891,205.869z"/>
		<path style="fill:#DCE6EB;" d="M216.133,191.838c4.315-2.426,8.922-4.338,13.691-5.686c3.986-1.126,6.305-5.271,5.179-9.257
			c-1.126-3.986-5.269-6.304-9.257-5.179c-5.908,1.669-11.615,4.04-16.963,7.045c-3.61,2.029-4.893,6.602-2.863,10.213
			c1.376,2.449,3.923,3.827,6.545,3.827C213.709,192.801,214.971,192.49,216.133,191.838z"/>
		<path style="fill:#DCE6EB;" d="M189.024,205.869c-3.608-2.029-8.183-0.747-10.212,2.864c-3.006,5.35-5.376,11.057-7.045,16.963
			c-1.351,4.784,2.25,9.541,7.222,9.541c3.272,0,6.28-2.159,7.214-5.463c1.347-4.768,3.26-9.375,5.686-13.692
			C193.917,212.471,192.635,207.899,189.024,205.869z"/>
	</g>
	<path style="fill:#FB5858;" d="M494.867,389.497c0,49.02-33.46,90.22-78.78,102.02c-8.51,2.22-17.44,3.4-26.64,3.4
		c-58.22,0-105.42-47.2-105.42-105.42c0-58.22,47.2-105.42,105.42-105.42c9.2,0,18.13,1.18,26.64,3.4
		C461.407,299.277,494.867,340.477,494.867,389.497z"/>
	<path style="fill:#FC7979;" d="M494.867,389.497c0,49.02-33.46,90.22-78.78,102.02c-45.33-11.8-78.79-53-78.79-102.02
		c0-49.02,33.46-90.22,78.79-102.02C461.407,299.277,494.867,340.477,494.867,389.497z"/>
	<path style="fill:#C42D2D;" d="M445.333,378.233c-5.799,13.145-13.491,23.9-22.24,31.015c12.785-47.225-3.792-94.625-8.584-97.368
		c-2.806-1.623-4.995,4.123-6.131,8.744c-6.112,24.834-16.077,46.942-28.622,63.531c4.04-14.543,3.733-32.207-0.539-46.516
		c-0.892-2.989-3.49-2.822-4.251,0.269c-2.078,8.448-5.253,16.126-9.259,22.3c-5.213-14.76-10.426-29.528-15.64-44.289
		c-0.905-2.564-3.102-2.589-4.03-0.048c-17.018,46.593-18.213,65.01-16.9,94.371c1.429,31.978,27.798,57.159,59.807,57.159h0
		c30.062,0,55.444-22.298,59.365-52.102c1.84-13.986,2.393-27.405,1.209-35.616C449.045,376.391,446.532,375.516,445.333,378.233z"
		/>
	<circle style="fill:#269AB1;" cx="246.957" cy="246.907" r="37.072"/>
</g>
<g>
</g>
<g>
</g>
<g>
</g>
<g>
</g>
<g>
</g>
<g>
</g>
<g>
</g>
<g>
</g>
<g>
</g>
<g>
</g>
<g>
</g>
<g>
</g>
<g>
</g>
<g>
</g>
<g>
</g>
</svg>
