<?xml version="1.0" encoding="iso-8859-1"?>
<!-- Generator: Adobe Illustrator 19.0.0, SVG Export Plug-In . SVG Version: 6.00 Build 0)  -->
<svg version="1.1" id="Layer_1" xmlns="http://www.w3.org/2000/svg" xmlns:xlink="http://www.w3.org/1999/xlink" x="0px" y="0px"
	 viewBox="0 0 493.08 493.08" style="enable-background:new 0 0 493.08 493.08;" xml:space="preserve">
<g>
	<path style="fill:#B9C3CD;" d="M390.88,40.728v309.53c0,22.46-18.21,40.68-40.68,40.68H40.68c-22.47,0-40.68-18.22-40.68-40.68
		V40.728c0-22.46,18.21-40.67,40.68-40.67H350.2C372.67,0.058,390.88,18.268,390.88,40.728z"/>
	<path style="fill:#C8D2DC;" d="M390.88,40.728v309.53c0,22.46-18.21,40.68-40.68,40.68H76.37c-22.46,0-40.67-18.22-40.67-40.68
		V40.728c0-22.46,18.21-40.67,40.67-40.67H350.2C372.67,0.058,390.88,18.268,390.88,40.728z"/>
	<path style="fill:#5F6C75;" d="M297.12,156.338c0,50.06-36.23,91.91-84.22,100.19c-5.67,0.98-11.5,1.49-17.46,1.49
		c-56.18,0-101.68-45.52-101.68-101.68c0-56.17,45.52-101.68,101.68-101.68c5.96,0,11.79,0.51,17.46,1.49
		C260.9,64.438,297.12,106.298,297.12,156.338z"/>
	<path style="fill:#7E8B96;" d="M297.12,156.338c0,50.06-36.23,91.91-84.22,100.19c-47.87-8.25-84.26-49.97-84.26-100.19
		c0-50.23,36.4-91.93,84.26-100.19C260.9,64.438,297.12,106.298,297.12,156.338z"/>
	<g>
		<circle style="fill:#4E5A61;" cx="239.132" cy="156.339" r="15.66"/>
		<circle style="fill:#4E5A61;" cx="151.744" cy="156.339" r="15.66"/>
	</g>
	<g>
		<path style="fill:#7E8B96;" d="M333.02,309.688v20.06c0,3.62-2.98,6.58-6.6,6.58h-56.57c-3.62,0-6.6-2.96-6.6-6.58v-20.06
			c0-3.63,2.98-6.59,6.6-6.59h56.57C330.04,303.098,333.02,306.058,333.02,309.688z"/>
		<path style="fill:#7E8B96;" d="M230.32,309.688v20.06c0,3.62-2.97,6.58-6.6,6.58h-56.57c-3.62,0-6.59-2.96-6.59-6.58v-20.06
			c0-3.63,2.97-6.59,6.59-6.59h56.57C227.35,303.098,230.32,306.058,230.32,309.688z"/>
		<path style="fill:#7E8B96;" d="M127.62,309.688v20.06c0,3.62-2.97,6.58-6.59,6.58H64.45c-3.62,0-6.59-2.96-6.59-6.58v-20.06
			c0-3.63,2.97-6.59,6.59-6.59h56.58C124.65,303.098,127.62,306.058,127.62,309.688z"/>
	</g>
	<g>
		<path style="fill:#5F6C75;" d="M333.02,324.688v5.06c0,3.62-2.98,6.58-6.6,6.58h-56.57c-3.62,0-6.6-2.96-6.6-6.58v-5.06
			c0-3.63,2.98-6.59,6.6-6.59h56.57C330.04,318.098,333.02,321.058,333.02,324.688z"/>
		<path style="fill:#5F6C75;" d="M230.32,324.688v5.06c0,3.62-2.97,6.58-6.6,6.58h-56.57c-3.62,0-6.59-2.96-6.59-6.58v-5.06
			c0-3.63,2.97-6.59,6.59-6.59h56.57C227.35,318.098,230.32,321.058,230.32,324.688z"/>
		<path style="fill:#5F6C75;" d="M127.62,324.688v5.06c0,3.62-2.97,6.58-6.59,6.58H64.45c-3.62,0-6.59-2.96-6.59-6.58v-5.06
			c0-3.63,2.97-6.59,6.59-6.59h56.58C124.65,318.098,127.62,321.058,127.62,324.688z"/>
	</g>
	<path style="fill:#1AB975;" d="M493.08,391.642c0,51.03-37.9,93.38-87.04,100.36c-4.68,0.68-9.47,1.02-14.34,1.02
		c-55.91,0-101.39-45.48-101.39-101.38c0-55.91,45.48-101.39,101.39-101.39c4.87,0,9.66,0.34,14.34,1.02
		C455.18,298.252,493.08,340.602,493.08,391.642z"/>
	<path style="fill:#1ED688;" d="M493.08,391.642c0,51.03-37.9,93.38-87.04,100.36c-49.14-6.97-87.06-49.32-87.06-100.36
		c0-51.04,37.92-93.4,87.06-100.37C455.18,298.252,493.08,340.602,493.08,391.642z"/>
	<g>
		<path style="fill:#106E46;" d="M468.904,377.351c-15.348-28.851-45.182-46.773-77.861-46.773
			c-31.42,0-60.704,16.921-76.424,44.161c-2.07,3.588-0.84,8.174,2.747,10.245c3.587,2.068,8.174,0.839,10.245-2.747
			c13.049-22.612,37.355-36.659,63.432-36.659c27.121,0,51.88,14.875,64.618,38.818c1.349,2.535,3.944,3.979,6.628,3.979
			c1.188,0,2.394-0.283,3.516-0.88C469.462,385.55,470.85,381.008,468.904,377.351z"/>
		<path style="fill:#106E46;" d="M390.933,355.407c-24.841,0-47.62,13.619-59.445,35.542c-1.966,3.646-0.605,8.195,3.041,10.162
			c3.645,1.967,8.195,0.605,10.162-3.041c9.204-17.063,26.923-27.663,46.243-27.663c20.031,0,38.049,11.176,47.023,29.167
			c1.313,2.632,3.963,4.154,6.717,4.154c1.125,0,2.267-0.254,3.342-0.79c3.707-1.849,5.212-6.352,3.364-10.059
			C439.851,369.765,416.689,355.407,390.933,355.407z"/>
		<path style="fill:#106E46;" d="M390.878,381.622c-17.923,0-34.009,10.003-41.979,26.105c-1.837,3.712-0.318,8.211,3.395,10.049
			c3.711,1.837,8.211,0.317,10.049-3.395c5.422-10.955,16.356-17.76,28.536-17.76c12.351,0,23.692,7.266,28.892,18.512
			c1.268,2.74,3.979,4.354,6.813,4.354c1.053,0,2.124-0.223,3.143-0.694c3.759-1.739,5.398-6.196,3.66-9.956
			C425.74,392.305,409.055,381.622,390.878,381.622z"/>
	</g>
	<path style="fill:#106E46;" d="M390.878,445.201c-8.484,0-15.386-6.902-15.386-15.386c0-8.484,6.902-15.386,15.386-15.386
		c8.484,0,15.386,6.902,15.386,15.386C406.264,438.299,399.362,445.201,390.878,445.201z"/>
</g>
<g>
</g>
<g>
</g>
<g>
</g>
<g>
</g>
<g>
</g>
<g>
</g>
<g>
</g>
<g>
</g>
<g>
</g>
<g>
</g>
<g>
</g>
<g>
</g>
<g>
</g>
<g>
</g>
<g>
</g>
</svg>
