<?xml version="1.0" encoding="iso-8859-1"?>
<!-- Generator: Adobe Illustrator 19.0.0, SVG Export Plug-In . SVG Version: 6.00 Build 0)  -->
<svg version="1.1" id="Layer_1" xmlns="http://www.w3.org/2000/svg" xmlns:xlink="http://www.w3.org/1999/xlink" x="0px" y="0px"
	 viewBox="0 0 493.6 493.6" style="enable-background:new 0 0 493.6 493.6;" xml:space="preserve">
<g>
	<path style="fill:#60C8DD;" d="M378.848,25.92v441.76c0,14.32-11.61,25.92-25.93,25.92h-213.24c-14.32,0-25.92-11.6-25.92-25.92
		V25.92c0-14.32,11.6-25.92,25.92-25.92h213.24C367.238,0,378.848,11.6,378.848,25.92z"/>
	<path style="fill:#2CB3CD;" d="M318.303,0l-6.63,38.46c-0.5,2.91-3.03,5.04-5.98,5.04h-117.89c-2.91,0-5.4-2.06-5.96-4.91
		L174.303,0H318.303z"/>
	<path style="fill:#C2EAF2;" d="M351.803,81.68v372.24c0,7.11-5.77,12.88-12.88,12.88h-185.24c-7.11,0-12.88-5.77-12.88-12.88V81.68
		c0-7.11,5.77-12.88,12.88-12.88h185.24C346.033,68.8,351.803,74.57,351.803,81.68z"/>
	<path style="fill:#DEF4F8;" d="M351.803,81.68v372.24c0,7.11-5.77,12.88-12.88,12.88h-153.08c-7.11,0-12.88-5.77-12.88-12.88V81.68
		c0-7.11,5.77-12.88,12.88-12.88h153.08C346.033,68.8,351.803,74.57,351.803,81.68z"/>
	<g>
		<circle style="fill:#269AB1;" cx="285.965" cy="22.05" r="7.5"/>
		<path style="fill:#269AB1;" d="M254.049,13.91h-49.784c-4.142,0-7.5,3.358-7.5,7.5s3.358,7.5,7.5,7.5h49.784
			c4.142,0,7.5-3.358,7.5-7.5S258.191,13.91,254.049,13.91z"/>
	</g>
	<path style="fill:#1AB975;" d="M301.363,218.6v112.14c0,2.76-2.23,5-5,5h-100.12c-2.77,0-5-2.24-5-5V218.6l55.06-50.72l10.07,9.28
		L301.363,218.6z"/>
	<path style="fill:#1ED688;" d="M301.363,218.6v112.14c0,2.76-2.23,5-5,5h-76.12c-2.77,0-5-2.24-5-5v-105.2
		c0-4.44,1.75-8.71,4.88-11.86l36.25-36.52L301.363,218.6z"/>
	<g>
		<path style="fill:#1AB975;" d="M466.303,83.3H427.8c-6.065,0-11,4.935-11,11v40H309.303c-4.142,0-7.5,3.358-7.5,7.5
			s3.358,7.5,7.5,7.5H420.8c6.065,0,11-4.935,11-11v-40h34.502c4.142,0,7.5-3.358,7.5-7.5S470.445,83.3,466.303,83.3z"/>
		<path style="fill:#1AB975;" d="M184.298,392.8H72.8c-6.065,0-11,4.935-11,11v40H27.298c-4.142,0-7.5,3.358-7.5,7.5
			s3.358,7.5,7.5,7.5H65.8c6.065,0,11-4.935,11-11v-40h107.498c4.142,0,7.5-3.358,7.5-7.5S188.44,392.8,184.298,392.8z"/>
		<path style="fill:#1AB975;" d="M40.617,207.3h122.686c4.142,0,7.5-3.358,7.5-7.5s-3.358-7.5-7.5-7.5H48.117v-57.167
			c0-4.142-3.358-7.5-7.5-7.5s-7.5,3.358-7.5,7.5V199.8C33.117,203.942,36.475,207.3,40.617,207.3z"/>
		<path style="fill:#1AB975;" d="M440.053,366.305H317.367c-4.142,0-7.5,3.358-7.5,7.5s3.358,7.5,7.5,7.5h115.186v57.167
			c0,4.142,3.358,7.5,7.5,7.5s7.5-3.358,7.5-7.5v-64.667C447.553,369.663,444.195,366.305,440.053,366.305z"/>
	</g>
	<circle style="fill:#1ED688;" cx="474.803" cy="89.3" r="17.5"/>
	<circle style="fill:#1ED688;" cx="18.798" cy="452.8" r="17.5"/>
	<circle style="fill:#1ED688;" cx="40.617" cy="120.806" r="17.5"/>
	<circle style="fill:#1ED688;" cx="440.053" cy="452.8" r="17.5"/>
	<path style="fill:#106E46;" d="M331.894,240.843l-80.98-81.125c-2.474-2.474-6.534-2.484-9.017,0l-81.185,81.125
		c-2.473,2.473-2.473,6.482,0,8.954l2.379,2.379c2.473,2.473,6.482,2.473,8.954,0l74.36-74.3l74.155,74.3
		c2.473,2.473,6.482,2.473,8.954,0l2.379-2.379C334.366,247.324,334.366,243.316,331.894,240.843z"/>
</g>
<g>
</g>
<g>
</g>
<g>
</g>
<g>
</g>
<g>
</g>
<g>
</g>
<g>
</g>
<g>
</g>
<g>
</g>
<g>
</g>
<g>
</g>
<g>
</g>
<g>
</g>
<g>
</g>
<g>
</g>
</svg>
