<?xml version="1.0" encoding="iso-8859-1"?>
<!-- Generator: Adobe Illustrator 19.0.0, SVG Export Plug-In . SVG Version: 6.00 Build 0)  -->
<svg version="1.1" id="Layer_1" xmlns="http://www.w3.org/2000/svg" xmlns:xlink="http://www.w3.org/1999/xlink" x="0px" y="0px"
	 viewBox="0 0 493.6 493.6" style="enable-background:new 0 0 493.6 493.6;" xml:space="preserve">
<g>
	<path style="fill:#60C8DD;" d="M379.345,25.92v441.76c0,14.32-11.61,25.92-25.93,25.92h-213.24c-14.32,0-25.92-11.6-25.92-25.92
		V25.92c0-14.32,11.6-25.92,25.92-25.92h213.24C367.735,0,379.345,11.6,379.345,25.92z"/>
	<path style="fill:#2CB3CD;" d="M318.8,0l-6.63,38.46c-0.5,2.91-3.03,5.04-5.98,5.04H188.3c-2.91,0-5.4-2.06-5.96-4.91L174.8,0
		H318.8z"/>
	<path style="fill:#C2EAF2;" d="M352.3,81.68v372.24c0,7.11-5.77,12.88-12.88,12.88H154.18c-7.11,0-12.88-5.77-12.88-12.88V81.68
		c0-7.11,5.77-12.88,12.88-12.88h185.24C346.53,68.8,352.3,74.57,352.3,81.68z"/>
	<path style="fill:#DEF4F8;" d="M352.3,81.68v372.24c0,7.11-5.77,12.88-12.88,12.88H186.34c-7.11,0-12.88-5.77-12.88-12.88V81.68
		c0-7.11,5.77-12.88,12.88-12.88h153.08C346.53,68.8,352.3,74.57,352.3,81.68z"/>
	<g>
		<circle style="fill:#269AB1;" cx="286.463" cy="22.05" r="7.5"/>
		<path style="fill:#269AB1;" d="M254.546,13.91h-49.784c-4.142,0-7.5,3.358-7.5,7.5s3.358,7.5,7.5,7.5h49.784
			c4.142,0,7.5-3.358,7.5-7.5S258.688,13.91,254.546,13.91z"/>
	</g>
	<path style="fill:#2CB3CD;" d="M261.03,372.58c-4.57,0.81-9.32,1.23-14.22,1.23c-62.19,0-99.88-68-68.42-120.52l55.45-108.33
		c5.35-10.53,20.5-10.62,25.94,0l1.25,2.43l54.2,105.9C344.14,301.57,314.58,363.19,261.03,372.58z"/>
	<path style="fill:#44BFD7;" d="M261.03,372.58c-53.49-9.38-83.19-70.9-54.21-119.29l54.21-105.9l54.2,105.9
		C344.14,301.57,314.58,363.19,261.03,372.58z"/>
	<g>
		<path style="fill:#DEF4F8;" d="M236.948,270.831v-17.592c0-12.265-8.176-16.725-18.582-16.725
			c-10.531,0-18.583,4.459-18.583,16.725v17.592c0,12.265,8.052,16.725,18.583,16.725
			C228.772,287.555,236.948,283.095,236.948,270.831z M224.559,270.831c0,4.088-2.354,5.946-6.193,5.946
			c-3.841,0-6.071-1.858-6.071-5.946v-17.592c0-4.088,2.23-5.947,6.071-5.947c3.84,0,6.193,1.858,6.193,5.947V270.831z"/>
		<path style="fill:#DEF4F8;" d="M275.353,238.001c0-3.964-3.841-6.566-7.31-6.566c-2.229,0-4.212,0.991-5.203,3.097l-43.484,89.322
			c-0.371,0.744-0.619,1.611-0.619,2.354c0,3.097,2.726,6.566,6.938,6.566c2.354,0,4.708-1.239,5.575-3.097l43.607-89.322
			C275.229,239.612,275.353,238.744,275.353,238.001z"/>
		<path style="fill:#DEF4F8;" d="M275.229,276.406c-10.53,0-18.583,4.46-18.583,16.725v17.592c0,12.265,8.053,16.725,18.583,16.725
			c10.406,0,18.583-4.46,18.583-16.725V293.13C293.812,280.865,285.635,276.406,275.229,276.406z M281.424,310.722
			c0,4.088-2.354,5.947-6.194,5.947s-6.07-1.858-6.07-5.947V293.13c0-4.088,2.229-5.946,6.07-5.946s6.194,1.858,6.194,5.946V310.722
			z"/>
	</g>
</g>
<g>
</g>
<g>
</g>
<g>
</g>
<g>
</g>
<g>
</g>
<g>
</g>
<g>
</g>
<g>
</g>
<g>
</g>
<g>
</g>
<g>
</g>
<g>
</g>
<g>
</g>
<g>
</g>
<g>
</g>
</svg>
