<?xml version="1.0" encoding="iso-8859-1"?>
<!-- Generator: Adobe Illustrator 19.0.0, SVG Export Plug-In . SVG Version: 6.00 Build 0)  -->
<svg version="1.1" id="Layer_1" xmlns="http://www.w3.org/2000/svg" xmlns:xlink="http://www.w3.org/1999/xlink" x="0px" y="0px"
	 viewBox="0 0 493.6 493.6" style="enable-background:new 0 0 493.6 493.6;" xml:space="preserve">
<g>
	<path style="fill:#60C8DD;" d="M379.345,25.92v441.76c0,14.32-11.61,25.92-25.93,25.92h-213.24c-14.32,0-25.92-11.6-25.92-25.92
		V25.92c0-14.32,11.6-25.92,25.92-25.92h213.24C367.735,0,379.345,11.6,379.345,25.92z"/>
	<path style="fill:#2CB3CD;" d="M318.8,0l-6.63,38.46c-0.5,2.91-3.03,5.04-5.98,5.04H188.3c-2.91,0-5.4-2.06-5.96-4.91L174.8,0
		H318.8z"/>
	<path style="fill:#C2EAF2;" d="M352.3,81.68v372.24c0,7.11-5.77,12.88-12.88,12.88H154.18c-7.11,0-12.88-5.77-12.88-12.88V81.68
		c0-7.11,5.77-12.88,12.88-12.88h185.24C346.53,68.8,352.3,74.57,352.3,81.68z"/>
	<path style="fill:#DEF4F8;" d="M352.3,81.68v372.24c0,7.11-5.77,12.88-12.88,12.88H186.34c-7.11,0-12.88-5.77-12.88-12.88V81.68
		c0-7.11,5.77-12.88,12.88-12.88h153.08C346.53,68.8,352.3,74.57,352.3,81.68z"/>
	<g>
		<circle style="fill:#269AB1;" cx="286.463" cy="22.05" r="7.5"/>
		<path style="fill:#269AB1;" d="M254.546,13.91h-49.784c-4.142,0-7.5,3.358-7.5,7.5s3.358,7.5,7.5,7.5h49.784
			c4.142,0,7.5-3.358,7.5-7.5S258.688,13.91,254.546,13.91z"/>
	</g>
	<path style="fill:#F29500;" d="M318.12,267.18l-62.18,105.5l-12.97,22c-5.85,9.93-21.1,3.82-18.46-7.41l19.28-82.05
		c1.48-6.31-3.31-12.36-9.79-12.36h-49.86c-7.25,0-12.12-7.45-9.21-14.1l58.81-136.82c1.61-3.66,5.22-6.02,9.22-6.02h35.68
		c7.19,0,12.06,7.33,9.27,13.96l-35.35,88.18c-2.78,6.63,2.08,13.96,9.28,13.96h47.61C317.24,252.02,322.07,260.48,318.12,267.18z"
		/>
	<path style="fill:#FFA90B;" d="M318.12,267.18l-62.18,105.5l15.85-67.46c1.48-6.31-3.31-12.36-9.79-12.36h-49.86
		c-7.25,0-12.12-7.45-9.21-14.1l58.81-136.82c1.61-3.66,5.22-6.02,9.22-6.02h7.68c7.19,0,12.06,7.33,9.27,13.96l-35.35,88.18
		c-2.78,6.63,2.08,13.96,9.28,13.96h47.61C317.24,252.02,322.07,260.48,318.12,267.18z"/>
</g>
<g>
</g>
<g>
</g>
<g>
</g>
<g>
</g>
<g>
</g>
<g>
</g>
<g>
</g>
<g>
</g>
<g>
</g>
<g>
</g>
<g>
</g>
<g>
</g>
<g>
</g>
<g>
</g>
<g>
</g>
</svg>
