<?xml version="1.0" encoding="iso-8859-1"?>
<!-- Generator: Adobe Illustrator 19.0.0, SVG Export Plug-In . SVG Version: 6.00 Build 0)  -->
<svg version="1.1" id="Layer_1" xmlns="http://www.w3.org/2000/svg" xmlns:xlink="http://www.w3.org/1999/xlink" x="0px" y="0px"
	 viewBox="0 0 493.48 493.48" style="enable-background:new 0 0 493.48 493.48;" xml:space="preserve">
<g>
	<path style="fill:#4B5055;" d="M469.861,373.057h-23.107V89.248c0-8.87-7.19-16.06-16.06-16.06H62.786
		c-8.87,0-16.06,7.19-16.06,16.06v283.809H23.619c-13.043,0-23.617,10.574-23.617,23.617l0,0c0,13.043,10.574,23.617,23.617,23.617
		h446.241c13.043,0,23.617-10.574,23.617-23.617l0,0C493.478,383.631,482.904,373.057,469.861,373.057z"/>
	<path style="fill:#7CD2E3;" d="M446.754,383.063H46.726V89.248c0-8.869,7.19-16.06,16.06-16.06h367.909
		c8.87,0,16.06,7.19,16.06,16.06V383.063z"/>
	<path style="fill:#C8D2DC;" d="M414.13,117.94v213.67c0,7.47-6.06,13.53-13.54,13.53H92.89c-7.48,0-13.54-6.06-13.54-13.53V117.94
		c0-7.48,6.06-13.53,13.54-13.53h307.7C408.07,104.41,414.13,110.46,414.13,117.94z"/>
	<path style="fill:#DCE6EB;" d="M414.13,117.94v213.67c0,7.47-6.06,13.53-13.54,13.53h-277.7c-7.48,0-13.54-6.06-13.54-13.53V117.94
		c0-7.48,6.06-13.53,13.54-13.53h277.7C408.07,104.41,414.13,110.46,414.13,117.94z"/>
	<path style="fill:#2CB3CD;" d="M493.48,396.67c0,6.53-2.64,12.43-6.92,16.7c-4.28,4.28-10.18,6.92-16.7,6.92H23.62
		C10.58,420.29,0,409.72,0,396.67c0-6.52,2.64-12.42,6.92-16.69c4.28-4.28,10.18-6.92,16.7-6.92h446.24
		c11.62,0,21.29,8.4,23.25,19.46C493.36,393.87,493.48,395.25,493.48,396.67z"/>
	<path style="fill:#44BFD7;" d="M493.11,392.52H49.51c-11.62,0-21.29-8.4-23.24-19.46h443.59
		C481.48,373.06,491.15,381.46,493.11,392.52z"/>
	<path style="fill:#1AB975;" d="M298.042,191.57v112.35c0,2.64-2.14,4.78-4.78,4.78h-100.57c-2.64,0-4.78-2.14-4.78-4.78V191.57
		l55.06-50.73l12.75,11.75L298.042,191.57z"/>
	<path style="fill:#1ED688;" d="M298.042,191.57v112.35c0,2.64-2.14,4.78-4.78,4.78h-79.85V198.33c0-4.31,1.8-8.42,4.98-11.35
		l37.33-34.39L298.042,191.57z"/>
	<path style="fill:#1ED688;" d="M341.441,280.24h-55c-4.143,0-7.5,3.358-7.5,7.5s3.357,7.5,7.5,7.5h55c4.143,0,7.5-3.358,7.5-7.5
		S345.584,280.24,341.441,280.24z"/>
	<path style="fill:#1AB975;" d="M198.441,255.673h-45.536c-4.143,0-7.5,3.358-7.5,7.5s3.357,7.5,7.5,7.5h45.536
		c4.143,0,7.5-3.358,7.5-7.5S202.584,255.673,198.441,255.673z"/>
	<path style="fill:#1AB975;" d="M360.941,142.24c-4.143,0-7.5,3.358-7.5,7.5v27.242H293.1c-4.143,0-7.5,3.358-7.5,7.5
		s3.357,7.5,7.5,7.5h67.842c4.143,0,7.5-3.358,7.5-7.5V149.74C368.441,145.598,365.084,142.24,360.941,142.24z"/>
	<path style="fill:#106E46;" d="M324.346,205.34l-76.299-70.025c-2.871-2.634-7.279-2.632-10.146,0.003l-76.201,70.025
		c-3.05,2.803-3.25,7.547-0.447,10.597c2.803,3.049,7.548,3.25,10.598,0.448l71.129-65.365l71.225,65.368
		c1.44,1.322,3.258,1.975,5.069,1.975c2.027,0,4.049-0.817,5.527-2.429C327.601,212.885,327.397,208.14,324.346,205.34z"/>
	<circle style="fill:#F44545;" cx="360.941" cy="286.74" r="19.5"/>
	<circle style="fill:#F44545;" cx="360.941" cy="143.064" r="19.5"/>
	<circle style="fill:#F44545;" cx="133.405" cy="264.173" r="19.5"/>
</g>
<g>
</g>
<g>
</g>
<g>
</g>
<g>
</g>
<g>
</g>
<g>
</g>
<g>
</g>
<g>
</g>
<g>
</g>
<g>
</g>
<g>
</g>
<g>
</g>
<g>
</g>
<g>
</g>
<g>
</g>
</svg>
