<?xml version="1.0" encoding="iso-8859-1"?>
<!-- Generator: Adobe Illustrator 19.0.0, SVG Export Plug-In . SVG Version: 6.00 Build 0)  -->
<svg version="1.1" id="Layer_1" xmlns="http://www.w3.org/2000/svg" xmlns:xlink="http://www.w3.org/1999/xlink" x="0px" y="0px"
	 viewBox="0 0 493.603 493.603" style="enable-background:new 0 0 493.603 493.603;" xml:space="preserve">
<g>
	<path style="fill:#169B62;" d="M273.341,483.552c-6.76,3.2-13.78,6.21-21.06,9.03c-3.53,1.36-7.43,1.36-10.96,0
		c-192.19-74.33-200.92-286.87-199.74-343.3c0.16-7.66,6.06-13.91,13.69-14.61c92.77-8.43,153.96-88.12,178.88-127.69
		c5.86-9.31,19.44-9.31,25.3,0c3.79,6.02,8.42,12.97,13.89,20.46c30.38,41.71,86.34,100.08,164.99,107.23
		c7.63,0.7,13.53,6.95,13.69,14.61C453.161,203.573,445.121,402.372,273.341,483.552z"/>
	<path style="fill:#1AB975;" d="M273.341,483.552c-171.79-81.18-179.83-279.98-178.69-334.27c0.16-7.66,6.07-13.91,13.69-14.61
		c78.65-7.15,134.61-65.52,165-107.23c30.38,41.71,86.34,100.08,164.99,107.23c7.63,0.7,13.53,6.95,13.69,14.61
		C453.161,203.573,445.121,402.372,273.341,483.552z"/>
	<path style="fill:#DEF4F8;" d="M252.113,167.175v97.259c0,7.49-6.085,13.575-13.575,13.575c-7.48,0-13.575-6.085-13.575-13.575
		v-97.259c0-18.864-15.344-34.208-34.208-34.208h-0.412c-18.668,0.225-33.787,15.484-33.787,34.208v66.053
		c0,7.49-6.095,13.575-13.575,13.575c-7.49,0-13.575-6.085-13.575-13.575v-66.053c0-33.834,27.524-61.358,61.348-61.358
		c6.9,0,13.528,1.142,19.726,3.249C234.662,117.304,252.113,140.241,252.113,167.175z"/>
	<path style="fill:#A6E0EC;" d="M364.194,226.854v157.61c0,6.26-5.07,11.33-11.33,11.33h-141.8c-6.26,0-11.33-5.07-11.33-11.33
		v-157.61c0-6.26,5.07-11.34,11.33-11.34h141.8C359.124,215.514,364.194,220.594,364.194,226.854z"/>
	<path style="fill:#C2EAF2;" d="M352.864,215.514h-109.88c-6.26,0-11.34,5.08-11.34,11.34v116.79c0,28.8,23.35,52.15,52.16,52.15
		h69.06c6.26,0,11.33-5.07,11.33-11.33v-157.61C364.194,220.594,359.124,215.514,352.864,215.514z"/>
	<path style="fill:#60C8DD;" d="M306.064,288.717c0,8.033-3.932,15.147-9.97,19.529c-0.449,0.318-0.833,0.702-1.151,1.123
		c-0.815,1.03-1.255,2.312-1.255,3.642v21.963c0,6.834-5.926,12.348-12.891,11.665c-6.066-0.59-10.56-5.936-10.56-12.03v-21.598
		c0-1.901-0.927-3.689-2.462-4.812c-6.572-4.784-10.626-12.807-9.811-21.729c1.058-11.702,10.71-21.073,22.45-21.804
		c5.374-0.337,10.401,1.086,14.558,3.773C301.645,272.708,306.064,280.198,306.064,288.717z"/>
</g>
<g>
</g>
<g>
</g>
<g>
</g>
<g>
</g>
<g>
</g>
<g>
</g>
<g>
</g>
<g>
</g>
<g>
</g>
<g>
</g>
<g>
</g>
<g>
</g>
<g>
</g>
<g>
</g>
<g>
</g>
</svg>
