<?xml version="1.0" encoding="iso-8859-1"?>
<!-- Generator: Adobe Illustrator 19.0.0, SVG Export Plug-In . SVG Version: 6.00 Build 0)  -->
<svg version="1.1" id="Layer_1" xmlns="http://www.w3.org/2000/svg" xmlns:xlink="http://www.w3.org/1999/xlink" x="0px" y="0px"
	 viewBox="0 0 492.803 492.803" style="enable-background:new 0 0 492.803 492.803;" xml:space="preserve">
<g>
	<path style="fill:#A2ABB8;" d="M470.254,492.803h-412c-2.761,0-5-2.239-5-5V79.334c0-12.212,9.9-22.112,22.112-22.112h377.776
		c12.212,0,22.112,9.9,22.112,22.112v408.469C475.254,490.564,473.016,492.803,470.254,492.803z"/>
	<path style="fill:#4E5A61;" d="M224.834,432.072v31.91c0,7.94-3.22,15.14-8.43,20.35c-2.82,2.82-5.95,4.89-9.23,6.27
		c-17.8,7.53-39.94-5.01-39.94-26.62v-31.91H224.834z"/>
	<path style="fill:#4E5A61;" d="M361.274,432.072v31.91c0,7.94-3.22,15.14-8.43,20.35c-2.82,2.82-5.95,4.89-9.23,6.27
		c-17.8,7.53-39.94-5.01-39.94-26.62v-31.91H361.274z"/>
	<path style="fill:#5F6C75;" d="M224.834,432.072v31.91c0,7.94-3.22,15.14-8.43,20.35c-2.82,2.82-5.95,4.89-9.23,6.27
		c-10.09-4.12-17.92-13.76-17.92-26.62v-31.91H224.834z"/>
	<path style="fill:#5F6C75;" d="M361.274,432.072v31.91c0,7.94-3.22,15.14-8.43,20.35c-2.82,2.82-5.95,4.89-9.23,6.27
		c-10.09-4.12-17.92-13.76-17.92-26.62v-31.91H361.274z"/>
	<path style="fill:#F44545;" d="M402.624,386.443v54.538H125.881v-54.538c0-23.209,18.816-42.034,42.034-42.034H360.59
		C383.808,344.409,402.624,363.234,402.624,386.443z"/>
	<path style="fill:#C42D2D;" d="M415.044,435.162v0.05c0,0.15,0,0.31-0.01,0.46c-0.11,4.21-1.87,8.02-4.66,10.8
		c-2.88,2.88-6.85,4.66-11.25,4.66h-269.74c-8.8,0-15.92-7.13-15.92-15.92c0-4.4,1.78-8.37,4.66-11.26
		c2.61-2.61,6.14-4.32,10.04-4.61c0.25-0.02,0.51-0.03,0.76-0.04c0.15-0.01,0.31-0.01,0.46-0.01h269.74
		C407.894,419.292,415.014,426.382,415.044,435.162z"/>
	<path style="fill:#D63030;" d="M415.044,435.162c-0.41,0.03-0.82,0.05-1.23,0.05h-269.73c-8.78,0-15.89-7.1-15.92-15.87
		c0.25-0.02,0.51-0.03,0.76-0.04c0.15-0.01,0.31-0.01,0.46-0.01h269.74C407.894,419.292,415.014,426.382,415.044,435.162z"/>
	<path style="fill:#C2EAF2;" d="M196.034,381.102v12.17c0,4.43-3.62,8.04-8.04,8.04h-28.45c-4.43,0-8.04-3.61-8.04-8.04v-12.17
		c0-4.42,3.61-8.04,8.04-8.04h28.45C192.414,373.062,196.034,376.682,196.034,381.102z"/>
	<path style="fill:#C2EAF2;" d="M377.004,381.102v12.17c0,4.43-3.62,8.04-8.04,8.04h-28.45c-4.43,0-8.04-3.61-8.04-8.04v-12.17
		c0-4.42,3.61-8.04,8.04-8.04h28.45C373.384,373.062,377.004,376.682,377.004,381.102z"/>
	<path style="fill:#DEF4F8;" d="M196.034,381.102v5.29h-21.57c-4.42,0-8.04-3.62-8.04-8.04v-5.29h21.57
		C192.414,373.062,196.034,376.682,196.034,381.102z"/>
	<path style="fill:#DEF4F8;" d="M377.004,381.102v5.29h-21.57c-4.42,0-8.04-3.62-8.04-8.04v-5.29h21.57
		C373.384,373.062,377.004,376.682,377.004,381.102z"/>
	<path style="fill:#4E5A61;" d="M432.244,119.712v249.53c0,6.91-5.59,12.5-12.5,12.5h-310.98c-6.91,0-12.5-5.59-12.5-12.5v-249.53
		c0-6.9,5.59-12.49,12.5-12.49h310.98C426.654,107.222,432.244,112.812,432.244,119.712z"/>
	<path style="fill:#5F6C75;" d="M432.244,119.712v39.62H96.264v-39.62c0-6.9,5.59-12.49,12.5-12.49h310.98
		C426.654,107.222,432.244,112.812,432.244,119.712z"/>
	<rect x="96.264" y="214.932" style="fill:#5F6C75;" width="335.98" height="55.6"/>
	<path style="fill:#5F6C75;" d="M432.244,326.142v43.1c0,6.91-5.59,12.5-12.5,12.5h-310.98c-6.91,0-12.5-5.59-12.5-12.5v-43.1
		H432.244z"/>
	<path style="fill:#60C8DD;" d="M202.157,337.487c0,11.55-9.363,20.913-20.913,20.913H38.461c-11.55,0-20.913-9.363-20.913-20.913
		V20.913C17.549,9.363,26.912,0,38.461,0h142.783c11.55,0,20.913,9.363,20.913,20.913V337.487z"/>
	<path style="fill:#2CB3CD;" d="M103.59,0H79.714H44.787l9.335,40.416c0.636,2.755,3.09,4.706,5.917,4.706h99.627
		c2.828,0,5.281-1.951,5.917-4.706L174.919,0H103.59z"/>
	<path style="fill:#C2EAF2;" d="M179.396,75.56v249.2c0,2.76-2.24,5-5,5H45.316c-2.76,0-5-2.24-5-5V75.56c0-2.76,2.24-5,5-5h129.08
		C177.156,70.56,179.396,72.8,179.396,75.56z"/>
	<path style="fill:#DEF4F8;" d="M179.396,75.56v249.2c0,2.76-2.24,5-5,5h-106.3c-2.76,0-5-2.24-5-5V75.56c0-2.76,2.24-5,5-5h106.3
		C177.156,70.56,179.396,72.8,179.396,75.56z"/>
	<g>
		<path style="fill:#269AB1;" d="M119.694,14.614H73.279c-4.142,0-7.5,3.358-7.5,7.5s3.358,7.5,7.5,7.5h46.415
			c4.142,0,7.5-3.358,7.5-7.5S123.836,14.614,119.694,14.614z"/>
		<circle style="fill:#269AB1;" cx="139.533" cy="22.114" r="6.894"/>
	</g>
	<g>
		<path style="fill:#169B62;" d="M159.621,280.363h-99.5c-4.142,0-7.5-3.358-7.5-7.5s3.358-7.5,7.5-7.5h99.5
			c4.142,0,7.5,3.358,7.5,7.5S163.764,280.363,159.621,280.363z"/>
	</g>
	<path style="fill:#1AB975;" d="M125.631,246.363H94.074c-2.761,0-5-2.239-5-5v-94.764l20.779-19.142l20.779,19.142v94.764
		C130.631,244.124,128.393,246.363,125.631,246.363z"/>
	<g>
		<g>
			<path style="fill:#169B62;" d="M138.642,161.381c-1.812,0-3.629-0.652-5.069-1.975l-23.717-21.767l-23.684,21.764
				c-3.049,2.802-7.794,2.603-10.597-0.448c-2.803-3.05-2.602-7.794,0.448-10.597l28.755-26.424
				c2.868-2.636,7.276-2.636,10.146-0.003l28.791,26.424c3.052,2.801,3.255,7.545,0.454,10.597
				C142.691,160.564,140.67,161.381,138.642,161.381z"/>
		</g>
	</g>
</g>
<g>
</g>
<g>
</g>
<g>
</g>
<g>
</g>
<g>
</g>
<g>
</g>
<g>
</g>
<g>
</g>
<g>
</g>
<g>
</g>
<g>
</g>
<g>
</g>
<g>
</g>
<g>
</g>
<g>
</g>
</svg>
