<?xml version="1.0" encoding="iso-8859-1"?>
<!-- Generator: Adobe Illustrator 19.0.0, SVG Export Plug-In . SVG Version: 6.00 Build 0)  -->
<svg version="1.1" id="Layer_1" xmlns="http://www.w3.org/2000/svg" xmlns:xlink="http://www.w3.org/1999/xlink" x="0px" y="0px"
	 viewBox="0 0 493.16 493.16" style="enable-background:new 0 0 493.16 493.16;" xml:space="preserve">
<g>
	<path style="fill:#954C35;" d="M282.753,23.93v445.3c0,13.22-10.71,23.93-23.93,23.93h-210.7c-13.21,0-23.93-10.71-23.93-23.93
		V23.93C24.193,10.71,34.913,0,48.123,0h210.7C272.043,0,282.753,10.71,282.753,23.93z"/>
	<path style="fill:#AE583E;" d="M282.753,23.93v445.3c0,13.22-10.71,23.93-23.93,23.93H89.313c-13.22,0-23.93-10.71-23.93-23.93
		V23.93C65.383,10.71,76.093,0,89.313,0h169.51C272.043,0,282.753,10.71,282.753,23.93z"/>
	<path style="fill:#F29500;" d="M238.973,143.08c0,38.6-25.57,71.22-60.7,81.85c-7.85,2.37-16.18,3.65-24.8,3.65
		c-47.22,0-85.5-38.28-85.5-85.5c0-47.22,38.28-85.5,85.5-85.5c8.62,0,16.95,1.28,24.8,3.65
		C213.403,71.86,238.973,104.48,238.973,143.08z"/>
	<path style="fill:#FFA90B;" d="M238.973,143.08c0,38.6-25.57,71.22-60.7,81.85c-35.13-10.63-60.7-43.25-60.7-81.85
		c0-38.6,25.57-71.22,60.7-81.85C213.403,71.86,238.973,104.48,238.973,143.08z"/>
	<path style="fill:#C97E67;" d="M456.983,143.49c0,5.32-1.16,10.37-3.24,14.91c-1.79,3.92-4.27,7.47-7.28,10.48
		c-6.5,6.5-15.48,10.52-25.39,10.52h-263.19c-19.84,0-35.91-16.08-35.91-35.91c0-9.91,4.02-18.89,10.51-25.39
		c6.5-6.5,15.48-10.52,25.4-10.52h263.19C440.903,107.58,456.983,123.66,456.983,143.49z"/>
	<path style="fill:#D29380;" d="M456.983,143.49c0,5.32-1.16,10.37-3.24,14.91h-243.63c-19.83,0-35.91-16.08-35.91-35.91
		c0-5.32,1.16-10.37,3.24-14.91h243.63C440.903,107.58,456.983,123.66,456.983,143.49z"/>
	<path style="fill:#7C3F2C;" d="M193.873,353.83c-2.13,10.82-8.51,20.12-17.33,26.09c-2.5,1.69-4.02,4.49-4.02,7.5v36.56
		c0,4.96-1.85,9.59-4.92,13.11c-3.27,3.75-7.93,6.22-13.22,6.47c-10.95,0.51-19.99-8.21-19.99-19.05v-37.09c0-3-1.5-5.8-3.99-7.48
		c-9.98-6.74-15.57-16.19-17.42-26.11c-4.33-23.16,11.74-48.96,40.04-49.25h0.43c4.89,0,9.6,0.87,13.99,2.48
		c15.23,5.56,26.46,19.91,27.18,36.91C194.773,347.36,194.503,350.66,193.873,353.83z"/>
	<path style="fill:#954C35;" d="M193.873,353.83c-2.13,10.82-8.51,20.12-17.33,26.09c-2.5,1.69-4.02,4.49-4.02,7.5v36.56
		c0,4.96-1.85,9.59-4.92,13.11c-2.95-3.35-4.74-7.76-4.74-12.58v-37.09c0-3-1.5-5.8-3.99-7.48c-9.98-6.74-15.57-16.19-17.42-26.11
		c-3.55-18.99,6.61-39.75,25.99-46.77c15.23,5.56,26.46,19.91,27.18,36.91C194.773,347.36,194.503,350.66,193.873,353.83z"/>
	<g>
		<path style="fill:#1AB975;" d="M397.779,229.542c-3.589-2.069-8.175-0.841-10.245,2.748c-2.07,3.587-0.84,8.174,2.747,10.245
			c39.283,22.669,63.686,64.896,63.686,110.203c0,47.117-25.842,90.134-67.441,112.264c-3.657,1.945-5.044,6.487-3.099,10.144
			c1.349,2.535,3.943,3.979,6.628,3.979c1.188,0,2.394-0.283,3.516-0.88c46.506-24.74,75.396-72.832,75.396-125.507
			C468.967,302.088,441.689,254.882,397.779,229.542z"/>
		<path style="fill:#1AB975;" d="M410.915,409.95c10.87-17.177,16.616-37.025,16.616-57.398c0-39.609-21.718-75.93-56.678-94.789
			c-3.644-1.968-8.194-0.605-10.161,3.04c-1.967,3.646-0.605,8.195,3.04,10.162c30.101,16.238,48.799,47.5,48.799,81.588
			c0,35.343-19.715,67.132-51.452,82.962c-3.707,1.849-5.213,6.353-3.364,10.059c1.313,2.632,3.964,4.154,6.718,4.154
			c1.125,0,2.267-0.254,3.342-0.79C385.43,440.131,400.347,426.65,410.915,409.95z"/>
		<path style="fill:#1AB975;" d="M383.782,352.46c0-27.991-15.624-53.112-40.774-65.56c-3.712-1.837-8.212-0.316-10.049,3.395
			c-1.838,3.712-0.317,8.211,3.395,10.049c20.003,9.9,32.429,29.87,32.429,52.117c0,22.56-13.269,43.272-33.803,52.768
			c-3.76,1.739-5.398,6.196-3.66,9.956c1.268,2.74,3.979,4.354,6.813,4.354c1.054,0,2.124-0.223,3.143-0.694
			C367.097,406.902,383.782,380.846,383.782,352.46z"/>
	</g>
</g>
<g>
</g>
<g>
</g>
<g>
</g>
<g>
</g>
<g>
</g>
<g>
</g>
<g>
</g>
<g>
</g>
<g>
</g>
<g>
</g>
<g>
</g>
<g>
</g>
<g>
</g>
<g>
</g>
<g>
</g>
</svg>
