<?xml version="1.0" encoding="iso-8859-1"?>
<!-- Generator: Adobe Illustrator 19.0.0, SVG Export Plug-In . SVG Version: 6.00 Build 0)  -->
<svg version="1.1" id="Layer_1" xmlns="http://www.w3.org/2000/svg" xmlns:xlink="http://www.w3.org/1999/xlink" x="0px" y="0px"
	 viewBox="0 0 490.5 490.5" style="enable-background:new 0 0 490.5 490.5;" xml:space="preserve">
<g>
	<path style="fill:#C8D2DC;" d="M465.63,0.973H24.87C11.135,0.973,0,12.107,0,25.843v31.273c0,13.735,11.135,24.87,24.87,24.87
		h16.96v0.665c0,35.57,22.93,65.79,54.82,76.68c18.232,6.217,7.556,4.059,271,4.33c44.763,0,81.02-36.292,81.02-81.01v-0.665h16.96
		c13.735,0,24.87-11.135,24.87-24.87V25.843C490.5,12.107,479.365,0.973,465.63,0.973z"/>
	<path style="fill:#909BA6;" d="M490.5,25.84v31.27c0,13.74-11.13,24.87-24.87,24.87H24.87C11.13,81.98,0,70.85,0,57.11V25.84
		C0,12.11,11.13,0.97,24.87,0.97h440.76C479.37,0.97,490.5,12.11,490.5,25.84z"/>
	<path style="fill:#A2ABB8;" d="M490.5,25.84V57.1H70.14c-13.73,0-24.87-11.14-24.87-24.87V0.97h420.36
		C479.37,0.97,490.5,12.11,490.5,25.84z"/>
	<path style="fill:#C8D2DC;" d="M448.67,82.65c0,22.37-9.07,42.62-23.73,57.28c-8.65,8.65-19.25,15.36-31.09,19.4
		c-4.81,1.64-9.83,2.85-15,3.56c-3.66,0.51-7.4,0.77-11.2,0.77h-244.8c-3.8,0-7.54-0.26-11.2-0.77c-5.17-0.71-10.19-1.92-15-3.56
		c-31.89-10.89-54.82-41.11-54.82-76.68H448.67z"/>
	<g>
		<g>
			<path style="fill:#DCE6EB;" d="M111.65,82.65v80.24c-5.17-0.71-10.19-1.92-15-3.56V82.65H111.65z"/>
		</g>
		<g>
			<rect x="153.09" y="82.65" style="fill:#DCE6EB;" width="15" height="81.01"/>
		</g>
		<g>
			<rect x="209.53" y="82.65" style="fill:#DCE6EB;" width="15" height="81.01"/>
		</g>
		<g>
			<rect x="265.97" y="82.65" style="fill:#DCE6EB;" width="15" height="81.01"/>
		</g>
		<g>
			<rect x="322.41" y="82.65" style="fill:#DCE6EB;" width="15" height="81.01"/>
		</g>
		<g>
			<path style="fill:#DCE6EB;" d="M393.85,82.65v76.68c-4.81,1.64-9.83,2.85-15,3.56V82.65H393.85z"/>
		</g>
	</g>
	<g>
		<path style="fill:#60C8DD;" d="M245.25,228.48c-4.143,0-7.5,3.358-7.5,7.5v20c0,4.142,3.357,7.5,7.5,7.5s7.5-3.358,7.5-7.5v-20
			C252.75,231.838,249.393,228.48,245.25,228.48z"/>
		<path style="fill:#60C8DD;" d="M245.25,278.48c-4.143,0-7.5,3.358-7.5,7.5v20c0,4.142,3.357,7.5,7.5,7.5s7.5-3.358,7.5-7.5v-20
			C252.75,281.838,249.393,278.48,245.25,278.48z"/>
		<path style="fill:#60C8DD;" d="M245.25,378.48c-4.143,0-7.5,3.358-7.5,7.5v20c0,4.142,3.357,7.5,7.5,7.5s7.5-3.358,7.5-7.5v-20
			C252.75,381.838,249.393,378.48,245.25,378.48z"/>
		<path style="fill:#60C8DD;" d="M245.25,328.48c-4.143,0-7.5,3.358-7.5,7.5v20c0,4.142,3.357,7.5,7.5,7.5s7.5-3.358,7.5-7.5v-20
			C252.75,331.838,249.393,328.48,245.25,328.48z"/>
		<path style="fill:#60C8DD;" d="M245.25,178.48c-4.143,0-7.5,3.358-7.5,7.5v20c0,4.142,3.357,7.5,7.5,7.5s7.5-3.358,7.5-7.5v-20
			C252.75,181.838,249.393,178.48,245.25,178.48z"/>
		<path style="fill:#60C8DD;" d="M181.934,227.228c-4.021-0.998-8.088,1.452-9.087,5.472l-4.819,19.411
			c-0.998,4.02,1.452,8.088,5.472,9.086c0.607,0.151,1.215,0.223,1.813,0.223c3.365,0,6.426-2.282,7.273-5.695l4.819-19.411
			C188.403,232.294,185.953,228.226,181.934,227.228z"/>
		<path style="fill:#60C8DD;" d="M193.982,178.702c-4.023-0.998-8.089,1.452-9.087,5.472l-4.819,19.411
			c-0.998,4.02,1.452,8.088,5.472,9.086c0.607,0.151,1.215,0.223,1.813,0.223c3.365,0,6.426-2.282,7.273-5.695l4.819-19.411
			C200.452,183.767,198.002,179.7,193.982,178.702z"/>
		<path style="fill:#60C8DD;" d="M169.885,275.755c-4.022-0.998-8.088,1.452-9.087,5.472l-4.819,19.411
			c-0.998,4.02,1.452,8.088,5.472,9.086c0.607,0.151,1.215,0.223,1.813,0.223c3.365,0,6.426-2.282,7.273-5.695l4.819-19.411
			C176.354,280.821,173.904,276.753,169.885,275.755z"/>
		<path style="fill:#60C8DD;" d="M157.836,324.281c-4.023-0.998-8.089,1.452-9.087,5.472l-4.819,19.411
			c-0.998,4.02,1.452,8.088,5.472,9.086c0.607,0.151,1.215,0.223,1.813,0.223c3.365,0,6.426-2.282,7.273-5.695l4.819-19.411
			C164.306,329.347,161.855,325.279,157.836,324.281z"/>
		<path style="fill:#60C8DD;" d="M145.787,372.808c-4.021-0.998-8.088,1.452-9.087,5.472l-4.819,19.41
			c-0.998,4.02,1.452,8.088,5.472,9.086c0.607,0.151,1.215,0.223,1.813,0.223c3.365,0,6.426-2.282,7.273-5.695l4.819-19.41
			C152.257,377.874,149.807,373.806,145.787,372.808z"/>
		<path style="fill:#60C8DD;" d="M32.294,348.045c-3.489-2.236-8.125-1.221-10.362,2.267l-10.793,16.837
			c-2.235,3.487-1.22,8.126,2.267,10.361c1.254,0.804,2.655,1.187,4.041,1.187c2.47,0,4.889-1.22,6.321-3.454l10.793-16.837
			C36.796,354.919,35.78,350.28,32.294,348.045z"/>
		<path style="fill:#60C8DD;" d="M59.275,305.95c-3.486-2.236-8.125-1.22-10.361,2.267l-10.793,16.838
			c-2.235,3.487-1.22,8.126,2.268,10.361c1.253,0.804,2.654,1.187,4.04,1.187c2.47,0,4.889-1.22,6.321-3.454l10.793-16.838
			C63.778,312.824,62.763,308.185,59.275,305.95z"/>
		<path style="fill:#60C8DD;" d="M113.24,221.761c-3.485-2.236-8.125-1.221-10.361,2.267l-10.793,16.838
			c-2.235,3.487-1.22,8.126,2.268,10.361c1.253,0.804,2.654,1.187,4.04,1.187c2.47,0,4.889-1.22,6.321-3.454l10.793-16.838
			C117.743,228.635,116.728,223.996,113.24,221.761z"/>
		<path style="fill:#60C8DD;" d="M142.49,190.028c2.235-3.487,1.22-8.126-2.268-10.361c-3.486-2.236-8.125-1.22-10.361,2.267
			l-10.793,16.838c-2.235,3.487-1.22,8.126,2.268,10.361c1.253,0.804,2.654,1.187,4.04,1.187c2.47,0,4.889-1.22,6.321-3.454
			L142.49,190.028z"/>
		<path style="fill:#60C8DD;" d="M86.258,263.855c-3.486-2.236-8.125-1.22-10.361,2.267L65.104,282.96
			c-2.235,3.487-1.22,8.126,2.268,10.361c1.253,0.804,2.654,1.187,4.04,1.187c2.47,0,4.889-1.22,6.321-3.454l10.793-16.838
			C90.761,270.729,89.745,266.09,86.258,263.855z"/>
		<path style="fill:#60C8DD;" d="M341.099,358.249c4.02-0.998,6.47-5.066,5.472-9.086l-4.819-19.411
			c-0.998-4.021-5.063-6.469-9.087-5.472c-4.02,0.998-6.47,5.066-5.472,9.086l4.819,19.411c0.848,3.414,3.908,5.695,7.273,5.695
			C339.884,358.473,340.491,358.4,341.099,358.249z"/>
		<path style="fill:#60C8DD;" d="M304.952,212.67c4.02-0.998,6.47-5.066,5.472-9.086l-4.819-19.411
			c-0.998-4.021-5.063-6.469-9.087-5.472c-4.02,0.998-6.47,5.066-5.472,9.086l4.819,19.411c0.848,3.414,3.908,5.695,7.273,5.695
			C303.737,212.893,304.345,212.821,304.952,212.67z"/>
		<path style="fill:#60C8DD;" d="M353.8,378.28c-0.998-4.021-5.065-6.469-9.087-5.472c-4.02,0.998-6.47,5.066-5.472,9.086
			l4.819,19.41c0.848,3.414,3.908,5.695,7.273,5.695c0.599,0,1.206-0.072,1.813-0.223c4.02-0.998,6.47-5.066,5.472-9.086
			L353.8,378.28z"/>
		<path style="fill:#60C8DD;" d="M317.001,261.196c4.02-0.998,6.47-5.066,5.472-9.086l-4.819-19.411
			c-0.998-4.021-5.065-6.469-9.087-5.472c-4.02,0.998-6.47,5.066-5.472,9.086l4.819,19.411c0.848,3.414,3.908,5.695,7.273,5.695
			C315.786,261.419,316.394,261.347,317.001,261.196z"/>
		<path style="fill:#60C8DD;" d="M329.05,309.723c4.02-0.998,6.47-5.066,5.472-9.086l-4.819-19.411
			c-0.998-4.021-5.064-6.469-9.087-5.472c-4.02,0.998-6.47,5.066-5.472,9.086l4.819,19.411c0.848,3.414,3.908,5.695,7.273,5.695
			C327.835,309.946,328.442,309.874,329.05,309.723z"/>
		<path style="fill:#60C8DD;" d="M479.361,367.149l-10.793-16.837c-2.236-3.488-6.876-4.501-10.362-2.267
			c-3.486,2.235-4.502,6.874-2.267,10.361l10.793,16.837c1.433,2.234,3.852,3.454,6.321,3.454c1.386,0,2.787-0.384,4.041-1.187
			C480.581,375.275,481.597,370.636,479.361,367.149z"/>
		<path style="fill:#60C8DD;" d="M441.586,308.217c-2.236-3.488-6.875-4.501-10.361-2.267c-3.487,2.235-4.503,6.874-2.268,10.361
			l10.793,16.838c1.433,2.234,3.852,3.454,6.321,3.454c1.386,0,2.787-0.384,4.04-1.187c3.487-2.235,4.503-6.874,2.268-10.361
			L441.586,308.217z"/>
		<path style="fill:#60C8DD;" d="M360.639,181.933c-2.236-3.489-6.875-4.501-10.361-2.267c-3.487,2.235-4.503,6.874-2.268,10.361
			l10.793,16.838c1.433,2.234,3.852,3.454,6.321,3.454c1.386,0,2.787-0.384,4.04-1.187c3.487-2.235,4.503-6.874,2.268-10.361
			L360.639,181.933z"/>
		<path style="fill:#60C8DD;" d="M414.604,266.122c-2.237-3.488-6.876-4.501-10.361-2.267c-3.487,2.235-4.503,6.874-2.268,10.361
			l10.793,16.838c1.433,2.234,3.852,3.454,6.321,3.454c1.386,0,2.787-0.384,4.04-1.187c3.487-2.235,4.503-6.874,2.268-10.361
			L414.604,266.122z"/>
		<path style="fill:#60C8DD;" d="M387.621,224.028c-2.236-3.488-6.875-4.501-10.361-2.267c-3.487,2.235-4.503,6.874-2.268,10.361
			l10.793,16.838c1.433,2.234,3.852,3.454,6.321,3.454c1.386,0,2.787-0.384,4.04-1.187c3.487-2.235,4.503-6.874,2.268-10.361
			L387.621,224.028z"/>
	</g>
	<g>
		<path style="fill:#DCE6EB;" d="M190.938,429.493c-2.702-0.949-4.771-2.939-5.823-5.603c-1.053-2.664-0.903-5.53,0.42-8.071
			l13.741-26.374c1.914-3.673,0.487-8.203-3.186-10.117c-3.673-1.913-8.203-0.488-10.117,3.186l-13.741,26.374
			c-3.315,6.364-3.704,13.841-1.067,20.514s8.031,11.864,14.801,14.242c2.654,0.933,4.705,2.88,5.774,5.482
			c1.068,2.602,0.979,5.428-0.253,7.957l-10.529,21.612c-1.814,3.724-0.267,8.213,3.457,10.027c1.058,0.516,2.177,0.759,3.279,0.759
			c2.779,0,5.449-1.551,6.748-4.217l10.529-21.612c3.087-6.335,3.321-13.707,0.644-20.226
			C202.937,436.908,197.588,431.829,190.938,429.493z"/>
		<path style="fill:#DCE6EB;" d="M67.962,387.73l-21.78,20.249c-5.255,4.885-8.126,11.8-7.876,18.971s3.595,13.869,9.176,18.377
			c2.189,1.768,3.47,4.289,3.605,7.1c0.136,2.81-0.896,5.443-2.903,7.413l-17.159,16.837c-2.956,2.901-3.001,7.649-0.101,10.606
			c1.469,1.497,3.41,2.247,5.354,2.247c1.896,0,3.793-0.714,5.253-2.147l17.159-16.837c5.03-4.936,7.72-11.804,7.38-18.843
			c-0.341-7.039-3.68-13.616-9.162-18.044c-2.229-1.8-3.511-4.368-3.61-7.23c-0.1-2.863,1-5.513,3.098-7.463l21.78-20.249
			c3.034-2.82,3.207-7.566,0.387-10.6C75.741,385.083,70.995,384.909,67.962,387.73z"/>
		<path style="fill:#DCE6EB;" d="M304.526,382.515c-1.913-3.675-6.444-5.099-10.117-3.186c-3.673,1.914-5.1,6.443-3.186,10.117
			l13.741,26.374c1.323,2.541,1.473,5.407,0.42,8.071c-1.053,2.664-3.121,4.653-5.823,5.603
			c-6.649,2.336-11.998,7.415-14.677,13.934c-2.678,6.519-2.443,13.891,0.644,20.226l10.529,21.612
			c1.299,2.667,3.969,4.217,6.748,4.217c1.102,0,2.222-0.244,3.279-0.759c3.724-1.814,5.271-6.303,3.457-10.027l-10.529-21.612
			c-1.231-2.529-1.321-5.355-0.253-7.957c1.069-2.603,3.12-4.549,5.774-5.482c6.77-2.378,12.164-7.57,14.801-14.243
			s2.248-14.15-1.067-20.514L304.526,382.515z"/>
		<path style="fill:#DCE6EB;" d="M459.476,476.677l-17.159-16.837c-2.008-1.97-3.039-4.603-2.903-7.413
			c0.136-2.811,1.416-5.332,3.605-7.1c5.581-4.508,8.926-11.206,9.176-18.377s-2.621-14.085-7.876-18.971l-21.78-20.249
			c-3.034-2.821-7.779-2.647-10.6,0.386c-2.82,3.034-2.647,7.779,0.387,10.6l21.78,20.249c2.098,1.95,3.197,4.601,3.098,7.463
			c-0.1,2.862-1.382,5.43-3.61,7.23c-5.482,4.428-8.821,11.005-9.162,18.044c-0.34,7.039,2.35,13.907,7.38,18.843l17.159,16.837
			c1.46,1.433,3.356,2.147,5.253,2.147c1.942,0,3.885-0.75,5.354-2.247C462.477,484.326,462.432,479.578,459.476,476.677z"/>
	</g>
</g>
<g>
</g>
<g>
</g>
<g>
</g>
<g>
</g>
<g>
</g>
<g>
</g>
<g>
</g>
<g>
</g>
<g>
</g>
<g>
</g>
<g>
</g>
<g>
</g>
<g>
</g>
<g>
</g>
<g>
</g>
</svg>
