<?xml version="1.0" encoding="iso-8859-1"?>
<!-- Generator: Adobe Illustrator 19.0.0, SVG Export Plug-In . SVG Version: 6.00 Build 0)  -->
<svg version="1.1" id="Layer_1" xmlns="http://www.w3.org/2000/svg" xmlns:xlink="http://www.w3.org/1999/xlink" x="0px" y="0px"
	 viewBox="0 0 493.6 493.6" style="enable-background:new 0 0 493.6 493.6;" xml:space="preserve">
<g>
	<path style="fill:#60C8DD;" d="M379.345,25.92v441.76c0,14.32-11.61,25.92-25.93,25.92h-213.24c-14.32,0-25.92-11.6-25.92-25.92
		V25.92c0-14.32,11.6-25.92,25.92-25.92h213.24C367.735,0,379.345,11.6,379.345,25.92z"/>
	<path style="fill:#2CB3CD;" d="M318.8,0l-6.63,38.46c-0.5,2.91-3.03,5.04-5.98,5.04H188.3c-2.91,0-5.4-2.06-5.96-4.91L174.8,0
		H318.8z"/>
	<path style="fill:#C2EAF2;" d="M352.3,81.68v372.24c0,7.11-5.77,12.88-12.88,12.88H154.18c-7.11,0-12.88-5.77-12.88-12.88V81.68
		c0-7.11,5.77-12.88,12.88-12.88h185.24C346.53,68.8,352.3,74.57,352.3,81.68z"/>
	<path style="fill:#DEF4F8;" d="M352.3,81.68v372.24c0,7.11-5.77,12.88-12.88,12.88H186.34c-7.11,0-12.88-5.77-12.88-12.88V81.68
		c0-7.11,5.77-12.88,12.88-12.88h153.08C346.53,68.8,352.3,74.57,352.3,81.68z"/>
	<g>
		<circle style="fill:#269AB1;" cx="286.463" cy="22.05" r="7.5"/>
		<path style="fill:#269AB1;" d="M254.546,13.91h-49.784c-4.142,0-7.5,3.358-7.5,7.5s3.358,7.5,7.5,7.5h49.784
			c4.142,0,7.5-3.358,7.5-7.5S258.688,13.91,254.546,13.91z"/>
	</g>
	<g>
		<path style="fill:#1AB975;" d="M273.935,207.303c-3.895-1.415-8.195,0.597-9.609,4.49c-1.413,3.893,0.597,8.195,4.49,9.609
			c25.411,9.227,42.484,33.599,42.484,60.647c0,35.565-28.935,64.5-64.5,64.5s-64.5-28.935-64.5-64.5
			c0-26.887,16.938-51.209,42.147-60.524c3.885-1.436,5.871-5.749,4.436-9.634s-5.747-5.873-9.635-4.436
			c-31.071,11.48-51.948,41.458-51.948,74.594c0,43.836,35.663,79.5,79.5,79.5s79.5-35.664,79.5-79.5
			C326.3,248.715,305.256,218.676,273.935,207.303z"/>
		<path style="fill:#1AB975;" d="M246.8,270.55c4.143,0,7.5-3.358,7.5-7.5v-81.5c0-4.142-3.357-7.5-7.5-7.5s-7.5,3.358-7.5,7.5v81.5
			C239.3,267.192,242.657,270.55,246.8,270.55z"/>
	</g>
</g>
<g>
</g>
<g>
</g>
<g>
</g>
<g>
</g>
<g>
</g>
<g>
</g>
<g>
</g>
<g>
</g>
<g>
</g>
<g>
</g>
<g>
</g>
<g>
</g>
<g>
</g>
<g>
</g>
<g>
</g>
</svg>
