<?xml version="1.0" encoding="iso-8859-1"?>
<!-- Generator: Adobe Illustrator 19.0.0, SVG Export Plug-In . SVG Version: 6.00 Build 0)  -->
<svg version="1.1" id="Layer_1" xmlns="http://www.w3.org/2000/svg" xmlns:xlink="http://www.w3.org/1999/xlink" x="0px" y="0px"
	 viewBox="0 0 493.6 493.6" style="enable-background:new 0 0 493.6 493.6;" xml:space="preserve">
<g>
	<path style="fill:#60C8DD;" d="M379.345,25.92v441.76c0,14.32-11.61,25.92-25.93,25.92h-213.24c-14.32,0-25.92-11.6-25.92-25.92
		V25.92c0-14.32,11.6-25.92,25.92-25.92h213.24C367.735,0,379.345,11.6,379.345,25.92z"/>
	<path style="fill:#2CB3CD;" d="M318.8,0l-6.63,38.46c-0.5,2.91-3.03,5.04-5.98,5.04H188.3c-2.91,0-5.4-2.06-5.96-4.91L174.8,0
		H318.8z"/>
	<path style="fill:#C2EAF2;" d="M352.3,81.68v372.24c0,7.11-5.77,12.88-12.88,12.88H154.18c-7.11,0-12.88-5.77-12.88-12.88V81.68
		c0-7.11,5.77-12.88,12.88-12.88h185.24C346.53,68.8,352.3,74.57,352.3,81.68z"/>
	<path style="fill:#DEF4F8;" d="M352.3,81.68v372.24c0,7.11-5.77,12.88-12.88,12.88H186.34c-7.11,0-12.88-5.77-12.88-12.88V81.68
		c0-7.11,5.77-12.88,12.88-12.88h153.08C346.53,68.8,352.3,74.57,352.3,81.68z"/>
	<g>
		<circle style="fill:#269AB1;" cx="286.463" cy="22.05" r="7.5"/>
		<path style="fill:#269AB1;" d="M254.546,13.91h-49.784c-4.142,0-7.5,3.358-7.5,7.5s3.358,7.5,7.5,7.5h49.784
			c4.142,0,7.5-3.358,7.5-7.5S258.688,13.91,254.546,13.91z"/>
	</g>
	<g>
		<path style="fill:#269AB1;" d="M324.3,172.633h-155c-4.142,0-7.5-3.357-7.5-7.5s3.358-7.5,7.5-7.5h155c4.142,0,7.5,3.357,7.5,7.5
			S328.442,172.633,324.3,172.633z"/>
	</g>
	<g>
		<path style="fill:#269AB1;" d="M324.3,267.967h-155c-4.142,0-7.5-3.357-7.5-7.5s3.358-7.5,7.5-7.5h155c4.142,0,7.5,3.357,7.5,7.5
			S328.442,267.967,324.3,267.967z"/>
	</g>
	<g>
		<path style="fill:#269AB1;" d="M324.3,363.3h-155c-4.142,0-7.5-3.357-7.5-7.5s3.358-7.5,7.5-7.5h155c4.142,0,7.5,3.357,7.5,7.5
			S328.442,363.3,324.3,363.3z"/>
	</g>
	<path style="fill:#F44545;" d="M219.967,199.8h-14c-4.786,0-8.667-3.88-8.667-8.667v-52c0-4.786,3.88-8.667,8.667-8.667h14
		c4.786,0,8.667,3.88,8.667,8.667v52C228.633,195.92,224.753,199.8,219.967,199.8z"/>
	<path style="fill:#2CB3CD;" d="M303.059,295.133h-14c-4.786,0-8.667-3.88-8.667-8.667v-52c0-4.786,3.88-8.667,8.667-8.667h14
		c4.786,0,8.667,3.88,8.667,8.667v52C311.725,291.253,307.845,295.133,303.059,295.133z"/>
	<path style="fill:#1AB975;" d="M253.8,390.467h-14c-4.786,0-8.667-3.88-8.667-8.667v-52c0-4.786,3.88-8.667,8.667-8.667h14
		c4.786,0,8.667,3.88,8.667,8.667v52C262.467,386.587,258.587,390.467,253.8,390.467z"/>
</g>
<g>
</g>
<g>
</g>
<g>
</g>
<g>
</g>
<g>
</g>
<g>
</g>
<g>
</g>
<g>
</g>
<g>
</g>
<g>
</g>
<g>
</g>
<g>
</g>
<g>
</g>
<g>
</g>
<g>
</g>
</svg>
