<?xml version="1.0" encoding="iso-8859-1"?>
<!-- Generator: Adobe Illustrator 19.0.0, SVG Export Plug-In . SVG Version: 6.00 Build 0)  -->
<svg version="1.1" id="Layer_1" xmlns="http://www.w3.org/2000/svg" xmlns:xlink="http://www.w3.org/1999/xlink" x="0px" y="0px"
	 viewBox="0 0 496.478 496.478" style="enable-background:new 0 0 496.478 496.478;" xml:space="preserve">
<g>
	<path style="fill:#C2EAF2;" d="M496.478,76.9v397.29c0,10.803-8.757,19.56-19.56,19.56H25.398c-10.803,0-19.56-8.757-19.56-19.56
		V96.46c0-10.803,8.757-19.56,19.56-19.56H496.478z"/>
	<g>
		<path style="fill:#AE583E;" d="M484.81,46.317H7.5c-4.142,0-7.5-3.357-7.5-7.5s3.358-7.5,7.5-7.5h477.31
			c4.142,0,7.5,3.357,7.5,7.5S488.952,46.317,484.81,46.317z"/>
	</g>
	<g>
		<path style="fill:#D29380;" d="M29.151,84.401c-4.142,0-7.5-3.357-7.5-7.5V13.283c0-4.143,3.358-7.5,7.5-7.5s7.5,3.357,7.5,7.5
			v63.618C36.651,81.044,33.293,84.401,29.151,84.401z"/>
	</g>
	<path style="fill:#954C35;" d="M449.706,311.137h-46.619h-46.619v182.612h46.619h46.619h27.059c10.803,0,19.56-8.757,19.56-19.56
		V311.137H449.706z"/>
	<g>
		<path style="fill:#D29380;" d="M75.771,84.401c-4.142,0-7.5-3.357-7.5-7.5V13.283c0-4.143,3.358-7.5,7.5-7.5s7.5,3.357,7.5,7.5
			v63.618C83.271,81.044,79.913,84.401,75.771,84.401z"/>
	</g>
	<rect x="403.087" y="311.137" style="fill:#AE583E;" width="46.619" height="182.612"/>
	<g>
		<path style="fill:#D29380;" d="M122.389,84.401c-4.142,0-7.5-3.357-7.5-7.5V13.283c0-4.143,3.358-7.5,7.5-7.5s7.5,3.357,7.5,7.5
			v63.618C129.889,81.044,126.531,84.401,122.389,84.401z"/>
	</g>
	<g>
		<path style="fill:#60C8DD;" d="M190.467,155.629c1.384,1.11,3.041,1.649,4.688,1.649c2.197,0,4.374-0.961,5.855-2.808
			l28.797-35.904c2.592-3.231,2.073-7.951-1.158-10.543c-3.231-2.592-7.951-2.072-10.543,1.158l-28.797,35.904
			C186.717,148.317,187.235,153.037,190.467,155.629z"/>
		<path style="fill:#60C8DD;" d="M220.482,166.022c-3.128-2.716-7.866-2.381-10.58,0.748l-39.408,45.406
			c-2.715,3.128-2.38,7.865,0.748,10.58c1.419,1.232,3.17,1.836,4.913,1.836c2.098,0,4.185-0.875,5.667-2.584l39.408-45.406
			C223.945,173.474,223.61,168.737,220.482,166.022z"/>
		<path style="fill:#60C8DD;" d="M271.794,175.338c-3.231-2.592-7.951-2.072-10.543,1.158L232.455,212.4
			c-2.592,3.231-2.073,7.951,1.158,10.543c1.384,1.11,3.041,1.649,4.688,1.649c2.197,0,4.374-0.961,5.855-2.808l28.797-35.904
			C275.544,182.649,275.026,177.929,271.794,175.338z"/>
		<path style="fill:#60C8DD;" d="M202.823,386.706l28.797-35.904c2.592-3.231,2.073-7.951-1.158-10.543s-7.951-2.072-10.543,1.158
			l-28.797,35.904c-2.592,3.231-2.073,7.951,1.158,10.543c1.384,1.11,3.041,1.649,4.688,1.649
			C199.164,389.513,201.341,388.552,202.823,386.706z"/>
		<path style="fill:#60C8DD;" d="M271.794,333.635c-3.231-2.592-7.951-2.072-10.543,1.158l-14.398,17.952
			c-2.592,3.231-2.073,7.951,1.158,10.543c1.384,1.11,3.041,1.649,4.688,1.649c2.197,0,4.374-0.961,5.855-2.808l14.398-17.952
			C275.544,340.947,275.026,336.227,271.794,333.635z"/>
		<path style="fill:#60C8DD;" d="M234.657,410.464c-3.23-2.593-7.951-2.073-10.543,1.158l-28.797,35.904
			c-2.592,3.231-2.073,7.951,1.158,10.543c1.384,1.11,3.041,1.649,4.688,1.649c2.197,0,4.374-0.961,5.855-2.808l28.797-35.904
			C238.407,417.775,237.888,413.055,234.657,410.464z"/>
	</g>
	<path style="fill:#954C35;" d="M145.698,76.9v416.85h-120.3c-10.8,0-19.56-8.76-19.56-19.56V96.46c0-10.8,8.76-19.56,19.56-19.56
		H145.698z"/>
	<rect x="52.461" y="76.901" style="fill:#AE583E;" width="46.619" height="416.848"/>
	<path style="fill:#60C8DD;" d="M496.408,340.215c0,11.55-9.363,20.913-20.913,20.913H332.713c-11.55,0-20.913-9.363-20.913-20.913
		V23.641c0-11.55,9.363-20.913,20.913-20.913h142.783c11.55,0,20.913,9.363,20.913,20.913V340.215z"/>
	<path style="fill:#2CB3CD;" d="M397.841,2.728h-23.877h-34.927l9.335,40.416c0.636,2.755,3.09,4.706,5.917,4.706h99.627
		c2.828,0,5.281-1.951,5.917-4.706l9.335-40.416H397.841z"/>
	<path style="fill:#C2EAF2;" d="M473.647,78.288v249.2c0,2.76-2.24,5-5,5h-129.08c-2.76,0-5-2.24-5-5v-249.2c0-2.76,2.24-5,5-5
		h129.08C471.407,73.288,473.647,75.528,473.647,78.288z"/>
	<path style="fill:#DEF4F8;" d="M473.647,78.288v249.2c0,2.76-2.24,5-5,5h-106.3c-2.76,0-5-2.24-5-5v-249.2c0-2.76,2.24-5,5-5h106.3
		C471.407,73.288,473.647,75.528,473.647,78.288z"/>
	<g>
		<path style="fill:#269AB1;" d="M413.945,17.343H367.53c-4.142,0-7.5,3.358-7.5,7.5s3.358,7.5,7.5,7.5h46.415
			c4.142,0,7.5-3.358,7.5-7.5S418.087,17.343,413.945,17.343z"/>
		<circle style="fill:#269AB1;" cx="433.784" cy="24.842" r="6.894"/>
	</g>
	<path style="fill:#1ED688;" d="M351.337,205.933v-32.627c0-2.466,1.999-4.465,4.465-4.465h26.004l19.142,20.779l-19.142,20.779
		h-26.004C353.336,210.398,351.337,208.399,351.337,205.933z"/>
	<path style="fill:#1ED688;" d="M457.206,173.343v32.627c0,2.466-1.999,4.465-4.465,4.465h-26.004l-19.142-20.779l19.142-20.779
		h26.004C455.207,168.878,457.206,170.877,457.206,173.343z"/>
	<path style="fill:#1AB975;" d="M439.542,213.337l-21.764-23.683l21.767-23.718c2.801-3.052,2.598-7.796-0.454-10.597
		c-3.052-2.802-7.795-2.598-10.597,0.454l-24.206,26.375l-24.241-26.379c-2.802-3.05-7.548-3.248-10.597-0.447
		c-3.05,2.803-3.25,7.547-0.448,10.598l21.764,23.683l-21.767,23.718c-2.801,3.052-2.598,7.796,0.454,10.597
		c1.44,1.322,3.257,1.975,5.069,1.975c2.027,0,4.048-0.817,5.528-2.429l24.206-26.375l24.241,26.379
		c1.479,1.609,3.499,2.425,5.524,2.425c1.813,0,3.632-0.654,5.073-1.978C442.144,221.132,442.344,216.387,439.542,213.337z"/>
</g>
<g>
</g>
<g>
</g>
<g>
</g>
<g>
</g>
<g>
</g>
<g>
</g>
<g>
</g>
<g>
</g>
<g>
</g>
<g>
</g>
<g>
</g>
<g>
</g>
<g>
</g>
<g>
</g>
<g>
</g>
</svg>
