<?xml version="1.0" encoding="iso-8859-1"?>
<!-- Generator: Adobe Illustrator 19.0.0, SVG Export Plug-In . SVG Version: 6.00 Build 0)  -->
<svg version="1.1" id="Layer_1" xmlns="http://www.w3.org/2000/svg" xmlns:xlink="http://www.w3.org/1999/xlink" x="0px" y="0px"
	 viewBox="0 0 494.953 494.953" style="enable-background:new 0 0 494.953 494.953;" xml:space="preserve">
<g>
	<rect x="36.271" y="228.581" style="fill:#A2ABB8;" width="331.422" height="253.283"/>
	<path style="fill:#FFC14F;" d="M398.48,247.865h-393c-1.98,0-3.16-2.21-2.06-3.86l14.62-21.97l9.97-15l12.97-19.49l9.98-15
		l16.05-24.13c0.46-0.69,1.24-1.11,2.07-1.11h265.23c0.83,0,1.6,0.41,2.06,1.1l16.2,24.14l10.07,15l13.08,19.49l10.07,15
		l14.75,21.97C401.65,245.645,400.47,247.865,398.48,247.865z"/>
	<g>
		<path style="fill:#FFA90B;" d="M304.82,180.046c0,4.14-3.36,7.5-7.5,7.5H40.98l9.98-15h246.36
			C301.46,172.546,304.82,175.905,304.82,180.046z"/>
		<path style="fill:#FFA90B;" d="M362.64,187.546h-35.32c-4.15,0-7.5-3.36-7.5-7.5s3.35-7.5,7.5-7.5h25.25L362.64,187.546z"/>
		<polygon style="fill:#FFA90B;" points="385.79,222.035 18.04,222.035 28.01,207.035 375.72,207.035 		"/>
	</g>
	<polygon style="fill:#C8D2DC;" points="308.44,245.385 308.44,481.865 95.52,481.865 95.52,245.385 201.98,147.305 218.2,162.245 	
		"/>
	<path style="fill:#DCE6EB;" d="M308.44,245.385v236.48H129.67v-220.72c0-5.31,2.08-10.41,5.79-14.21l82.74-84.69L308.44,245.385z"
		/>
	<path style="fill:#AE583E;" d="M244.364,480.811h-84.763V324.448c0-3.202,2.596-5.798,5.798-5.798h73.167
		c3.202,0,5.798,2.596,5.798,5.798V480.811z"/>
	<path style="fill:#127D4F;" d="M399.526,494.645H4.439c-2.452,0-4.439-1.988-4.439-4.439v-13.909c0-2.452,1.988-4.439,4.439-4.439
		h395.086c2.452,0,4.439,1.988,4.439,4.439v13.909C403.965,492.658,401.977,494.645,399.526,494.645z"/>
	<path style="fill:#7C3F2C;" d="M184.983,377.443c-4.143,0-7.5,3.358-7.5,7.5v17.921c0,4.142,3.357,7.5,7.5,7.5s7.5-3.358,7.5-7.5
		v-17.921C192.483,380.801,189.125,377.443,184.983,377.443z"/>
	<path style="fill:#1AB975;" d="M139.33,471.855H18.22c-1.21-2.76-1.88-5.81-1.88-9.02c0-11.44,8.49-20.89,19.51-22.4
		c1.24-0.17,2.27-1.04,2.62-2.24c3.92-13.54,16.41-23.44,31.22-23.44c4.94,0,9.63,1.11,13.83,3.09c3.42,1.61,6.51,3.8,9.15,6.44
		c4.61,4.61,7.84,10.59,9.02,17.29c0.4,2.24,2.9,3.35,4.83,2.13c3.91-2.48,8.65-3.79,13.7-3.43c11.02,0.78,20.01,9.66,20.9,20.67
		C141.44,464.845,140.77,468.555,139.33,471.855z"/>
	<path style="fill:#1AB975;" d="M385.75,471.855H264.64c-1.21-2.76-1.88-5.81-1.88-9.02c0-11.44,8.49-20.89,19.52-22.4
		c1.24-0.17,2.26-1.04,2.61-2.24c3.93-13.54,16.41-23.44,31.22-23.44c4.94,0,9.63,1.11,13.83,3.09c3.42,1.61,6.51,3.8,9.15,6.44
		c4.61,4.61,7.85,10.59,9.03,17.29c0.4,2.24,2.89,3.35,4.82,2.13c3.92-2.48,8.65-3.79,13.71-3.43c11.01,0.78,20,9.66,20.9,20.67
		C387.87,464.845,387.19,468.555,385.75,471.855z"/>
	<path style="fill:#1ED688;" d="M139.33,471.855H45.88c-1.21-2.76-1.88-5.81-1.88-9.02c0-11.44,8.49-20.89,19.51-22.4
		c1.24-0.17,2.27-1.04,2.62-2.24c2.61-9.02,9.02-16.42,17.39-20.35c3.42,1.61,6.51,3.8,9.15,6.44c4.61,4.61,7.84,10.59,9.02,17.29
		c0.4,2.24,2.9,3.35,4.83,2.13c3.91-2.48,8.65-3.79,13.7-3.43c11.02,0.78,20.01,9.66,20.9,20.67
		C141.44,464.845,140.77,468.555,139.33,471.855z"/>
	<path style="fill:#1ED688;" d="M385.75,471.855H292.3c-1.21-2.76-1.88-5.81-1.88-9.02c0-11.44,8.49-20.89,19.52-22.4
		c1.24-0.17,2.26-1.04,2.61-2.24c2.62-9.02,9.03-16.42,17.39-20.35c3.42,1.61,6.51,3.8,9.15,6.44c4.61,4.61,7.85,10.59,9.03,17.29
		c0.4,2.24,2.89,3.35,4.82,2.13c3.92-2.48,8.65-3.79,13.71-3.43c11.01,0.78,20,9.66,20.9,20.67
		C387.87,464.845,387.19,468.555,385.75,471.855z"/>
	<path style="fill:#5F6C75;" d="M308.444,306.395h-20.779c-2.761,0-5-2.239-5-5v-14.64c0-2.761,2.239-5,5-5h20.779V306.395z"/>
	<path style="fill:#7E8B96;" d="M308.444,331.036h-37.845c-2.761,0-5-2.239-5-5v-14.64c0-2.761,2.239-5,5-5h37.845V331.036z"/>
	<path style="fill:#7E8B96;" d="M95.521,384.943H121.3v19.64c0,2.761-2.239,5-5,5H95.521V384.943z"/>
	<path style="fill:#5F6C75;" d="M95.521,360.303h37.845c2.761,0,5,2.239,5,5v19.64H95.521V360.303z"/>
	<path style="fill:#F29500;" d="M323.133,243.965L210.699,131.531c-4.783-4.783-12.632-4.802-17.434,0L80.832,243.964
		c-4.781,4.781-4.781,12.532,0,17.312l4.6,4.6c4.781,4.781,12.532,4.781,17.312,0l99.238-99.238l99.238,99.238
		c4.781,4.781,12.532,4.781,17.312,0l4.6-4.6C327.913,256.496,327.913,248.745,323.133,243.965z"/>
	<path style="fill:#1AB975;" d="M390.982,294.595c-5.94,3.07-12.22,5.91-18.85,8.47c-2.16,0.84-4.56,0.84-6.73,0
		c-118.13-45.68-123.49-176.32-122.77-211c0.1-4.71,3.73-8.55,8.41-8.98c57.02-5.18,94.63-54.16,109.95-78.48
		c3.6-5.73,11.95-5.73,15.55,0c3.6,5.71,8.42,12.78,14.45,20.32c19.6,24.59,51.87,54.2,95.5,58.16c4.69,0.43,8.31,4.27,8.41,8.98
		C495.591,124.795,490.841,243.015,390.982,294.595z"/>
	<path style="fill:#1ED688;" d="M390.982,294.595c-99.85-51.59-104.59-169.8-103.91-202.53c0.1-4.71,3.73-8.55,8.41-8.98
		c43.63-3.96,75.9-33.57,95.51-58.16c19.6,24.59,51.87,54.2,95.5,58.16c4.69,0.43,8.31,4.27,8.41,8.98
		C495.591,124.795,490.841,243.015,390.982,294.595z"/>
	<path style="fill:#169B62;" d="M420.575,107.999c-3.609-2.031-8.184-0.752-10.215,2.857l-51.73,91.914l-33.022-29.188
		c-3.104-2.744-7.844-2.45-10.586,0.652c-2.743,3.104-2.451,7.843,0.652,10.586l39.975,35.333c1.381,1.222,3.151,1.881,4.967,1.881
		c0.415,0,0.832-0.034,1.248-0.104c2.233-0.377,4.177-1.743,5.288-3.717l56.281-100
		C425.464,114.603,424.184,110.031,420.575,107.999z"/>
</g>
<g>
</g>
<g>
</g>
<g>
</g>
<g>
</g>
<g>
</g>
<g>
</g>
<g>
</g>
<g>
</g>
<g>
</g>
<g>
</g>
<g>
</g>
<g>
</g>
<g>
</g>
<g>
</g>
<g>
</g>
</svg>
