<?xml version="1.0" encoding="iso-8859-1"?>
<!-- Generator: Adobe Illustrator 19.0.0, SVG Export Plug-In . SVG Version: 6.00 Build 0)  -->
<svg version="1.1" id="Layer_1" xmlns="http://www.w3.org/2000/svg" xmlns:xlink="http://www.w3.org/1999/xlink" x="0px" y="0px"
	 viewBox="0 0 492.084 492.084" style="enable-background:new 0 0 492.084 492.084;" xml:space="preserve">
<g>
	<path style="fill:#DCE6EB;" d="M246.042,492.084L246.042,492.084c83.132,0,150.524-67.392,150.524-150.524V167.684H95.518V341.56
		C95.518,424.692,162.91,492.084,246.042,492.084z"/>
	<path style="fill:#909BA6;" d="M446.242,54.032v110.63c0,7.2-5.83,13.03-13.03,13.03H58.872c-7.2,0-13.03-5.83-13.03-13.03V54.032
		H446.242z"/>
	<path style="fill:#A2ABB8;" d="M446.242,54.032v93.2h-319.77c-7.19,0-13.02-5.84-13.02-13.03v-80.17H446.242z"/>
	<path style="fill:#5F6C75;" d="M464.851,64.041H27.233c-4.45,0-8.057-3.607-8.057-8.057V8.057c0-4.45,3.607-8.057,8.057-8.057
		h437.618c4.45,0,8.057,3.607,8.057,8.057v47.928C472.908,60.434,469.301,64.041,464.851,64.041z"/>
	<path style="fill:#4E5A61;" d="M356.762,331.362c0,49.8-32.88,91.93-78.12,105.84c-10.31,3.17-21.25,4.88-32.6,4.88
		c-61.15,0-110.72-49.57-110.72-110.72s49.57-110.72,110.72-110.72c11.35,0,22.29,1.71,32.6,4.88
		C323.882,239.432,356.762,281.562,356.762,331.362z"/>
	<path style="fill:#5F6C75;" d="M356.762,331.362c0,49.8-32.88,91.93-78.12,105.84c-45.24-13.91-78.12-56.04-78.12-105.84
		c0-49.8,32.88-91.93,78.12-105.84C323.882,239.432,356.762,281.562,356.762,331.362z"/>
	<circle style="fill:#7E8B96;" cx="246.042" cy="308.09" r="25.271"/>
</g>
<g>
</g>
<g>
</g>
<g>
</g>
<g>
</g>
<g>
</g>
<g>
</g>
<g>
</g>
<g>
</g>
<g>
</g>
<g>
</g>
<g>
</g>
<g>
</g>
<g>
</g>
<g>
</g>
<g>
</g>
</svg>
