<?xml version="1.0" encoding="iso-8859-1"?>
<!-- Generator: Adobe Illustrator 19.0.0, SVG Export Plug-In . SVG Version: 6.00 Build 0)  -->
<svg version="1.1" id="Layer_1" xmlns="http://www.w3.org/2000/svg" xmlns:xlink="http://www.w3.org/1999/xlink" x="0px" y="0px"
	 viewBox="0 0 501.546 501.546" style="enable-background:new 0 0 501.546 501.546;" xml:space="preserve">
<g>
	<path style="fill:#F44545;" d="M379.873,143.812v149.13c0,48.9-27.18,91.44-67.26,113.35c-18.37,10.04-39.44,15.75-61.84,15.75
		c-71.3,0-129.1-57.8-129.1-129.1v-149.13H379.873z"/>
	<path style="fill:#F95353;" d="M379.873,143.812v149.13c0,48.9-27.18,91.44-67.26,113.35c-6.27,0.94-12.69,1.43-19.23,1.43h-0.01
		c-71.29,0-129.09-57.8-129.09-129.1v-134.81H379.873z"/>
	<path style="fill:#C8D2DC;" d="M422.477,46.341v94.883c0,6.175-5,11.175-11.175,11.175H90.244c-6.175,0-11.175-5-11.175-11.175
		V46.341H422.477z"/>
	<path style="fill:#DCE6EB;" d="M422.477,46.341v79.934H148.222c-6.167,0-11.167-5.009-11.167-11.175V46.341H422.477z"/>
	<path style="fill:#B9C3CD;" d="M438.437,54.926H63.108c-3.816,0-6.91-3.094-6.91-6.91V6.91c0-3.816,3.094-6.91,6.91-6.91h375.329
		c3.816,0,6.91,3.094,6.91,6.91v41.106C445.347,51.832,442.254,54.926,438.437,54.926z"/>
	<g>
		<path style="fill:#F44545;" d="M250.773,449.546c-4.143,0-7.5,3.357-7.5,7.5v37c0,4.143,3.357,7.5,7.5,7.5s7.5-3.357,7.5-7.5v-37
			C258.273,452.903,254.916,449.546,250.773,449.546z"/>
		<path style="fill:#C42D2D;" d="M317.958,443.524c-1.416-3.892-5.718-5.9-9.613-4.482c-3.892,1.417-5.899,5.721-4.482,9.613
			l12.654,34.769c1.108,3.046,3.984,4.937,7.049,4.937c0.851,0,1.718-0.146,2.564-0.454c3.892-1.417,5.899-5.721,4.482-9.613
			L317.958,443.524z"/>
		<path style="fill:#F44545;" d="M369.418,410.404c-2.662-3.173-7.394-3.588-10.566-0.924c-3.173,2.662-3.587,7.393-0.924,10.566
			l23.783,28.344c1.483,1.768,3.608,2.679,5.749,2.679c1.701,0,3.412-0.575,4.817-1.755c3.173-2.662,3.587-7.393,0.924-10.566
			L369.418,410.404z"/>
		<path style="fill:#C42D2D;" d="M438.49,380.183l-32.043-18.5c-3.59-2.07-8.175-0.844-10.245,2.745
			c-2.071,3.587-0.842,8.174,2.745,10.245l32.043,18.5c1.182,0.682,2.471,1.006,3.743,1.006c2.592,0,5.113-1.345,6.502-3.751
			C443.306,386.841,442.077,382.254,438.49,380.183z"/>
		<path style="fill:#F44545;" d="M461.017,309.659l-36.438-6.425c-4.081-0.722-7.969,2.005-8.688,6.083
			c-0.72,4.08,2.004,7.97,6.083,8.688l36.438,6.425c0.441,0.078,0.879,0.115,1.312,0.115c3.571,0,6.735-2.561,7.377-6.198
			C467.82,314.268,465.096,310.378,461.017,309.659z"/>
		<path style="fill:#C42D2D;" d="M422.92,256.995c0.433,0,0.871-0.037,1.312-0.115l36.438-6.425
			c4.079-0.719,6.803-4.608,6.083-8.688c-0.72-4.079-4.615-6.806-8.688-6.083l-36.438,6.425c-4.079,0.719-6.803,4.608-6.083,8.688
			C416.185,254.436,419.349,256.995,422.92,256.995z"/>
		<path style="fill:#C42D2D;" d="M193.202,439.042c-3.895-1.414-8.197,0.591-9.613,4.482l-12.654,34.769
			c-1.417,3.893,0.591,8.196,4.482,9.613c0.847,0.308,1.713,0.454,2.564,0.454c3.064,0,5.94-1.892,7.049-4.937l12.654-34.769
			C199.101,444.763,197.093,440.459,193.202,439.042z"/>
		<path style="fill:#F44545;" d="M142.695,409.481c-3.174-2.664-7.904-2.249-10.566,0.924l-23.783,28.344
			c-2.663,3.174-2.249,7.904,0.924,10.566c1.405,1.18,3.116,1.755,4.817,1.755c2.141,0,4.266-0.911,5.749-2.679l23.783-28.344
			C146.282,416.873,145.868,412.143,142.695,409.481z"/>
		<path style="fill:#C42D2D;" d="M95.099,361.683l-32.043,18.5c-3.587,2.071-4.816,6.658-2.745,10.245
			c1.389,2.406,3.91,3.751,6.502,3.751c1.272,0,2.563-0.324,3.743-1.006l32.043-18.5c3.587-2.071,4.816-6.658,2.745-10.245
			C103.274,360.84,98.685,359.613,95.099,361.683z"/>
		<path style="fill:#F44545;" d="M85.655,309.317c-0.719-4.079-4.612-6.805-8.688-6.083l-36.438,6.425
			c-4.079,0.719-6.803,4.608-6.083,8.688c0.642,3.639,3.806,6.198,7.377,6.198c0.433,0,0.871-0.037,1.312-0.115l36.438-6.425
			C83.651,317.287,86.375,313.398,85.655,309.317z"/>
		<path style="fill:#C42D2D;" d="M40.876,250.455l36.438,6.425c0.441,0.078,0.879,0.115,1.312,0.115
			c3.571,0,6.735-2.561,7.377-6.198c0.72-4.08-2.004-7.97-6.083-8.688l-36.438-6.425c-4.082-0.722-7.969,2.005-8.688,6.083
			C34.074,245.847,36.797,249.736,40.876,250.455z"/>
	</g>
	<path style="fill:#AF2727;" d="M250.865,326.332L250.865,326.332c-12.152,0-22.323-9.217-23.515-21.311l-9.765-99.035
		c-1.371-13.899,9.549-25.948,23.515-25.948h19.346c13.949,0,24.863,12.02,23.519,25.905l-9.581,99.035
		C273.213,317.09,263.034,326.332,250.865,326.332z"/>
	<circle style="fill:#AF2727;" cx="250.773" cy="372.261" r="22.114"/>
</g>
<g>
</g>
<g>
</g>
<g>
</g>
<g>
</g>
<g>
</g>
<g>
</g>
<g>
</g>
<g>
</g>
<g>
</g>
<g>
</g>
<g>
</g>
<g>
</g>
<g>
</g>
<g>
</g>
<g>
</g>
</svg>
