<?xml version="1.0" encoding="iso-8859-1"?>
<!-- Generator: Adobe Illustrator 19.0.0, SVG Export Plug-In . SVG Version: 6.00 Build 0)  -->
<svg version="1.1" id="Layer_1" xmlns="http://www.w3.org/2000/svg" xmlns:xlink="http://www.w3.org/1999/xlink" x="0px" y="0px"
	 viewBox="0 0 494.187 494.187" style="enable-background:new 0 0 494.187 494.187;" xml:space="preserve">
<g>
	<rect x="111.847" y="372.818" style="fill:#C8D2DC;" width="24.274" height="112.267"/>
	<circle style="fill:#DCE6EB;" cx="123.984" cy="271.644" r="123.645"/>
	<path style="fill:#60C8DD;" d="M493.849,25.92v441.76c0,14.32-11.61,25.92-25.93,25.92h-213.24c-14.32,0-25.92-11.6-25.92-25.92
		V25.92c0-14.32,11.6-25.92,25.92-25.92h213.24C482.239,0,493.849,11.6,493.849,25.92z"/>
	<path style="fill:#2CB3CD;" d="M433.304,0l-6.63,38.46c-0.5,2.91-3.03,5.04-5.98,5.04h-117.89c-2.91,0-5.4-2.06-5.96-4.91
		L289.304,0H433.304z"/>
	<path style="fill:#C2EAF2;" d="M466.804,81.68v372.24c0,7.11-5.77,12.88-12.88,12.88h-185.24c-7.11,0-12.88-5.77-12.88-12.88V81.68
		c0-7.11,5.77-12.88,12.88-12.88h185.24C461.034,68.8,466.804,74.57,466.804,81.68z"/>
	<path style="fill:#DEF4F8;" d="M466.804,81.68v372.24c0,7.11-5.77,12.88-12.88,12.88h-153.08c-7.11,0-12.88-5.77-12.88-12.88V81.68
		c0-7.11,5.77-12.88,12.88-12.88h153.08C461.034,68.8,466.804,74.57,466.804,81.68z"/>
	<g>
		<circle style="fill:#269AB1;" cx="400.967" cy="22.05" r="7.5"/>
		<path style="fill:#269AB1;" d="M369.05,13.91h-49.784c-4.142,0-7.5,3.358-7.5,7.5s3.358,7.5,7.5,7.5h49.784
			c4.142,0,7.5-3.358,7.5-7.5S373.192,13.91,369.05,13.91z"/>
	</g>
	<path style="fill:#4E5A61;" d="M186.005,333.66c-10.88,10.88-23.91,18.31-37.73,22.27c-29.67,8.52-62.94,1.1-86.31-22.27
		c-34.25-34.25-34.25-89.78,0-124.03c23.37-23.37,56.64-30.8,86.31-22.28c13.82,3.97,26.85,11.39,37.73,22.28
		C220.255,243.88,220.255,299.41,186.005,333.66z"/>
	<path style="fill:#5F6C75;" d="M186.005,333.66c-10.88,10.88-23.91,18.31-37.73,22.27c-13.82-3.96-26.85-11.39-37.73-22.27
		c-34.25-34.25-34.25-89.78,0-124.03c10.88-10.89,23.91-18.31,37.73-22.28c13.82,3.97,26.85,11.39,37.73,22.28
		C220.255,243.88,220.255,299.41,186.005,333.66z"/>
	<circle style="fill:#7E8B96;" cx="142.993" cy="242.978" r="23.281"/>
	<path style="fill:#A2ABB8;" d="M147.878,494.187h-47.789c-7.96,0-14.413-6.453-14.413-14.413v0c0-7.96,6.453-14.413,14.413-14.413
		h47.789c7.96,0,14.413,6.453,14.413,14.413v0C162.291,487.735,155.838,494.187,147.878,494.187z"/>
	<g>
		<path style="fill:#1ED688;" d="M307.927,126.789h-23.656c-4.142,0-7.5,3.357-7.5,7.5v23.046c0,4.143,3.358,7.5,7.5,7.5
			s7.5-3.357,7.5-7.5v-15.546h16.156c4.142,0,7.5-3.357,7.5-7.5S312.069,126.789,307.927,126.789z"/>
		<path style="fill:#1ED688;" d="M438.337,126.789h-23.656c-4.142,0-7.5,3.357-7.5,7.5s3.358,7.5,7.5,7.5h16.156v15.546
			c0,4.143,3.358,7.5,7.5,7.5s7.5-3.357,7.5-7.5v-23.046C445.837,130.147,442.479,126.789,438.337,126.789z"/>
		<path style="fill:#1ED688;" d="M438.337,370.765c-4.142,0-7.5,3.357-7.5,7.5v15.546h-16.156c-4.142,0-7.5,3.357-7.5,7.5
			s3.358,7.5,7.5,7.5h23.656c4.142,0,7.5-3.357,7.5-7.5v-23.046C445.837,374.122,442.479,370.765,438.337,370.765z"/>
		<path style="fill:#1ED688;" d="M307.927,393.811h-16.156v-15.546c0-4.143-3.358-7.5-7.5-7.5s-7.5,3.357-7.5,7.5v23.046
			c0,4.143,3.358,7.5,7.5,7.5h23.656c4.142,0,7.5-3.357,7.5-7.5S312.069,393.811,307.927,393.811z"/>
	</g>
</g>
<g>
</g>
<g>
</g>
<g>
</g>
<g>
</g>
<g>
</g>
<g>
</g>
<g>
</g>
<g>
</g>
<g>
</g>
<g>
</g>
<g>
</g>
<g>
</g>
<g>
</g>
<g>
</g>
<g>
</g>
</svg>
