<?xml version="1.0" encoding="iso-8859-1"?>
<!-- Generator: Adobe Illustrator 19.0.0, SVG Export Plug-In . SVG Version: 6.00 Build 0)  -->
<svg version="1.1" id="Layer_1" xmlns="http://www.w3.org/2000/svg" xmlns:xlink="http://www.w3.org/1999/xlink" x="0px" y="0px"
	 viewBox="0 0 484.556 484.556" style="enable-background:new 0 0 484.556 484.556;" xml:space="preserve">
<g>
	<path style="fill:#DCE6EB;" d="M427.729,484.556H56.827c-30.657,0-55.51-24.853-55.51-55.51V55.51C1.317,24.852,26.17,0,56.827,0
		h370.902c30.657,0,55.51,24.852,55.51,55.51v373.536C483.238,459.703,458.386,484.556,427.729,484.556z"/>
	<path style="fill:#1AB975;" d="M453.238,55.508v373.54c0,14.06-11.44,25.51-25.51,25.51h-370.9c-14.07,0-25.51-11.45-25.51-25.51
		V55.508c0-14.06,11.44-25.51,25.51-25.51h370.9C441.798,29.998,453.238,41.448,453.238,55.508z"/>
	<path style="fill:#1ED688;" d="M453.238,55.508v373.54c0,14.06-11.44,25.51-25.51,25.51h-325.86c-14.07,0-25.51-11.45-25.51-25.51
		V55.508c0-14.06,11.44-25.51,25.51-25.51h325.86C441.798,29.998,453.238,41.448,453.238,55.508z"/>
	<g>
		<path style="fill:#169B62;" d="M160.988,130.505c-26.683,0-47.437,13.227-47.437,48.577v70.699
			c0,35.577,20.754,48.805,47.437,48.805c26.683,0,47.437-13.227,47.437-48.805v-70.699
			C208.425,143.732,187.671,130.505,160.988,130.505z M193.373,249.781c0,23.947-12.087,34.894-32.385,34.894
			c-20.297,0-32.385-10.947-32.385-34.894v-70.699c0-23.718,12.088-34.665,32.385-34.665c20.297,0,32.385,10.947,32.385,34.665
			V249.781z"/>
		<path style="fill:#169B62;" d="M363.478,250.693c-4.789,0-7.07,2.28-7.526,5.929c-1.368,10.947-3.877,28.052-31.016,28.052
			c-22.122,0-33.753-10.947-33.753-34.894v-70.699c0-23.718,11.631-34.665,32.841-34.665c27.139,0,31.472,17.788,31.929,27.595
			c0.228,3.193,2.281,5.702,7.526,5.702c5.246,0,7.526-1.596,7.526-9.123c0-20.525-17.104-38.086-46.981-38.086
			c-25.999,0-47.893,13.227-47.893,48.577v70.699c0,35.577,21.438,48.805,47.208,48.805c30.104,0,47.665-17.788,47.665-38.542
			C371.004,252.518,368.724,250.693,363.478,250.693z"/>
		<path style="fill:#169B62;" d="M225.432,56.771c-16.56,0-30.032,13.472-30.032,30.031s13.472,30.032,30.032,30.032
			c16.559,0,30.031-13.473,30.031-30.032S241.991,56.771,225.432,56.771z M225.432,101.834c-8.289,0-15.032-6.743-15.032-15.032
			c0-8.288,6.743-15.031,15.032-15.031c8.288,0,15.031,6.743,15.031,15.031C240.463,95.091,233.72,101.834,225.432,101.834z"/>
	</g>
	<path style="fill:#31986B;" d="M118.444,411.177l37.286-64.581c2.337-4.048,8.18-4.048,10.517,0l37.286,64.581
		c2.337,4.048-0.584,9.108-5.258,9.108h-74.572C119.028,420.284,116.107,415.225,118.444,411.177z"/>
	<path style="fill:#31986B;" d="M366.112,352.668l-37.286,64.581c-2.337,4.048-8.18,4.048-10.517,0l-37.286-64.581
		c-2.337-4.048,0.584-9.108,5.258-9.108h74.572C365.527,343.56,368.449,348.62,366.112,352.668z"/>
</g>
<g>
</g>
<g>
</g>
<g>
</g>
<g>
</g>
<g>
</g>
<g>
</g>
<g>
</g>
<g>
</g>
<g>
</g>
<g>
</g>
<g>
</g>
<g>
</g>
<g>
</g>
<g>
</g>
<g>
</g>
</svg>
