<?xml version="1.0" encoding="iso-8859-1"?>
<!-- Generator: Adobe Illustrator 19.0.0, SVG Export Plug-In . SVG Version: 6.00 Build 0)  -->
<svg version="1.1" id="Layer_1" xmlns="http://www.w3.org/2000/svg" xmlns:xlink="http://www.w3.org/1999/xlink" x="0px" y="0px"
	 viewBox="0 0 484.556 484.556" style="enable-background:new 0 0 484.556 484.556;" xml:space="preserve">
<g>
	<path style="fill:#DCE6EB;" d="M427.729,484.556H56.827c-30.657,0-55.51-24.853-55.51-55.51V55.51C1.317,24.852,26.17,0,56.827,0
		h370.902c30.657,0,55.51,24.852,55.51,55.51v373.536C483.238,459.703,458.386,484.556,427.729,484.556z"/>
	<path style="fill:#2CB3CD;" d="M453.238,55.508v373.54c0,14.06-11.44,25.51-25.51,25.51h-370.9c-14.07,0-25.51-11.45-25.51-25.51
		V55.508c0-14.06,11.44-25.51,25.51-25.51h370.9C441.798,29.998,453.238,41.448,453.238,55.508z"/>
	<path style="fill:#60C8DD;" d="M453.238,55.508v373.54c0,14.06-11.44,25.51-25.51,25.51h-325.86c-14.07,0-25.51-11.45-25.51-25.51
		V55.508c0-14.06,11.44-25.51,25.51-25.51h325.86C441.798,29.998,453.238,41.448,453.238,55.508z"/>
	<path style="fill:#C8D2DC;" d="M386.968,219.968v234.59H97.588v-234.59c0-79.91,64.78-144.69,144.69-144.69
		c8.18,0,16.19,0.68,24,1.98c30.34,5.07,57.49,19.58,78.31,40.4C370.778,143.838,386.968,180.018,386.968,219.968z"/>
	<path style="fill:#DCE6EB;" d="M386.968,219.968v234.59h-241.38v-234.59c0-71.73,52.2-131.28,120.69-142.71
		c30.34,5.07,57.49,19.58,78.31,40.4C370.778,143.838,386.968,180.018,386.968,219.968z"/>
	<g>
		<path style="fill:#A2ABB8;" d="M242.277,114.595c-11.336,0.001-22.498,1.801-33.175,5.351c-3.931,1.307-6.058,5.553-4.751,9.483
			c1.307,3.931,5.554,6.056,9.483,4.751c9.149-3.042,18.719-4.584,28.444-4.585c49.83,0,90.37,40.539,90.37,90.369v144.891
			c0,4.143,3.357,7.5,7.5,7.5s7.5-3.357,7.5-7.5V219.964C347.648,161.864,300.379,114.595,242.277,114.595z"/>
		<path style="fill:#A2ABB8;" d="M340.148,384.358c-4.14,0-7.5,3.35-7.5,7.5v62.7h15v-62.7
			C347.648,387.708,344.288,384.358,340.148,384.358z M242.278,161.408c-32.29,0-58.55,26.27-58.55,58.56v234.59h15v-234.59
			c0-24.02,19.53-43.56,43.55-43.56c24.01,0,43.55,19.54,43.55,43.56v234.59h15v-234.59
			C300.828,187.678,274.568,161.408,242.278,161.408z M242.278,267.058c-4.14,0-7.5,3.35-7.5,7.5v180h15v-180
			C249.778,270.408,246.418,267.058,242.278,267.058z M193.558,134.778c-2.33-3.43-6.99-4.31-10.42-1.98
			c-28.95,19.69-46.23,52.28-46.23,87.17v234.59h15v-234.59c0-29.92,14.83-57.87,39.67-74.77
			C194.998,142.868,195.888,138.198,193.558,134.778z"/>
		<path style="fill:#A2ABB8;" d="M242.278,219.726c-4.142,0-7.5,3.357-7.5,7.5v20.329c0,4.143,3.358,7.5,7.5,7.5
			c4.143,0,7.5-3.357,7.5-7.5v-20.329C249.778,223.083,246.42,219.726,242.278,219.726z"/>
	</g>
	<rect x="31.318" y="291.088" style="fill:#F44545;" width="421.92" height="15"/>
	<rect x="31.318" y="291.088" style="fill:#C42D2D;" width="45.04" height="15"/>
</g>
<g>
</g>
<g>
</g>
<g>
</g>
<g>
</g>
<g>
</g>
<g>
</g>
<g>
</g>
<g>
</g>
<g>
</g>
<g>
</g>
<g>
</g>
<g>
</g>
<g>
</g>
<g>
</g>
<g>
</g>
</svg>
