<?xml version="1.0" encoding="iso-8859-1"?>
<!-- Generator: Adobe Illustrator 19.0.0, SVG Export Plug-In . SVG Version: 6.00 Build 0)  -->
<svg version="1.1" id="Layer_1" xmlns="http://www.w3.org/2000/svg" xmlns:xlink="http://www.w3.org/1999/xlink" x="0px" y="0px"
	 viewBox="0 0 490 490" style="enable-background:new 0 0 490 490;" xml:space="preserve">
<g>
	<path style="fill:#2CB3CD;" d="M490,58.65v372.7c0,10.61-8.68,19.29-19.29,19.29H19.29C8.68,450.64,0,441.96,0,431.35V58.65
		c0-10.61,8.68-19.29,19.29-19.29h451.42C481.32,39.36,490,48.04,490,58.65z"/>
	<path style="fill:#60C8DD;" d="M490,58.65v372.7c0,10.61-8.68,19.29-19.29,19.29H52.79c-10.61,0-19.29-8.68-19.29-19.29V58.65
		c0-10.61,8.68-19.29,19.29-19.29h417.92C481.32,39.36,490,48.04,490,58.65z"/>
	<path style="fill:#C8D2DC;" d="M449.75,244.6v57.48c0,3.22-2.61,5.83-5.83,5.83H330.56c-3.23,0-5.84-2.61-5.84-5.83v-56.53
		c0-34.3,27.25-62.93,61.55-63.45c5.53-0.09,10.91,0.55,16.03,1.82C429.52,190.68,449.75,215.33,449.75,244.6z"/>
	<path style="fill:#DCE6EB;" d="M449.75,244.6v57.48c0,3.22-2.61,5.83-5.83,5.83h-83.36c-3.23,0-5.84-2.61-5.84-5.83v-56.53
		c0-29.49,20.14-54.78,47.58-61.63C429.52,190.68,449.75,215.33,449.75,244.6z"/>
	<path style="fill:#A2ABB8;" d="M387.24,204.49c-22.12,0-40.11,18-40.11,40.11v63.31h15V244.6c0-13.84,11.26-25.11,25.11-25.11
		c13.84,0,25.11,11.27,25.11,25.11v63.31h15V244.6C427.35,222.49,409.35,204.49,387.24,204.49z M387.24,241.74
		c-4.15,0-7.5,3.36-7.5,7.5v58.67h15v-58.67C394.74,245.1,391.38,241.74,387.24,241.74z"/>
	<g>
		<path style="fill:#DCE6EB;" d="M333.86,130.255h-23.655c-4.143,0-7.5,3.357-7.5,7.5v23.046c0,4.143,3.357,7.5,7.5,7.5
			s7.5-3.357,7.5-7.5v-15.546h16.155c4.143,0,7.5-3.357,7.5-7.5S338.003,130.255,333.86,130.255z"/>
		<path style="fill:#DCE6EB;" d="M464.271,130.255h-23.655c-4.143,0-7.5,3.357-7.5,7.5s3.357,7.5,7.5,7.5h16.155v15.546
			c0,4.143,3.357,7.5,7.5,7.5s7.5-3.357,7.5-7.5v-23.046C471.771,133.612,468.413,130.255,464.271,130.255z"/>
		<path style="fill:#DCE6EB;" d="M464.271,321.699c-4.143,0-7.5,3.357-7.5,7.5v15.546h-16.155c-4.143,0-7.5,3.357-7.5,7.5
			s3.357,7.5,7.5,7.5h23.655c4.143,0,7.5-3.357,7.5-7.5v-23.046C471.771,325.057,468.413,321.699,464.271,321.699z"/>
		<path style="fill:#DCE6EB;" d="M333.86,344.745h-16.155v-15.546c0-4.143-3.357-7.5-7.5-7.5s-7.5,3.357-7.5,7.5v23.046
			c0,4.143,3.357,7.5,7.5,7.5h23.655c4.143,0,7.5-3.357,7.5-7.5S338.003,344.745,333.86,344.745z"/>
	</g>
	<path style="fill:#C8D2DC;" d="M280.51,93.85v37.49c0,2.57-2.1,4.67-4.67,4.67H38.17c-2.57,0-4.66-2.1-4.66-4.67V93.85
		c0-2.56,2.09-4.66,4.66-4.66h237.67C278.41,89.19,280.51,91.29,280.51,93.85z"/>
	<path style="fill:#DCE6EB;" d="M280.51,93.85v37.49c0,2.57-2.1,4.67-4.67,4.67H74.17c-2.57,0-4.66-2.1-4.66-4.67V93.85
		c0-2.56,2.09-4.66,4.66-4.66h201.67C278.41,89.19,280.51,91.29,280.51,93.85z"/>
	<path style="fill:#C8D2DC;" d="M115.84,166.19v78.21H33.51v-71.55c0-3.68,2.98-6.66,6.65-6.66H115.84z"/>
	<rect x="115.84" y="166.19" style="fill:#909BA6;" width="82.33" height="78.21"/>
	<path style="fill:#C8D2DC;" d="M280.51,172.85v71.55h-82.34v-78.21h75.68C277.53,166.19,280.51,169.17,280.51,172.85z"/>
	<rect x="33.51" y="244.4" style="fill:#909BA6;" width="82.33" height="78.2"/>
	<rect x="115.84" y="244.4" style="fill:#C8D2DC;" width="82.33" height="78.2"/>
	<rect x="198.17" y="244.4" style="fill:#909BA6;" width="82.34" height="78.2"/>
	<path style="fill:#C8D2DC;" d="M115.84,322.6v78.21H40.16c-3.67,0-6.65-2.98-6.65-6.66V322.6H115.84z"/>
	<rect x="115.84" y="322.6" style="fill:#909BA6;" width="82.33" height="78.21"/>
	<path style="fill:#C8D2DC;" d="M280.51,322.6v71.55c0,3.68-2.98,6.66-6.66,6.66h-75.68V322.6H280.51z"/>
	<path style="fill:#DCE6EB;" d="M115.84,166.19v48.03H33.51v-41.37c0-3.68,2.98-6.66,6.65-6.66H115.84z"/>
	<rect x="115.84" y="166.19" style="fill:#A2ABB8;" width="82.33" height="48.03"/>
	<path style="fill:#DCE6EB;" d="M280.51,172.85v41.37h-82.34v-48.03h75.68C277.53,166.19,280.51,169.17,280.51,172.85z"/>
	<rect x="33.51" y="244.4" style="fill:#A2ABB8;" width="82.33" height="48.02"/>
	<rect x="115.84" y="244.4" style="fill:#DCE6EB;" width="82.33" height="48.02"/>
	<rect x="198.17" y="244.4" style="fill:#A2ABB8;" width="82.34" height="48.02"/>
	<path style="fill:#DCE6EB;" d="M115.84,322.6v48.03H40.16c-3.67,0-6.65-2.98-6.65-6.66V322.6H115.84z"/>
	<rect x="115.84" y="322.6" style="fill:#A2ABB8;" width="82.33" height="48.03"/>
	<path style="fill:#DCE6EB;" d="M280.51,322.6v41.37c0,3.68-2.98,6.66-6.66,6.66h-75.68V322.6H280.51z"/>
</g>
<g>
</g>
<g>
</g>
<g>
</g>
<g>
</g>
<g>
</g>
<g>
</g>
<g>
</g>
<g>
</g>
<g>
</g>
<g>
</g>
<g>
</g>
<g>
</g>
<g>
</g>
<g>
</g>
<g>
</g>
</svg>
