<?xml version="1.0" encoding="iso-8859-1"?>
<!-- Generator: Adobe Illustrator 19.0.0, SVG Export Plug-In . SVG Version: 6.00 Build 0)  -->
<svg version="1.1" id="Layer_1" xmlns="http://www.w3.org/2000/svg" xmlns:xlink="http://www.w3.org/1999/xlink" x="0px" y="0px"
	 viewBox="0 0 491.54 491.54" style="enable-background:new 0 0 491.54 491.54;" xml:space="preserve">
<g>
	<path style="fill:#2CB3CD;" d="M172.603,491.54h-57.665c-1.719,0-3.113-1.394-3.113-3.113v-62.165h63.891v62.165
		C175.716,490.147,174.322,491.54,172.603,491.54z"/>
	<path style="fill:#2CB3CD;" d="M376.603,491.54h-57.665c-1.719,0-3.113-1.394-3.113-3.113v-62.165h63.891v62.165
		C379.716,490.147,378.322,491.54,376.603,491.54z"/>
	<path style="fill:#7CD2E3;" d="M427.03,18.76v417.91c0,10.36-8.4,18.76-18.76,18.76h-325c-10.36,0-18.76-8.4-18.76-18.76V18.76
		C64.51,8.4,72.91,0,83.27,0h325C418.63,0,427.03,8.4,427.03,18.76z"/>
	<path style="fill:#A6E0EC;" d="M427.03,18.76v417.91c0,10.36-8.4,18.76-18.76,18.76H109.53c-10.36,0-18.76-8.4-18.76-18.76V18.76
		C90.77,8.4,99.17,0,109.53,0h298.74C418.63,0,427.03,8.4,427.03,18.76z"/>
	<circle style="fill:#DCE6EB;" cx="245.77" cy="245.26" r="131.973"/>
	<path style="fill:#60C8DD;" d="M340.36,245.26c0,40.04-25.01,74.35-60.23,88.13c-10.65,4.17-22.24,6.46-34.36,6.46
		c-45.34,0-83.33-32.06-92.48-74.7c-1.38-6.41-2.11-13.07-2.11-19.89c0-52.16,42.43-94.59,94.59-94.59c2.56,0,5.09,0.1,7.6,0.31
		c46.96,3.74,84.36,41.94,86.86,89.25C340.32,241.9,340.36,243.57,340.36,245.26z"/>
	<path style="fill:#7CD2E3;" d="M340.36,245.26c0,40.04-25.01,74.35-60.23,88.13c-41.93-3.34-76.25-34.16-84.88-74.39
		c-1.38-6.41-2.11-13.07-2.11-19.89c0-40.04,25.01-74.35,60.23-88.13c46.96,3.74,84.36,41.94,86.86,89.25
		C340.32,241.9,340.36,243.57,340.36,245.26z"/>
	<path style="fill:#60C8DD;" d="M427.03,18.76v56.5H64.51v-56.5C64.51,8.4,72.91,0,83.27,0h325C418.63,0,427.03,8.4,427.03,18.76z"
		/>
	<path style="fill:#DCE6EB;" d="M222.116,52.01H104.77c-7.732,0-14-6.268-14-14v0c0-7.732,6.268-14,14-14h117.346
		c7.732,0,14,6.268,14,14v0C236.116,45.742,229.848,52.01,222.116,52.01z"/>
	<circle style="fill:#F44545;" cx="276.449" cy="38.01" r="15.667"/>
	<circle style="fill:#F44545;" cx="332.247" cy="38.01" r="15.667"/>
	<circle style="fill:#F44545;" cx="388.044" cy="38.01" r="15.667"/>
	<path style="fill:#2CB3CD;" d="M340.36,245.26c0,52.16-42.43,94.59-94.59,94.59c-45.34,0-83.33-32.06-92.48-74.7l54.49-21.64
		c17.88-7.1,38.04-5.55,54.63,4.19c9.74,5.72,20.66,8.59,31.6,8.59c9.83,0,19.69-2.32,28.7-6.99l17.52-9.07
		C340.32,241.9,340.36,243.57,340.36,245.26z"/>
	<path style="fill:#269AB1;" d="M388.27,432.26h-47.523c-4.694,0-8.5-3.806-8.5-8.5v-20c0-4.694,3.806-8.5,8.5-8.5h47.523
		c4.694,0,8.5,3.806,8.5,8.5v20C396.77,428.454,392.965,432.26,388.27,432.26z"/>
	<path style="fill:#2CB3CD;" d="M109.53,0C99.17,0,90.77,8.4,90.77,18.76v56.5H64.51v-56.5C64.51,8.4,72.91,0,83.27,0H109.53z"/>
	<path style="fill:#269AB1;" d="M193.67,249.11l-40.38,16.04c12.156,56.65,72.587,89.483,126.84,68.24
		C234.498,329.755,198.33,293.718,193.67,249.11z"/>
</g>
<g>
</g>
<g>
</g>
<g>
</g>
<g>
</g>
<g>
</g>
<g>
</g>
<g>
</g>
<g>
</g>
<g>
</g>
<g>
</g>
<g>
</g>
<g>
</g>
<g>
</g>
<g>
</g>
<g>
</g>
</svg>
