<?xml version="1.0" encoding="iso-8859-1"?>
<!-- Generator: Adobe Illustrator 19.0.0, SVG Export Plug-In . SVG Version: 6.00 Build 0)  -->
<svg version="1.1" id="Layer_1" xmlns="http://www.w3.org/2000/svg" xmlns:xlink="http://www.w3.org/1999/xlink" x="0px" y="0px"
	 viewBox="0 0 493.6 493.6" style="enable-background:new 0 0 493.6 493.6;" xml:space="preserve">
<g>
	<path style="fill:#C2EAF2;" d="M451.631,81.25v90.1c0,1.63-1.32,2.95-2.94,2.95h-56.21c-1.63,0-2.95-1.32-2.95-2.95v-90.1
		c0-1.63,1.32-2.95,2.95-2.95h56.21C450.311,78.3,451.631,79.62,451.631,81.25z"/>
	<g>
		<path style="fill:#DEF4F8;" d="M416.035,456.315H284.677c-8.188,0-14.825-6.637-14.825-14.825s6.637-14.825,14.825-14.825h120.981
			V196.895c0-8.188,6.637-14.825,14.825-14.825c8.188,0,14.825,6.637,14.825,14.825v240.148
			C435.307,447.67,426.662,456.315,416.035,456.315z"/>
	</g>
	<path style="fill:#60C8DD;" d="M299.589,25.92v441.76c0,14.32-11.61,25.92-25.93,25.92H60.419c-14.32,0-25.92-11.6-25.92-25.92
		V25.92C34.499,11.6,46.099,0,60.419,0h213.24C287.979,0,299.589,11.6,299.589,25.92z"/>
	<path style="fill:#2CB3CD;" d="M239.044,0l-6.63,38.46c-0.5,2.91-3.03,5.04-5.98,5.04h-117.89c-2.91,0-5.4-2.06-5.96-4.91L95.044,0
		H239.044z"/>
	<path style="fill:#C2EAF2;" d="M272.544,81.68v372.24c0,7.11-5.77,12.88-12.88,12.88H74.424c-7.11,0-12.88-5.77-12.88-12.88V81.68
		c0-7.11,5.77-12.88,12.88-12.88h185.24C266.774,68.8,272.544,74.57,272.544,81.68z"/>
	<path style="fill:#DEF4F8;" d="M272.544,81.68v372.24c0,7.11-5.77,12.88-12.88,12.88h-153.08c-7.11,0-12.88-5.77-12.88-12.88V81.68
		c0-7.11,5.77-12.88,12.88-12.88h153.08C266.774,68.8,272.544,74.57,272.544,81.68z"/>
	<g>
		<circle style="fill:#269AB1;" cx="206.707" cy="22.05" r="7.5"/>
		<path style="fill:#269AB1;" d="M174.79,13.91h-49.784c-4.142,0-7.5,3.358-7.5,7.5s3.358,7.5,7.5,7.5h49.784
			c4.142,0,7.5-3.358,7.5-7.5S178.932,13.91,174.79,13.91z"/>
	</g>
	<path style="fill:#1AB975;" d="M205.482,405.793h-76.876c-9.941,0-17.999-8.058-17.999-17.999v-205.49
		c0-9.941,8.058-17.999,17.999-17.999h76.876c9.941,0,17.999,8.058,17.999,17.999v205.49
		C223.481,397.735,215.423,405.793,205.482,405.793z"/>
	<path style="fill:#1ED688;" d="M201.479,164.305h-68.87v-20.167c0-7.915,6.416-14.332,14.332-14.332h40.207
		c7.915,0,14.332,6.416,14.332,14.332V164.305z"/>
	<path style="fill:#269AB1;" d="M459.101,124.61v89.43c0,1.82-1.47,3.29-3.28,3.29h-70.47c-1.81,0-3.28-1.47-3.28-3.29v-89.43
		c0-1.81,1.47-3.28,3.28-3.28h70.47C457.631,121.33,459.101,122.8,459.101,124.61z"/>
	<path style="fill:#DEF4F8;" d="M451.631,81.25v90.1c0,1.63-1.32,2.95-2.94,2.95h-36.13c-1.63,0-2.95-1.32-2.95-2.95v-90.1
		c0-1.63,1.32-2.95,2.95-2.95h36.13C450.311,78.3,451.631,79.62,451.631,81.25z"/>
	<path style="fill:#2CB3CD;" d="M459.101,124.61v89.43c0,1.82-1.47,3.29-3.28,3.29h-50.39c-1.81,0-3.28-1.47-3.28-3.29v-89.43
		c0-1.81,1.47-3.28,3.28-3.28h50.39C457.631,121.33,459.101,122.8,459.101,124.61z"/>
	<path style="fill:#FFC14F;" d="M164.94,210.548h19.556c3.942,0,6.611,4.017,5.084,7.651l-19.377,48.334
		c-1.527,3.634,1.141,7.651,5.084,7.651h26.099c4.267,0,6.917,4.638,4.751,8.314l-41.191,69.886
		c-3.209,5.444-11.564,2.09-10.119-4.061l10.568-44.976c0.813-3.461-1.813-6.776-5.368-6.776h-27.326
		c-3.977,0-6.646-4.082-5.052-7.726l32.239-74.994C160.767,211.845,162.749,210.548,164.94,210.548z"/>
</g>
<g>
</g>
<g>
</g>
<g>
</g>
<g>
</g>
<g>
</g>
<g>
</g>
<g>
</g>
<g>
</g>
<g>
</g>
<g>
</g>
<g>
</g>
<g>
</g>
<g>
</g>
<g>
</g>
<g>
</g>
</svg>
