<?xml version="1.0" encoding="iso-8859-1"?>
<!-- Generator: Adobe Illustrator 19.0.0, SVG Export Plug-In . SVG Version: 6.00 Build 0)  -->
<svg version="1.1" id="Layer_1" xmlns="http://www.w3.org/2000/svg" xmlns:xlink="http://www.w3.org/1999/xlink" x="0px" y="0px"
	 viewBox="0 0 492.725 492.725" style="enable-background:new 0 0 492.725 492.725;" xml:space="preserve">
<g>
	<path style="fill:#DEF4F8;" d="M440.922,451.024c-0.017,0-0.031,0-0.047,0c-0.005,0-0.013,0-0.018,0c-0.098,0-0.194,0-0.281,0
		c0.067,0,0.129,0,0.18,0c-0.077,0-0.183,0-0.324,0c0.042,0,0.082,0,0.121,0c-0.283,0-0.505,0-0.684,0c-0.011,0-0.022,0-0.034,0
		c-0.011,0-0.022,0-0.032,0c-0.059,0-0.114,0-0.179,0c-0.065,0-0.14,0-0.211,0c0.024,0,0.052,0,0.082,0c-0.053,0-0.099,0-0.13,0
		c0.003,0,0.005,0,0.008,0c-3.518-0.001-14.125-0.006-42.483-0.018c5.6,0,10.14-4.54,10.14-10.14v-21.422
		c0-5.6-4.54-10.14-10.14-10.14h-23.826V172.772l44.165,44.252c5.689,5.689,14.914,5.689,20.603,0l5.475-5.475
		c5.689-5.69,5.689-14.914,0-20.604L256.973,4.278c-5.692-5.692-15.034-5.715-20.748,0L49.419,190.945
		c-5.69,5.689-5.69,14.914,0,20.604l5.475,5.475c5.69,5.69,14.914,5.69,20.603,0l44.165-44.13v236.411H95.837
		c-5.6,0-10.14,4.54-10.14,10.14v21.422c0,5.6,4.54,10.14,10.14,10.14c-28.358,0.012-38.965,0.016-42.483,0.018
		c0.003,0,0.005,0,0.008,0c-0.031,0-0.077,0-0.13,0c0.03,0,0.057,0,0.082,0c-0.071,0-0.146,0-0.211,0c-0.065,0-0.12,0-0.179,0
		c-0.012,0-0.02,0-0.032,0c-0.011,0-0.023,0-0.034,0c-0.179,0-0.401,0-0.684,0c0.039,0,0.079,0,0.121,0c-0.141,0-0.247,0-0.325,0
		c0.051,0,0.113,0,0.18,0c-0.088,0-0.183,0-0.282,0c-0.006,0-0.013,0-0.018,0c-0.017,0-0.031,0-0.048,0
		c-5.6,0-10.139,4.54-10.139,10.139v21.422c0,5.6,4.54,10.139,10.139,10.139h389.12c5.6,0,10.139-4.54,10.139-10.139v-21.422
		C451.062,455.564,446.522,451.024,440.922,451.024z"/>
	<polygon style="fill:#C2EAF2;" points="373.063,139.772 373.063,492.571 119.663,492.571 119.663,139.772 246.363,23.052 
		266.383,41.493 	"/>
	<path style="fill:#DEF4F8;" d="M373.063,139.772v352.799h-216.81V179.233c0-14.56,5.62-28.57,15.69-39.09l94.44-98.65
		L373.063,139.772z"/>
	<path style="fill:#60C8DD;" d="M443.306,190.945L256.973,4.278c-5.692-5.692-15.034-5.715-20.748-0.001L49.419,190.945
		c-5.689,5.689-5.689,14.914,0,20.604l5.475,5.475c5.689,5.689,14.914,5.689,20.603,0L246.599,46.06l170.629,170.964
		c5.689,5.689,14.914,5.689,20.603,0l5.475-5.475C448.995,205.859,448.995,196.634,443.306,190.945z"/>
	<path style="fill:#44BFD7;" d="M396.888,451.005H95.837c-5.6,0-10.139-4.54-10.139-10.139v-21.422c0-5.6,4.54-10.139,10.139-10.139
		h301.051c5.6,0,10.139,4.54,10.139,10.139v21.422C407.028,446.466,402.488,451.005,396.888,451.005z"/>
	<path style="fill:#2CB3CD;" d="M51.803,492.725h389.12c5.6,0,10.139-4.54,10.139-10.139v-21.422c0-5.6-4.54-10.139-10.139-10.139
		H51.803c-5.6,0-10.139,4.54-10.139,10.139v21.422C41.663,488.185,46.203,492.725,51.803,492.725z"/>
	<path style="fill:#1AB975;" d="M284.801,385.343h-76.876c-9.941,0-17.999-8.058-17.999-17.999v-205.49
		c0-9.941,8.058-17.999,17.999-17.999h76.876c9.941,0,17.999,8.058,17.999,17.999v205.49
		C302.8,377.285,294.741,385.343,284.801,385.343z"/>
	<path style="fill:#1ED688;" d="M280.797,143.855h-68.87v-20.167c0-7.915,6.416-14.332,14.332-14.332h40.207
		c7.915,0,14.332,6.416,14.332,14.332V143.855z"/>
	<path style="fill:#FFC14F;" d="M244.258,190.098h19.556c3.942,0,6.611,4.017,5.084,7.651l-19.377,48.334
		c-1.527,3.634,1.141,7.651,5.084,7.651h26.099c4.267,0,6.917,4.638,4.751,8.314l-41.191,69.886
		c-3.209,5.444-11.564,2.09-10.119-4.061l10.568-44.976c0.813-3.461-1.813-6.776-5.368-6.776h-27.326
		c-3.977,0-6.646-4.082-5.052-7.726l32.239-74.994C240.085,191.395,242.068,190.098,244.258,190.098z"/>
</g>
<g>
</g>
<g>
</g>
<g>
</g>
<g>
</g>
<g>
</g>
<g>
</g>
<g>
</g>
<g>
</g>
<g>
</g>
<g>
</g>
<g>
</g>
<g>
</g>
<g>
</g>
<g>
</g>
<g>
</g>
</svg>
