<?xml version="1.0" encoding="iso-8859-1"?>
<!-- Generator: Adobe Illustrator 19.0.0, SVG Export Plug-In . SVG Version: 6.00 Build 0)  -->
<svg version="1.1" id="Layer_1" xmlns="http://www.w3.org/2000/svg" xmlns:xlink="http://www.w3.org/1999/xlink" x="0px" y="0px"
	 viewBox="0 0 493.88 493.88" style="enable-background:new 0 0 493.88 493.88;" xml:space="preserve">
<g>
	<g>
		<path style="fill:#909BA6;" d="M67.811,437.692H48.963v-83.504c0-4.143-3.358-7.5-7.5-7.5s-7.5,3.357-7.5,7.5v83.504H15.115
			c-4.142,0-7.5,3.357-7.5,7.5s3.358,7.5,7.5,7.5h52.696c4.142,0,7.5-3.357,7.5-7.5S71.953,437.692,67.811,437.692z"/>
		<path style="fill:#909BA6;" d="M478.765,437.692h-18.848v-83.504c0-4.143-3.357-7.5-7.5-7.5s-7.5,3.357-7.5,7.5v83.504h-18.849
			c-4.143,0-7.5,3.357-7.5,7.5s3.357,7.5,7.5,7.5h52.696c4.143,0,7.5-3.357,7.5-7.5S482.908,437.692,478.765,437.692z"/>
	</g>
	<g>
		<path style="fill:#C8D2DC;" d="M174.87,445.665h-21c-2.117,0-3.833-1.716-3.833-3.833V383.31c0-2.117,1.716-3.833,3.833-3.833h21
			c2.117,0,3.833,1.716,3.833,3.833v58.522C178.704,443.949,176.987,445.665,174.87,445.665z"/>
		<g>
			<path style="fill:#C8D2DC;" d="M340.01,445.665h-21c-2.117,0-3.833-1.716-3.833-3.833V383.31c0-2.117,1.716-3.833,3.833-3.833h21
				c2.117,0,3.833,1.716,3.833,3.833v58.522C343.843,443.949,342.127,445.665,340.01,445.665z"/>
		</g>
	</g>
	<path style="fill:#DCE6EB;" d="M396.878,398.646H97.002c-11.78,0-21.33-9.55-21.33-21.33V166.679c0-11.78,9.55-21.33,21.33-21.33
		h299.876c11.78,0,21.33,9.55,21.33,21.33v210.637C418.208,389.096,408.658,398.646,396.878,398.646z"/>
	<path style="fill:#4E5A61;" d="M392.21,176.618v190.76c0,2.91-2.36,5.27-5.27,5.27h-280c-2.91,0-5.27-2.36-5.27-5.27v-190.76
		c0-2.91,2.36-5.27,5.27-5.27h280C389.85,171.348,392.21,173.708,392.21,176.618z"/>
	<path style="fill:#5F6C75;" d="M392.21,176.618v190.76c0,2.91-2.36,5.27-5.27,5.27H142.27c-2.91,0-5.26-2.36-5.26-5.27v-190.76
		c0-2.91,2.35-5.27,5.26-5.27h244.67C389.85,171.348,392.21,173.708,392.21,176.618z"/>
	<path style="fill:#4E5A61;" d="M82.93,82.658v244.49c0,16.93-10.15,31.5-24.7,37.94c-5.13,2.27-10.8,3.53-16.77,3.53
		c-22.9,0-41.46-18.57-41.46-41.47V82.658c0-11.45,4.64-21.82,12.14-29.32c7.5-7.51,17.87-12.15,29.32-12.15
		c5.97,0,11.64,1.26,16.77,3.53C72.78,51.158,82.93,65.728,82.93,82.658z"/>
	<path style="fill:#4E5A61;" d="M493.88,82.658v244.49c0,16.93-10.15,31.5-24.69,37.94c-5.13,2.27-10.8,3.53-16.77,3.53
		c-22.9,0-41.47-18.57-41.47-41.47V82.658c0-22.9,18.57-41.47,41.47-41.47c5.97,0,11.64,1.26,16.77,3.53
		c4.71,2.09,8.96,5.02,12.55,8.62C489.24,60.838,493.88,71.208,493.88,82.658z"/>
	<path style="fill:#5F6C75;" d="M82.93,82.658v244.49c0,16.93-10.15,31.5-24.7,37.94c-14.55-6.44-24.71-21-24.71-37.94V82.658
		c0-11.45,4.64-21.82,12.15-29.32c3.59-3.6,7.85-6.54,12.56-8.62C72.78,51.158,82.93,65.728,82.93,82.658z"/>
	<path style="fill:#5F6C75;" d="M493.88,82.658v244.49c0,16.93-10.15,31.5-24.69,37.94c-14.56-6.44-24.71-21-24.71-37.94V82.658
		c0-16.94,10.15-31.5,24.71-37.94c4.71,2.09,8.96,5.02,12.55,8.62C489.24,60.838,493.88,71.208,493.88,82.658z"/>
	<circle style="fill:#909BA6;" cx="452.417" cy="87.343" r="20.584"/>
	<circle style="fill:#909BA6;" cx="452.417" cy="165.715" r="20.584"/>
	<circle style="fill:#909BA6;" cx="452.417" cy="244.088" r="20.584"/>
	<circle style="fill:#909BA6;" cx="452.417" cy="322.46" r="20.584"/>
	<circle style="fill:#909BA6;" cx="41.463" cy="87.343" r="20.584"/>
	<circle style="fill:#909BA6;" cx="41.463" cy="165.715" r="20.584"/>
	<circle style="fill:#909BA6;" cx="41.463" cy="244.088" r="20.584"/>
	<circle style="fill:#909BA6;" cx="41.463" cy="322.46" r="20.584"/>
</g>
<g>
</g>
<g>
</g>
<g>
</g>
<g>
</g>
<g>
</g>
<g>
</g>
<g>
</g>
<g>
</g>
<g>
</g>
<g>
</g>
<g>
</g>
<g>
</g>
<g>
</g>
<g>
</g>
<g>
</g>
</svg>
