<?xml version="1.0" encoding="iso-8859-1"?>
<!-- Generator: Adobe Illustrator 19.0.0, SVG Export Plug-In . SVG Version: 6.00 Build 0)  -->
<svg version="1.1" id="Layer_1" xmlns="http://www.w3.org/2000/svg" xmlns:xlink="http://www.w3.org/1999/xlink" x="0px" y="0px"
	 viewBox="0 0 492.725 492.725" style="enable-background:new 0 0 492.725 492.725;" xml:space="preserve">
<g>
	<path style="fill:#DEF4F8;" d="M440.922,451.024c-0.017,0-0.031,0-0.047,0c-0.005,0-0.013,0-0.018,0c-0.098,0-0.194,0-0.281,0
		c0.067,0,0.129,0,0.18,0c-0.077,0-0.183,0-0.324,0c0.042,0,0.082,0,0.121,0c-0.283,0-0.505,0-0.684,0c-0.011,0-0.022,0-0.034,0
		c-0.011,0-0.022,0-0.032,0c-0.059,0-0.114,0-0.179,0c-0.065,0-0.14,0-0.211,0c0.024,0,0.052,0,0.082,0c-0.053,0-0.099,0-0.13,0
		c0.003,0,0.005,0,0.008,0c-3.518-0.001-14.125-0.006-42.483-0.018c5.6,0,10.14-4.54,10.14-10.14v-21.422
		c0-5.6-4.54-10.14-10.14-10.14h-23.826V172.772l44.165,44.252c5.689,5.689,14.914,5.689,20.603,0l5.475-5.475
		c5.689-5.69,5.689-14.914,0-20.604L256.973,4.278c-5.692-5.692-15.034-5.715-20.748,0L49.419,190.945
		c-5.69,5.689-5.69,14.914,0,20.604l5.475,5.475c5.69,5.69,14.914,5.69,20.603,0l44.165-44.13v236.411H95.837
		c-5.6,0-10.14,4.54-10.14,10.14v21.422c0,5.6,4.54,10.14,10.14,10.14c-28.358,0.012-38.965,0.016-42.483,0.018
		c0.003,0,0.005,0,0.008,0c-0.031,0-0.077,0-0.13,0c0.03,0,0.057,0,0.082,0c-0.071,0-0.146,0-0.211,0c-0.065,0-0.12,0-0.179,0
		c-0.012,0-0.02,0-0.032,0c-0.011,0-0.023,0-0.034,0c-0.179,0-0.401,0-0.684,0c0.039,0,0.079,0,0.121,0c-0.141,0-0.247,0-0.325,0
		c0.051,0,0.113,0,0.18,0c-0.088,0-0.183,0-0.282,0c-0.006,0-0.013,0-0.018,0c-0.017,0-0.031,0-0.048,0
		c-5.6,0-10.139,4.54-10.139,10.139v21.422c0,5.6,4.54,10.139,10.139,10.139h389.12c5.6,0,10.139-4.54,10.139-10.139v-21.422
		C451.062,455.564,446.522,451.024,440.922,451.024z"/>
	<polygon style="fill:#C2EAF2;" points="373.063,139.772 373.063,492.571 119.663,492.571 119.663,139.772 246.363,23.052 
		266.383,41.493 	"/>
	<path style="fill:#DEF4F8;" d="M373.063,139.772v352.799h-216.81V179.233c0-14.56,5.62-28.57,15.69-39.09l94.44-98.65
		L373.063,139.772z"/>
	<path style="fill:#60C8DD;" d="M443.306,190.945L256.973,4.278c-5.692-5.692-15.034-5.715-20.748-0.001L49.419,190.945
		c-5.689,5.689-5.689,14.914,0,20.604l5.475,5.475c5.689,5.689,14.914,5.689,20.603,0L246.599,46.06l170.629,170.964
		c5.689,5.689,14.914,5.689,20.603,0l5.475-5.475C448.995,205.859,448.995,196.634,443.306,190.945z"/>
	<path style="fill:#44BFD7;" d="M396.888,451.005H95.837c-5.6,0-10.139-4.54-10.139-10.139v-21.422c0-5.6,4.54-10.139,10.139-10.139
		h301.051c5.6,0,10.139,4.54,10.139,10.139v21.422C407.028,446.466,402.488,451.005,396.888,451.005z"/>
	<path style="fill:#2CB3CD;" d="M51.803,492.725h389.12c5.6,0,10.139-4.54,10.139-10.139v-21.422c0-5.6-4.54-10.139-10.139-10.139
		H51.803c-5.6,0-10.139,4.54-10.139,10.139v21.422C41.663,488.185,46.203,492.725,51.803,492.725z"/>
	<g>
		<path style="fill:#A2ABB8;" d="M195.945,153.635c-4.143,0-7.5,3.357-7.5,7.5v30.886c0,4.143,3.357,7.5,7.5,7.5s7.5-3.357,7.5-7.5
			v-30.886C203.445,156.992,200.087,153.635,195.945,153.635z"/>
		<path style="fill:#A2ABB8;" d="M229.557,153.635c-4.143,0-7.5,3.357-7.5,7.5v30.886c0,4.143,3.357,7.5,7.5,7.5s7.5-3.357,7.5-7.5
			v-30.886C237.057,156.992,233.699,153.635,229.557,153.635z"/>
		<path style="fill:#A2ABB8;" d="M263.168,153.635c-4.143,0-7.5,3.357-7.5,7.5v30.886c0,4.143,3.357,7.5,7.5,7.5s7.5-3.357,7.5-7.5
			v-30.886C270.668,156.992,267.311,153.635,263.168,153.635z"/>
		<path style="fill:#A2ABB8;" d="M296.781,153.635c-4.143,0-7.5,3.357-7.5,7.5v30.886c0,4.143,3.357,7.5,7.5,7.5s7.5-3.357,7.5-7.5
			v-30.886C304.281,156.992,300.923,153.635,296.781,153.635z"/>
		<path style="fill:#A2ABB8;" d="M195.945,330.961c-4.143,0-7.5,3.357-7.5,7.5v30.885c0,4.143,3.357,7.5,7.5,7.5s7.5-3.357,7.5-7.5
			v-30.885C203.445,334.319,200.087,330.961,195.945,330.961z"/>
		<path style="fill:#A2ABB8;" d="M229.557,330.961c-4.143,0-7.5,3.357-7.5,7.5v30.885c0,4.143,3.357,7.5,7.5,7.5s7.5-3.357,7.5-7.5
			v-30.885C237.057,334.319,233.699,330.961,229.557,330.961z"/>
		<path style="fill:#A2ABB8;" d="M263.168,330.961c-4.143,0-7.5,3.357-7.5,7.5v30.885c0,4.143,3.357,7.5,7.5,7.5s7.5-3.357,7.5-7.5
			v-30.885C270.668,334.319,267.311,330.961,263.168,330.961z"/>
		<path style="fill:#A2ABB8;" d="M296.781,330.961c-4.143,0-7.5,3.357-7.5,7.5v30.885c0,4.143,3.357,7.5,7.5,7.5s7.5-3.357,7.5-7.5
			v-30.885C304.281,334.319,300.923,330.961,296.781,330.961z"/>
		<path style="fill:#A2ABB8;" d="M173.143,308.158h-30.886c-4.143,0-7.5,3.357-7.5,7.5s3.357,7.5,7.5,7.5h30.886
			c4.143,0,7.5-3.357,7.5-7.5S177.285,308.158,173.143,308.158z"/>
		<path style="fill:#A2ABB8;" d="M173.143,274.546h-30.886c-4.143,0-7.5,3.357-7.5,7.5s3.357,7.5,7.5,7.5h30.886
			c4.143,0,7.5-3.357,7.5-7.5S177.285,274.546,173.143,274.546z"/>
		<path style="fill:#A2ABB8;" d="M173.143,240.935h-30.886c-4.143,0-7.5,3.357-7.5,7.5s3.357,7.5,7.5,7.5h30.886
			c4.143,0,7.5-3.357,7.5-7.5S177.285,240.935,173.143,240.935z"/>
		<path style="fill:#A2ABB8;" d="M173.143,207.322h-30.886c-4.143,0-7.5,3.357-7.5,7.5s3.357,7.5,7.5,7.5h30.886
			c4.143,0,7.5-3.357,7.5-7.5S177.285,207.322,173.143,207.322z"/>
		<path style="fill:#A2ABB8;" d="M350.468,308.158h-30.886c-4.143,0-7.5,3.357-7.5,7.5s3.357,7.5,7.5,7.5h30.886
			c4.143,0,7.5-3.357,7.5-7.5S354.611,308.158,350.468,308.158z"/>
		<path style="fill:#A2ABB8;" d="M350.468,274.546h-30.886c-4.143,0-7.5,3.357-7.5,7.5s3.357,7.5,7.5,7.5h30.886
			c4.143,0,7.5-3.357,7.5-7.5S354.611,274.546,350.468,274.546z"/>
		<path style="fill:#A2ABB8;" d="M350.468,240.935h-30.886c-4.143,0-7.5,3.357-7.5,7.5s3.357,7.5,7.5,7.5h30.886
			c4.143,0,7.5-3.357,7.5-7.5S354.611,240.935,350.468,240.935z"/>
		<path style="fill:#A2ABB8;" d="M319.582,222.322h30.886c4.143,0,7.5-3.357,7.5-7.5s-3.357-7.5-7.5-7.5h-30.886
			c-4.143,0-7.5,3.357-7.5,7.5S315.44,222.322,319.582,222.322z"/>
	</g>
	<path style="fill:#C8D2DC;" d="M316.859,338.461H175.866c-1.504,0-2.724-1.219-2.724-2.724V194.744
		c0-1.504,1.219-2.724,2.724-2.724h140.993c1.504,0,2.724,1.219,2.724,2.724v140.993
		C319.583,337.241,318.363,338.461,316.859,338.461z"/>
	<path style="fill:#A2ABB8;" d="M202.825,303.778v-77.074c0-2.761,2.239-5,5-5H284.9c2.761,0,5,2.239,5,5v77.074
		c0,2.761-2.239,5-5,5h-77.074C205.064,308.778,202.825,306.539,202.825,303.778z"/>
</g>
<g>
</g>
<g>
</g>
<g>
</g>
<g>
</g>
<g>
</g>
<g>
</g>
<g>
</g>
<g>
</g>
<g>
</g>
<g>
</g>
<g>
</g>
<g>
</g>
<g>
</g>
<g>
</g>
<g>
</g>
</svg>
