<?xml version="1.0" encoding="iso-8859-1"?>
<!-- Generator: Adobe Illustrator 19.0.0, SVG Export Plug-In . SVG Version: 6.00 Build 0)  -->
<svg version="1.1" id="Layer_1" xmlns="http://www.w3.org/2000/svg" xmlns:xlink="http://www.w3.org/1999/xlink" x="0px" y="0px"
	 viewBox="0 0 493.815 493.815" style="enable-background:new 0 0 493.815 493.815;" xml:space="preserve">
<g>
	<path style="fill:#DEF4F8;" d="M246.907,0c65.951,0,127.955,25.683,174.589,72.317c46.635,46.635,72.318,108.639,72.318,174.59
		s-25.683,127.955-72.317,174.589c-46.636,46.635-108.64,72.318-174.59,72.318s-127.955-25.683-174.589-72.317
		C25.683,374.862,0,312.858,0,246.907c0-65.951,25.683-127.955,72.317-174.589C118.953,25.683,180.957,0,246.907,0z"/>
	<path style="fill:#44BFD7;" d="M460.267,246.907c0,56.99-22.2,110.57-62.49,150.87c-32.85,32.85-74.53,53.67-119.69,60.24
		c-10.23,1.49-20.65,2.25-31.18,2.25c-56.99,0-110.57-22.2-150.87-62.49c-40.29-40.3-62.49-93.88-62.49-150.87
		s22.2-110.57,62.49-150.87c40.3-40.29,93.88-62.49,150.87-62.49c10.53,0,20.95,0.76,31.18,2.25
		c45.16,6.57,86.84,27.39,119.69,60.24C438.067,136.337,460.267,189.917,460.267,246.907z"/>
	<path style="fill:#7CD2E3;" d="M460.267,246.907c0,56.99-22.2,110.57-62.49,150.87c-32.85,32.85-74.53,53.67-119.69,60.24
		c-45.16-6.57-86.84-27.39-119.7-60.24c-40.3-40.3-62.49-93.88-62.49-150.87s22.19-110.57,62.49-150.87
		c32.86-32.85,74.54-53.67,119.7-60.24c45.16,6.57,86.84,27.39,119.69,60.24C438.067,136.337,460.267,189.917,460.267,246.907z"/>
	<circle style="fill:#2CB3CD;" cx="246.907" cy="246.907" r="92.245"/>
	<path style="fill:#269AB1;" d="M297.157,246.907c0,20.94-12.87,38.93-31.12,46.47c-5.9,2.44-12.36,3.78-19.13,3.78
		c-27.71,0-50.25-22.54-50.25-50.25s22.54-50.25,50.25-50.25c6.77,0,13.23,1.34,19.13,3.78
		C284.287,207.978,297.157,225.968,297.157,246.907z"/>
	<g>
		<path style="fill:#DEF4F8;" d="M246.907,61.934c-6.627,0-11.999,5.372-11.999,11.999v44.011c0,6.627,5.372,12,11.999,12
			s11.999-5.372,11.999-12V73.933C258.907,67.306,253.535,61.934,246.907,61.934z"/>
		<path style="fill:#DEF4F8;" d="M141.222,172.034l-38.115-22.006c-5.739-3.313-13.078-1.347-16.392,4.392
			c-3.313,5.739-1.347,13.078,4.392,16.391l38.115,22.006c5.739,3.313,13.078,1.347,16.392-4.392l0,0
			C148.928,182.687,146.961,175.348,141.222,172.034z"/>
		<path style="fill:#DEF4F8;" d="M129.223,300.997l-38.115,22.006c-5.739,3.314-7.706,10.652-4.392,16.392l0,0
			c3.314,5.739,10.652,7.706,16.392,4.392l38.115-22.006c5.739-3.314,7.706-10.652,4.392-16.391
			C142.301,299.65,134.962,297.684,129.223,300.997z"/>
		<path style="fill:#DEF4F8;" d="M246.907,363.871c-6.627,0-11.999,5.372-11.999,11.999v44.011c0,6.627,5.372,12,11.999,12
			s11.999-5.372,11.999-12V375.87C258.907,369.243,253.535,363.871,246.907,363.871z"/>
		<path style="fill:#DEF4F8;" d="M402.707,323.003l-38.115-22.006c-5.739-3.313-13.078-1.347-16.392,4.392
			c-3.313,5.739-1.347,13.078,4.392,16.391l38.115,22.006c5.739,3.313,13.078,1.347,16.392-4.392l0,0
			C410.413,333.655,408.447,326.316,402.707,323.003z"/>
		<path style="fill:#DEF4F8;" d="M348.201,188.426c3.314,5.739,10.652,7.706,16.392,4.392l38.115-22.006
			c5.739-3.314,7.706-10.652,4.392-16.391s-10.652-7.706-16.392-4.392l-38.115,22.006
			C346.854,175.348,344.887,182.687,348.201,188.426L348.201,188.426z"/>
	</g>
</g>
<g>
</g>
<g>
</g>
<g>
</g>
<g>
</g>
<g>
</g>
<g>
</g>
<g>
</g>
<g>
</g>
<g>
</g>
<g>
</g>
<g>
</g>
<g>
</g>
<g>
</g>
<g>
</g>
<g>
</g>
</svg>
