<?xml version="1.0" encoding="iso-8859-1"?>
<!-- Generator: Adobe Illustrator 19.0.0, SVG Export Plug-In . SVG Version: 6.00 Build 0)  -->
<svg version="1.1" id="Layer_1" xmlns="http://www.w3.org/2000/svg" xmlns:xlink="http://www.w3.org/1999/xlink" x="0px" y="0px"
	 viewBox="0 0 494.32 494.32" style="enable-background:new 0 0 494.32 494.32;" xml:space="preserve">
<g>
	<path style="fill:#954C35;" d="M3.002,492.805h488.316c1.657,0,3-1.343,3-3V4.515c0-1.657-1.343-3-3-3H3.002c-1.657,0-3,1.343-3,3
		l0,485.289C0.002,491.461,1.345,492.805,3.002,492.805z"/>
	<path style="fill:#44BFD7;" d="M465.03,334.67v92.98c0,2.76-2.24,5-5,5H34.29c-2.76,0-5-2.24-5-5v-92.98H465.03z"/>
	<path style="fill:#7CD2E3;" d="M465.03,334.67v92.98c0,2.76-2.24,5-5,5H63.75c-2.76,0-5-2.24-5-5v-92.98H465.03z"/>
	<g>
		<path style="fill:#DEF4F8;" d="M338.923,368.833c-3.231-2.592-7.952-2.072-10.543,1.158l-28.797,35.905
			c-2.592,3.231-2.073,7.951,1.158,10.543c1.384,1.11,3.041,1.649,4.688,1.649c2.197,0,4.375-0.961,5.855-2.808l28.797-35.905
			C342.673,376.144,342.155,371.425,338.923,368.833z"/>
		<path style="fill:#DEF4F8;" d="M380.816,350.881c-3.231-2.592-7.951-2.072-10.543,1.158l-28.797,35.905
			c-2.592,3.231-2.073,7.951,1.158,10.543c1.384,1.11,3.041,1.649,4.688,1.649c2.197,0,4.374-0.961,5.855-2.808l28.797-35.905
			C384.566,358.192,384.048,353.472,380.816,350.881z"/>
		<path style="fill:#DEF4F8;" d="M147.993,355.293c-3.128-2.716-7.866-2.381-10.58,0.748l-39.408,45.406
			c-2.715,3.128-2.38,7.865,0.748,10.58c1.419,1.232,3.17,1.836,4.913,1.836c2.098,0,4.185-0.875,5.667-2.584l39.408-45.406
			C151.456,362.745,151.121,358.008,147.993,355.293z"/>
		<path style="fill:#DEF4F8;" d="M188.09,368.833c-3.231-2.592-7.952-2.072-10.543,1.158l-14.398,17.953
			c-2.592,3.231-2.073,7.952,1.158,10.543c1.384,1.11,3.041,1.649,4.688,1.649c2.197,0,4.375-0.961,5.855-2.808l14.398-17.953
			C191.84,376.144,191.321,371.424,188.09,368.833z"/>
		<path style="fill:#DEF4F8;" d="M428.199,386.786c-3.231-2.592-7.951-2.072-10.543,1.158l-14.398,17.952
			c-2.592,3.231-2.073,7.951,1.158,10.543c1.384,1.11,3.041,1.649,4.688,1.649c2.197,0,4.374-0.961,5.855-2.808l14.398-17.952
			C431.949,394.097,431.43,389.378,428.199,386.786z"/>
		<path style="fill:#DEF4F8;" d="M108.362,355.106c-3.231-2.592-7.951-2.072-10.543,1.158L83.42,374.217
			c-2.592,3.231-2.073,7.951,1.158,10.543c1.384,1.11,3.041,1.649,4.688,1.649c2.197,0,4.374-0.961,5.855-2.808l14.398-17.952
			C112.112,362.418,111.593,357.698,108.362,355.106z"/>
	</g>
	<path style="fill:#C97E67;" d="M494.32,4.52v38.64H0V4.52c0-1.66,1.35-3,3-3h488.32C492.97,1.52,494.32,2.86,494.32,4.52z"/>
	<rect x="0.002" y="43.16" style="fill:#C0694E;" width="494.316" height="41.645"/>
	<rect x="0.002" y="84.805" style="fill:#C97E67;" width="494.316" height="41.645"/>
	<rect x="0.002" y="126.449" style="fill:#C0694E;" width="494.316" height="41.645"/>
	<rect x="0.002" y="168.094" style="fill:#C97E67;" width="494.316" height="41.645"/>
	<rect x="0.002" y="209.738" style="fill:#C0694E;" width="494.316" height="41.645"/>
	<rect x="0.002" y="251.383" style="fill:#C97E67;" width="494.316" height="41.645"/>
	<rect x="0.002" y="293.027" style="fill:#C0694E;" width="494.316" height="41.645"/>
	<g>
		<g>
			<path style="fill:#FFE7C0;" d="M443.07,1.52v366.63c0,4.14-3.36,7.5-7.5,7.5c-4.15,0-7.5-3.36-7.5-7.5V1.52H443.07z"/>
		</g>
		<g>
			<path style="fill:#FFE7C0;" d="M66.25,1.52v366.63c0,4.14-3.35,7.5-7.5,7.5c-4.14,0-7.5-3.36-7.5-7.5V1.52H66.25z"/>
		</g>
	</g>
	<rect x="255.047" y="334.672" style="fill:#44BFD7;" width="41" height="97.976"/>
	<rect x="226.66" y="334.67" style="fill:#7C3F2C;" width="41" height="97.98"/>
</g>
<g>
</g>
<g>
</g>
<g>
</g>
<g>
</g>
<g>
</g>
<g>
</g>
<g>
</g>
<g>
</g>
<g>
</g>
<g>
</g>
<g>
</g>
<g>
</g>
<g>
</g>
<g>
</g>
<g>
</g>
</svg>
