<?xml version="1.0" encoding="iso-8859-1"?>
<!-- Generator: Adobe Illustrator 19.0.0, SVG Export Plug-In . SVG Version: 6.00 Build 0)  -->
<svg version="1.1" id="Layer_1" xmlns="http://www.w3.org/2000/svg" xmlns:xlink="http://www.w3.org/1999/xlink" x="0px" y="0px"
	 viewBox="0 0 492.373 492.373" style="enable-background:new 0 0 492.373 492.373;" xml:space="preserve">
<g>
	<path style="fill:#DEF4F8;" d="M245.887,113.82c-72.618-3.682-209.433,99.996-242.959,126.345c-3.905,3.069-3.905,8.974,0,12.043
		c33.526,26.349,170.341,130.027,242.959,126.345c0.201-0.01,0.398-0.01,0.599,0c72.618,3.682,209.433-99.996,242.959-126.345
		c3.905-3.069,3.905-8.974,0-12.043c-33.526-26.349-170.34-130.027-242.959-126.345C246.285,113.83,246.088,113.83,245.887,113.82z"
		/>
	<path style="fill:#2CB3CD;" d="M327.507,350.617c-2.64,2.06-5.38,4.02-8.21,5.9c-2.24,1.48-4.5,2.88-6.79,4.21
		c-14.17,8.23-29.31,13.53-44.7,16.06c-18.09,2.99-36.52,2.14-54.07-2.3c-5.09-1.27-10.1-2.86-15-4.74
		c-24.85-9.51-47.06-26.58-62.88-50.45c-12.05-18.2-19.02-38.29-21.24-58.6c-0.56-4.99-0.82-10-0.78-15
		c0.19-42.69,20.98-84.49,59.24-109.84c28.97-19.19,62.74-25.5,94.53-20.27c35.07,5.75,67.73,25.53,88.91,57.49
		c5.63,8.5,10.15,17.42,13.6,26.57c1.86,4.94,3.4,9.95,4.64,15C386.927,264.247,369.457,318.026,327.507,350.617z"/>
	<path style="fill:#44BFD7;" d="M327.507,350.617c-2.64,2.06-5.38,4.02-8.21,5.9c-2.24,1.48-4.5,2.88-6.79,4.21
		c-14.17,8.23-29.31,13.53-44.7,16.06c-3.72-0.61-7.41-1.38-11.06-2.3c-5.09-1.27-10.1-2.86-15-4.74
		c-24.85-9.51-47.06-26.58-62.88-50.45c-12.05-18.2-19.02-38.29-21.24-58.6c-0.56-4.99-0.82-10-0.78-15
		c0.19-42.69,20.98-84.49,59.24-109.84c16.08-10.65,33.64-17.33,51.52-20.27c35.07,5.75,67.73,25.53,88.91,57.49
		c5.63,8.5,10.15,17.42,13.6,26.57c1.86,4.94,3.4,9.95,4.64,15C386.927,264.247,369.457,318.026,327.507,350.617z"/>
	<g>
		<path style="fill:#7CD2E3;" d="M374.757,214.647h-64.9c-4.15,0-7.5-3.36-7.5-7.5c0-4.14,3.35-7.5,7.5-7.5h60.26
			C371.977,204.587,373.517,209.597,374.757,214.647z"/>
		<path style="fill:#7CD2E3;" d="M232.017,173.857v79.34c0,4.14-3.36,7.5-7.5,7.5h-109.9c-0.56-4.99-0.82-10-0.78-15h103.18v-71.84
			c0-4.15,3.36-7.5,7.5-7.5C228.657,166.357,232.017,169.707,232.017,173.857z"/>
		<path style="fill:#7CD2E3;" d="M213.737,309.187v65.3c-5.09-1.27-10.1-2.86-15-4.74v-60.56c0-4.14,3.36-7.5,7.5-7.5
			C210.387,301.687,213.737,305.046,213.737,309.187z"/>
		<path style="fill:#7CD2E3;" d="M327.507,271.467v79.15c-2.64,2.06-5.38,4.02-8.21,5.9c-2.24,1.48-4.5,2.88-6.79,4.21v-81.76
			h-35.32c-4.14,0-7.5-3.35-7.5-7.5c0-4.14,3.36-7.5,7.5-7.5h42.82C324.147,263.967,327.507,267.327,327.507,271.467z"/>
	</g>
	<circle style="fill:#269AB1;" cx="301.732" cy="207.145" r="18.277"/>
	<circle style="fill:#269AB1;" cx="270.927" cy="271.471" r="18.277"/>
	<circle style="fill:#269AB1;" cx="224.518" cy="168.341" r="18.277"/>
	<circle style="fill:#269AB1;" cx="206.241" cy="305.72" r="18.277"/>
	<g>
		<path style="fill:#60C8DD;" d="M113.837,245.697c-0.04,5,0.22,10.01,0.78,15h43.01c-0.56-4.99-0.82-10-0.78-15H113.837z"/>
		<path style="fill:#60C8DD;" d="M198.737,342.827v26.92c4.9,1.88,9.91,3.47,15,4.74v-19.52
			C208.487,351.327,203.477,347.287,198.737,342.827z"/>
	</g>
</g>
<g>
</g>
<g>
</g>
<g>
</g>
<g>
</g>
<g>
</g>
<g>
</g>
<g>
</g>
<g>
</g>
<g>
</g>
<g>
</g>
<g>
</g>
<g>
</g>
<g>
</g>
<g>
</g>
<g>
</g>
</svg>
