<?xml version="1.0" encoding="iso-8859-1"?>
<!-- Generator: Adobe Illustrator 19.0.0, SVG Export Plug-In . SVG Version: 6.00 Build 0)  -->
<svg version="1.1" id="Layer_1" xmlns="http://www.w3.org/2000/svg" xmlns:xlink="http://www.w3.org/1999/xlink" x="0px" y="0px"
	 viewBox="0 0 493.6 493.6" style="enable-background:new 0 0 493.6 493.6;" xml:space="preserve">
<g>
	<path style="fill:#60C8DD;" d="M329.675,25.92v441.76c0,14.32-11.61,25.92-25.93,25.92H90.505c-14.32,0-25.92-11.6-25.92-25.92
		V25.92C64.585,11.6,76.185,0,90.505,0h213.24C318.065,0,329.675,11.6,329.675,25.92z"/>
	<path style="fill:#2CB3CD;" d="M269.13,0l-6.63,38.46c-0.5,2.91-3.03,5.04-5.98,5.04H138.63c-2.91,0-5.4-2.06-5.96-4.91L125.13,0
		H269.13z"/>
	<path style="fill:#C2EAF2;" d="M302.63,81.68v372.24c0,7.11-5.77,12.88-12.88,12.88H104.51c-7.11,0-12.88-5.77-12.88-12.88V81.68
		c0-7.11,5.77-12.88,12.88-12.88h185.24C296.86,68.8,302.63,74.57,302.63,81.68z"/>
	<path style="fill:#DEF4F8;" d="M302.63,81.68v372.24c0,7.11-5.77,12.88-12.88,12.88H136.67c-7.11,0-12.88-5.77-12.88-12.88V81.68
		c0-7.11,5.77-12.88,12.88-12.88h153.08C296.86,68.8,302.63,74.57,302.63,81.68z"/>
	<g>
		<circle style="fill:#269AB1;" cx="236.793" cy="22.05" r="7.5"/>
		<path style="fill:#269AB1;" d="M204.876,13.91h-49.784c-4.142,0-7.5,3.358-7.5,7.5s3.358,7.5,7.5,7.5h49.784
			c4.142,0,7.5-3.358,7.5-7.5S209.018,13.91,204.876,13.91z"/>
	</g>
	<path style="fill:#1AB975;" d="M252.19,218.6v112.14c0,2.76-2.23,5-5,5H147.07c-2.77,0-5-2.24-5-5V218.6l55.06-50.72l10.07,9.28
		L252.19,218.6z"/>
	<path style="fill:#1ED688;" d="M252.19,218.6v112.14c0,2.76-2.23,5-5,5h-76.12c-2.77,0-5-2.24-5-5v-105.2
		c0-4.44,1.75-8.71,4.88-11.86l36.25-36.52L252.19,218.6z"/>
	<path style="fill:#106E46;" d="M282.721,240.843l-80.98-81.125c-2.474-2.474-6.534-2.484-9.017,0l-81.185,81.125
		c-2.473,2.473-2.473,6.482,0,8.954l2.379,2.379c2.473,2.473,6.482,2.473,8.954,0l74.36-74.3l74.155,74.3
		c2.473,2.473,6.482,2.473,8.954,0l2.379-2.379C285.194,247.324,285.194,243.316,282.721,240.843z"/>
	<path style="fill:#F29500;" d="M418.56,466.8H240.73c-8.03,0-13.06-8.7-9.04-15.66l88.91-154c4.02-6.96,14.07-6.96,18.09,0
		l10.38,17.99l78.53,136.01C431.62,458.1,426.6,466.8,418.56,466.8z"/>
	<path style="fill:#FFA90B;" d="M418.56,466.8H279.59c-8.04,0-13.06-8.7-9.05-15.66l78.53-136.01l78.53,136.01
		C431.62,458.1,426.6,466.8,418.56,466.8z"/>
	<g>
		<path style="fill:#D63030;" d="M329.645,414.861c4.143,0,7.5-3.357,7.5-7.5v-70c0-4.143-3.357-7.5-7.5-7.5s-7.5,3.357-7.5,7.5v70
			C322.145,411.503,325.503,414.861,329.645,414.861z"/>
		<circle style="fill:#D63030;" cx="329.646" cy="435.107" r="10.25"/>
	</g>
</g>
<g>
</g>
<g>
</g>
<g>
</g>
<g>
</g>
<g>
</g>
<g>
</g>
<g>
</g>
<g>
</g>
<g>
</g>
<g>
</g>
<g>
</g>
<g>
</g>
<g>
</g>
<g>
</g>
<g>
</g>
</svg>
