<?xml version="1.0" encoding="iso-8859-1"?>
<!-- Generator: Adobe Illustrator 19.0.0, SVG Export Plug-In . SVG Version: 6.00 Build 0)  -->
<svg version="1.1" id="Layer_1" xmlns="http://www.w3.org/2000/svg" xmlns:xlink="http://www.w3.org/1999/xlink" x="0px" y="0px"
	 viewBox="0 0 492.29 492.29" style="enable-background:new 0 0 492.29 492.29;" xml:space="preserve">
<g>
	<path style="fill:#5F6C75;" d="M132.146,492.29h-21.333c-2.761,0-5-2.239-5-5v-36.816h31.333v36.816
		C137.146,490.051,134.907,492.29,132.146,492.29z"/>
	<path style="fill:#5F6C75;" d="M360.146,492.29h21.333c2.761,0,5-2.239,5-5v-36.816h-31.333v36.816
		C355.146,490.051,357.384,492.29,360.146,492.29z"/>
	<path style="fill:#7E8B96;" d="M421.07,5v450.49c0,2.76-2.24,5-5,5H236.19V0h179.88C418.83,0,421.07,2.23,421.07,5z"/>
	<path style="fill:#909BA6;" d="M421.07,5v450.49c0,2.76-2.24,5-5,5H268.65V0h147.42C418.83,0,421.07,2.23,421.07,5z"/>
	<path style="fill:#7E8B96;" d="M246.15,0v460.49H76.22c-2.76,0-5-2.24-5-5V5c0-2.77,2.24-5,5-5H246.15z"/>
	<path style="fill:#A2ABB8;" d="M246.15,0v460.49H102.48c-2.76,0-5-2.24-5-5V5c0-2.77,2.24-5,5-5H246.15z"/>
	<path style="fill:#C2EAF2;" d="M193.48,33.49v196c0,2.76-2.24,5-5,5h-86c-2.76,0-5-2.24-5-5v-196c0-2.76,2.24-5,5-5h86
		C191.24,28.49,193.48,30.73,193.48,33.49z"/>
	<path style="fill:#DEF4F8;" d="M193.48,33.49v196c0,2.76-2.24,5-5,5h-68.03c-2.76,0-5-2.24-5-5v-196c0-2.76,2.24-5,5-5h68.03
		C191.24,28.49,193.48,30.73,193.48,33.49z"/>
	<g>
		<path style="fill:#7CD2E3;" d="M119.212,151.691c-1.646,0-3.304-0.539-4.688-1.649c-3.231-2.592-3.75-7.312-1.158-10.543
			l28.797-35.904c2.591-3.23,7.313-3.75,10.543-1.158c3.231,2.592,3.75,7.312,1.158,10.543l-28.797,35.904
			C123.586,150.73,121.41,151.691,119.212,151.691z"/>
	</g>
	<g>
		<path style="fill:#7CD2E3;" d="M148.476,182.853c-1.646,0-3.304-0.539-4.688-1.649c-3.231-2.592-3.75-7.312-1.158-10.543
			l14.398-17.952c2.592-3.23,7.312-3.751,10.543-1.158c3.231,2.592,3.75,7.312,1.158,10.543l-14.398,17.952
			C152.85,181.892,150.673,182.853,148.476,182.853z"/>
	</g>
	<g>
		<path style="fill:#7CD2E3;" d="M141.547,82.567c-1.646,0-3.304-0.539-4.688-1.649c-3.231-2.592-3.75-7.312-1.158-10.543
			L150.1,52.423c2.592-3.23,7.313-3.751,10.543-1.158c3.231,2.592,3.75,7.312,1.158,10.543L147.403,79.76
			C145.921,81.606,143.745,82.567,141.547,82.567z"/>
	</g>
	<path style="fill:#5F6C75;" d="M246.15,281.49v179H76.22c-2.76,0-5-2.24-5-5v-174H246.15z"/>
	<g>
		<path style="fill:#C8D2DC;" d="M220.22,20.99c-4.143,0-7.5,3.357-7.5,7.5v206c0,4.143,3.357,7.5,7.5,7.5s7.5-3.357,7.5-7.5v-206
			C227.72,24.347,224.363,20.99,220.22,20.99z"/>
		<path style="fill:#C8D2DC;" d="M182.341,309.99h-45.724c-4.143,0-7.5,3.357-7.5,7.5s3.357,7.5,7.5,7.5h45.724
			c4.143,0,7.5-3.357,7.5-7.5S186.484,309.99,182.341,309.99z"/>
		<path style="fill:#C8D2DC;" d="M276.146,88.086c-4.143,0-7.5,3.357-7.5,7.5V323.49c0,4.143,3.357,7.5,7.5,7.5s7.5-3.357,7.5-7.5
			V95.586C283.646,91.443,280.289,88.086,276.146,88.086z"/>
	</g>
	<path style="fill:#4E5A61;" d="M102.48,460.49H76.22c-2.76,0-5-2.24-5-5v-174h26.26v174C97.48,458.25,99.72,460.49,102.48,460.49z"
		/>
</g>
<g>
</g>
<g>
</g>
<g>
</g>
<g>
</g>
<g>
</g>
<g>
</g>
<g>
</g>
<g>
</g>
<g>
</g>
<g>
</g>
<g>
</g>
<g>
</g>
<g>
</g>
<g>
</g>
<g>
</g>
</svg>
