<?xml version="1.0" encoding="iso-8859-1"?>
<!-- Generator: Adobe Illustrator 19.0.0, SVG Export Plug-In . SVG Version: 6.00 Build 0)  -->
<svg version="1.1" id="Layer_1" xmlns="http://www.w3.org/2000/svg" xmlns:xlink="http://www.w3.org/1999/xlink" x="0px" y="0px"
	 viewBox="0 0 493.907 493.907" style="enable-background:new 0 0 493.907 493.907;" xml:space="preserve">
<g>
	<path style="fill:#60C8DD;" d="M493.907,405.241c0,11.55-9.363,20.913-20.913,20.913H330.212c-11.55,0-20.913-9.363-20.913-20.913
		V88.667c0-11.55,9.363-20.913,20.913-20.913h142.783c11.55,0,20.913,9.363,20.913,20.913V405.241z"/>
	<path style="fill:#2CB3CD;" d="M336.537,67.754l9.335,40.416c0.636,2.755,3.09,4.706,5.917,4.706h99.627
		c2.828,0,5.281-1.951,5.917-4.706l9.335-40.416C453.903,67.754,354.848,67.754,336.537,67.754z"/>
	<path style="fill:#C2EAF2;" d="M471.146,143.314v249.2c0,2.76-2.24,5-5,5h-129.08c-2.76,0-5-2.24-5-5v-249.2c0-2.76,2.24-5,5-5
		h129.08C468.906,138.314,471.146,140.554,471.146,143.314z"/>
	<path style="fill:#DEF4F8;" d="M471.146,143.314v249.2c0,2.76-2.24,5-5,5h-106.3c-2.76,0-5-2.24-5-5v-249.2c0-2.76,2.24-5,5-5
		h106.3C468.906,138.314,471.146,140.554,471.146,143.314z"/>
	<g>
		<path style="fill:#269AB1;" d="M411.445,82.368H365.03c-4.142,0-7.5,3.358-7.5,7.5s3.358,7.5,7.5,7.5h46.415
			c4.142,0,7.5-3.358,7.5-7.5S415.587,82.368,411.445,82.368z"/>
		<circle style="fill:#269AB1;" cx="431.283" cy="89.868" r="6.894"/>
	</g>
	<rect x="0.046" y="250.441" style="fill:#954C35;" width="309.253" height="44"/>
	<path style="fill:#C0694E;" d="M34.02,395.447H2.461c-1.359,0-2.461-1.102-2.461-2.461v-241.09c0-1.359,1.102-2.461,2.461-2.461
		H34.02c1.359,0,2.461,1.102,2.461,2.461v241.09C36.482,394.345,35.38,395.447,34.02,395.447z"/>
	<path style="fill:#C0694E;" d="M111.766,395.447H80.207c-1.359,0-2.461-1.102-2.461-2.461v-241.09c0-1.359,1.102-2.461,2.461-2.461
		h31.559c1.359,0,2.461,1.102,2.461,2.461v241.09C114.227,394.345,113.125,395.447,111.766,395.447z"/>
	<path style="fill:#C0694E;" d="M189.511,395.447h-31.559c-1.359,0-2.461-1.102-2.461-2.461v-241.09
		c0-1.359,1.102-2.461,2.461-2.461h31.559c1.359,0,2.461,1.102,2.461,2.461v241.09C191.972,394.345,190.87,395.447,189.511,395.447z
		"/>
	<path style="fill:#C0694E;" d="M267.256,395.447h-31.559c-1.359,0-2.461-1.102-2.461-2.461v-241.09
		c0-1.359,1.102-2.461,2.461-2.461h31.559c1.359,0,2.461,1.102,2.461,2.461v241.09C269.718,394.345,268.616,395.447,267.256,395.447
		z"/>
	<path style="fill:#1AB975;" d="M451.804,267.884l-17.66,19.17l-13.36,14.5h-66.4c-1.65,0-2.98-1.33-2.98-2.98v-61.38
		c0-1.65,1.33-2.98,2.98-2.98h66.4L451.804,267.884z"/>
	<path style="fill:#1ED688;" d="M451.804,267.884l-17.66,19.17h-60.42c-1.65,0-2.99-1.33-2.99-2.98v-49.86h50.05L451.804,267.884z"
		/>
	<path style="fill:#169B62;" d="M457.33,262.809l-42.82-46.598c-2.804-3.05-7.549-3.25-10.598-0.447
		c-3.05,2.803-3.25,7.547-0.447,10.598l38.16,41.525l-38.163,41.583c-2.801,3.052-2.598,7.796,0.454,10.597
		c3.042,2.793,7.788,2.607,10.597-0.454l42.82-46.657C459.966,270.085,459.965,265.677,457.33,262.809z"/>
</g>
<g>
</g>
<g>
</g>
<g>
</g>
<g>
</g>
<g>
</g>
<g>
</g>
<g>
</g>
<g>
</g>
<g>
</g>
<g>
</g>
<g>
</g>
<g>
</g>
<g>
</g>
<g>
</g>
<g>
</g>
</svg>
