<?xml version="1.0" encoding="iso-8859-1"?>
<!-- Generator: Adobe Illustrator 19.0.0, SVG Export Plug-In . SVG Version: 6.00 Build 0)  -->
<svg version="1.1" id="Layer_1" xmlns="http://www.w3.org/2000/svg" xmlns:xlink="http://www.w3.org/1999/xlink" x="0px" y="0px"
	 viewBox="0 0 497.303 497.303" style="enable-background:new 0 0 497.303 497.303;" xml:space="preserve">
<g>
	<g>
		<path style="fill:#60C8DD;" d="M495.141,307.185c0,10.513-8.522,19.035-19.035,19.035H346.143
			c-10.513,0-19.035-8.522-19.035-19.035V19.035C327.108,8.522,335.631,0,346.143,0h129.963c10.513,0,19.035,8.522,19.035,19.035
			V307.185z"/>
		<path style="fill:#2CB3CD;" d="M351.901,0l8.497,36.787c0.579,2.508,2.812,4.284,5.386,4.284h90.682
			c2.574,0,4.807-1.776,5.386-4.284L470.349,0C430.424,0,386.929,0,351.901,0z"/>
		<path style="fill:#C2EAF2;" d="M474.424,68.776v226.825c0,2.512-2.039,4.551-4.551,4.551h-117.49
			c-2.512,0-4.551-2.039-4.551-4.551V68.776c0-2.512,2.039-4.551,4.551-4.551h117.49C472.385,64.225,474.424,66.263,474.424,68.776z
			"/>
		<path style="fill:#DEF4F8;" d="M474.424,68.776v226.825c0,2.512-2.039,4.551-4.551,4.551h-96.756
			c-2.512,0-4.551-2.039-4.551-4.551V68.776c0-2.512,2.039-4.551,4.551-4.551h96.756C472.385,64.225,474.424,66.263,474.424,68.776z
			"/>
		<g>
			<path style="fill:#269AB1;" d="M420.083,13.302h-42.248c-3.77,0-6.827,3.056-6.827,6.827s3.056,6.827,6.827,6.827h42.248
				c3.77,0,6.827-3.056,6.827-6.827S423.853,13.302,420.083,13.302z"/>
			<circle style="fill:#269AB1;" cx="438.14" cy="20.129" r="6.275"/>
		</g>
	</g>
	<g>
		<path style="fill:#44BFD7;" d="M455.162,371.979l-26.727-31.431c-2.988-3.515-8.429-3.526-11.427,0l-26.727,31.431
			c-2.684,3.155-2.301,7.889,0.855,10.572c3.158,2.685,7.892,2.297,10.572-0.855l13.514-15.891v75.525
			c0,7.855-6.392,14.247-14.248,14.247h-78.438l15.892-13.514c3.156-2.684,3.539-7.417,0.855-10.572
			c-2.684-3.156-7.417-3.537-10.572-0.855c-32.011,27.61-33.056,26.944-33.901,30.856c-0.599,2.783,0.43,5.564,2.47,7.3
			c31.965,26.365,31.376,28.513,36.286,28.513c6.922,0,10.198-8.676,4.862-13.214l-15.892-13.513h78.438
			c16.127,0,29.248-13.12,29.248-29.247v-75.525l13.513,15.891c2.683,3.156,7.417,3.537,10.572,0.855
			C457.463,379.868,457.846,375.134,455.162,371.979z"/>
		<path style="fill:#44BFD7;" d="M304.468,85.881c-1.152-3.508-1.33-2.119-33.694-30.098c-3.155-2.682-7.889-2.301-10.572,0.855
			c-2.684,3.155-2.301,7.889,0.855,10.572l15.891,13.513H198.51c-16.127,0-29.247,13.12-29.247,29.247v75.526l-13.514-15.892
			c-2.683-3.156-7.417-3.537-10.572-0.855c-3.156,2.684-3.539,7.417-0.855,10.572l26.727,31.431c2.988,3.515,8.429,3.526,11.427,0
			l26.727-31.431c2.684-3.155,2.301-7.889-0.855-10.572c-3.155-2.682-7.888-2.301-10.572,0.855l-13.514,15.892V109.97
			c0-7.855,6.391-14.247,14.247-14.247h78.438l-15.891,13.513c-5.335,4.537-2.06,13.214,4.862,13.214
			c4.956,0,4.461-2.263,36.286-28.513C304.381,92.085,305.473,88.94,304.468,85.881z"/>
	</g>
	<path style="fill:#A2ABB8;" d="M275.228,492.055H32.531c-2.761,0-5-2.239-5-5V306.191h252.697v180.865
		C280.228,489.817,277.989,492.055,275.228,492.055z"/>
	<path style="fill:#FFC14F;" d="M303.701,320.894H4.054c-1.51,0-2.409-1.685-1.571-2.943L13.631,301.2
		c-0.182,0.274,1.904-2.866,37.338-56.132c0.351-0.526,0.945-0.846,1.578-0.846h202.227c0.633,0,1.22,0.313,1.571,0.839
		c16.272,24.245,34.46,51.342,48.927,72.891C306.118,319.202,305.219,320.894,303.701,320.894z"/>
	<g>
		<path style="fill:#FFA90B;" d="M232.289,269.184c0,3.157-2.562,5.718-5.718,5.718H31.122l7.609-11.437h187.84
			C229.727,263.466,232.289,266.028,232.289,269.184z"/>
		<path style="fill:#FFA90B;" d="M276.375,274.903h-26.93c-3.164,0-5.718-2.562-5.718-5.718c0-3.157,2.554-5.718,5.718-5.718h19.252
			L276.375,274.903z"/>
		<polygon style="fill:#FFA90B;" points="294.026,301.2 13.631,301.2 21.232,289.763 286.348,289.763 		"/>
	</g>
	<polygon style="fill:#C8D2DC;" points="235.049,319.003 235.049,492.056 72.706,492.056 72.706,319.003 153.878,244.221 
		166.245,255.612 	"/>
	<path style="fill:#DCE6EB;" d="M235.049,319.003v173.053H98.744V331.02c0-4.049,1.586-7.937,4.415-10.835l63.086-64.573
		L235.049,319.003z"/>
	<path style="fill:#AE583E;" d="M186.194,492.056h-64.628V379.285c0-2.441,1.979-4.421,4.42-4.421h55.787
		c2.441,0,4.42,1.979,4.42,4.421V492.056z"/>
	<path style="fill:#7C3F2C;" d="M140.918,419.692c-3.159,0-5.718,2.56-5.718,5.718v13.664c0,3.158,2.56,5.718,5.718,5.718
		s5.718-2.56,5.718-5.718v-13.664C146.637,422.253,144.077,419.692,140.918,419.692z"/>
	<path style="fill:#F29500;" d="M246.252,317.92l-85.726-85.726c-3.647-3.647-9.631-3.662-13.293,0L61.507,317.92
		c-3.645,3.645-3.645,9.555,0,13.2l3.508,3.508c3.645,3.645,9.555,3.645,13.2,0l75.665-75.665l75.665,75.665
		c3.645,3.645,9.555,3.645,13.2,0l3.508-3.508C249.897,327.475,249.897,321.565,246.252,317.92z"/>
	<g>
		<path style="fill:#269AB1;" d="M464.896,164.321c-10.685-20.086-31.457-32.564-54.209-32.564
			c-21.876,0-42.264,11.78-53.208,30.744c-2.07,3.588-0.84,8.175,2.748,10.245c3.586,2.07,8.174,0.839,10.245-2.747
			c8.273-14.337,23.683-23.242,40.216-23.242c17.194,0,32.892,9.43,40.966,24.609c1.349,2.535,3.944,3.979,6.628,3.979
			c1.188-0.001,2.394-0.283,3.516-0.881C465.454,172.519,466.841,167.978,464.896,164.321z"/>
		<path style="fill:#269AB1;" d="M410.613,153.111c-17.511,0-33.566,9.599-41.901,25.05c-1.966,3.646-0.605,8.195,3.041,10.161
			c3.645,1.968,8.194,0.605,10.162-3.04c5.713-10.592,16.71-17.171,28.699-17.171c12.43,0,23.613,6.938,29.183,18.104
			c1.313,2.632,3.963,4.154,6.717,4.154c1.125,0,2.267-0.255,3.342-0.791c3.707-1.849,5.212-6.353,3.364-10.059
			C445.094,163.23,428.768,153.111,410.613,153.111z"/>
		<path style="fill:#269AB1;" d="M410.576,175.391c-12.927,0-24.527,7.213-30.273,18.824c-1.837,3.713-0.317,8.212,3.395,10.049
			c3.714,1.839,8.211,0.317,10.048-3.395c3.199-6.464,9.648-10.479,16.83-10.479c7.284,0,13.972,4.287,17.039,10.921
			c1.267,2.741,3.979,4.354,6.813,4.354c1.053,0,2.124-0.224,3.143-0.694c3.76-1.738,5.398-6.195,3.66-9.955
			C435.718,183.095,423.686,175.391,410.576,175.391z"/>
		<path style="fill:#269AB1;" d="M410.576,197.065c-9.803,0-17.778,7.976-17.778,17.778s7.975,17.777,17.778,17.777
			s17.778-7.975,17.778-17.777S420.379,197.065,410.576,197.065z"/>
	</g>
</g>
<g>
</g>
<g>
</g>
<g>
</g>
<g>
</g>
<g>
</g>
<g>
</g>
<g>
</g>
<g>
</g>
<g>
</g>
<g>
</g>
<g>
</g>
<g>
</g>
<g>
</g>
<g>
</g>
<g>
</g>
</svg>
