<?xml version="1.0" encoding="iso-8859-1"?>
<!-- Generator: Adobe Illustrator 19.0.0, SVG Export Plug-In . SVG Version: 6.00 Build 0)  -->
<svg version="1.1" id="Layer_1" xmlns="http://www.w3.org/2000/svg" xmlns:xlink="http://www.w3.org/1999/xlink" x="0px" y="0px"
	 viewBox="0 0 494.225 494.225" style="enable-background:new 0 0 494.225 494.225;" xml:space="preserve">
<g>
	<path style="fill:#909BA6;" d="M374.43,453.975c-4.11,9.07-8.77,17.92-13.96,26.5c-5.12,8.47-14.3,13.64-24.19,13.64H157.94
		c-9.961,0-19.094-5.22-24.19-13.64c-5.19-8.58-9.85-17.43-13.96-26.5c-17.79-39.21-25.4-82.47-21.86-125.71
		c0.092-1.137,21.963-270.386,22.14-272.57h253.91l16.34,199.65l5.97,72.92C399.793,370.793,392.495,414.171,374.43,453.975z"/>
	<path style="fill:#B9C3CD;" d="M374.43,453.975c-4.11,9.07-8.77,17.92-13.96,26.5c-5.12,8.47-14.3,13.64-24.19,13.64H210.35
		c-9.961,0-19.094-5.22-24.19-13.64c-5.19-8.58-9.85-17.43-13.96-26.5c-17.79-39.21-25.4-82.47-21.86-125.71
		c0.092-1.137,21.963-270.386,22.14-272.57h201.5l16.34,199.65l5.97,72.92C399.793,370.793,392.495,414.171,374.43,453.975z"/>
	<path style="fill:#909BA6;" d="M374.43,453.975c-4.11,9.07-8.77,17.92-13.96,26.5c-5.12,8.47-14.3,13.64-24.19,13.64H157.94
		c-9.961,0-19.094-5.22-24.19-13.64c-5.19-8.58-9.85-17.43-13.96-26.5H374.43z"/>
	<polygon style="fill:#DCE6EB;" points="390.32,255.345 103.85,255.345 120.07,55.695 373.98,55.695 	"/>
	<path style="fill:#5F6C75;" d="M186.16,480.475c-5.19-8.58-9.85-17.43-13.96-26.5h-52.41c4.11,9.07,8.77,17.92,13.96,26.5
		c2.56,4.23,6.14,7.65,10.31,10c10.92,6.154,17.718,2.631,66.29,3.64C200.389,494.115,191.255,488.895,186.16,480.475z"/>
	<polygon style="fill:#C8D2DC;" points="120.192,55.695 103.85,255.345 156.26,255.345 172.48,55.695 	"/>
	<path style="fill:#7E8B96;" d="M374.04,56.985c0,4.54-1.19,8.96-3.43,13.19c-13.27,25.07-63.53,43.71-123.51,43.71
		c-70.11,0-126.94-25.47-126.94-56.9c0-16.57,15.81-31.49,41.03-41.88C243.014-18.638,374.04,8.007,374.04,56.985z"/>
	<path style="fill:#909BA6;" d="M374.04,56.985c0,4.54-1.19,8.96-3.43,13.19c-22.6,9.32-52.76,15.01-85.9,15.01
		c-70.11,0-126.94-25.47-126.94-56.9c0-4.54,1.18-8.95,3.42-13.18C243.014-18.638,374.04,8.007,374.04,56.985z"/>
</g>
<g>
</g>
<g>
</g>
<g>
</g>
<g>
</g>
<g>
</g>
<g>
</g>
<g>
</g>
<g>
</g>
<g>
</g>
<g>
</g>
<g>
</g>
<g>
</g>
<g>
</g>
<g>
</g>
<g>
</g>
</svg>
