<?xml version="1.0" encoding="iso-8859-1"?>
<!-- Generator: Adobe Illustrator 19.0.0, SVG Export Plug-In . SVG Version: 6.00 Build 0)  -->
<svg version="1.1" id="Layer_1" xmlns="http://www.w3.org/2000/svg" xmlns:xlink="http://www.w3.org/1999/xlink" x="0px" y="0px"
	 viewBox="0 0 494.561 494.561" style="enable-background:new 0 0 494.561 494.561;" xml:space="preserve">
<g>
	<path style="fill:#C8D2DC;" d="M397.376,345.719c0,46.22-12.62,91.71-36.67,131.48c-5.12,8.47-14.3,13.64-24.19,13.64h-178.34
		c-9.961,0-19.094-5.22-24.19-13.64c-27.64-45.71-40.18-98.97-35.82-152.21l13.46-194.51c2.47-35.66,18.53-67.32,42.9-90.07
		c83.602-78.012,220.645-23.951,228.54,90.07l13.46,194.51C397.096,331.909,397.376,338.819,397.376,345.719z"/>
	<path style="fill:#DCE6EB;" d="M397.376,345.719c0,46.22-12.62,91.71-36.67,131.48c-5.12,8.47-14.3,13.64-24.19,13.64h-138.4
		c-9.961,0-19.094-5.22-24.19-13.64c-27.65-45.71-40.18-98.97-35.82-152.21l13.46-194.51c4.482-64.71,53.603-116.025,115.75-125.19
		c62.27,9.18,111.28,60.63,115.75,125.19l13.46,194.51C397.096,331.909,397.376,338.819,397.376,345.719z"/>
	<path style="fill:#7E8B96;" d="M274.416,91.899v56.86c0,11.36-7.09,21.15-17.08,25.14c-3.09,1.25-6.47,1.93-9.99,1.93
		c-14.89,0-27.07-12.18-27.07-27.07v-56.86c0-14.89,12.18-27.07,27.07-27.07c3.52,0,6.9,0.68,9.99,1.93
		C267.326,70.749,274.416,80.539,274.416,91.899z"/>
	<path style="fill:#909BA6;" d="M274.416,91.899v56.86c0,11.36-7.09,21.15-17.08,25.14c-9.99-3.98-17.09-13.77-17.09-25.14v-56.86
		c0-11.37,7.1-21.16,17.09-25.14C267.326,70.749,274.416,80.539,274.416,91.899z"/>
	<circle style="fill:#4E5A61;" cx="247.346" cy="94.328" r="12.5"/>
	<path style="fill:#FD9A9A;" d="M471.852,108.689c-5.983-0.599-11.57,0.919-16.163,3.855c0.024-0.449,0.068-0.893,0.068-1.348
		c0-13.964-11.32-25.284-25.284-25.284c-9.534,0-17.832,5.279-22.14,13.071c-4.246-1.603-8.844-2.487-13.651-2.487
		c-14.979,0-26.874,6.545-33.295,19h-55.374c-1.657,0-3,1.343-3,3v28.507c0,1.657,1.343,3,3,3h52.952
		c5.82,13.99,19.619,23.826,35.716,23.826c4.807,0,9.406-0.884,13.651-2.487c4.308,7.792,12.606,13.071,22.14,13.071
		c13.964,0,25.284-11.32,25.284-25.284c0-1.423-0.146-2.81-0.372-4.169c3.988,2.629,8.758,4.169,13.892,4.169
		c14.476,0,26.111-12.166,25.238-26.831C493.785,120.033,484.078,109.914,471.852,108.689z"/>
	<path style="fill:#F44545;" d="M88.377,66.967c11.424-4.165,15.989-17.467,10.092-27.681c-5.891-10.203-19.688-12.92-29.018-5.1
		c2.104-11.977-7.132-22.58-18.926-22.58c-11.781,0-21.033,10.59-18.926,22.58c-9.319-7.81-23.12-5.115-29.018,5.1
		c-5.891,10.203-1.344,23.511,10.092,27.681C1.248,71.132-3.317,84.434,2.58,94.648c5.891,10.203,19.688,12.92,29.018,5.1
		c-2.104,11.977,7.132,22.58,18.926,22.58c11.781,0,21.033-10.59,18.926-22.58c9.319,7.81,23.12,5.115,29.018-5.1
		C104.36,84.444,99.813,71.136,88.377,66.967z"/>
	<path style="fill:#F44545;" d="M222.174,252.068c11.424-4.165,15.989-17.467,10.092-27.681c-5.891-10.203-19.688-12.92-29.018-5.1
		c2.104-11.977-7.132-22.58-18.926-22.58c-11.781,0-21.033,10.59-18.926,22.58c-9.319-7.81-23.12-5.115-29.018,5.1
		c-5.891,10.203-1.344,23.511,10.092,27.681c-11.424,4.165-15.989,17.467-10.092,27.681c5.891,10.203,19.688,12.92,29.018,5.1
		c-2.104,11.977,7.132,22.58,18.926,22.58c11.781,0,21.033-10.59,18.926-22.58c9.319,7.81,23.12,5.115,29.018-5.1
		C238.157,269.546,233.61,256.238,222.174,252.068z"/>
	<path style="fill:#F44545;" d="M305.902,411.56c11.424-4.165,15.989-17.467,10.092-27.681c-5.891-10.203-19.688-12.92-29.018-5.1
		c2.104-11.977-7.132-22.58-18.926-22.58c-11.781,0-21.033,10.59-18.926,22.58c-9.319-7.81-23.12-5.115-29.018,5.1
		c-5.891,10.203-1.344,23.511,10.092,27.681c-11.424,4.165-15.989,17.467-10.092,27.681c5.891,10.203,19.688,12.92,29.018,5.1
		c-2.104,11.977,7.132,22.58,18.926,22.58c11.781,0,21.033-10.59,18.926-22.58c9.319,7.81,23.12,5.115,29.018-5.1
		C321.885,429.038,317.338,415.73,305.902,411.56z"/>
	<path style="fill:#F44545;" d="M427.965,260.772c11.424-4.165,15.989-17.467,10.092-27.681c-5.891-10.203-19.688-12.92-29.018-5.1
		c2.104-11.977-7.132-22.58-18.926-22.58c-11.781,0-21.033,10.59-18.926,22.58c-9.319-7.81-23.12-5.115-29.018,5.1
		c-5.891,10.203-1.344,23.511,10.092,27.681c-11.424,4.165-15.989,17.467-10.092,27.681c5.891,10.203,19.688,12.92,29.018,5.1
		c-2.104,11.977,7.132,22.58,18.926,22.58c11.781,0,21.033-10.59,18.926-22.58c9.319,7.81,23.12,5.115,29.018-5.1
		C443.948,278.25,439.401,264.942,427.965,260.772z"/>
	<circle style="fill:#AF2727;" cx="50.525" cy="66.967" r="19.236"/>
	<circle style="fill:#AF2727;" cx="184.322" cy="252.068" r="19.236"/>
	<circle style="fill:#AF2727;" cx="268.05" cy="411.56" r="19.236"/>
	<circle style="fill:#AF2727;" cx="390.113" cy="260.772" r="19.236"/>
</g>
<g>
</g>
<g>
</g>
<g>
</g>
<g>
</g>
<g>
</g>
<g>
</g>
<g>
</g>
<g>
</g>
<g>
</g>
<g>
</g>
<g>
</g>
<g>
</g>
<g>
</g>
<g>
</g>
<g>
</g>
</svg>
