<?xml version="1.0" encoding="iso-8859-1"?>
<!-- Generator: Adobe Illustrator 19.0.0, SVG Export Plug-In . SVG Version: 6.00 Build 0)  -->
<svg version="1.1" id="Layer_1" xmlns="http://www.w3.org/2000/svg" xmlns:xlink="http://www.w3.org/1999/xlink" x="0px" y="0px"
	 viewBox="0 0 494.875 494.875" style="enable-background:new 0 0 494.875 494.875;" xml:space="preserve">
<g>
	<path style="fill:#7C3F2C;" d="M320.038,151.146H173.962v-48.667c0-2.761,2.239-5,5-5h136.075c2.761,0,5,2.239,5,5V151.146z"/>
	<path style="fill:#AE583E;" d="M478.11,397.396H16.765C7.506,397.396,0,389.89,0,380.631v-226.97
		c0-9.259,7.506-16.765,16.765-16.765H478.11c9.259,0,16.765,7.506,16.765,16.765v226.97
		C494.875,389.89,487.369,397.396,478.11,397.396z"/>
	<path style="fill:#7C3F2C;" d="M466.83,167.896v198.5c0,1.66-1.35,3-3,3H31.05c-1.66,0-3-1.34-3-3v-198.5c0-1.66,1.34-3,3-3h432.78
		C465.48,164.896,466.83,166.236,466.83,167.896z"/>
	<path style="fill:#954C35;" d="M466.83,167.896v181.83c0,1.66-1.35,3-3,3H59.28c-1.65,0-3-1.34-3-3v-184.83h407.55
		C465.48,164.896,466.83,166.236,466.83,167.896z"/>
	<g>
		<path style="fill:#1AB975;" d="M80.498,221.503l-7.058,10.49c-4.063,4.642-9.918,0.84-9.918-4.578c0-2.288,1.717-5.34,3.433-6.676
			c17.062-19.636,17.905-23.27,22.507-23.27c3.434,0,7.058,2.099,7.058,5.723v128.174c0,3.814-4.006,5.722-8.011,5.722
			c-4.006,0-8.011-1.907-8.011-5.722V221.503z"/>
		<path style="fill:#1AB975;" d="M155.452,197.661c22.125,0,39.291,15.64,39.291,37.193c0,41.008-62.942,54.168-62.942,78.01v9.728
			h58.556c3.052,0,5.531,3.243,5.531,7.248c0,3.624-2.479,7.248-5.531,7.248h-67.901c-3.052,0-7.248-2.289-7.248-5.722v-18.502
			c0-31.28,63.515-45.967,63.515-77.438c0-10.871-7.248-22.888-23.27-22.888c-12.207,0-21.553,6.676-21.553,20.79
			c0,3.242-3.052,6.294-8.393,6.294c-4.578,0-7.248-2.288-7.248-9.346C118.259,211.012,135.043,197.661,155.452,197.661z"/>
		<path style="fill:#1AB975;" d="M231.171,236.667c0,5.149-4.387,9.918-9.728,9.918c-5.723,0-9.918-4.769-9.918-9.918
			c0-5.531,4.195-10.109,9.918-10.109C226.784,226.557,231.171,231.135,231.171,236.667z M231.171,298.274
			c0,5.149-4.387,9.918-9.728,9.918c-5.723,0-9.918-4.769-9.918-9.918c0-5.531,4.195-10.109,9.918-10.109
			C226.784,288.165,231.171,292.743,231.171,298.274z"/>
		<path style="fill:#1AB975;" d="M251.769,296.653v-57.411c0-30.327,17.93-41.58,41.008-41.58c23.079,0,41.199,11.253,41.199,41.58
			v57.411c0,30.326-18.12,41.58-41.199,41.58C269.698,338.233,251.769,326.979,251.769,296.653z M317.954,239.241
			c0-18.502-9.537-27.085-25.178-27.085c-15.64,0-24.986,8.583-24.986,27.085v57.411c0,18.501,9.347,27.084,24.986,27.084
			c15.641,0,25.178-8.583,25.178-27.084V239.241z"/>
		<path style="fill:#1AB975;" d="M399.01,305.044h-47.684c-6.171,0-6.94-6.946-4.959-9.918l47.111-92.888
			c5.009-9.46,18.354-2.356,14.306,4.387l-41.771,83.161h32.997v-32.044c0-3.814,4.006-5.531,8.012-5.531
			c4.005,0,8.011,1.717,8.011,5.531v32.044h10.108c3.814,0,5.723,3.814,5.723,7.629s-2.48,7.629-5.723,7.629h-10.108v26.322
			c0,7.629-16.022,7.629-16.022,0V305.044z"/>
	</g>
</g>
<g>
</g>
<g>
</g>
<g>
</g>
<g>
</g>
<g>
</g>
<g>
</g>
<g>
</g>
<g>
</g>
<g>
</g>
<g>
</g>
<g>
</g>
<g>
</g>
<g>
</g>
<g>
</g>
<g>
</g>
</svg>
