<?xml version="1.0" encoding="iso-8859-1"?>
<!-- Generator: Adobe Illustrator 19.0.0, SVG Export Plug-In . SVG Version: 6.00 Build 0)  -->
<svg version="1.1" id="Layer_1" xmlns="http://www.w3.org/2000/svg" xmlns:xlink="http://www.w3.org/1999/xlink" x="0px" y="0px"
	 viewBox="0 0 502.957 502.957" style="enable-background:new 0 0 502.957 502.957;" xml:space="preserve">
<g>
	<path style="fill:#169B62;" d="M309.151,156.247v307.43c0,21.69-17.59,39.28-39.28,39.28h-153.36c-21.7,0-39.28-17.59-39.28-39.28
		v-307.43c0-21.69,17.58-39.28,39.28-39.28h153.36C291.561,116.967,309.151,134.557,309.151,156.247z"/>
	<path style="fill:#1AB975;" d="M309.151,156.247v307.43c0,21.69-17.59,39.28-39.28,39.28h-109.55c-21.69,0-39.28-17.59-39.28-39.28
		v-307.43c0-21.69,17.59-39.28,39.28-39.28h109.55C291.561,116.967,309.151,134.557,309.151,156.247z"/>
	<path style="fill:#127D4F;" d="M177.991,354.327c0,10.78-5.9,20.19-14.64,25.16c-4.22,2.42-9.1,3.79-14.31,3.79
		c-15.99,0-28.95-12.96-28.95-28.95s12.96-28.95,28.95-28.95c5.21,0,10.09,1.37,14.31,3.79
		C172.091,334.137,177.991,343.547,177.991,354.327z"/>
	<path style="fill:#127D4F;" d="M266.281,354.327c0,10.78-5.89,20.19-14.64,25.16c-4.22,2.42-9.11,3.79-14.31,3.79
		c-15.99,0-28.95-12.96-28.95-28.95s12.96-28.95,28.95-28.95c5.2,0,10.09,1.37,14.31,3.79
		C260.391,334.137,266.281,343.547,266.281,354.327z"/>
	<path style="fill:#127D4F;" d="M177.991,441.167c0,10.78-5.9,20.2-14.64,25.17c-4.22,2.42-9.1,3.79-14.31,3.79
		c-15.99,0-28.95-12.97-28.95-28.96c0-15.98,12.96-28.95,28.95-28.95c5.21,0,10.09,1.37,14.31,3.79
		C172.091,420.977,177.991,430.387,177.991,441.167z"/>
	<path style="fill:#127D4F;" d="M266.281,441.167c0,10.78-5.89,20.19-14.64,25.17c-4.22,2.42-9.11,3.79-14.31,3.79
		c-15.99,0-28.95-12.97-28.95-28.96c0-15.98,12.96-28.95,28.95-28.95c5.2,0,10.09,1.37,14.31,3.79
		C260.391,420.987,266.281,430.387,266.281,441.167z"/>
	<path style="fill:#169B62;" d="M177.991,354.327c0,10.78-5.9,20.19-14.64,25.16c-8.74-4.97-14.64-14.38-14.64-25.16
		s5.9-20.19,14.64-25.16C172.091,334.137,177.991,343.547,177.991,354.327z"/>
	<path style="fill:#169B62;" d="M266.281,354.327c0,10.78-5.89,20.19-14.64,25.16c-8.75-4.97-14.64-14.38-14.64-25.16
		s5.89-20.19,14.64-25.16C260.391,334.137,266.281,343.547,266.281,354.327z"/>
	<path style="fill:#169B62;" d="M177.991,441.167c0,10.78-5.9,20.2-14.64,25.17c-8.74-4.97-14.64-14.39-14.64-25.17
		c0-10.78,5.9-20.19,14.64-25.16C172.091,420.977,177.991,430.387,177.991,441.167z"/>
	<path style="fill:#169B62;" d="M266.281,441.167c0,10.78-5.89,20.19-14.64,25.17c-8.75-4.98-14.64-14.39-14.64-25.17
		c0-10.78,5.89-20.18,14.64-25.16C260.391,420.987,266.281,430.387,266.281,441.167z"/>
	<path style="fill:#127D4F;" d="M237.661,226.827c0,19.44-12.46,35.96-29.83,42.01c-4.58,1.6-9.51,2.47-14.64,2.47
		c-24.57,0-44.48-19.91-44.48-44.48c0-24.56,19.91-44.47,44.48-44.47c5.13,0,10.06,0.87,14.64,2.47
		C225.201,190.877,237.661,207.397,237.661,226.827z"/>
	<path style="fill:#169B62;" d="M237.661,226.827c0,19.44-12.46,35.96-29.83,42.01c-17.37-6.04-29.84-22.57-29.84-42.01
		c0-19.43,12.47-35.96,29.84-42C225.201,190.877,237.661,207.397,237.661,226.827z"/>
	<g>
		<path style="fill:#106E46;" d="M181.119,171.066l12.062-11.085c11.206,9.544,12.281,13.063,17.15,13.063
			c6.79,0,10.117-8.397,5.073-13.025l-17.155-15.745c-2.87-2.634-7.278-2.633-10.146,0.003l-17.134,15.745
			c-3.05,2.803-3.25,7.547-0.447,10.598C173.324,173.668,178.07,173.867,181.119,171.066z"/>
		<path style="fill:#106E46;" d="M205.258,282.597l-12.062,11.085l-12.081-11.088c-3.052-2.802-7.797-2.598-10.597,0.454
			c-2.801,3.052-2.598,7.796,0.454,10.597c16.631,14.44,17.215,17.72,22.227,17.72c5.018,0,5.617-3.3,22.209-17.723
			c3.05-2.803,3.25-7.547,0.447-10.598C213.052,279.993,208.307,279.794,205.258,282.597z"/>
		<path style="fill:#106E46;" d="M275.743,221.745l-15.744-17.133c-2.804-3.05-7.549-3.25-10.598-0.447
			c-3.05,2.803-3.25,7.547-0.447,10.598l11.084,12.061l-11.087,12.081c-4.413,4.809-0.953,12.571,5.523,12.571
			c2.027,0,4.049-0.817,5.527-2.429l15.744-17.155C278.38,229.021,278.379,224.613,275.743,221.745z"/>
		<path style="fill:#106E46;" d="M126.339,226.84l11.088-12.081c2.801-3.052,2.598-7.796-0.454-10.597
			c-3.052-2.803-7.797-2.599-10.597,0.454l-15.745,17.155c-2.634,2.87-2.633,7.278,0.003,10.146l15.745,17.133
			c2.808,3.054,7.552,3.245,10.598,0.447c3.05-2.803,3.25-7.548,0.447-10.598L126.339,226.84z"/>
	</g>
	<g>
		<path style="fill:#35E298;" d="M267.187,4.418c-4.001,1.073-6.375,5.186-5.302,9.187c1.073,4.002,5.192,6.379,9.187,5.302
			c83.773-22.464,160.104,56.002,134.66,139.284c-1.21,3.961,1.021,8.154,4.981,9.364c0.73,0.223,1.468,0.329,2.194,0.329
			c3.211,0,6.183-2.079,7.17-5.311C448.982,67.964,362.238-21.07,267.187,4.418z"/>
		<path style="fill:#35E298;" d="M267.966,38.659c-3.969,1.188-6.223,5.367-5.036,9.335c1.187,3.969,5.366,6.217,9.335,5.036
			c62.408-18.67,120.142,40.527,99.372,102.629c-1.313,3.929,0.807,8.178,4.734,9.492c0.789,0.264,1.592,0.389,2.38,0.389
			c3.138,0,6.063-1.984,7.112-5.123C410.509,86.718,341.919,16.537,267.966,38.659z"/>
		<path style="fill:#35E298;" d="M268.737,74.044c-3.924,1.325-6.031,5.582-4.705,9.506c1.325,3.925,5.58,6.029,9.506,4.705
			c40.246-13.598,77.529,25.545,63.105,64.78c-1.43,3.888,0.563,8.198,4.451,9.627c0.854,0.314,1.728,0.463,2.587,0.463
			c3.055,0,5.925-1.88,7.04-4.914C369.455,107.253,320.992,56.393,268.737,74.044z"/>
	</g>
</g>
<g>
</g>
<g>
</g>
<g>
</g>
<g>
</g>
<g>
</g>
<g>
</g>
<g>
</g>
<g>
</g>
<g>
</g>
<g>
</g>
<g>
</g>
<g>
</g>
<g>
</g>
<g>
</g>
<g>
</g>
</svg>
