<svg version="1.1" id="Layer_1" xmlns="http://www.w3.org/2000/svg" x="0" y="0" viewBox="0 0 512 512" style="enable-background:new 0 0 512 512" xml:space="preserve"><path style="fill:#fff" d="M326.805 216.129 212.416 101.74 98.028 216.129H23.235v233.177h387.162V216.129h-83.592z"/><path style="fill:#b3d8f4" d="M159.347 292.571h114.939v156.735H159.347z"/><path style="fill:#3d9ae2" d="M7.837 62.144v153.985h90.191L212.416 101.74l114.389 114.389h98.991V62.144z"/><path style="fill:#fff" d="M97.583 105.639h15.673v15.673H97.583zM95.828 86.836l-52.795 47.956V31.347h52.795z"/><circle style="fill:#3d9ae2" cx="446.61" cy="308.924" r="15.032"/><circle style="fill:#3d9ae2" cx="409.746" cy="363.541" r="15.032"/><circle style="fill:#3d9ae2" cx="489.127" cy="254.318" r="15.032"/><circle style="fill:#3d9ae2" cx="332.163" cy="309.426" r="15.032"/><path d="M282.122 284.735H151.51V441.47H31.075V223.965h70.198l111.144-111.143L323.56 223.965h78.997v69.932h15.673v-69.932h15.402V54.308H103.664V23.51H35.196v30.797H0v169.659h15.402v233.176h336.311v-15.673h-69.59V284.735zm135.837-76.443h-87.907l-35.654-35.654h27.504v-15.673h-43.177l-35.652-35.652H417.96v86.979zM50.87 39.184h37.121v44.185L50.87 117.087V39.184zM15.673 69.981h19.523v82.517l68.468-62.192V69.981h314.295v35.658H227.398l-14.981-14.982-14.982 14.982h-63.281v15.673h47.608l-35.652 35.652H15.673V69.981zm0 102.657h114.762l-35.654 35.654H15.673v-35.654zm250.776 268.831h-99.265V300.408h99.265v141.061z"/><path d="M409.749 340.677c-12.61 0-22.869 10.259-22.869 22.869 0 9.859 6.27 18.279 15.032 21.485V488.49h15.673V385.03c8.761-3.206 15.032-11.627 15.032-21.485.001-12.61-10.258-22.868-22.868-22.868zm0 30.064c-3.967 0-7.195-3.228-7.195-7.195s3.228-7.195 7.195-7.195 7.195 3.228 7.195 7.195c.001 3.968-3.227 7.195-7.195 7.195z"/><path d="M489.131 231.445c-12.61 0-22.869 10.259-22.869 22.869 0 9.86 6.272 18.281 15.035 21.486l-.003 121.152-26.842 26.843v-93.38c8.761-3.206 15.032-11.627 15.032-21.484 0-12.61-10.259-22.869-22.869-22.869s-22.869 10.259-22.869 22.869c0 9.859 6.27 18.278 15.032 21.485V488.49h15.673v-42.53l42.516-42.517.003-127.646c8.76-3.206 15.029-11.625 15.029-21.483.001-12.61-10.258-22.869-22.868-22.869zm-42.517 84.679c-3.967 0-7.195-3.228-7.195-7.195s3.228-7.195 7.195-7.195 7.195 3.228 7.195 7.195-3.227 7.195-7.195 7.195zm42.517-54.615c-3.967 0-7.195-3.228-7.195-7.195s3.228-7.195 7.195-7.195 7.195 3.228 7.195 7.195c.001 3.967-3.227 7.195-7.195 7.195zM339.992 330.916c8.764-3.205 15.035-11.627 15.035-21.486 0-12.61-10.259-22.869-22.869-22.869s-22.869 10.259-22.869 22.869c0 9.857 6.268 18.276 15.029 21.483l.003 72.529 42.516 42.517v42.53h15.673v-49.021l-42.516-42.517-.002-66.035zm-7.834-14.29c-3.967 0-7.195-3.228-7.195-7.195s3.228-7.195 7.195-7.195 7.195 3.228 7.195 7.195c.001 3.967-3.227 7.195-7.195 7.195z"/><path style="fill:#fff" d="M379.371 156.965h15.673v15.673h-15.673zM342.8 156.965h15.673v15.673H342.8z"/></svg>