<svg aria-hidden="true" style="width:0;height:0;position:absolute;overflow:hidden" xmlns="http://www.w3.org/2000/svg"><defs><symbol id="icon-youtube" viewBox="0 0 32 32"><path fill="#cf2200" style="fill:var(--color1,#cf2200)" d="M4 0h24a4 4 0 0 1 4 4v24a4 4 0 0 1-4 4H4a4 4 0 0 1-4-4V4a4 4 0 0 1 4-4z"/><path fill="#fff" style="fill:var(--color2,#fff)" d="M23.206 21.787h-1.372l.006-.797c0-.354.291-.644.646-.644h.087c.356 0 .648.29.648.644l-.016.797zm-5.147-1.708c-.348 0-.633.234-.633.52v3.876c0 .286.285.519.633.519.349 0 .634-.233.634-.519v-3.876c0-.287-.285-.52-.634-.52zm8.358-2.168v7.373c0 1.769-1.534 3.216-3.408 3.216H8.993c-1.875 0-3.409-1.447-3.409-3.216v-7.373c0-1.769 1.533-3.216 3.409-3.216h14.016c1.874 0 3.408 1.447 3.408 3.216zm-16.49 8.174v-7.767l1.738.001v-1.151l-4.632-.007v1.131l1.446.004v7.789h1.449zm5.208-6.61h-1.449v4.148c0 .6.036.9-.003 1.006-.118.322-.647.663-.854.035-.035-.11-.004-.442-.005-1.012l-.006-4.176h-1.441l.004 4.11c0 .63-.014 1.1.005 1.314.035.377.023.817.373 1.067.652.47 1.901-.07 2.213-.741l-.003.856 1.163.001v-6.608zm4.634 4.749-.003-3.452c0-1.316-.985-2.104-2.321-1.039l.006-2.566-1.447.002-.007 8.858 1.19-.017.108-.552c1.521 1.395 2.477.439 2.475-1.234zm4.534-.457-1.086.006c0 .043-.003.093-.003.147v.606a.593.593 0 0 1-.594.588h-.213a.593.593 0 0 1-.594-.588v-1.594H24.3v-.936c0-.684-.017-1.368-.074-1.759-.178-1.237-1.914-1.434-2.792-.8a1.63 1.63 0 0 0-.608.818c-.124.356-.185.842-.185 1.459v2.058c0 3.422 4.156 2.938 3.661-.005zm-5.572-11.175a.988.988 0 0 0 .348.44c.156.109.355.164.593.164.209 0 .394-.056.555-.173s.296-.289.406-.52l-.027.568h1.615V6.204H20.95v5.344a.53.53 0 0 1-1.059 0V6.204h-1.327v4.632c0 .59.011.983.028 1.183.019.198.064.388.139.572zm-4.893-3.878c0-.659.055-1.174.164-1.545.11-.37.307-.667.594-.891.285-.225.651-.338 1.095-.338.374 0 .694.073.961.217.269.144.476.332.619.563.146.232.246.471.299.715.054.247.081.621.081 1.124v1.737c0 .637-.026 1.106-.075 1.403s-.155.575-.318.834a1.5 1.5 0 0 1-.622.571 1.978 1.978 0 0 1-.876.184c-.368 0-.678-.051-.934-.157s-.454-.265-.596-.476c-.143-.212-.243-.469-.303-.77s-.09-.752-.09-1.354V8.713zm1.265 2.728c0 .389.289.706.642.706s.641-.318.641-.706V7.786c0-.388-.288-.706-.641-.706s-.642.317-.642.706v3.656zm-4.469 1.845h1.523l.003-5.267 1.8-4.512h-1.666l-.957 3.351-.971-3.36H8.717l1.915 4.523.003 5.264z"/></symbol><symbol id="icon-facebook" viewBox="0 0 32 32"><path d="M28.715 1.467H3.285a1.823 1.823 0 0 0-1.817 1.817v25.43a1.823 1.823 0 0 0 1.817 1.817h13.677V19.292h-3.791v-4.401h3.791v-3.266c0-2.573.594-4.045 1.879-4.994 1.101-.813 2.535-.864 3.411-.838.938.029 3.758.188 3.758.188v3.986l-2.616-.025s-1.091-.038-1.5.584c-.349.534-.356 1.447-.356 1.447v2.894h4.291l-.483 4.426h-3.831V30.53h7.201a1.823 1.823 0 0 0 1.817-1.817V3.283a1.823 1.823 0 0 0-1.817-1.817z"/></symbol><symbol id="icon-messenger" viewBox="0 0 512 512"><path d="M256.55 8C116.52 8 8 110.34 8 248.57c0 72.3 29.71 134.78 78.07 177.94 8.35 7.51 6.63 11.86 8.05 58.23A19.92 19.92 0 0 0 122 502.31c52.91-23.3 53.59-25.14 62.56-22.7C337.85 521.8 504 423.7 504 248.57 504 110.34 396.59 8 256.55 8zm149.24 185.13-73 115.57a37.37 37.37 0 0 1-53.91 9.93l-58.08-43.47a15 15 0 0 0-18 0l-78.37 59.44c-10.46 7.93-24.16-4.6-17.11-15.67l73-115.57a37.36 37.36 0 0 1 53.91-9.93l58.06 43.46a15 15 0 0 0 18 0l78.41-59.38c10.44-7.98 24.14 4.54 17.09 15.62z"/></symbol><symbol id="icon-telegram" viewBox="0 0 496 512"><path d="M248 8C111.033 8 0 119.033 0 256s111.033 248 248 248 248-111.033 248-248S384.967 8 248 8Zm114.952 168.66c-3.732 39.215-19.881 134.378-28.1 178.3-3.476 18.584-10.322 24.816-16.948 25.425-14.4 1.326-25.338-9.517-39.287-18.661-21.827-14.308-34.158-23.215-55.346-37.177-24.485-16.135-8.612-25 5.342-39.5 3.652-3.793 67.107-61.51 68.335-66.746.153-.655.3-3.1-1.154-4.384s-3.59-.849-5.135-.5q-3.283.746-104.608 69.142-14.845 10.194-26.894 9.934c-8.855-.191-25.888-5.006-38.551-9.123-15.531-5.048-27.875-7.717-26.8-16.291q.84-6.7 18.45-13.7 108.446-47.248 144.628-62.3c68.872-28.647 83.183-33.623 92.511-33.789 2.052-.034 6.639.474 9.61 2.885a10.452 10.452 0 0 1 3.53 6.716 43.765 43.765 0 0 1 .417 9.769Z"/></symbol><symbol id="icon-viber" viewBox="0 0 512 512"><path d="M444 49.9C431.3 38.2 379.9.9 265.3.4c0 0-135.1-8.1-200.9 52.3C27.8 89.3 14.9 143 13.5 209.5c-1.4 66.5-3.1 191.1 117 224.9h.1l-.1 51.6s-.8 20.9 13 25.1c16.6 5.2 26.4-10.7 42.3-27.8 8.7-9.4 20.7-23.2 29.8-33.7 82.2 6.9 145.3-8.9 152.5-11.2 16.6-5.4 110.5-17.4 125.7-142 15.8-128.6-7.6-209.8-49.8-246.5zM457.9 287c-12.9 104-89 110.6-103 115.1-6 1.9-61.5 15.7-131.2 11.2 0 0-52 62.7-68.2 79-5.3 5.3-11.1 4.8-11-5.7 0-6.9.4-85.7.4-85.7-.1 0-.1 0 0 0-101.8-28.2-95.8-134.3-94.7-189.8 1.1-55.5 11.6-101 42.6-131.6 55.7-50.5 170.4-43 170.4-43 96.9.4 143.3 29.6 154.1 39.4 35.7 30.6 53.9 103.8 40.6 211.1zm-139-80.8c.4 8.6-12.5 9.2-12.9.6-1.1-22-11.4-32.7-32.6-33.9-8.6-.5-7.8-13.4.7-12.9 27.9 1.5 43.4 17.5 44.8 46.2zm20.3 11.3c1-42.4-25.5-75.6-75.8-79.3-8.5-.6-7.6-13.5.9-12.9 58 4.2 88.9 44.1 87.8 92.5-.1 8.6-13.1 8.2-12.9-.3zm47 13.4c.1 8.6-12.9 8.7-12.9.1-.6-81.5-54.9-125.9-120.8-126.4-8.5-.1-8.5-12.9 0-12.9 73.7.5 133 51.4 133.7 139.2zM374.9 329v.2c-10.8 19-31 40-51.8 33.3l-.2-.3c-21.1-5.9-70.8-31.5-102.2-56.5-16.2-12.8-31-27.9-42.4-42.4-10.3-12.9-20.7-28.2-30.8-46.6-21.3-38.5-26-55.7-26-55.7-6.7-20.8 14.2-41 33.3-51.8h.2c9.2-4.8 18-3.2 23.9 3.9 0 0 12.4 14.8 17.7 22.1 5 6.8 11.7 17.7 15.2 23.8 6.1 10.9 2.3 22-3.7 26.6l-12 9.6c-6.1 4.9-5.3 14-5.3 14s17.8 67.3 84.3 84.3c0 0 9.1.8 14-5.3l9.6-12c4.6-6 15.7-9.8 26.6-3.7 14.7 8.3 33.4 21.2 45.8 32.9 7 5.7 8.6 14.4 3.8 23.6z"/></symbol><symbol id="icon-whatsapp" viewBox="0 0 448 512"><path d="M380.9 97.1C339 55.1 283.2 32 223.9 32c-122.4 0-222 99.6-222 222 0 39.1 10.2 77.3 29.6 111L0 480l117.7-30.9c32.4 17.7 68.9 27 106.1 27h.1c122.3 0 224.1-99.6 224.1-222 0-59.3-25.2-115-67.1-157zm-157 341.6c-33.2 0-65.7-8.9-94-25.7l-6.7-4-69.8 18.3L72 359.2l-4.4-7c-18.5-29.4-28.2-63.3-28.2-98.2 0-101.7 82.8-184.5 184.6-184.5 49.3 0 95.6 19.2 130.4 54.1 34.8 34.9 56.2 81.2 56.1 130.5 0 101.8-84.9 184.6-186.6 184.6zm101.2-138.2c-5.5-2.8-32.8-16.2-37.9-18-5.1-1.9-8.8-2.8-12.5 2.8-3.7 5.6-14.3 18-17.6 21.8-3.2 3.7-6.5 4.2-12 1.4-32.6-16.3-54-29.1-75.5-66-5.7-9.8 5.7-9.1 16.3-30.3 1.8-3.7.9-6.9-.5-9.7-1.4-2.8-12.5-30.1-17.1-41.2-4.5-10.8-9.1-9.3-12.5-9.5-3.2-.2-6.9-.2-10.6-.2-3.7 0-9.7 1.4-14.8 6.9-5.1 5.6-19.4 19-19.4 46.3 0 27.3 19.9 53.7 22.6 57.4 2.8 3.7 39.1 59.7 94.8 83.8 35.2 15.2 49 16.5 66.6 13.9 10.7-1.6 32.8-13.4 37.4-26.4 4.6-13 4.6-24.1 3.2-26.4-1.3-2.5-5-3.9-10.5-6.6z"/></symbol><symbol id="icon-smart-home" viewBox="0 0 32 32"><path fill="#fff" style="fill:var(--color2,#fff)" d="m20.425 13.508-7.149-7.149-7.149 7.149H1.452v14.574H25.65V13.508h-5.224z"/><path fill="#b3d8f4" style="fill:var(--color15,#b3d8f4)" d="M9.959 18.286h7.184v9.796H9.959v-9.796z"/><path fill="#3d9ae2" style="fill:var(--color16,#3d9ae2)" d="M.49 3.884v9.624h5.637l7.149-7.149 7.149 7.149h6.187V3.884z"/><path fill="#fff" style="fill:var(--color2,#fff)" d="M6.099 6.602h.98v.98h-.98v-.98zM5.989 5.427l-3.3 2.997V1.959h3.3z"/><path fill="#3d9ae2" style="fill:var(--color16,#3d9ae2)" d="M28.853 19.308a.94.94 0 1 1-1.878 0 .94.94 0 0 1 1.878 0zM26.549 22.721a.94.94 0 1 1-1.878 0 .94.94 0 0 1 1.878 0zM31.51 15.895a.94.94 0 1 1-1.88 0 .94.94 0 0 1 1.88 0zM21.7 19.339a.94.94 0 1 1-1.878 0 .94.94 0 0 1 1.878 0z"/><path style="fill:var(--color4,#000)" d="M17.633 17.796H9.47v9.796H1.943V13.998H6.33l6.947-6.946 6.946 6.946h4.937v4.371h.98v-4.371h.963V3.394H6.48V1.469H2.201v1.925h-2.2v10.604h.963v14.573h21.019v-.98h-4.349v-9.796zm8.489-4.778h-5.494L18.4 10.79h1.719v-.98H17.42l-2.228-2.228h10.93v5.436zM3.179 2.449h2.32v2.762l-2.32 2.107V2.449zM.98 4.374H2.2v5.157l4.279-3.887v-1.27h19.643v2.229h-11.91l-.936-.936-.936.936H8.385v.98h2.976L9.133 9.811H.981V4.375zm0 6.416h7.173l-2.228 2.228H.981V10.79zm15.673 16.802h-6.204v-8.816h6.204v8.816z"/><path style="fill:var(--color4,#000)" d="M25.609 21.292a1.43 1.43 0 0 0-.49 2.772v6.466h.98v-6.466a1.43 1.43 0 0 0-.49-2.772zm0 1.879a.45.45 0 1 1 .001-.901.45.45 0 0 1-.001.901z"/><path style="fill:var(--color4,#000)" d="M30.571 14.465a1.43 1.43 0 0 0-.489 2.772v7.572l-1.678 1.678v-5.836a1.43 1.43 0 0 0-.49-2.772 1.43 1.43 0 0 0-.49 2.772v9.88h.98v-2.658l2.657-2.657v-7.978a1.43 1.43 0 0 0-.49-2.772zm-2.658 5.293a.45.45 0 1 1 .001-.901.45.45 0 0 1-.001.901zm2.658-3.414a.45.45 0 1 1 .001-.901.45.45 0 0 1-.001.901zM21.25 20.682a1.43 1.43 0 0 0-.489-2.772 1.43 1.43 0 0 0-.49 2.772v4.533l2.657 2.657v2.658h.98v-3.064l-2.657-2.657v-4.127zm-.49-.893a.45.45 0 1 1 .001-.901.45.45 0 0 1-.001.901z"/><path fill="#fff" style="fill:var(--color2,#fff)" d="M23.711 9.81h.98v.98h-.98v-.98zM21.425 9.81h.98v.98h-.98v-.98z"/></symbol><symbol id="icon-hamburger" viewBox="0 0 32 32"><path d="M6.4 11.733V9.6h19.2v2.133H6.4zm0 5.334h19.2v-2.133H6.4v2.133zm0 5.333h19.2v-2.133H6.4V22.4z"/></symbol><symbol id="icon-close" viewBox="0 0 40 40"><path d="M29.667 12.88 27.787 11l-7.454 7.453L12.88 11 11 12.88l7.453 7.453L11 27.787l1.88 1.88 7.453-7.454 7.454 7.454 1.88-1.88-7.454-7.454 7.454-7.453Z"/></symbol><symbol id="icon-send" viewBox="0 0 32 32"><path fill="#fff" style="fill:var(--color2,#fff)" d="M32 0 0 18l10.227 3.788L26 7 14.002 23.186l.01.004-.012-.004V32l5.735-6.691L27 28l5-28z"/></symbol><symbol id="icon-tel" viewBox="0 0 32 32"><path d="M23 0H9C7.346 0 6 1.346 6 3v26c0 1.654 1.346 3 3 3h14c1.654 0 3-1.346 3-3V3c0-1.654-1.346-3-3-3zM9 2h14a1 1 0 0 1 1 1v21H8V3a1 1 0 0 1 1-1zm14 28H9a1 1 0 0 1-1-1v-3h16v3a1 1 0 0 1-1 1z"/></symbol><symbol id="icon-iphone" viewBox="0 0 32 32"><path style="fill:var(--color4,#000)" d="M21.44 28.365H10.733a.963.963 0 0 1-.96-.96V4.595c0-.531.435-.96.96-.96H21.44c.531 0 .96.435.96.96v22.81c0 .531-.429.96-.96.96z"/><path fill="#fff" style="fill:var(--color2,#fff)" d="M10.682 6.163h10.797v18.816H10.682V6.163z"/><path fill="#fff" style="fill:var(--color2,#fff);stroke:var(--color2,#fff)" stroke="#fff" stroke-linecap="round" stroke-miterlimit="10" stroke-width=".384" d="M14.016 5.248h4.096"/><path fill="#fff" style="fill:var(--color2,#fff)" d="M17.107 26.675a1.056 1.056 0 1 1-2.113 0 1.056 1.056 0 0 1 2.113 0z"/></symbol><symbol id="icon-phone" viewBox="0 0 32 32"><path d="M28 21.893v4.716c0 .704-.545 1.28-1.236 1.33h-.004c-.583.04-1.059.061-1.427.061C13.55 28 4 18.449 4 6.667c0-.368.02-.844.061-1.427.05-.695.627-1.24 1.33-1.24H10.108c.345 0 .628.262.663.597V4.6c.031.307.059.551.085.736.291 1.99.855 3.787 1.659 5.445l-.048-.11a.607.607 0 0 1-.196.756l-2.877 2.056c1.796 4.114 5.012 7.329 9.014 9.082l.112.044 2.053-2.872a.615.615 0 0 1 .768-.197l-.004-.002a18.076 18.076 0 0 0 5.233 1.595l.101.012c.185.027.429.056.733.085a.668.668 0 0 1 .599.663v.001z"/></symbol><symbol id="icon-email" viewBox="0 0 32 32"><path fill="#757575" style="fill:var(--color17,#757575)" d="M29 4H3C1.346 4 0 5.346 0 7v18c0 1.654 1.346 3 3 3h26c1.654 0 3-1.346 3-3V7c0-1.654-1.346-3-3-3zm0 2c.136 0 .265.028.383.077L16 17.676 2.617 6.077A.996.996 0 0 1 3 6h26zm0 20H3a1 1 0 0 1-1-1V8.19l13.345 11.565a.998.998 0 0 0 1.31 0L30 8.19V25a1 1 0 0 1-1 1z"/></symbol><symbol id="icon-icon-mail" viewBox="0 0 32 32"><path d="M28 4H4a2.997 2.997 0 0 0-2.986 3L1 25c0 1.65 1.35 3 3 3h24c1.65 0 3-1.35 3-3V7c0-1.65-1.35-3-3-3zm-.6 6.376-10.604 6.628c-.226.141-.501.225-.795.225s-.569-.084-.801-.229l.006.004L4.6 10.374a1.275 1.275 0 1 1 1.354-2.157l-.005-.003 10.05 6.286 10.05-6.286a1.274 1.274 0 1 1 1.356 2.157l-.006.003z"/></symbol><symbol id="icon-icon-person" viewBox="0 0 32 32"><path d="M16 16a8 8 0 0 0 0-16 8 8 0 0 0 0 16zm0 4c-5.339 0-16 2.68-16 8v2c0 1.099.901 2 2 2h28c1.099 0 2-.901 2-2v-2c0-5.32-10.661-8-16-8z"/></symbol><symbol id="icon-table" viewBox="0 0 24 24"><g data-name="Google Sheets" id="Google_Sheets"><g data-name="&lt;Group&gt;" id="_Group_"><g data-name="&lt;Group&gt;" id="_Group_2"><path d="M20.5 5.5V22a1.5 1.5 0 0 1-1.5 1.5H5A1.5 1.5 0 0 1 3.5 22V2A1.5 1.5 0 0 1 5 .5h10.5Z" data-name="&lt;Path&gt;" id="_Path_" style="fill:none;stroke-linecap:round;stroke-linejoin:round"/><path d="M15.5.5V4A1.5 1.5 0 0 0 17 5.5h3.5" data-name="&lt;Path&gt;" id="_Path_2" style="fill:none;stroke-linecap:round;stroke-linejoin:round"/></g><path data-name="&lt;Rectangle&gt;" id="_Rectangle_" style="fill:none;stroke-linecap:round;stroke-linejoin:round" d="M7.5 9.5h9v9h-9z"/><path data-name="&lt;Path&gt;" id="_Path_3" style="fill:none;stroke-linecap:round;stroke-linejoin:round" d="M7.5 12.5h9"/><path data-name="&lt;Path&gt;" id="_Path_4" style="fill:none;stroke-linecap:round;stroke-linejoin:round" d="M7.5 15.5h9"/><path data-name="&lt;Path&gt;" id="_Path_5" style="fill:none;stroke-linecap:round;stroke-linejoin:round" d="M11 9.5v9"/></g></g></symbol></defs></svg>