<svg xmlns="http://www.w3.org/2000/svg"><defs><font id="YesevaOne" horiz-adv-x="617"><font-face font-family="Yeseva One" panose-1="0 0 5 0 0 0 0 0 0 0" ascent="915" descent="-240" alphabetic="0"/><glyph glyph-name="space" horiz-adv-x="280"/><glyph unicode="!" glyph-name="exclam" horiz-adv-x="310" d="M60 600q0 52 27 83t68 32q40 0 67-31t28-84l-80-385h-30L60 600Zm65-610-22 23-23 57q0 33 22 56t53 24q30 0 52-23t23-57q0-33-22-56t-53-24q-30 0-52 23Z"/><glyph unicode="&quot;" glyph-name="quotedbl" horiz-adv-x="370" d="M45 640q0 33 16 51t44 19q27 0 43-18t17-52l-40-195H85L45 640Zm160 0q0 33 16 51t44 19q27 0 43-18t17-52l-40-195h-40l-40 195Z"/><glyph unicode="#" glyph-name="numbersign" horiz-adv-x="650" d="m85 0 47 185H20v50h125l59 230H70v50h147l48 185h60l-48-185h180l48 185h60l-48-185h113v-50H504l-59-230h135v-50H432L385 0h-60l47 185H192L145 0H85Zm120 235h180l59 230H264l-59-230Z"/><glyph unicode="$" glyph-name="dollar" horiz-adv-x="595" d="M290-15q-68 1-130 33-24 13-45 32-14-23-35-41Q62-4 60-5H35v190h40q15-49 42-88 61-87 158-87 12 0 15 1v255l-46 27q-65 38-104 67t-67 74-28 106q0 49 27 88t83 63 135 24v65h30v-68q56-10 94-35 20-12 36-27 17 26 35 41 18 13 20 14h25V515h-40q-14 48-37 84-23 37-56 62t-77 28V441q28-18 60-36 62-35 99-63t64-68 27-94q0-51-28-94t-84-69-138-31v-66h-30v65Zm0 702q-33-8-54-37t-21-70q0-36 19-64t56-55v226Zm67-658 21 31 22 75q0 33-21 60t-59 53V17q37 12 58 43Z"/><glyph unicode="%" glyph-name="percent" horiz-adv-x="750" d="m148 360-37 22-59 61-22 92q0 52 21 91t59 62 85 22q47 0 84-22t59-61 22-92q0-52-21-91t-59-62-85-22q-47 0-84 22ZM90 0l515 700h55L145 0H90Zm128 380 16 35 16 120q0 85-16 120t-39 35q-23 0-39-35t-16-120q0-85 16-120t39-35q23 0 39 35ZM508-10l-37 22-59 61-22 92q0 52 21 91t59 62 85 22q47 0 84-22t59-61 22-92q0-52-21-91t-59-62-85-22q-47 0-84 22Zm70 20 16 35 16 120q0 85-16 120t-39 35q-23 0-39-35t-16-120q0-85 16-120t39-35q23 0 39 35Z"/><glyph unicode="&amp;" glyph-name="ampersand" horiz-adv-x="690" d="M20-15v175q0 52 27 87t70 62q44 24 98 36l-55 80q-23 33-36 65t-14 70q0 43 23 78t70 56 112 21q53 0 102-33 21-14 38-32 17 26 35 41 18 13 20 14h25V515h-40q-13 45-37 87-24 39-53 63t-70 25q-31 0-53-24t-22-66q0-33 18-66t44-69l178-250q9 17 17 37 18 46 18 93l-80 30v15h185v-15l-80-30q0-50-22-108-12-28-21-47L630 30l50-15V0H540q-41 0-70 13t-45 37q-17-20-37-33-48-32-108-32Q20-15 20 160Zm321 25 38 30q20 16 31 30L230 325q-12-13-20-34-20-45-20-131 0-72 31-111t79-39q41 0 79 30Z"/><glyph unicode="'" glyph-name="quotesingle" horiz-adv-x="210" d="M45 640q0 33 16 51t44 19q27 0 43-18t17-52l-40-195H85L45 640Z"/><glyph unicode="(" glyph-name="parenleft" horiz-adv-x="355" d="M207-159 129-30 50 265q0 165 77 292t203 213l10-15q-59-77-89-205t-31-285q0-157 30-285t90-205l-10-15Q207-159 129-30Z"/><glyph unicode=")" glyph-name="parenright" horiz-adv-x="355" d="M15-225q59 77 89 205t31 285q0 157-30 285T15 755l10 15q125-85 202-212t78-293q0-165-78-294T25-240l-10 15Z"/><glyph unicode="*" glyph-name="asterisk" horiz-adv-x="390" d="m176 370-13 13-13 32 30 100-70-75q-11-7-27-7-13 0-23 5t-15 17q-5 12-5 21 0 12 6 22t19 17l100 25-100 25q-12 6-18 16t-7 23q0 21 12 32t31 11q16 0 27-7l70-75-30 100q0 19 13 32t32 13q19 0 32-13t13-32l-30-100 70 75q11 7 27 7 13 0 23-5t15-17q5-12 5-21 0-12-6-22t-19-17l-100-25 100-25q12-6 18-16t7-23q0-21-12-32t-31-11q-16 0-27 7l-70 75 30-100q0-19-13-32t-32-13q-19 0-32 13Z"/><glyph unicode="+" glyph-name="plus" horiz-adv-x="515" d="M235 95v215H35v45h200v215h45V355h200v-45H280V95h-45Z"/><glyph unicode="," glyph-name="comma" horiz-adv-x="245" d="M70-105q21 7 42 23 43 32 53 87l-13-8q-13-7-32-7-30 0-52 22T45 65q0 30 22 52t53 23q35 0 57-24t23-66q0-92-60-144-26-24-60-36l-10 25Z"/><glyph unicode="-" glyph-name="hyphen" horiz-adv-x="470" d="M35 300v45h400v-45H35Z"/><glyph unicode="." glyph-name="period" horiz-adv-x="240" d="M90-10 68 12 45 65q0 30 22 52t53 23q30 0 52-22t23-53q0-30-22-52t-53-23q-30 0-52 22Z"/><glyph unicode="/" glyph-name="slash" horiz-adv-x="350" d="m-20-50 345 800h45L25-50h-45Z"/><glyph unicode="0" glyph-name="zero" horiz-adv-x="670" d="m254-15-66 43L84 153 45 350q0 114 38 196t105 126 147 43q81 0 147-43t104-125 39-197q0-114-38-196T482 28 335-15q-81 0-147 43ZM450 5v345q0 345-115 345T220 350Q220 5 335 5t115 345Z"/><glyph unicode="1" glyph-name="one" horiz-adv-x="415" d="M70 0v15l70 20v549L35 510l-20 25 182 165h108V35l70-20V0H70Z"/><glyph unicode="2" glyph-name="two" horiz-adv-x="575" d="M30 45q0 59 23 107t58 85 89 85q51 45 80 75t49 69 20 84q0 66-32 103t-83 37q-29 0-59-8l-21-7V515l-13-3q-16-2-27-2-34 0-54 20t-21 55q0 32 24 62t73 49 118 19q135 0 200-54t65-151q0-61-31-105t-77-73-122-66q-64-31-103-54t-73-57-48-75h370q7 54 34 90 11 17 26 30h30V0H30v45Z"/><glyph unicode="3" glyph-name="three" horiz-adv-x="585" d="M171-15 123 4 50 53l-25 62q0 34 20 54t55 21q8 0 16-1t11-2l13-2V25q1 0 21-8 26-7 59-7 70 0 107 42t38 128q0 87-36 131t-99 44h-50v25h50q45 0 75 40t30 115q0 75-31 115t-79 40q-26 0-50-8-3-1-20-7V515l-13-3q-16-2-27-2-34 0-54 20t-21 55q0 31 24 61t70 49 111 20q84 0 142-24t88-66 30-90q0-57-29-90t-76-54q-46-18-105-21v-5q66-3 120-23 120-48 120-162 0-88-72-141T240-15q-69 0-117 19Z"/><glyph unicode="4" glyph-name="four" horiz-adv-x="600" d="M235 0v15l70 20v150H20L0 215l375 495h95V230h105v-45H470V35l70-20V0H235ZM55 230h250v330L55 230Z"/><glyph unicode="5" glyph-name="five" horiz-adv-x="570" d="M181-15 133 4 60 53l-25 62q0 34 20 54t55 21q8 0 16-1t11-2l13-2V25q1 0 21-8 26-7 59-7 60 0 95 49t35 156q0 105-36 152t-104 48q-26 0-49-9t-49-24q-21-13-42-32l-20 15 40 335h295q7 54 34 90 11 17 26 30h30V625H122L95 395q14 10 41 22 56 23 104 23 146 0 218-59t72-166q0-108-71-169T250-15q-69 0-117 19Z"/><glyph unicode="6" glyph-name="six" horiz-adv-x="620" d="m194-15-72 90-72 275q0 180 78 272t217 93q59 0 103-19t68-50 24-61q0-34-20-54t-55-21q-14 0-28 2l-12 3v160l-19 7q-22 8-41 8-49 0-80-26t-48-96-17-198q11 17 27 30 38 30 88 30 73 0 127-27t84-77 29-111q0-107-66-168T320-15q-126 0-198 90ZM340 5l19 20 33 65 13 115q0 70-13 115t-34 65-43 20q-41 0-65-40t-25-125q0-127 27-181t68-54q20 0 39 20Z"/><glyph unicode="7" glyph-name="seven" horiz-adv-x="530" d="m145 99 27 76 67 131 102 124q55 60 86 102t48 93H120q-7-54-34-90-11-17-26-30H30v195h475v-45q0-56-17-104t-55-124q-36-71-58-126t-39-131T320 0H145q0 99 27 175Z"/><glyph unicode="8" glyph-name="eight" horiz-adv-x="615" d="m169-15-64 50-65 130q0 55 48 106t117 74q-66 37-100 81T70 535q0 80 64 130t191 50q63 0 110-23t74-60 26-77q0-47-40-91t-95-59q91-40 138-95t47-135q0-52-32-95t-97-69-161-26q-126 0-190 50Zm239 457 23 32 24 81q0 36-17 67t-45 49-58 19q-43 0-71-33t-29-92q0-80 135-140 38 17 61 49ZM349 10l35 35 36 100q0 48-48 97t-127 83q-56-20-88-59t-32-101q0-42 21-77t58-57 81-21q64 0 99 35Z"/><glyph unicode="9" glyph-name="nine" horiz-adv-x="620" d="M216-15 172 4l-68 50-24 61q0 34 20 54t55 21q8 0 16-1t11-2l13-2V25l19-8q18-7 41-7 49 0 80 26t48 96 17 198q-9-15-28-30-38-30-87-30-73 0-127 27t-84 77-29 111q0 107 66 168t189 62q126 0 198-90t72-275q0-180-78-272T275-15q-59 0-103 19Zm130 310 24 40 25 125q0 127-27 181t-68 54q-20 0-39-20t-33-65-13-115q0-70 13-115t34-65 43-20q41 0 65 40Z"/><glyph unicode=":" glyph-name="colon" horiz-adv-x="240" d="m90 360-22 22-23 53q0 30 22 52t53 23q30 0 52-22t23-53q0-30-22-52t-53-23q-30 0-52 22Zm0-370L68 12 45 65q0 30 22 52t53 23q30 0 52-22t23-53q0-30-22-52t-53-23q-30 0-52 22Z"/><glyph unicode=";" glyph-name="semicolon" horiz-adv-x="245" d="m90 360-22 22-23 53q0 30 22 52t53 23q30 0 52-22t23-53q0-30-22-52t-53-23q-30 0-52 22ZM70-105q21 7 42 23 43 32 53 87l-13-8q-13-7-32-7-30 0-52 22T45 65q0 30 22 52t53 23q35 0 57-24t23-66q0-92-60-144-26-24-60-36l-10 25Z"/><glyph unicode="&lt;" glyph-name="less" horiz-adv-x="505" d="M470 0 25 250l445 250v-55L125 250 470 55V0Z"/><glyph unicode="=" glyph-name="equal" horiz-adv-x="460" d="M35 385v45h390v-45H35Zm0-150v45h390v-45H35Z"/><glyph unicode="&gt;" glyph-name="greater" horiz-adv-x="505" d="M35 0v55l345 195L35 445v55l445-250L35 0Z"/><glyph unicode="?" glyph-name="question" horiz-adv-x="560" d="M225 310q61 24 93 70t32 130q0 96-34 138t-106 42q-29 0-59-8l-21-7V515l-13-3q-16-2-27-2-34 0-54 20t-21 55q0 32 24 62t73 49 118 19q146 0 220-57t75-148q0-85-62-141t-188-74l-5-80h-40l-5 95ZM215-10l-22 23-23 57q0 33 22 56t53 24q30 0 52-23t23-57q0-33-22-56t-53-24q-30 0-52 23Z"/><glyph unicode="@" glyph-name="at" horiz-adv-x="840" d="m316-100-87 51L91 92 40 290q0 108 51 197t138 141 191 52q104 0 191-51t138-141 51-198q0-65-23-114t-61-75-81-26q-94 0-136 40-18 18-24 40-7-22-21-40-32-40-89-40-73 0-119 50t-46 135q0 114 65 177t190 63h145V175q0-37 15-56t40-19q24 0 49 22t43 66 18 102q0 100-46 182T593 602t-173 48q-94 0-173-47T122 473 75 290q0-100 46-182T247-22t173-48q66 0 136 30 30 14 54 30l15-25q-24-19-58-33-72-32-147-32-104 0-191 51Zm111 210 16 30q8 14 12 30v305q-110 0-110-215 0-80 17-115t43-35q22 0 38 30Z"/><glyph unicode="A" glyph-name="A" horiz-adv-x="680" d="m-20 15 80 30 275 665h30L650 30l50-15V0H580q-52 0-85 23t-49 62l-51 120H156L90 45l75-30V0H-20v15Zm186 215h219L275 493 166 230Z"/><glyph unicode="B" glyph-name="B" horiz-adv-x="680" d="m50 15 60 15v640l-60 15v15h270q152 0 223-48t72-127q0-54-31-87t-79-49q-51-18-110-19v-5q73-3 127-22 55-18 91-56t37-97q0-89-73-139T340 0H50v15Zm270 365q33 0 61 18t46 52 18 75q0 44-17 78t-46 53-62 19h-45V380h45Zm20-355q62 0 101 44t39 121q0 77-39 121t-101 44h-65V25h65Z"/><glyph unicode="C" glyph-name="C" horiz-adv-x="650" d="m225-15-90 95-90 270q0 115 39 197t111 125 166 43q57 0 115-33 22-12 44-32 17 26 35 41 18 13 20 14h25V515h-40q-13 48-39 87-24 38-59 63t-82 25q-69 0-114-80t-46-260q0-183 49-261t136-79q47 0 89 26t69 71 27 93h25q0-57-30-106t-83-79-117-30q-160 0-250 95Z"/><glyph unicode="D" glyph-name="D" horiz-adv-x="715" d="m50 15 60 15v640l-60 15v15h255q179 0 274-92t96-258q0-166-95-258T305 0H50v15Zm255 10q93 0 144 75t51 250q0 174-51 249t-144 76h-30V25h30Z"/><glyph unicode="E" glyph-name="E" horiz-adv-x="645" d="m50 15 60 15v640l-60 15v15h535V520h-30q-19 15-33 38-32 54-32 117H275V360h115q7 38 26 71 8 15 19 29h30V235h-30q-11 14-19 29-19 33-26 71H275V25h235q0 63 32 117 14 23 33 38h30V0H50v15Z"/><glyph unicode="F" glyph-name="F" horiz-adv-x="610" d="m50 15 60 15v640l-60 15v15h535V520h-30q-19 15-33 38-32 54-32 117H275V360h115q7 38 26 71 8 15 19 29h30V235h-30q-11 14-19 29-19 33-26 71H275V30l60-15V0H50v15Z"/><glyph unicode="G" glyph-name="G" horiz-adv-x="700" d="m249-15-64 43L83 153 45 350q0 115 39 197t111 125 166 43q57 0 115-33 22-12 44-32 17 26 35 41 18 13 20 14h25V515h-40q-13 48-39 87-24 38-59 63t-82 25q-69 0-114-80t-46-260q0-180 40-255t105-75q37 0 67 40 11 15 23 40v230l-60 15v15h285v-15l-60-15V-5h-15q-73 0-111 40-17 18-24 40-14-25-33-45-45-45-112-45-76 0-140 43Z"/><glyph unicode="H" glyph-name="H" horiz-adv-x="765" d="M50 0v15l60 15v640l-60 15v15h285v-15l-60-15V360h215v310l-60 15v15h285v-15l-60-15V30l60-15V0H430v15l60 15v305H275V30l60-15V0H50Z"/><glyph unicode="I" glyph-name="I" horiz-adv-x="385" d="M50 0v15l60 15v640l-60 15v15h285v-15l-60-15V30l60-15V0H50Z"/><glyph unicode="J" glyph-name="J" horiz-adv-x="550" d="M93-15 47 17 0 95q0 34 20 54t55 21q8 0 16-1t11-2l13-2V15q7-4 14-5 17-5 36-5 120 0 120 195v470l-60 15v15h285v-15l-60-15V200q0-104-65-159T185-15Q93-15 47 17Z"/><glyph unicode="K" glyph-name="K" horiz-adv-x="690" d="m50 15 60 15v640l-60 15v15h285v-15l-60-15V356l245 299-75 30v15h190v-15l-80-30-175-215L650 30l50-15V0H560q-45 0-76 22t-59 63L275 315V30l60-15V0H50v15Z"/><glyph unicode="L" glyph-name="L" horiz-adv-x="610" d="m50 15 60 15v640l-60 15v15h285v-15l-60-15V25h215q0 63 32 117 14 23 33 38h30V0H50v15Z"/><glyph unicode="M" glyph-name="M" horiz-adv-x="985" d="M140 575V45l80-30V0H30v15l80 30v625l-60 15v15h125q52 0 82-21t53-64l218-417 167 417q17 44 46 64t89 21h105v-15l-60-15V30l60-15V0H650v15l60 15v545L475-10h-30L140 575Z"/><glyph unicode="N" glyph-name="N" horiz-adv-x="740" d="M140 530V45l80-30V0H30v15l80 30v620l-70 20v15h105q53 0 83-19t57-51l320-375v400l-80 30v15h190v-15l-80-30V-15h-30L140 530Z"/><glyph unicode="O" glyph-name="O" horiz-adv-x="740" d="m272-15-73 42L85 152 45 350q0 116 40 198t113 124 172 43q98 0 171-42t114-125 40-198q0-116-40-198T542 28 370-15q-98 0-171 42ZM409 5l33 33 56 110 22 202q0 125-22 202t-55 110-73 33q-39 0-72-33t-56-110-22-202q0-125 22-202t55-110 73-33q39 0 72 33Z"/><glyph unicode="P" glyph-name="P" horiz-adv-x="675" d="m50 15 60 15v640l-60 15v15h280q166 0 238-54t72-161q0-106-72-160t-238-55h-55V30l60-15V0H50v15Zm280 280q63 0 101 48t39 142q0 93-38 141t-102 49h-55V295h55Z"/><glyph unicode="Q" glyph-name="Q" horiz-adv-x="740" d="m416-170-41 21-63 59-22 85Q175 19 110 110T45 350q0 116 40 198t113 124 172 43q98 0 171-42t114-125 40-198q0-148-65-239T450-5q0-135 50-135 14 0 22 5 1 0 8 5l10-25q-4-3-16-8-18-7-54-7-54 0-95 21ZM409 5l33 33 56 110 22 202q0 125-22 202t-55 110-73 33q-39 0-72-33t-56-110-22-202q0-125 22-202t55-110 73-33q39 0 72 33Z"/><glyph unicode="R" glyph-name="R" horiz-adv-x="700" d="m50 15 60 15v640l-60 15v15h265q170 0 245-51t75-144q0-62-33-100t-85-58q-55-21-117-22v-5q37-2 65-11 70-22 95-79l90-200 50-15V0H560q-82 0-120 85L340 310h-65V30l70-15V0H50v15Zm265 320q70 0 110 44t40 126q0 82-40 126t-110 44h-40V335h40Z"/><glyph unicode="S" glyph-name="S" horiz-adv-x="595" d="m224-15-62 32q-28 14-47 33-14-23-35-41Q62-4 60-5H35v190h40q15-49 42-88 61-87 158-87 57 0 91 34t34 91q0 33-19 59t-49 46-81 50q-66 37-107 67t-70 75-29 108q0 49 27 88t83 63 135 24q58 0 116-33 22-12 44-32 17 26 35 41 18 13 20 14h25V515h-40q-13 48-39 87-24 38-59 63t-82 25q-39 0-67-31t-28-79q0-37 21-66t53-52 86-53q63-36 102-64t66-69 27-96q0-54-31-98t-93-71-151-26q-71 0-133 32Z"/><glyph unicode="T" glyph-name="T" horiz-adv-x="635" d="m175 15 60 15v645H120q0-61-33-117-14-23-32-38H25v180h585V520h-30q-19 15-33 38-32 54-32 117H400V30l60-15V0H175v15Z"/><glyph unicode="U" glyph-name="U" horiz-adv-x="710" d="m247-15-76 69-76 196v420l-60 15v15h285v-15l-60-15V250q0-129 40-184t115-56q46 0 87 29t67 84 26 127v405l-80 30v15h190v-15l-80-30V250q0-81-30-141t-82-92-118-32q-148 0-224 69Z"/><glyph unicode="V" glyph-name="V" horiz-adv-x="665" d="m30 670-50 15v15h120q52 0 85-23t50-62l177-403 163 443-75 30v15h185v-15l-80-30L360-10h-30L30 670Z"/><glyph unicode="W" glyph-name="W" horiz-adv-x="985" d="m35 675-55 10v15h120q53 0 87-24t48-61l151-385 88 258-74 187-55 10v15h120q53 0 86-23t49-62l151-385 144 425-75 30v15h185v-15l-80-30L700-10h-30L490 447 335-10h-30L35 675Z"/><glyph unicode="X" glyph-name="X" horiz-adv-x="665" d="m15 15 80 30 170 251L45 670l-50 15v15h145q50 0 79-21t56-64l96-164 139 204-75 30v15h190v-15l-80-30-157-231L620 30l50-15V0H525q-49 0-79 21t-56 64L282 268 130 45l75-30V0H15v15Z"/><glyph unicode="Y" glyph-name="Y" horiz-adv-x="665" d="m195 15 60 15v230L50 670 0 685v15h125q52 0 83-22t52-63l148-295 152 335-75 30v15h190v-15l-80-30-175-385V30l60-15V0H195v15Z"/><glyph unicode="Z" glyph-name="Z" horiz-adv-x="635" d="m40 25 371 650H150q0-61-33-117-14-23-32-38H55v180h540v-25L225 25h270q0 63 32 117 14 23 33 38h30V0H40v25Z"/><glyph unicode="[" glyph-name="bracketleft" horiz-adv-x="350" d="M85-220v940h255v-25h-95v-890h95v-25H85Z"/><glyph unicode="\" glyph-name="backslash" horiz-adv-x="350" d="M325-50-20 750h45L370-50h-45Z"/><glyph unicode="]" glyph-name="bracketright" horiz-adv-x="350" d="M10-220v25h95v890H10v25h255v-940H10Z"/><glyph unicode="^" glyph-name="asciicircum" horiz-adv-x="480" d="m30 430 210 290 210-290h-60L240 635 90 430H30Z"/><glyph unicode="_" glyph-name="underscore" horiz-adv-x="390" d="M0-100v45h390v-45H0Z"/><glyph unicode="`" glyph-name="grave" horiz-adv-x="220" d="M155 550 20 700h130l40-150h-35Z"/><glyph unicode="a" glyph-name="a" horiz-adv-x="605" d="M146-15 98 23l-48 97q0 39 17 77 7 18 18 33 41 10 89 18 108 18 191 22v30q0 111-27 153t-83 42q-21 0-36-5l-14-5V335l-13-3q-16-2-27-2-34 0-54 20t-21 55q0 46 46 78t139 32q78 0 134-27t86-76 30-112V30l60-15V0h-90q-60 0-93 37-14 15-22 38-14-25-33-45-45-45-112-45-89 0-137 38Zm166 35 30 40q11 15 23 40v145q-46 0-88-5-31-4-42-5-5-11-10-30-10-38-10-75 0-56 17-83t43-27q37 0 67 40Z"/><glyph unicode="b" glyph-name="b" horiz-adv-x="615" d="m303-15-45 45q-19 20-33 45-7-22-24-40Q163-5 90-5H80v675l-60 15v15h130q90 0 90-90V475q16 13 31 20 36 20 84 20 101 0 160-68t60-197q0-85-27-144t-73-90-105-31q-67 0-112 45Zm59 35 21 50 22 180q0 135-23 185t-67 50q-26 0-53-20-8-6-22-20V100q9-23 22-40 30-40 68-40 32 0 53 50Z"/><glyph unicode="c" glyph-name="c" horiz-adv-x="530" d="m182-15-71 70-71 195q0 124 71 194t199 71q92 0 138-32t47-78q0-34-20-54t-55-21q-14 0-28 2l-12 3v150l-14 5q-15 5-36 5-57 0-88-54t-32-191q0-133 31-186t89-54q39 0 72 18t53 49 20 63h25q0-40-24-76T409 7t-99-22q-128 0-199 70Z"/><glyph unicode="d" glyph-name="d" horiz-adv-x="620" d="m186-15-46 30-73 90-27 145q0 128 59 196t161 69q48 0 84-20 15-7 31-20v195l-60 15v15h130q90 0 90-90V30l60-15V0h-90q-60 0-93 37-14 15-22 38-13-25-33-45-45-45-112-45-59 0-105 30Zm136 35 30 40q11 15 23 40v345q-11 11-23 20-27 20-52 20-43 0-66-50t-24-185q0-129 21-179t54-51q37 0 67 40Z"/><glyph unicode="e" glyph-name="e" horiz-adv-x="560" d="m182-15-71 70-71 195q0 81 31 141t86 92 128 32q72 0 126-27t84-72 30-101q0-25-5-43l-5-17q-43-9-93-15-105-15-212-15 0-116 32-165t88-50q39 0 72 18t53 49 20 63h25q0-40-24-76T409 7t-99-22q-128 0-199 70Zm92 265 40 5q17 1 36 5 1 5 5 22 5 25 5 53 0 83-22 121t-53 39q-75 0-75-245 64 0 104 5Z"/><glyph unicode="f" glyph-name="f" horiz-adv-x="425" d="m35 15 60 15v425H25v25h70v50q0 53 25 95t73 66 112 24q52 0 89-15t57-41 19-54q0-34-20-54t-55-21q-14 0-28 2l-12 3v155l-9 2q-4 1-9 2t-12 1q-34 0-52-35t-18-130v-50h160v-25H255V30l60-15V0H35v15Z"/><glyph unicode="g" glyph-name="g" horiz-adv-x="605" d="m186-215-56 16-80 41-25 53q0 34 20 54t55 21q8 0 29-3l11-2v-140q12-4 38-10 46-10 87-10 122 0 178 34t57 86q0 65-120 65H190q-75 0-115 31t-40 79q0 48 47 85 19 14 48 25-37 23-53 54t-17 76q0 74 56 119t164 46q47 0 86-9t64-26q8 17 21 30 30 30 74 30 34 0 57-23t23-62q0-29-15-47t-40-18q-11 0-25 2l-10 3v120q-26 0-49-25-9-9-16-25 50-44 50-115 0-74-56-119t-164-46q-72 0-130 25l-20-10q-10-6-15-11t-5-14q0-17 17-26t63-9h190q75 0 117-43t43-122q0-80-66-130t-199-50q-89 0-145 16Zm127 410 18 32 19 113q0 81-18 113t-52 32q-33 0-51-32t-19-113q0-81 18-113t52-32q33 0 51 32Z"/><glyph unicode="h" glyph-name="h" horiz-adv-x="665" d="m40 15 60 15v640l-60 15v15h130q90 0 90-90V450q15 20 31 32 43 33 99 33t100-23 70-62 25-80V30l60-15V0H515q-90 0-90 90v260q0 63-22 96t-53 34q-38 0-68-40-13-17-22-40V30l60-15V0H40v15Z"/><glyph unicode="i" glyph-name="i" horiz-adv-x="340" d="m40 15 60 15v440l-60 15v15h130q90 0 90-90V30l60-15V0H40v15Zm100 545-20 20-20 50q0 30 20 50t50 20q30 0 50-20t20-50q0-30-20-50t-50-20q-30 0-50 20Z"/><glyph unicode="j" glyph-name="j" horiz-adv-x="330" d="m-40-215-35 25-35 70q0 34 20 54t55 21q8 0 16-1t11-2l13-2v-140l6-3q10-2 14-2 31 0 50 37T95-30v500l-60 15v15h130q90 0 90-90V-30q0-53-26-95t-76-66-118-24q-75 0-110 25Zm175 775-20 20-20 50q0 30 20 50t50 20q30 0 50-20t20-50q0-30-20-50t-50-20q-30 0-50 20Z"/><glyph unicode="k" glyph-name="k" horiz-adv-x="600" d="m40 15 60 15v640l-60 15v15h130q90 0 90-90V260l185 195-75 30v15h190v-15l-80-30-115-120L560 30l50-15V0H480q-48 0-78 21t-57 64l-85 135V30l60-15V0H40v15Z"/><glyph unicode="l" glyph-name="l" horiz-adv-x="340" d="m40 15 60 15v640l-60 15v15h130q90 0 90-90V30l60-15V0H40v15Z"/><glyph unicode="m" glyph-name="m" horiz-adv-x="950" d="m40 15 60 15v440l-60 15v15h90q59 0 93-38 13-15 22-37 15 28 32 45 45 45 103 45t102-25 68-70q15 29 32 47 46 48 103 48 53 0 95-22t66-60 24-83V30l60-15V0H800q-90 0-90 90v260q0 65-20 97t-45 33q-29 0-59-40-12-19-21-40V30l60-15V0H345v15l60 15v320q0 65-20 97t-45 33q-29 0-59-40-12-19-21-40V30l60-15V0H40v15Z"/><glyph unicode="n" glyph-name="n" horiz-adv-x="665" d="m40 15 60 15v440l-60 15v15h90q59 0 93-38 13-15 22-37 14 26 33 45 45 45 112 45 56 0 100-23t70-62 25-80V30l60-15V0H515q-90 0-90 90v260q0 63-22 96t-53 34q-38 0-68-40-13-17-22-40V30l60-15V0H40v15Z"/><glyph unicode="o" glyph-name="o" horiz-adv-x="610" d="m181-15-70 70-71 195q0 124 70 194t195 71q124 0 194-70t71-195q0-124-70-194T305-15q-124 0-194 70ZM345 5l27 56 28 189q0 133-27 189t-68 56q-40 0-67-56t-28-189q0-133 27-189t68-56q40 0 67 56Z"/><glyph unicode="p" glyph-name="p" horiz-adv-x="625" d="m30-185 60 15v640l-60 15v15h90q59 0 93-38 13-15 22-37 13 26 33 45 45 45 112 45 59 0 105-30t73-90 27-145q0-128-59-196T365-15q-48 0-84 20-15 7-31 20v-195l60-15v-15H30v15ZM368 15l23 50 24 185q0 129-21 179t-54 51q-38 0-68-40-13-17-22-40V55q14-14 22-20 27-20 53-20 43 0 66 50Z"/><glyph unicode="q" glyph-name="q" horiz-adv-x="615" d="m315-185 60 15V25q-16-13-31-20-36-20-84-20-101 0-160 68T40 250q0 85 27 144t73 90 105 31q67 0 112-45 19-19 33-45 7 22 24 40 38 40 111 40h10v-675l60-15v-15H315v15Zm10 200 27 20q12 9 23 20v345q-12 25-23 40-30 40-67 40-32 0-53-50t-22-180q0-135 23-185t67-50q25 0 52 20Z"/><glyph unicode="r" glyph-name="r" horiz-adv-x="505" d="m40 15 60 15v440l-60 15v15h90q59 0 93-38 13-15 22-37 15 22 37 40 50 40 112 40 53 0 79-24t27-71q0-34-20-54t-55-21q-14 0-28 2l-12 3v140q-51 0-93-40-20-20-32-40V30l60-15V0H40v15Z"/><glyph unicode="s" glyph-name="s" horiz-adv-x="540" d="m213-15-49 27q-24 13-39 28-16-22-35-34-9-6-20-11H45v170h40q13-42 38-78 53-77 132-77 42 0 63 20t22 60q0 33-29 55t-93 56q-54 27-87 48t-57 54-24 77q0 60 51 97t159 38q53 0 98-28 22-13 38-27 13 18 35 34 17 10 20 11h25V335h-40q-15 43-37 77-50 78-119 78-27 0-46-20t-19-50q0-38 32-63t97-59q53-27 84-47t54-51 23-70q0-145-230-145-62 0-111 27Z"/><glyph unicode="t" glyph-name="t" horiz-adv-x="450" d="M234-15 186 9l-75 66-26 95v305H15v25h70v50q0 90 90 90h70V500h140v-25H245V170q0-92 19-126t56-34q36 0 63 35t27 95h25q0-74-37-114t-98-41q-66 0-114 24Z"/><glyph unicode="u" glyph-name="u" horiz-adv-x="650" d="M224-15 180 8l-70 62-25 80v320l-60 15v15h130q90 0 90-90V150q0-63 22-96t53-34q37 0 67 40 11 15 23 40v370l-60 15v15h280v-15l-60-15V-5h-10q-73 0-111 40-17 18-24 40-14-25-33-45-45-45-112-45-56 0-100 23Z"/><glyph unicode="v" glyph-name="v" horiz-adv-x="560" d="m30 470-50 15v15h125q52 0 82-21t53-64l119-231 111 271-75 30v15h185v-15l-80-30L310-10h-30L30 470Z"/><glyph unicode="w" glyph-name="w" horiz-adv-x="835" d="m30 470-50 15v15H95q53 0 84-22t51-63l110-230 57 146-67 139-50 15v15h115q53 0 84-22t51-63l110-230 105 270-75 30v15h185v-15l-80-30L590-10h-30L412 298 290-10h-30L30 470Z"/><glyph unicode="x" glyph-name="x" horiz-adv-x="555" d="m10 15 80 30 124 159L45 470l-50 15v15h135q48 0 78-21t57-64l51-81 94 121-75 30v15h190v-15l-80-30-114-145L510 30l50-15V0H425q-48 0-78 21t-57 64l-60 94L125 45l75-30V0H10v15Z"/><glyph unicode="y" glyph-name="y" horiz-adv-x="560" d="m105-215-25 24-25 66q0 38 20 59t55 21q8 0 16-1t11-2l13-2v-135q29 5 51 32t49 93l20 50L30 470l-50 15v15h125q52 0 82-21t53-64l125-231 105 271-75 30v15h185v-15l-80-30L300-60q-32-82-68-118t-82-37q-45 0-70 24Z"/><glyph unicode="z" glyph-name="z" horiz-adv-x="545" d="m40 25 285 450H145q0-55-33-111-13-21-32-39H50v175h455v-25L220 25h190q0 57 32 111 14 23 33 39h30V0H40v25Z"/><glyph unicode="{" glyph-name="braceleft" horiz-adv-x="370" d="m240-220-44 20-68 55-23 75v205q0 51-20 75t-55 25v30q35 0 55 24t20 76v205q0 41 23 75t67 54 105 21h60v-25h-10q-39 0-62-26t-23-79V405q0-94-80-134-34-18-80-21 46-3 80-21 80-40 80-134V-90q0-52 23-78t62-27h10v-25h-60q-60 0-104 20Z"/><glyph unicode="|" glyph-name="bar" horiz-adv-x="225" d="M85-200v900h55v-900H85Z"/><glyph unicode="}" glyph-name="braceright" horiz-adv-x="370" d="M10-195h10q39 0 62 26t23 79V95q0 94 80 134 34 18 80 21-46 3-80 21-80 40-80 134v185q0 52-23 78t-62 27H10v25h60q60 0 104-20t68-55 23-75V365q0-51 20-75t55-25v-30q-35 0-55-24t-20-76V-70q0-41-23-75t-67-54-105-21H10v25Z"/><glyph unicode="~" glyph-name="asciitilde" horiz-adv-x="515" d="m30 329 36 45 99 46q33 0 58-10t59-30q31-18 52-26t46-9q33 0 56 22t24 53h25q0-95-35-140t-100-45q-33 0-57 10t-57 29q-32 19-53 27t-48 9q-33 0-56-22t-24-53H30q0 94 36 139Z"/><glyph glyph-name="uni00A0" horiz-adv-x="280"/><glyph unicode="¡" glyph-name="exclamdown" horiz-adv-x="310" d="m125 350-22 23-23 57q0 33 22 56t53 24q30 0 52-23t23-57q0-33-22-56t-53-24q-30 0-52 23Zm-10-565-27 31-28 84 80 385h30l80-385q0-52-27-83t-68-32q-40 0-67 31Z"/><glyph unicode="¢" glyph-name="cent" horiz-adv-x="530" d="M300-15q-125 3-192 72T40 250q0 121 68 191t192 74v65h30v-66q81-4 123-35t42-74q0-34-20-54t-55-21q-14 0-28 2l-12 3v150l-14 5q-15 5-36 5V10q39 0 72 18t53 49 20 63h25q0-39-21-72t-60-56-89-26v-66h-30v65Zm0 506q-43-10-66-67t-24-174q0-115 23-169t67-68v478Z"/><glyph unicode="£" glyph-name="sterling" horiz-adv-x="600" d="M35 24q33 4 52 36t23 110l8 180H45v30h74l6 130q5 96 64 150t166 55q91 0 133-31t42-78q0-34-20-54t-55-21q-14 0-28 2l-12 3v150l-9 4q-12 5-31 5-38 0-58-40t-27-145l-6-130h176v-30H283l-8-180q-4-65-49-97-19-13-46-18h295q7 54 34 90 11 17 26 30h30V0H35v24Z"/><glyph unicode="¤" glyph-name="currency" horiz-adv-x="690" d="m65 15 60 15v145H50v30h75v65H50v30h75v370l-60 15v15h280q166 0 238-54t72-161q0-106-72-160t-238-55h-55v-65h250v-30H290V30l60-15V0H65v15Zm280 285q63 0 101 47t39 138q0 93-38 141t-102 49h-55V300h55Z"/><glyph unicode="¥" glyph-name="yen" horiz-adv-x="665" d="m195 15 60 15v160H130v30h125v40l-10 20H130v30h100L50 670 0 685v15h125q52 0 83-22t52-63l148-293 152 333-75 30v15h190v-15l-80-30-158-345h108v-30H424l-4-10v-50h125v-30H420V30l60-15V0H195v15Z"/><glyph unicode="¦" glyph-name="brokenbar" horiz-adv-x="225" d="M85 340v360h55V340H85Zm0-540v360h55v-360H85Z"/><glyph unicode="§" glyph-name="section" horiz-adv-x="520" d="m138-210-46 32-47 78q0 34 20 54t55 21q8 0 16-1t11-2l13-2v-150q7-4 14-5 17-5 36-5 50 0 77 29t28 86q0 31-17 55t-42 42-69 41q-49 27-77 47t-49 52-21 73q0 45 34 81t101 54q-54 35-84 77T60 550q0 71 57 115t168 45q57 0 96-15t59-41 20-54q0-34-20-54t-55-21q-14 0-28 2l-12 3v155l-13 2q-3 0-11 1t-16 2q-32 0-56-29t-24-81q0-46 30-76t90-67q44-27 71-48t45-52 19-72q0-42-34-76t-101-49q63-35 99-76t36-109q0-76-61-120t-189-45q-92 0-138 32Zm187 374q5 18 5 51 0 53-65 102-29 22-65 38-4-5-5-14-5-18-5-51 0-55 65-102 32-23 65-38l5 14Z"/><glyph unicode="¨" glyph-name="dieresis" horiz-adv-x="365" d="m60 560-20 20-20 50q0 30 20 50t50 20q30 0 50-20t20-50q0-30-20-50t-50-20q-30 0-50 20Zm185 0-20 20-20 50q0 30 20 50t50 20q30 0 50-20t20-50q0-30-20-50t-50-20q-30 0-50 20Z"/><glyph unicode="©" glyph-name="copyright" horiz-adv-x="840" d="m316-40-87 51L91 152 40 350q0 108 51 197t138 141 191 52q104 0 191-51t138-141 51-198q0-108-51-197T611 12 420-40q-104 0-191 51Zm201 30 78 46 124 128 46 186q0 104-45 186T596 664t-176 46q-97 0-175-46T121 536 75 350q0-104 45-186T244 36t176-46q97 0 175 46ZM340 135l-57 56-58 159q0 102 56 158t159 57q78 0 119-29t41-71q0-30-17-47t-48-18q-14 0-28 2l-12 3v135l-10 2q-3 0-10 1t-15 2q-39 0-67-47t-28-148q0-98 28-144t72-46q48 0 81 32t34 78h25q0-35-20-66t-57-50-83-19q-105 0-162 56Z"/><glyph unicode="ª" glyph-name="ordfeminine" horiz-adv-x="415" d="m94 360-32 25-32 65q0 25 10 47 5 12 10 18l59 15q75 15 126 15v35q0 60-15 85t-45 25q-8 0-16-1t-11-2l-13-2V585l-10-3q-14-2-25-2-23 0-36 13t-14 37q0 34 36 57t109 23q72 0 111-39t39-111V395l40-10v-15h-60q-45 0-66 25-8 9-14 25-8-18-19-30-30-30-71-30-61 0-93 25Zm109 25 18 26q9 12 14 27v87q-10 0-55-3l-25-2q-3-4-8-17-7-18-7-43 0-35 14-55t31-20q18 0 36 26Z"/><glyph unicode="«" glyph-name="guillemotleft" horiz-adv-x="440" d="M275 20 15 250l260 230 25-25-185-205L300 45l-25-25Zm110 55L195 250l190 175 25-25-120-150 120-150-25-25Z"/><glyph unicode="¬" glyph-name="logicalnot" horiz-adv-x="470" d="M395 220v100H30v45h410V220h-45Z"/><glyph unicode="­" glyph-name="uni00AD" horiz-adv-x="460" d="M30 300v45h400v-45H30Z"/><glyph unicode="®" glyph-name="registered" horiz-adv-x="840" d="m316-40-87 51L91 152 40 350q0 108 51 197t138 141 191 52q104 0 191-51t138-141 51-198q0-108-51-197T611 12 420-40q-104 0-191 51Zm201 30 78 46 124 128 46 186q0 104-45 186T596 664t-176 46q-97 0-175-46T121 536 75 350q0-104 45-186T244 36t176-46q97 0 175 46ZM210 155l50 10v370l-50 10v15h190q120 0 170-31t50-89q0-64-70-90-32-12-70-15 20-2 38-9 40-15 57-51l50-110 35-10v-15H560q-36 0-60 17t-35 43l-55 125h-20V165l50-10v-15H210v15Zm190 190q39 0 59 24t21 71q0 44-22 69t-58 26h-10V345h10Z"/><glyph unicode="¯" glyph-name="overscore" horiz-adv-x="300" d="M20 655v45h260v-45H20Z"/><glyph unicode="°" glyph-name="degree" horiz-adv-x="370" d="m139 400-35 21-55 56-19 78q0 42 19 77t54 57 82 21q46 0 81-21t55-56 19-78q0-42-19-77t-54-57-82-21q-46 0-81 21Zm81 50 22 27 23 78q0 51-22 78t-58 27q-35 0-57-27t-23-78q0-51 22-78t58-27q35 0 57 27Z"/><glyph unicode="±" glyph-name="plusminus" horiz-adv-x="505" d="M230 135v185H30v45h200v205h45V365h200v-45H275V135h-45ZM40 50v45h425V50H40Z"/><glyph unicode="²" glyph-name="uni00B2" horiz-adv-x="345" d="M30 400q0 28 12 49t30 36 48 36q43 28 64 50t21 59q0 25-15 42t-35 18q-8 0-16-1t-11-2l-13-2V585l-10-3q-14-2-25-2-23 0-36 13t-14 37q0 34 36 57t109 23q68 0 104-28t36-72q0-34-19-57t-47-38-75-34q-45-18-71-32t-43-34h190q3 26 22 57 8 13 18 23h20V370H30v30Z"/><glyph unicode="³" glyph-name="uni00B3" horiz-adv-x="360" d="m102 360-36 23-36 57q0 23 13 36t37 14q8 0 15-1t10-2l10-2V385l13-3q16-2 27-2 30 0 47 19t18 56q0 37-16 56t-44 19h-26v20h26q17 0 31 19t14 51q0 32-14 51t-31 19q-8 0-16-1t-11-2l-13-2V585l-10-3q-14-2-25-2-23 0-36 13t-14 37q0 34 36 57t109 23q64 0 99-26t36-64q0-26-15-42t-40-26q-26-11-55-12 37-3 62-13 63-22 63-72 0-41-39-68t-116-27q-73 0-109 23Z"/><glyph unicode="´" glyph-name="acute" horiz-adv-x="220" d="m30 550 40 150h130L65 550H30Z"/><glyph unicode="µ" glyph-name="uni00B5" horiz-adv-x="655" d="m30-185 60 15v640l-60 15v15h130q90 0 90-90V160q0-63 22-96t53-34q37 0 67 40 11 15 23 40v360l-60 15v15h280v-15l-60-15V-5h-10q-74 0-111 45-16 20-24 45-9-26-24-45-33-45-81-45-33 0-56 17-13 9-19 18v-140q0-90-90-90H30v15Z"/><glyph unicode="¶" glyph-name="paragraph" horiz-adv-x="590" d="M270 270q-116 0-175 56T35 485q0 103 59 159t176 56h295v-30h-80v-870h-55v870H325v-870h-55v470Z"/><glyph unicode="·" glyph-name="middot" horiz-adv-x="280" d="m110 270-22 23-23 57q0 33 22 56t53 24q30 0 52-23t23-57q0-33-22-56t-53-24q-30 0-52 23Z"/><glyph unicode="¸" glyph-name="cedilla" horiz-adv-x="201" d="m59-200-22 2-17 3v30q6-4 10-5 12-5 26-5 23 0 36 13t14 37q0 23-14 36T51-75V0h35v-50q43 0 69-22t26-53q0-32-27-53t-78-22q-17 0-39 2Z"/><glyph unicode="¹" glyph-name="uni00B9" horiz-adv-x="285" d="M65 370v15l40 10v225l-60-45-15 15 110 110h75V395l40-10v-15H65Z"/><glyph unicode="º" glyph-name="ordmasculine" horiz-adv-x="390" d="m148 360-37 22-59 61-22 92q0 52 21 91t59 62 85 22q47 0 84-22t59-61 22-92q0-52-21-91t-59-62-85-22q-47 0-84 22Zm70 20 16 35 16 120q0 85-16 120t-39 35q-23 0-39-35t-16-120q0-85 16-120t39-35q23 0 39 35Z"/><glyph unicode="»" glyph-name="guillemotright" horiz-adv-x="440" d="m165 20-25 25 185 205-185 205 25 25 260-230L165 20ZM55 75l-25 25 120 150L30 400l25 25 190-175L55 75Z"/><glyph unicode="¼" glyph-name="onequarter" horiz-adv-x="687" d="M55 370v15l40 10v225l-60-45-15 15 110 110h75V395l40-10v-15H55ZM75 0l515 700h55L130 0H75Zm370 0v15l40 10v50H340l-15 25 210 230h60V105h62V75h-62V25l40-10V0H445Zm-80 105h120v130L365 105Z"/><glyph unicode="½" glyph-name="onehalf" horiz-adv-x="705" d="M55 370v15l40 10v225l-60-45-15 15 110 110h75V395l40-10v-15H55ZM65 0l515 700h55L120 0H65Zm325 30q0 28 12 49t30 36 48 36q43 28 64 50t21 59q0 25-15 42t-35 18q-8 0-16-1t-11-2l-13-2V215l-10-3q-14-2-25-2-23 0-36 13t-14 37q0 34 36 57t109 23q68 0 104-28t36-72q0-34-19-57t-47-38-75-34q-45-18-71-32t-43-34h190q3 26 22 57 8 13 18 23h20V0H390v30Z"/><glyph unicode="¾" glyph-name="threequarters" horiz-adv-x="707" d="m102 360-36 23-36 57q0 23 13 36t37 14q8 0 15-1t10-2l10-2V385l13-3q16-2 27-2 30 0 47 19t18 56q0 37-16 56t-44 19h-26v20h26q17 0 31 19t14 51q0 32-14 51t-31 19q-8 0-16-1t-11-2l-13-2V585l-10-3q-14-2-25-2-23 0-36 13t-14 37q0 34 36 57t109 23q64 0 99-26t36-64q0-26-15-42t-40-26q-26-11-55-12 37-3 62-13 63-22 63-72 0-41-39-68t-116-27q-73 0-109 23Zm3-360 515 700h55L160 0h-55Zm360 0v15l40 10v50H360l-15 25 210 230h60V105h62V75h-62V25l40-10V0H465Zm-80 105h120v130L385 105Z"/><glyph unicode="¿" glyph-name="questiondown" horiz-adv-x="560" d="m285 350-22 23-23 57q0 33 22 56t53 24q30 0 52-23t23-57q0-33-22-56t-53-24q-30 0-52 23ZM184-215l-74 57L35-10q0 85 62 141t188 74l5 80h40l5-95q-61-24-93-70T210-10q0-96 34-138t106-42q33 0 59 7 20 7 21 8v160l12 2q21 3 28 3 34 0 54-20t21-55q0-32-24-62t-73-49-118-19q-146 0-220 57Z"/><glyph unicode="À" glyph-name="Agrave" horiz-adv-x="680" d="m-20 15 80 30 275 665h30L650 30l50-15V0H580q-52 0-85 23t-49 62l-51 120H156L90 45l75-30V0H-20v15Zm186 215h219L275 493 166 230Zm173 520L204 900h130l40-150h-35Z"/><glyph unicode="Á" glyph-name="Aacute" horiz-adv-x="680" d="m-20 15 80 30 275 665h30L650 30l50-15V0H580q-52 0-85 23t-49 62l-51 120H156L90 45l75-30V0H-20v15Zm186 215h219L275 493 166 230Zm156 520 40 150h130L357 750h-35Z"/><glyph unicode="Â" glyph-name="Acircumflex" horiz-adv-x="680" d="m-20 15 80 30 275 665h30L650 30l50-15V0H580q-52 0-85 23t-49 62l-51 120H156L90 45l75-30V0H-20v15Zm186 215h219L275 493 166 230Zm39 520 145 165 145-165h-35l-110 70-110-70h-35Z"/><glyph unicode="Ã" glyph-name="Atilde" horiz-adv-x="680" d="m-20 15 80 30 275 665h30L650 30l50-15V0H580q-52 0-85 23t-49 62l-51 120H156L90 45l75-30V0H-20v15Zm186 215h219L275 493 166 230Zm209 550-16 7-35 22q-14 11-24 16t-23 5q-19 0-32-13t-13-32h-20q0 58 23 86t67 29q22 0 38-7t35-22q14-10 24-15t23-6q19 0 32 13t13 32h20q0-58-23-86t-67-29q-22 0-38 7Z"/><glyph unicode="Ä" glyph-name="Adieresis" horiz-adv-x="680" d="m-20 15 80 30 275 665h30L650 30l50-15V0H580q-52 0-85 23t-49 62l-51 120H156L90 45l75-30V0H-20v15Zm186 215h219L275 493 166 230Zm61 530-20 20-20 50q0 30 20 50t50 20q30 0 50-20t20-50q0-30-20-50t-50-20q-30 0-50 20Zm185 0-20 20-20 50q0 30 20 50t50 20q30 0 50-20t20-50q0-30-20-50t-50-20q-30 0-50 20Z"/><glyph unicode="Å" glyph-name="Aring" horiz-adv-x="680" d="m-20 15 80 30 275 665h30L650 30l50-15V0H580q-52 0-85 23t-49 62l-51 120H156L90 45l75-30V0H-20v15Zm186 215h219L275 493 166 230Zm139 520-30 29-30 71q0 42 30 71t75 29q45 0 75-29t30-71q0-42-30-71t-75-29q-45 0-75 29Zm69 35 15 18 16 47q0 29-15 47t-40 18q-24 0-39-18t-16-47q0-29 15-47t40-18q24 0 39 18Z"/><glyph unicode="Æ" glyph-name="AE" horiz-adv-x="991" d="m-30 15 80 30 366 655h514V520h-30q-19 15-33 38-32 54-32 117H630V360h105q7 38 26 71 8 15 19 29h30V235h-30q-11 14-19 29-19 33-26 71H630V25h225q0 63 32 117 14 23 33 38h30V0H405v15l60 15v235H208L86 45l75-30V0H-30v15Zm253 275h242v385h-27L223 290Z"/><glyph unicode="Ç" glyph-name="Ccedilla" horiz-adv-x="650" d="m346-200-22 2-17 3v30q6-4 10-5 12-5 26-5 23 0 36 13t14 37q0 23-14 36t-41 14v63Q199 1 122 94T45 350q0 115 39 197t111 125 166 43q57 0 115-33 22-12 44-32 17 26 35 41 18 13 20 14h25V515h-40q-13 48-39 87-24 38-59 63t-82 25q-69 0-114-80t-46-260q0-183 49-261t136-79q47 0 89 26t69 71 27 93h25q0-57-30-106t-83-79-117-30h-12v-35q43 0 69-22t26-53q0-32-27-53t-78-22q-17 0-39 2Z"/><glyph unicode="È" glyph-name="Egrave" horiz-adv-x="645" d="m50 15 60 15v640l-60 15v15h535V520h-30q-19 15-33 38-32 54-32 117H275V360h115q7 38 26 71 8 15 19 29h30V235h-30q-11 14-19 29-19 33-26 71H275V25h235q0 63 32 117 14 23 33 38h30V0H50v15Zm302 735L217 900h130l40-150h-35Z"/><glyph unicode="É" glyph-name="Eacute" horiz-adv-x="645" d="m50 15 60 15v640l-60 15v15h535V520h-30q-19 15-33 38-32 54-32 117H275V360h115q7 38 26 71 8 15 19 29h30V235h-30q-11 14-19 29-19 33-26 71H275V25h235q0 63 32 117 14 23 33 38h30V0H50v15Zm285 735 40 150h130L370 750h-35Z"/><glyph unicode="Ê" glyph-name="Ecircumflex" horiz-adv-x="645" d="m50 15 60 15v640l-60 15v15h535V520h-30q-19 15-33 38-32 54-32 117H275V360h115q7 38 26 71 8 15 19 29h30V235h-30q-11 14-19 29-19 33-26 71H275V25h235q0 63 32 117 14 23 33 38h30V0H50v15Zm168 735 145 165 145-165h-35l-110 70-110-70h-35Z"/><glyph unicode="Ë" glyph-name="Edieresis" horiz-adv-x="645" d="m50 15 60 15v640l-60 15v15h535V520h-30q-19 15-33 38-32 54-32 117H275V360h115q7 38 26 71 8 15 19 29h30V235h-30q-11 14-19 29-19 33-26 71H275V25h235q0 63 32 117 14 23 33 38h30V0H50v15Zm190 745-20 20-20 50q0 30 20 50t50 20q30 0 50-20t20-50q0-30-20-50t-50-20q-30 0-50 20Zm185 0-20 20-20 50q0 30 20 50t50 20q30 0 50-20t20-50q0-30-20-50t-50-20q-30 0-50 20Z"/><glyph unicode="Ì" glyph-name="Igrave" horiz-adv-x="385" d="M50 0v15l60 15v640l-60 15v15h285v-15l-60-15V30l60-15V0H50Zm132 750L47 900h130l40-150h-35Z"/><glyph unicode="Í" glyph-name="Iacute" horiz-adv-x="385" d="M50 0v15l60 15v640l-60 15v15h285v-15l-60-15V30l60-15V0H50Zm115 750 40 150h130L200 750h-35Z"/><glyph unicode="Î" glyph-name="Icircumflex" horiz-adv-x="385" d="M50 0v15l60 15v640l-60 15v15h285v-15l-60-15V30l60-15V0H50Zm-2 750 145 165 145-165h-35l-110 70-110-70H48Z"/><glyph unicode="Ï" glyph-name="Idieresis" horiz-adv-x="385" d="M50 0v15l60 15v640l-60 15v15h285v-15l-60-15V30l60-15V0H50Zm20 760-20 20-20 50q0 30 20 50t50 20q30 0 50-20t20-50q0-30-20-50t-50-20q-30 0-50 20Zm185 0-20 20-20 50q0 30 20 50t50 20q30 0 50-20t20-50q0-30-20-50t-50-20q-30 0-50 20Z"/><glyph unicode="Ð" glyph-name="Eth" horiz-adv-x="715" d="m55 15 60 15v310H50v30h65v300l-60 15v15h255q179 0 274-92t96-258q0-166-95-258T310 0H55v15Zm255 10q93 0 144 75t51 250q0 174-51 249t-144 76h-30V370h120v-30H280V25h30Z"/><glyph unicode="Ñ" glyph-name="Ntilde" horiz-adv-x="740" d="M140 530V45l80-30V0H30v15l80 30v620l-70 20v15h105q53 0 83-19t57-51l320-375v400l-80 30v15h190v-15l-80-30V-15h-30L140 530Zm255 250-16 7-35 22q-14 11-24 16t-23 5q-19 0-32-13t-13-32h-20q0 58 23 86t67 29q22 0 38-7t35-22q14-10 24-15t23-6q19 0 32 13t13 32h20q0-58-23-86t-67-29q-22 0-38 7Z"/><glyph unicode="Ò" glyph-name="Ograve" horiz-adv-x="740" d="m272-15-73 42L85 152 45 350q0 116 40 198t113 124 172 43q98 0 171-42t114-125 40-198q0-116-40-198T542 28 370-15q-98 0-171 42ZM409 5l33 33 56 110 22 202q0 125-22 202t-55 110-73 33q-39 0-72-33t-56-110-22-202q0-125 22-202t55-110 73-33q39 0 72 33Zm-50 745L224 900h130l40-150h-35Z"/><glyph unicode="Ó" glyph-name="Oacute" horiz-adv-x="740" d="m272-15-73 42L85 152 45 350q0 116 40 198t113 124 172 43q98 0 171-42t114-125 40-198q0-116-40-198T542 28 370-15q-98 0-171 42ZM409 5l33 33 56 110 22 202q0 125-22 202t-55 110-73 33q-39 0-72-33t-56-110-22-202q0-125 22-202t55-110 73-33q39 0 72 33Zm-67 745 40 150h130L377 750h-35Z"/><glyph unicode="Ô" glyph-name="Ocircumflex" horiz-adv-x="740" d="m272-15-73 42L85 152 45 350q0 116 40 198t113 124 172 43q98 0 171-42t114-125 40-198q0-116-40-198T542 28 370-15q-98 0-171 42ZM409 5l33 33 56 110 22 202q0 125-22 202t-55 110-73 33q-39 0-72-33t-56-110-22-202q0-125 22-202t55-110 73-33q39 0 72 33ZM225 750l145 165 145-165h-35l-110 70-110-70h-35Z"/><glyph unicode="Õ" glyph-name="Otilde" horiz-adv-x="740" d="m272-15-73 42L85 152 45 350q0 116 40 198t113 124 172 43q98 0 171-42t114-125 40-198q0-116-40-198T542 28 370-15q-98 0-171 42ZM409 5l33 33 56 110 22 202q0 125-22 202t-55 110-73 33q-39 0-72-33t-56-110-22-202q0-125 22-202t55-110 73-33q39 0 72 33Zm-14 775-16 7-35 22q-14 11-24 16t-23 5q-19 0-32-13t-13-32h-20q0 58 23 86t67 29q22 0 38-7t35-22q14-10 24-15t23-6q19 0 32 13t13 32h20q0-58-23-86t-67-29q-22 0-38 7Z"/><glyph unicode="Ö" glyph-name="Odieresis" horiz-adv-x="740" d="m272-15-73 42L85 152 45 350q0 116 40 198t113 124 172 43q98 0 171-42t114-125 40-198q0-116-40-198T542 28 370-15q-98 0-171 42ZM409 5l33 33 56 110 22 202q0 125-22 202t-55 110-73 33q-39 0-72-33t-56-110-22-202q0-125 22-202t55-110 73-33q39 0 72 33ZM247 760l-20 20-20 50q0 30 20 50t50 20q30 0 50-20t20-50q0-30-20-50t-50-20q-30 0-50 20Zm185 0-20 20-20 50q0 30 20 50t50 20q30 0 50-20t20-50q0-30-20-50t-50-20q-30 0-50 20Z"/><glyph unicode="×" glyph-name="multiply" horiz-adv-x="406" d="m62 167-32 31 141 142L30 481l32 32 141-141 141 141 32-32-141-141 141-142-32-31-141 141L62 167Z"/><glyph unicode="Ø" glyph-name="Oslash" horiz-adv-x="740" d="m246-15-83 71-43-56H85l57 75q-46 49-71 118T45 350q0 116 40 198t113 124 172 43q124 0 207-71l43 56h35l-58-76q98-103 98-274 0-116-40-198T542 28 370-15q-124 0-207 71Zm254 558q-20 79-55 115t-75 37q-39 0-72-33t-56-110-22-202q0-93 12-158l268 351ZM409 5l33 33 56 110 22 202q0 83-12 157L239 156q19-79 54-115t77-36q39 0 72 33Z"/><glyph unicode="Ù" glyph-name="Ugrave" horiz-adv-x="710" d="m247-15-76 69-76 196v420l-60 15v15h285v-15l-60-15V250q0-129 40-184t115-56q46 0 87 29t67 84 26 127v405l-80 30v15h190v-15l-80-30V250q0-81-30-141t-82-92-118-32q-148 0-224 69Zm157 765L269 900h130l40-150h-35Z"/><glyph unicode="Ú" glyph-name="Uacute" horiz-adv-x="710" d="m247-15-76 69-76 196v420l-60 15v15h285v-15l-60-15V250q0-129 40-184t115-56q46 0 87 29t67 84 26 127v405l-80 30v15h190v-15l-80-30V250q0-81-30-141t-82-92-118-32q-148 0-224 69Zm140 765 40 150h130L422 750h-35Z"/><glyph unicode="Û" glyph-name="Ucircumflex" horiz-adv-x="710" d="m247-15-76 69-76 196v420l-60 15v15h285v-15l-60-15V250q0-129 40-184t115-56q46 0 87 29t67 84 26 127v405l-80 30v15h190v-15l-80-30V250q0-81-30-141t-82-92-118-32q-148 0-224 69Zm23 765 145 165 145-165h-35l-110 70-110-70h-35Z"/><glyph unicode="Ü" glyph-name="Udieresis" horiz-adv-x="710" d="m247-15-76 69-76 196v420l-60 15v15h285v-15l-60-15V250q0-129 40-184t115-56q46 0 87 29t67 84 26 127v405l-80 30v15h190v-15l-80-30V250q0-81-30-141t-82-92-118-32q-148 0-224 69Zm45 775-20 20-20 50q0 30 20 50t50 20q30 0 50-20t20-50q0-30-20-50t-50-20q-30 0-50 20Zm185 0-20 20-20 50q0 30 20 50t50 20q30 0 50-20t20-50q0-30-20-50t-50-20q-30 0-50 20Z"/><glyph unicode="Ý" glyph-name="Yacute" horiz-adv-x="665" d="m195 15 60 15v230L50 670 0 685v15h125q52 0 83-22t52-63l148-295 152 335-75 30v15h190v-15l-80-30-175-385V30l60-15V0H195v15Zm110 735 40 150h130L340 750h-35Z"/><glyph unicode="Þ" glyph-name="Thorn" horiz-adv-x="700" d="m50 15 60 15v640l-60 15v15h285v-15l-60-15v-60h45q117 0 195-33t117-91 38-136q0-77-38-135t-116-92-196-33h-45V30l60-15V0H50v15Zm270 100q49 0 88 27t63 80 24 128q0 75-23 128t-63 80-89 27h-45V115h45Z"/><glyph unicode="ß" glyph-name="germandbls" horiz-adv-x="690" d="M446-15 414 7q-15 12-24 23-14-20-35-29-11-5-20-6h-25v170h40q13-41 32-78 41-77 88-77 17 0 28 17t12 53q0 42-22 69t-68 64q-33 26-53 45t-33 48-14 64q0 37 11 61t33 54q20 27 30 49t11 56q0 47-21 73t-54 27q-38 0-59-41t-21-149V0H30v15l60 15v470q0 62 29 111t83 76 128 28q59 0 106-22t73-56 26-67q0-40-9-64t-26-54q-13-22-19-36t-6-36q0-30 20-51t63-51q35-24 56-42t36-44 15-62q0-66-45-105T490-15q-44 0-76 22Z"/><glyph unicode="à" glyph-name="agrave" horiz-adv-x="605" d="M146-15 98 23l-48 97q0 39 17 77 7 18 18 33 41 10 89 18 108 18 191 22v30q0 111-27 153t-83 42q-21 0-36-5l-14-5V335l-13-3q-16-2-27-2-34 0-54 20t-21 55q0 46 46 78t139 32q78 0 134-27t86-76 30-112V30l60-15V0h-90q-60 0-93 37-14 15-22 38-14-25-33-45-45-45-112-45-89 0-137 38Zm166 35 30 40q11 15 23 40v145q-46 0-88-5-31-4-42-5-5-11-10-30-10-38-10-75 0-56 17-83t43-27q37 0 67 40Zm-20 530L157 700h130l40-150h-35Z"/><glyph unicode="á" glyph-name="aacute" horiz-adv-x="605" d="M146-15 98 23l-48 97q0 39 17 77 7 18 18 33 41 10 89 18 108 18 191 22v30q0 111-27 153t-83 42q-21 0-36-5l-14-5V335l-13-3q-16-2-27-2-34 0-54 20t-21 55q0 46 46 78t139 32q78 0 134-27t86-76 30-112V30l60-15V0h-90q-60 0-93 37-14 15-22 38-14-25-33-45-45-45-112-45-89 0-137 38Zm166 35 30 40q11 15 23 40v145q-46 0-88-5-31-4-42-5-5-11-10-30-10-38-10-75 0-56 17-83t43-27q37 0 67 40Zm-37 530 40 150h130L310 550h-35Z"/><glyph unicode="â" glyph-name="acircumflex" horiz-adv-x="605" d="M146-15 98 23l-48 97q0 39 17 77 7 18 18 33 41 10 89 18 108 18 191 22v30q0 111-27 153t-83 42q-21 0-36-5l-14-5V335l-13-3q-16-2-27-2-34 0-54 20t-21 55q0 46 46 78t139 32q78 0 134-27t86-76 30-112V30l60-15V0h-90q-60 0-93 37-14 15-22 38-14-25-33-45-45-45-112-45-89 0-137 38Zm166 35 30 40q11 15 23 40v145q-46 0-88-5-31-4-42-5-5-11-10-30-10-38-10-75 0-56 17-83t43-27q37 0 67 40ZM158 550l145 165 145-165h-35l-110 70-110-70h-35Z"/><glyph unicode="ã" glyph-name="atilde" horiz-adv-x="605" d="M146-15 98 23l-48 97q0 39 17 77 7 18 18 33 41 10 89 18 108 18 191 22v30q0 111-27 153t-83 42q-21 0-36-5l-14-5V335l-13-3q-16-2-27-2-34 0-54 20t-21 55q0 46 46 78t139 32q78 0 134-27t86-76 30-112V30l60-15V0h-90q-60 0-93 37-14 15-22 38-14-25-33-45-45-45-112-45-89 0-137 38Zm166 35 30 40q11 15 23 40v145q-46 0-88-5-31-4-42-5-5-11-10-30-10-38-10-75 0-56 17-83t43-27q37 0 67 40Zm16 560-16 7-35 22q-14 11-24 16t-23 5q-19 0-32-13t-13-32h-20q0 58 23 86t67 29q22 0 38-7t35-22q14-10 24-15t23-6q19 0 32 13t13 32h20q0-58-23-86t-67-29q-22 0-38 7Z"/><glyph unicode="ä" glyph-name="adieresis" horiz-adv-x="605" d="M146-15 98 23l-48 97q0 39 17 77 7 18 18 33 41 10 89 18 108 18 191 22v30q0 111-27 153t-83 42q-21 0-36-5l-14-5V335l-13-3q-16-2-27-2-34 0-54 20t-21 55q0 46 46 78t139 32q78 0 134-27t86-76 30-112V30l60-15V0h-90q-60 0-93 37-14 15-22 38-14-25-33-45-45-45-112-45-89 0-137 38Zm166 35 30 40q11 15 23 40v145q-46 0-88-5-31-4-42-5-5-11-10-30-10-38-10-75 0-56 17-83t43-27q37 0 67 40ZM180 560l-20 20-20 50q0 30 20 50t50 20q30 0 50-20t20-50q0-30-20-50t-50-20q-30 0-50 20Zm185 0-20 20-20 50q0 30 20 50t50 20q30 0 50-20t20-50q0-30-20-50t-50-20q-30 0-50 20Z"/><glyph unicode="å" glyph-name="aring" horiz-adv-x="605" d="M146-15 98 23l-48 97q0 39 17 77 7 18 18 33 41 10 89 18 108 18 191 22v30q0 111-27 153t-83 42q-21 0-36-5l-14-5V335l-13-3q-16-2-27-2-34 0-54 20t-21 55q0 46 46 78t139 32q78 0 134-27t86-76 30-112V30l60-15V0h-90q-60 0-93 37-14 15-22 38-14-25-33-45-45-45-112-45-89 0-137 38Zm166 35 30 40q11 15 23 40v145q-46 0-88-5-31-4-42-5-5-11-10-30-10-38-10-75 0-56 17-83t43-27q37 0 67 40Zm-54 530-30 29-30 71q0 42 30 71t75 29q45 0 75-29t30-71q0-42-30-71t-75-29q-45 0-75 29Zm69 35 15 18 16 47q0 29-15 47t-40 18q-24 0-39-18t-16-47q0-29 15-47t40-18q24 0 39 18Z"/><glyph unicode="æ" glyph-name="ae" horiz-adv-x="880" d="m152-15-51 37-51 98q0 36 17 72 7 14 18 28 41 10 89 18 108 18 191 22v40q0 111-27 153t-83 42q-21 0-36-5l-14-5V335l-13-3q-16-2-27-2-34 0-54 20t-21 55q0 46 46 78t139 32q81 0 136-45 24-20 39-45 13 24 37 45 53 45 128 45 68 0 120-27t81-72 29-101q0-21-5-36l-5-14q-43-9-93-15-105-15-212-15v-22q2-111 33-157t87-46q39 0 72 18t53 49 20 63h25q0-40-24-76T729 7t-99-22q-86 0-141 47-26 21-39 48-22-28-49-48-65-47-146-47-103 0-154 37Zm442 275 40 5q17 1 36 5 1 7 5 21 5 20 5 44 0 83-22 121t-53 39q-32 0-52-49t-23-181v-5q64 0 104 5ZM317 10l29 47q11 19 19 48v130q-46 0-88-5-31-4-42-5-5-11-10-30-10-38-10-75 0-56 17-83t43-27q42 0 71 47Z"/><glyph unicode="ç" glyph-name="ccedilla" horiz-adv-x="530" d="m278-200-22 2-17 3v30q6-4 10-5 12-5 26-5 23 0 36 13t14 37q0 23-14 36t-41 14v62Q161-3 101 66T40 250q0 124 71 194t199 71q92 0 138-32t47-78q0-34-20-54t-55-21q-14 0-28 2l-12 3v150l-14 5q-15 5-36 5-57 0-88-54t-32-191q0-133 31-186t89-54q39 0 72 18t53 49 20 63h25q0-40-24-76T409 7t-99-22h-5v-35q43 0 69-22t26-53q0-32-27-53t-78-22q-17 0-39 2Z"/><glyph unicode="è" glyph-name="egrave" horiz-adv-x="560" d="m182-15-71 70-71 195q0 81 31 141t86 92 128 32q72 0 126-27t84-72 30-101q0-25-5-43l-5-17q-43-9-93-15-105-15-212-15 0-116 32-165t88-50q39 0 72 18t53 49 20 63h25q0-40-24-76T409 7t-99-22q-128 0-199 70Zm92 265 40 5q17 1 36 5 1 5 5 22 5 25 5 53 0 83-22 121t-53 39q-75 0-75-245 64 0 104 5Zm-5 300L134 700h130l40-150h-35Z"/><glyph unicode="é" glyph-name="eacute" horiz-adv-x="560" d="m182-15-71 70-71 195q0 81 31 141t86 92 128 32q72 0 126-27t84-72 30-101q0-25-5-43l-5-17q-43-9-93-15-105-15-212-15 0-116 32-165t88-50q39 0 72 18t53 49 20 63h25q0-40-24-76T409 7t-99-22q-128 0-199 70Zm92 265 40 5q17 1 36 5 1 5 5 22 5 25 5 53 0 83-22 121t-53 39q-75 0-75-245 64 0 104 5Zm-22 300 40 150h130L287 550h-35Z"/><glyph unicode="ê" glyph-name="ecircumflex" horiz-adv-x="560" d="m182-15-71 70-71 195q0 81 31 141t86 92 128 32q72 0 126-27t84-72 30-101q0-25-5-43l-5-17q-43-9-93-15-105-15-212-15 0-116 32-165t88-50q39 0 72 18t53 49 20 63h25q0-40-24-76T409 7t-99-22q-128 0-199 70Zm92 265 40 5q17 1 36 5 1 5 5 22 5 25 5 53 0 83-22 121t-53 39q-75 0-75-245 64 0 104 5ZM135 550l145 165 145-165h-35l-110 70-110-70h-35Z"/><glyph unicode="ë" glyph-name="edieresis" horiz-adv-x="560" d="m182-15-71 70-71 195q0 81 31 141t86 92 128 32q72 0 126-27t84-72 30-101q0-25-5-43l-5-17q-43-9-93-15-105-15-212-15 0-116 32-165t88-50q39 0 72 18t53 49 20 63h25q0-40-24-76T409 7t-99-22q-128 0-199 70Zm92 265 40 5q17 1 36 5 1 5 5 22 5 25 5 53 0 83-22 121t-53 39q-75 0-75-245 64 0 104 5ZM157 560l-20 20-20 50q0 30 20 50t50 20q30 0 50-20t20-50q0-30-20-50t-50-20q-30 0-50 20Zm185 0-20 20-20 50q0 30 20 50t50 20q30 0 50-20t20-50q0-30-20-50t-50-20q-30 0-50 20Z"/><glyph unicode="ì" glyph-name="igrave" horiz-adv-x="340" d="m40 15 60 15v440l-60 15v15h130q90 0 90-90V30l60-15V0H40v15Zm119 535L24 700h130l40-150h-35Z"/><glyph unicode="í" glyph-name="iacute" horiz-adv-x="340" d="m40 15 60 15v440l-60 15v15h130q90 0 90-90V30l60-15V0H40v15Zm102 535 40 150h130L177 550h-35Z"/><glyph unicode="î" glyph-name="icircumflex" horiz-adv-x="340" d="m40 15 60 15v440l-60 15v15h130q90 0 90-90V30l60-15V0H40v15ZM25 550l145 165 145-165h-35l-110 70-110-70H25Z"/><glyph unicode="ï" glyph-name="idieresis" horiz-adv-x="340" d="m40 15 60 15v440l-60 15v15h130q90 0 90-90V30l60-15V0H40v15Zm7 545-20 20-20 50q0 30 20 50t50 20q30 0 50-20t20-50q0-30-20-50t-50-20q-30 0-50 20Zm185 0-20 20-20 50q0 30 20 50t50 20q30 0 50-20t20-50q0-30-20-50t-50-20q-30 0-50 20Z"/><glyph unicode="ð" glyph-name="eth" horiz-adv-x="605" d="m218-15-59 31-92 86-32 128q0 72 30 127t84 87 121 31q57 0 103-38 15-13 32-37-4 66-25 115t-60 90l-41-75-21 13 44 80q-69 57-165 57v20q103 0 190-31l40 73 21-13-38-70q104-46 159-143t56-246q0-138-70-211T299-15q-81 0-140 31ZM339 5l28 52 28 173v10q0 112-29 163t-77 52q-19 0-38-21t-33-72-13-132q0-120 27-172t67-53q40 0 68 52Z"/><glyph unicode="ñ" glyph-name="ntilde" horiz-adv-x="665" d="m40 15 60 15v440l-60 15v15h90q59 0 93-38 13-15 22-37 14 26 33 45 45 45 112 45 56 0 100-23t70-62 25-80V30l60-15V0H515q-90 0-90 90v260q0 63-22 96t-53 34q-38 0-68-40-13-17-22-40V30l60-15V0H40v15Zm338 565-16 7-35 22q-14 11-24 16t-23 5q-19 0-32-13t-13-32h-20q0 58 23 86t67 29q22 0 38-7t35-22q14-10 24-15t23-6q19 0 32 13t13 32h20q0-58-23-86t-67-29q-22 0-38 7Z"/><glyph unicode="ò" glyph-name="ograve" horiz-adv-x="610" d="m181-15-70 70-71 195q0 124 70 194t195 71q124 0 194-70t71-195q0-124-70-194T305-15q-124 0-194 70ZM345 5l27 56 28 189q0 133-27 189t-68 56q-40 0-67-56t-28-189q0-133 27-189t68-56q40 0 67 56Zm-51 545L159 700h130l40-150h-35Z"/><glyph unicode="ó" glyph-name="oacute" horiz-adv-x="610" d="m181-15-70 70-71 195q0 124 70 194t195 71q124 0 194-70t71-195q0-124-70-194T305-15q-124 0-194 70ZM345 5l27 56 28 189q0 133-27 189t-68 56q-40 0-67-56t-28-189q0-133 27-189t68-56q40 0 67 56Zm-68 545 40 150h130L312 550h-35Z"/><glyph unicode="ô" glyph-name="ocircumflex" horiz-adv-x="610" d="m181-15-70 70-71 195q0 124 70 194t195 71q124 0 194-70t71-195q0-124-70-194T305-15q-124 0-194 70ZM345 5l27 56 28 189q0 133-27 189t-68 56q-40 0-67-56t-28-189q0-133 27-189t68-56q40 0 67 56ZM160 550l145 165 145-165h-35l-110 70-110-70h-35Z"/><glyph unicode="õ" glyph-name="otilde" horiz-adv-x="610" d="m181-15-70 70-71 195q0 124 70 194t195 71q124 0 194-70t71-195q0-124-70-194T305-15q-124 0-194 70ZM345 5l27 56 28 189q0 133-27 189t-68 56q-40 0-67-56t-28-189q0-133 27-189t68-56q40 0 67 56Zm-15 575-16 7-35 22q-14 11-24 16t-23 5q-19 0-32-13t-13-32h-20q0 58 23 86t67 29q22 0 38-7t35-22q14-10 24-15t23-6q19 0 32 13t13 32h20q0-58-23-86t-67-29q-22 0-38 7Z"/><glyph unicode="ö" glyph-name="odieresis" horiz-adv-x="610" d="m181-15-70 70-71 195q0 124 70 194t195 71q124 0 194-70t71-195q0-124-70-194T305-15q-124 0-194 70ZM345 5l27 56 28 189q0 133-27 189t-68 56q-40 0-67-56t-28-189q0-133 27-189t68-56q40 0 67 56ZM182 560l-20 20-20 50q0 30 20 50t50 20q30 0 50-20t20-50q0-30-20-50t-50-20q-30 0-50 20Zm185 0-20 20-20 50q0 30 20 50t50 20q30 0 50-20t20-50q0-30-20-50t-50-20q-30 0-50 20Z"/><glyph unicode="÷" glyph-name="divide" horiz-adv-x="500" d="m220 440-22 22-23 53q0 30 22 52t53 23q30 0 52-22t23-53q0-30-22-52t-53-23q-30 0-52 22ZM30 310v45h440v-45H30ZM220 75l-22 22-23 53q0 30 22 52t53 23q30 0 52-22t23-53q0-30-22-52t-53-23q-30 0-52 22Z"/><glyph unicode="ø" glyph-name="oslash" horiz-adv-x="610" d="m207-15-65 47-27-32H80l41 49q-81 78-81 201 0 124 70 194t195 71q96 0 163-48l27 33h35l-41-50q38-35 59-86t22-114q0-124-70-194T305-15q-98 0-163 47Zm184 389q-11 64-34 92t-52 29q-40 0-67-56t-28-189q0-53 4-89l177 213ZM345 5l27 56 28 189q0 55-4 88L219 125q11-65 34-92t52-28q40 0 67 56Z"/><glyph unicode="ù" glyph-name="ugrave" horiz-adv-x="650" d="M224-15 180 8l-70 62-25 80v320l-60 15v15h130q90 0 90-90V150q0-63 22-96t53-34q37 0 67 40 11 15 23 40v370l-60 15v15h280v-15l-60-15V-5h-10q-73 0-111 40-17 18-24 40-14-25-33-45-45-45-112-45-56 0-100 23Zm90 565L179 700h130l40-150h-35Z"/><glyph unicode="ú" glyph-name="uacute" horiz-adv-x="650" d="M224-15 180 8l-70 62-25 80v320l-60 15v15h130q90 0 90-90V150q0-63 22-96t53-34q37 0 67 40 11 15 23 40v370l-60 15v15h280v-15l-60-15V-5h-10q-73 0-111 40-17 18-24 40-14-25-33-45-45-45-112-45-56 0-100 23Zm73 565 40 150h130L332 550h-35Z"/><glyph unicode="û" glyph-name="ucircumflex" horiz-adv-x="650" d="M224-15 180 8l-70 62-25 80v320l-60 15v15h130q90 0 90-90V150q0-63 22-96t53-34q37 0 67 40 11 15 23 40v370l-60 15v15h280v-15l-60-15V-5h-10q-73 0-111 40-17 18-24 40-14-25-33-45-45-45-112-45-56 0-100 23Zm-44 565 145 165 145-165h-35l-110 70-110-70h-35Z"/><glyph unicode="ü" glyph-name="udieresis" horiz-adv-x="650" d="M224-15 180 8l-70 62-25 80v320l-60 15v15h130q90 0 90-90V150q0-63 22-96t53-34q37 0 67 40 11 15 23 40v370l-60 15v15h280v-15l-60-15V-5h-10q-73 0-111 40-17 18-24 40-14-25-33-45-45-45-112-45-56 0-100 23Zm-22 575-20 20-20 50q0 30 20 50t50 20q30 0 50-20t20-50q0-30-20-50t-50-20q-30 0-50 20Zm185 0-20 20-20 50q0 30 20 50t50 20q30 0 50-20t20-50q0-30-20-50t-50-20q-30 0-50 20Z"/><glyph unicode="ý" glyph-name="yacute" horiz-adv-x="560" d="m105-215-25 24-25 66q0 38 20 59t55 21q8 0 16-1t11-2l13-2v-135q29 5 51 32t49 93l20 50L30 470l-50 15v15h125q52 0 82-21t53-64l125-231 105 271-75 30v15h185v-15l-80-30L300-60q-32-82-68-118t-82-37q-45 0-70 24Zm147 765 40 150h130L287 550h-35Z"/><glyph unicode="þ" glyph-name="thorn" horiz-adv-x="625" d="m30-185 60 15v840l-60 15v15h130q90 0 90-90V450q14 19 33 32 47 33 97 33 59 0 105-30t73-90 27-145q0-128-59-196T365-15q-48 0-84 20-15 7-31 20v-195l60-15v-15H30v15ZM368 15l23 50 24 185q0 129-21 179t-54 51q-34 0-66-40-14-19-24-40V55q14-14 22-20 27-20 53-20 43 0 66 50Z"/><glyph unicode="ÿ" glyph-name="ydieresis" horiz-adv-x="560" d="m105-215-25 24-25 66q0 38 20 59t55 21q8 0 16-1t11-2l13-2v-135q29 5 51 32t49 93l20 50L30 470l-50 15v15h125q52 0 82-21t53-64l125-231 105 271-75 30v15h185v-15l-80-30L300-60q-32-82-68-118t-82-37q-45 0-70 24Zm52 775-20 20-20 50q0 30 20 50t50 20q30 0 50-20t20-50q0-30-20-50t-50-20q-30 0-50 20Zm185 0-20 20-20 50q0 30 20 50t50 20q30 0 50-20t20-50q0-30-20-50t-50-20q-30 0-50 20Z"/><glyph unicode="–" glyph-name="endash" horiz-adv-x="560" d="M30 295v40h500v-40H30Z"/><glyph unicode="—" glyph-name="emdash" horiz-adv-x="780" d="M30 295v40h720v-40H30Z"/><glyph unicode="‘" glyph-name="quoteleft" horiz-adv-x="245" d="m90 440-22 24-23 66q0 92 60 144 26 24 60 36l10-25q-21-7-42-23-44-33-53-87l13 7q16 8 32 8 30 0 52-22t23-53q0-30-22-52t-53-23q-35 0-57 24Z"/><glyph unicode="’" glyph-name="quoteright" horiz-adv-x="245" d="M70 465q21 7 42 23 43 32 53 87l-13-8q-13-7-32-7-30 0-52 22t-23 53q0 30 22 52t53 23q35 0 57-24t23-66q0-92-60-144-26-24-60-36l-10 25Z"/><glyph unicode="‚" glyph-name="quotesinglbase" horiz-adv-x="245" d="M70-105q21 7 42 23 43 32 53 87l-13-8q-13-7-32-7-30 0-52 22T45 65q0 30 22 52t53 23q35 0 57-24t23-66q0-92-60-144-26-24-60-36l-10 25Z"/><glyph unicode="“" glyph-name="quotedblleft" horiz-adv-x="435" d="m90 440-22 24-23 66q0 92 60 144 26 24 60 36l10-25q-21-7-42-23-44-33-53-87l13 7q16 8 32 8 30 0 52-22t23-53q0-30-22-52t-53-23q-35 0-57 24Zm190 0-22 24-23 66q0 92 60 144 25 24 60 36l10-25q-21-7-42-23-44-33-53-87l13 7q16 8 32 8 30 0 52-22t23-53q0-30-22-52t-53-23q-35 0-57 24Z"/><glyph unicode="”" glyph-name="quotedblright" horiz-adv-x="435" d="M70 465q21 7 42 23 43 32 53 87l-13-8q-13-7-32-7-30 0-52 22t-23 53q0 30 22 52t53 23q35 0 57-24t23-66q0-92-60-144-26-24-60-36l-10 25Zm190 0q21 7 42 23 43 32 53 87l-13-8q-13-7-32-7-30 0-52 22t-23 53q0 30 22 52t53 23q35 0 57-24t23-66q0-92-60-144-26-24-60-36l-10 25Z"/><glyph unicode="„" glyph-name="quotedblbase" horiz-adv-x="435" d="M70-105q21 7 42 23 43 32 53 87l-13-8q-13-7-32-7-30 0-52 22T45 65q0 30 22 52t53 23q35 0 57-24t23-66q0-92-60-144-26-24-60-36l-10 25Zm190 0q21 7 42 23 43 32 53 87l-13-8q-13-7-32-7-30 0-52 22t-23 53q0 30 22 52t53 23q35 0 57-24t23-66q0-92-60-144-26-24-60-36l-10 25Z"/><glyph unicode="•" glyph-name="bullet" horiz-adv-x="330" d="m120 230-27 27-28 73q0 45 27 72t73 28q45 0 72-27t28-73q0-45-27-72t-73-28q-45 0-72 27Z"/><glyph unicode="‹" glyph-name="guilsinglleft" horiz-adv-x="365" d="M305 10 15 250l290 240 30-35-235-205L335 45l-30-35Z"/><glyph unicode="›" glyph-name="guilsinglright" horiz-adv-x="365" d="M60 10 30 45l235 205L30 455l30 35 290-240L60 10Z"/></font>
</defs>
</svg>
