<?xml version="1.0" encoding="iso-8859-1"?>
<!-- Generator: Adobe Illustrator 19.0.0, SVG Export Plug-In . SVG Version: 6.00 Build 0)  -->
<svg version="1.1" id="Layer_1" xmlns="http://www.w3.org/2000/svg" xmlns:xlink="http://www.w3.org/1999/xlink" x="0px" y="0px"
	 viewBox="0 0 509.96 509.96" style="enable-background:new 0 0 509.96 509.96;" xml:space="preserve">
<g>
	<rect x="44.252" y="236.395" style="fill:#FFC14F;" width="421.479" height="253.283"/>
	<path style="fill:#954C35;" d="M496.51,255.68H13.45c-1.98,0-3.16-2.21-2.07-3.86L26,229.85c0-0.01,34.66-52.1,48.98-73.62
		c0.46-0.69,1.24-1.11,2.07-1.11h355.29c0.83,0,1.6,0.41,2.06,1.1c26.64,39.69,34,50.66,45.73,68.13
		c4.84,7.22,10.43,15.54,18.44,27.47C499.68,253.46,498.5,255.68,496.51,255.68z"/>
	<path style="fill:#AE583E;" d="M480.13,224.35H71.48c-1.98,0-3.16-2.21-2.07-3.86l14.62-21.97c0-0.01,14.67-22.06,28.87-43.4
		h319.44c0.83,0,1.6,0.41,2.06,1.1C461.04,195.91,468.4,206.88,480.13,224.35z"/>
	<path style="fill:#FFE7C0;" d="M118.553,438.679H74.43c-3.003,0-5.438-2.435-5.438-5.438V292.117c0-3.003,2.435-5.438,5.438-5.438
		h44.124c3.003,0,5.438,2.435,5.438,5.438v141.124C123.991,436.244,121.557,438.679,118.553,438.679z"/>
	<path style="fill:#FFE7C0;" d="M435.553,438.679H391.43c-3.003,0-5.438-2.435-5.438-5.438V292.117c0-3.003,2.435-5.438,5.438-5.438
		h44.124c3.003,0,5.438,2.435,5.438,5.438v141.124C440.991,436.244,438.557,438.679,435.553,438.679z"/>
	<polygon style="fill:#FFD993;" points="361.45,253.2 361.45,489.68 148.53,489.68 148.53,253.2 254.99,155.12 270.25,169.18 	"/>
	<path style="fill:#FFE7C0;" d="M361.45,253.2v236.48H188.18V268.927c0-10.083,3.944-19.765,10.99-26.978l71.08-72.769L361.45,253.2
		z"/>
	<path style="fill:#AE583E;" d="M297.373,488.626H212.61V332.262c0-3.202,2.596-5.798,5.798-5.798h73.167
		c3.202,0,5.798,2.596,5.798,5.798V488.626z"/>
	<path style="fill:#C0694E;" d="M376.142,251.779L263.708,139.346c-4.783-4.783-12.632-4.802-17.434,0L133.841,251.779
		c-4.781,4.781-4.781,12.531,0,17.312l4.6,4.6c4.781,4.781,12.532,4.781,17.312,0l99.238-99.238l99.238,99.238
		c4.781,4.781,12.532,4.781,17.312,0l4.6-4.6C380.922,264.311,380.922,256.56,376.142,251.779z"/>
	<path style="fill:#A6E0EC;" d="M481.601,68.854v83.684c0,7.49-6.085,13.575-13.575,13.575c-7.48,0-13.575-6.085-13.575-13.575
		V68.854c0-18.864-15.344-34.208-34.208-34.208h-0.412c-18.668,0.225-33.787,15.484-33.787,34.208v97.259
		c0,7.49-6.095,13.575-13.575,13.575c-7.49,0-13.575-6.085-13.575-13.575V68.854c0-33.834,27.524-61.358,61.348-61.358
		c6.9,0,13.528,1.142,19.726,3.249C464.151,18.983,481.601,41.92,481.601,68.854z"/>
	<path style="fill:#44BFD7;" d="M502.48,128.53v157.61c0,6.26-5.07,11.33-11.33,11.33h-141.8c-6.26,0-11.33-5.07-11.33-11.33V128.53
		c0-6.26,5.07-11.34,11.33-11.34h141.8C497.41,117.19,502.48,122.27,502.48,128.53z"/>
	<path style="fill:#60C8DD;" d="M491.15,117.19H381.27c-6.26,0-11.34,5.08-11.34,11.34v116.79c0,28.8,23.35,52.15,52.16,52.15h69.06
		c6.26,0,11.33-5.07,11.33-11.33V128.53C502.48,122.27,497.41,117.19,491.15,117.19z"/>
	<path style="fill:#7C3F2C;" d="M497.551,502.46H12.409c-2.452,0-4.439-1.988-4.439-4.439v-13.909c0-2.452,1.988-4.439,4.439-4.439
		h485.143c2.452,0,4.439,1.988,4.439,4.439v13.909C501.991,500.472,500.003,502.46,497.551,502.46z"/>
	<path style="fill:#269AB1;" d="M444.351,190.393c0,8.033-3.932,15.147-9.97,19.529c-0.449,0.318-0.833,0.702-1.152,1.124
		c-0.815,1.03-1.255,2.312-1.255,3.642v21.963c0,6.834-5.926,12.348-12.891,11.665c-6.066-0.59-10.56-5.936-10.56-12.03v-21.598
		c0-1.9-0.927-3.689-2.462-4.812c-6.572-4.784-10.626-12.807-9.811-21.729c1.058-11.702,10.71-21.074,22.45-21.804
		c5.374-0.337,10.401,1.086,14.558,3.773C439.932,174.384,444.351,181.874,444.351,190.393z"/>
	<g>
		<path d="M123.747,279.179h-55c-4.142,0-7.5,3.358-7.5,7.5v152c0,4.142,3.358,7.5,7.5,7.5h55c4.142,0,7.5-3.358,7.5-7.5v-152
			C131.247,282.537,127.889,279.179,123.747,279.179z M116.247,431.179h-40v-137h40V431.179z"/>
		<path d="M99.257,335.015l12.504-13.77c2.785-3.066,2.556-7.81-0.51-10.594c-3.066-2.785-7.81-2.556-10.594,0.51l-12.504,13.77
			c-2.785,3.066-2.556,7.81,0.51,10.594C91.749,338.328,96.491,338.061,99.257,335.015z"/>
		<path d="M100.657,383.552l-7.562,8.327c-4.407,4.853-0.875,12.542,5.55,12.542c5.298,0,6.789-4.624,13.117-10.785
			c2.785-3.066,2.556-7.81-0.51-10.594C108.185,380.257,103.441,380.486,100.657,383.552z"/>
		<path d="M93.004,366.137l12.504-13.771c2.785-3.066,2.556-7.81-0.51-10.594c-3.068-2.785-7.81-2.556-10.594,0.51L81.9,356.053
			c-2.785,3.066-2.556,7.81,0.51,10.594C85.468,369.424,90.212,369.213,93.004,366.137z"/>
		<path d="M417.073,311.161l-12.504,13.77c-4.407,4.853-0.875,12.542,5.55,12.542c2.041,0,4.075-0.828,5.555-2.458l12.504-13.77
			c2.785-3.066,2.556-7.81-0.51-10.594C424.6,307.866,419.857,308.095,417.073,311.161z"/>
		<path d="M417.073,383.552l-7.562,8.327c-4.407,4.853-0.875,12.542,5.55,12.542c5.299,0,6.79-4.625,13.116-10.785
			c2.785-3.066,2.556-7.81-0.51-10.594C424.6,380.257,419.857,380.486,417.073,383.552z"/>
		<path d="M421.925,352.367c2.785-3.066,2.556-7.81-0.51-10.594c-3.068-2.785-7.81-2.556-10.594,0.51l-12.504,13.771
			c-4.407,4.853-0.875,12.542,5.55,12.542c2.041,0,4.075-0.828,5.555-2.458L421.925,352.367z"/>
		<path d="M237.747,385.258c-4.142,0-7.5,3.358-7.5,7.5v17.921c0,4.142,3.358,7.5,7.5,7.5s7.5-3.358,7.5-7.5v-17.921
			C245.247,388.616,241.889,385.258,237.747,385.258z"/>
		<path d="M437.085,163.82c-19.77-12.809-46.423,0.163-48.55,23.64c-1,10.97,3.57,21.39,12.24,28.01v20.82
			c0,17.126,19.824,25.728,32.13,14.6c4.02-3.65,6.32-8.84,6.32-14.24v-21.17C456.534,202.181,455.553,175.616,437.085,163.82z
			 M429.795,203.8c-3.352,2.385-5.57,6.458-5.57,10.89v21.96c0,1.61-0.87,2.65-1.4,3.12c-2.817,2.546-7.05,0.429-7.05-3.48v-21.6
			c0-4.27-2.07-8.33-5.55-10.88c-4.77-3.47-7.29-9.07-6.75-14.99c1.108-12.199,14.998-19.158,25.5-12.39
			C438.838,182.744,439.161,197.019,429.795,203.8z"/>
		<path d="M490.905,304.97c10.38,0,18.83-8.45,18.83-18.83V128.53c0-10.39-8.45-18.84-18.83-18.84h-2.05V68.85
			c0-37.807-30.65-68.85-68.86-68.85c-37.96,0-68.84,30.89-68.84,68.85v40.84h-2.05c-10.39,0-18.83,8.45-18.83,18.84v19.09h-47.93
			l-13.58-13.58c-7.73-7.73-20.31-7.73-28.04,0l-13.58,13.58H76.805c-3.35,0-6.46,1.67-8.31,4.45l-63.6,95.6
			c-4.404,6.628,0.345,15.51,8.31,15.51h23.3v208.992H12.164c-6.583,0-11.939,5.356-11.939,11.939v13.909
			c0,6.583,5.356,11.939,11.939,11.939h75.143c4.142,0,7.5-3.358,7.5-7.5s-3.358-7.5-7.5-7.5H15.225v-7.788
			c58.186,0,474.273,0,479.021,0v7.788H117.307c-4.142,0-7.5,3.358-7.5,7.5s3.358,7.5,7.5,7.5h380
			c6.583,0,11.939-5.356,11.939-11.939v-13.909c0-6.583-5.356-11.939-11.939-11.939h-24.321V304.97H490.905z M366.155,68.85
			c0-29.69,24.15-53.85,53.84-53.85c29.986,0,53.86,24.368,53.86,53.85v40.84h-12.15V68.85c0-22.99-18.71-41.7-41.71-41.7h-0.5
			c-22.71,0.27-41.2,18.98-41.2,41.7v40.84h-12.14V68.85z M446.705,68.85v40.84h-53.41V68.85c0-14.55,11.84-26.53,26.29-26.7h0.41
			C434.725,42.15,446.705,54.13,446.705,68.85z M330.275,162.62v32.94c-2.819-2.821-21.264-21.282-32.93-32.94H330.275z
			 M79.495,162.62h132.65l-17.74,17.74H67.695L79.495,162.62z M57.715,195.36h121.7l-19.49,19.49H44.745L57.715,195.36z
			 M22.575,248.18l12.19-18.33h110.16c-17.384,17.443-16.969,16.828-18.14,18.33C112.213,248.18,37.441,248.18,22.575,248.18z
			 M140.785,472.17h-89.28V263.18h71.2c0.57,4.11,2.44,8.07,5.59,11.21c3.259,2.885,5.907,7.324,12.49,9.42V472.17z M143.505,268.39
			c-3.044-3.537-5.99-4.664-5.99-7.96c0-2.71-8.621,6.661,113.82-115.78c1.85-1.85,4.97-1.85,6.83,0
			c25,25,47.052,47.052,72.11,72.11v22.62c-73.358-73.358-71.743-73.884-77.62-72.13c-2.766,0.8,3.804-5.114-102.45,101.14
			C148.355,270.24,145.345,270.24,143.505,268.39z M353.705,472.17h-49.077v-72.415c0-4.142-3.358-7.5-7.5-7.5s-7.5,3.358-7.5,7.5
			v71.364h-69.762V333.965h69.762v35.791c0,4.142,3.358,7.5,7.5,7.5s7.5-3.358,7.5-7.5v-37.493c0-7.332-5.965-13.297-13.297-13.297
			h-73.167c-7.332,0-13.297,5.965-13.297,13.297V472.17h-49.08V282.63c4.013-2.006-3.627,5.018,98.96-97.57
			c14.532,14.532,61.389,61.389,75.53,75.53v25.55c0,10.38,8.44,18.83,18.83,18.83h4.6V472.17z M457.985,472.17h-89.28v-167.2h9.54
			v133.71c0,4.14,3.36,7.5,7.5,7.5h55c4.14,0,7.5-3.36,7.5-7.5V304.97h9.74V472.17z M393.245,431.18V304.97h40v126.21H393.245z
			 M349.105,289.97c-2.11,0-3.83-1.72-3.83-3.83c0-30.975,0-119.391,0-157.61c0-2.12,1.72-3.84,3.83-3.84c44.231,0,95.989,0,141.8,0
			c2.11,0,3.83,1.72,3.83,3.84c0,19.539,0,134.305,0,157.61c0,2.11-1.72,3.83-3.83,3.83
			C410.271,289.97,476.453,289.97,349.105,289.97z"/>
	</g>
</g>
<g>
</g>
<g>
</g>
<g>
</g>
<g>
</g>
<g>
</g>
<g>
</g>
<g>
</g>
<g>
</g>
<g>
</g>
<g>
</g>
<g>
</g>
<g>
</g>
<g>
</g>
<g>
</g>
<g>
</g>
</svg>
