<?xml version="1.0" encoding="iso-8859-1"?>
<!-- Generator: Adobe Illustrator 19.0.0, SVG Export Plug-In . SVG Version: 6.00 Build 0)  -->
<svg version="1.1" id="Layer_1" xmlns="http://www.w3.org/2000/svg" xmlns:xlink="http://www.w3.org/1999/xlink" x="0px" y="0px"
	 viewBox="0 0 509.96 509.96" style="enable-background:new 0 0 509.96 509.96;" xml:space="preserve">
<g>
	<rect x="132.861" y="231.905" style="fill:#A2ABB8;" width="331.422" height="253.283"/>
	<path style="fill:#FFC14F;" d="M495.07,251.19h-393c-1.98,0-3.16-2.21-2.06-3.86c-0.067,0.1,42-63.139,63.59-95.59
		c0.46-0.69,1.24-1.11,2.07-1.11H430.9c0.83,0,1.6,0.41,2.06,1.1c70.313,104.764,45.168,67.292,64.17,95.6
		C498.24,248.97,497.06,251.19,495.07,251.19z"/>
	<polygon style="fill:#C8D2DC;" points="405.03,248.71 405.03,485.19 192.11,485.19 192.11,248.71 298.57,150.63 314.79,165.57 	"/>
	<path style="fill:#DCE6EB;" d="M405.03,248.71v236.48H226.26V264.47c0-5.31,2.08-10.41,5.79-14.21l82.74-84.69L405.03,248.71z"/>
	<path style="fill:#AE583E;" d="M340.954,484.136h-84.763V327.772c0-3.202,2.596-5.798,5.798-5.798h73.167
		c3.202,0,5.798,2.596,5.798,5.798V484.136z"/>
	<path style="fill:#127D4F;" d="M496.116,497.97H101.029c-2.452,0-4.439-1.988-4.439-4.439v-13.909c0-2.452,1.988-4.439,4.439-4.439
		h395.086c2.452,0,4.439,1.988,4.439,4.439v13.909C500.555,495.982,498.567,497.97,496.116,497.97z"/>
	<path style="fill:#1AB975;" d="M235.92,475.18H114.81c-1.21-2.76-1.88-5.81-1.88-9.02c0-11.44,8.49-20.89,19.51-22.4
		c1.24-0.17,2.27-1.04,2.62-2.24c3.92-13.54,16.41-23.44,31.22-23.44c4.94,0,9.63,1.11,13.83,3.09c3.42,1.61,6.51,3.8,9.15,6.44
		c4.61,4.61,7.84,10.59,9.02,17.29c0.4,2.24,2.9,3.35,4.83,2.13c3.91-2.48,8.65-3.79,13.7-3.43c11.02,0.78,20.01,9.66,20.9,20.67
		C238.03,468.17,237.36,471.88,235.92,475.18z"/>
	<path style="fill:#1AB975;" d="M482.34,475.18H361.23c-1.21-2.76-1.88-5.81-1.88-9.02c0-11.44,8.49-20.89,19.52-22.4
		c1.24-0.17,2.26-1.04,2.61-2.24c3.93-13.54,16.41-23.44,31.22-23.44c4.94,0,9.63,1.11,13.83,3.09c3.42,1.61,6.51,3.8,9.15,6.44
		c4.61,4.61,7.85,10.59,9.03,17.29c0.4,2.24,2.89,3.35,4.82,2.13c3.92-2.48,8.65-3.79,13.71-3.43c11.01,0.78,20,9.66,20.9,20.67
		C484.46,468.17,483.78,471.88,482.34,475.18z"/>
	<path style="fill:#1ED688;" d="M235.92,475.18h-93.45c-1.21-2.76-1.88-5.81-1.88-9.02c0-11.44,8.49-20.89,19.51-22.4
		c1.24-0.17,2.27-1.04,2.62-2.24c2.61-9.02,9.02-16.42,17.39-20.35c3.42,1.61,6.51,3.8,9.15,6.44c4.61,4.61,7.84,10.59,9.02,17.29
		c0.4,2.24,2.9,3.35,4.83,2.13c3.91-2.48,8.65-3.79,13.7-3.43c11.02,0.78,20.01,9.66,20.9,20.67
		C238.03,468.17,237.36,471.88,235.92,475.18z"/>
	<path style="fill:#1ED688;" d="M482.34,475.18h-93.45c-1.21-2.76-1.88-5.81-1.88-9.02c0-11.44,8.49-20.89,19.52-22.4
		c1.24-0.17,2.26-1.04,2.61-2.24c2.62-9.02,9.03-16.42,17.39-20.35c3.42,1.61,6.51,3.8,9.15,6.44c4.61,4.61,7.85,10.59,9.03,17.29
		c0.4,2.24,2.89,3.35,4.82,2.13c3.92-2.48,8.65-3.79,13.71-3.43c11.01,0.78,20,9.66,20.9,20.67
		C484.46,468.17,483.78,471.88,482.34,475.18z"/>
	<path style="fill:#5F6C75;" d="M405.034,309.72h-20.779c-2.761,0-5-2.239-5-5v-14.64c0-2.761,2.239-5,5-5h20.779V309.72z"/>
	<path style="fill:#7E8B96;" d="M405.034,334.36h-37.845c-2.761,0-5-2.239-5-5v-14.64c0-2.761,2.239-5,5-5h37.845V334.36z"/>
	<path style="fill:#7E8B96;" d="M192.111,388.268h25.779v19.64c0,2.761-2.239,5-5,5h-20.779V388.268z"/>
	<path style="fill:#5F6C75;" d="M192.111,363.628h37.845c2.761,0,5,2.239,5,5v13.65c0,3.308-2.682,5.99-5.99,5.99h-36.854V363.628z"
		/>
	<path style="fill:#F29500;" d="M419.723,247.289L307.289,134.856c-4.783-4.783-12.632-4.802-17.434,0L177.422,247.289
		c-4.781,4.781-4.781,12.531,0,17.312l4.6,4.6c4.781,4.781,12.532,4.781,17.312,0l99.238-99.238l99.238,99.238
		c4.781,4.781,12.532,4.781,17.312,0l4.6-4.6C424.503,259.821,424.503,252.07,419.723,247.289z"/>
	<path style="fill:#60C8DD;" d="M192.111,344.987c0,11.55-9.363,20.913-20.913,20.913H28.416c-11.55,0-20.913-9.363-20.913-20.913
		V28.413c0-11.55,9.363-20.913,20.913-20.913h142.783c11.55,0,20.913,9.363,20.913,20.913V344.987z"/>
	<path style="fill:#2CB3CD;" d="M93.545,7.5H69.668H34.741l9.335,40.416c0.636,2.755,3.09,4.706,5.917,4.706h99.627
		c2.828,0,5.281-1.951,5.917-4.706L164.873,7.5H93.545z"/>
	<path style="fill:#C2EAF2;" d="M169.35,83.06v249.2c0,2.76-2.24,5-5,5H35.27c-2.76,0-5-2.24-5-5V83.06c0-2.76,2.24-5,5-5h129.08
		C167.11,78.06,169.35,80.3,169.35,83.06z"/>
	<path style="fill:#DEF4F8;" d="M169.35,83.06v249.2c0,2.76-2.24,5-5,5H58.05c-2.76,0-5-2.24-5-5V83.06c0-2.76,2.24-5,5-5h106.3
		C167.11,78.06,169.35,80.3,169.35,83.06z"/>
	<g>
		<path d="M496.116,467.682h-4.445c0.688-13.613-7.823-25.468-19.891-29.862V258.69h23.29c7.972,0,12.741-8.928,8.29-15.54
			l-64.17-95.6c-1.86-2.77-4.95-4.42-8.29-4.42H326.17l-13.58-13.58c-7.73-7.73-20.31-7.73-28.04,0l-13.58,13.58h-71.36V28.41
			C199.61,12.75,186.87,0,171.2,0H28.42C12.75,0,0,12.75,0,28.41v316.58c0,15.66,12.75,28.41,28.42,28.41h96.94v64.42
			c-12.122,4.372-20.56,16.338-19.892,29.862h-4.439c-6.583,0-11.939,5.356-11.939,11.939v13.909
			c0,6.583,5.356,11.939,11.939,11.939h65.086c4.142,0,7.5-3.358,7.5-7.5s-3.358-7.5-7.5-7.5H104.09v-7.788
			c23.404,0,373.058,0,388.965,0v7.788H196.116c-4.142,0-7.5,3.358-7.5,7.5s3.358,7.5,7.5,7.5h300
			c6.583,0,11.939-5.356,11.939-11.939v-13.909C508.055,473.038,502.699,467.682,496.116,467.682z M485.66,243.69
			c-6.462,0-51.595,0-59.12,0c-1.172-1.503-0.753-0.884-18.14-18.33h64.96L485.66,243.69z M412.53,279.33
			c6.532-2.102,9.1-6.422,12.5-9.43c3.14-3.14,5.01-7.1,5.58-11.21h26.17v177.74c-2.08,0.33-4.11,0.88-6.07,1.64
			c-1.94-5.91-5.25-11.29-9.72-15.77c-12.762-12.745-28.052-11.639-28.46-11.72C412.53,410.461,412.531,289.821,412.53,279.33z
			 M428.23,158.13l11.91,17.74h-16.23c-4.15,0-7.5,3.36-7.5,7.5s3.35,7.5,7.5,7.5h26.3l13.08,19.49H393.4l-19.49-19.49h20
			c4.14,0,7.5-3.36,7.5-7.5s-3.36-7.5-7.5-7.5h-35l-17.74-17.74H428.23z M199.61,158.13h56.36l-17.74,17.74h-38.62V158.13z
			 M199.61,190.87h23.62l-19.48,19.49h-4.14V190.87z M199.61,235.71c8.014-8.014,83.815-83.815,95.55-95.55
			c1.85-1.85,4.98-1.85,6.83,0c36.266,36.266,80.184,80.184,112.43,112.43c1.66,1.66,1.83,4.25,0.51,6.1
			c-0.278,0.437-0.257,0.337-5.11,5.21c-1.85,1.85-4.86,1.85-6.71,0C296.452,157.242,303.053,163.452,300.66,162.76
			c-2.595-0.775-5.457-0.033-7.39,1.9c-17.068,17.068-74.306,74.306-93.66,93.66V235.71z M386.754,302.22v-9.64h10.776v9.64H386.754
			z M397.53,317.22v9.64h-27.841v-9.64C379.282,317.22,387.837,317.22,397.53,317.22z M155.443,15l-6.958,30.122H51.128L44.171,15
			H155.443z M28.42,358.4c-7.4,0-13.42-6.02-13.42-13.41V28.41C15,21.02,21.02,15,28.42,15h0.356l7.993,34.604
			c1.43,6.193,6.868,10.519,13.225,10.519h99.627c6.356,0,11.795-4.325,13.225-10.518L170.838,15h0.362
			c7.39,0,13.41,6.02,13.41,13.41c0,19.696,0,297.057,0,316.58c0,7.39-6.02,13.41-13.41,13.41
			C119.095,358.4,76.136,358.4,28.42,358.4z M184.61,370.028v44.992c-14.155-7.331-31.65-5.564-44.25,5.15V373.4
			C167.631,372.571,174.454,375.49,184.61,370.028z M230.22,467.68c-23.977,0-85.067,0-109.72,0
			c-0.805-8.048,4.944-15.381,12.96-16.49c4.252-0.596,7.618-3.593,8.8-7.58c5.425-18.705,29.41-24.194,42.35-10.02
			c8.773,9.413,3.711,16.662,12.49,20.54c3.125,1.389,6.901,1.205,10.02-0.76C217.613,446.72,231.455,455.056,230.22,467.68z
			 M351.89,467.68h-3.436v-72.416c0-4.142-3.357-7.5-7.5-7.5s-7.5,3.358-7.5,7.5v71.365h-69.763V329.475h69.763v35.79
			c0,4.142,3.357,7.5,7.5,7.5s7.5-3.358,7.5-7.5v-37.492c0-7.332-5.966-13.297-13.298-13.297h-73.167
			c-7.333,0-13.298,5.965-13.298,13.297V467.68h-3.441c1.227-21.247-20.403-37.597-40.97-29.61c-1.12-3.4-2.68-6.63-4.67-9.61
			v-8.052h18.28c4.142,0,7.5-3.358,7.5-7.5v-17.14h9.565c4.142,0,7.5-3.358,7.5-7.5v-24.64c0-4.142-3.358-7.5-7.5-7.5H199.61
			c0-16.769,0-61.721,0-77.988c3.447-1.724-4.921,6.311,98.96-97.57c102.681,102.681,94.775,95.176,97.944,97.01h-17.26
			c-4.143,0-7.5,3.358-7.5,7.5v17.14h-9.565c-4.143,0-7.5,3.358-7.5,7.5v24.64c0,4.142,3.357,7.5,7.5,7.5h35.341v71.74
			c-10.21,4.22-18.49,12.58-22.4,23.23C360.863,440.15,351.039,453.515,351.89,467.68z M210.39,395.768v9.64h-10.779v-9.64H210.39z
			 M199.611,380.768v-9.64h27.844v9.64C217.862,380.768,209.306,380.768,199.611,380.768z M476.64,467.68
			c-24.819,0-85.65,0-109.71,0c-0.826-8.25,5.126-15.415,12.96-16.49c4.17-0.58,7.62-3.55,8.79-7.58
			c5.156-17.776,27.953-24.418,41.7-10.7c9.604,9.604,4.216,17.278,13.14,21.22c6.171,2.726,9.887-1.166,13.26-2.3
			C466.987,448.355,477.724,456.605,476.64,467.68z"/>
		<path d="M281.573,380.768c-4.143,0-7.5,3.358-7.5,7.5v17.921c0,4.142,3.357,7.5,7.5,7.5s7.5-3.358,7.5-7.5v-17.921
			C289.073,384.126,285.715,380.768,281.573,380.768z"/>
		<path d="M63.233,37.115h46.415c4.142,0,7.5-3.358,7.5-7.5s-3.358-7.5-7.5-7.5H63.233c-4.142,0-7.5,3.358-7.5,7.5
			S59.091,37.115,63.233,37.115z"/>
		<circle cx="129.487" cy="29.614" r="6.894"/>
		<path d="M176.846,336.293V79.027c0-4.667-3.796-8.463-8.463-8.463H31.232c-4.667,0-8.463,3.796-8.463,8.463v257.266
			c0,4.667,3.797,8.463,8.463,8.463h137.151C173.049,344.756,176.846,340.959,176.846,336.293z M161.846,329.756H37.768V85.564
			h124.078V329.756z"/>
		<path d="M41.713,192.023c3.587,2.069,8.173,0.84,10.245-2.747c21.391-37.065,75.393-36.321,95.573,1.611
			c1.945,3.657,6.486,5.044,10.144,3.099c3.657-1.946,5.044-6.487,3.099-10.144c-25.731-48.368-94.565-49.267-121.807-2.064
			C36.896,185.365,38.126,189.952,41.713,192.023z"/>
		<path d="M51.93,198.304c-1.966,3.646-0.605,8.195,3.041,10.162c3.645,1.966,8.194,0.605,10.162-3.041
			c14.888-27.599,54.676-27.1,68.746,1.109c1.852,3.713,6.359,5.209,10.059,3.364c3.707-1.849,5.212-6.353,3.364-10.059
			C127.783,160.708,72.552,160.075,51.93,198.304z"/>
		<path d="M65.308,215.281c-1.837,3.712-0.317,8.211,3.395,10.048s8.211,0.317,10.048-3.395c8.568-17.31,33.127-16.713,41.102,0.538
			c1.268,2.741,3.979,4.354,6.813,4.354c5.414,0,9.116-5.645,6.803-10.649C120.252,187.592,79.499,186.605,65.308,215.281z"/>
		<path d="M99.175,217.706c-10.667,0-19.346,8.679-19.346,19.347c0,10.667,8.679,19.346,19.346,19.346
			c10.668,0,19.347-8.679,19.347-19.346C118.522,226.385,109.843,217.706,99.175,217.706z M99.175,241.399
			c-2.396,0-4.346-1.95-4.346-4.346c0-2.397,1.95-4.347,4.346-4.347c2.397,0,4.347,1.95,4.347,4.347
			C103.522,239.449,101.572,241.399,99.175,241.399z"/>
	</g>
</g>
<g>
</g>
<g>
</g>
<g>
</g>
<g>
</g>
<g>
</g>
<g>
</g>
<g>
</g>
<g>
</g>
<g>
</g>
<g>
</g>
<g>
</g>
<g>
</g>
<g>
</g>
<g>
</g>
<g>
</g>
</svg>
