<?xml version="1.0" encoding="iso-8859-1"?>
<!-- Generator: Adobe Illustrator 19.0.0, SVG Export Plug-In . SVG Version: 6.00 Build 0)  -->
<svg version="1.1" id="Layer_1" xmlns="http://www.w3.org/2000/svg" xmlns:xlink="http://www.w3.org/1999/xlink" x="0px" y="0px"
	 viewBox="0 0 509.33 509.33" style="enable-background:new 0 0 509.33 509.33;" xml:space="preserve">
<g>
	<rect x="44.056" y="235.766" style="fill:#A2ABB8;" width="331.422" height="253.283"/>
	<path style="fill:#FFC14F;" d="M406.264,255.05h-393c-1.98,0-3.16-2.21-2.06-3.86c46.586-70.023,9.108-13.69,63.59-95.59
		c0.46-0.69,1.24-1.11,2.07-1.11h265.23c0.83,0,1.6,0.41,2.06,1.1c41.3,61.534,34.365,51.204,64.17,95.6
		C409.434,252.83,408.254,255.05,406.264,255.05z"/>
	<polygon style="fill:#C8D2DC;" points="316.224,252.57 316.224,489.05 103.304,489.05 103.304,252.57 209.764,154.49 
		225.984,169.43 	"/>
	<path style="fill:#DCE6EB;" d="M316.224,252.57v236.48h-178.77V268.33c0-5.31,2.08-10.41,5.79-14.21l82.74-84.69L316.224,252.57z"
		/>
	<path style="fill:#AE583E;" d="M252.148,487.996h-84.763V331.632c0-3.202,2.596-5.798,5.798-5.798h73.167
		c3.202,0,5.798,2.596,5.798,5.798V487.996z"/>
	<path style="fill:#127D4F;" d="M407.31,501.83H12.224c-2.452,0-4.439-1.988-4.439-4.439v-13.909c0-2.452,1.988-4.439,4.439-4.439
		H407.31c2.452,0,4.439,1.988,4.439,4.439v13.909C411.749,499.843,409.762,501.83,407.31,501.83z"/>
	<path style="fill:#1AB975;" d="M147.114,479.04H26.004c-1.21-2.76-1.88-5.81-1.88-9.02c0-11.44,8.49-20.89,19.51-22.4
		c1.24-0.17,2.27-1.04,2.62-2.24c3.92-13.54,16.41-23.44,31.22-23.44c4.94,0,9.63,1.11,13.83,3.09c3.42,1.61,6.51,3.8,9.15,6.44
		c4.61,4.61,7.84,10.59,9.02,17.29c0.4,2.24,2.9,3.35,4.83,2.13c3.91-2.48,8.65-3.79,13.7-3.43c11.02,0.78,20.01,9.66,20.9,20.67
		C149.224,472.03,148.554,475.74,147.114,479.04z"/>
	<path style="fill:#1AB975;" d="M393.534,479.04h-121.11c-1.21-2.76-1.88-5.81-1.88-9.02c0-11.44,8.49-20.89,19.52-22.4
		c1.24-0.17,2.26-1.04,2.61-2.24c3.93-13.54,16.41-23.44,31.22-23.44c4.94,0,9.63,1.11,13.83,3.09c3.42,1.61,6.51,3.8,9.15,6.44
		c4.61,4.61,7.85,10.59,9.03,17.29c0.4,2.24,2.89,3.35,4.82,2.13c3.92-2.48,8.65-3.79,13.71-3.43c11.01,0.78,20,9.66,20.9,20.67
		C395.654,472.03,394.974,475.74,393.534,479.04z"/>
	<path style="fill:#1ED688;" d="M147.114,479.04h-93.45c-1.21-2.76-1.88-5.81-1.88-9.02c0-11.44,8.49-20.89,19.51-22.4
		c1.24-0.17,2.27-1.04,2.62-2.24c2.61-9.02,9.02-16.42,17.39-20.35c3.42,1.61,6.51,3.8,9.15,6.44c4.61,4.61,7.84,10.59,9.02,17.29
		c0.4,2.24,2.9,3.35,4.83,2.13c3.91-2.48,8.65-3.79,13.7-3.43c11.02,0.78,20.01,9.66,20.9,20.67
		C149.224,472.03,148.554,475.74,147.114,479.04z"/>
	<path style="fill:#1ED688;" d="M393.534,479.04h-93.45c-1.21-2.76-1.88-5.81-1.88-9.02c0-11.44,8.49-20.89,19.52-22.4
		c1.24-0.17,2.26-1.04,2.61-2.24c2.62-9.02,9.03-16.42,17.39-20.35c3.42,1.61,6.51,3.8,9.15,6.44c4.61,4.61,7.85,10.59,9.03,17.29
		c0.4,2.24,2.89,3.35,4.82,2.13c3.92-2.48,8.65-3.79,13.71-3.43c11.01,0.78,20,9.66,20.9,20.67
		C395.654,472.03,394.974,475.74,393.534,479.04z"/>
	<path style="fill:#5F6C75;" d="M316.228,313.58h-20.779c-2.761,0-5-2.239-5-5v-14.64c0-2.761,2.239-5,5-5h20.779V313.58z"/>
	<path style="fill:#7E8B96;" d="M316.228,338.22h-37.845c-2.761,0-5-2.239-5-5v-14.64c0-2.761,2.239-5,5-5h37.845V338.22z"/>
	<path style="fill:#7E8B96;" d="M103.305,392.128h25.779v19.64c0,2.761-2.239,5-5,5h-20.779V392.128z"/>
	<path style="fill:#5F6C75;" d="M103.305,367.488h37.845c2.761,0,5,2.239,5,5v19.64h-42.845V367.488z"/>
	<path style="fill:#F29500;" d="M330.917,251.149L218.484,138.716c-4.783-4.783-12.632-4.802-17.434,0L88.616,251.149
		c-4.781,4.781-4.781,12.531,0,17.312l4.6,4.6c4.781,4.781,12.532,4.781,17.312,0l99.238-99.238l99.238,99.238
		c4.781,4.781,12.532,4.781,17.312,0l4.6-4.6C335.698,263.681,335.698,255.93,330.917,251.149z"/>
	<path style="fill:#60C8DD;" d="M501.546,113.59l-0.05,20.85c-0.01,3.26-2.66,5.9-5.92,5.89l-32.13-0.08
		c-2.5-0.01-4.78,1.55-5.6,3.92c-1.72,5.02-3.98,9.78-6.7,14.23c-1.41,2.31-1.04,5.29,0.87,7.21l21.28,21.39
		c2.3,2.31,2.29,6.05-0.02,8.35l-8.23,8.19l-6.55,6.52c-2.31,2.3-6.05,2.29-8.34-0.02l-22.69-22.8c-1.76-1.77-4.46-2.27-6.71-1.17
		c-4.68,2.29-9.64,4.09-14.82,5.34c-2.62,0.63-4.46,3.01-4.47,5.71l-0.07,30.17c-0.01,3.26-2.66,5.89-5.92,5.88l-20.85-0.05
		c-3.26-0.01-5.9-2.66-5.89-5.91l0.08-32.13c0.01-2.51-1.55-4.79-3.92-5.61c-5.02-1.72-9.78-3.98-14.23-6.7
		c-2.31-1.41-5.29-1.04-7.21,0.87l-21.39,21.28c-2.31,2.3-6.05,2.29-8.35-0.02l-14.71-14.78c-2.3-2.31-2.29-6.04,0.02-8.34
		l22.8-22.69c1.77-1.76,2.27-4.46,1.17-6.7c-2.29-4.69-4.09-9.65-5.34-14.83c-0.63-2.62-3.01-4.46-5.71-4.47l-30.17-0.07
		c-3.26-0.01-5.89-2.66-5.88-5.92l0.05-20.85c0.01-3.26,2.66-5.9,5.91-5.89l32.13,0.08c2.51,0.01,4.79-1.55,5.61-3.92
		c1.72-5.01,3.98-9.78,6.7-14.23c1.41-2.31,1.04-5.29-0.87-7.21l-21.28-21.39c-2.3-2.31-2.29-6.05,0.02-8.35l14.78-14.71
		c2.31-2.3,6.04-2.29,8.34,0.02l22.69,22.8c1.76,1.77,4.46,2.27,6.7,1.17c4.69-2.28,9.65-4.09,14.83-5.34
		c2.62-0.63,4.46-3.01,4.47-5.71l0.07-30.18c0.01-3.25,2.65-5.89,5.9-5.89h20.86c3.26,0,5.91,2.65,5.9,5.92l-0.08,32.2
		c-0.01,2.5,1.55,4.78,3.92,5.6c5.01,1.72,9.78,3.98,14.23,6.7c2.31,1.41,5.29,1.04,7.21-0.87l21.39-21.28
		c2.31-2.3,6.05-2.29,8.35,0.02l14.71,14.78c2.3,2.31,2.29,6.05-0.02,8.34l-22.8,22.69c-1.77,1.76-2.27,4.46-1.17,6.71
		c2.28,4.68,4.09,9.64,5.34,14.82c0.63,2.63,3.01,4.46,5.71,4.47l30.17,0.07C498.916,107.68,501.556,110.33,501.546,113.59z"/>
	<path style="fill:#7CD2E3;" d="M501.546,113.59l-0.05,20.85c-0.01,3.26-2.66,5.9-5.92,5.89l-32.13-0.08
		c-2.5-0.01-4.78,1.55-5.6,3.92c-1.72,5.02-3.98,9.78-6.7,14.23c-1.41,2.31-1.04,5.29,0.87,7.21l21.28,21.39
		c2.3,2.31,2.29,6.05-0.02,8.35l-8.23,8.19c-50.77-21.09-86.47-71.16-86.47-129.56c0-24.05,6.06-46.7,16.74-66.48h7.49
		c3.26,0,5.91,2.65,5.9,5.92l-0.08,32.2c-0.01,2.5,1.55,4.78,3.92,5.6c5.01,1.72,9.78,3.98,14.23,6.7c2.31,1.41,5.29,1.04,7.21-0.87
		l21.39-21.28c2.31-2.3,6.05-2.29,8.35,0.02l14.71,14.78c2.3,2.31,2.29,6.05-0.02,8.34l-22.8,22.69c-1.77,1.76-2.27,4.46-1.17,6.71
		c2.28,4.68,4.09,9.64,5.34,14.82c0.63,2.63,3.01,4.46,5.71,4.47l30.17,0.07C498.916,107.68,501.556,110.33,501.546,113.59z"/>
	<circle style="fill:#2CB3CD;" cx="388.72" cy="120.346" r="50.839"/>
	<path style="fill:#269AB1;" d="M412.406,165.32c-25.782,13.814-58.483,2.557-70.32-24.74c-12.891-29.691,4.941-63.675,36.54-70.07
		C377.511,102.541,388.546,137.554,412.406,165.32z"/>
	<circle style="fill:#60C8DD;" cx="388.72" cy="120.346" r="22.617"/>
	<path style="fill:#44BFD7;" d="M396.026,141.75c-8.62,2.95-18.53,0.47-24.7-6.95c-10.019-12.065-4.968-30.307,9.51-35.65
		C383.586,114.34,388.786,128.69,396.026,141.75z"/>
	<g>
		<path d="M192.767,384.628c-4.143,0-7.5,3.358-7.5,7.5v17.921c0,4.142,3.357,7.5,7.5,7.5s7.5-3.358,7.5-7.5v-17.921
			C200.267,387.986,196.909,384.628,192.767,384.628z"/>
		<path d="M495.676,100.17l-28.92-0.07c-1.24-4.8-2.94-9.49-5.05-13.98l22-21.89c5.241-5.22,5.265-13.705,0.04-18.95l-14.71-14.78
			c-5.203-5.245-13.704-5.275-18.95-0.05l-20.51,20.41c-4.28-2.52-8.79-4.65-13.45-6.33l0.08-31.09
			C416.227,5.911,410.109,0,402.806,0h-20.86c-7.37,0-13.38,6-13.4,13.37l-0.07,28.94c-4.8,1.24-9.49,2.94-13.99,5.05l-21.88-22
			c-5.658-5.658-14.064-4.906-18.95-0.04l-14.78,14.71c-5.205,5.164-5.316,13.642-0.05,18.95l20.41,20.51
			c-2.52,4.28-4.65,8.79-6.34,13.45c-18.248-0.047-12.676-0.033-31.05-0.08c-7.363,0-13.379,5.947-13.4,13.37l-0.05,20.85
			c-0.021,7.409,5.952,13.419,13.36,13.44l28.93,0.07c0.56,2.16,1.21,4.29,1.95,6.4h-75.27l-13.58-13.58
			c-7.978-7.979-20.515-7.505-28.04,0l-13.58,13.58h-105.3c-3.35,0-6.46,1.67-8.31,4.45l-63.6,95.6
			c-4.405,6.629,0.346,15.51,8.31,15.51h23.29v179.13c-12.128,4.375-20.558,16.332-19.892,29.862h-4.44
			c-6.583,0-11.939,5.356-11.939,11.939v13.909c0,6.583,5.356,11.939,11.939,11.939H77.31c4.143,0,7.5-3.358,7.5-7.5
			s-3.357-7.5-7.5-7.5H15.284v-7.788c23.404,0,373.058,0,388.965,0v7.788H107.31c-4.143,0-7.5,3.358-7.5,7.5s3.357,7.5,7.5,7.5h300
			c6.583,0,11.939-5.356,11.939-11.939v-13.909c0-6.583-5.356-11.939-11.939-11.939h-4.443c0.687-13.604-7.816-25.465-19.891-29.862
			V262.55h23.29c7.972,0,12.741-8.928,8.29-15.54l-8.09-12.05c4.081-5.796,1.782-10.06,2.5-36.58c4.8-1.24,9.49-2.93,13.98-5.05
			l21.89,22c5.163,5.204,13.652,5.318,18.95,0.04l14.78-14.7c5.24-5.22,5.26-13.72,0.05-18.96l-20.41-20.5
			c2.52-4.29,4.65-8.8,6.33-13.46c18.255,0.047,12.68,0.033,31.06,0.08c7.37,0,13.38-5.99,13.4-13.37l0.05-20.85
			C509.066,106.269,503.158,100.191,495.676,100.17z M308.286,161.99c-14.413,14.599-15.341,14.633-16.96,17.74h-21.22l-17.74-17.74
			H308.286z M327.425,210.171c0.017-0.017,0.034-0.034,0.049-0.048c-0.005,0.005-0.01,0.01-0.015,0.015
			c0.024-0.024,0.054-0.053,0.088-0.087c-0.004,0.004-0.007,0.008-0.011,0.011c0.02-0.02,0.027-0.027,0.042-0.042
			c0.089-0.089,0.151-0.15,0.072-0.072c1.041-1.036,5.314-5.29,20.207-20.118c4.46,2.642,8.885,4.669,13.46,6.33l-0.05,18.06h-56.68
			l-19.49-19.49h7.97c0.399,0.478-0.624-0.589,15.33,15.46c5.282,5.303,13.775,5.214,18.96,0.05
			c-0.007,0.007,0.04-0.039,0.103-0.102C327.446,210.15,327.435,210.161,327.425,210.171z M209.766,142.62
			c2.996,0-7.002-9.012,115.85,113.83c1.66,1.66,1.83,4.25,0.51,6.1c-0.244,0.383-5.005,5.106-5.11,5.21
			c-1.85,1.85-4.86,1.85-6.71,0c-107.433-107.433-99.816-100.378-102.45-101.14c-5.89-1.758-7.94,2.826-20.76,15.27
			c-75.401,75.402-7.508,7.508-85.87,85.87c-1.85,1.85-4.86,1.85-6.71,0c-0.34-0.34-4.753-4.753-4.6-4.6
			c-1.792-1.793-1.88-4.819,0-6.71C215.491,134.875,206.657,142.62,209.766,142.62z M323.726,283.19c2.89-0.93,5.61-2.54,7.89-4.82
			c2.558-3.117,8.927-6.784,10.18-15.82h26.18v177.74c-2.08,0.33-4.11,0.88-6.07,1.64c-5.176-15.768-20.104-27.49-38.01-27.49h-0.17
			C323.726,396.2,323.727,301.425,323.726,283.19z M297.949,306.08v-9.64h10.777v9.64H297.949z M308.726,321.08v9.64h-27.842v-9.64
			C290.477,321.08,299.032,321.08,308.726,321.08z M110.806,384.628v-9.64h27.844v9.64h-9.565H110.806z M121.584,399.628v9.64
			h-10.778v-9.64H121.584z M95.806,283.18c0,63.587,0,114.939,0,135.7c-14.071-7.287-31.574-5.629-44.25,5.15V262.55h26.18
			c0.57,4.11,2.43,8.07,5.58,11.21C86.728,276.781,89.365,281.13,95.806,283.18z M79.556,161.99h87.61l-17.74,17.74h-81.67
			L79.556,161.99z M57.776,194.73h76.66l-19.49,19.49h-70.14L57.776,194.73z M22.636,247.55l12.19-18.33h65.12
			c-17.395,17.454-16.968,16.827-18.14,18.33C61.9,247.55,40.082,247.55,22.636,247.55z M141.416,471.54
			c-23.977,0-85.066,0-109.72,0c-0.806-8.049,4.945-15.382,12.96-16.49c4.251-0.596,7.618-3.592,8.8-7.58
			c3.08-10.62,12.95-18.03,24.01-18.03c12.436,0,22.577,9.042,24.63,20.63c1.314,7.458,9.762,11.24,16.21,7.16
			C128.824,450.589,142.65,458.933,141.416,471.54z M263.086,471.54h-3.437v-72.416c0-4.142-3.357-7.5-7.5-7.5s-7.5,3.358-7.5,7.5
			v71.365h-69.763V333.335h69.763v35.79c0,4.142,3.357,7.5,7.5,7.5s7.5-3.358,7.5-7.5v-37.492c0-7.332-5.966-13.297-13.298-13.297
			h-73.168c-7.332,0-13.297,5.965-13.297,13.297V471.54h-3.44c1.226-21.23-20.401-37.598-40.97-29.61c-1.12-3.4-2.68-6.63-4.67-9.61
			v-8.052h18.278c4.143,0,7.5-3.358,7.5-7.5v-17.14h9.565c4.143,0,7.5-3.358,7.5-7.5v-24.64c0-4.142-3.357-7.5-7.5-7.5h-35.344V282
			c3.451-1.725-4.893,6.283,98.96-97.57c102.878,102.879,94.758,95.161,97.947,97.01h-17.264c-4.143,0-7.5,3.358-7.5,7.5v17.14
			h-9.565c-4.143,0-7.5,3.358-7.5,7.5v24.64c0,4.142,3.357,7.5,7.5,7.5h35.342v71.74c-10.21,4.22-18.5,12.58-22.4,23.23
			C272.028,444.017,262.241,457.413,263.086,471.54z M387.836,471.54c-24.819,0-85.65,0-109.71,0
			c-0.825-8.267,5.14-15.417,12.96-16.49c4.17-0.58,7.62-3.55,8.79-7.58c1.52-5.24,4.69-9.7,8.85-12.87
			c14.96-11.415,36.561-2.849,39.79,15.47c1.31,7.438,9.744,11.256,16.22,7.16C375.236,450.539,389.069,458.948,387.836,471.54z
			 M337.726,247.55c-1.171-1.501-0.748-0.879-18.14-18.33h41.8c0.96,6.43,6.52,11.38,13.22,11.4l17.63,0.04l4.62,6.89
			C389.973,247.55,344.613,247.55,337.726,247.55z M493.996,132.83c-17.95-0.047-12.476-0.033-30.56-0.08
			c-5.73,0-10.83,3.61-12.68,8.98c-1.53,4.44-3.55,8.73-6.01,12.76c-3.22,5.27-2.42,12.02,1.95,16.41l20.16,20.26l-12.52,12.45
			l-21.56-21.66c-4.04-4.07-10.2-5.12-15.31-2.62c-4.24,2.07-8.71,3.68-13.29,4.79c-5.99,1.45-10.19,6.79-10.21,12.98
			c-0.002,0.948-0.068,27.781-0.07,28.57c-0.836-0.002-15.526-0.042-17.66-0.04c0.1-38.011,0.047-18.13,0.08-30.53
			c0.025-5.858-3.702-10.906-8.98-12.72c-11.984-4.121-13.094-7.887-19.57-7.97c-6.906-0.079-10.287,4.797-11.02,5.32
			c0.006-0.005,0.007-0.007,0,0c-0.008,0.007-0.012,0.012-0.019,0.019c0.001-0.001,0.001-0.001,0.002-0.002
			c-0.04,0.039-0.177,0.176-0.208,0.207c-5.756,5.728-13.745,13.679-18.615,18.526c-0.001-0.001-0.004-0.004-0.006-0.006
			c0,0,0.001,0.001,0.001,0.001c-0.009-0.009-0.014-0.014-0.022-0.022c0.001,0.001,0.003,0.003,0.004,0.004
			c-0.013-0.013-0.03-0.03-0.054-0.055c0.007,0.007,0.013,0.013,0.02,0.02c-0.013-0.013-0.022-0.022-0.034-0.034
			c-0.009-0.009-0.025-0.025-0.036-0.036c-0.02-0.02-0.027-0.027-0.04-0.04c-0.593-0.596-3.13-3.145-12.283-12.343
			c23.861-23.762,22.446-22.139,23.58-23.98c2.42-3.84,2.74-8.72,0.7-12.9c-1.916-3.887-3.648-8.586-4.79-13.29
			c-1.45-5.99-6.79-10.19-12.98-10.21l-28.57-0.07v-17.65c18.01,0.041,12.499,0.029,30.61,0.07c5.73,0,10.82-3.6,12.68-8.98
			c1.53-4.44,3.55-8.73,6.01-12.76c3.22-5.27,2.42-12.02-1.95-16.41l-20.16-20.26l12.51-12.45l21.57,21.66
			c4.04,4.07,10.19,5.12,15.31,2.62c4.24-2.07,8.71-3.68,13.29-4.79c6-1.45,10.19-6.79,10.21-12.98l0.07-28.59h17.65l-0.07,30.6
			c-0.02,5.74,3.59,10.85,8.98,12.71c4.44,1.53,8.73,3.55,12.76,6.01c5.27,3.22,12.02,2.42,16.41-1.95l20.26-20.16l12.45,12.52
			l-21.66,21.56c-4.07,4.04-5.12,10.2-2.62,15.31c2.07,4.24,3.68,8.71,4.79,13.29c1.45,6,6.79,10.19,12.98,10.21l28.57,0.07
			L493.996,132.83z"/>
		<path d="M317.739,198.313c0.01,0.01,0.025,0.025,0.034,0.034C317.7,198.273,317.71,198.283,317.739,198.313z"/>
		<path d="M426.504,85.487c-3.425,2.331-4.312,6.996-1.98,10.42c19.712,28.951-1.306,67.791-35.778,67.791
			c-24.269,0-43.376-19.788-43.376-43.327c0-30.738,31.111-51.653,59.511-40.239c3.842,1.543,8.211-0.318,9.756-4.163
			c1.545-3.843-0.319-8.211-4.162-9.755c-38.321-15.399-80.104,12.875-80.104,54.157c0,41.793,43.007,70.23,81.573,53.492
			c33.557-14.562,45.618-56.073,24.981-86.396C434.594,84.043,429.927,83.157,426.504,85.487z"/>
		<path d="M369.474,97.181C369.474,97.182,369.474,97.182,369.474,97.181c-21.634,17.977-8.792,53.282,19.259,53.282
			c25.239,0,39.525-29.657,23.151-49.364C401.191,88.228,382.192,86.615,369.474,97.181z M388.732,135.463
			c-14.103,0-20.533-17.722-9.673-26.744c6.478-5.383,15.994-4.407,21.287,1.966C408.422,120.404,401.632,135.463,388.732,135.463z"
			/>
	</g>
</g>
<g>
</g>
<g>
</g>
<g>
</g>
<g>
</g>
<g>
</g>
<g>
</g>
<g>
</g>
<g>
</g>
<g>
</g>
<g>
</g>
<g>
</g>
<g>
</g>
<g>
</g>
<g>
</g>
<g>
</g>
</svg>
