<?xml version="1.0" encoding="iso-8859-1"?>
<!-- Generator: Adobe Illustrator 19.0.0, SVG Export Plug-In . SVG Version: 6.00 Build 0)  -->
<svg version="1.1" id="Layer_1" xmlns="http://www.w3.org/2000/svg" xmlns:xlink="http://www.w3.org/1999/xlink" x="0px" y="0px"
	 viewBox="0 0 507.728 507.728" style="enable-background:new 0 0 507.728 507.728;" xml:space="preserve">
<g>
	<path style="fill:#C0694E;" d="M448.424,458.527c-0.017,0-0.031,0-0.047,0c-0.005,0-0.013,0-0.018,0c-0.098,0-0.194,0-0.281,0
		c0.067,0,0.129,0,0.18,0c-0.077,0-0.183,0-0.324,0c0.042,0,0.082,0,0.121,0c-0.283,0-0.505,0-0.684,0c-0.011,0-0.022,0-0.034,0
		c-0.011,0-0.022,0-0.032,0c-0.059,0-0.114,0-0.179,0c-0.065,0-0.14,0-0.211,0c0.024,0,0.052,0,0.082,0c-0.053,0-0.099,0-0.13,0
		c0.003,0,0.005,0,0.008,0c-3.518-0.001-14.125-0.006-42.483-0.018c5.6,0,10.14-4.54,10.14-10.14v-21.422
		c0-5.6-4.54-10.14-10.14-10.14h-23.826V180.275l44.165,44.252c5.689,5.689,14.914,5.689,20.603,0l5.475-5.475
		c5.689-5.69,5.689-14.914,0-20.604L264.474,11.781c-5.692-5.692-15.034-5.715-20.748,0L56.921,198.448
		c-5.69,5.689-5.69,14.914,0,20.604l5.475,5.475c5.69,5.69,14.914,5.69,20.603,0l44.165-44.13v236.411h-23.826
		c-5.6,0-10.14,4.54-10.14,10.14v21.422c0,5.6,4.54,10.14,10.14,10.14c-28.358,0.012-38.965,0.016-42.483,0.018
		c0.003,0,0.005,0,0.008,0c-0.031,0-0.077,0-0.13,0c0.03,0,0.057,0,0.082,0c-0.071,0-0.146,0-0.211,0c-0.065,0-0.12,0-0.179,0
		c-0.012,0-0.02,0-0.032,0c-0.011,0-0.023,0-0.034,0c-0.179,0-0.401,0-0.684,0c0.039,0,0.079,0,0.121,0c-0.141,0-0.247,0-0.325,0
		c0.051,0,0.113,0,0.18,0c-0.088,0-0.183,0-0.282,0c-0.006,0-0.013,0-0.018,0c-0.017,0-0.031,0-0.048,0
		c-5.6,0-10.139,4.54-10.139,10.139v21.422c0,5.6,4.54,10.139,10.139,10.139h389.12c5.6,0,10.139-4.54,10.139-10.139v-21.422
		C458.563,463.067,454.024,458.527,448.424,458.527z"/>
	<polygon style="fill:#AE583E;" points="380.564,147.275 380.564,500.074 127.164,500.074 127.164,147.275 253.864,30.555 
		273.884,48.995 	"/>
	<path style="fill:#C0694E;" d="M380.564,147.275v352.799h-216.81V186.735c0-14.56,5.62-28.57,15.69-39.09l94.44-98.65
		L380.564,147.275z"/>
	<path style="fill:#954C35;" d="M450.807,198.448L264.474,11.781c-5.692-5.692-15.034-5.715-20.748-0.001L56.921,198.448
		c-5.689,5.689-5.689,14.914,0,20.604l5.475,5.475c5.69,5.689,14.914,5.689,20.603,0L254.1,53.563l170.629,170.964
		c5.689,5.689,14.914,5.689,20.603,0l5.475-5.475C456.497,213.362,456.497,204.137,450.807,198.448z"/>
	<path style="fill:#954C35;" d="M404.39,458.508H103.338c-5.6,0-10.139-4.54-10.139-10.139v-21.422c0-5.6,4.54-10.139,10.139-10.139
		H404.39c5.6,0,10.139,4.54,10.139,10.139v21.422C414.529,453.969,409.989,458.508,404.39,458.508z"/>
	<path style="fill:#7C3F2C;" d="M59.304,500.228h389.12c5.6,0,10.139-4.54,10.139-10.139v-21.422c0-5.6-4.54-10.139-10.139-10.139
		H59.304c-5.6,0-10.139,4.54-10.139,10.139v21.422C49.165,495.688,53.704,500.228,59.304,500.228z"/>
	<path style="fill:#1AB975;" d="M196.494,358.755c-1.18,0.3-2.38,0.59-3.59,0.88c0,0-72.04-78.28,66.75-157.06
		c3.74-2.12,7.58-4.05,11.47-5.87c9.26-4.31,33.09-17.74,38.2-43.47c0.61-3.09,5-3.16,5.69-0.08c2.04,9.08,4.1,20.63,5.2,33.66
		C325.054,244.045,311.434,329.695,196.494,358.755z"/>
	<path style="fill:#1ED688;" d="M196.494,358.755c-5.58-29.39,4.7-71.93,72.67-120.84c3.49-2.51,7.09-4.84,10.77-7.07
		c8.74-5.28,31-21.18,33.31-47.31c0.28-3.14,4.64-3.68,5.66-0.69c0.43,1.27,0.87,2.59,1.31,3.97
		C325.054,244.045,311.434,329.695,196.494,358.755z"/>
	<g>
		<path d="M448.423,451.027h-26.617c0.409-2.684,0.137-2.086,0.222-24.08c0-9.727-7.913-17.64-17.64-17.64h-16.325V198.405
			l31.36,31.42c4.17,4.17,9.71,6.47,15.61,6.47c12.335,0,17.619-9.219,21.08-11.94c8.612-8.612,8.629-22.581,0-31.21L269.774,6.475
			c-8.587-8.587-22.648-8.681-31.35,0l-186.81,186.67c-4.17,4.17-6.46,9.71-6.46,15.6c0,12.4,9.231,17.635,11.94,21.08
			c8.613,8.613,22.553,8.646,31.21,0.01l31.36-31.34v210.812h-16.325c-9.727,0-17.64,7.913-17.64,17.64v21.422
			c0,0.906,0.09,1.789,0.222,2.658H59.304c-9.727,0-17.64,7.913-17.64,17.64v21.422c0,9.726,7.913,17.639,17.64,17.639h310
			c4.143,0,7.5-3.358,7.5-7.5s-3.357-7.5-7.5-7.5h-310c-1.455,0-2.64-1.184-2.64-2.639v-21.422c0-1.456,1.185-2.64,2.64-2.64
			c103.043-0.01,253.633,0,389.119,0c1.455,0,2.64,1.184,2.64,2.64v21.422c0,1.455-1.185,2.639-2.64,2.639h-50.119
			c-4.143,0-7.5,3.358-7.5,7.5s3.357,7.5,7.5,7.5h50.119c9.727,0,17.64-7.913,17.64-17.639v-21.422
			C466.063,458.94,458.15,451.027,448.423,451.027z M72.694,221.295c-4.517,0-5.986-3.604-10.47-7.55
			c-2.745-2.725-2.778-7.233,0-9.99c6.083-6.079,10.682-10.665,186.81-186.67c2.8-2.799,7.372-2.747,10.13-0.01
			c201.321,201.697,188.41,187.869,188.41,191.67c0,1.89-0.73,3.67-2.07,5c-4.455,3.92-5.955,7.55-10.47,7.55
			c-1.89,0-3.67-0.74-5-2.07C247.633,36.472,258.976,46.065,254.104,46.065c-5.891,0-2.54,0.541-81.19,78.01
			c-2.93,2.93-2.93,7.68,0,10.61c2.93,2.93,7.68,2.93,10.61,0l70.57-70.51l118.97,119.2v225.93h-238.4v-225.8l28.34-28.32
			c2.93-2.93,2.93-7.68,0.01-10.61c-2.93-2.93-7.68-2.93-10.61,0C72.037,224.878,77.221,221.295,72.694,221.295z M407.029,448.369
			c0,1.456-1.185,2.64-2.64,2.64H103.338c-1.455,0-2.64-1.184-2.64-2.64v-21.422c0-1.456,1.185-2.64,2.64-2.64
			c21.981,0,290.081,0,301.051,0c1.455,0,2.64,1.184,2.64,2.64V448.369z"/>
		<path d="M165.399,390.374c-4.115,0.473-7.067,4.192-6.595,8.307c1.667,14.512,36.668,6.265,41.222-33.099
			c8.755-2.276,17.153-4.926,25.018-7.912c3.872-1.47,5.819-5.801,4.35-9.674c-1.471-3.873-5.802-5.82-9.674-4.35
			c-6.1,2.316-12.564,4.41-19.279,6.281c1.166-35.877,13.972-68.275,46.336-84.083c41.037-20.045,55.862-47.943,56.473-49.121
			c1.907-3.677,0.474-8.204-3.203-10.111c-3.676-1.905-8.205-0.473-10.111,3.204c-0.127,0.245-13.106,24.656-49.742,42.55
			c-32.801,16.023-49.048,46.323-53.557,81.955c-20.82-53.158,27.271-97.151,76.725-125.219
			c11.072-6.285,34.494-14.295,47.404-38.078c10.397,67.257-6.822,126.746-65.049,160.383c-3.586,2.072-4.814,6.659-2.742,10.246
			c2.072,3.587,6.659,4.813,10.246,2.743c69.094-39.915,86.552-115.207,69.113-192.887c-2.464-10.936-18.18-10.773-20.37,0.269
			c-4.395,22.159-25.244,34.047-34.005,38.13c-27.518,12.827-63.552,38.103-82.679,65.075c-26.372,37.187-23.088,77.83-0.02,107.19
			C184.664,369.296,181.56,388.517,165.399,390.374z"/>
	</g>
</g>
<g>
</g>
<g>
</g>
<g>
</g>
<g>
</g>
<g>
</g>
<g>
</g>
<g>
</g>
<g>
</g>
<g>
</g>
<g>
</g>
<g>
</g>
<g>
</g>
<g>
</g>
<g>
</g>
<g>
</g>
</svg>
