<?xml version="1.0" encoding="iso-8859-1"?>
<!-- Generator: Adobe Illustrator 19.0.0, SVG Export Plug-In . SVG Version: 6.00 Build 0)  -->
<svg version="1.1" id="Layer_1" xmlns="http://www.w3.org/2000/svg" xmlns:xlink="http://www.w3.org/1999/xlink" x="0px" y="0px"
	 viewBox="0 0 507.8 507.8" style="enable-background:new 0 0 507.8 507.8;" xml:space="preserve">
<g>
	<path style="fill:#A6E0EC;" d="M440.162,500.108H67.638c-33.212,0-60.136-26.924-60.136-60.136V67.827
		c0-33.212,26.924-60.136,60.136-60.136h372.524c33.212,0,60.135,26.924,60.135,60.136v372.146
		C500.298,473.185,473.374,500.108,440.162,500.108z"/>
	<path style="fill:#44BFD7;" d="M67.638,475.108c-19.374,0-35.136-15.762-35.136-35.136V67.827
		c0-19.374,15.762-35.136,35.136-35.136h372.523c19.374,0,35.136,15.762,35.136,35.136v372.146
		c0,19.374-15.762,35.136-35.136,35.136H67.638z"/>
	<path style="fill:#DCE6EB;" d="M448.026,253.9c0,107.041-87.085,194.126-194.126,194.126S59.774,360.941,59.774,253.9
		S146.858,59.773,253.9,59.773S448.026,146.859,448.026,253.9z"/>
	<path style="fill:#A2ABB8;" d="M417.15,253.9c0,82.69-61.79,151.21-141.62,161.82c-7.08,0.94-14.3,1.43-21.63,1.43
		c-90.02,0-163.25-73.23-163.25-163.25S163.88,90.65,253.9,90.65c7.33,0,14.55,0.49,21.63,1.43
		C355.36,102.69,417.15,171.21,417.15,253.9z"/>
	<path style="fill:#B9C3CD;" d="M417.15,253.9c0,82.69-61.79,151.21-141.62,161.82c-79.84-10.61-141.64-79.13-141.64-161.82
		s61.8-151.21,141.64-161.82C355.36,102.69,417.15,171.21,417.15,253.9z"/>
	<path style="fill:#2CB3CD;" d="M296.48,178.82l-17.26,75.08h-51.91l-16.08-75.57c-0.91-4.27-0.74-8.7,0.49-12.89l8.19-27.86
		c4.39-14.93,18.09-25.18,33.65-25.18c5.17,0,10.14,1.13,14.63,3.2c2.15,0.98,4.18,2.18,6.08,3.57
		c5.87,4.29,10.41,10.41,12.72,17.69l8.93,28.12C297.34,169.46,297.53,174.24,296.48,178.82z"/>
	<path style="fill:#2CB3CD;" d="M267.19,276.93l-57.4,51.71c-3.24,2.92-7.16,4.99-11.4,6.02l-20.88,5.06l-7.35,1.78
		c-15.12,3.66-30.85-3.08-38.63-16.55c-3.16-5.47-4.7-11.52-4.7-17.54c0-8.55,3.12-17.02,9.17-23.64l19.88-21.8
		c3.17-3.47,7.22-6.03,11.71-7.41l73.65-22.59l4.4,7.62L267.19,276.93z"/>
	<path style="fill:#2CB3CD;" d="M376.61,324.35c-6.36,11.02-18.04,17.55-30.37,17.55c-2.5,0-5.01-0.27-7.52-0.82l-28.82-6.33
		c-4.59-1.01-8.83-3.23-12.27-6.44l-56.39-52.48l14.69-25.45l11.26-19.51l73.49,23.86c4.15,1.35,7.9,3.71,10.92,6.87l20.03,21.02
		c5.71,6,8.96,13.61,9.57,21.46C381.74,310.97,380.25,318.05,376.61,324.35z"/>
	<path style="fill:#60C8DD;" d="M381.2,304.08c-6.44,5.89-14.89,9.2-23.68,9.2c-2.49,0-5.01-0.27-7.52-0.82l-28.81-6.33
		c-4.59-1.01-8.83-3.23-12.27-6.44l-52.99-49.31l11.26-19.51l73.49,23.86c4.15,1.35,7.9,3.71,10.92,6.87l20.03,21.02
		C377.34,288.62,380.59,296.23,381.2,304.08z"/>
	<path style="fill:#60C8DD;" d="M296.48,178.82l-17.26,75.08h-22.66l-16.08-75.57c-0.91-4.27-0.74-8.7,0.49-12.89l8.19-27.86
		c2.93-9.97,10.01-17.85,19.03-21.98c2.15,0.98,4.18,2.18,6.08,3.57c5.87,4.29,10.41,10.41,12.72,17.69l8.93,28.12
		C297.34,169.46,297.53,174.24,296.48,178.82z"/>
	<path style="fill:#60C8DD;" d="M267.19,276.93l-57.4,51.71c-3.24,2.92-7.16,4.99-11.4,6.02l-20.88,5.06
		c-6.87-2.9-12.81-7.98-16.73-14.77c-3.16-5.47-4.7-11.52-4.7-17.54c0-8.55,3.12-17.02,9.17-23.64l19.88-21.8
		c3.17-3.47,7.22-6.03,11.71-7.41l48.8-14.97L267.19,276.93z"/>
	<path style="fill:#A6E0EC;" d="M293.08,253.9c0,16.47-10.16,30.56-24.55,36.36c-4.52,1.82-9.46,2.82-14.63,2.82
		c-21.64,0-39.18-17.54-39.18-39.18s17.54-39.18,39.18-39.18c5.17,0,10.11,1,14.63,2.82C282.92,223.34,293.08,237.43,293.08,253.9z"
		/>
	<path style="fill:#DEF4F8;" d="M293.08,253.9c0,16.47-10.16,30.56-24.55,36.36c-14.4-5.79-24.56-19.89-24.56-36.36
		s10.16-30.57,24.56-36.36C282.92,223.34,293.08,237.43,293.08,253.9z"/>
	<g>
		<path d="M440.16,0.19H67.64C30.34,0.19,0,30.53,0,67.83v372.14c0,37.3,30.34,67.64,67.64,67.64h372.52
			c37.3,0,67.64-30.34,67.64-67.64V67.83C507.8,30.53,477.46,0.19,440.16,0.19z M492.8,439.97c0,29.03-23.61,52.64-52.64,52.64
			H67.64C38.61,492.61,15,469,15,439.97V67.83c0-29.03,23.61-52.64,52.64-52.64h372.52c29.03,0,52.64,23.61,52.64,52.64V439.97z"/>
		<path d="M440.162,25.191H67.638c-23.51,0-42.636,19.126-42.636,42.636v372.146c0,23.509,19.126,42.636,42.636,42.636h372.523
			c23.51,0,42.636-19.126,42.636-42.636V137.56c0-4.142-3.357-7.5-7.5-7.5s-7.5,3.358-7.5,7.5v302.413
			c0,15.238-12.397,27.636-27.636,27.636H67.638c-15.238,0-27.636-12.397-27.636-27.636V67.827
			c0-15.238,12.397-27.636,27.636-27.636h372.523c15.238,0,27.636,12.397,27.636,27.636v39.732c0,4.142,3.357,7.5,7.5,7.5
			s7.5-3.358,7.5-7.5V67.827C482.797,44.318,463.672,25.191,440.162,25.191z"/>
		<path d="M290.102,55.529C165.986,32.94,52.273,128.739,52.273,253.9c0.001,111.177,90.45,201.626,201.627,201.626
			c111.178,0,201.627-90.449,201.627-201.626c-0.001-85.643-54.385-162.171-135.328-190.429c-3.906-1.366-8.187,0.699-9.553,4.609
			c-1.365,3.911,0.698,8.188,4.609,9.553c74.928,26.158,125.271,96.995,125.271,176.267c0,102.906-83.721,186.626-186.627,186.626
			c-102.905,0-186.626-83.72-186.627-186.626c0-115.845,105.253-204.528,220.144-183.613c4.07,0.74,7.98-1.96,8.722-6.036
			S294.177,56.271,290.102,55.529z"/>
		<path d="M416.337,271.945c4.124,0.258,7.699-2.872,7.964-7.005c6.331-98.576-72.142-181.792-170.4-181.792
			c-94.153,0-170.753,76.6-170.753,170.753c0,142.807,165.365,221.701,276.368,134.086c29.467-23.258,50.745-55.966,59.914-92.1
			c1.019-4.015-1.41-8.096-5.425-9.114c-4.011-1.017-8.096,1.409-9.114,5.425c-17.549,69.156-79.638,117.456-150.99,117.456
			c-85.883,0-155.753-69.871-155.753-155.753S168.017,98.147,253.9,98.147c89.359,0,161.198,75.599,155.432,165.833
			C409.067,268.114,412.203,271.68,416.337,271.945z"/>
		<path d="M186.569,353.761c-2.104,3.568-0.916,8.166,2.651,10.27c38.772,22.859,88.5,24.143,129.417-0.052
			c0.001-0.001,0.003-0.002,0.004-0.003c8.614-4.683,1.498-18.32-7.415-13.043c-35.173,20.911-79.158,20.947-114.388,0.176
			C193.272,349.005,188.673,350.193,186.569,353.761z"/>
		<path d="M374.145,262.31c4.024,0,7.354-3.194,7.491-7.248c1.492-44.156-23.78-89.105-65.015-112.421
			c-3.603-2.038-8.182-0.769-10.22,2.837c-2.039,3.605-0.769,8.181,2.837,10.22c36.719,20.763,58.695,60.485,57.405,98.859
			C366.501,258.791,369.891,262.31,374.145,262.31z"/>
		<path d="M201.079,145.64c-2.05-3.601-6.631-4.858-10.229-2.808c-42.365,24.113-66.671,70.78-64.672,112.686
			c0.191,4.016,3.508,7.142,7.485,7.142c4.284,0,7.702-3.574,7.497-7.858c-1.681-35.454,19.075-77.284,57.109-98.933
			C201.87,153.819,203.128,149.24,201.079,145.64z"/>
		<path d="M273.632,340.443c4.039-0.917,6.569-4.936,5.651-8.975c-0.917-4.039-4.929-6.57-8.976-5.652
			c-10.63,2.416-21.915,2.435-32.551,0.055c-4.04-0.906-8.053,1.638-8.957,5.681c-0.904,4.042,1.64,8.052,5.682,8.957
			C246.878,343.283,260.324,343.466,273.632,340.443z"/>
		<path d="M308.358,193.212c-3.036,2.818-3.214,7.563-0.396,10.599c7.444,8.022,13.092,17.732,16.33,28.079
			c1.238,3.956,5.449,6.154,9.397,4.917c3.953-1.237,6.154-5.445,4.917-9.398c-3.9-12.464-10.695-24.152-19.65-33.801
			C316.139,190.572,311.393,190.395,308.358,193.212z"/>
		<path d="M188.521,193.96c-8.861,9.641-15.577,21.309-19.426,33.753c-1.224,3.958,0.992,8.158,4.949,9.381
			c3.957,1.225,8.158-0.993,9.381-4.949c6.494-20.996,17.33-26.483,18.133-32.178C202.599,192.521,193.365,188.52,188.521,193.96z"
			/>
		<path d="M376.2,337.08c16.719-16.593,16.477-43.242,0.86-59.63l-20.03-21.03c-8.252-8.629-12.597-8.323-61.89-24.36h-0.01
			c-0.7-1.34-1.47-2.63-2.3-3.88l10.96-47.67c3.25-14.182-3.208-22.477-9.65-45.92c-5.64-17.76-21.95-29.69-40.58-29.69
			c-18.76,0-35.56,12.57-40.85,30.57c-6.38,25.114-11.67,31.157-8.82,44.42l10.48,49.22c-0.81,1.27-1.55,2.59-2.22,3.94
			l-46.76,14.34c-12.906,3.959-17.005,12.658-21.876,17.012L130.46,278.71c-28.172,30.863,0.774,79.852,41.47,70.08
			c26.906-6.545,34.249-6.78,42.88-14.58l37.37-33.67c0.396,0,1.034,0.118,4.55-0.05c6.228,5.796,31.657,29.464,35.79,33.31
			c8.583,8,14.132,7.91,44.59,14.6C351.321,351.52,366.07,347.21,376.2,337.08z M227.1,139.7c7.596-25.822,44.47-26.626,52.74-0.57
			c7.576,26.109,11.23,29.725,9.33,38.01l-8.81,38.33c-16.057-11.103-37.458-11.034-53.48,0.39l-8.32-39.09
			C216.907,169.04,220.227,165.151,227.1,139.7z M196.62,327.37c-30.365,7.326-30.337,7.646-34.892,7.603
			c-23.865-0.226-36.22-28.602-20.188-46.153c19.769-21.229,21.039-24.866,28.25-27.09l37.58-11.52
			c-1.594,19.447,9.268,37.924,27.08,46.12C202.61,324.895,203.01,325.825,196.62,327.37z M247.19,284.87l-0.01-0.01
			c-17.751-3.849-28.734-21.942-23.78-39.57l0.01-0.01c6.564-23.202,36.052-31.051,53.19-13.46v0.01
			c3.272,3.349,5.916,7.551,7.47,12.4v0.01C291.474,267.284,271.154,289.973,247.19,284.87z M273.97,296.04
			c17.64-8.438,28.29-27.05,26.4-46.51l38,12.33c7.54,2.454,9.147,7.182,27.83,25.94c18.655,19.568,0.741,51.798-25.88,45.95
			c-29.705-6.65-29.364-6.165-32.38-7.498C302.924,324.035,303.289,322.896,273.97,296.04z"/>
	</g>
</g>
<g>
</g>
<g>
</g>
<g>
</g>
<g>
</g>
<g>
</g>
<g>
</g>
<g>
</g>
<g>
</g>
<g>
</g>
<g>
</g>
<g>
</g>
<g>
</g>
<g>
</g>
<g>
</g>
<g>
</g>
</svg>
