<?xml version="1.0" encoding="iso-8859-1"?>
<!-- Generator: Adobe Illustrator 19.0.0, SVG Export Plug-In . SVG Version: 6.00 Build 0)  -->
<svg version="1.1" id="Layer_1" xmlns="http://www.w3.org/2000/svg" xmlns:xlink="http://www.w3.org/1999/xlink" x="0px" y="0px"
	 viewBox="0 0 507.725 507.725" style="enable-background:new 0 0 507.725 507.725;" xml:space="preserve">
<g>
	<path style="fill:#DEF4F8;" d="M448.422,458.527c-0.017,0-0.031,0-0.047,0c-0.005,0-0.013,0-0.018,0c-0.098,0-0.194,0-0.281,0
		c0.067,0,0.129,0,0.18,0c-0.077,0-0.183,0-0.324,0c0.042,0,0.082,0,0.121,0c-0.283,0-0.505,0-0.684,0c-0.011,0-0.022,0-0.034,0
		c-0.011,0-0.022,0-0.032,0c-0.059,0-0.114,0-0.179,0c-0.065,0-0.14,0-0.211,0c0.024,0,0.052,0,0.082,0c-0.053,0-0.099,0-0.13,0
		c0.003,0,0.005,0,0.008,0c-3.518-0.001-14.125-0.006-42.483-0.018c5.6,0,10.14-4.54,10.14-10.14v-21.422
		c0-5.6-4.54-10.14-10.14-10.14h-23.826V180.274l44.165,44.252c5.689,5.689,14.914,5.689,20.603,0l5.475-5.475
		c5.689-5.69,5.689-14.914,0-20.604L264.473,11.781c-5.692-5.692-15.034-5.715-20.748,0L56.919,198.448
		c-5.69,5.689-5.69,14.914,0,20.604l5.475,5.475c5.69,5.69,14.914,5.69,20.603,0l44.165-44.13v236.411h-23.826
		c-5.6,0-10.14,4.54-10.14,10.14v21.422c0,5.6,4.54,10.14,10.14,10.14c-28.358,0.012-38.965,0.016-42.483,0.018
		c0.003,0,0.005,0,0.008,0c-0.031,0-0.077,0-0.13,0c0.03,0,0.057,0,0.082,0c-0.071,0-0.146,0-0.211,0c-0.065,0-0.12,0-0.179,0
		c-0.012,0-0.02,0-0.032,0c-0.011,0-0.023,0-0.034,0c-0.179,0-0.401,0-0.684,0c0.039,0,0.079,0,0.121,0c-0.141,0-0.247,0-0.325,0
		c0.051,0,0.113,0,0.18,0c-0.088,0-0.183,0-0.282,0c-0.006,0-0.013,0-0.018,0c-0.017,0-0.031,0-0.048,0
		c-5.6,0-10.139,4.54-10.139,10.139v21.422c0,5.6,4.54,10.139,10.139,10.139h389.12c5.6,0,10.139-4.54,10.139-10.139v-21.422
		C458.562,463.066,454.022,458.527,448.422,458.527z"/>
	<polygon style="fill:#C2EAF2;" points="380.563,147.275 380.563,500.074 127.163,500.074 127.163,147.275 253.863,30.555 
		273.883,48.995 	"/>
	<path style="fill:#DEF4F8;" d="M380.563,147.275v352.799h-216.81V186.735c0-14.56,5.62-28.57,15.69-39.09l94.44-98.65
		L380.563,147.275z"/>
	<path style="fill:#60C8DD;" d="M450.806,198.448L264.473,11.781c-5.692-5.692-15.034-5.715-20.748-0.001L56.919,198.448
		c-5.689,5.689-5.689,14.914,0,20.604l5.475,5.475c5.689,5.689,14.914,5.689,20.603,0L254.099,53.563l170.629,170.964
		c5.689,5.689,14.914,5.689,20.603,0l5.475-5.475C456.495,213.362,456.495,204.137,450.806,198.448z"/>
	<path style="fill:#44BFD7;" d="M404.388,458.508H103.337c-5.6,0-10.139-4.54-10.139-10.139v-21.422
		c0-5.6,4.54-10.139,10.139-10.139h301.051c5.6,0,10.139,4.54,10.139,10.139v21.422
		C414.528,453.969,409.988,458.508,404.388,458.508z"/>
	<path style="fill:#2CB3CD;" d="M59.303,500.228h389.12c5.6,0,10.139-4.54,10.139-10.139v-21.422c0-5.6-4.54-10.139-10.139-10.139
		H59.303c-5.6,0-10.139,4.54-10.139,10.139v21.422C49.163,495.688,53.703,500.228,59.303,500.228z"/>
	<path style="fill:#2CB3CD;" d="M359.503,264.985l-0.05,19.52c0,3.05-2.48,5.52-5.53,5.51l-30.09-0.07
		c-2.35-0.01-4.48,1.45-5.24,3.67c-1.615,4.668-3.775,9.247-6.28,13.33c-1.32,2.16-0.98,4.95,0.81,6.75l19.93,20.03
		c2.16,2.16,2.15,5.66-0.02,7.81l-13.84,13.77c-2.16,2.16-5.66,2.15-7.81-0.02l-21.24-21.34c-1.65-1.66-4.18-2.13-6.28-1.1
		c-4.38,2.14-9.03,3.83-13.88,5c-2.46,0.6-4.18,2.82-4.19,5.35l-0.07,28.24c0,3.06-2.48,5.52-5.53,5.52l-19.53-0.05
		c-3.05-0.01-5.52-2.49-5.51-5.54l0.07-30.08c0.01-2.35-1.45-4.48-3.67-5.25c-4.69-1.62-9.15-3.73-13.32-6.28
		c-2.17-1.32-4.96-0.97-6.76,0.82l-20.02,19.93c-2.17,2.15-5.66,2.14-7.82-0.02l-13.77-13.84c-2.15-2.17-2.14-5.66,0.02-7.82
		l21.35-21.24c1.65-1.65,2.12-4.18,1.09-6.28c-2.14-4.38-3.83-9.03-5-13.87c-0.59-2.46-2.81-4.19-5.35-4.19l-28.24-0.07
		c-3.05-0.01-5.52-2.49-5.51-5.54l0.05-19.53c0-3.05,2.48-5.52,5.53-5.51l30.09,0.08c2.35,0,4.48-1.46,5.24-3.68
		c1.62-4.69,3.73-9.15,6.28-13.32c1.32-2.16,0.98-4.95-0.81-6.75l-19.93-20.03c-2.16-2.16-2.15-5.66,0.02-7.81l13.84-13.78
		c2.16-2.15,5.66-2.14,7.81,0.02l21.24,21.35c1.65,1.66,4.18,2.12,6.28,1.1c4.176-2.055,8.919-3.806,13.88-5.01
		c2.46-0.59,4.18-2.81,4.19-5.34l0.07-28.26c0-3.05,2.47-5.51,5.52-5.51h19.53c3.05,0,5.53,2.48,5.52,5.54l-0.07,30.14
		c-0.01,2.35,1.45,4.48,3.67,5.25c4.69,1.61,9.15,3.73,13.32,6.27c2.17,1.33,4.96,0.98,6.76-0.81l20.02-19.93
		c2.17-2.15,5.66-2.14,7.82,0.02l13.77,13.84c2.15,2.16,2.14,5.66-0.02,7.81l-21.35,21.25c-1.65,1.65-2.12,4.17-1.09,6.27
		c2.14,4.39,3.83,9.03,5,13.88c0.59,2.46,2.81,4.18,5.35,4.19l28.24,0.07C357.043,259.455,359.513,261.935,359.503,264.985z"/>
	<path style="fill:#44BFD7;" d="M359.503,264.985l-0.05,19.52c0,3.05-2.48,5.52-5.53,5.51l-30.09-0.07
		c-2.35-0.01-4.48,1.45-5.24,3.67c-0.82,2.37-1.76,4.67-2.82,6.91c-46.07-7.55-81.61-46.39-84.1-93.98
		c1.98-0.69,4.01-1.28,6.07-1.78c2.46-0.59,4.18-2.81,4.19-5.34l0.07-28.26c0-3.05,2.47-5.51,5.52-5.51h19.53
		c3.05,0,5.53,2.48,5.52,5.54l-0.07,30.14c-0.01,2.35,1.45,4.48,3.67,5.25c4.69,1.61,9.15,3.73,13.32,6.27
		c2.17,1.33,4.96,0.98,6.76-0.81l20.02-19.93c2.17-2.15,5.66-2.14,7.82,0.02l13.77,13.84c2.15,2.16,2.14,5.66-0.02,7.81
		l-21.35,21.25c-1.65,1.65-2.12,4.17-1.09,6.27c2.14,4.39,3.83,9.03,5,13.88c0.59,2.46,2.81,4.18,5.35,4.19l28.24,0.07
		C357.043,259.455,359.513,261.935,359.503,264.985z"/>
	<circle style="fill:#77D0E2;" cx="253.863" cy="271.309" r="47.601"/>
	<path style="fill:#44BFD7;" d="M295.233,294.855c-4.91,8.66-12.58,15.85-22.42,20.12c-24.12,10.47-52.15-0.6-62.62-24.72
		c-10.46-24.11,0.6-52.15,24.72-62.61c0.04-0.02,0.08-0.03,0.12-0.05C243.373,258.365,265.933,283.295,295.233,294.855z"/>
	<circle style="fill:#2CB3CD;" cx="253.863" cy="271.309" r="21.176"/>
	<path style="fill:#269AB1;" d="M245.253,251.965c-1.74,0.77-3.39,1.79-4.92,3.06c-9,7.47-10.23,20.82-2.76,29.82
		c7.48,8.99,20.83,10.23,29.82,2.75c1.95-1.62,3.54-3.53,4.75-5.6C261.283,273.915,252.113,263.695,245.253,251.965z"/>
	<g>
		<path d="M448.423,451.025h-26.617c0.408-2.684,0.137-2.089,0.222-24.078c0-9.727-7.913-17.64-17.639-17.64h-16.326V198.405
			l31.36,31.42c8.62,8.62,22.563,8.646,31.21,0c2.664-3.387,11.94-8.674,11.94-21.08c0-5.89-2.29-11.43-6.46-15.6L269.773,6.475
			c-8.621-8.621-22.703-8.647-31.35,0l-186.81,186.67c-4.17,4.17-6.46,9.71-6.46,15.6c0,12.4,9.231,17.635,11.94,21.08
			c8.613,8.613,22.553,8.646,31.21,0.01l31.36-31.34v210.812h-16.326c-9.726,0-17.639,7.913-17.639,17.64
			c0.086,22.061-0.185,21.398,0.222,24.078H59.303c-9.73,0-17.64,7.91-17.64,17.64v21.42c0,9.73,7.91,17.64,17.64,17.64h310
			c4.14,0,7.5-3.36,7.5-7.5s-3.36-7.5-7.5-7.5h-310c-1.46,0-2.64-1.18-2.64-2.64v-21.42c0-1.45,1.18-2.64,2.64-2.64
			c131.168-0.012,295.016,0,389.12,0c1.46,0,2.64,1.19,2.64,2.64v21.42c0,1.46-1.18,2.64-2.64,2.64h-50.12c-4.14,0-7.5,3.36-7.5,7.5
			s3.36,7.5,7.5,7.5h50.12c9.73,0,17.64-7.91,17.64-17.64v-21.42C466.063,458.935,458.153,451.025,448.423,451.025z M77.693,219.225
			c-2.752,2.752-7.21,2.769-10,0c-3.99-4.546-7.54-5.977-7.54-10.48c0-1.88,0.73-3.66,2.07-4.99
			c6.083-6.079,10.682-10.665,186.81-186.67c2.799-2.799,7.372-2.747,10.13-0.01c232.178,232.611,118.7,118.917,186.34,186.68
			c2.778,2.758,2.745,7.265,0,9.99c-4.43,3.894-5.95,7.55-10.47,7.55c-1.89,0-3.67-0.74-5-2.07
			c-2.792-2.798,1.677,1.682-170.63-170.96c-2.903-2.924-7.662-2.937-10.61-0.01l-75.88,75.82c-2.93,2.93-2.93,7.68,0,10.61
			c2.93,2.93,7.68,2.93,10.61,0l70.57-70.51l118.97,119.2v225.93h-238.4v-225.8l28.34-28.32c2.93-2.93,2.93-7.68,0.01-10.61
			c-2.93-2.93-7.68-2.93-10.61,0C149.267,147.708,149.965,147.016,77.693,219.225z M407.028,448.369c0,1.456-1.184,2.64-2.639,2.64
			H103.337c-1.455,0-2.639-1.184-2.639-2.64v-21.422c0-1.456,1.184-2.64,2.639-2.64c16.969,0,286.614,0,301.052,0
			c1.455,0,2.639,1.184,2.639,2.64V448.369z"/>
		<path d="M260.089,384.453C260.203,384.453,260.286,384.454,260.089,384.453L260.089,384.453z"/>
		<path d="M324.021,282.443c-0.087,0-0.172-0.001-0.202-0.001C323.843,282.443,323.905,282.443,324.021,282.443z"/>
		<path d="M188.201,233.126c-2.237,3.84-4.137,7.878-5.664,12.042c-25.912,0.931-31.641-2.539-37.931,3.721
			c-2.467,2.454-3.83,5.722-3.838,9.201l-0.048,19.526c-0.017,7.198,5.794,13.039,12.993,13.057l26.711,0.066
			c1.134,4.289,2.65,8.487,4.522,12.518l-20.355,20.255c-5.103,5.078-5.124,13.316-0.045,18.42l13.773,13.841
			c5.076,5.102,13.32,5.121,18.42,0.046l18.941-18.849c3.839,2.237,7.878,4.137,12.042,5.664l-0.07,28.712
			c-0.018,7.199,5.793,13.04,12.993,13.058c8.581,0.021,18.658,0.048,19.558,0.048c7.167,0,13.008-5.822,13.025-12.993l0.066-26.712
			c4.288-1.133,8.486-2.65,12.518-4.522l20.254,20.355c5.193,5.218,13.447,4.996,18.42,0.045l13.841-13.772
			c5.103-5.078,5.124-13.317,0.045-18.42l-18.848-18.941c2.237-3.839,4.137-7.878,5.664-12.042
			c25.926-0.932,31.624,2.556,37.932-3.722c2.467-2.454,3.83-5.722,3.838-9.201l0.048-19.526
			c0.017-7.198-5.794-13.039-12.993-13.057l-26.711-0.066c-1.133-4.288-2.65-8.485-4.522-12.518l20.355-20.254
			c5.102-5.077,5.124-13.317,0.045-18.42l-13.773-13.842c-5.066-5.091-13.33-5.11-18.419-0.045l-18.941,18.848
			c-3.841-2.237-7.879-4.137-12.042-5.664l0.07-28.774c0.018-7.21-5.811-13.057-13.024-13.057h-19.527
			c-7.165,0-13.007,5.828-13.024,12.992l-0.066,26.727c-4.288,1.133-8.486,2.65-12.517,4.522l-20.255-20.355
			c-5.072-5.097-13.317-5.125-18.42-0.046l-13.841,13.773c-5.103,5.078-5.124,13.316-0.045,18.42L188.201,233.126z M192.42,194.018
			l19.85,19.948c3.932,3.951,9.914,4.973,14.886,2.544c3.941-1.926,8.095-3.423,12.346-4.45c5.829-1.409,9.911-6.598,9.926-12.619
			l0.065-26.289h15.576L265,201.318c-0.014,5.584,3.494,10.549,8.73,12.354c4.127,1.422,8.115,3.302,11.854,5.585
			c5.122,3.131,11.685,2.352,15.955-1.897l18.628-18.536l10.987,11.041l-19.948,19.85c-3.952,3.933-4.974,9.915-2.544,14.885
			c1.926,3.942,3.423,8.096,4.45,12.346c1.408,5.831,6.598,9.913,12.619,9.927L352,266.939l-0.039,15.576
			c-21.57-0.053-26.91-0.068-27.94-0.072c0.224,0.001,0.46,0.002-0.202,0.002c-5.571,0-10.521,3.505-12.32,8.73
			c-1.423,4.128-3.303,8.116-5.587,11.854c-3.131,5.125-2.351,11.685,1.897,15.954l18.537,18.628L315.305,348.6l-19.85-19.949
			c-3.932-3.951-9.914-4.974-14.885-2.544c-3.942,1.926-8.096,3.423-12.346,4.451c-5.829,1.409-9.911,6.598-9.926,12.619
			l-0.065,26.27l-15.576-0.039l0.069-28.109c0.014-5.585-3.495-10.55-8.73-12.354c-4.127-1.423-8.116-3.303-11.854-5.586
			c-5.124-3.132-11.686-2.353-15.955,1.897l-18.628,18.537l-10.987-11.041l19.948-19.851c3.951-3.932,4.973-9.915,2.544-14.885
			c-1.926-3.941-3.423-8.095-4.45-12.345c-1.408-5.83-6.597-9.913-12.619-9.928l-26.271-0.065l0.039-15.576
			c21.57,0.053,26.91,0.068,27.94,0.072c-0.224-0.001-0.46-0.002,0.202-0.002c5.571,0,10.52-3.505,12.32-8.73
			c1.423-4.128,3.303-8.116,5.587-11.854c3.131-5.125,2.351-11.686-1.897-15.955l-18.536-18.628L192.42,194.018z"/>
		<path d="M183.704,260.174c0.087,0,0.172,0.001,0.202,0.001C183.882,260.175,183.82,260.175,183.704,260.174z"/>
		<path d="M275.797,321.856c25.826-11.206,38.824-39.889,30.851-66.375c-1.194-3.967-5.379-6.212-9.344-5.02
			c-3.966,1.194-6.213,5.377-5.02,9.344c5.796,19.251-3.658,40.133-22.458,48.291c-20.408,8.857-43.967-0.581-52.751-20.824
			c-16.347-37.67,28.253-72.765,61.053-47.9c3.301,2.503,8.005,1.855,10.507-1.446c2.502-3.301,1.855-8.005-1.446-10.507
			c-35.99-27.285-88.441-1.816-88.441,43.914C198.749,310.807,239.369,337.664,275.797,321.856z"/>
		<path d="M231.806,289.636c5.466,6.578,13.509,10.35,22.068,10.35c24.379,0,37.42-28.501,22.044-47.003
			c-10.18-12.253-28.273-13.792-40.382-3.73l0,0C223.282,259.433,221.744,277.526,231.806,289.636z M245.122,260.79
			C245.122,260.79,245.122,260.79,245.122,260.79c8.973-7.456,22.418-0.918,22.418,10.507c0,7.562-6.115,13.688-13.666,13.688
			C241.108,284.986,235.303,268.947,245.122,260.79z"/>
	</g>
</g>
<g>
</g>
<g>
</g>
<g>
</g>
<g>
</g>
<g>
</g>
<g>
</g>
<g>
</g>
<g>
</g>
<g>
</g>
<g>
</g>
<g>
</g>
<g>
</g>
<g>
</g>
<g>
</g>
<g>
</g>
</svg>
