<?xml version="1.0" encoding="iso-8859-1"?>
<!-- Generator: Adobe Illustrator 19.0.0, SVG Export Plug-In . SVG Version: 6.00 Build 0)  -->
<svg version="1.1" id="Layer_1" xmlns="http://www.w3.org/2000/svg" xmlns:xlink="http://www.w3.org/1999/xlink" x="0px" y="0px"
	 viewBox="0 0 507.728 507.728" style="enable-background:new 0 0 507.728 507.728;" xml:space="preserve">
<g>
	<path style="fill:#DEF4F8;" d="M448.39,458.527c-0.017,0-0.031,0-0.047,0c-0.005,0-0.013,0-0.018,0c-0.098,0-0.194,0-0.281,0
		c0.067,0,0.129,0,0.18,0c-0.077,0-0.183,0-0.324,0c0.042,0,0.082,0,0.121,0c-0.283,0-0.505,0-0.684,0c-0.011,0-0.022,0-0.034,0
		c-0.011,0-0.022,0-0.032,0c-0.059,0-0.114,0-0.179,0c-0.065,0-0.14,0-0.211,0c0.024,0,0.052,0,0.082,0c-0.053,0-0.099,0-0.13,0
		c0.003,0,0.005,0,0.008,0c-3.518-0.001-14.125-0.006-42.483-0.018c5.6,0,10.14-4.54,10.14-10.14v-21.422
		c0-5.6-4.54-10.14-10.14-10.14H380.53V180.274l44.165,44.252c5.689,5.689,14.914,5.689,20.603,0l5.475-5.475
		c5.689-5.69,5.689-14.914,0-20.604L264.44,11.781c-5.692-5.692-15.034-5.715-20.748,0L56.887,198.448
		c-5.69,5.689-5.69,14.914,0,20.604l5.475,5.475c5.69,5.69,14.914,5.69,20.603,0l44.165-44.13v236.411h-23.826
		c-5.6,0-10.14,4.54-10.14,10.14v21.422c0,5.6,4.54,10.14,10.14,10.14c-28.358,0.012-38.965,0.016-42.483,0.018
		c0.003,0,0.005,0,0.008,0c-0.031,0-0.077,0-0.13,0c0.03,0,0.057,0,0.082,0c-0.071,0-0.146,0-0.211,0c-0.065,0-0.12,0-0.179,0
		c-0.012,0-0.02,0-0.032,0c-0.011,0-0.023,0-0.034,0c-0.179,0-0.401,0-0.684,0c0.039,0,0.079,0,0.121,0c-0.141,0-0.247,0-0.325,0
		c0.051,0,0.113,0,0.18,0c-0.088,0-0.183,0-0.282,0c-0.006,0-0.013,0-0.018,0c-0.017,0-0.031,0-0.048,0
		c-5.6,0-10.139,4.54-10.139,10.139v21.422c0,5.6,4.54,10.139,10.139,10.139h389.12c5.6,0,10.139-4.54,10.139-10.139v-21.422
		C458.529,463.066,453.989,458.527,448.39,458.527z"/>
	<polygon style="fill:#C2EAF2;" points="380.53,147.275 380.53,500.074 127.13,500.074 127.13,147.275 253.83,30.555 273.85,48.995 
			"/>
	<path style="fill:#DEF4F8;" d="M380.53,147.275v352.799H163.72V186.735c0-14.56,5.62-28.57,15.69-39.09l94.44-98.65L380.53,147.275
		z"/>
	<path style="fill:#60C8DD;" d="M450.773,198.448L264.44,11.781c-5.692-5.692-15.034-5.715-20.748-0.001L56.887,198.448
		c-5.689,5.689-5.689,14.914,0,20.604l5.475,5.475c5.689,5.689,14.914,5.689,20.603,0L254.066,53.563l170.629,170.964
		c5.689,5.689,14.914,5.689,20.603,0l5.475-5.475C456.462,213.362,456.462,204.137,450.773,198.448z"/>
	<path style="fill:#44BFD7;" d="M404.355,458.508H103.304c-5.6,0-10.139-4.54-10.139-10.139v-21.422
		c0-5.6,4.54-10.139,10.139-10.139h301.051c5.6,0,10.139,4.54,10.139,10.139v21.422
		C414.495,453.969,409.955,458.508,404.355,458.508z"/>
	<path style="fill:#2CB3CD;" d="M59.27,500.228h389.12c5.6,0,10.139-4.54,10.139-10.139v-21.422c0-5.6-4.54-10.139-10.139-10.139
		H59.27c-5.6,0-10.139,4.54-10.139,10.139v21.422C49.13,495.688,53.67,500.228,59.27,500.228z"/>
	<path style="fill:#1AB975;" d="M252.789,336.106c-10.755,0-19.505-8.75-19.505-19.505c0-10.755,8.75-19.505,19.505-19.505
		c10.755,0,19.505,8.75,19.505,19.505C272.295,327.356,263.544,336.106,252.789,336.106z"/>
	<g>
		<path d="M448.39,451.027h-26.617c0.409-2.684,0.137-2.086,0.222-24.08c0-9.727-7.913-17.64-17.639-17.64H388.03v-89.502
			c0-4.14-3.36-7.5-7.5-7.5s-7.5,3.36-7.5,7.5v89.5h-238.4v-225.8l28.34-28.32c2.93-2.93,2.93-7.68,0.01-10.61
			c-2.93-2.93-7.68-2.93-10.61,0c-11.171,11.163-70.392,70.311-74.71,74.65c-2.753,2.753-7.21,2.769-10,0
			c-3.99-4.546-7.54-5.977-7.54-10.48c0-1.88,0.73-3.66,2.07-4.99C263.72,2.376,249.428,15.005,254.06,15.005
			c4.827,0-7.496-10.507,191.41,188.75c1.34,1.33,2.07,3.11,2.07,4.99c0,4.501-3.549,5.933-7.54,10.48
			c-2.785,2.764-7.243,2.757-10,0c-62.948-63.069-105.667-105.871-170.63-170.96c-2.903-2.924-7.662-2.937-10.61-0.01l-75.88,75.82
			c-2.93,2.93-2.93,7.68,0,10.61s7.68,2.93,10.61,0l70.57-70.51l118.97,119.2v106.43c0,4.14,3.36,7.5,7.5,7.5s7.5-3.36,7.5-7.5
			v-91.4l31.36,31.42c8.62,8.62,22.563,8.646,31.21,0l5.48-5.47c8.612-8.612,8.629-22.581,0-31.21L269.74,6.475
			c-8.621-8.621-22.704-8.647-31.35,0L51.58,193.145c-8.61,8.61-8.629,22.581,0,31.21c3.496,2.748,8.75,11.94,21.08,11.94
			c5.9,0,11.44-2.3,15.61-6.46l31.36-31.34v210.812h-16.326c-9.726,0-17.639,7.913-17.639,17.64
			c0.086,22.041-0.186,21.399,0.222,24.08H59.27c-9.726,0-17.639,7.913-17.639,17.64v21.422c0,9.726,7.913,17.639,17.639,17.639h310
			c4.142,0,7.5-3.358,7.5-7.5s-3.358-7.5-7.5-7.5h-310c-1.455,0-2.639-1.184-2.639-2.639v-21.422c0-1.456,1.184-2.64,2.639-2.64
			c318.724-0.001,190.318-0.016,176.995-0.018c7.444,0.001,56.041,0.006,212.126,0.018c1.455,0,2.639,1.184,2.639,2.64v21.422
			c0,1.455-1.184,2.639-2.639,2.639h-50.12c-4.142,0-7.5,3.358-7.5,7.5s3.358,7.5,7.5,7.5h50.12c9.726,0,17.639-7.913,17.639-17.639
			v-21.422C466.029,458.94,458.116,451.027,448.39,451.027z M235.283,466.009c0.038,0,0.086,0,0.153,0
			C235.374,466.009,235.321,466.009,235.283,466.009z M235.822,466.009c0.125,0,0.266,0,0.432,0
			C236.093,466.009,235.948,466.009,235.822,466.009z M406.995,448.369c0,1.456-1.184,2.64-2.639,2.64H103.304
			c-1.455,0-2.639-1.184-2.639-2.64v-21.422c0-1.456,1.184-2.64,2.639-2.64h301.052c1.455,0,2.639,1.184,2.639,2.64V448.369z"/>
		<path d="M346.833,261.178c3.657-1.945,5.044-6.487,3.099-10.144c-40.51-76.152-148.923-78.031-192.079-3.251
			c-2.07,3.587-0.84,8.174,2.747,10.245c3.588,2.069,8.174,0.84,10.245-2.748c37.214-64.484,130.847-62.99,165.843,2.799
			C338.634,261.736,343.175,263.123,346.833,261.178z"/>
		<path d="M324.327,280.731c3.707-1.849,5.212-6.353,3.364-10.059c-29.948-60.043-115.86-62.757-148.425-2.39
			c-1.967,3.646-0.606,8.195,3.04,10.161c3.646,1.969,8.195,0.606,10.161-3.04c26.54-49.195,96.965-47.828,121.801,1.964
			C316.12,281.08,320.627,282.577,324.327,280.731z"/>
		<path d="M291.238,297.147c1.268,2.74,3.979,4.354,6.813,4.354c5.418,0,9.115-5.649,6.803-10.65
			c-20.202-43.688-82.065-44.629-103.482-1.359c-1.837,3.712-0.317,8.211,3.395,10.049c3.714,1.839,8.211,0.317,10.049-3.395
			C230.559,264.338,276.195,264.614,291.238,297.147z"/>
		<path d="M225.784,316.601c0,14.891,12.115,27.005,27.005,27.005s27.005-12.115,27.005-27.005s-12.115-27.005-27.005-27.005
			S225.784,301.71,225.784,316.601z M264.795,316.601c0,6.62-5.386,12.005-12.005,12.005s-12.005-5.386-12.005-12.005
			s5.386-12.005,12.005-12.005S264.795,309.981,264.795,316.601z"/>
		<path d="M64.275,421.053c2.07-3.588,0.84-8.174-2.747-10.245c-57.225-33.024-56.077-116.406,2.49-147.561
			c3.657-1.945,5.044-6.487,3.099-10.144c-1.945-3.656-6.486-5.043-10.144-3.099C-12.04,286.717-13.32,384.931,54.03,423.8
			C57.612,425.865,62.199,424.648,64.275,421.053z"/>
		<path d="M74.622,269.963c-55.242,27.555-56.134,105.51-2.168,134.622c3.669,1.98,8.208,0.582,10.162-3.04
			c1.967-3.646,0.606-8.195-3.04-10.162c-43.351-23.386-42.567-85.897,1.741-107.998c3.707-1.849,5.212-6.353,3.364-10.059
			C82.833,269.621,78.329,268.115,74.622,269.963z"/>
		<path d="M99.056,304.074c3.759-1.739,5.398-6.196,3.66-9.956c-1.739-3.759-6.196-5.4-9.956-3.66
			c-39.548,18.288-40.908,74.657-1.239,94.292c1.07,0.529,2.204,0.78,3.321,0.78c7.921,0,10.399-10.725,3.333-14.223
			C69.865,357.296,70.844,317.119,99.056,304.074z"/>
		<path d="M453.63,250.129c-3.589-2.07-8.175-0.84-10.245,2.747c-2.07,3.588-0.84,8.174,2.747,10.245
			c57.225,33.024,56.077,116.406-2.49,147.561c-6.863,3.651-4.271,14.123,3.529,14.123c8.51,0,56.204-31.139,56.204-88.586
			C503.375,300.825,484.313,267.837,453.63,250.129z"/>
		<path d="M433.037,403.966c55.242-27.555,56.134-105.51,2.168-134.622c-3.646-1.968-8.195-0.605-10.162,3.04
			c-1.967,3.646-0.606,8.195,3.04,10.162c43.351,23.386,42.567,85.897-1.741,107.998c-3.707,1.849-5.212,6.353-3.364,10.059
			C424.83,404.315,429.337,405.812,433.037,403.966z"/>
		<path d="M408.604,369.855c-7.264,3.36-4.865,14.31,3.153,14.31c6.983,0,33.519-17.182,33.519-48.135
			c0-20.004-11.165-37.957-29.136-46.852c-3.714-1.837-8.211-0.317-10.049,3.395c-1.837,3.712-0.317,8.211,3.395,10.049
			C437.795,316.633,436.816,356.81,408.604,369.855z"/>
	</g>
</g>
<g>
</g>
<g>
</g>
<g>
</g>
<g>
</g>
<g>
</g>
<g>
</g>
<g>
</g>
<g>
</g>
<g>
</g>
<g>
</g>
<g>
</g>
<g>
</g>
<g>
</g>
<g>
</g>
<g>
</g>
</svg>
