<?xml version="1.0" encoding="iso-8859-1"?>
<!-- Generator: Adobe Illustrator 19.0.0, SVG Export Plug-In . SVG Version: 6.00 Build 0)  -->
<svg version="1.1" id="Layer_1" xmlns="http://www.w3.org/2000/svg" xmlns:xlink="http://www.w3.org/1999/xlink" x="0px" y="0px"
	 viewBox="0 0 508.6 508.6" style="enable-background:new 0 0 508.6 508.6;" xml:space="preserve">
<g>
	<path style="fill:#60C8DD;" d="M386.345,33.42v441.76c0,14.32-11.61,25.92-25.93,25.92h-213.24c-14.32,0-25.92-11.6-25.92-25.92
		V33.42c0-14.32,11.6-25.92,25.92-25.92h213.24C374.735,7.5,386.345,19.1,386.345,33.42z"/>
	<path style="fill:#2CB3CD;" d="M325.8,7.5l-6.63,38.46c-0.5,2.91-3.03,5.04-5.98,5.04H195.3c-2.91,0-5.4-2.06-5.96-4.91L181.8,7.5
		H325.8z"/>
	<path style="fill:#C2EAF2;" d="M359.3,89.18v372.24c0,7.11-5.77,12.88-12.88,12.88H161.18c-7.11,0-12.88-5.77-12.88-12.88V89.18
		c0-7.11,5.77-12.88,12.88-12.88h185.24C353.53,76.3,359.3,82.07,359.3,89.18z"/>
	<path style="fill:#DEF4F8;" d="M359.3,89.18v372.24c0,7.11-5.77,12.88-12.88,12.88H193.34c-7.11,0-12.88-5.77-12.88-12.88V89.18
		c0-7.11,5.77-12.88,12.88-12.88h153.08C353.53,76.3,359.3,82.07,359.3,89.18z"/>
	<path style="fill:#1AB975;" d="M308.86,226.1v112.14c0,2.76-2.23,5-5,5H203.74c-2.77,0-5-2.24-5-5V226.1l55.06-50.72l10.07,9.28
		L308.86,226.1z"/>
	<path style="fill:#1ED688;" d="M308.86,226.1v112.14c0,2.76-2.23,5-5,5h-76.12c-2.77,0-5-2.24-5-5v-105.2
		c0-4.44,1.75-8.71,4.88-11.86l36.25-36.52L308.86,226.1z"/>
	<circle style="fill:#1ED688;" cx="482.3" cy="96.8" r="17.5"/>
	<circle style="fill:#1ED688;" cx="26.295" cy="460.3" r="17.5"/>
	<circle style="fill:#1ED688;" cx="48.114" cy="128.306" r="17.5"/>
	<circle style="fill:#1ED688;" cx="447.55" cy="460.3" r="17.5"/>
	<g>
		<circle cx="293.463" cy="29.55" r="7.5"/>
		<path d="M211.762,36.41h49.784c4.142,0,7.5-3.358,7.5-7.5s-3.358-7.5-7.5-7.5h-49.784c-4.142,0-7.5,3.358-7.5,7.5
			S207.62,36.41,211.762,36.41z"/>
		<path d="M248.717,169.863c-66.17,61.097-47.671,44.016-74.38,68.677c-3.043,2.81-3.232,7.555-0.422,10.598
			c2.81,3.042,7.554,3.232,10.598,0.422l6.727-6.211v99.891c0,4.14,3.35,7.5,7.5,7.5h110.12c4.15,0,7.5-3.36,7.5-7.5V299.1
			c0-4.14-3.35-7.5-7.5-7.5c-4.14,0-7.5,3.36-7.5,7.5v36.64h-95.12V229.499l47.556-43.91l47.564,43.991V269.1
			c0,4.14,3.36,7.5,7.5,7.5c4.15,0,7.5-3.36,7.5-7.5v-25.646c5.444,4.467,7.062,8.096,11.688,8.096
			c6.766,0,10.12-8.358,5.094-13.006c-85.417-79.001-70.153-64.747-74.825-69.153C253.342,165.628,248.817,169.823,248.717,169.863z
			"/>
		<path d="M482.3,71.8c-11.72,0-21.58,8.1-24.27,19H435.3c-6.07,0-11,4.93-11,11v40h-30.455V33.42
			c0-18.428-14.997-33.42-33.43-33.42c-18.731,0-193.692,0-213.24,0c-18.428,0-33.42,14.992-33.42,33.42V199.8H55.61v-47.64
			c10.13-3.19,17.5-12.68,17.5-23.85c0-13.79-11.21-25-25-25c-13.78,0-25,11.21-25,25c0,11.17,7.37,20.65,17.5,23.84v55.15
			c0,4.14,3.36,7.5,7.5,7.5h65.645v126.853c0,4.142,3.358,7.5,7.5,7.5s7.5-3.358,7.5-7.5V214.8H140.8v185.5h-12.045v-28.647
			c0-4.142-3.358-7.5-7.5-7.5s-7.5,3.358-7.5,7.5V400.3H80.3c-6.07,0-11,4.93-11,11v40H49.62c-3.62-9.36-12.71-16-23.32-16
			c-13.79,0-25,11.21-25,25s11.21,25,25,25c11.71,0,21.58-8.1,24.27-19H73.3c6.06,0,11-4.93,11-11v-40h29.455v59.88
			c0,18.428,14.992,33.42,33.42,33.42h213.24c18.433,0,33.43-14.992,33.43-33.42v-86.37h46.205v47.63
			c-10.13,3.2-17.5,12.68-17.5,23.86c0,13.79,11.21,25,25,25s25-11.21,25-25c0-11.18-7.37-20.66-17.5-23.86v-55.13
			c0-4.15-3.36-7.5-7.5-7.5h-53.705V156.8H428.3c6.06,0,11-4.93,11-11v-40h19.68c3.62,9.36,12.7,16,23.32,16c13.79,0,25-11.21,25-25
			S496.09,71.8,482.3,71.8z M43.17,137c-8.914-5.077-5.264-18.69,4.94-18.69c5.52,0,10,4.48,10,10
			C58.11,135.92,49.87,140.809,43.17,137z M34.31,466.27c-5.776,7.744-18.01,3.552-18.01-5.97c0-8.036,8.981-12.665,15.48-8.36
			C36.65,455.145,37.73,461.729,34.31,466.27z M316.896,15l-4.913,28.5H196.476L190.907,15C208.441,15,304.456,15,316.896,15z
			 M378.845,475.18c0,10.157-8.268,18.42-18.43,18.42h-213.24c-10.157,0-18.42-8.263-18.42-18.42V415.3H140.8v46.123
			c0,11.236,9.141,20.377,20.377,20.377h185.245c11.236,0,20.377-9.141,20.377-20.377V388.81h12.045V475.18z M378.845,373.81H366.8
			V156.8h12.045V373.81z M378.845,141.8H366.8V89.178c0-11.236-9.141-20.377-20.377-20.377h-26.207c-4.142,0-7.5,3.358-7.5,7.5
			s3.358,7.5,7.5,7.5h26.207c2.965,0,5.377,2.412,5.377,5.377V141.8h-35c-4.14,0-7.5,3.36-7.5,7.5s3.36,7.5,7.5,7.5h35v217.01
			h-26.94c-4.14,0-7.5,3.35-7.5,7.5c0,4.14,3.36,7.5,7.5,7.5h26.94v72.613c0,2.965-2.412,5.377-5.377,5.377H161.177
			c-2.965,0-5.377-2.412-5.377-5.377V415.3h36c4.14,0,7.5-3.36,7.5-7.5s-3.36-7.5-7.5-7.5h-36V214.8h15c4.14,0,7.5-3.36,7.5-7.5
			s-3.36-7.5-7.5-7.5h-15V89.178c0-2.965,2.412-5.377,5.377-5.377h132.038c4.142,0,7.5-3.358,7.5-7.5s-3.358-7.5-7.5-7.5H161.177
			c-11.236,0-20.377,9.141-20.377,20.377V199.8h-12.045V33.42c0-10.157,8.263-18.42,18.42-18.42h28.449l6.357,32.537
			c1.249,6.353,6.85,10.963,13.319,10.963h117.89c6.626,0,12.25-4.74,13.371-11.266L332.118,15h28.297
			c10.162,0,18.43,8.263,18.43,18.42V141.8z M442.62,451.61c6.584-3.788,14.93,1.015,14.93,8.69c0,5.51-4.49,10-10,10
			C437.34,470.3,433.703,456.672,442.62,451.61z M482.3,106.8c-5.544,0-10-4.518-10-10c0-5.473,4.462-10,10-10c5.51,0,10,4.49,10,10
			S487.81,106.8,482.3,106.8z"/>
	</g>
</g>
<g>
</g>
<g>
</g>
<g>
</g>
<g>
</g>
<g>
</g>
<g>
</g>
<g>
</g>
<g>
</g>
<g>
</g>
<g>
</g>
<g>
</g>
<g>
</g>
<g>
</g>
<g>
</g>
<g>
</g>
</svg>
