<?xml version="1.0" encoding="iso-8859-1"?>
<!-- Generator: Adobe Illustrator 19.0.0, SVG Export Plug-In . SVG Version: 6.00 Build 0)  -->
<svg version="1.1" id="Layer_1" xmlns="http://www.w3.org/2000/svg" xmlns:xlink="http://www.w3.org/1999/xlink" x="0px" y="0px"
	 viewBox="0 0 508.6 508.6" style="enable-background:new 0 0 508.6 508.6;" xml:space="preserve">
<g>
	<path style="fill:#60C8DD;" d="M386.845,33.42v441.76c0,14.32-11.61,25.92-25.93,25.92h-213.24c-14.32,0-25.92-11.6-25.92-25.92
		V33.42c0-14.32,11.6-25.92,25.92-25.92h213.24C375.235,7.5,386.845,19.1,386.845,33.42z"/>
	<path style="fill:#2CB3CD;" d="M326.3,7.5l-6.63,38.46c-0.5,2.91-3.03,5.04-5.98,5.04H195.8c-2.91,0-5.4-2.06-5.96-4.91L182.3,7.5
		H326.3z"/>
	<path style="fill:#C2EAF2;" d="M359.8,89.18v372.24c0,7.11-5.77,12.88-12.88,12.88H161.68c-7.11,0-12.88-5.77-12.88-12.88V89.18
		c0-7.11,5.77-12.88,12.88-12.88h185.24C354.03,76.3,359.8,82.07,359.8,89.18z"/>
	<path style="fill:#DEF4F8;" d="M359.8,89.18v372.24c0,7.11-5.77,12.88-12.88,12.88H193.84c-7.11,0-12.88-5.77-12.88-12.88V89.18
		c0-7.11,5.77-12.88,12.88-12.88h153.08C354.03,76.3,359.8,82.07,359.8,89.18z"/>
	<path style="fill:#2CB3CD;" d="M268.53,380.08c-4.57,0.81-9.32,1.23-14.22,1.23c-62.19,0-99.88-68-68.42-120.52l55.45-108.33
		c5.35-10.53,20.5-10.62,25.94,0l1.25,2.43l54.2,105.9C351.64,309.07,322.08,370.69,268.53,380.08z"/>
	<path style="fill:#44BFD7;" d="M268.53,380.08c-53.49-9.38-83.19-70.9-54.21-119.29l54.21-105.9l54.2,105.9
		C351.64,309.07,322.08,370.69,268.53,380.08z"/>
	<g>
		<path d="M360.915,0c-18.731,0-193.692,0-213.24,0c-18.428,0-33.42,14.992-33.42,33.42v308.233c0,4.142,3.358,7.5,7.5,7.5
			s7.5-3.358,7.5-7.5V33.42c0-10.157,8.263-18.42,18.42-18.42h28.449l6.357,32.537c1.249,6.353,6.85,10.963,13.319,10.963h117.89
			c6.626,0,12.25-4.74,13.371-11.266L332.618,15h28.297c10.162,0,18.43,8.263,18.43,18.42v441.76c0,10.157-8.268,18.42-18.43,18.42
			h-213.24c-10.157,0-18.42-8.263-18.42-18.42V371.653c0-4.142-3.358-7.5-7.5-7.5s-7.5,3.358-7.5,7.5V475.18
			c0,18.428,14.992,33.42,33.42,33.42h213.24c18.433,0,33.43-14.992,33.43-33.42V33.42C394.345,14.992,379.348,0,360.915,0z
			 M312.484,43.5H196.976L191.407,15c17.533,0,113.548,0,125.989,0L312.484,43.5z"/>
		<path d="M293.716,68.8H161.677c-11.236,0-20.377,9.141-20.377,20.377v372.245c0,11.236,9.141,20.377,20.377,20.377h185.245
			c11.236,0,20.377-9.141,20.377-20.377V89.178c0-11.236-9.141-20.377-20.377-20.377h-26.207c-4.142,0-7.5,3.358-7.5,7.5
			s3.358,7.5,7.5,7.5h26.207c2.965,0,5.377,2.412,5.377,5.377v372.245c0,2.965-2.412,5.377-5.377,5.377H161.677
			c-2.965,0-5.377-2.412-5.377-5.377V89.178c0-2.965,2.412-5.377,5.377-5.377h132.038c4.142,0,7.5-3.358,7.5-7.5
			S297.858,68.8,293.716,68.8z"/>
		<circle cx="293.963" cy="29.55" r="7.5"/>
		<path d="M212.262,36.41h49.784c4.142,0,7.5-3.358,7.5-7.5s-3.358-7.5-7.5-7.5h-49.784c-4.142,0-7.5,3.358-7.5,7.5
			S208.12,36.41,212.262,36.41z"/>
		<path d="M234.662,149.043L179.323,257.16c-34.408,57.822,7.389,131.646,74.985,131.646c68.395,0,108.962-74.543,74.985-131.646
			l-55.339-108.118C265.733,132.985,242.774,133.089,234.662,149.043z M326.537,301.291c0,34.874-27.615,72.515-72.229,72.515
			c-44.624,0-72.245-37.628-72.245-72.49c0-21.525,9.656-35.196,10.388-36.881l55.573-108.575c2.597-5.109,9.945-5.125,12.579,0.018
			l55.45,108.335C316.44,265.111,326.537,280.134,326.537,301.291z"/>
		<path d="M233.175,340.274c2.354,0,4.708-1.239,5.575-3.097c45.836-94.505,44.104-89.045,44.104-91.676
			c0-6.361-9.817-9.196-12.513-3.469l-43.484,89.322C224.82,335.435,228.35,340.274,233.175,340.274z"/>
		<path d="M244.448,278.331v-17.592c0-12.265-8.176-16.725-18.582-16.725c-10.531,0-18.583,4.459-18.583,16.725v17.592
			c0,12.265,8.052,16.725,18.583,16.725C236.272,295.056,244.448,290.596,244.448,278.331z M232.059,278.331
			c0,4.088-2.354,5.946-6.193,5.946c-3.841,0-6.071-1.858-6.071-5.946v-17.592c0-4.088,2.23-5.947,6.071-5.947
			c3.84,0,6.193,1.858,6.193,5.947V278.331z"/>
		<path d="M264.146,300.63v17.592c0,12.265,8.053,16.725,18.583,16.725c10.406,0,18.583-4.46,18.583-16.725V300.63
			c0-12.265-8.177-16.725-18.583-16.725C272.199,283.906,264.146,288.366,264.146,300.63z M288.924,300.63v17.592
			c0,4.088-2.354,5.947-6.194,5.947s-6.07-1.858-6.07-5.947V300.63c0-4.088,2.229-5.946,6.07-5.946S288.924,296.542,288.924,300.63z
			"/>
	</g>
</g>
<g>
</g>
<g>
</g>
<g>
</g>
<g>
</g>
<g>
</g>
<g>
</g>
<g>
</g>
<g>
</g>
<g>
</g>
<g>
</g>
<g>
</g>
<g>
</g>
<g>
</g>
<g>
</g>
<g>
</g>
</svg>
