<?xml version="1.0" encoding="iso-8859-1"?>
<!-- Generator: Adobe Illustrator 19.0.0, SVG Export Plug-In . SVG Version: 6.00 Build 0)  -->
<svg version="1.1" id="Layer_1" xmlns="http://www.w3.org/2000/svg" xmlns:xlink="http://www.w3.org/1999/xlink" x="0px" y="0px"
	 viewBox="0 0 508.6 508.6" style="enable-background:new 0 0 508.6 508.6;" xml:space="preserve">
<g>
	<path style="fill:#60C8DD;" d="M386.845,33.42v441.76c0,14.32-11.61,25.92-25.93,25.92h-213.24c-14.32,0-25.92-11.6-25.92-25.92
		V33.42c0-14.32,11.6-25.92,25.92-25.92h213.24C375.235,7.5,386.845,19.1,386.845,33.42z"/>
	<path style="fill:#2CB3CD;" d="M326.3,7.5l-6.63,38.46c-0.5,2.91-3.03,5.04-5.98,5.04H195.8c-2.91,0-5.4-2.06-5.96-4.91L182.3,7.5
		H326.3z"/>
	<path style="fill:#C2EAF2;" d="M359.8,89.18v372.24c0,7.11-5.77,12.88-12.88,12.88H161.68c-7.11,0-12.88-5.77-12.88-12.88V89.18
		c0-7.11,5.77-12.88,12.88-12.88h185.24C354.03,76.3,359.8,82.07,359.8,89.18z"/>
	<path style="fill:#DEF4F8;" d="M359.8,89.18v372.24c0,7.11-5.77,12.88-12.88,12.88H193.84c-7.11,0-12.88-5.77-12.88-12.88V89.18
		c0-7.11,5.77-12.88,12.88-12.88h153.08C354.03,76.3,359.8,82.07,359.8,89.18z"/>
	<path style="fill:#F29500;" d="M325.62,274.68l-62.18,105.5l-12.97,22c-5.85,9.93-21.1,3.82-18.46-7.41l19.28-82.05
		c1.48-6.31-3.31-12.36-9.79-12.36h-49.86c-7.25,0-12.12-7.45-9.21-14.1l58.81-136.82c1.61-3.66,5.22-6.02,9.22-6.02h35.68
		c7.19,0,12.06,7.33,9.27,13.96l-35.35,88.18c-2.78,6.63,2.08,13.96,9.28,13.96h47.61C324.74,259.52,329.57,267.98,325.62,274.68z"
		/>
	<path style="fill:#FFA90B;" d="M325.62,274.68l-62.18,105.5l15.85-67.46c1.48-6.31-3.31-12.36-9.79-12.36h-49.86
		c-7.25,0-12.12-7.45-9.21-14.1l58.81-136.82c1.61-3.66,5.22-6.02,9.22-6.02h7.68c7.19,0,12.06,7.33,9.27,13.96l-35.35,88.18
		c-2.78,6.63,2.08,13.96,9.28,13.96h47.61C324.74,259.52,329.57,267.98,325.62,274.68z"/>
	<g>
		<path d="M360.915,0c-18.731,0-193.692,0-213.24,0c-18.428,0-33.42,14.992-33.42,33.42v308.233c0,4.142,3.358,7.5,7.5,7.5
			s7.5-3.358,7.5-7.5V33.42c0-10.157,8.263-18.42,18.42-18.42h28.449l6.357,32.537c1.249,6.353,6.85,10.963,13.319,10.963h117.89
			c6.626,0,12.25-4.74,13.371-11.266L332.617,15h28.298c10.162,0,18.43,8.263,18.43,18.42v441.76c0,10.157-8.268,18.42-18.43,18.42
			h-213.24c-10.157,0-18.42-8.263-18.42-18.42V371.653c0-4.142-3.358-7.5-7.5-7.5s-7.5,3.358-7.5,7.5V475.18
			c0,18.428,14.992,33.42,33.42,33.42h213.24c18.434,0,33.43-14.992,33.43-33.42V33.42C394.345,14.992,379.349,0,360.915,0z
			 M312.484,43.5H196.976L191.407,15c17.533,0,113.549,0,125.989,0L312.484,43.5z"/>
		<path d="M293.716,68.8H161.677c-11.236,0-20.377,9.141-20.377,20.377v372.245c0,11.236,9.141,20.377,20.377,20.377h185.245
			c11.236,0,20.378-9.141,20.378-20.377V89.178c0-11.236-9.142-20.377-20.378-20.377h-26.206c-4.143,0-7.5,3.358-7.5,7.5
			s3.357,7.5,7.5,7.5h26.206c2.966,0,5.378,2.412,5.378,5.377v372.245c0,2.965-2.412,5.377-5.378,5.377H161.677
			c-2.965,0-5.377-2.412-5.377-5.377V89.178c0-2.965,2.412-5.377,5.377-5.377h132.039c4.143,0,7.5-3.358,7.5-7.5
			S297.859,68.8,293.716,68.8z"/>
		<circle cx="293.963" cy="29.55" r="7.5"/>
		<path d="M212.262,36.41h49.784c4.143,0,7.5-3.358,7.5-7.5s-3.357-7.5-7.5-7.5h-49.784c-4.142,0-7.5,3.358-7.5,7.5
			S208.12,36.41,212.262,36.41z"/>
		<path d="M302.355,160.217c4.83-11.626-3.777-24.299-16.216-24.299h-35.678c-6.975,0-13.289,4.128-16.106,10.564l-18.568,43.192
			c-1.636,3.805,0.123,8.216,3.928,9.852c3.805,1.638,8.216-0.122,9.852-3.928c19.114-42.966,17.684-44.68,20.894-44.68h35.678
			c1.68,0,3.117,1.604,2.313,3.667c-37.369,94.285-36.687,89-36.687,94.877c0,9.679,7.883,17.553,17.571,17.553h47.615
			c1.953,0,3.229,2.122,2.206,3.86l-75.149,127.5c-1.512,2.565-5.381,1.025-4.698-1.886c20.173-86.552,19.751-82.272,19.751-86.092
			c0-9.671-7.88-17.539-17.565-17.539h-49.854c-1.77,0-3.132-1.788-2.326-3.633l28.401-66.066c1.636-3.805-0.123-8.216-3.928-9.852
			c-3.803-1.636-8.216,0.123-9.852,3.928c-29.355,69.429-29.867,66.794-29.867,73.067c0,9.681,7.883,17.556,17.572,17.556h49.854
			c1.708,0,2.862,1.58,2.492,3.146c-20.064,86.111-19.783,82.545-19.783,86.311c0,17.367,23.54,24.262,32.726,8.677l75.15-127.501
			c6.911-11.737-1.615-26.475-15.13-26.475h-47.615c-1.827,0-3.08-1.842-2.359-3.554
			C267.731,246.627,261.102,263.118,302.355,160.217z"/>
	</g>
</g>
<g>
</g>
<g>
</g>
<g>
</g>
<g>
</g>
<g>
</g>
<g>
</g>
<g>
</g>
<g>
</g>
<g>
</g>
<g>
</g>
<g>
</g>
<g>
</g>
<g>
</g>
<g>
</g>
<g>
</g>
</svg>
