<?xml version="1.0" encoding="iso-8859-1"?>
<!-- Generator: Adobe Illustrator 19.0.0, SVG Export Plug-In . SVG Version: 6.00 Build 0)  -->
<svg version="1.1" id="Layer_1" xmlns="http://www.w3.org/2000/svg" xmlns:xlink="http://www.w3.org/1999/xlink" x="0px" y="0px"
	 viewBox="0 0 508.475 508.475" style="enable-background:new 0 0 508.475 508.475;" xml:space="preserve">
<g>
	<path style="fill:#4B5055;" d="M476.657,380.555H453.55V96.746c0-8.87-7.19-16.06-16.06-16.06H69.581
		c-8.87,0-16.06,7.19-16.06,16.06v283.809H30.415c-13.043,0-23.617,10.574-23.617,23.617l0,0c0,13.043,10.574,23.617,23.617,23.617
		h446.241c13.043,0,23.617-10.574,23.617-23.617l0,0C500.274,391.128,489.7,380.555,476.657,380.555z"/>
	<path style="fill:#7CD2E3;" d="M453.55,390.561H53.522V96.746c0-8.869,7.19-16.06,16.06-16.06H437.49
		c8.869,0,16.06,7.19,16.06,16.06V390.561z"/>
	<path style="fill:#C8D2DC;" d="M420.926,125.437v213.67c0,7.47-6.06,13.53-13.54,13.53h-307.7c-7.48,0-13.54-6.06-13.54-13.53
		v-213.67c0-7.48,6.06-13.53,13.54-13.53h307.7C414.866,111.907,420.926,117.957,420.926,125.437z"/>
	<path style="fill:#DCE6EB;" d="M420.926,125.437v213.67c0,7.47-6.06,13.53-13.54,13.53h-277.7c-7.48,0-13.54-6.06-13.54-13.53
		v-213.67c0-7.48,6.06-13.53,13.54-13.53h277.7C414.866,111.907,420.926,117.957,420.926,125.437z"/>
	<path style="fill:#2CB3CD;" d="M500.276,404.167c0,6.53-2.64,12.43-6.92,16.7c-4.28,4.28-10.18,6.92-16.7,6.92H30.416
		c-13.04,0-23.62-10.57-23.62-23.62c0-6.52,2.64-12.42,6.92-16.69c4.28-4.28,10.18-6.92,16.7-6.92h446.24
		c11.62,0,21.29,8.4,23.25,19.46C500.156,401.367,500.276,402.747,500.276,404.167z"/>
	<path style="fill:#44BFD7;" d="M499.906,400.017h-443.6c-11.62,0-21.29-8.4-23.24-19.46h443.59
		C488.276,380.557,497.946,388.957,499.906,400.017z"/>
	<path style="fill:#1AB975;" d="M304.837,199.067v112.35c0,2.64-2.14,4.78-4.78,4.78h-100.57c-2.64,0-4.78-2.14-4.78-4.78v-112.35
		l55.06-50.73l12.75,11.75L304.837,199.067z"/>
	<path style="fill:#1ED688;" d="M304.837,199.067v112.35c0,2.64-2.14,4.78-4.78,4.78h-79.85v-110.37c0-4.31,1.8-8.42,4.98-11.35
		l37.33-34.39L304.837,199.067z"/>
	<circle style="fill:#F44545;" cx="367.737" cy="294.237" r="19.5"/>
	<circle style="fill:#F44545;" cx="367.737" cy="150.561" r="19.5"/>
	<circle style="fill:#F44545;" cx="140.201" cy="271.67" r="19.5"/>
	<g>
		<path d="M79.351,125.436v213.667c0,11.597,9.435,21.031,21.032,21.031h307.709c11.598,0,21.032-9.435,21.032-21.031V125.436
			c0-11.597-9.435-21.032-21.032-21.032H100.383C88.785,104.404,79.351,113.839,79.351,125.436z M414.124,125.436v213.667
			c0,3.326-2.706,6.031-6.032,6.031H100.383c-3.326,0-6.032-2.706-6.032-6.031V125.436c0-3.326,2.706-6.032,6.032-6.032h307.709
			C411.418,119.404,414.124,122.11,414.124,125.436z"/>
		<path d="M477.358,373.055h-15.607V96.746c0-12.991-10.568-23.56-23.56-23.56H151.21c-4.143,0-7.5,3.358-7.5,7.5s3.357,7.5,7.5,7.5
			h286.981c4.72,0,8.56,3.84,8.56,8.56v276.309c-17.614,0-368.406,0-385.027,0V96.746c0-4.72,3.84-8.56,8.56-8.56h50.927
			c4.143,0,7.5-3.358,7.5-7.5s-3.357-7.5-7.5-7.5H70.283c-12.991,0-23.56,10.569-23.56,23.56v276.309H31.116
			C13.959,373.055,0,387.014,0,404.171c0,17.158,13.959,31.117,31.116,31.117h36.242c4.143,0,7.5-3.358,7.5-7.5s-3.357-7.5-7.5-7.5
			H31.116c-8.887,0-16.116-7.23-16.116-16.117c0-8.887,7.229-16.117,16.116-16.117c17.808,0,415.876,0,446.242,0
			c8.887,0,16.116,7.23,16.116,16.117c0,8.887-7.229,16.117-16.116,16.117h-380c-4.143,0-7.5,3.358-7.5,7.5s3.357,7.5,7.5,7.5h380
			c17.157,0,31.116-13.959,31.116-31.117C508.475,387.014,494.516,373.055,477.358,373.055z"/>
		<path d="M140.201,298.67c12.647,0,23.286-8.742,26.204-20.5h20.803v38.031c0,4.142,3.357,7.5,7.5,7.5h110.128
			c4.143,0,7.5-3.358,7.5-7.5v-13.464h29.78c3.571,10.734,13.703,18.5,25.621,18.5c14.888,0,27-12.112,27-27s-12.112-27-27-27
			c-12.647,0-23.286,8.742-26.204,20.5h-29.197v-15.675c0-4.142-3.357-7.5-7.5-7.5s-7.5,3.358-7.5,7.5v36.639h-95.128V202.353
			l47.563-43.818l47.564,43.818v39.71c0,4.142,3.357,7.5,7.5,7.5s7.5-3.358,7.5-7.5v-26.125l8.663,7.951
			c3.044,2.793,7.789,2.606,10.597-0.454c2.801-3.052,2.598-7.796-0.454-10.597l-14.555-13.358h51.15c4.143,0,7.5-3.358,7.5-7.5
			v-15.485c11.249-3.259,19.5-13.647,19.5-25.932c0-14.888-12.112-27-27-27s-27,12.112-27,27c0,12.285,8.251,22.673,19.5,25.932
			v7.985h-59.994c-0.212-0.195-0.365-0.335-0.477-0.438c-0.006-0.006-0.018-0.017-0.036-0.033c0.008,0.007,0.015,0.014,0.021,0.02
			c-0.01-0.01-0.021-0.019-0.03-0.028c-0.032-0.029-0.081-0.074-0.153-0.14c-0.004-0.004-0.008-0.007-0.011-0.01
			c-0.004-0.003-0.008-0.008-0.012-0.011c0.001,0.001,0.002,0.002,0.003,0.003c-0.048-0.044-0.045-0.041-0.016-0.015
			c-1.296-1.189-8.817-8.092-44.686-41.011c-0.153-0.087-2.604-2.559-6.437-1.854c-3.99,0.734-0.308-0.75-79.915,71.879
			c-3.05,2.803-3.25,7.547-0.447,10.597c2.803,3.049,7.548,3.25,10.598,0.448l8.563-7.869v47.154h-21.385
			c-3.571-10.734-13.703-18.5-25.621-18.5c-14.888,0-27,12.112-27,27S125.313,298.67,140.201,298.67z M367.737,282.237
			c6.617,0,12,5.383,12,12s-5.383,12-12,12s-12-5.383-12-12S361.12,282.237,367.737,282.237z M355.737,150.562
			c0-6.617,5.383-12,12-12s12,5.383,12,12s-5.383,12-12,12S355.737,157.178,355.737,150.562z M140.201,259.67
			c6.617,0,12,5.383,12,12s-5.383,12-12,12s-12-5.383-12-12S133.584,259.67,140.201,259.67z"/>
	</g>
</g>
<g>
</g>
<g>
</g>
<g>
</g>
<g>
</g>
<g>
</g>
<g>
</g>
<g>
</g>
<g>
</g>
<g>
</g>
<g>
</g>
<g>
</g>
<g>
</g>
<g>
</g>
<g>
</g>
<g>
</g>
</svg>
