<?xml version="1.0" encoding="iso-8859-1"?>
<!-- Generator: Adobe Illustrator 19.0.0, SVG Export Plug-In . SVG Version: 6.00 Build 0)  -->
<svg version="1.1" id="Layer_1" xmlns="http://www.w3.org/2000/svg" xmlns:xlink="http://www.w3.org/1999/xlink" x="0px" y="0px"
	 viewBox="0 0 508.16 508.16" style="enable-background:new 0 0 508.16 508.16;" xml:space="preserve">
<g>
	<path style="fill:#954C35;" d="M294.052,31.43v445.3c0,13.22-10.71,23.93-23.93,23.93h-210.7c-13.21,0-23.93-10.71-23.93-23.93
		V31.43c0-13.22,10.72-23.93,23.93-23.93h210.7C283.342,7.5,294.052,18.21,294.052,31.43z"/>
	<path style="fill:#AE583E;" d="M294.052,31.43v445.3c0,13.22-10.71,23.93-23.93,23.93h-169.51c-13.22,0-23.93-10.71-23.93-23.93
		V31.43c0-13.22,10.71-23.93,23.93-23.93h169.51C283.342,7.5,294.052,18.21,294.052,31.43z"/>
	<path style="fill:#F29500;" d="M250.272,150.58c0,38.6-25.57,71.22-60.7,81.85c-7.85,2.37-16.18,3.65-24.8,3.65
		c-47.22,0-85.5-38.28-85.5-85.5c0-47.22,38.28-85.5,85.5-85.5c8.62,0,16.95,1.28,24.8,3.65
		C224.702,79.36,250.272,111.98,250.272,150.58z"/>
	<path style="fill:#FFA90B;" d="M250.272,150.58c0,38.6-25.57,71.22-60.7,81.85c-35.13-10.63-60.7-43.25-60.7-81.85
		c0-38.6,25.57-71.22,60.7-81.85C224.702,79.36,250.272,111.98,250.272,150.58z"/>
	<path style="fill:#C97E67;" d="M468.282,150.99c0,5.32-1.16,10.37-3.24,14.91c-1.79,3.92-4.27,7.47-7.28,10.48
		c-6.5,6.5-15.48,10.52-25.39,10.52h-263.19c-19.84,0-35.91-16.08-35.91-35.91c0-9.91,4.02-18.89,10.51-25.39
		c6.5-6.5,15.48-10.52,25.4-10.52h263.19C452.202,115.08,468.282,131.16,468.282,150.99z"/>
	<path style="fill:#D29380;" d="M468.282,150.99c0,5.32-1.16,10.37-3.24,14.91h-243.63c-19.83,0-35.91-16.08-35.91-35.91
		c0-5.32,1.16-10.37,3.24-14.91h243.63C452.202,115.08,468.282,131.16,468.282,150.99z"/>
	<path style="fill:#7C3F2C;" d="M205.172,361.33c-2.13,10.82-8.51,20.12-17.33,26.09c-2.5,1.69-4.02,4.49-4.02,7.5v36.56
		c0,4.96-1.85,9.59-4.92,13.11c-3.27,3.75-7.93,6.22-13.22,6.47c-10.95,0.51-19.99-8.21-19.99-19.05v-37.09c0-3-1.5-5.8-3.99-7.48
		c-9.98-6.74-15.57-16.19-17.42-26.11c-4.33-23.16,11.74-48.96,40.04-49.25h0.43c4.89,0,9.6,0.87,13.99,2.48
		c15.23,5.56,26.46,19.91,27.18,36.91C206.072,354.86,205.802,358.16,205.172,361.33z"/>
	<path style="fill:#954C35;" d="M205.172,361.33c-2.13,10.82-8.51,20.12-17.33,26.09c-2.5,1.69-4.02,4.49-4.02,7.5v36.56
		c0,4.96-1.85,9.59-4.92,13.11c-2.95-3.35-4.74-7.76-4.74-12.58v-37.09c0-3-1.5-5.8-3.99-7.48c-9.98-6.74-15.57-16.19-17.42-26.11
		c-3.55-18.99,6.61-39.75,25.99-46.77c15.23,5.56,26.46,19.91,27.18,36.91C206.072,354.86,205.802,358.16,205.172,361.33z"/>
	<g>
		<path d="M475.782,150.99c0-23.94-19.47-43.41-43.41-43.41h-69.25c-4.14,0-7.5,3.36-7.5,7.5s3.36,7.5,7.5,7.5h69.25
			c15.67,0,28.41,12.74,28.41,28.41c0,15.66-12.74,28.41-28.41,28.41c-87.581,0-175.437,0-263.19,0
			c-15.67,0-28.41-12.75-28.41-28.41c0-15.67,12.74-28.41,28.41-28.41c8.29,0,158.22,0,163.94,0c4.15,0,7.5-3.36,7.5-7.5
			s-3.35-7.5-7.5-7.5h-31.57V31.43c0-17.33-14.1-31.43-31.43-31.43h-210.7c-17.33,0-31.43,14.1-31.43,31.43v445.3
			c0,17.33,14.1,31.43,31.43,31.43h151.92c4.14,0,7.5-3.36,7.5-7.5c0-4.14-3.36-7.5-7.5-7.5H59.422c-9.06,0-16.43-7.37-16.43-16.43
			V31.43c0-9.06,7.37-16.43,16.43-16.43h210.7c9.06,0,16.43,7.37,16.43,16.43v76.15h-39.34c-15.54-29.69-46.66-50-82.44-50
			c-51.28,0-93,41.72-93,93c0,51.28,41.72,93,93,93c35.45,0,66.32-19.93,82.01-49.18h39.77v282.33c0,9.06-7.37,16.43-16.43,16.43
			h-28.78c-4.15,0-7.5,3.36-7.5,7.5c0,4.14,3.35,7.5,7.5,7.5h28.78c17.33,0,31.43-14.1,31.43-31.43V194.4h130.82
			C456.312,194.4,475.782,174.92,475.782,150.99z M164.772,228.58c-43.01,0-78-34.99-78-78s34.99-78,78-78
			c27.13,0,51.07,13.92,65.04,35h-60.63c-23.94,0-43.41,19.47-43.41,43.41c0,23.93,19.47,43.41,43.41,43.41h60.08
			C215.212,215.02,191.552,228.58,164.772,228.58z"/>
		<path d="M192.046,393.631c12.937-8.756,21.417-23.714,21.417-40.331c0-26.951-22.478-48.72-48.711-48.72l-0.507,0
			c-35.057,0.359-55.909,35.185-45.494,65.058c1.363,3.91,5.638,5.976,9.55,4.614c3.912-1.363,5.977-5.639,4.614-9.55
			c-6.846-19.644,5.83-44.859,31.407-45.122h0.43c17.815,0,32.923,14.449,33.678,32.225c0.534,11.908-5.297,22.978-14.788,29.402
			c-4.583,3.098-7.32,8.225-7.32,13.713v36.56c0,6.382-4.931,11.805-10.987,12.088c-6.632,0.318-12.143-4.989-12.143-11.558
			c-0.715-35.589,1.74-39.031-2.509-45.832c-2.194-3.513-6.821-4.582-10.334-2.387c-3.513,2.195-4.581,6.822-2.386,10.335
			c0.458,0.734,0.1-1.252,0.229,37.884c0,15.049,12.598,27.257,27.84,26.542c14.181-0.664,25.29-12.555,25.29-27.072
			C191.594,393.562,190.67,394.561,192.046,393.631z"/>
		<path d="M409.078,237.042c-3.589-2.069-8.175-0.841-10.245,2.748c-2.07,3.587-0.84,8.174,2.747,10.245
			c86.272,49.786,84.542,175.495-3.756,222.466c-3.657,1.945-5.044,6.487-3.099,10.144c1.946,3.657,6.486,5.044,10.144,3.099
			C503.628,433.207,505.457,292.662,409.078,237.042z"/>
		<path d="M382.152,265.263c-3.644-1.968-8.194-0.605-10.161,3.04c-1.967,3.646-0.605,8.195,3.04,10.162
			c66.046,35.629,64.849,130.881-2.653,164.55c-3.707,1.849-5.213,6.353-3.364,10.059c1.853,3.713,6.359,5.209,10.06,3.364
			C457.043,417.548,459.245,306.85,382.152,265.263z"/>
		<path d="M354.306,294.4c-3.712-1.837-8.212-0.316-10.049,3.395c-1.838,3.712-0.317,8.211,3.395,10.049
			c44.157,21.855,42.631,84.536-1.374,104.884c-3.76,1.739-5.398,6.196-3.66,9.956c1.73,3.74,6.179,5.407,9.955,3.66
			C407.918,400.75,409.82,321.877,354.306,294.4z"/>
	</g>
</g>
<g>
</g>
<g>
</g>
<g>
</g>
<g>
</g>
<g>
</g>
<g>
</g>
<g>
</g>
<g>
</g>
<g>
</g>
<g>
</g>
<g>
</g>
<g>
</g>
<g>
</g>
<g>
</g>
<g>
</g>
</svg>
