<?xml version="1.0" encoding="iso-8859-1"?>
<!-- Generator: Adobe Illustrator 19.0.0, SVG Export Plug-In . SVG Version: 6.00 Build 0)  -->
<svg version="1.1" id="Layer_1" xmlns="http://www.w3.org/2000/svg" xmlns:xlink="http://www.w3.org/1999/xlink" x="0px" y="0px"
	 viewBox="0 0 508.6 508.6" style="enable-background:new 0 0 508.6 508.6;" xml:space="preserve">
<g>
	<path style="fill:#60C8DD;" d="M386.845,33.42v441.76c0,14.32-11.61,25.92-25.93,25.92h-213.24c-14.32,0-25.92-11.6-25.92-25.92
		V33.42c0-14.32,11.6-25.92,25.92-25.92h213.24C375.235,7.5,386.845,19.1,386.845,33.42z"/>
	<path style="fill:#2CB3CD;" d="M326.3,7.5l-6.63,38.46c-0.5,2.91-3.03,5.04-5.98,5.04H195.8c-2.91,0-5.4-2.06-5.96-4.91L182.3,7.5
		H326.3z"/>
	<path style="fill:#C2EAF2;" d="M359.8,89.18v372.24c0,7.11-5.77,12.88-12.88,12.88H161.68c-7.11,0-12.88-5.77-12.88-12.88V89.18
		c0-7.11,5.77-12.88,12.88-12.88h185.24C354.03,76.3,359.8,82.07,359.8,89.18z"/>
	<path style="fill:#DEF4F8;" d="M359.8,89.18v372.24c0,7.11-5.77,12.88-12.88,12.88H193.84c-7.11,0-12.88-5.77-12.88-12.88V89.18
		c0-7.11,5.77-12.88,12.88-12.88h153.08C354.03,76.3,359.8,82.07,359.8,89.18z"/>
	<g>
		<path d="M360.915,0c-18.731,0-193.692,0-213.24,0c-18.428,0-33.42,14.992-33.42,33.42v308.233c0,4.142,3.357,7.5,7.5,7.5
			s7.5-3.358,7.5-7.5V33.42c0-10.157,8.263-18.42,18.42-18.42h28.449l6.357,32.535c1.247,6.354,6.849,10.965,13.319,10.965h117.89
			c6.626,0,12.25-4.74,13.371-11.266L332.617,15h28.298c10.162,0,18.43,8.263,18.43,18.42v441.76c0,10.157-8.268,18.42-18.43,18.42
			h-213.24c-10.157,0-18.42-8.263-18.42-18.42V371.653c0-4.142-3.357-7.5-7.5-7.5s-7.5,3.358-7.5,7.5V475.18
			c0,18.428,14.992,33.42,33.42,33.42h213.24c18.434,0,33.43-14.992,33.43-33.42V33.42C394.345,14.992,379.349,0,360.915,0z
			 M312.484,43.5H196.976L191.407,15c17.533,0,113.549,0,125.989,0L312.484,43.5z"/>
		<path d="M293.716,68.8H161.678c-11.236,0-20.378,9.141-20.378,20.377v372.245c0,11.236,9.142,20.377,20.378,20.377h185.244
			c11.236,0,20.378-9.141,20.378-20.377V89.178c0-11.236-9.142-20.377-20.378-20.377h-26.206c-4.143,0-7.5,3.358-7.5,7.5
			s3.357,7.5,7.5,7.5h26.206c2.966,0,5.378,2.412,5.378,5.377v372.245c0,2.965-2.412,5.377-5.378,5.377H161.678
			c-2.966,0-5.378-2.412-5.378-5.377V89.178c0-2.965,2.412-5.377,5.378-5.377h132.038c4.143,0,7.5-3.358,7.5-7.5
			S297.859,68.8,293.716,68.8z"/>
		<circle cx="293.963" cy="29.55" r="7.5"/>
		<path d="M212.262,36.41h49.784c4.143,0,7.5-3.358,7.5-7.5s-3.357-7.5-7.5-7.5h-49.784c-4.143,0-7.5,3.358-7.5,7.5
			S208.119,36.41,212.262,36.41z"/>
		<path d="M231.948,229.026c3.885-1.436,5.871-5.749,4.436-9.634s-5.747-5.873-9.635-4.436
			c-31.071,11.48-51.948,41.458-51.948,74.594c0,43.836,35.663,79.5,79.5,79.5s79.5-35.664,79.5-79.5
			c0-33.335-21.044-63.374-52.365-74.747c-3.895-1.415-8.195,0.597-9.609,4.49c-1.413,3.893,0.597,8.195,4.49,9.609
			c25.411,9.227,42.484,33.599,42.484,60.647c0,35.565-28.935,64.5-64.5,64.5s-64.5-28.935-64.5-64.5
			C189.8,262.664,206.738,238.341,231.948,229.026z"/>
		<path d="M261.8,270.55v-81.5c0-4.142-3.357-7.5-7.5-7.5s-7.5,3.358-7.5,7.5v81.5c0,4.142,3.357,7.5,7.5,7.5
			S261.8,274.692,261.8,270.55z"/>
	</g>
</g>
<g>
</g>
<g>
</g>
<g>
</g>
<g>
</g>
<g>
</g>
<g>
</g>
<g>
</g>
<g>
</g>
<g>
</g>
<g>
</g>
<g>
</g>
<g>
</g>
<g>
</g>
<g>
</g>
<g>
</g>
</svg>
