<?xml version="1.0" encoding="iso-8859-1"?>
<!-- Generator: Adobe Illustrator 19.0.0, SVG Export Plug-In . SVG Version: 6.00 Build 0)  -->
<svg version="1.1" id="Layer_1" xmlns="http://www.w3.org/2000/svg" xmlns:xlink="http://www.w3.org/1999/xlink" x="0px" y="0px"
	 viewBox="0 0 508.6 508.6" style="enable-background:new 0 0 508.6 508.6;" xml:space="preserve">
<g>
	<path style="fill:#60C8DD;" d="M386.845,33.42v441.76c0,14.32-11.61,25.92-25.93,25.92h-213.24c-14.32,0-25.92-11.6-25.92-25.92
		V33.42c0-14.32,11.6-25.92,25.92-25.92h213.24C375.235,7.5,386.845,19.1,386.845,33.42z"/>
	<path style="fill:#2CB3CD;" d="M326.3,7.5l-6.63,38.46c-0.5,2.91-3.03,5.04-5.98,5.04H195.8c-2.91,0-5.4-2.06-5.96-4.91L182.3,7.5
		H326.3z"/>
	<path style="fill:#C2EAF2;" d="M359.8,89.18v372.24c0,7.11-5.77,12.88-12.88,12.88H161.68c-7.11,0-12.88-5.77-12.88-12.88V89.18
		c0-7.11,5.77-12.88,12.88-12.88h185.24C354.03,76.3,359.8,82.07,359.8,89.18z"/>
	<path style="fill:#DEF4F8;" d="M359.8,89.18v372.24c0,7.11-5.77,12.88-12.88,12.88H193.84c-7.11,0-12.88-5.77-12.88-12.88V89.18
		c0-7.11,5.77-12.88,12.88-12.88h153.08C354.03,76.3,359.8,82.07,359.8,89.18z"/>
	<path style="fill:#F44545;" d="M227.466,207.3h-14c-4.786,0-8.667-3.88-8.667-8.667v-52c0-4.786,3.88-8.667,8.667-8.667h14
		c4.786,0,8.667,3.88,8.667,8.667v52C236.133,203.42,232.253,207.3,227.466,207.3z"/>
	<path style="fill:#2CB3CD;" d="M310.559,302.633h-14c-4.786,0-8.667-3.88-8.667-8.667v-52c0-4.786,3.88-8.667,8.667-8.667h14
		c4.786,0,8.667,3.88,8.667,8.667v52C319.225,298.753,315.345,302.633,310.559,302.633z"/>
	<path style="fill:#1AB975;" d="M261.3,397.966h-14c-4.786,0-8.667-3.88-8.667-8.667v-52c0-4.786,3.88-8.667,8.667-8.667h14
		c4.786,0,8.667,3.88,8.667,8.667v52C269.966,394.086,266.086,397.966,261.3,397.966z"/>
	<g>
		<path d="M360.915,0c-18.731,0-193.692,0-213.24,0c-18.428,0-33.42,14.992-33.42,33.42v308.233c0,4.143,3.358,7.5,7.5,7.5
			s7.5-3.357,7.5-7.5V33.42c0-10.157,8.263-18.42,18.42-18.42h28.448l6.357,32.536c1.248,6.353,6.85,10.964,13.319,10.964h117.89
			c6.626,0,12.25-4.74,13.371-11.266L332.618,15h28.297c10.162,0,18.43,8.263,18.43,18.42v441.76c0,10.157-8.268,18.42-18.43,18.42
			h-213.24c-10.157,0-18.42-8.263-18.42-18.42V371.653c0-4.143-3.358-7.5-7.5-7.5s-7.5,3.357-7.5,7.5V475.18
			c0,18.428,14.992,33.42,33.42,33.42h213.24c18.433,0,33.43-14.992,33.43-33.42V33.42C394.345,14.992,379.348,0,360.915,0z
			 M312.483,43.5H196.976L191.407,15c17.533,0,113.548,0,125.989,0L312.483,43.5z"/>
		<path d="M293.715,68.8H161.677c-11.236,0-20.377,9.142-20.377,20.378v372.244c0,11.236,9.141,20.378,20.377,20.378h185.245
			c11.236,0,20.377-9.142,20.377-20.378V89.178c0-11.236-9.141-20.378-20.377-20.378h-26.207c-4.142,0-7.5,3.357-7.5,7.5
			s3.358,7.5,7.5,7.5h26.207c2.965,0,5.377,2.412,5.377,5.378v372.244c0,2.966-2.412,5.378-5.377,5.378H161.677
			c-2.965,0-5.377-2.412-5.377-5.378V89.178c0-2.966,2.412-5.378,5.377-5.378h132.038c4.142,0,7.5-3.357,7.5-7.5
			S297.857,68.8,293.715,68.8z"/>
		<circle cx="293.963" cy="29.55" r="7.5"/>
		<path d="M212.262,36.409h49.784c4.142,0,7.5-3.357,7.5-7.5s-3.358-7.5-7.5-7.5h-49.784c-4.142,0-7.5,3.357-7.5,7.5
			S208.12,36.409,212.262,36.409z"/>
		<path d="M331.8,165.13h-88.17v-18.5c0-8.91-7.25-16.16-16.16-16.16h-14c-8.92,0-16.17,7.25-16.17,16.16v18.5h-20.5
			c-4.14,0-7.5,3.36-7.5,7.5c0,4.15,3.36,7.5,7.5,7.5h20.5v18.5c0,8.92,7.25,16.17,16.17,16.17h14c8.91,0,16.16-7.25,16.16-16.17
			v-18.5h88.17c4.14,0,7.5-3.35,7.5-7.5C339.3,168.49,335.94,165.13,331.8,165.13z M228.63,198.63c0,0.65-0.52,1.17-1.16,1.17h-14
			c-0.65,0-1.17-0.52-1.17-1.17c0-15.267,0-34.429,0-52c0-0.64,0.52-1.16,1.17-1.16h14c0.64,0,1.16,0.52,1.16,1.16
			C228.63,161.897,228.63,181.059,228.63,198.63z"/>
		<path d="M331.8,260.47h-5.07v-18.5c0-8.92-7.26-16.17-16.17-16.17h-14c-8.92,0-16.17,7.25-16.17,16.17v18.5H176.8
			c-4.14,0-7.5,3.35-7.5,7.5c0,4.14,3.36,7.5,7.5,7.5h103.59v18.5c0,8.91,7.25,16.16,16.17,16.16h14c8.91,0,16.17-7.25,16.17-16.16
			v-18.5h5.07c4.14,0,7.5-3.36,7.5-7.5C339.3,263.82,335.94,260.47,331.8,260.47z M311.73,293.97c0,0.64-0.53,1.16-1.17,1.16h-14
			c-0.64,0-1.17-0.52-1.17-1.16c0-10.734,0-41.261,0-52c0-0.65,0.53-1.17,1.17-1.17h14c0.64,0,1.17,0.52,1.17,1.17
			C311.73,257.237,311.73,276.399,311.73,293.97z"/>
		<path d="M247.3,405.47h14c8.91,0,16.17-7.26,16.17-16.17v-18.5h54.33c4.14,0,7.5-3.36,7.5-7.5s-3.36-7.5-7.5-7.5h-54.33v-18.5
			c0-8.91-7.26-16.17-16.17-16.17h-14c-8.91,0-16.17,7.26-16.17,16.17v18.5H176.8c-4.14,0-7.5,3.36-7.5,7.5s3.36,7.5,7.5,7.5h54.33
			v18.5C231.13,398.21,238.39,405.47,247.3,405.47z M246.13,337.3c0-0.64,0.53-1.17,1.17-1.17h14c0.64,0,1.17,0.53,1.17,1.17
			c0,15.267,0,34.429,0,52c0,0.64-0.53,1.17-1.17,1.17h-14c-0.64,0-1.17-0.53-1.17-1.17C246.13,378.565,246.13,348.039,246.13,337.3
			z"/>
	</g>
</g>
<g>
</g>
<g>
</g>
<g>
</g>
<g>
</g>
<g>
</g>
<g>
</g>
<g>
</g>
<g>
</g>
<g>
</g>
<g>
</g>
<g>
</g>
<g>
</g>
<g>
</g>
<g>
</g>
<g>
</g>
</svg>
