<?xml version="1.0" encoding="iso-8859-1"?>
<!-- Generator: Adobe Illustrator 19.0.0, SVG Export Plug-In . SVG Version: 6.00 Build 0)  -->
<svg version="1.1" id="Layer_1" xmlns="http://www.w3.org/2000/svg" xmlns:xlink="http://www.w3.org/1999/xlink" x="0px" y="0px"
	 viewBox="0 0 506.02 506.02" style="enable-background:new 0 0 506.02 506.02;" xml:space="preserve">
<g>
	<path style="fill:#C2EAF2;" d="M498.33,81.67v397.29c0,10.803-8.757,19.56-19.56,19.56H27.25c-10.803,0-19.56-8.757-19.56-19.56
		V101.23c0-10.803,8.757-19.56,19.56-19.56H498.33z"/>
	<path style="fill:#954C35;" d="M451.558,315.907h-46.619H358.32v182.612h46.619h46.619h27.059c10.803,0,19.56-8.757,19.56-19.56
		V315.907H451.558z"/>
	<rect x="404.939" y="315.907" style="fill:#AE583E;" width="46.619" height="182.612"/>
	<path style="fill:#954C35;" d="M147.55,81.67v416.85H27.25c-10.8,0-19.56-8.76-19.56-19.56V101.23c0-10.8,8.76-19.56,19.56-19.56
		H147.55z"/>
	<rect x="54.313" y="81.671" style="fill:#AE583E;" width="46.619" height="416.848"/>
	<path style="fill:#60C8DD;" d="M498.26,344.985c0,11.55-9.363,20.913-20.913,20.913H334.565c-11.55,0-20.913-9.363-20.913-20.913
		V28.411c0-11.55,9.363-20.913,20.913-20.913h142.783c11.55,0,20.913,9.363,20.913,20.913V344.985z"/>
	<path style="fill:#2CB3CD;" d="M399.693,7.498h-23.877H340.89l9.335,40.416c0.636,2.755,3.09,4.706,5.917,4.706h99.627
		c2.828,0,5.281-1.951,5.917-4.706l9.335-40.416H399.693z"/>
	<path style="fill:#C2EAF2;" d="M475.499,83.058v249.2c0,2.76-2.24,5-5,5h-129.08c-2.76,0-5-2.24-5-5v-249.2c0-2.76,2.24-5,5-5
		h129.08C473.259,78.058,475.499,80.298,475.499,83.058z"/>
	<path style="fill:#DEF4F8;" d="M475.499,83.058v249.2c0,2.76-2.24,5-5,5h-106.3c-2.76,0-5-2.24-5-5v-249.2c0-2.76,2.24-5,5-5h106.3
		C473.259,78.058,475.499,80.298,475.499,83.058z"/>
	<path style="fill:#1ED688;" d="M353.189,210.704v-32.627c0-2.466,1.999-4.465,4.465-4.465h26.004L402.8,194.39l-19.142,20.779
		h-26.004C355.188,215.169,353.189,213.17,353.189,210.704z"/>
	<path style="fill:#1ED688;" d="M459.058,178.113v32.627c0,2.466-1.999,4.465-4.465,4.465h-26.004l-19.142-20.779l19.142-20.779
		h26.004C457.059,173.648,459.058,175.647,459.058,178.113z"/>
	<g>
		<path d="M505.76,28.41C505.76,12.74,493.01,0,477.35,0C449.549,0,362.62,0,334.56,0c-15.66,0-28.41,12.74-28.41,28.41v7.68
			H131.741V18.053c0-4.143-3.358-7.5-7.5-7.5c-4.142,0-7.5,3.357-7.5,7.5V36.09H85.122V18.053c0-4.143-3.358-7.5-7.5-7.5
			s-7.5,3.357-7.5,7.5V36.09H38.503V18.053c0-4.143-3.358-7.5-7.5-7.5s-7.5,3.357-7.5,7.5V36.09H9.35c-4.14,0-7.5,3.35-7.5,7.5
			c0,4.14,3.36,7.5,7.5,7.5h14.153v23.08H7.69c-4.14,0-7.5,3.36-7.5,7.5v416.85c0,4.14,3.36,7.5,7.5,7.5
			c61.163,0,429.397,0,490.64,0c4.14,0,7.5-3.36,7.5-7.5C505.829,489.956,505.764,54.508,505.76,28.41z M461.592,15l-6.957,30.12
			h-97.357L350.321,15H461.592z M131.741,51.09H306.15v23.08H131.741V51.09z M85.122,51.09h31.619v23.08H85.122V51.09z
			 M38.503,51.09h31.619v23.08H38.503V51.09z M46.813,491.019H15.194V89.171h31.619V491.019z M93.432,491.019H61.813V89.171h31.619
			C93.432,108.974,93.432,473.951,93.432,491.019z M444.06,491.02h-31.62c0-13.078,0-104.501,0-117.62h31.62V491.02z M490.68,491.02
			h-31.62V373.4h18.29c4.81,0,9.35-1.21,13.33-3.33V491.02z M490.76,344.98c0,7.373-5.998,13.42-13.41,13.42
			c-43.953,0-98.828,0-142.79,0c-7.39,0-13.41-6.02-13.41-13.42V143.49c0-4.14-3.36-7.5-7.5-7.5s-7.5,3.36-7.5,7.5v201.49
			c0,15.67,12.75,28.42,28.41,28.42h16.26v61.74c0,4.14,3.36,7.5,7.5,7.5s7.5-3.36,7.5-7.5V373.4h31.62c0,16.878,0,102.95,0,117.62
			h-31.62v-25.88c0-4.14-3.36-7.5-7.5-7.5s-7.5,3.36-7.5,7.5v25.88H155.051V295.052c0-4.143-3.358-7.5-7.5-7.5s-7.5,3.357-7.5,7.5
			v195.967c-0.303,0-0.409,0-0.415,0c-1.54,0-8.004,0-31.204,0.001c0-25.419,0-383.11,0-401.849h31.619v175.881
			c0,4.143,3.358,7.5,7.5,7.5s7.5-3.357,7.5-7.5V89.17H306.15v24.32c0,4.15,3.36,7.5,7.5,7.5s7.5-3.35,7.5-7.5
			c0-44.774,0-40.403,0-85.08c0-7.4,6.02-13.41,13.41-13.41h0.366l7.992,34.602c1.43,6.193,6.869,10.519,13.225,10.519h99.627
			c6.356,0,11.794-4.325,13.225-10.519L476.987,15h0.364c7.39,0,13.41,6.01,13.41,13.41C490.76,33.867,490.76,339.739,490.76,344.98
			z"/>
		<path d="M369.382,37.113h46.416c4.142,0,7.5-3.357,7.5-7.5s-3.358-7.5-7.5-7.5h-46.416c-4.142,0-7.5,3.357-7.5,7.5
			S365.24,37.113,369.382,37.113z"/>
		<circle cx="435.636" cy="29.613" r="6.894"/>
		<path d="M474.532,70.563H337.38c-4.667,0-8.463,3.797-8.463,8.463v257.266c0,4.666,3.797,8.463,8.463,8.463h137.151
			c4.667,0,8.463-3.797,8.463-8.463V79.026C482.995,74.36,479.198,70.563,474.532,70.563z M467.995,329.754H343.917V85.563h124.078
			V329.754z"/>
		<path d="M353.189,222.668h15.709c-0.481,7.069,8.231,10.783,13.004,5.585l24.206-26.375l24.241,26.379
			c4.735,5.152,13.451,1.529,13.004-5.552h15.705c4.142,0,7.5-3.357,7.5-7.5v-41.558c0-4.143-3.358-7.5-7.5-7.5h-15.709
			c0.479-7.058-8.222-10.792-13.004-5.584l-24.206,26.375l-24.241-26.379c-4.781-5.204-13.448-1.474-13.004,5.552h-15.705
			c-4.142,0-7.5,3.357-7.5,7.5v41.557C345.689,219.311,349.047,222.668,353.189,222.668z M431.877,181.148h19.681v26.558h-19.681
			l-12.233-13.278L431.877,181.148z M360.689,181.112h19.681l12.232,13.278l-12.232,13.278h-19.681V181.112z"/>
		<path d="M197.006,162.048c2.197,0,4.374-0.961,5.855-2.808l28.797-35.904c2.592-3.231,2.073-7.951-1.158-10.543
			c-3.231-2.592-7.951-2.072-10.543,1.158l-28.797,35.904C187.197,154.797,190.796,162.048,197.006,162.048z"/>
		<path d="M222.334,170.792c-3.128-2.716-7.866-2.381-10.58,0.748l-39.408,45.406c-2.715,3.128-2.38,7.865,0.748,10.58
			c3.12,2.709,7.86,2.387,10.58-0.748l39.408-45.406C225.797,178.245,225.462,173.507,222.334,170.792z"/>
		<path d="M273.646,180.108c-3.231-2.592-7.951-2.072-10.543,1.158l-28.797,35.904c-2.592,3.231-2.073,7.951,1.158,10.543
			c3.252,2.608,7.968,2.052,10.543-1.158l28.797-35.904C277.396,187.419,276.878,182.7,273.646,180.108z"/>
		<path d="M204.675,391.476l28.797-35.904c2.592-3.231,2.073-7.951-1.158-10.543s-7.951-2.072-10.543,1.158l-28.797,35.904
			c-3.963,4.941-0.365,12.192,5.846,12.192C201.016,394.284,203.193,393.323,204.675,391.476z"/>
		<path d="M273.646,338.406c-3.231-2.592-7.951-2.072-10.543,1.158l-14.398,17.952c-3.963,4.941-0.365,12.192,5.846,12.192
			c2.197,0,4.374-0.961,5.855-2.808l14.398-17.952C277.396,345.717,276.878,340.998,273.646,338.406z"/>
		<path d="M236.509,415.234c-3.23-2.593-7.951-2.073-10.543,1.158l-28.797,35.904c-2.592,3.231-2.073,7.951,1.158,10.543
			c3.252,2.608,7.968,2.052,10.543-1.158l28.797-35.904C240.259,422.545,239.74,417.826,236.509,415.234z"/>
	</g>
</g>
<g>
</g>
<g>
</g>
<g>
</g>
<g>
</g>
<g>
</g>
<g>
</g>
<g>
</g>
<g>
</g>
<g>
</g>
<g>
</g>
<g>
</g>
<g>
</g>
<g>
</g>
<g>
</g>
<g>
</g>
</svg>
