<?xml version="1.0" encoding="iso-8859-1"?>
<!-- Generator: Adobe Illustrator 19.0.0, SVG Export Plug-In . SVG Version: 6.00 Build 0)  -->
<svg version="1.1" id="Layer_1" xmlns="http://www.w3.org/2000/svg" xmlns:xlink="http://www.w3.org/1999/xlink" x="0px" y="0px"
	 viewBox="0 0 509.957 509.957" style="enable-background:new 0 0 509.957 509.957;" xml:space="preserve">
<g>
	<rect x="43.771" y="236.079" style="fill:#A2ABB8;" width="331.422" height="253.283"/>
	<path style="fill:#FFC14F;" d="M405.98,255.363h-393c-1.98,0-3.16-2.21-2.06-3.86l14.62-21.97l9.97-15l12.97-19.49l9.98-15
		l16.05-24.13c0.46-0.69,1.24-1.11,2.07-1.11h265.23c0.83,0,1.6,0.41,2.06,1.1l16.2,24.14l10.07,15l13.08,19.49l10.07,15
		l14.75,21.97C409.15,253.143,407.97,255.363,405.98,255.363z"/>
	<polygon style="fill:#C8D2DC;" points="315.94,252.883 315.94,489.363 103.02,489.363 103.02,252.883 209.48,154.803 
		225.7,169.743 	"/>
	<path style="fill:#DCE6EB;" d="M315.94,252.883v236.48H137.17v-220.72c0-5.31,2.08-10.41,5.79-14.21l82.74-84.69L315.94,252.883z"
		/>
	<path style="fill:#AE583E;" d="M251.864,488.309h-84.763V331.946c0-3.202,2.596-5.798,5.798-5.798h73.167
		c3.202,0,5.798,2.596,5.798,5.798V488.309z"/>
	<path style="fill:#127D4F;" d="M407.026,502.143H11.939c-2.452,0-4.439-1.988-4.439-4.439v-13.909c0-2.452,1.988-4.439,4.439-4.439
		h395.086c2.452,0,4.439,1.988,4.439,4.439v13.909C411.465,500.156,409.477,502.143,407.026,502.143z"/>
	<path style="fill:#1AB975;" d="M146.83,479.353H25.72c-1.21-2.76-1.88-5.81-1.88-9.02c0-11.44,8.49-20.89,19.51-22.4
		c1.24-0.17,2.27-1.04,2.62-2.24c3.92-13.54,16.41-23.44,31.22-23.44c4.94,0,9.63,1.11,13.83,3.09c3.42,1.61,6.51,3.8,9.15,6.44
		c4.61,4.61,7.84,10.59,9.02,17.29c0.4,2.24,2.9,3.35,4.83,2.13c3.91-2.48,8.65-3.79,13.7-3.43c11.02,0.78,20.01,9.66,20.9,20.67
		C148.94,472.343,148.27,476.053,146.83,479.353z"/>
	<path style="fill:#1AB975;" d="M393.25,479.353H272.14c-1.21-2.76-1.88-5.81-1.88-9.02c0-11.44,8.49-20.89,19.52-22.4
		c1.24-0.17,2.26-1.04,2.61-2.24c3.93-13.54,16.41-23.44,31.22-23.44c4.94,0,9.63,1.11,13.83,3.09c3.42,1.61,6.51,3.8,9.15,6.44
		c4.61,4.61,7.85,10.59,9.03,17.29c0.4,2.24,2.89,3.35,4.82,2.13c3.92-2.48,8.65-3.79,13.71-3.43c11.01,0.78,20,9.66,20.9,20.67
		C395.37,472.343,394.69,476.053,393.25,479.353z"/>
	<path style="fill:#1ED688;" d="M146.83,479.353H53.38c-1.21-2.76-1.88-5.81-1.88-9.02c0-11.44,8.49-20.89,19.51-22.4
		c1.24-0.17,2.27-1.04,2.62-2.24c2.61-9.02,9.02-16.42,17.39-20.35c3.42,1.61,6.51,3.8,9.15,6.44c4.61,4.61,7.84,10.59,9.02,17.29
		c0.4,2.24,2.9,3.35,4.83,2.13c3.91-2.48,8.65-3.79,13.7-3.43c11.02,0.78,20.01,9.66,20.9,20.67
		C148.94,472.343,148.27,476.053,146.83,479.353z"/>
	<path style="fill:#1ED688;" d="M393.25,479.353H299.8c-1.21-2.76-1.88-5.81-1.88-9.02c0-11.44,8.49-20.89,19.52-22.4
		c1.24-0.17,2.26-1.04,2.61-2.24c2.62-9.02,9.03-16.42,17.39-20.35c3.42,1.61,6.51,3.8,9.15,6.44c4.61,4.61,7.85,10.59,9.03,17.29
		c0.4,2.24,2.89,3.35,4.82,2.13c3.92-2.48,8.65-3.79,13.71-3.43c11.01,0.78,20,9.66,20.9,20.67
		C395.37,472.343,394.69,476.053,393.25,479.353z"/>
	<path style="fill:#5F6C75;" d="M315.944,313.893h-20.779c-2.761,0-5-2.239-5-5v-14.64c0-2.761,2.239-5,5-5h20.779V313.893z"/>
	<path style="fill:#7E8B96;" d="M315.944,338.534h-37.845c-2.761,0-5-2.239-5-5v-14.64c0-2.761,2.239-5,5-5h37.845V338.534z"/>
	<path style="fill:#7E8B96;" d="M103.021,392.441H128.8v19.64c0,2.761-2.239,5-5,5h-20.779V392.441z"/>
	<path style="fill:#5F6C75;" d="M103.021,367.801h37.845c2.761,0,5,2.239,5,5v19.64h-42.845V367.801z"/>
	<path style="fill:#F29500;" d="M330.633,251.463L218.199,139.029c-4.783-4.783-12.632-4.802-17.434,0L88.332,251.462
		c-4.781,4.781-4.781,12.532,0,17.312l4.6,4.6c4.781,4.781,12.532,4.781,17.312,0l99.238-99.238l99.238,99.238
		c4.781,4.781,12.532,4.781,17.312,0l4.6-4.6C335.413,263.994,335.413,256.243,330.633,251.463z"/>
	<path style="fill:#1AB975;" d="M398.482,302.093c-5.94,3.07-12.22,5.91-18.85,8.47c-2.16,0.84-4.56,0.84-6.73,0
		c-118.13-45.68-123.49-176.32-122.77-211c0.1-4.71,3.73-8.55,8.41-8.98c57.02-5.18,94.63-54.16,109.95-78.48
		c3.6-5.73,11.95-5.73,15.55,0c3.6,5.71,8.42,12.78,14.45,20.32c19.6,24.59,51.87,54.2,95.5,58.16c4.69,0.43,8.31,4.27,8.41,8.98
		C503.092,132.293,498.342,250.513,398.482,302.093z"/>
	<path style="fill:#1ED688;" d="M398.482,302.093c-99.85-51.59-104.59-169.8-103.91-202.53c0.1-4.71,3.73-8.55,8.41-8.98
		c43.63-3.96,75.9-33.57,95.51-58.16c19.6,24.59,51.87,54.2,95.5,58.16c4.69,0.43,8.31,4.27,8.41,8.98
		C503.092,132.293,498.342,250.513,398.482,302.093z"/>
	<g>
		<path d="M192.482,384.941c-4.142,0-7.5,3.357-7.5,7.5v17.921c0,4.143,3.358,7.5,7.5,7.5s7.5-3.357,7.5-7.5v-17.921
			C199.982,388.299,196.625,384.941,192.482,384.941z"/>
		<path d="M509.902,99.403c-0.18-8.51-6.73-15.52-15.23-16.29c-54.61-4.96-91.12-54.11-104.28-75.01
			c-6.573-10.414-21.711-10.359-28.25,0c-13.16,20.9-49.67,70.05-104.28,75.01c-8.5,0.77-15.05,7.78-15.23,16.29
			c-0.299,15.356,0.766,31.861,3.09,47.9h-8.64l-13.58-13.58c-7.73-7.73-20.31-7.73-28.04,0l-13.58,13.58h-105.3
			c-3.35,0-6.46,1.67-8.31,4.45l-63.6,95.6c-4.406,6.63,0.348,15.51,8.31,15.51h23.29v179.13
			c-12.129,4.375-20.559,16.333-19.892,29.862h-4.44C5.356,471.855,0,477.212,0,483.795v13.909c0,6.583,5.356,11.939,11.939,11.939
			h65.086c4.142,0,7.5-3.357,7.5-7.5s-3.358-7.5-7.5-7.5H15v-7.788c10.967,0,376.612,0,388.965,0v7.788H107.025
			c-4.142,0-7.5,3.357-7.5,7.5s3.358,7.5,7.5,7.5h300c6.583,0,11.939-5.356,11.939-11.939v-13.909
			c0-6.583-5.356-11.939-11.939-11.939h-4.443c0.688-13.614-7.824-25.468-19.891-29.862v-124.57c16.68-6.49,32.03-14.97,45.64-25.23
			c3.31-2.5,3.97-7.2,1.47-10.51c-2.49-3.3-7.19-3.96-10.5-1.47c-12.583,9.489-26.86,17.36-42.38,23.36
			c-1.844,0.719-32.98-11.996-57.05-34.83c-44.412-41.917-63.495-108.298-62.24-169.03c0.02-0.86,0.7-1.58,1.59-1.66
			c49.16-4.464,89.332-40.232,115.62-81.95c0.663-1.068,2.205-1.055,2.86,0c26.311,41.754,66.463,77.487,115.61,81.95
			c0.89,0.08,1.58,0.8,1.59,1.67c1.516,54.907-15.028,119.16-54.33,161.32c-2.83,3.03-2.66,7.78,0.37,10.6
			c3.03,2.83,7.78,2.66,10.6-0.37C493.58,226.181,511.073,159.46,509.902,99.403z M79.272,162.303h87.61l-17.74,17.74h-81.67
			L79.272,162.303z M57.492,195.043h76.66l-19.49,19.49h-70.14L57.492,195.043z M22.352,247.863l12.19-18.33h65.12
			c-17.391,17.45-16.968,16.827-18.14,18.33C74.642,247.863,29.322,247.863,22.352,247.863z M87.632,278.683
			c2.29,2.29,5,3.89,7.89,4.82c0,27.562,0,92.313,0,135.69c-14.07-7.286-31.573-5.629-44.25,5.15v-161.48h26.18
			C78.708,271.921,85.008,275.486,87.632,278.683z M141.132,471.853c-23.977,0-85.066,0-109.72,0
			c-0.804-8.037,4.931-15.382,12.97-16.49c4.229-0.595,7.606-3.582,8.79-7.58c3.08-10.61,12.95-18.03,24.01-18.03
			c12.445,0,22.572,9.032,24.63,20.62c1.312,7.469,9.749,11.246,16.22,7.17C128.514,450.9,142.367,459.23,141.132,471.853z
			 M323.444,291.665c13.229,10.069,27.988,18.378,44.247,24.908v124.03c-2.08,0.33-4.11,0.88-6.07,1.64
			c-1.94-5.91-5.25-11.29-9.73-15.77c-12.72-12.72-27.94-11.618-28.45-11.72C323.442,414.642,323.444,298.305,323.444,291.665z
			 M341.292,437.083c9.612,9.611,4.206,17.274,13.14,21.22c3.26,1.44,7,1.15,10.02-0.76c10.397-6.625,24.343,1.62,23.1,14.31
			c-21.718,0-87.732,0-109.71,0c-0.825-8.25,5.125-15.414,12.96-16.49c4.17-0.58,7.62-3.55,8.79-7.58
			C304.874,429.572,327.806,423.626,341.292,437.083z M308.442,331.034H280.6v-9.641c9.593,0,18.148,0,27.842,0V331.034z
			 M308.442,306.393h-10.777v-9.641h10.777V306.393z M307.418,281.753h-17.253c-4.143,0-7.5,3.357-7.5,7.5v17.141H273.1
			c-4.143,0-7.5,3.357-7.5,7.5v24.641c0,4.143,3.357,7.5,7.5,7.5h35.342v71.739c-10.21,4.22-18.5,12.58-22.4,23.23
			c-14.267,3.32-24.089,16.683-23.24,30.85h-3.438v-72.415c0-4.143-3.357-7.5-7.5-7.5s-7.5,3.357-7.5,7.5v71.364h-69.763V333.648
			h69.763v35.79c0,4.143,3.358,7.5,7.5,7.5s7.5-3.357,7.5-7.5v-37.492c0-7.332-5.965-13.298-13.297-13.298h-73.167
			c-7.333,0-13.298,5.966-13.298,13.298v139.907h-3.439c1.128-21.436-20.513-37.554-40.97-29.61c-1.12-3.4-2.68-6.63-4.67-9.61
			v-8.052H128.8c4.142,0,7.5-3.357,7.5-7.5v-17.141h9.565c4.142,0,7.5-3.357,7.5-7.5v-24.641c0-4.143-3.358-7.5-7.5-7.5h-35.344
			v-77.977c4.587-2.294,5.671-4.291,98.96-97.58C312.204,287.453,304.257,279.903,307.418,281.753z M121.3,399.941v9.641h-10.779
			v-9.641H121.3z M110.522,384.941v-9.641h27.844v9.641C128.772,384.941,120.216,384.941,110.522,384.941z M267.562,221.613
			c-8.941-8.941-32.915-32.915-41.57-41.57c-10.243-9.432-12.309-14.988-18.6-13.11c-2.75,0.795,5.054-6.363-102.45,101.14
			c-1.85,1.85-4.86,1.85-6.71,0c-0.347-0.347-4.797-4.797-4.6-4.6c-1.799-1.799-1.873-4.826,0-6.71
			c91.637-91.637,62.327-62.329,112.44-112.43c1.85-1.85,4.97-1.85,6.82,0c22.683,22.683,13.121,13.123,40.98,40.97
			C257.505,197.877,262.096,210.106,267.562,221.613z"/>
		<path d="M417.86,118.354l-51.73,91.914l-33.022-29.188c-3.104-2.744-7.844-2.45-10.586,0.652
			c-2.743,3.104-2.451,7.843,0.652,10.586c41.593,35.891,39.896,37.214,44.941,37.214c2.715,0,5.21-1.467,6.536-3.821l56.281-100
			c2.031-3.61,0.752-8.183-2.857-10.215C424.466,113.466,419.892,114.745,417.86,118.354z"/>
	</g>
</g>
<g>
</g>
<g>
</g>
<g>
</g>
<g>
</g>
<g>
</g>
<g>
</g>
<g>
</g>
<g>
</g>
<g>
</g>
<g>
</g>
<g>
</g>
<g>
</g>
<g>
</g>
<g>
</g>
<g>
</g>
</svg>
