<?xml version="1.0" encoding="iso-8859-1"?>
<!-- Generator: Adobe Illustrator 19.0.0, SVG Export Plug-In . SVG Version: 6.00 Build 0)  -->
<svg version="1.1" id="Layer_1" xmlns="http://www.w3.org/2000/svg" xmlns:xlink="http://www.w3.org/1999/xlink" x="0px" y="0px"
	 viewBox="0 0 505 505" style="enable-background:new 0 0 505 505;" xml:space="preserve">
<g>
	<path style="fill:#2CB3CD;" d="M497.5,66.15v372.7c0,10.61-8.68,19.29-19.29,19.29H26.79c-10.61,0-19.29-8.68-19.29-19.29V66.15
		c0-10.61,8.68-19.29,19.29-19.29h451.42C488.82,46.86,497.5,55.54,497.5,66.15z"/>
	<path style="fill:#60C8DD;" d="M497.5,66.15v372.7c0,10.61-8.68,19.29-19.29,19.29H60.29c-10.61,0-19.29-8.68-19.29-19.29V66.15
		c0-10.61,8.68-19.29,19.29-19.29h417.92C488.82,46.86,497.5,55.54,497.5,66.15z"/>
	<path style="fill:#C8D2DC;" d="M457.25,252.1v57.48c0,3.22-2.61,5.83-5.83,5.83H338.06c-3.23,0-5.84-2.61-5.84-5.83v-56.53
		c0-34.3,27.25-62.93,61.55-63.45c5.53-0.09,10.91,0.55,16.03,1.82C437.02,198.18,457.25,222.83,457.25,252.1z"/>
	<path style="fill:#DCE6EB;" d="M457.25,252.1v57.48c0,3.22-2.61,5.83-5.83,5.83h-83.36c-3.23,0-5.84-2.61-5.84-5.83v-56.53
		c0-29.49,20.14-54.78,47.58-61.63C437.02,198.18,457.25,222.83,457.25,252.1z"/>
	<path style="fill:#C8D2DC;" d="M288.01,101.35v37.49c0,2.57-2.1,4.67-4.67,4.67H45.67c-2.57,0-4.66-2.1-4.66-4.67v-37.49
		c0-2.56,2.09-4.66,4.66-4.66h237.67C285.91,96.69,288.01,98.79,288.01,101.35z"/>
	<path style="fill:#DCE6EB;" d="M288.01,101.35v37.49c0,2.57-2.1,4.67-4.67,4.67H81.67c-2.57,0-4.66-2.1-4.66-4.67v-37.49
		c0-2.56,2.09-4.66,4.66-4.66h201.67C285.91,96.69,288.01,98.79,288.01,101.35z"/>
	<path style="fill:#C8D2DC;" d="M123.34,173.69v78.21H41.01v-71.55c0-3.68,2.98-6.66,6.65-6.66H123.34z"/>
	<rect x="123.34" y="173.69" style="fill:#909BA6;" width="82.33" height="78.21"/>
	<path style="fill:#C8D2DC;" d="M288.01,180.35v71.55h-82.34v-78.21h75.68C285.03,173.69,288.01,176.67,288.01,180.35z"/>
	<rect x="41.01" y="251.9" style="fill:#909BA6;" width="82.33" height="78.2"/>
	<rect x="123.34" y="251.9" style="fill:#C8D2DC;" width="82.33" height="78.2"/>
	<rect x="205.67" y="251.9" style="fill:#909BA6;" width="82.34" height="78.2"/>
	<path style="fill:#C8D2DC;" d="M123.34,330.1v78.21H47.66c-3.67,0-6.65-2.98-6.65-6.66V330.1H123.34z"/>
	<rect x="123.34" y="330.1" style="fill:#909BA6;" width="82.33" height="78.21"/>
	<path style="fill:#C8D2DC;" d="M288.01,330.1v71.55c0,3.68-2.98,6.66-6.66,6.66h-75.68V330.1H288.01z"/>
	<path style="fill:#DCE6EB;" d="M123.34,173.69v48.03H41.01v-41.37c0-3.68,2.98-6.66,6.65-6.66H123.34z"/>
	<rect x="123.34" y="173.69" style="fill:#A2ABB8;" width="82.33" height="48.03"/>
	<path style="fill:#DCE6EB;" d="M288.01,180.35v41.37h-82.34v-48.03h75.68C285.03,173.69,288.01,176.67,288.01,180.35z"/>
	<rect x="41.01" y="251.9" style="fill:#A2ABB8;" width="82.33" height="48.02"/>
	<rect x="123.34" y="251.9" style="fill:#DCE6EB;" width="82.33" height="48.02"/>
	<rect x="205.67" y="251.9" style="fill:#A2ABB8;" width="82.34" height="48.02"/>
	<path style="fill:#DCE6EB;" d="M123.34,330.1v48.03H47.66c-3.67,0-6.65-2.98-6.65-6.66V330.1H123.34z"/>
	<rect x="123.34" y="330.1" style="fill:#A2ABB8;" width="82.33" height="48.03"/>
	<path style="fill:#DCE6EB;" d="M288.01,330.1v41.37c0,3.68-2.98,6.66-6.66,6.66h-75.68V330.1H288.01z"/>
	<g>
		<path d="M478.211,39.361H216.084c-4.143,0-7.5,3.357-7.5,7.5s3.357,7.5,7.5,7.5h262.127c6.5,0,11.789,5.289,11.789,11.789v217.581
			c0,4.143,3.357,7.5,7.5,7.5s7.5-3.357,7.5-7.5V66.15C505,51.379,492.982,39.361,478.211,39.361z"/>
		<path d="M7.5,391.063c4.143,0,7.5-3.357,7.5-7.5V66.15c0-6.5,5.289-11.789,11.789-11.789h162.295c4.143,0,7.5-3.357,7.5-7.5
			s-3.357-7.5-7.5-7.5H26.789C12.018,39.361,0,51.379,0,66.15v317.413C0,387.706,3.357,391.063,7.5,391.063z"/>
		<path d="M497.5,303.231c-4.143,0-7.5,3.357-7.5,7.5V438.85c0,6.5-5.289,11.789-11.789,11.789H26.789
			c-6.5,0-11.789-5.289-11.789-11.789v-28.286c0-4.143-3.357-7.5-7.5-7.5s-7.5,3.357-7.5,7.5v28.286
			c0,14.771,12.018,26.789,26.789,26.789h451.422c14.771,0,26.789-12.018,26.789-26.789V310.731
			C505,306.589,501.643,303.231,497.5,303.231z"/>
		<path d="M410.757,199.466c3.958,1.209,8.152-1.023,9.361-4.986c1.208-3.962-1.024-8.153-4.986-9.361
			c-45.071-13.744-90.407,20.238-90.407,66.984v63.309c0,4.143,3.357,7.5,7.5,7.5c41.96,0,83.507,0,125.026,0
			c4.143,0,7.5-3.357,7.5-7.5v-63.309c-0.001-19.923-8.558-38.975-23.476-52.27c-3.092-2.757-7.833-2.483-10.589,0.608
			c-2.756,3.093-2.483,7.833,0.608,10.589c11.729,10.453,18.455,25.423,18.456,41.072v55.809h-14.903v-55.809
			c0-22.116-17.993-40.109-40.11-40.109c-22.116,0-40.109,17.993-40.109,40.109v55.809h-14.903v-55.809
			C339.725,215.318,375.411,188.687,410.757,199.466z M369.628,252.103c0-13.846,11.264-25.109,25.109-25.109
			s25.11,11.264,25.11,25.109v55.809h-17.61V256.74c0-4.143-3.357-7.5-7.5-7.5s-7.5,3.357-7.5,7.5v51.171h-17.609V252.103z"/>
		<path d="M341.36,137.755h-23.655c-4.143,0-7.5,3.357-7.5,7.5v23.046c0,4.143,3.357,7.5,7.5,7.5s7.5-3.357,7.5-7.5v-15.546h16.155
			c4.143,0,7.5-3.357,7.5-7.5S345.503,137.755,341.36,137.755z"/>
		<path d="M479.271,145.255c0-4.143-3.357-7.5-7.5-7.5h-23.655c-4.143,0-7.5,3.357-7.5,7.5s3.357,7.5,7.5,7.5h16.155v15.546
			c0,4.143,3.357,7.5,7.5,7.5s7.5-3.357,7.5-7.5V145.255z"/>
		<path d="M471.771,329.199c-4.143,0-7.5,3.357-7.5,7.5v15.546h-16.155c-4.143,0-7.5,3.357-7.5,7.5s3.357,7.5,7.5,7.5h23.655
			c4.143,0,7.5-3.357,7.5-7.5v-23.046C479.271,332.557,475.913,329.199,471.771,329.199z"/>
		<path d="M310.205,359.745c0,4.143,3.357,7.5,7.5,7.5h23.655c4.143,0,7.5-3.357,7.5-7.5s-3.357-7.5-7.5-7.5h-16.155v-15.546
			c0-4.143-3.357-7.5-7.5-7.5s-7.5,3.357-7.5,7.5V359.745z"/>
		<path d="M295.506,101.352c0-6.706-5.455-12.162-12.161-12.162H45.668c-6.706,0-12.162,5.456-12.162,12.162v37.493
			c0,6.706,5.456,12.162,12.162,12.162h237.677c6.706,0,12.161-5.456,12.161-12.162V101.352z M280.506,136.007h-232v-31.817h232
			V136.007z"/>
		<path d="M41.006,166.189c-4.143,0-7.5,3.357-7.5,7.5c0,11.602,0,215.06,0,234.621c0,4.143,3.357,7.5,7.5,7.5
			c29.893,0,223.477,0,247,0c4.143,0,7.5-3.357,7.5-7.5c0-19.815,0-222.214,0-234.621c0-4.143-3.357-7.5-7.5-7.5
			C256.407,166.189,70.727,166.189,41.006,166.189z M115.84,400.811H48.506v-63.207h67.334V400.811z M115.84,322.604H48.506v-63.207
			h67.334V322.604z M115.84,244.396H48.506v-63.207h67.334V244.396z M198.173,400.811H130.84v-63.207h67.333V400.811z
			 M198.173,322.604H130.84v-63.207h67.333V322.604z M198.173,244.396H130.84v-63.207h67.333V244.396z M280.506,400.811h-67.333
			v-63.207h67.333V400.811z M280.506,322.604h-67.333v-63.207h67.333V322.604z M280.506,244.396h-67.333v-63.207h67.333V244.396z"/>
	</g>
</g>
<g>
</g>
<g>
</g>
<g>
</g>
<g>
</g>
<g>
</g>
<g>
</g>
<g>
</g>
<g>
</g>
<g>
</g>
<g>
</g>
<g>
</g>
<g>
</g>
<g>
</g>
<g>
</g>
<g>
</g>
</svg>
