<?xml version="1.0" encoding="iso-8859-1"?>
<!-- Generator: Adobe Illustrator 19.0.0, SVG Export Plug-In . SVG Version: 6.00 Build 0)  -->
<svg version="1.1" id="Layer_1" xmlns="http://www.w3.org/2000/svg" xmlns:xlink="http://www.w3.org/1999/xlink" x="0px" y="0px"
	 viewBox="0 0 506.54 506.54" style="enable-background:new 0 0 506.54 506.54;" xml:space="preserve">
<g>
	<path style="fill:#2CB3CD;" d="M180.103,499.04h-57.665c-1.719,0-3.113-1.394-3.113-3.113v-62.165h63.891v62.165
		C183.215,497.647,181.822,499.04,180.103,499.04z"/>
	<path style="fill:#2CB3CD;" d="M384.103,499.04h-57.665c-1.719,0-3.113-1.394-3.113-3.113v-62.165h63.891v62.165
		C387.215,497.647,385.822,499.04,384.103,499.04z"/>
	<path style="fill:#7CD2E3;" d="M434.53,26.26v417.91c0,10.36-8.4,18.76-18.76,18.76h-325c-10.36,0-18.76-8.4-18.76-18.76V26.26
		c0-10.36,8.4-18.76,18.76-18.76h325C426.13,7.5,434.53,15.9,434.53,26.26z"/>
	<path style="fill:#A6E0EC;" d="M434.53,26.26v417.91c0,10.36-8.4,18.76-18.76,18.76H117.03c-10.36,0-18.76-8.4-18.76-18.76V26.26
		c0-10.36,8.4-18.76,18.76-18.76h298.74C426.13,7.5,434.53,15.9,434.53,26.26z"/>
	<circle style="fill:#DCE6EB;" cx="253.27" cy="252.76" r="131.973"/>
	<path style="fill:#60C8DD;" d="M347.86,252.76c0,40.04-25.01,74.35-60.23,88.13c-10.65,4.17-22.24,6.46-34.36,6.46
		c-45.34,0-83.33-32.06-92.48-74.7c-1.38-6.41-2.11-13.07-2.11-19.89c0-52.16,42.43-94.59,94.59-94.59c2.56,0,5.09,0.1,7.6,0.31
		c46.96,3.74,84.36,41.94,86.86,89.25C347.82,249.4,347.86,251.07,347.86,252.76z"/>
	<path style="fill:#7CD2E3;" d="M347.86,252.76c0,40.04-25.01,74.35-60.23,88.13c-41.93-3.34-76.25-34.16-84.88-74.39
		c-1.38-6.41-2.11-13.07-2.11-19.89c0-40.04,25.01-74.35,60.23-88.13c46.96,3.74,84.36,41.94,86.86,89.25
		C347.82,249.4,347.86,251.07,347.86,252.76z"/>
	<path style="fill:#60C8DD;" d="M434.53,26.26v56.5H72.01v-56.5c0-10.36,8.4-18.76,18.76-18.76h325
		C426.13,7.5,434.53,15.9,434.53,26.26z"/>
	<path style="fill:#DCE6EB;" d="M229.616,59.51H112.27c-7.732,0-14-6.268-14-14v0c0-7.732,6.268-14,14-14h117.346
		c7.732,0,14,6.268,14,14v0C243.616,53.242,237.348,59.51,229.616,59.51z"/>
	<circle style="fill:#F44545;" cx="283.949" cy="45.51" r="15.667"/>
	<circle style="fill:#F44545;" cx="339.747" cy="45.51" r="15.667"/>
	<circle style="fill:#F44545;" cx="395.544" cy="45.51" r="15.667"/>
	<path style="fill:#2CB3CD;" d="M347.86,252.76c0,52.16-42.43,94.59-94.59,94.59c-45.34,0-83.33-32.06-92.48-74.7l54.49-21.64
		c17.88-7.1,38.04-5.55,54.63,4.19c9.74,5.72,20.66,8.59,31.6,8.59c9.83,0,19.69-2.32,28.7-6.99l17.52-9.07
		C347.82,249.4,347.86,251.07,347.86,252.76z"/>
	<path style="fill:#269AB1;" d="M395.77,439.76h-47.523c-4.694,0-8.5-3.806-8.5-8.5v-20c0-4.694,3.806-8.5,8.5-8.5h47.523
		c4.694,0,8.5,3.806,8.5,8.5v20C404.27,435.954,400.464,439.76,395.77,439.76z"/>
	<path style="fill:#2CB3CD;" d="M117.03,7.5c-10.36,0-18.76,8.4-18.76,18.76v56.5H72.01v-56.5c0-10.36,8.4-18.76,18.76-18.76H117.03
		z"/>
	<path style="fill:#269AB1;" d="M201.17,256.61l-40.38,16.04c12.156,56.65,72.587,89.483,126.84,68.24
		C241.998,337.255,205.83,301.218,201.17,256.61z"/>
	<g>
		<path d="M415.77,0h-325C76.29,0,64.51,11.78,64.51,26.26v417.91c0,14.48,11.78,26.26,26.26,26.26h21.05v28.61
			c0,4.14,3.36,7.5,7.5,7.5h63.9c4.14,0,7.5-3.36,7.5-7.5v-28.61h125.1v28.61c0,4.14,3.36,7.5,7.5,7.5h63.9c4.14,0,7.5-3.36,7.5-7.5
			v-28.61h21.05c14.48,0,26.26-11.78,26.26-26.26V26.26C442.03,11.78,430.25,0,415.77,0z M175.72,491.54h-48.9v-21.11h48.9V491.54z
			 M379.72,491.54h-48.9v-21.11h48.9V491.54z M427.03,444.17c0,6.21-5.05,11.26-11.26,11.26c-58.625,0-258.169,0-325,0
			c-6.21,0-11.26-5.05-11.26-11.26V90.26h347.52V444.17z M427.03,75.26H79.51v-49c0-6.21,5.05-11.26,11.26-11.26h325
			c6.21,0,11.26,5.05,11.26,11.26V75.26z"/>
		<path d="M279.681,389.734c4.068-0.78,6.733-4.71,5.954-8.778c-0.78-4.068-4.721-6.728-8.778-5.954
			c-77.183,14.796-148.06-44.616-148.06-122.241c0-68.635,55.838-124.473,124.473-124.473s124.473,55.838,124.473,124.473
			c0,50.396-30.053,95.506-76.563,114.921c-3.822,1.596-5.627,5.987-4.031,9.811c1.596,3.822,5.987,5.629,9.811,4.031
			c52.111-21.753,85.783-72.296,85.783-128.763c0-76.905-62.567-139.473-139.473-139.473S113.797,175.855,113.797,252.76
			C113.797,339.755,193.234,406.303,279.681,389.734z"/>
		<path d="M299.358,178.892c3.511,2.196,8.138,1.135,10.338-2.375c2.198-3.511,1.135-8.139-2.375-10.338
			c-67.057-41.996-156.142,5.955-156.142,86.581c0,56.293,45.798,102.091,102.091,102.091c87.847,0,134.424-104.628,76.223-169.942
			c-2.754-3.092-7.495-3.366-10.589-0.61c-3.093,2.756-3.366,7.496-0.61,10.589c12.13,13.613,19.594,30.559,21.539,48.486
			c-8.967,3.918-19.683,12.921-38.321,12.921c-26.901,0-31.603-17.188-63.208-17.188c-21.236,0-31.229,8.242-71.607,23.125
			C158.833,189.867,238.201,140.586,299.358,178.892z M238.303,254.107c27.11,0,31.469,17.188,63.208,17.188
			c21.427,0,34.939-9.677,38.532-11.138c-3.767,44.573-41.242,79.695-86.773,79.695c-39.544,0-73.012-26.493-83.598-62.661
			C214.908,260.257,221.269,254.107,238.303,254.107z"/>
		<path d="M229.616,24.01h-11.691c-4.143,0-7.5,3.357-7.5,7.5s3.357,7.5,7.5,7.5h11.691c3.584,0,6.5,2.916,6.5,6.5
			s-2.916,6.5-6.5,6.5H112.27c-3.584,0-6.5-2.916-6.5-6.5s2.916-6.5,6.5-6.5h78.654c4.143,0,7.5-3.357,7.5-7.5s-3.357-7.5-7.5-7.5
			H112.27c-11.855,0-21.5,9.645-21.5,21.5s9.645,21.5,21.5,21.5h117.346c11.855,0,21.5-9.645,21.5-21.5S241.471,24.01,229.616,24.01
			z"/>
		<path d="M283.95,22.344c-12.774,0-23.167,10.393-23.167,23.166c0,12.774,10.393,23.167,23.167,23.167
			c12.773,0,23.166-10.393,23.166-23.167C307.116,32.737,296.723,22.344,283.95,22.344z M283.95,53.677
			c-4.503,0-8.167-3.664-8.167-8.167s3.664-8.166,8.167-8.166s8.166,3.663,8.166,8.166S288.453,53.677,283.95,53.677z"/>
		<path d="M339.747,22.344c-12.774,0-23.167,10.393-23.167,23.166c0,12.774,10.393,23.167,23.167,23.167
			s23.167-10.393,23.167-23.167C362.914,32.737,352.521,22.344,339.747,22.344z M339.747,53.677c-4.503,0-8.167-3.664-8.167-8.167
			s3.664-8.166,8.167-8.166s8.167,3.663,8.167,8.166S344.25,53.677,339.747,53.677z"/>
		<path d="M395.543,22.344c-12.773,0-23.166,10.393-23.166,23.166c0,12.774,10.393,23.167,23.166,23.167
			c12.774,0,23.167-10.393,23.167-23.167C418.71,32.737,408.318,22.344,395.543,22.344z M395.543,53.677
			c-4.503,0-8.166-3.664-8.166-8.167s3.663-8.166,8.166-8.166s8.167,3.663,8.167,8.166S400.046,53.677,395.543,53.677z"/>
		<path d="M332.247,411.26v20c0,8.822,7.178,16,16,16h47.523c8.822,0,16-7.178,16-16v-20c0-8.822-7.178-16-16-16h-47.523
			C339.424,395.26,332.247,402.438,332.247,411.26z M396.77,411.26v20c0,0.552-0.448,1-1,1h-47.523c-0.552,0-1-0.448-1-1v-20
			c0-0.552,0.448-1,1-1h47.523C396.322,410.26,396.77,410.708,396.77,411.26z"/>
	</g>
</g>
<g>
</g>
<g>
</g>
<g>
</g>
<g>
</g>
<g>
</g>
<g>
</g>
<g>
</g>
<g>
</g>
<g>
</g>
<g>
</g>
<g>
</g>
<g>
</g>
<g>
</g>
<g>
</g>
<g>
</g>
</svg>
