<?xml version="1.0" encoding="iso-8859-1"?>
<!-- Generator: Adobe Illustrator 19.0.0, SVG Export Plug-In . SVG Version: 6.00 Build 0)  -->
<svg version="1.1" id="Layer_1" xmlns="http://www.w3.org/2000/svg" xmlns:xlink="http://www.w3.org/1999/xlink" x="0px" y="0px"
	 viewBox="0 0 507.728 507.728" style="enable-background:new 0 0 507.728 507.728;" xml:space="preserve">
<g>
	<path style="fill:#DEF4F8;" d="M448.424,458.527c-0.017,0-0.031,0-0.047,0c-0.005,0-0.013,0-0.018,0c-0.098,0-0.194,0-0.281,0
		c0.067,0,0.129,0,0.18,0c-0.077,0-0.183,0-0.324,0c0.042,0,0.082,0,0.121,0c-0.283,0-0.505,0-0.684,0c-0.011,0-0.022,0-0.034,0
		c-0.011,0-0.022,0-0.032,0c-0.059,0-0.114,0-0.179,0c-0.065,0-0.14,0-0.211,0c0.024,0,0.052,0,0.082,0c-0.053,0-0.099,0-0.13,0
		c0.003,0,0.005,0,0.008,0c-3.518-0.001-14.125-0.006-42.483-0.018c5.6,0,10.14-4.54,10.14-10.14v-21.422
		c0-5.6-4.54-10.14-10.14-10.14h-23.826V180.274l44.165,44.252c5.689,5.689,14.914,5.689,20.603,0l5.475-5.475
		c5.689-5.69,5.689-14.914,0-20.604L264.474,11.781c-5.692-5.692-15.034-5.715-20.748,0L56.921,198.448
		c-5.69,5.689-5.69,14.914,0,20.604l5.475,5.475c5.69,5.69,14.914,5.69,20.603,0l44.165-44.13v236.411h-23.826
		c-5.6,0-10.14,4.54-10.14,10.14v21.422c0,5.6,4.54,10.14,10.14,10.14c-28.358,0.012-38.965,0.016-42.483,0.018
		c0.003,0,0.005,0,0.008,0c-0.031,0-0.077,0-0.13,0c0.03,0,0.057,0,0.082,0c-0.071,0-0.146,0-0.211,0c-0.065,0-0.12,0-0.179,0
		c-0.012,0-0.02,0-0.032,0c-0.011,0-0.023,0-0.034,0c-0.179,0-0.401,0-0.684,0c0.039,0,0.079,0,0.121,0c-0.141,0-0.247,0-0.325,0
		c0.051,0,0.113,0,0.18,0c-0.088,0-0.183,0-0.282,0c-0.006,0-0.013,0-0.018,0c-0.017,0-0.031,0-0.048,0
		c-5.6,0-10.139,4.54-10.139,10.139v21.422c0,5.6,4.54,10.139,10.139,10.139h389.12c5.6,0,10.139-4.54,10.139-10.139v-21.422
		C458.563,463.066,454.023,458.527,448.424,458.527z"/>
	<polygon style="fill:#C2EAF2;" points="380.564,147.275 380.564,500.074 127.164,500.074 127.164,147.275 253.864,30.555 
		273.884,48.995 	"/>
	<path style="fill:#DEF4F8;" d="M380.564,147.275v352.799h-216.81V186.735c0-14.56,5.62-28.57,15.69-39.09l94.44-98.65
		L380.564,147.275z"/>
	<path style="fill:#60C8DD;" d="M450.807,198.448L264.474,11.781c-5.692-5.692-15.034-5.715-20.748-0.001L56.921,198.448
		c-5.689,5.689-5.689,14.914,0,20.604l5.475,5.475c5.689,5.689,14.914,5.689,20.603,0L254.1,53.563l170.629,170.964
		c5.689,5.689,14.914,5.689,20.603,0l5.475-5.475C456.497,213.362,456.497,204.137,450.807,198.448z"/>
	<path style="fill:#44BFD7;" d="M404.389,458.508H103.338c-5.6,0-10.139-4.54-10.139-10.139v-21.422
		c0-5.6,4.54-10.139,10.139-10.139h301.051c5.6,0,10.139,4.54,10.139,10.139v21.422
		C414.529,453.969,409.989,458.508,404.389,458.508z"/>
	<path style="fill:#2CB3CD;" d="M59.304,500.228h389.12c5.6,0,10.139-4.54,10.139-10.139v-21.422c0-5.6-4.54-10.139-10.139-10.139
		H59.304c-5.6,0-10.139,4.54-10.139,10.139v21.422C49.164,495.688,53.704,500.228,59.304,500.228z"/>
	<path style="fill:#1AB975;" d="M292.302,392.846h-76.876c-9.941,0-17.999-8.058-17.999-17.999v-205.49
		c0-9.941,8.058-17.999,17.999-17.999h76.876c9.941,0,17.999,8.058,17.999,17.999v205.49
		C310.301,384.787,302.243,392.846,292.302,392.846z"/>
	<path style="fill:#1ED688;" d="M288.299,151.358h-68.87v-20.167c0-7.915,6.416-14.332,14.332-14.332h40.207
		c7.915,0,14.332,6.416,14.332,14.332V151.358z"/>
	<path style="fill:#FFC14F;" d="M251.759,197.601h19.556c3.942,0,6.611,4.017,5.084,7.651l-19.377,48.334
		c-1.527,3.634,1.141,7.651,5.084,7.651h26.099c4.267,0,6.917,4.638,4.751,8.314l-41.191,69.886
		c-3.209,5.444-11.564,2.09-10.119-4.061l10.568-44.976c0.813-3.461-1.813-6.776-5.368-6.776H219.52
		c-3.977,0-6.646-4.082-5.052-7.726l32.239-74.994C247.586,198.897,249.569,197.601,251.759,197.601z"/>
	<g>
		<path d="M448.424,451.026h-26.617c0.409-2.685,0.137-2.088,0.222-24.08c0-9.726-7.913-17.639-17.639-17.639h-16.326V198.405
			l31.36,31.42c8.6,8.6,22.546,8.664,31.21,0c2.664-3.387,11.94-8.674,11.94-21.08c0-5.89-2.29-11.43-6.46-15.6L269.774,6.475
			c-8.621-8.621-22.704-8.647-31.35,0l-186.81,186.67c-8.61,8.61-8.629,22.581,0,31.21c3.496,2.748,8.75,11.94,21.08,11.94
			c5.9,0,11.44-2.3,15.61-6.46l31.36-31.34v210.812h-16.326c-9.726,0-17.639,7.913-17.639,17.639v21.423
			c0,0.905,0.09,1.788,0.222,2.657H59.304c-9.726,0-17.639,7.913-17.639,17.64v21.422c0,9.727,7.913,17.64,17.639,17.64h310
			c4.142,0,7.5-3.357,7.5-7.5s-3.358-7.5-7.5-7.5h-310c-1.455,0-2.639-1.185-2.639-2.64v-21.422c0-1.455,1.184-2.64,2.639-2.64
			c173.729,0,215.387-0.014,389.12,0c1.455,0,2.639,1.185,2.639,2.64v21.422c0,1.455-1.184,2.64-2.639,2.64h-50.12
			c-4.142,0-7.5,3.357-7.5,7.5s3.358,7.5,7.5,7.5h50.12c9.726,0,17.639-7.913,17.639-17.64v-21.422
			C466.063,458.939,458.15,451.026,448.424,451.026z M77.694,219.225c-1.33,1.33-3.11,2.07-5,2.07c-4.49,0-5.941-3.564-10.47-7.55
			c-2.746-2.725-2.778-7.233,0-9.99c6.083-6.079,10.682-10.665,186.81-186.67c2.826-2.825,7.419-2.721,10.13-0.01
			c232.178,232.61,118.7,118.917,186.34,186.68c1.34,1.33,2.07,3.11,2.07,4.99c0,4.501-3.549,5.933-7.54,10.48
			c-2.808,2.787-7.265,2.735-10,0C247.633,36.472,258.976,46.065,254.104,46.065c-5.868,0-3.154,1.146-81.19,78.01
			c-2.93,2.93-2.93,7.68,0,10.61c2.93,2.93,7.68,2.93,10.61,0l70.57-70.51l118.97,119.2v225.93h-238.4v-225.8l28.34-28.32
			c2.93-2.93,2.93-7.68,0.01-10.61c-2.93-2.93-7.68-2.93-10.61,0C79.883,217.029,145.198,151.775,77.694,219.225z M407.029,448.369
			c0,1.455-1.184,2.639-2.639,2.639H103.338c-1.455,0-2.639-1.184-2.639-2.639v-21.423c0-1.455,1.184-2.639,2.639-2.639
			c18.139,0,282.994,0,301.052,0c1.455,0,2.639,1.184,2.639,2.639V448.369z"/>
		<path d="M215.426,400.346h76.876c14.061,0,25.499-11.438,25.499-25.499v-29.586c0-4.143-3.358-7.5-7.5-7.5
			c-4.142,0-7.5,3.357-7.5,7.5v29.586c0,5.789-4.71,10.499-10.499,10.499h-76.876c-5.79,0-10.5-4.71-10.5-10.499v-205.49
			c0-5.789,4.71-10.499,10.5-10.499c21.373,0,55.418,0,76.876,0c5.79,0,10.499,4.71,10.499,10.499v145.904
			c0,4.143,3.358,7.5,7.5,7.5c4.142,0,7.5-3.357,7.5-7.5V169.356c0-12.874-9.591-23.543-22.002-25.253v-12.912
			c0-12.038-9.793-21.832-21.832-21.832H233.76c-12.038,0-21.832,9.794-21.832,21.832v12.912
			c-12.411,1.71-22.002,12.379-22.002,25.253v205.49C189.926,388.907,201.365,400.346,215.426,400.346z M226.929,131.191
			c0-3.768,3.064-6.832,6.832-6.832h40.207c3.767,0,6.832,3.064,6.832,6.832v12.666h-53.87V131.191z"/>
		<path d="M258.226,343.245c42.696-73.648,43.001-70.237,43.001-76.484c0-7.182-5.842-13.024-13.022-13.024h-23.163
			c18.947-48.038,19.293-46.271,19.293-50.625c0-7.174-5.841-13.011-13.02-13.011h-19.556c-5.169,0-9.849,3.061-11.941,7.842
			c-34.134,80.288-33.318,75.483-33.318,80.17c0,7.175,5.841,13.012,13.021,13.012h24.82l-9.996,42.54
			C230.925,348.264,250.733,355.958,258.226,343.245z M222.536,276.124l30.532-71.023h15.312
			c-18.947,48.038-19.293,46.271-19.293,50.625c0,7.174,5.841,13.011,13.02,13.011h22.624l-32.796,55.642
			c7.858-33.943,7.929-32.599,7.929-35.252c0-7.169-5.839-13.002-13.017-13.002H222.536z"/>
	</g>
</g>
<g>
</g>
<g>
</g>
<g>
</g>
<g>
</g>
<g>
</g>
<g>
</g>
<g>
</g>
<g>
</g>
<g>
</g>
<g>
</g>
<g>
</g>
<g>
</g>
<g>
</g>
<g>
</g>
<g>
</g>
</svg>
