<?xml version="1.0" encoding="iso-8859-1"?>
<!-- Generator: Adobe Illustrator 19.0.0, SVG Export Plug-In . SVG Version: 6.00 Build 0)  -->
<svg version="1.1" id="Layer_1" xmlns="http://www.w3.org/2000/svg" xmlns:xlink="http://www.w3.org/1999/xlink" x="0px" y="0px"
	 viewBox="0 0 507.728 507.728" style="enable-background:new 0 0 507.728 507.728;" xml:space="preserve">
<g>
	<path style="fill:#DEF4F8;" d="M448.424,458.527c-0.017,0-0.031,0-0.047,0c-0.005,0-0.013,0-0.018,0c-0.098,0-0.194,0-0.281,0
		c0.067,0,0.129,0,0.18,0c-0.077,0-0.183,0-0.324,0c0.042,0,0.082,0,0.121,0c-0.283,0-0.505,0-0.684,0c-0.011,0-0.022,0-0.034,0
		c-0.011,0-0.022,0-0.032,0c-0.059,0-0.114,0-0.179,0c-0.065,0-0.14,0-0.211,0c0.024,0,0.052,0,0.082,0c-0.053,0-0.099,0-0.13,0
		c0.003,0,0.005,0,0.008,0c-3.518-0.001-14.125-0.006-42.483-0.018c5.6,0,10.14-4.54,10.14-10.14v-21.422
		c0-5.6-4.54-10.14-10.14-10.14h-23.826V180.274l44.165,44.252c5.689,5.689,14.914,5.689,20.603,0l5.475-5.475
		c5.689-5.69,5.689-14.914,0-20.604L264.474,11.781c-5.692-5.692-15.034-5.715-20.748,0L56.921,198.448
		c-5.69,5.689-5.69,14.914,0,20.604l5.475,5.475c5.69,5.69,14.914,5.69,20.603,0l44.165-44.13v236.411h-23.826
		c-5.6,0-10.14,4.54-10.14,10.14v21.422c0,5.6,4.54,10.14,10.14,10.14c-28.358,0.012-38.965,0.016-42.483,0.018
		c0.003,0,0.005,0,0.008,0c-0.031,0-0.077,0-0.13,0c0.03,0,0.057,0,0.082,0c-0.071,0-0.146,0-0.211,0c-0.065,0-0.12,0-0.179,0
		c-0.012,0-0.02,0-0.032,0c-0.011,0-0.023,0-0.034,0c-0.179,0-0.401,0-0.684,0c0.039,0,0.079,0,0.121,0c-0.141,0-0.247,0-0.325,0
		c0.051,0,0.113,0,0.18,0c-0.088,0-0.183,0-0.282,0c-0.006,0-0.013,0-0.018,0c-0.017,0-0.031,0-0.048,0
		c-5.6,0-10.139,4.54-10.139,10.139v21.422c0,5.6,4.54,10.139,10.139,10.139h389.12c5.6,0,10.139-4.54,10.139-10.139v-21.422
		C458.563,463.066,454.023,458.527,448.424,458.527z"/>
	<polygon style="fill:#C2EAF2;" points="380.564,147.275 380.564,500.074 127.164,500.074 127.164,147.275 253.864,30.555 
		273.884,48.995 	"/>
	<path style="fill:#DEF4F8;" d="M380.564,147.275v352.799h-216.81V186.735c0-14.56,5.62-28.57,15.69-39.09l94.44-98.65
		L380.564,147.275z"/>
	<path style="fill:#60C8DD;" d="M450.807,198.448L264.474,11.781c-5.692-5.692-15.034-5.715-20.748-0.001L56.921,198.448
		c-5.689,5.689-5.689,14.914,0,20.604l5.475,5.475c5.689,5.689,14.914,5.689,20.603,0L254.1,53.563l170.629,170.964
		c5.689,5.689,14.914,5.689,20.603,0l5.475-5.475C456.497,213.362,456.497,204.137,450.807,198.448z"/>
	<path style="fill:#44BFD7;" d="M404.389,458.508H103.338c-5.6,0-10.139-4.54-10.139-10.139v-21.422
		c0-5.6,4.54-10.139,10.139-10.139h301.051c5.6,0,10.139,4.54,10.139,10.139v21.422
		C414.529,453.969,409.989,458.508,404.389,458.508z"/>
	<path style="fill:#2CB3CD;" d="M59.304,500.228h389.12c5.6,0,10.139-4.54,10.139-10.139v-21.422c0-5.6-4.54-10.139-10.139-10.139
		H59.304c-5.6,0-10.139,4.54-10.139,10.139v21.422C49.164,495.688,53.704,500.228,59.304,500.228z"/>
	<path style="fill:#C8D2DC;" d="M324.36,345.963H183.367c-1.504,0-2.724-1.219-2.724-2.724V202.247c0-1.504,1.219-2.724,2.724-2.724
		H324.36c1.504,0,2.724,1.219,2.724,2.724V343.24C327.084,344.744,325.865,345.963,324.36,345.963z"/>
	<path style="fill:#A2ABB8;" d="M210.327,311.281v-77.074c0-2.761,2.239-5,5-5h77.074c2.761,0,5,2.239,5,5v77.074
		c0,2.761-2.239,5-5,5h-77.074C212.565,316.281,210.327,314.042,210.327,311.281z"/>
	<g>
		<path d="M297.401,221.706h-87.074c-4.143,0-7.5,3.357-7.5,7.5v87.074c0,4.143,3.357,7.5,7.5,7.5h87.074c4.143,0,7.5-3.357,7.5-7.5
			v-21.223c0-4.143-3.357-7.5-7.5-7.5s-7.5,3.357-7.5,7.5v13.723h-72.074v-72.074h72.074v28.352c0,4.143,3.357,7.5,7.5,7.5
			s7.5-3.357,7.5-7.5v-35.852C304.901,225.064,301.543,221.706,297.401,221.706z"/>
		<path d="M142.258,222.325c0,4.143,3.357,7.5,7.5,7.5h23.386v18.612h-23.386c-4.143,0-7.5,3.357-7.5,7.5s3.357,7.5,7.5,7.5h23.386
			v18.611h-23.386c-4.143,0-7.5,3.357-7.5,7.5s3.357,7.5,7.5,7.5h23.386v18.612h-23.386c-4.143,0-7.5,3.357-7.5,7.5
			s3.357,7.5,7.5,7.5h23.386v12.578c0,5.638,4.586,10.225,10.224,10.225h12.578v23.385c0,4.143,3.357,7.5,7.5,7.5s7.5-3.357,7.5-7.5
			v-23.385h18.612v23.385c0,4.143,3.357,7.5,7.5,7.5s7.5-3.357,7.5-7.5v-23.385h18.611v23.385c0,4.143,3.357,7.5,7.5,7.5
			s7.5-3.357,7.5-7.5v-23.385h18.612v23.385c0,4.143,3.357,7.5,7.5,7.5s7.5-3.357,7.5-7.5v-23.385h12.578
			c5.638,0,10.224-4.587,10.224-10.225v-12.578h23.386c4.143,0,7.5-3.357,7.5-7.5s-3.357-7.5-7.5-7.5h-23.386v-18.612h23.386
			c4.143,0,7.5-3.357,7.5-7.5s-3.357-7.5-7.5-7.5h-23.386v-18.611h23.386c4.143,0,7.5-3.357,7.5-7.5s-3.357-7.5-7.5-7.5h-23.386
			v-18.612h23.386c4.143,0,7.5-3.357,7.5-7.5s-3.357-7.5-7.5-7.5h-23.386v-12.578c0-5.638-4.586-10.224-10.224-10.224h-12.578
			v-23.386c0-4.143-3.357-7.5-7.5-7.5s-7.5,3.357-7.5,7.5v23.386h-18.612v-23.386c0-4.143-3.357-7.5-7.5-7.5s-7.5,3.357-7.5,7.5
			v23.386h-18.611v-23.386c0-4.143-3.357-7.5-7.5-7.5s-7.5,3.357-7.5,7.5v23.386h-18.612v-23.386c0-4.143-3.357-7.5-7.5-7.5
			s-7.5,3.357-7.5,7.5v23.386h-12.578c-5.638,0-10.224,4.586-10.224,10.224v12.578h-23.386
			C145.616,214.825,142.258,218.183,142.258,222.325z M188.144,207.023h131.439v131.44H188.144V207.023z"/>
		<path d="M448.423,451.026h-26.617c0.132-0.869,0.222-1.752,0.222-2.657v-21.423c0-9.726-7.913-17.639-17.64-17.639h-16.325
			V198.405l31.36,31.42c8.6,8.6,22.546,8.664,31.21,0l5.48-5.47c8.612-8.612,8.629-22.581,0-31.21L269.774,6.475
			c-8.62-8.621-22.704-8.647-31.35,0l-186.81,186.67c-4.17,4.17-6.46,9.71-6.46,15.6c0,12.4,9.231,17.635,11.94,21.08
			c8.613,8.613,22.553,8.646,31.21,0.01l31.36-31.34v210.812h-16.325c-9.727,0-17.64,7.913-17.64,17.639
			c0.085,22.039-0.186,21.399,0.222,24.08H59.304c-9.727,0-17.64,7.913-17.64,17.64v21.422c0,9.727,7.913,17.64,17.64,17.64h310
			c4.143,0,7.5-3.357,7.5-7.5s-3.357-7.5-7.5-7.5h-310c-1.455,0-2.64-1.185-2.64-2.64v-21.422c0-1.455,1.185-2.64,2.64-2.64
			c173.728,0,215.387-0.014,389.119,0c1.455,0,2.64,1.185,2.64,2.64v21.422c0,1.455-1.185,2.64-2.64,2.64h-50.119
			c-4.143,0-7.5,3.357-7.5,7.5s3.357,7.5,7.5,7.5h50.119c9.727,0,17.64-7.913,17.64-17.64v-21.422
			C466.063,458.939,458.15,451.026,448.423,451.026z M77.694,219.225c-1.33,1.33-3.11,2.07-5,2.07c-4.517,0-5.986-3.604-10.47-7.55
			c-2.745-2.725-2.778-7.233,0-9.99c190.116-189.986,58.426-58.382,186.81-186.67c2.822-2.821,7.415-2.725,10.13-0.01
			c232.14,232.573,118.711,118.928,186.34,186.68c1.34,1.33,2.07,3.11,2.07,4.99c0,4.501-3.549,5.933-7.54,10.48
			c-2.808,2.788-7.265,2.735-10,0C247.633,36.472,258.976,46.065,254.104,46.065c-5.891,0-2.54,0.541-81.19,78.01
			c-2.93,2.93-2.93,7.68,0,10.61c2.93,2.93,7.68,2.93,10.61,0l70.57-70.51l118.97,119.2v225.93h-238.4v-225.8l28.34-28.32
			c2.93-2.93,2.93-7.68,0.01-10.61c-2.93-2.93-7.68-2.93-10.61,0C79.883,217.029,145.198,151.775,77.694,219.225z M407.029,448.369
			c0,1.455-1.185,2.639-2.64,2.639H103.338c-1.455,0-2.64-1.184-2.64-2.639v-21.423c0-1.455,1.185-2.639,2.64-2.639
			c17.289,0,286.707,0,301.051,0c1.455,0,2.64,1.184,2.64,2.639V448.369z"/>
	</g>
</g>
<g>
</g>
<g>
</g>
<g>
</g>
<g>
</g>
<g>
</g>
<g>
</g>
<g>
</g>
<g>
</g>
<g>
</g>
<g>
</g>
<g>
</g>
<g>
</g>
<g>
</g>
<g>
</g>
<g>
</g>
</svg>
