<?xml version="1.0" encoding="iso-8859-1"?>
<!-- Generator: Adobe Illustrator 19.0.0, SVG Export Plug-In . SVG Version: 6.00 Build 0)  -->
<svg version="1.1" id="Layer_1" xmlns="http://www.w3.org/2000/svg" xmlns:xlink="http://www.w3.org/1999/xlink" x="0px" y="0px"
	 viewBox="0 0 507.375 507.375" style="enable-background:new 0 0 507.375 507.375;" xml:space="preserve">
<g>
	<path style="fill:#DEF4F8;" d="M253.388,121.321c-72.618-3.682-209.433,99.996-242.959,126.345c-3.905,3.069-3.905,8.974,0,12.043
		c33.526,26.349,170.34,130.027,242.959,126.345c0.201-0.01,0.398-0.01,0.599,0c72.618,3.682,209.433-99.996,242.959-126.345
		c3.905-3.069,3.905-8.974,0-12.043c-33.526-26.349-170.341-130.027-242.959-126.345
		C253.786,121.331,253.589,121.331,253.388,121.321z"/>
	<path style="fill:#2CB3CD;" d="M335.007,358.117c-2.64,2.06-5.38,4.02-8.21,5.9c-2.24,1.48-4.5,2.88-6.79,4.21
		c-14.17,8.23-29.31,13.53-44.7,16.06c-18.09,2.99-36.52,2.14-54.07-2.3c-5.09-1.27-10.1-2.86-15-4.74
		c-24.85-9.51-47.06-26.58-62.88-50.45c-12.05-18.2-19.02-38.29-21.24-58.6c-0.56-4.99-0.82-10-0.78-15
		c0.19-42.69,20.98-84.49,59.24-109.84c28.97-19.19,62.74-25.5,94.53-20.27c35.07,5.75,67.73,25.53,88.91,57.49
		c5.63,8.5,10.15,17.42,13.6,26.57c1.86,4.94,3.4,9.95,4.64,15C394.427,271.747,376.957,325.527,335.007,358.117z"/>
	<path style="fill:#44BFD7;" d="M335.007,358.117c-2.64,2.06-5.38,4.02-8.21,5.9c-2.24,1.48-4.5,2.88-6.79,4.21
		c-14.17,8.23-29.31,13.53-44.7,16.06c-3.72-0.61-7.41-1.38-11.06-2.3c-5.09-1.27-10.1-2.86-15-4.74
		c-24.85-9.51-47.06-26.58-62.88-50.45c-12.05-18.2-19.02-38.29-21.24-58.6c-0.56-4.99-0.82-10-0.78-15
		c0.19-42.69,20.98-84.49,59.24-109.84c16.08-10.65,33.64-17.33,51.52-20.27c35.07,5.75,67.73,25.53,88.91,57.49
		c5.63,8.5,10.15,17.42,13.6,26.57c1.86,4.94,3.4,9.95,4.64,15C394.427,271.747,376.957,325.527,335.007,358.117z"/>
	<circle style="fill:#269AB1;" cx="309.233" cy="214.646" r="18.277"/>
	<circle style="fill:#269AB1;" cx="278.428" cy="278.972" r="18.277"/>
	<circle style="fill:#269AB1;" cx="232.019" cy="175.842" r="18.277"/>
	<circle style="fill:#269AB1;" cx="213.742" cy="313.221" r="18.277"/>
	<path d="M501.58,241.769c-62.104-48.81-172.979-128.045-252.041-128.045c-74.998,0-205.525,98.007-243.746,128.046
		c-7.715,6.067-7.733,17.749,0.002,23.835c54.884,43.135,178.253,131.344,247.84,127.945c0.313,0,1.704,0.1,4.201,0.1
		c37.51,0,92.944-23.944,164.762-71.167c3.461-2.275,4.422-6.926,2.146-10.387c-2.275-3.461-6.927-4.423-10.387-2.146
		c-18.314,12.042-35.595,22.55-51.753,31.5c40.695-50.441,41.817-123.45,0.036-175.445c56.854,31.568,130.674,87.01,129.671,87.807
		c-9.467,7.439-28.974,22.451-53.258,39.395c-3.397,2.37-4.229,7.045-1.859,10.442c2.371,3.396,7.046,4.229,10.443,1.858
		c24.588-17.156,44.351-32.364,53.945-39.904C509.297,259.537,509.315,247.856,501.58,241.769z M369.542,207.146h-35.648
		c-3.22-10.567-13.055-18.277-24.661-18.277c-14.213,0-25.777,11.563-25.777,25.777c0,14.213,11.563,25.776,25.777,25.776
		c11.606,0,21.441-7.71,24.661-18.276h40.628c11.768,45.038-2.448,94.521-39.511,126.282v-69.457c0-4.143-3.358-7.5-7.5-7.5h-24.421
		c-3.22-10.566-13.055-18.276-24.661-18.276c-14.213,0-25.777,11.563-25.777,25.776c0,14.214,11.563,25.777,25.777,25.777
		c11.605,0,21.441-7.711,24.661-18.277h16.921v72.973c-30.988,19.449-66.843,23.38-98.768,14.81v-36.373
		c10.566-3.22,18.277-13.055,18.277-24.66c0-14.214-11.563-25.777-25.777-25.777s-25.777,11.563-25.777,25.777
		c0,11.605,7.711,21.44,18.277,24.66v31.306c-42.829-17.573-71.465-56.985-76.577-100.993h102.354c4.142,0,7.5-3.357,7.5-7.5
		v-60.192c10.566-3.22,18.277-13.055,18.277-24.661c0-14.213-11.563-25.776-25.777-25.776s-25.777,11.563-25.777,25.776
		c0,11.606,7.711,21.441,18.277,24.661v52.692h-95.685c0.054-11.07,1.568-22.098,4.518-32.786c1.103-3.993-1.241-8.123-5.234-9.226
		c-3.992-1.103-8.123,1.241-9.225,5.233c-11.629,42.124-3.302,88.684,25.842,124.952c-56.841-31.561-130.682-87.013-129.671-87.807
		c16.023-12.594,71.985-55.525,129.654-87.548c-5.304,6.579-10.012,13.63-14.029,21.062c-1.969,3.645-0.612,8.194,3.032,10.164
		c3.643,1.97,8.195,0.612,10.164-3.031c9.661-17.873,23.783-33.294,40.839-44.597C250.483,106.039,339.964,133.75,369.542,207.146z
		 M320.01,214.646c0,5.942-4.834,10.776-10.777,10.776c-5.942,0-10.777-4.834-10.777-10.776s4.834-10.777,10.777-10.777
		C315.175,203.869,320.01,208.704,320.01,214.646z M289.205,278.972c0,5.942-4.834,10.777-10.777,10.777
		s-10.777-4.835-10.777-10.777s4.834-10.776,10.777-10.776S289.205,273.029,289.205,278.972z M213.742,323.998
		c-5.942,0-10.777-4.834-10.777-10.776s4.834-10.777,10.777-10.777s10.777,4.835,10.777,10.777S219.684,323.998,213.742,323.998z
		 M221.242,175.842c0-5.942,4.834-10.776,10.777-10.776s10.777,4.834,10.777,10.776s-4.834,10.777-10.777,10.777
		S221.242,181.784,221.242,175.842z"/>
</g>
<g>
</g>
<g>
</g>
<g>
</g>
<g>
</g>
<g>
</g>
<g>
</g>
<g>
</g>
<g>
</g>
<g>
</g>
<g>
</g>
<g>
</g>
<g>
</g>
<g>
</g>
<g>
</g>
<g>
</g>
</svg>
