<?xml version="1.0" encoding="iso-8859-1"?>
<!-- Generator: Adobe Illustrator 19.0.0, SVG Export Plug-In . SVG Version: 6.00 Build 0)  -->
<svg version="1.1" id="Layer_1" xmlns="http://www.w3.org/2000/svg" xmlns:xlink="http://www.w3.org/1999/xlink" x="0px" y="0px"
	 viewBox="0 0 507.294 507.294" style="enable-background:new 0 0 507.294 507.294;" xml:space="preserve">
<g>
	<path style="fill:#5F6C75;" d="M139.647,499.794h-21.333c-2.761,0-5-2.239-5-5v-36.816h31.333v36.816
		C144.647,497.556,142.408,499.794,139.647,499.794z"/>
	<path style="fill:#5F6C75;" d="M367.647,499.794h21.333c2.761,0,5-2.239,5-5v-36.816h-31.333v36.816
		C362.647,497.556,364.885,499.794,367.647,499.794z"/>
	<path style="fill:#7E8B96;" d="M428.571,12.504v450.49c0,2.76-2.24,5-5,5h-179.88V7.504h179.88
		C426.331,7.504,428.571,9.734,428.571,12.504z"/>
	<path style="fill:#909BA6;" d="M428.571,12.504v450.49c0,2.76-2.24,5-5,5h-147.42V7.504h147.42
		C426.331,7.504,428.571,9.734,428.571,12.504z"/>
	<path style="fill:#7E8B96;" d="M253.651,7.504v460.49H83.721c-2.76,0-5-2.24-5-5V12.504c0-2.77,2.24-5,5-5H253.651z"/>
	<path style="fill:#A2ABB8;" d="M253.651,7.504v460.49h-143.67c-2.76,0-5-2.24-5-5V12.504c0-2.77,2.24-5,5-5H253.651z"/>
	<path style="fill:#C2EAF2;" d="M200.981,40.994v196c0,2.76-2.24,5-5,5h-86c-2.76,0-5-2.24-5-5v-196c0-2.76,2.24-5,5-5h86
		C198.741,35.994,200.981,38.234,200.981,40.994z"/>
	<path style="fill:#DEF4F8;" d="M200.981,40.994v196c0,2.76-2.24,5-5,5h-68.03c-2.76,0-5-2.24-5-5v-196c0-2.76,2.24-5,5-5h68.03
		C198.741,35.994,200.981,38.234,200.981,40.994z"/>
	<path style="fill:#5F6C75;" d="M253.651,288.994v179H83.721c-2.76,0-5-2.24-5-5v-174H253.651z"/>
	<path style="fill:#4E5A61;" d="M109.981,467.994h-26.26c-2.76,0-5-2.24-5-5v-174h26.26v174
		C104.981,465.754,107.221,467.994,109.981,467.994z"/>
	<g>
		<path d="M428.575,285.419c-4.143,0-7.5,3.357-7.5,7.5v167.572c-18.886,0-141.106,0-159.928,0c0-22.219,0-422.857,0-445.491h42.847
			c4.143,0,7.5-3.357,7.5-7.5s-3.357-7.5-7.5-7.5C298.041,0,84.935,0,78.719,0c-4.143,0-7.5,3.357-7.5,7.5v125.419
			c0,4.143,3.357,7.5,7.5,7.5s7.5-3.357,7.5-7.5V15h159.928c0,34.775,0,245.894,0,266.494H86.219V162.919c0-4.143-3.357-7.5-7.5-7.5
			s-7.5,3.357-7.5,7.5v305.072c0,4.143,3.357,7.5,7.5,7.5h27.095v24.303c0,4.143,3.357,7.5,7.5,7.5h31.333
			c4.143,0,7.5-3.357,7.5-7.5v-24.303c11.266,0,191.734,0,203,0v24.303c0,4.143,3.357,7.5,7.5,7.5h31.333c4.143,0,7.5-3.357,7.5-7.5
			v-24.303h27.095c4.143,0,7.5-3.357,7.5-7.5V292.919C436.075,288.776,432.717,285.419,428.575,285.419z M137.147,492.294h-16.333
			v-16.803h16.333V492.294z M246.147,460.491c-7.015,0-152.892,0-159.928,0V296.494h159.928
			C246.147,310.791,246.147,437.924,246.147,460.491z M386.48,492.294h-16.333v-16.803h16.333V492.294z"/>
		<path d="M428.575,0h-94.581c-4.143,0-7.5,3.357-7.5,7.5s3.357,7.5,7.5,7.5h87.081v247.919c0,4.143,3.357,7.5,7.5,7.5
			s7.5-3.357,7.5-7.5V7.5C436.075,3.357,432.717,0,428.575,0z"/>
		<path d="M200.978,249.494c4.143,0,7.5-3.357,7.5-7.5v-206c0-4.143-3.357-7.5-7.5-7.5h-96c-4.143,0-7.5,3.357-7.5,7.5v206
			c0,4.143,3.357,7.5,7.5,7.5H200.978z M112.478,43.494h81v191h-81V43.494z"/>
		<path d="M235.221,241.994v-206c0-4.143-3.357-7.5-7.5-7.5s-7.5,3.357-7.5,7.5v206c0,4.143,3.357,7.5,7.5,7.5
			S235.221,246.137,235.221,241.994z"/>
		<path d="M160.208,109.94c-3.23-2.592-7.952-2.072-10.543,1.158l-28.797,35.904c-3.963,4.941-0.365,12.192,5.846,12.192
			c2.197,0,4.374-0.961,5.855-2.808l28.797-35.904C163.958,117.252,163.439,112.532,160.208,109.94z"/>
		<path d="M175.073,159.055c-3.231-2.593-7.951-2.072-10.543,1.158l-14.398,17.952c-2.592,3.231-2.073,7.951,1.158,10.543
			c3.241,2.601,7.96,2.062,10.543-1.158l14.398-17.952C178.823,166.366,178.304,161.646,175.073,159.055z"/>
		<path d="M149.048,90.071c2.197,0,4.374-0.961,5.855-2.808l14.398-17.952c2.592-3.231,2.073-7.951-1.158-10.543
			c-3.23-2.593-7.951-2.072-10.543,1.158l-14.398,17.952C139.24,82.82,142.838,90.071,149.048,90.071z"/>
		<path d="M144.119,332.494h45.724c4.143,0,7.5-3.357,7.5-7.5s-3.357-7.5-7.5-7.5h-45.724c-4.143,0-7.5,3.357-7.5,7.5
			S139.976,332.494,144.119,332.494z"/>
		<path d="M276.147,103.09v227.904c0,4.143,3.357,7.5,7.5,7.5s7.5-3.357,7.5-7.5V103.09c0-4.143-3.357-7.5-7.5-7.5
			S276.147,98.947,276.147,103.09z"/>
	</g>
</g>
<g>
</g>
<g>
</g>
<g>
</g>
<g>
</g>
<g>
</g>
<g>
</g>
<g>
</g>
<g>
</g>
<g>
</g>
<g>
</g>
<g>
</g>
<g>
</g>
<g>
</g>
<g>
</g>
<g>
</g>
</svg>
