<?xml version="1.0" encoding="iso-8859-1"?>
<!-- Generator: Adobe Illustrator 19.0.0, SVG Export Plug-In . SVG Version: 6.00 Build 0)  -->
<svg version="1.1" id="Layer_1" xmlns="http://www.w3.org/2000/svg" xmlns:xlink="http://www.w3.org/1999/xlink" x="0px" y="0px"
	 viewBox="0 0 509.603 509.603" style="enable-background:new 0 0 509.603 509.603;" xml:space="preserve">
<g>
	<path style="fill:#C8D2DC;" d="M404.923,353.19c0,46.22-12.62,91.71-36.67,131.48c-5.12,8.47-14.3,13.64-24.19,13.64h-178.34
		c-9.961,0-19.094-5.22-24.19-13.64c-27.64-45.71-40.18-98.97-35.82-152.21l13.46-194.51c2.47-35.66,18.53-67.32,42.9-90.07
		c83.602-78.012,220.645-23.951,228.54,90.07l13.46,194.51C404.643,339.38,404.923,346.29,404.923,353.19z"/>
	<path style="fill:#DCE6EB;" d="M404.923,353.19c0,46.22-12.62,91.71-36.67,131.48c-5.12,8.47-14.3,13.64-24.19,13.64h-138.4
		c-9.961,0-19.094-5.22-24.19-13.64c-27.65-45.71-40.18-98.97-35.82-152.21l13.46-194.51c4.482-64.71,53.603-116.025,115.75-125.19
		c62.27,9.18,111.28,60.63,115.75,125.19l13.46,194.51C404.643,339.38,404.923,346.29,404.923,353.19z"/>
	<path style="fill:#7E8B96;" d="M281.963,99.37v56.86c0,11.36-7.09,21.15-17.08,25.14c-3.09,1.25-6.47,1.93-9.99,1.93
		c-14.89,0-27.07-12.18-27.07-27.07V99.37c0-14.89,12.18-27.07,27.07-27.07c3.52,0,6.9,0.68,9.99,1.93
		C274.873,78.22,281.963,88.01,281.963,99.37z"/>
	<path style="fill:#909BA6;" d="M281.963,99.37v56.86c0,11.36-7.09,21.15-17.08,25.14c-9.99-3.98-17.09-13.77-17.09-25.14V99.37
		c0-11.37,7.1-21.16,17.09-25.14C274.873,78.22,281.963,88.01,281.963,99.37z"/>
	<path style="fill:#FD9A9A;" d="M479.399,116.16c-5.983-0.599-11.57,0.919-16.163,3.855c0.024-0.449,0.068-0.893,0.068-1.348
		c0-13.964-11.32-25.284-25.284-25.284c-9.534,0-17.832,5.279-22.14,13.071c-4.246-1.603-8.844-2.487-13.651-2.487
		c-14.979,0-26.874,6.545-33.295,19H313.56c-1.657,0-3,1.343-3,3v28.507c0,1.657,1.343,3,3,3h52.952
		c5.82,13.99,19.619,23.826,35.716,23.826c4.807,0,9.406-0.884,13.651-2.487c4.308,7.792,12.606,13.071,22.14,13.071
		c13.964,0,25.284-11.32,25.284-25.284c0-1.423-0.146-2.81-0.372-4.169c3.988,2.629,8.758,4.169,13.892,4.169
		c14.476,0,26.111-12.166,25.238-26.831C501.332,127.503,491.625,117.384,479.399,116.16z"/>
	<path style="fill:#F44545;" d="M95.924,74.438c11.424-4.165,15.989-17.467,10.092-27.681c-5.891-10.203-19.688-12.92-29.018-5.1
		c2.104-11.977-7.132-22.58-18.926-22.58c-11.781,0-21.033,10.59-18.926,22.58c-9.319-7.81-23.12-5.115-29.018,5.1
		C4.236,56.96,8.784,70.268,20.219,74.438C8.795,78.603,4.23,91.905,10.127,102.119c5.891,10.203,19.688,12.92,29.018,5.1
		c-2.104,11.977,7.132,22.58,18.926,22.58c11.781,0,21.033-10.59,18.926-22.58c9.319,7.81,23.12,5.115,29.018-5.1
		C111.907,91.915,107.36,78.607,95.924,74.438z"/>
	<path style="fill:#F44545;" d="M229.721,259.539c11.424-4.165,15.989-17.467,10.092-27.681c-5.891-10.203-19.688-12.92-29.018-5.1
		c2.104-11.977-7.132-22.58-18.926-22.58c-11.781,0-21.033,10.59-18.926,22.58c-9.319-7.81-23.12-5.115-29.018,5.1
		c-5.891,10.203-1.344,23.511,10.092,27.681c-11.424,4.165-15.989,17.467-10.092,27.681c5.891,10.203,19.688,12.92,29.018,5.1
		c-2.104,11.977,7.132,22.58,18.926,22.58c11.781,0,21.033-10.59,18.926-22.58c9.319,7.81,23.12,5.115,29.018-5.1
		C245.704,277.017,241.157,263.709,229.721,259.539z"/>
	<path style="fill:#F44545;" d="M313.449,419.031c11.424-4.165,15.989-17.467,10.092-27.681c-5.891-10.203-19.688-12.92-29.018-5.1
		c2.104-11.977-7.132-22.58-18.926-22.58c-11.781,0-21.033,10.59-18.926,22.58c-9.319-7.81-23.12-5.115-29.018,5.1
		c-5.891,10.203-1.344,23.511,10.092,27.681c-11.424,4.165-15.989,17.467-10.092,27.681c5.891,10.203,19.688,12.92,29.018,5.1
		c-2.104,11.977,7.132,22.58,18.926,22.58c11.781,0,21.033-10.59,18.926-22.58c9.319,7.81,23.12,5.115,29.018-5.1
		C329.432,436.509,324.885,423.201,313.449,419.031z"/>
	<path style="fill:#F44545;" d="M435.512,268.243c11.424-4.165,15.989-17.467,10.092-27.681c-5.891-10.203-19.688-12.92-29.018-5.1
		c2.104-11.977-7.132-22.58-18.926-22.58c-11.781,0-21.033,10.59-18.926,22.58c-9.319-7.81-23.12-5.115-29.018,5.1
		c-5.891,10.203-1.344,23.511,10.092,27.681c-11.424,4.165-15.989,17.467-10.092,27.681c5.891,10.203,19.688,12.92,29.018,5.1
		c-2.104,11.977,7.132,22.58,18.926,22.58c11.781,0,21.033-10.59,18.926-22.58c9.319,7.81,23.12,5.115,29.018-5.1
		C451.495,285.721,446.948,272.413,435.512,268.243z"/>
	<circle style="fill:#AF2727;" cx="58.072" cy="74.438" r="19.236"/>
	<circle style="fill:#AF2727;" cx="191.869" cy="259.539" r="19.236"/>
	<circle style="fill:#AF2727;" cx="275.597" cy="419.031" r="19.236"/>
	<circle style="fill:#AF2727;" cx="397.66" cy="268.243" r="19.236"/>
	<g>
		<path d="M399.153,407.52c-4.01-1-8.09,1.44-9.09,5.46c-5.98,23.91-15.48,46.73-28.23,67.81c-3.74,6.18-10.55,10.02-17.77,10.02
			h-178.34c-7.22,0-14.03-3.84-17.77-10.02c-23.28-38.49-35.58-82.61-35.58-127.59c0-13.071-0.103-5.184,11.09-168.54
			c0.28-4.13-2.83-7.72-6.97-8c-4.13-0.29-7.71,2.83-8,6.96c-11.132,162.661-11.12,155.642-11.12,169.58
			c0,47.72,13.05,94.52,37.74,135.35c6.44,10.65,18.17,17.26,30.61,17.26h178.34c12.44,0,24.17-6.61,30.61-17.26
			c13.52-22.36,23.6-46.57,29.94-71.93C405.613,412.6,403.173,408.53,399.153,407.52z"/>
		<path d="M274.21,96.209c0.672,4.087,4.531,6.855,8.618,6.183s6.855-4.531,6.183-8.618C286.293,77.256,271.626,64.8,254.893,64.8
			c-19.064,0-34.574,15.51-34.574,34.574v56.852c0,19.064,15.51,34.574,34.574,34.574s34.574-15.51,34.574-34.574V124.97
			c0-4.143-3.357-7.5-7.5-7.5s-7.5,3.357-7.5,7.5v31.256c0,10.793-8.781,19.574-19.574,19.574c-10.793,0-19.574-8.781-19.574-19.574
			V99.374c0-10.793,8.781-19.574,19.574-19.574C264.366,79.8,272.671,86.855,274.21,96.209z"/>
		<circle cx="254.893" cy="101.799" r="12.5"/>
		<path d="M469.464,109.37c-7.422-25.034-39.844-31.824-56.64-11.68c-7.606-1.781-15.935-1.537-23.13,0.23
			C354.751,2.478,232.569-28.16,156.963,42.4c-49.932,46.582-44.771,104.192-46.39,111.29c-0.29,4.14,2.83,7.72,6.96,8
			c4.14,0.27,7.71-2.83,8-6.96l1.12-16.26c4.65-67.11,60.98-119.67,128.24-119.67c55.19,0,103.02,35.39,120.97,85.17
			c-4.41,2.99-8.19,6.85-11.23,11.5h-54.07c-4.15,0-7.5,3.35-7.5,7.5c0,4.14,3.35,7.5,7.5,7.5h58.37c2.81,0,5.38-1.57,6.67-4.07
			c7.384-14.394,24.976-17.712,37.63-12.93c3.48,1.32,7.41-0.13,9.21-3.39c3.14-5.67,9.11-9.2,15.58-9.2
			c10.725,0,18.43,9.493,17.76,18.19c0.021,0.1-0.765,4.833,3.68,7.43c2.43,1.41,5.44,1.35,7.81-0.17
			c11.766-7.503,27.33,0.935,27.33,14.98c0,14.189-15.826,22.588-27.54,14.86c-5.437-3.581-12.609,1.018-11.53,7.49
			c1.844,11.266-6.891,20.72-17.51,20.72c-6.47,0-12.44-3.52-15.58-9.2c-1.8-3.26-5.73-4.69-9.21-3.38
			c-15.744,5.949-33.339-1.683-39.8-17.21c-1.16-2.79-3.89-4.62-6.92-4.62h-30.62c-4.14,0-7.5,3.36-7.5,7.5c0,4.15,3.36,7.5,7.5,7.5
			h25.92c5.46,9.89,14.24,17.3,24.61,21.05l1.47,21.21c-7.48,2.93-13.32,9.15-15.74,16.85c-25.748-5.755-42.933,25.395-25.49,44.21
			c-17.567,19.236,0.064,49.802,25.49,44.12c3.29,10.45,12.87,18.15,24.3,18.66c0.981,15.773,1.9,30.51-1.02,53.32
			c-0.52,4.11,2.38,7.86,6.49,8.39c4.232,0.513,7.881-2.478,8.39-6.5c3.235-25.251,2.007-41.658,0.92-58.89
			c5.63-3.32,9.94-8.64,11.93-14.98c25.724,5.719,42.88-25.392,25.5-44.22c17.519-19.188-0.045-49.799-25.5-44.11
			c-2.9-9.22-10.7-16.31-20.34-18.19l-1.18-17.1c2.369,0.125,6.989-0.227,11.18-1.22c17.477,20.96,51.607,12.577,57.27-14.17
			c20.4,4.265,39.51-11.344,39.51-32.09C509.603,120.203,489.84,104.615,469.464,109.37z M409.204,234.16
			c-1.219,6.893,6.858,11.527,12.2,7.05c2.73-2.29,5.59-2.77,7.52-2.77c13.056,0,16.371,18.24,4.02,22.76
			c-6.569,2.397-6.545,11.702,0,14.09c4.7,1.71,7.74,6.05,7.74,11.04c0,9.742-11.512,15.466-19.28,8.95
			c-4.28-3.605-10.852-1.377-12.11,4.01c-0.515,2.171,0.09,2.947,0.09,5.15c0,7.456-6.948,12.884-13.98,11.44
			c-6.158-1.2-10.456-7.138-9.28-13.56c1.202-6.902-6.905-11.499-12.21-7.04c-5.76,4.832-14.152,3.053-17.7-3.11
			c-3.581-6.189-0.889-14.315,6.16-16.88c6.542-2.387,6.572-11.692,0-14.09c-7.01-2.565-9.759-10.635-6.16-16.89
			c3.557-6.161,11.945-7.927,17.7-3.1c5.333,4.474,13.411-0.146,12.21-7.04c-1.32-7.212,4.25-13.79,11.54-13.79
			C404.761,220.38,410.479,226.715,409.204,234.16z"/>
		<path d="M58.072,47.702c-14.742,0-26.736,11.993-26.736,26.735s11.994,26.736,26.736,26.736S84.808,89.18,84.808,74.438
			S72.814,47.702,58.072,47.702z M58.072,86.174c-6.471,0-11.736-5.265-11.736-11.736c0-6.471,5.265-11.735,11.736-11.735
			s11.736,5.265,11.736,11.735C69.808,80.909,64.543,86.174,58.072,86.174z"/>
		<path d="M109.072,74.388c17.503-19.178-0.115-49.781-25.492-44.117C75.757,5.406,40.377,5.424,32.563,30.272
			C6.862,24.537-10.315,55.693,7.071,74.488c-17.528,19.204,0.012,49.803,25.493,44.116c7.822,24.867,43.203,24.843,51.016-0.001
			C109.064,124.29,126.684,93.426,109.072,74.388z M81.815,101.471c-5.347-4.483-13.411,0.167-12.205,7.044
			c1.304,7.425-4.421,13.784-11.539,13.784c-7.126,0-12.843-6.371-11.539-13.783c0.808-4.604-2.751-8.797-7.386-8.797
			c-5.129,0-5.509,4.522-12.336,4.522c-13.047,0-16.38-18.252-4.022-22.758c6.556-2.389,6.561-11.7,0-14.093
			c-7.077-2.58-9.725-10.72-6.166-16.884c3.549-6.147,11.932-7.94,17.706-3.103c5.344,4.482,13.411-0.165,12.205-7.044
			c-1.304-7.425,4.421-13.784,11.539-13.784c7.126,0,12.843,6.371,11.539,13.783c-1.205,6.869,6.851,11.53,12.205,7.045
			c2.163-1.813,4.763-2.771,7.518-2.771c13.106,0,16.343,18.265,4.022,22.758c-2.961,1.079-4.931,3.895-4.931,7.046
			s1.97,5.967,4.931,7.047c4.702,1.714,7.74,6.045,7.74,11.035C101.096,102.286,89.573,107.971,81.815,101.471z"/>
		<path d="M191.869,232.803c-14.742,0-26.736,11.994-26.736,26.736c0,14.742,11.994,26.735,26.736,26.735
			c14.742,0,26.735-11.993,26.735-26.735C218.604,244.797,206.611,232.803,191.869,232.803z M191.869,271.275
			c-6.471,0-11.736-5.265-11.736-11.735c0-6.472,5.265-11.736,11.736-11.736c6.471,0,11.735,5.265,11.735,11.736
			C203.604,266.01,198.34,271.275,191.869,271.275z"/>
		<path d="M166.361,215.373c-25.721-5.74-42.957,25.338-25.492,44.216c-17.53,19.207,0.015,49.804,25.492,44.117
			c7.822,24.864,43.202,24.847,51.016-0.001c25.486,5.687,43.104-25.179,25.492-44.217c17.456-19.124-0.064-49.792-25.493-44.116
			C209.554,190.508,174.175,190.526,166.361,215.373z M227.152,252.492c-6.556,2.392-6.561,11.701,0,14.094
			c4.702,1.714,7.74,6.045,7.74,11.035c0,9.751-11.51,15.462-19.281,8.951c-5.344-4.484-13.411,0.168-12.205,7.045
			c1.303,7.408-4.407,13.783-11.539,13.783c-7.126,0-12.843-6.371-11.539-13.783c1.206-6.87-6.852-11.53-12.205-7.045
			c-5.748,4.818-14.142,3.071-17.705-3.102c-3.55-6.152-0.937-14.296,6.166-16.885c6.555-2.391,6.562-11.702,0-14.093
			c-12.344-4.501-9.043-22.757,4.02-22.757c2.757,0,5.357,0.958,7.52,2.77c5.347,4.482,13.411-0.167,12.205-7.045
			c-1.303-7.408,4.407-13.783,11.539-13.783c7.126,0,12.842,6.371,11.539,13.783c-1.206,6.874,6.853,11.528,12.205,7.045
			c2.162-1.813,4.762-2.771,7.517-2.771C236.269,229.736,239.452,248.01,227.152,252.492z"/>
		<path d="M275.597,392.295c-14.742,0-26.735,11.994-26.735,26.736s11.993,26.735,26.735,26.735s26.736-11.993,26.736-26.735
			S290.339,392.295,275.597,392.295z M275.597,430.767c-6.471,0-11.735-5.265-11.735-11.735c0-6.472,5.265-11.736,11.735-11.736
			c6.472,0,11.736,5.265,11.736,11.736C287.333,425.502,282.068,430.767,275.597,430.767z"/>
		<path d="M301.105,374.864c-7.822-24.866-43.204-24.843-51.017,0.001c-25.688-5.732-42.893,25.407-25.491,44.216
			c-17.529,19.206,0.012,49.804,25.493,44.117c7.822,24.865,43.202,24.846,51.016-0.001c25.509,5.692,43.09-25.191,25.491-44.217
			C344.118,399.784,326.548,369.184,301.105,374.864z M310.881,426.078c7.09,2.583,9.718,10.731,6.165,16.884
			c-3.565,6.175-11.956,7.921-17.705,3.103c-5.346-4.483-13.414,0.168-12.204,7.047c1.302,7.423-4.421,13.781-11.54,13.781
			c-7.17,0-12.839-6.421-11.539-13.78c0.808-4.598-2.74-8.8-7.386-8.8c-5.05,0-5.595,4.522-12.336,4.522
			c-13.028,0-16.406-18.244-4.022-22.757c6.555-2.391,6.562-11.702,0-14.093c-4.703-1.715-7.741-6.047-7.741-11.037
			c0-9.881,11.608-15.379,19.281-8.95c5.351,4.486,13.413-0.173,12.204-7.047c-1.302-7.423,4.421-13.781,11.539-13.781
			c7.124,0,12.842,6.366,11.54,13.78c-1.209,6.874,6.85,11.531,12.205,7.048c5.763-4.831,14.148-3.054,17.704,3.103
			c3.556,6.162,0.924,14.3-6.166,16.885C304.323,414.375,304.32,423.687,310.881,426.078z"/>
		<path d="M370.924,268.243c0,14.742,11.993,26.736,26.735,26.736s26.736-11.994,26.736-26.736
			c0-14.742-11.994-26.735-26.736-26.735S370.924,253.501,370.924,268.243z M409.395,268.243c0,6.472-5.265,11.736-11.736,11.736
			c-6.471,0-11.735-5.265-11.735-11.736c0-6.471,5.265-11.735,11.735-11.735C404.131,256.508,409.395,261.773,409.395,268.243z"/>
	</g>
</g>
<g>
</g>
<g>
</g>
<g>
</g>
<g>
</g>
<g>
</g>
<g>
</g>
<g>
</g>
<g>
</g>
<g>
</g>
<g>
</g>
<g>
</g>
<g>
</g>
<g>
</g>
<g>
</g>
<g>
</g>
</svg>
