<svg aria-hidden="true" style="position: absolute; width: 0; height: 0; overflow: hidden;" version="1.1" xmlns="http://www.w3.org/2000/svg" xmlns:xlink="http://www.w3.org/1999/xlink">
<defs>
<symbol id="icon-youtube" viewBox="0 0 32 32">
<path fill="#cf2200" style="fill: var(--color1, #cf2200)" d="M4 0h24c2.209 0 4 1.791 4 4v24c0 2.209-1.791 4-4 4h-24c-2.209 0-4-1.791-4-4v-24c0-2.209 1.791-4 4-4z"></path>
<path fill="#fff" style="fill: var(--color2, #fff)" d="M23.206 21.787h-1.372l0.006-0.797c0-0.354 0.291-0.644 0.646-0.644h0.087c0.356 0 0.648 0.29 0.648 0.644l-0.016 0.797zM18.059 20.079c-0.348 0-0.633 0.234-0.633 0.52v3.876c0 0.286 0.285 0.519 0.633 0.519 0.349 0 0.634-0.233 0.634-0.519v-3.876c0-0.287-0.285-0.52-0.634-0.52zM26.417 17.911v7.373c0 1.769-1.534 3.216-3.408 3.216h-14.016c-1.875 0-3.409-1.447-3.409-3.216v-7.373c0-1.769 1.533-3.216 3.409-3.216h14.016c1.874 0 3.408 1.447 3.408 3.216zM9.927 26.085v-7.767l1.738 0.001v-1.151l-4.632-0.007v1.131l1.446 0.004v7.789h1.449zM15.135 19.475h-1.449v4.148c0 0.6 0.036 0.9-0.003 1.006-0.118 0.322-0.647 0.663-0.854 0.035-0.035-0.11-0.004-0.442-0.005-1.012l-0.006-4.176h-1.441l0.004 4.11c0 0.63-0.014 1.1 0.005 1.314 0.035 0.377 0.023 0.817 0.373 1.067 0.652 0.47 1.901-0.070 2.213-0.741l-0.003 0.856 1.163 0.001v-6.608zM19.769 24.224l-0.003-3.452c0-1.316-0.985-2.104-2.321-1.039l0.006-2.566-1.447 0.002-0.007 8.858 1.19-0.017 0.108-0.552c1.521 1.395 2.477 0.439 2.475-1.234zM24.303 23.767l-1.086 0.006c0 0.043-0.003 0.093-0.003 0.147v0.606c0 0.324-0.268 0.588-0.594 0.588h-0.213c-0.326 0-0.594-0.264-0.594-0.588v-1.594h2.487v-0.936c0-0.684-0.017-1.368-0.074-1.759-0.178-1.237-1.914-1.434-2.792-0.8-0.276 0.198-0.486 0.462-0.608 0.818-0.124 0.356-0.185 0.842-0.185 1.459v2.058c0 3.422 4.156 2.938 3.661-0.005zM18.731 12.592c0.075 0.182 0.191 0.329 0.348 0.44 0.156 0.109 0.355 0.164 0.593 0.164 0.209 0 0.394-0.056 0.555-0.173s0.296-0.289 0.406-0.52l-0.027 0.568h1.615v-6.867h-1.271v5.344c0 0.289-0.238 0.526-0.53 0.526-0.29 0-0.529-0.237-0.529-0.526v-5.344h-1.327v4.632c0 0.59 0.011 0.983 0.028 1.183 0.019 0.198 0.064 0.388 0.139 0.572zM13.838 8.714c0-0.659 0.055-1.174 0.164-1.545 0.11-0.37 0.307-0.667 0.594-0.891 0.285-0.225 0.651-0.338 1.095-0.338 0.374 0 0.694 0.073 0.961 0.217 0.269 0.144 0.476 0.332 0.619 0.563 0.146 0.232 0.246 0.471 0.299 0.715 0.054 0.247 0.081 0.621 0.081 1.124v1.737c0 0.637-0.026 1.106-0.075 1.403s-0.155 0.575-0.318 0.834c-0.161 0.257-0.369 0.449-0.622 0.571-0.255 0.124-0.547 0.184-0.876 0.184-0.368 0-0.678-0.051-0.934-0.157s-0.454-0.265-0.596-0.476c-0.143-0.212-0.243-0.469-0.303-0.77s-0.090-0.752-0.090-1.354v-1.818zM15.103 11.442c0 0.389 0.289 0.706 0.642 0.706s0.641-0.318 0.641-0.706v-3.656c0-0.388-0.288-0.706-0.641-0.706s-0.642 0.317-0.642 0.706v3.656zM10.634 13.287h1.523l0.003-5.267 1.8-4.512h-1.666l-0.957 3.351-0.971-3.36h-1.649l1.915 4.523 0.003 5.264z"></path>
</symbol>
<symbol id="icon-facebook" viewBox="0 0 32 32">
<path d="M28.715 1.467h-25.43c-1.002 0.003-1.814 0.815-1.817 1.817v25.43c0.003 1.002 0.815 1.814 1.817 1.817h13.677v-11.239h-3.791v-4.401h3.791v-3.266c0-2.573 0.594-4.045 1.879-4.994 1.101-0.813 2.535-0.864 3.411-0.838 0.938 0.029 3.758 0.188 3.758 0.188v3.986l-2.616-0.025s-1.091-0.038-1.5 0.584c-0.349 0.534-0.356 1.447-0.356 1.447v2.894h4.291l-0.483 4.426h-3.831v11.237h7.201c1.002-0.003 1.814-0.815 1.817-1.817v-25.43c-0.003-1.002-0.815-1.814-1.817-1.817h-0z"></path>
</symbol>

<symbol id="icon-messenger" viewBox="0 0 512 512">
<path  d="M256.55 8C116.52 8 8 110.34 8 248.57c0 72.3 29.71 134.78 78.07 177.94 8.35 7.51 6.63 11.86 8.05 58.23A19.92 19.92 0 0 0 122 502.31c52.91-23.3 53.59-25.14 62.56-22.7C337.85 521.8 504 423.7 504 248.57 504 110.34 396.59 8 256.55 8zm149.24 185.13l-73 115.57a37.37 37.37 0 0 1-53.91 9.93l-58.08-43.47a15 15 0 0 0-18 0l-78.37 59.44c-10.46 7.93-24.16-4.6-17.11-15.67l73-115.57a37.36 37.36 0 0 1 53.91-9.93l58.06 43.46a15 15 0 0 0 18 0l78.41-59.38c10.44-7.98 24.14 4.54 17.09 15.62z"/>
</symbol>
<symbol id="icon-telegram" viewBox="0 0 496 512">
<path d="M248,8C111.033,8,0,119.033,0,256S111.033,504,248,504,496,392.967,496,256,384.967,8,248,8ZM362.952,176.66c-3.732,39.215-19.881,134.378-28.1,178.3-3.476,18.584-10.322,24.816-16.948,25.425-14.4,1.326-25.338-9.517-39.287-18.661-21.827-14.308-34.158-23.215-55.346-37.177-24.485-16.135-8.612-25,5.342-39.5,3.652-3.793,67.107-61.51,68.335-66.746.153-.655.3-3.1-1.154-4.384s-3.59-.849-5.135-.5q-3.283.746-104.608,69.142-14.845,10.194-26.894,9.934c-8.855-.191-25.888-5.006-38.551-9.123-15.531-5.048-27.875-7.717-26.8-16.291q.84-6.7,18.45-13.7,108.446-47.248,144.628-62.3c68.872-28.647,83.183-33.623,92.511-33.789,2.052-.034,6.639.474,9.61,2.885a10.452,10.452,0,0,1,3.53,6.716A43.765,43.765,0,0,1,362.952,176.66Z"/>
</symbol>
<symbol id="icon-viber" viewBox="0 0 512 512">
<path d="M444 49.9C431.3 38.2 379.9.9 265.3.4c0 0-135.1-8.1-200.9 52.3C27.8 89.3 14.9 143 13.5 209.5c-1.4 66.5-3.1 191.1 117 224.9h.1l-.1 51.6s-.8 20.9 13 25.1c16.6 5.2 26.4-10.7 42.3-27.8 8.7-9.4 20.7-23.2 29.8-33.7 82.2 6.9 145.3-8.9 152.5-11.2 16.6-5.4 110.5-17.4 125.7-142 15.8-128.6-7.6-209.8-49.8-246.5zM457.9 287c-12.9 104-89 110.6-103 115.1-6 1.9-61.5 15.7-131.2 11.2 0 0-52 62.7-68.2 79-5.3 5.3-11.1 4.8-11-5.7 0-6.9.4-85.7.4-85.7-.1 0-.1 0 0 0-101.8-28.2-95.8-134.3-94.7-189.8 1.1-55.5 11.6-101 42.6-131.6 55.7-50.5 170.4-43 170.4-43 96.9.4 143.3 29.6 154.1 39.4 35.7 30.6 53.9 103.8 40.6 211.1zm-139-80.8c.4 8.6-12.5 9.2-12.9.6-1.1-22-11.4-32.7-32.6-33.9-8.6-.5-7.8-13.4.7-12.9 27.9 1.5 43.4 17.5 44.8 46.2zm20.3 11.3c1-42.4-25.5-75.6-75.8-79.3-8.5-.6-7.6-13.5.9-12.9 58 4.2 88.9 44.1 87.8 92.5-.1 8.6-13.1 8.2-12.9-.3zm47 13.4c.1 8.6-12.9 8.7-12.9.1-.6-81.5-54.9-125.9-120.8-126.4-8.5-.1-8.5-12.9 0-12.9 73.7.5 133 51.4 133.7 139.2zM374.9 329v.2c-10.8 19-31 40-51.8 33.3l-.2-.3c-21.1-5.9-70.8-31.5-102.2-56.5-16.2-12.8-31-27.9-42.4-42.4-10.3-12.9-20.7-28.2-30.8-46.6-21.3-38.5-26-55.7-26-55.7-6.7-20.8 14.2-41 33.3-51.8h.2c9.2-4.8 18-3.2 23.9 3.9 0 0 12.4 14.8 17.7 22.1 5 6.8 11.7 17.7 15.2 23.8 6.1 10.9 2.3 22-3.7 26.6l-12 9.6c-6.1 4.9-5.3 14-5.3 14s17.8 67.3 84.3 84.3c0 0 9.1.8 14-5.3l9.6-12c4.6-6 15.7-9.8 26.6-3.7 14.7 8.3 33.4 21.2 45.8 32.9 7 5.7 8.6 14.4 3.8 23.6z"/>
</symbol>
<symbol id="icon-whatsapp" viewBox="0 0 448 512">
<path d="M380.9 97.1C339 55.1 283.2 32 223.9 32c-122.4 0-222 99.6-222 222 0 39.1 10.2 77.3 29.6 111L0 480l117.7-30.9c32.4 17.7 68.9 27 106.1 27h.1c122.3 0 224.1-99.6 224.1-222 0-59.3-25.2-115-67.1-157zm-157 341.6c-33.2 0-65.7-8.9-94-25.7l-6.7-4-69.8 18.3L72 359.2l-4.4-7c-18.5-29.4-28.2-63.3-28.2-98.2 0-101.7 82.8-184.5 184.6-184.5 49.3 0 95.6 19.2 130.4 54.1 34.8 34.9 56.2 81.2 56.1 130.5 0 101.8-84.9 184.6-186.6 184.6zm101.2-138.2c-5.5-2.8-32.8-16.2-37.9-18-5.1-1.9-8.8-2.8-12.5 2.8-3.7 5.6-14.3 18-17.6 21.8-3.2 3.7-6.5 4.2-12 1.4-32.6-16.3-54-29.1-75.5-66-5.7-9.8 5.7-9.1 16.3-30.3 1.8-3.7.9-6.9-.5-9.7-1.4-2.8-12.5-30.1-17.1-41.2-4.5-10.8-9.1-9.3-12.5-9.5-3.2-.2-6.9-.2-10.6-.2-3.7 0-9.7 1.4-14.8 6.9-5.1 5.6-19.4 19-19.4 46.3 0 27.3 19.9 53.7 22.6 57.4 2.8 3.7 39.1 59.7 94.8 83.8 35.2 15.2 49 16.5 66.6 13.9 10.7-1.6 32.8-13.4 37.4-26.4 4.6-13 4.6-24.1 3.2-26.4-1.3-2.5-5-3.9-10.5-6.6z"/>
</symbol>

<symbol id="icon-smart-home" viewBox="0 0 32 32">
<path fill="#fff" style="fill: var(--color2, #fff)" d="M20.425 13.508l-7.149-7.149-7.149 7.149h-4.675v14.574h24.198v-14.574h-5.224z"></path>
<path fill="#b3d8f4" style="fill: var(--color15, #b3d8f4)" d="M9.959 18.286h7.184v9.796h-7.184v-9.796z"></path>
<path fill="#3d9ae2" style="fill: var(--color16, #3d9ae2)" d="M0.49 3.884v9.624h5.637l7.149-7.149 7.149 7.149h6.187v-9.624z"></path>
<path fill="#fff" style="fill: var(--color2, #fff)" d="M6.099 6.602h0.98v0.98h-0.98v-0.98z"></path>
<path fill="#fff" style="fill: var(--color2, #fff)" d="M5.989 5.427l-3.3 2.997v-6.465h3.3z"></path>
<path fill="#3d9ae2" style="fill: var(--color16, #3d9ae2)" d="M28.853 19.308c0 0.519-0.421 0.939-0.939 0.939s-0.939-0.421-0.939-0.939c0-0.519 0.421-0.939 0.939-0.939s0.939 0.421 0.939 0.939z"></path>
<path fill="#3d9ae2" style="fill: var(--color16, #3d9ae2)" d="M26.549 22.721c0 0.519-0.421 0.939-0.939 0.939s-0.939-0.421-0.939-0.939c0-0.519 0.421-0.939 0.939-0.939s0.939 0.421 0.939 0.939z"></path>
<path fill="#3d9ae2" style="fill: var(--color16, #3d9ae2)" d="M31.51 15.895c0 0.519-0.421 0.94-0.939 0.94s-0.939-0.421-0.939-0.94c0-0.519 0.421-0.94 0.939-0.94s0.939 0.421 0.939 0.94z"></path>
<path fill="#3d9ae2" style="fill: var(--color16, #3d9ae2)" d="M21.7 19.339c0 0.519-0.421 0.939-0.939 0.939s-0.939-0.421-0.939-0.939c0-0.519 0.421-0.939 0.939-0.939s0.939 0.421 0.939 0.939z"></path>
<path fill="#000" style="fill: var(--color4, #000)" d="M17.633 17.796h-8.163v9.796h-7.527v-13.594h4.387l6.947-6.946 6.946 6.946h4.937v4.371h0.98v-4.371h0.963v-10.604h-20.623v-1.925h-4.279v1.925h-2.2v10.604h0.963v14.573h21.019v-0.98h-4.349v-9.796zM26.122 13.018h-5.494l-2.228-2.228h1.719v-0.98h-2.699l-2.228-2.228h10.93v5.436zM3.179 2.449h2.32v2.762l-2.32 2.107v-4.869zM0.98 4.374h1.22v5.157l4.279-3.887v-1.27h19.643v2.229h-11.91l-0.936-0.936-0.936 0.936h-3.955v0.98h2.976l-2.228 2.228h-8.152v-5.436zM0.98 10.79h7.173l-2.228 2.228h-4.944v-2.228zM16.653 27.592h-6.204v-8.816h6.204v8.816z"></path>
<path fill="#000" style="fill: var(--color4, #000)" d="M25.609 21.292c-0.788 0-1.429 0.641-1.429 1.429 0 0.616 0.392 1.142 0.939 1.343v6.466h0.98v-6.466c0.548-0.2 0.939-0.727 0.939-1.343 0-0.788-0.641-1.429-1.429-1.429zM25.609 23.171c-0.248 0-0.45-0.202-0.45-0.45s0.202-0.45 0.45-0.45c0.248 0 0.45 0.202 0.45 0.45s-0.202 0.45-0.45 0.45z"></path>
<path fill="#000" style="fill: var(--color4, #000)" d="M30.571 14.465c-0.788 0-1.429 0.641-1.429 1.429 0 0.616 0.392 1.143 0.94 1.343l-0 7.572-1.678 1.678v-5.836c0.548-0.2 0.939-0.727 0.939-1.343 0-0.788-0.641-1.429-1.429-1.429s-1.429 0.641-1.429 1.429c0 0.616 0.392 1.142 0.939 1.343v9.88h0.98v-2.658l2.657-2.657 0-7.978c0.547-0.2 0.939-0.727 0.939-1.343 0-0.788-0.641-1.429-1.429-1.429zM27.913 19.758c-0.248 0-0.45-0.202-0.45-0.45s0.202-0.45 0.45-0.45c0.248 0 0.45 0.202 0.45 0.45s-0.202 0.45-0.45 0.45zM30.571 16.344c-0.248 0-0.45-0.202-0.45-0.45s0.202-0.45 0.45-0.45 0.45 0.202 0.45 0.45c0 0.248-0.202 0.45-0.45 0.45z"></path>
<path fill="#000" style="fill: var(--color4, #000)" d="M21.25 20.682c0.548-0.2 0.94-0.727 0.94-1.343 0-0.788-0.641-1.429-1.429-1.429s-1.429 0.641-1.429 1.429c0 0.616 0.392 1.142 0.939 1.343l0 4.533 2.657 2.657v2.658h0.98v-3.064l-2.657-2.657-0-4.127zM20.76 19.789c-0.248 0-0.45-0.202-0.45-0.45s0.202-0.45 0.45-0.45c0.248 0 0.45 0.202 0.45 0.45s-0.202 0.45-0.45 0.45z"></path>
<path fill="#fff" style="fill: var(--color2, #fff)" d="M23.711 9.81h0.98v0.98h-0.98v-0.98z"></path>
<path fill="#fff" style="fill: var(--color2, #fff)" d="M21.425 9.81h0.98v0.98h-0.98v-0.98z"></path>
</symbol>
<symbol id="icon-hamburger" viewBox="0 0 32 32">
<path d="M6.4 11.733v-2.133h19.2v2.133h-19.2zM6.4 17.067h19.2v-2.133h-19.2v2.133zM6.4 22.4h19.2v-2.133h-19.2v2.133z"></path>
</symbol>
<symbol id="icon-close" viewBox="0 0 40 40"><path d="M29.6667 12.88L27.7867 11L20.3333 18.4533L12.88 11L11 12.88L18.4533 20.3333L11 27.7867L12.88 29.6667L20.3333 22.2133L27.7867 29.6667L29.6667 27.7867L22.2133 20.3333L29.6667 12.88Z"/></symbol>
<symbol id="icon-send" viewBox="0 0 32 32">
<path fill="#fff" style="fill: var(--color2, #fff)" d="M32 0l-32 18 10.227 3.788 15.773-14.788-11.998 16.186 0.010 0.004-0.012-0.004v8.814l5.735-6.691 7.265 2.691 5-28z"></path>
</symbol>
<symbol id="icon-tel" viewBox="0 0 32 32">
<path d="M23 0h-14c-1.654 0-3 1.346-3 3v26c0 1.654 1.346 3 3 3h14c1.654 0 3-1.346 3-3v-26c0-1.654-1.346-3-3-3zM9 2h14c0.552 0 1 0.448 1 1v21h-16v-21c0-0.552 0.448-1 1-1zM23 30h-14c-0.552 0-1-0.448-1-1v-3h16v3c0 0.552-0.448 1-1 1z"></path>
</symbol>
<symbol id="icon-iphone" viewBox="0 0 32 32">
<path fill="#000" style="fill: var(--color4, #000)" d="M21.44 28.365h-10.707c-0.531 0-0.96-0.435-0.96-0.96v-22.81c0-0.531 0.435-0.96 0.96-0.96h10.707c0.531 0 0.96 0.435 0.96 0.96v22.81c0 0.531-0.429 0.96-0.96 0.96z"></path>
<path fill="#fff" style="fill: var(--color2, #fff)" d="M10.682 6.163h10.797v18.816h-10.797v-18.816z"></path>
<path fill="#fff" style="fill: var(--color2, #fff); stroke: var(--color2, #fff)" stroke="#fff" stroke-linejoin="miter" stroke-linecap="round" stroke-miterlimit="10" stroke-width="0.384" d="M14.016 5.248h4.096"></path>
<path fill="#fff" style="fill: var(--color2, #fff)" d="M17.107 26.675c0 0.583-0.473 1.056-1.056 1.056s-1.056-0.473-1.056-1.056c0-0.583 0.473-1.056 1.056-1.056s1.056 0.473 1.056 1.056z"></path>
</symbol>
<symbol id="icon-phone" viewBox="0 0 32 32">
<path d="M28 21.893v4.715c0 0 0 0 0 0.001 0 0.704-0.545 1.28-1.236 1.33l-0.004 0c-0.583 0.040-1.059 0.061-1.427 0.061-11.783 0-21.333-9.551-21.333-21.333 0-0.368 0.020-0.844 0.061-1.427 0.050-0.695 0.627-1.24 1.33-1.24 0 0 0 0 0.001 0h4.715c0 0 0 0 0.001 0 0.345 0 0.628 0.262 0.663 0.597l0 0.003c0.031 0.307 0.059 0.551 0.085 0.736 0.291 1.99 0.855 3.787 1.659 5.445l-0.048-0.11c0.127 0.267 0.044 0.585-0.196 0.756l-2.877 2.056c1.796 4.114 5.012 7.329 9.014 9.082l0.112 0.044 2.053-2.872c0.113-0.157 0.295-0.258 0.501-0.258 0.096 0 0.186 0.022 0.267 0.061l-0.004-0.002c1.548 0.754 3.344 1.317 5.233 1.595l0.101 0.012c0.185 0.027 0.429 0.056 0.733 0.085 0.338 0.036 0.599 0.319 0.599 0.663 0 0 0 0.001 0 0.001v-0z"></path>
</symbol>
<symbol id="icon-email" viewBox="0 0 32 32">
<path fill="#757575" style="fill: var(--color17, #757575)" d="M29 4h-26c-1.654 0-3 1.346-3 3v18c0 1.654 1.346 3 3 3h26c1.654 0 3-1.346 3-3v-18c0-1.654-1.346-3-3-3v0zM29 6c0.136 0 0.265 0.028 0.383 0.077l-13.383 11.599-13.383-11.599c0.118-0.049 0.247-0.077 0.383-0.077h26zM29 26h-26c-0.552 0-1-0.448-1-1v-16.81l13.345 11.565c0.188 0.163 0.422 0.244 0.655 0.244s0.467-0.081 0.655-0.244l13.345-11.565v16.81c0 0.552-0.448 1-1 1v0z"></path>
</symbol>
<symbol id="icon-icon-mail" viewBox="0 0 32 32">
<path d="M28 4h-24c-1.65 0-2.986 1.35-2.986 3l-0.014 18c0 1.65 1.35 3 3 3h24c1.65 0 3-1.35 3-3v-18c0-1.65-1.35-3-3-3zM27.4 10.376l-10.604 6.628c-0.226 0.141-0.501 0.225-0.795 0.225s-0.569-0.084-0.801-0.229l0.006 0.004-10.606-6.63c-0.378-0.226-0.627-0.632-0.627-1.097 0-0.704 0.57-1.274 1.274-1.274 0.262 0 0.505 0.079 0.707 0.214l-0.005-0.003 10.050 6.286 10.050-6.286c0.198-0.132 0.441-0.211 0.703-0.211 0.704 0 1.274 0.57 1.274 1.274 0 0.465-0.249 0.871-0.621 1.094l-0.006 0.003z"></path>
</symbol>
<symbol id="icon-icon-person" viewBox="0 0 32 32">
<path d="M16 16c4.418 0 8-3.582 8-8s-3.582-8-8-8v0c-4.418 0-8 3.582-8 8s3.582 8 8 8v0zM16 20c-5.339 0-16 2.68-16 8v2c0 1.099 0.901 2 2 2h28c1.099 0 2-0.901 2-2v-2c0-5.32-10.661-8-16-8z"></path>
</symbol>

<symbol id="icon-table" viewBox="0 0 24 24">
<g data-name="Google Sheets" id="Google_Sheets">
  <g data-name="&lt;Group&gt;" id="_Group_">
    <g data-name="&lt;Group&gt;" id="_Group_2">
      <path d="M20.5,5.5V22A1.5,1.5,0,0,1,19,23.5H5A1.5,1.5,0,0,1,3.5,22V2A1.5,1.5,0,0,1,5,.5H15.5Z" data-name="&lt;Path&gt;" id="_Path_" style="fill:none; stroke-linecap:round;stroke-linejoin:round"/>
      <path d="M15.5.5V4A1.5,1.5,0,0,0,17,5.5h3.5" data-name="&lt;Path&gt;" id="_Path_2" style="fill:none; stroke-linecap:round;stroke-linejoin:round"/>
    </g>
    <rect data-name="&lt;Rectangle&gt;" height="9" id="_Rectangle_" style="fill:none; stroke-linecap:round;stroke-linejoin:round" width="9" x="7.5" y="9.5"/>
    <line data-name="&lt;Path&gt;" id="_Path_3" style="fill:none; stroke-linecap:round;stroke-linejoin:round" x1="7.5" x2="16.5" y1="12.5" y2="12.5"/>
    <line data-name="&lt;Path&gt;" id="_Path_4" style="fill:none; stroke-linecap:round;stroke-linejoin:round" x1="7.5" x2="16.5" y1="15.5" y2="15.5"/>
    <line data-name="&lt;Path&gt;" id="_Path_5" style="fill:none; stroke-linecap:round;stroke-linejoin:round" x1="11" x2="11" y1="9.5" y2="18.5"/>
  </g>
</g>
</symbol>

</defs>
</svg>
