<svg aria-hidden="true" style="position:absolute;width:0;height:0;overflow:hidden" xmlns="http://www.w3.org/2000/svg"><defs><symbol id="icon-youtube" viewBox="0 0 32 32"><path fill="#cf2200" style="fill:var(--color1, #cf2200)" d="M4 0h24a4 4 0 0 1 4 4v24a4 4 0 0 1-4 4H4a4 4 0 0 1-4-4V4a4 4 0 0 1 4-4z"/><path fill="#fff" style="fill:var(--color2, #fff)" d="M23.206 21.787h-1.372l.006-.797c0-.354.291-.644.646-.644h.087c.356 0 .648.29.648.644l-.016.797zm-5.147-1.708c-.348 0-.633.234-.633.52v3.876c0 .286.285.519.633.519.349 0 .634-.233.634-.519v-3.876c0-.287-.285-.52-.634-.52zm8.358-2.168v7.373c0 1.769-1.534 3.216-3.408 3.216H8.993c-1.875 0-3.409-1.447-3.409-3.216v-7.373c0-1.769 1.533-3.216 3.409-3.216h14.016c1.874 0 3.408 1.447 3.408 3.216zm-16.49 8.174v-7.767l1.738.001v-1.151l-4.632-.007v1.131l1.446.004v7.789h1.449zm5.208-6.61h-1.449v4.148c0 .6.036.9-.003 1.006-.118.322-.647.663-.854.035-.035-.11-.004-.442-.005-1.012l-.006-4.176h-1.441l.004 4.11c0 .63-.014 1.1.005 1.314.035.377.023.817.373 1.067.652.47 1.901-.07 2.213-.741l-.003.856 1.163.001v-6.608zm4.634 4.749-.003-3.452c0-1.316-.985-2.104-2.321-1.039l.006-2.566-1.447.002-.007 8.858 1.19-.017.108-.552c1.521 1.395 2.477.439 2.475-1.234zm4.534-.457-1.086.006c0 .043-.003.093-.003.147v.606a.593.593 0 0 1-.594.588h-.213a.593.593 0 0 1-.594-.588v-1.594H24.3v-.936c0-.684-.017-1.368-.074-1.759-.178-1.237-1.914-1.434-2.792-.8a1.63 1.63 0 0 0-.608.818c-.124.356-.185.842-.185 1.459v2.058c0 3.422 4.156 2.938 3.661-.005zm-5.572-11.175a.988.988 0 0 0 .348.44c.156.109.355.164.593.164.209 0 .394-.056.555-.173s.296-.289.406-.52l-.027.568h1.615V6.204H20.95v5.344a.53.53 0 0 1-1.059 0V6.204h-1.327v4.632c0 .59.011.983.028 1.183.019.198.064.388.139.572zm-4.893-3.878c0-.659.055-1.174.164-1.545.11-.37.307-.667.594-.891.285-.225.651-.338 1.095-.338.374 0 .694.073.961.217.269.144.476.332.619.563.146.232.246.471.299.715.054.247.081.621.081 1.124v1.737c0 .637-.026 1.106-.075 1.403s-.155.575-.318.834a1.5 1.5 0 0 1-.622.571 1.978 1.978 0 0 1-.876.184c-.368 0-.678-.051-.934-.157s-.454-.265-.596-.476c-.143-.212-.243-.469-.303-.77s-.09-.752-.09-1.354V8.713zm1.265 2.728c0 .389.289.706.642.706s.641-.318.641-.706V7.786c0-.388-.288-.706-.641-.706s-.642.317-.642.706v3.656zm-4.469 1.845h1.523l.003-5.267 1.8-4.512h-1.666l-.957 3.351-.971-3.36H8.717l1.915 4.523.003 5.264z"/></symbol><symbol id="icon-facebook_logo_icon" viewBox="0 0 32 32"><path fill="#3b579d" style="fill:var(--color3, #3b579d)" d="M28.715 1.467H3.285a1.823 1.823 0 0 0-1.817 1.817v25.43a1.823 1.823 0 0 0 1.817 1.817h13.677V19.292h-3.791v-4.401h3.791v-3.266c0-2.573.594-4.045 1.879-4.994 1.101-.813 2.535-.864 3.411-.838.938.029 3.758.188 3.758.188v3.986l-2.616-.025s-1.091-.038-1.5.584c-.349.534-.356 1.447-.356 1.447v2.894h4.291l-.483 4.426h-3.831V30.53h7.201a1.823 1.823 0 0 0 1.817-1.817V3.283a1.823 1.823 0 0 0-1.817-1.817z"/></symbol><symbol id="icon-messenger" viewBox="0 0 32 32"><path style="fill:var(--color4, #000)" d="M5.983 26.268v5.692l5.322-3.026c1.484.428 3.061.658 4.695.658 8.759 0 15.858-6.625 15.858-14.796S24.759 0 16 0C7.242 0 .142 6.625.142 14.796c0 4.627 2.277 8.759 5.841 11.472z"/><path fill="#fff" style="fill:var(--color2, #fff)" d="m14.307 10.744-8.552 9.055 7.783-4.27 4.067 4.27 8.504-9.055-7.697 4.196-4.105-4.196z"/></symbol><symbol id="icon-telegram" viewBox="0 0 32 32"><path fill="#47b0d3" style="fill:var(--color5, #47b0d3)" d="M32 16c0 8.837-7.163 16-16 16S0 24.837 0 16 7.163 0 16 0s16 7.163 16 16z"/><path fill="#3298ba" style="fill:var(--color6, #3298ba)" d="M2.133 16C2.133 7.522 8.727.585 17.066.036A16.388 16.388 0 0 0 15.999 0c-8.837 0-16 7.163-16 16s7.163 16 16 16c.359 0 .714-.013 1.067-.036C8.727 31.415 2.133 24.478 2.133 16z"/><path fill="#e5e5e5" style="fill:var(--color7, #e5e5e5)" d="M23.766 6.816a.53.53 0 0 0-.525-.042L6.048 14.778a.841.841 0 0 0 .019 1.532l15.851 6.904a.848.848 0 0 0 1.186-.716l.895-15.209a.531.531 0 0 0-.233-.472z"/><path fill="#ccc" style="fill:var(--color8, #ccc)" d="m10.727 18.339 1.071 7.161 11.9-18.723z"/><path fill="#fff" style="fill:var(--color2, #fff)" d="M23.242 6.773 6.049 14.777c-.296.138-.489.445-.486.772s.205.63.504.761l4.66 2.029L23.698 6.777a.532.532 0 0 0-.456-.004z"/><path fill="#e5e5e5" style="fill:var(--color7, #e5e5e5)" d="M13.214 19.422 11.799 25.5l11.9-18.723z"/><path fill="#fff" style="fill:var(--color2, #fff)" d="M23.766 6.816a.517.517 0 0 0-.068-.039L13.214 19.422l8.704 3.791a.848.848 0 0 0 1.186-.716l.895-15.209a.531.531 0 0 0-.233-.472z"/></symbol><symbol id="icon-viber" viewBox="0 0 32 32"><path fill="#665cac" style="fill:var(--color9, #665cac)" d="M19.2 0h-6.401C6.622 0 1.598 5.025 1.598 11.201v4.801c0 4.336 2.501 8.271 6.401 10.123v5.346c0 .464.581.707.911.377l4.644-4.644H19.2c6.177 0 11.201-5.025 11.201-11.201v-4.801C30.401 5.025 25.376.001 19.2.001z"/><path fill="#523494" style="fill:var(--color10, #523494)" d="M9.599 26.125a11.206 11.206 0 0 1-6.401-10.123v-4.801C3.198 5.025 8.223 0 14.399 0h-1.6C6.622 0 1.598 5.025 1.598 11.201v4.801c0 4.336 2.501 8.271 6.401 10.123v5.346c0 .464.581.707.911.377l.69-.69v-5.034z"/><path fill="#fff" style="fill:var(--color2, #fff)" d="m24.053 19.881-.48-2.598a.533.533 0 0 0-.42-.426l-3.772-.754a.534.534 0 0 0-.482.146l-1.532 1.532c-2.582-1.157-4.015-2.593-5.275-5.285l1.527-1.527a.534.534 0 0 0 .146-.482l-.754-3.772a.535.535 0 0 0-.426-.42l-2.598-.479a.537.537 0 0 0-.215.004 3.717 3.717 0 0 0-1.81 1c-.863.863-1.192 2.121-.953 3.64.401 2.55 1.651 6.1 3.956 8.414l.031.031c2.313 2.304 5.862 3.553 8.413 3.955.321.051.631.076.927.076 1.106 0 2.032-.349 2.713-1.029a3.725 3.725 0 0 0 1-1.81.537.537 0 0 0 .004-.215z"/><path fill="#e5e5e5" style="fill:var(--color7, #e5e5e5)" d="m13.098 11.49.522-.522-.522.522zM18.373 16.775zM21.342 21.929c-.297 0-.606-.025-.927-.076-2.55-.401-6.1-1.651-8.413-3.955l-.031-.031c-2.305-2.315-3.555-5.864-3.956-8.414-.193-1.227-.015-2.284.516-3.1a3.772 3.772 0 0 0-.569.466c-.863.863-1.192 2.121-.953 3.64.401 2.55 1.651 6.1 3.956 8.414l.031.031c2.313 2.304 5.862 3.553 8.413 3.955.321.051.631.076.927.076 1.106 0 2.032-.349 2.713-1.029.175-.175.33-.365.466-.569-.602.392-1.336.592-2.173.592z"/><path fill="#fff" style="fill:var(--color2, #fff)" d="M17.067 9.068a.533.533 0 1 0 0 1.066c1.177 0 2.134.957 2.134 2.134 0 .291.243.533.533.533s.533-.243.533-.533c0-1.765-1.436-3.2-3.2-3.2z"/><path fill="#fff" style="fill:var(--color2, #fff)" d="M17.067 6.934c-.197 0-.396.011-.592.032a.534.534 0 0 0 .117 1.061 4.272 4.272 0 0 1 4.716 4.716c-.032.289.183.557.472.589s.557-.183.589-.472a5.34 5.34 0 0 0-5.302-5.926z"/><path fill="#fff" style="fill:var(--color2, #fff)" d="M17.067 4.801c-.191 0-.384.007-.574.022a.534.534 0 0 0 .08 1.064 6.408 6.408 0 0 1 6.723 7.859.539.539 0 0 0 .378.637.538.538 0 0 0 .66-.392 7.48 7.48 0 0 0 .2-1.723c0-4.118-3.35-7.468-7.468-7.468z"/></symbol><symbol id="icon-whatsapp" viewBox="0 0 32 32"><path fill="#7fd371" style="fill:var(--color11, #7fd371)" d="M16.005 0h-.01C7.175 0 0 7.176 0 15.999c0 3.499 1.129 6.744 3.047 9.378l-1.993 5.945 6.149-1.966a15.874 15.874 0 0 0 8.802 2.643c8.821 0 15.995-7.177 15.995-16 0-8.824-7.174-16-15.995-16zm9.309 22.594c-.385 1.091-1.918 1.994-3.14 2.258-.837.178-1.928.319-5.604-1.205-4.702-1.947-7.731-6.725-7.965-7.036-.226-.31-1.9-2.53-1.9-4.825s1.166-3.415 1.637-3.895c.386-.395 1.025-.572 1.636-.572.198 0 .376.009.536.018.47.02.705.049 1.015.791.386.931 1.326 3.226 1.439 3.461s.226.555.066.865c-.151.32-.282.462-.517.734-.236.272-.462.48-.696.771-.216.254-.461.527-.188.997.273.462 1.213 1.994 2.595 3.226 1.786 1.59 3.235 2.098 3.752 2.314.385.161.846.122 1.129-.179.357-.386.799-1.025 1.251-1.655.319-.453.724-.508 1.147-.349.433.15 2.719 1.279 3.189 1.515.469.235.78.348.892.546.113.199.113 1.129-.274 2.22z"/><path fill="#6dbc61" style="fill:var(--color12, #6dbc61)" d="M0 15.999c0 3.499 1.129 6.744 3.047 9.378l-1.993 5.945 6.149-1.966a15.874 15.874 0 0 0 8.802 2.643c8.821 0 15.995-7.177 15.995-16 0-8.824-7.174-16-15.995-16h-.01zm25.314 6.595c-.385 1.091-1.918 1.994-3.14 2.258-.837.178-1.928.319-5.604-1.205-4.702-1.947-7.731-6.725-7.965-7.036-.226-.31-1.9-2.53-1.9-4.825s1.166-3.415 1.637-3.895c.386-.395 1.025-.572 1.636-.572.198 0 .376.009.536.018.47.02.705.049 1.015.791.386.931 1.326 3.226 1.439 3.461s.226.555.066.865c-.151.32-.282.462-.517.734-.236.272-.462.48-.696.771-.216.254-.461.527-.188.997.273.462 1.213 1.994 2.595 3.226 1.786 1.59 3.235 2.098 3.752 2.314.385.161.846.122 1.129-.179.357-.386.799-1.025 1.251-1.655.319-.453.724-.508 1.147-.349.433.15 2.719 1.279 3.189 1.515.469.235.78.348.892.546.113.199.113 1.129-.274 2.22z"/><path fill="#549b45" style="fill:var(--color13, #549b45)" d="M21.121.844c4.079 3.487 6.742 8.818 6.742 13.331 0 2.486-.81 4.811-2.216 6.809-.019.412-.11.982-.333 1.609-.385 1.091-1.918 1.994-3.14 2.258a4.268 4.268 0 0 1-.782.102c-2.678 1.67-5.996 2.658-9.591 2.658-3.237 0-6.249-.804-8.772-2.183l-1.974 5.894 6.149-1.966a15.874 15.874 0 0 0 8.802 2.643c8.821 0 15.995-7.177 15.995-16 0-7.034-4.562-13.017-10.879-15.156z"/><path fill="#549b45" style="fill:var(--color13, #549b45)" d="M21.506 18.313c.107.037.326.134.603.262L11.417 7.883c.037.071.075.152.113.244.386.931 1.326 3.226 1.439 3.461s.226.555.066.865c-.151.32-.282.462-.517.734-.236.272-.462.48-.696.771-.216.254-.461.527-.188.997.273.462 1.213 1.994 2.595 3.226 1.786 1.59 3.235 2.098 3.752 2.314.385.161.846.122 1.129-.179.357-.386.799-1.025 1.251-1.655.319-.453.724-.508 1.146-.349z"/><path fill="#5caa4f" style="fill:var(--color14, #5caa4f)" d="m6.706 11.8-.105.106.115.115c-.004-.073-.01-.147-.01-.22z"/></symbol><symbol id="icon-smart-home" viewBox="0 0 32 32"><path fill="#fff" style="fill:var(--color2, #fff)" d="m20.425 13.508-7.149-7.149-7.149 7.149H1.452v14.574H25.65V13.508h-5.224z"/><path fill="#b3d8f4" style="fill:var(--color15, #b3d8f4)" d="M9.959 18.286h7.184v9.796H9.959v-9.796z"/><path fill="#3d9ae2" style="fill:var(--color16, #3d9ae2)" d="M.49 3.884v9.624h5.637l7.149-7.149 7.149 7.149h6.187V3.884z"/><path fill="#fff" style="fill:var(--color2, #fff)" d="M6.099 6.602h.98v.98h-.98v-.98zM5.989 5.427l-3.3 2.997V1.959h3.3z"/><path fill="#3d9ae2" style="fill:var(--color16, #3d9ae2)" d="M28.853 19.308a.94.94 0 1 1-1.878 0 .94.94 0 0 1 1.878 0zM26.549 22.721a.94.94 0 1 1-1.878 0 .94.94 0 0 1 1.878 0zM31.51 15.895a.94.94 0 1 1-1.88 0 .94.94 0 0 1 1.88 0zM21.7 19.339a.94.94 0 1 1-1.878 0 .94.94 0 0 1 1.878 0z"/><path style="fill:var(--color4, #000)" d="M17.633 17.796H9.47v9.796H1.943V13.998H6.33l6.947-6.946 6.946 6.946h4.937v4.371h.98v-4.371h.963V3.394H6.48V1.469H2.201v1.925h-2.2v10.604h.963v14.573h21.019v-.98h-4.349v-9.796zm8.489-4.778h-5.494L18.4 10.79h1.719v-.98H17.42l-2.228-2.228h10.93v5.436zM3.179 2.449h2.32v2.762l-2.32 2.107V2.449zM.98 4.374H2.2v5.157l4.279-3.887v-1.27h19.643v2.229h-11.91l-.936-.936-.936.936H8.385v.98h2.976L9.133 9.811H.981V4.375zm0 6.416h7.173l-2.228 2.228H.981V10.79zm15.673 16.802h-6.204v-8.816h6.204v8.816z"/><path style="fill:var(--color4, #000)" d="M25.609 21.292a1.43 1.43 0 0 0-.49 2.772v6.466h.98v-6.466a1.43 1.43 0 0 0-.49-2.772zm0 1.879a.45.45 0 1 1 .001-.901.45.45 0 0 1-.001.901z"/><path style="fill:var(--color4, #000)" d="M30.571 14.465a1.43 1.43 0 0 0-.489 2.772v7.572l-1.678 1.678v-5.836a1.43 1.43 0 0 0-.49-2.772 1.43 1.43 0 0 0-.49 2.772v9.88h.98v-2.658l2.657-2.657v-7.978a1.43 1.43 0 0 0-.49-2.772zm-2.658 5.293a.45.45 0 1 1 .001-.901.45.45 0 0 1-.001.901zm2.658-3.414a.45.45 0 1 1 .001-.901.45.45 0 0 1-.001.901zM21.25 20.682a1.43 1.43 0 0 0-.489-2.772 1.43 1.43 0 0 0-.49 2.772v4.533l2.657 2.657v2.658h.98v-3.064l-2.657-2.657v-4.127zm-.49-.893a.45.45 0 1 1 .001-.901.45.45 0 0 1-.001.901z"/><path fill="#fff" style="fill:var(--color2, #fff)" d="M23.711 9.81h.98v.98h-.98v-.98zM21.425 9.81h.98v.98h-.98v-.98z"/></symbol><symbol id="icon-menu_40px" viewBox="0 0 32 32"><path d="M6.4 11.733V9.6h19.2v2.133H6.4zm0 5.334h19.2v-2.133H6.4v2.133zm0 5.333h19.2v-2.133H6.4V22.4z"/></symbol><symbol id="icon-icon-cross" viewBox="0 0 32 32"><path d="M32 3.223 28.777 0 16 12.777 3.223 0 0 3.223 12.777 16 0 28.777 3.223 32 16 19.223 28.777 32 32 28.777 19.223 16 32 3.223z"/></symbol><symbol id="icon-send" viewBox="0 0 32 32"><path fill="#fff" style="fill:var(--color2, #fff)" d="M32 0 0 18l10.227 3.788L26 7 14.002 23.186l.01.004-.012-.004V32l5.735-6.691L27 28l5-28z"/></symbol><symbol id="icon-tel" viewBox="0 0 32 32"><path fill="#757575" style="fill:var(--color17, #757575)" d="M23 0H9C7.346 0 6 1.346 6 3v26c0 1.654 1.346 3 3 3h14c1.654 0 3-1.346 3-3V3c0-1.654-1.346-3-3-3zM9 2h14a1 1 0 0 1 1 1v21H8V3a1 1 0 0 1 1-1zm14 28H9a1 1 0 0 1-1-1v-3h16v3a1 1 0 0 1-1 1z"/></symbol><symbol id="icon-iphone" viewBox="0 0 32 32"><path style="fill:var(--color4, #000)" d="M21.44 28.365H10.733a.963.963 0 0 1-.96-.96V4.595c0-.531.435-.96.96-.96H21.44c.531 0 .96.435.96.96v22.81c0 .531-.429.96-.96.96z"/><path fill="#fff" style="fill:var(--color2, #fff)" d="M10.682 6.163h10.797v18.816H10.682V6.163z"/><path fill="#fff" style="fill:var(--color2, #fff);stroke:var(--color2, #fff)" stroke="#fff" stroke-linecap="round" stroke-miterlimit="10" stroke-width=".384" d="M14.016 5.248h4.096"/><path fill="#fff" style="fill:var(--color2, #fff)" d="M17.107 26.675a1.056 1.056 0 1 1-2.113 0 1.056 1.056 0 0 1 2.113 0z"/></symbol><symbol id="icon-phone" viewBox="0 0 32 32"><path d="M28 21.893v4.716c0 .704-.545 1.28-1.236 1.33h-.004c-.583.04-1.059.061-1.427.061C13.55 28 4 18.449 4 6.667c0-.368.02-.844.061-1.427.05-.695.627-1.24 1.33-1.24H10.108c.345 0 .628.262.663.597V4.6c.031.307.059.551.085.736.291 1.99.855 3.787 1.659 5.445l-.048-.11a.607.607 0 0 1-.196.756l-2.877 2.056c1.796 4.114 5.012 7.329 9.014 9.082l.112.044 2.053-2.872a.615.615 0 0 1 .768-.197l-.004-.002a18.076 18.076 0 0 0 5.233 1.595l.101.012c.185.027.429.056.733.085a.668.668 0 0 1 .599.663v.001z"/></symbol><symbol id="icon-email" viewBox="0 0 32 32"><path fill="#757575" style="fill:var(--color17, #757575)" d="M29 4H3C1.346 4 0 5.346 0 7v18c0 1.654 1.346 3 3 3h26c1.654 0 3-1.346 3-3V7c0-1.654-1.346-3-3-3zm0 2c.136 0 .265.028.383.077L16 17.676 2.617 6.077A.996.996 0 0 1 3 6h26zm0 20H3a1 1 0 0 1-1-1V8.19l13.345 11.565a.998.998 0 0 0 1.31 0L30 8.19V25a1 1 0 0 1-1 1z"/></symbol><symbol id="icon-icon-mail" viewBox="0 0 32 32"><path d="M28 4H4a2.997 2.997 0 0 0-2.986 3L1 25c0 1.65 1.35 3 3 3h24c1.65 0 3-1.35 3-3V7c0-1.65-1.35-3-3-3zm-.6 6.376-10.604 6.628c-.226.141-.501.225-.795.225s-.569-.084-.801-.229l.006.004L4.6 10.374a1.275 1.275 0 1 1 1.354-2.157l-.005-.003 10.05 6.286 10.05-6.286a1.274 1.274 0 1 1 1.356 2.157l-.006.003z"/></symbol><symbol id="icon-icon-person" viewBox="0 0 32 32"><path d="M16 16a8 8 0 0 0 0-16 8 8 0 0 0 0 16zm0 4c-5.339 0-16 2.68-16 8v2c0 1.099.901 2 2 2h28c1.099 0 2-.901 2-2v-2c0-5.32-10.661-8-16-8z"/></symbol></defs></svg>